G04 #@! TF.GenerationSoftware,KiCad,Pcbnew,(5.1.2)-1*
G04 #@! TF.CreationDate,2020-06-25T14:26:39+02:00*
G04 #@! TF.ProjectId,projet,70726f6a-6574-42e6-9b69-6361645f7063,rev?*
G04 #@! TF.SameCoordinates,Original*
G04 #@! TF.FileFunction,Paste,Top*
G04 #@! TF.FilePolarity,Positive*
%FSLAX46Y46*%
G04 Gerber Fmt 4.6, Leading zero omitted, Abs format (unit mm)*
G04 Created by KiCad (PCBNEW (5.1.2)-1) date 2020-06-25 14:26:39*
%MOMM*%
%LPD*%
G04 APERTURE LIST*
%ADD10C,0.100000*%
%ADD11C,1.425000*%
%ADD12C,0.600000*%
%ADD13R,0.900000X2.000000*%
%ADD14R,2.000000X0.900000*%
%ADD15R,5.000000X5.000000*%
%ADD16R,1.500000X2.000000*%
%ADD17R,3.800000X2.000000*%
%ADD18R,2.000000X1.300000*%
%ADD19R,2.000000X2.000000*%
G04 APERTURE END LIST*
D10*
G36*
X64930004Y-28717204D02*
G01*
X64954273Y-28720804D01*
X64978071Y-28726765D01*
X65001171Y-28735030D01*
X65023349Y-28745520D01*
X65044393Y-28758133D01*
X65064098Y-28772747D01*
X65082277Y-28789223D01*
X65098753Y-28807402D01*
X65113367Y-28827107D01*
X65125980Y-28848151D01*
X65136470Y-28870329D01*
X65144735Y-28893429D01*
X65150696Y-28917227D01*
X65154296Y-28941496D01*
X65155500Y-28966000D01*
X65155500Y-30216000D01*
X65154296Y-30240504D01*
X65150696Y-30264773D01*
X65144735Y-30288571D01*
X65136470Y-30311671D01*
X65125980Y-30333849D01*
X65113367Y-30354893D01*
X65098753Y-30374598D01*
X65082277Y-30392777D01*
X65064098Y-30409253D01*
X65044393Y-30423867D01*
X65023349Y-30436480D01*
X65001171Y-30446970D01*
X64978071Y-30455235D01*
X64954273Y-30461196D01*
X64930004Y-30464796D01*
X64905500Y-30466000D01*
X63980500Y-30466000D01*
X63955996Y-30464796D01*
X63931727Y-30461196D01*
X63907929Y-30455235D01*
X63884829Y-30446970D01*
X63862651Y-30436480D01*
X63841607Y-30423867D01*
X63821902Y-30409253D01*
X63803723Y-30392777D01*
X63787247Y-30374598D01*
X63772633Y-30354893D01*
X63760020Y-30333849D01*
X63749530Y-30311671D01*
X63741265Y-30288571D01*
X63735304Y-30264773D01*
X63731704Y-30240504D01*
X63730500Y-30216000D01*
X63730500Y-28966000D01*
X63731704Y-28941496D01*
X63735304Y-28917227D01*
X63741265Y-28893429D01*
X63749530Y-28870329D01*
X63760020Y-28848151D01*
X63772633Y-28827107D01*
X63787247Y-28807402D01*
X63803723Y-28789223D01*
X63821902Y-28772747D01*
X63841607Y-28758133D01*
X63862651Y-28745520D01*
X63884829Y-28735030D01*
X63907929Y-28726765D01*
X63931727Y-28720804D01*
X63955996Y-28717204D01*
X63980500Y-28716000D01*
X64905500Y-28716000D01*
X64930004Y-28717204D01*
X64930004Y-28717204D01*
G37*
D11*
X64443000Y-29591000D03*
D10*
G36*
X61955004Y-28717204D02*
G01*
X61979273Y-28720804D01*
X62003071Y-28726765D01*
X62026171Y-28735030D01*
X62048349Y-28745520D01*
X62069393Y-28758133D01*
X62089098Y-28772747D01*
X62107277Y-28789223D01*
X62123753Y-28807402D01*
X62138367Y-28827107D01*
X62150980Y-28848151D01*
X62161470Y-28870329D01*
X62169735Y-28893429D01*
X62175696Y-28917227D01*
X62179296Y-28941496D01*
X62180500Y-28966000D01*
X62180500Y-30216000D01*
X62179296Y-30240504D01*
X62175696Y-30264773D01*
X62169735Y-30288571D01*
X62161470Y-30311671D01*
X62150980Y-30333849D01*
X62138367Y-30354893D01*
X62123753Y-30374598D01*
X62107277Y-30392777D01*
X62089098Y-30409253D01*
X62069393Y-30423867D01*
X62048349Y-30436480D01*
X62026171Y-30446970D01*
X62003071Y-30455235D01*
X61979273Y-30461196D01*
X61955004Y-30464796D01*
X61930500Y-30466000D01*
X61005500Y-30466000D01*
X60980996Y-30464796D01*
X60956727Y-30461196D01*
X60932929Y-30455235D01*
X60909829Y-30446970D01*
X60887651Y-30436480D01*
X60866607Y-30423867D01*
X60846902Y-30409253D01*
X60828723Y-30392777D01*
X60812247Y-30374598D01*
X60797633Y-30354893D01*
X60785020Y-30333849D01*
X60774530Y-30311671D01*
X60766265Y-30288571D01*
X60760304Y-30264773D01*
X60756704Y-30240504D01*
X60755500Y-30216000D01*
X60755500Y-28966000D01*
X60756704Y-28941496D01*
X60760304Y-28917227D01*
X60766265Y-28893429D01*
X60774530Y-28870329D01*
X60785020Y-28848151D01*
X60797633Y-28827107D01*
X60812247Y-28807402D01*
X60828723Y-28789223D01*
X60846902Y-28772747D01*
X60866607Y-28758133D01*
X60887651Y-28745520D01*
X60909829Y-28735030D01*
X60932929Y-28726765D01*
X60956727Y-28720804D01*
X60980996Y-28717204D01*
X61005500Y-28716000D01*
X61930500Y-28716000D01*
X61955004Y-28717204D01*
X61955004Y-28717204D01*
G37*
D11*
X61468000Y-29591000D03*
D10*
G36*
X92017504Y-55133204D02*
G01*
X92041773Y-55136804D01*
X92065571Y-55142765D01*
X92088671Y-55151030D01*
X92110849Y-55161520D01*
X92131893Y-55174133D01*
X92151598Y-55188747D01*
X92169777Y-55205223D01*
X92186253Y-55223402D01*
X92200867Y-55243107D01*
X92213480Y-55264151D01*
X92223970Y-55286329D01*
X92232235Y-55309429D01*
X92238196Y-55333227D01*
X92241796Y-55357496D01*
X92243000Y-55382000D01*
X92243000Y-56632000D01*
X92241796Y-56656504D01*
X92238196Y-56680773D01*
X92232235Y-56704571D01*
X92223970Y-56727671D01*
X92213480Y-56749849D01*
X92200867Y-56770893D01*
X92186253Y-56790598D01*
X92169777Y-56808777D01*
X92151598Y-56825253D01*
X92131893Y-56839867D01*
X92110849Y-56852480D01*
X92088671Y-56862970D01*
X92065571Y-56871235D01*
X92041773Y-56877196D01*
X92017504Y-56880796D01*
X91993000Y-56882000D01*
X91068000Y-56882000D01*
X91043496Y-56880796D01*
X91019227Y-56877196D01*
X90995429Y-56871235D01*
X90972329Y-56862970D01*
X90950151Y-56852480D01*
X90929107Y-56839867D01*
X90909402Y-56825253D01*
X90891223Y-56808777D01*
X90874747Y-56790598D01*
X90860133Y-56770893D01*
X90847520Y-56749849D01*
X90837030Y-56727671D01*
X90828765Y-56704571D01*
X90822804Y-56680773D01*
X90819204Y-56656504D01*
X90818000Y-56632000D01*
X90818000Y-55382000D01*
X90819204Y-55357496D01*
X90822804Y-55333227D01*
X90828765Y-55309429D01*
X90837030Y-55286329D01*
X90847520Y-55264151D01*
X90860133Y-55243107D01*
X90874747Y-55223402D01*
X90891223Y-55205223D01*
X90909402Y-55188747D01*
X90929107Y-55174133D01*
X90950151Y-55161520D01*
X90972329Y-55151030D01*
X90995429Y-55142765D01*
X91019227Y-55136804D01*
X91043496Y-55133204D01*
X91068000Y-55132000D01*
X91993000Y-55132000D01*
X92017504Y-55133204D01*
X92017504Y-55133204D01*
G37*
D11*
X91530500Y-56007000D03*
D10*
G36*
X89042504Y-55133204D02*
G01*
X89066773Y-55136804D01*
X89090571Y-55142765D01*
X89113671Y-55151030D01*
X89135849Y-55161520D01*
X89156893Y-55174133D01*
X89176598Y-55188747D01*
X89194777Y-55205223D01*
X89211253Y-55223402D01*
X89225867Y-55243107D01*
X89238480Y-55264151D01*
X89248970Y-55286329D01*
X89257235Y-55309429D01*
X89263196Y-55333227D01*
X89266796Y-55357496D01*
X89268000Y-55382000D01*
X89268000Y-56632000D01*
X89266796Y-56656504D01*
X89263196Y-56680773D01*
X89257235Y-56704571D01*
X89248970Y-56727671D01*
X89238480Y-56749849D01*
X89225867Y-56770893D01*
X89211253Y-56790598D01*
X89194777Y-56808777D01*
X89176598Y-56825253D01*
X89156893Y-56839867D01*
X89135849Y-56852480D01*
X89113671Y-56862970D01*
X89090571Y-56871235D01*
X89066773Y-56877196D01*
X89042504Y-56880796D01*
X89018000Y-56882000D01*
X88093000Y-56882000D01*
X88068496Y-56880796D01*
X88044227Y-56877196D01*
X88020429Y-56871235D01*
X87997329Y-56862970D01*
X87975151Y-56852480D01*
X87954107Y-56839867D01*
X87934402Y-56825253D01*
X87916223Y-56808777D01*
X87899747Y-56790598D01*
X87885133Y-56770893D01*
X87872520Y-56749849D01*
X87862030Y-56727671D01*
X87853765Y-56704571D01*
X87847804Y-56680773D01*
X87844204Y-56656504D01*
X87843000Y-56632000D01*
X87843000Y-55382000D01*
X87844204Y-55357496D01*
X87847804Y-55333227D01*
X87853765Y-55309429D01*
X87862030Y-55286329D01*
X87872520Y-55264151D01*
X87885133Y-55243107D01*
X87899747Y-55223402D01*
X87916223Y-55205223D01*
X87934402Y-55188747D01*
X87954107Y-55174133D01*
X87975151Y-55161520D01*
X87997329Y-55151030D01*
X88020429Y-55142765D01*
X88044227Y-55136804D01*
X88068496Y-55133204D01*
X88093000Y-55132000D01*
X89018000Y-55132000D01*
X89042504Y-55133204D01*
X89042504Y-55133204D01*
G37*
D11*
X88555500Y-56007000D03*
D10*
G36*
X92017504Y-57800204D02*
G01*
X92041773Y-57803804D01*
X92065571Y-57809765D01*
X92088671Y-57818030D01*
X92110849Y-57828520D01*
X92131893Y-57841133D01*
X92151598Y-57855747D01*
X92169777Y-57872223D01*
X92186253Y-57890402D01*
X92200867Y-57910107D01*
X92213480Y-57931151D01*
X92223970Y-57953329D01*
X92232235Y-57976429D01*
X92238196Y-58000227D01*
X92241796Y-58024496D01*
X92243000Y-58049000D01*
X92243000Y-59299000D01*
X92241796Y-59323504D01*
X92238196Y-59347773D01*
X92232235Y-59371571D01*
X92223970Y-59394671D01*
X92213480Y-59416849D01*
X92200867Y-59437893D01*
X92186253Y-59457598D01*
X92169777Y-59475777D01*
X92151598Y-59492253D01*
X92131893Y-59506867D01*
X92110849Y-59519480D01*
X92088671Y-59529970D01*
X92065571Y-59538235D01*
X92041773Y-59544196D01*
X92017504Y-59547796D01*
X91993000Y-59549000D01*
X91068000Y-59549000D01*
X91043496Y-59547796D01*
X91019227Y-59544196D01*
X90995429Y-59538235D01*
X90972329Y-59529970D01*
X90950151Y-59519480D01*
X90929107Y-59506867D01*
X90909402Y-59492253D01*
X90891223Y-59475777D01*
X90874747Y-59457598D01*
X90860133Y-59437893D01*
X90847520Y-59416849D01*
X90837030Y-59394671D01*
X90828765Y-59371571D01*
X90822804Y-59347773D01*
X90819204Y-59323504D01*
X90818000Y-59299000D01*
X90818000Y-58049000D01*
X90819204Y-58024496D01*
X90822804Y-58000227D01*
X90828765Y-57976429D01*
X90837030Y-57953329D01*
X90847520Y-57931151D01*
X90860133Y-57910107D01*
X90874747Y-57890402D01*
X90891223Y-57872223D01*
X90909402Y-57855747D01*
X90929107Y-57841133D01*
X90950151Y-57828520D01*
X90972329Y-57818030D01*
X90995429Y-57809765D01*
X91019227Y-57803804D01*
X91043496Y-57800204D01*
X91068000Y-57799000D01*
X91993000Y-57799000D01*
X92017504Y-57800204D01*
X92017504Y-57800204D01*
G37*
D11*
X91530500Y-58674000D03*
D10*
G36*
X89042504Y-57800204D02*
G01*
X89066773Y-57803804D01*
X89090571Y-57809765D01*
X89113671Y-57818030D01*
X89135849Y-57828520D01*
X89156893Y-57841133D01*
X89176598Y-57855747D01*
X89194777Y-57872223D01*
X89211253Y-57890402D01*
X89225867Y-57910107D01*
X89238480Y-57931151D01*
X89248970Y-57953329D01*
X89257235Y-57976429D01*
X89263196Y-58000227D01*
X89266796Y-58024496D01*
X89268000Y-58049000D01*
X89268000Y-59299000D01*
X89266796Y-59323504D01*
X89263196Y-59347773D01*
X89257235Y-59371571D01*
X89248970Y-59394671D01*
X89238480Y-59416849D01*
X89225867Y-59437893D01*
X89211253Y-59457598D01*
X89194777Y-59475777D01*
X89176598Y-59492253D01*
X89156893Y-59506867D01*
X89135849Y-59519480D01*
X89113671Y-59529970D01*
X89090571Y-59538235D01*
X89066773Y-59544196D01*
X89042504Y-59547796D01*
X89018000Y-59549000D01*
X88093000Y-59549000D01*
X88068496Y-59547796D01*
X88044227Y-59544196D01*
X88020429Y-59538235D01*
X87997329Y-59529970D01*
X87975151Y-59519480D01*
X87954107Y-59506867D01*
X87934402Y-59492253D01*
X87916223Y-59475777D01*
X87899747Y-59457598D01*
X87885133Y-59437893D01*
X87872520Y-59416849D01*
X87862030Y-59394671D01*
X87853765Y-59371571D01*
X87847804Y-59347773D01*
X87844204Y-59323504D01*
X87843000Y-59299000D01*
X87843000Y-58049000D01*
X87844204Y-58024496D01*
X87847804Y-58000227D01*
X87853765Y-57976429D01*
X87862030Y-57953329D01*
X87872520Y-57931151D01*
X87885133Y-57910107D01*
X87899747Y-57890402D01*
X87916223Y-57872223D01*
X87934402Y-57855747D01*
X87954107Y-57841133D01*
X87975151Y-57828520D01*
X87997329Y-57818030D01*
X88020429Y-57809765D01*
X88044227Y-57803804D01*
X88068496Y-57800204D01*
X88093000Y-57799000D01*
X89018000Y-57799000D01*
X89042504Y-57800204D01*
X89042504Y-57800204D01*
G37*
D11*
X88555500Y-58674000D03*
D10*
G36*
X92017504Y-60467204D02*
G01*
X92041773Y-60470804D01*
X92065571Y-60476765D01*
X92088671Y-60485030D01*
X92110849Y-60495520D01*
X92131893Y-60508133D01*
X92151598Y-60522747D01*
X92169777Y-60539223D01*
X92186253Y-60557402D01*
X92200867Y-60577107D01*
X92213480Y-60598151D01*
X92223970Y-60620329D01*
X92232235Y-60643429D01*
X92238196Y-60667227D01*
X92241796Y-60691496D01*
X92243000Y-60716000D01*
X92243000Y-61966000D01*
X92241796Y-61990504D01*
X92238196Y-62014773D01*
X92232235Y-62038571D01*
X92223970Y-62061671D01*
X92213480Y-62083849D01*
X92200867Y-62104893D01*
X92186253Y-62124598D01*
X92169777Y-62142777D01*
X92151598Y-62159253D01*
X92131893Y-62173867D01*
X92110849Y-62186480D01*
X92088671Y-62196970D01*
X92065571Y-62205235D01*
X92041773Y-62211196D01*
X92017504Y-62214796D01*
X91993000Y-62216000D01*
X91068000Y-62216000D01*
X91043496Y-62214796D01*
X91019227Y-62211196D01*
X90995429Y-62205235D01*
X90972329Y-62196970D01*
X90950151Y-62186480D01*
X90929107Y-62173867D01*
X90909402Y-62159253D01*
X90891223Y-62142777D01*
X90874747Y-62124598D01*
X90860133Y-62104893D01*
X90847520Y-62083849D01*
X90837030Y-62061671D01*
X90828765Y-62038571D01*
X90822804Y-62014773D01*
X90819204Y-61990504D01*
X90818000Y-61966000D01*
X90818000Y-60716000D01*
X90819204Y-60691496D01*
X90822804Y-60667227D01*
X90828765Y-60643429D01*
X90837030Y-60620329D01*
X90847520Y-60598151D01*
X90860133Y-60577107D01*
X90874747Y-60557402D01*
X90891223Y-60539223D01*
X90909402Y-60522747D01*
X90929107Y-60508133D01*
X90950151Y-60495520D01*
X90972329Y-60485030D01*
X90995429Y-60476765D01*
X91019227Y-60470804D01*
X91043496Y-60467204D01*
X91068000Y-60466000D01*
X91993000Y-60466000D01*
X92017504Y-60467204D01*
X92017504Y-60467204D01*
G37*
D11*
X91530500Y-61341000D03*
D10*
G36*
X89042504Y-60467204D02*
G01*
X89066773Y-60470804D01*
X89090571Y-60476765D01*
X89113671Y-60485030D01*
X89135849Y-60495520D01*
X89156893Y-60508133D01*
X89176598Y-60522747D01*
X89194777Y-60539223D01*
X89211253Y-60557402D01*
X89225867Y-60577107D01*
X89238480Y-60598151D01*
X89248970Y-60620329D01*
X89257235Y-60643429D01*
X89263196Y-60667227D01*
X89266796Y-60691496D01*
X89268000Y-60716000D01*
X89268000Y-61966000D01*
X89266796Y-61990504D01*
X89263196Y-62014773D01*
X89257235Y-62038571D01*
X89248970Y-62061671D01*
X89238480Y-62083849D01*
X89225867Y-62104893D01*
X89211253Y-62124598D01*
X89194777Y-62142777D01*
X89176598Y-62159253D01*
X89156893Y-62173867D01*
X89135849Y-62186480D01*
X89113671Y-62196970D01*
X89090571Y-62205235D01*
X89066773Y-62211196D01*
X89042504Y-62214796D01*
X89018000Y-62216000D01*
X88093000Y-62216000D01*
X88068496Y-62214796D01*
X88044227Y-62211196D01*
X88020429Y-62205235D01*
X87997329Y-62196970D01*
X87975151Y-62186480D01*
X87954107Y-62173867D01*
X87934402Y-62159253D01*
X87916223Y-62142777D01*
X87899747Y-62124598D01*
X87885133Y-62104893D01*
X87872520Y-62083849D01*
X87862030Y-62061671D01*
X87853765Y-62038571D01*
X87847804Y-62014773D01*
X87844204Y-61990504D01*
X87843000Y-61966000D01*
X87843000Y-60716000D01*
X87844204Y-60691496D01*
X87847804Y-60667227D01*
X87853765Y-60643429D01*
X87862030Y-60620329D01*
X87872520Y-60598151D01*
X87885133Y-60577107D01*
X87899747Y-60557402D01*
X87916223Y-60539223D01*
X87934402Y-60522747D01*
X87954107Y-60508133D01*
X87975151Y-60495520D01*
X87997329Y-60485030D01*
X88020429Y-60476765D01*
X88044227Y-60470804D01*
X88068496Y-60467204D01*
X88093000Y-60466000D01*
X89018000Y-60466000D01*
X89042504Y-60467204D01*
X89042504Y-60467204D01*
G37*
D11*
X88555500Y-61341000D03*
D10*
G36*
X92017504Y-63134204D02*
G01*
X92041773Y-63137804D01*
X92065571Y-63143765D01*
X92088671Y-63152030D01*
X92110849Y-63162520D01*
X92131893Y-63175133D01*
X92151598Y-63189747D01*
X92169777Y-63206223D01*
X92186253Y-63224402D01*
X92200867Y-63244107D01*
X92213480Y-63265151D01*
X92223970Y-63287329D01*
X92232235Y-63310429D01*
X92238196Y-63334227D01*
X92241796Y-63358496D01*
X92243000Y-63383000D01*
X92243000Y-64633000D01*
X92241796Y-64657504D01*
X92238196Y-64681773D01*
X92232235Y-64705571D01*
X92223970Y-64728671D01*
X92213480Y-64750849D01*
X92200867Y-64771893D01*
X92186253Y-64791598D01*
X92169777Y-64809777D01*
X92151598Y-64826253D01*
X92131893Y-64840867D01*
X92110849Y-64853480D01*
X92088671Y-64863970D01*
X92065571Y-64872235D01*
X92041773Y-64878196D01*
X92017504Y-64881796D01*
X91993000Y-64883000D01*
X91068000Y-64883000D01*
X91043496Y-64881796D01*
X91019227Y-64878196D01*
X90995429Y-64872235D01*
X90972329Y-64863970D01*
X90950151Y-64853480D01*
X90929107Y-64840867D01*
X90909402Y-64826253D01*
X90891223Y-64809777D01*
X90874747Y-64791598D01*
X90860133Y-64771893D01*
X90847520Y-64750849D01*
X90837030Y-64728671D01*
X90828765Y-64705571D01*
X90822804Y-64681773D01*
X90819204Y-64657504D01*
X90818000Y-64633000D01*
X90818000Y-63383000D01*
X90819204Y-63358496D01*
X90822804Y-63334227D01*
X90828765Y-63310429D01*
X90837030Y-63287329D01*
X90847520Y-63265151D01*
X90860133Y-63244107D01*
X90874747Y-63224402D01*
X90891223Y-63206223D01*
X90909402Y-63189747D01*
X90929107Y-63175133D01*
X90950151Y-63162520D01*
X90972329Y-63152030D01*
X90995429Y-63143765D01*
X91019227Y-63137804D01*
X91043496Y-63134204D01*
X91068000Y-63133000D01*
X91993000Y-63133000D01*
X92017504Y-63134204D01*
X92017504Y-63134204D01*
G37*
D11*
X91530500Y-64008000D03*
D10*
G36*
X89042504Y-63134204D02*
G01*
X89066773Y-63137804D01*
X89090571Y-63143765D01*
X89113671Y-63152030D01*
X89135849Y-63162520D01*
X89156893Y-63175133D01*
X89176598Y-63189747D01*
X89194777Y-63206223D01*
X89211253Y-63224402D01*
X89225867Y-63244107D01*
X89238480Y-63265151D01*
X89248970Y-63287329D01*
X89257235Y-63310429D01*
X89263196Y-63334227D01*
X89266796Y-63358496D01*
X89268000Y-63383000D01*
X89268000Y-64633000D01*
X89266796Y-64657504D01*
X89263196Y-64681773D01*
X89257235Y-64705571D01*
X89248970Y-64728671D01*
X89238480Y-64750849D01*
X89225867Y-64771893D01*
X89211253Y-64791598D01*
X89194777Y-64809777D01*
X89176598Y-64826253D01*
X89156893Y-64840867D01*
X89135849Y-64853480D01*
X89113671Y-64863970D01*
X89090571Y-64872235D01*
X89066773Y-64878196D01*
X89042504Y-64881796D01*
X89018000Y-64883000D01*
X88093000Y-64883000D01*
X88068496Y-64881796D01*
X88044227Y-64878196D01*
X88020429Y-64872235D01*
X87997329Y-64863970D01*
X87975151Y-64853480D01*
X87954107Y-64840867D01*
X87934402Y-64826253D01*
X87916223Y-64809777D01*
X87899747Y-64791598D01*
X87885133Y-64771893D01*
X87872520Y-64750849D01*
X87862030Y-64728671D01*
X87853765Y-64705571D01*
X87847804Y-64681773D01*
X87844204Y-64657504D01*
X87843000Y-64633000D01*
X87843000Y-63383000D01*
X87844204Y-63358496D01*
X87847804Y-63334227D01*
X87853765Y-63310429D01*
X87862030Y-63287329D01*
X87872520Y-63265151D01*
X87885133Y-63244107D01*
X87899747Y-63224402D01*
X87916223Y-63206223D01*
X87934402Y-63189747D01*
X87954107Y-63175133D01*
X87975151Y-63162520D01*
X87997329Y-63152030D01*
X88020429Y-63143765D01*
X88044227Y-63137804D01*
X88068496Y-63134204D01*
X88093000Y-63133000D01*
X89018000Y-63133000D01*
X89042504Y-63134204D01*
X89042504Y-63134204D01*
G37*
D11*
X88555500Y-64008000D03*
D10*
G36*
X92017504Y-65801204D02*
G01*
X92041773Y-65804804D01*
X92065571Y-65810765D01*
X92088671Y-65819030D01*
X92110849Y-65829520D01*
X92131893Y-65842133D01*
X92151598Y-65856747D01*
X92169777Y-65873223D01*
X92186253Y-65891402D01*
X92200867Y-65911107D01*
X92213480Y-65932151D01*
X92223970Y-65954329D01*
X92232235Y-65977429D01*
X92238196Y-66001227D01*
X92241796Y-66025496D01*
X92243000Y-66050000D01*
X92243000Y-67300000D01*
X92241796Y-67324504D01*
X92238196Y-67348773D01*
X92232235Y-67372571D01*
X92223970Y-67395671D01*
X92213480Y-67417849D01*
X92200867Y-67438893D01*
X92186253Y-67458598D01*
X92169777Y-67476777D01*
X92151598Y-67493253D01*
X92131893Y-67507867D01*
X92110849Y-67520480D01*
X92088671Y-67530970D01*
X92065571Y-67539235D01*
X92041773Y-67545196D01*
X92017504Y-67548796D01*
X91993000Y-67550000D01*
X91068000Y-67550000D01*
X91043496Y-67548796D01*
X91019227Y-67545196D01*
X90995429Y-67539235D01*
X90972329Y-67530970D01*
X90950151Y-67520480D01*
X90929107Y-67507867D01*
X90909402Y-67493253D01*
X90891223Y-67476777D01*
X90874747Y-67458598D01*
X90860133Y-67438893D01*
X90847520Y-67417849D01*
X90837030Y-67395671D01*
X90828765Y-67372571D01*
X90822804Y-67348773D01*
X90819204Y-67324504D01*
X90818000Y-67300000D01*
X90818000Y-66050000D01*
X90819204Y-66025496D01*
X90822804Y-66001227D01*
X90828765Y-65977429D01*
X90837030Y-65954329D01*
X90847520Y-65932151D01*
X90860133Y-65911107D01*
X90874747Y-65891402D01*
X90891223Y-65873223D01*
X90909402Y-65856747D01*
X90929107Y-65842133D01*
X90950151Y-65829520D01*
X90972329Y-65819030D01*
X90995429Y-65810765D01*
X91019227Y-65804804D01*
X91043496Y-65801204D01*
X91068000Y-65800000D01*
X91993000Y-65800000D01*
X92017504Y-65801204D01*
X92017504Y-65801204D01*
G37*
D11*
X91530500Y-66675000D03*
D10*
G36*
X89042504Y-65801204D02*
G01*
X89066773Y-65804804D01*
X89090571Y-65810765D01*
X89113671Y-65819030D01*
X89135849Y-65829520D01*
X89156893Y-65842133D01*
X89176598Y-65856747D01*
X89194777Y-65873223D01*
X89211253Y-65891402D01*
X89225867Y-65911107D01*
X89238480Y-65932151D01*
X89248970Y-65954329D01*
X89257235Y-65977429D01*
X89263196Y-66001227D01*
X89266796Y-66025496D01*
X89268000Y-66050000D01*
X89268000Y-67300000D01*
X89266796Y-67324504D01*
X89263196Y-67348773D01*
X89257235Y-67372571D01*
X89248970Y-67395671D01*
X89238480Y-67417849D01*
X89225867Y-67438893D01*
X89211253Y-67458598D01*
X89194777Y-67476777D01*
X89176598Y-67493253D01*
X89156893Y-67507867D01*
X89135849Y-67520480D01*
X89113671Y-67530970D01*
X89090571Y-67539235D01*
X89066773Y-67545196D01*
X89042504Y-67548796D01*
X89018000Y-67550000D01*
X88093000Y-67550000D01*
X88068496Y-67548796D01*
X88044227Y-67545196D01*
X88020429Y-67539235D01*
X87997329Y-67530970D01*
X87975151Y-67520480D01*
X87954107Y-67507867D01*
X87934402Y-67493253D01*
X87916223Y-67476777D01*
X87899747Y-67458598D01*
X87885133Y-67438893D01*
X87872520Y-67417849D01*
X87862030Y-67395671D01*
X87853765Y-67372571D01*
X87847804Y-67348773D01*
X87844204Y-67324504D01*
X87843000Y-67300000D01*
X87843000Y-66050000D01*
X87844204Y-66025496D01*
X87847804Y-66001227D01*
X87853765Y-65977429D01*
X87862030Y-65954329D01*
X87872520Y-65932151D01*
X87885133Y-65911107D01*
X87899747Y-65891402D01*
X87916223Y-65873223D01*
X87934402Y-65856747D01*
X87954107Y-65842133D01*
X87975151Y-65829520D01*
X87997329Y-65819030D01*
X88020429Y-65810765D01*
X88044227Y-65804804D01*
X88068496Y-65801204D01*
X88093000Y-65800000D01*
X89018000Y-65800000D01*
X89042504Y-65801204D01*
X89042504Y-65801204D01*
G37*
D11*
X88555500Y-66675000D03*
D10*
G36*
X92017504Y-68468204D02*
G01*
X92041773Y-68471804D01*
X92065571Y-68477765D01*
X92088671Y-68486030D01*
X92110849Y-68496520D01*
X92131893Y-68509133D01*
X92151598Y-68523747D01*
X92169777Y-68540223D01*
X92186253Y-68558402D01*
X92200867Y-68578107D01*
X92213480Y-68599151D01*
X92223970Y-68621329D01*
X92232235Y-68644429D01*
X92238196Y-68668227D01*
X92241796Y-68692496D01*
X92243000Y-68717000D01*
X92243000Y-69967000D01*
X92241796Y-69991504D01*
X92238196Y-70015773D01*
X92232235Y-70039571D01*
X92223970Y-70062671D01*
X92213480Y-70084849D01*
X92200867Y-70105893D01*
X92186253Y-70125598D01*
X92169777Y-70143777D01*
X92151598Y-70160253D01*
X92131893Y-70174867D01*
X92110849Y-70187480D01*
X92088671Y-70197970D01*
X92065571Y-70206235D01*
X92041773Y-70212196D01*
X92017504Y-70215796D01*
X91993000Y-70217000D01*
X91068000Y-70217000D01*
X91043496Y-70215796D01*
X91019227Y-70212196D01*
X90995429Y-70206235D01*
X90972329Y-70197970D01*
X90950151Y-70187480D01*
X90929107Y-70174867D01*
X90909402Y-70160253D01*
X90891223Y-70143777D01*
X90874747Y-70125598D01*
X90860133Y-70105893D01*
X90847520Y-70084849D01*
X90837030Y-70062671D01*
X90828765Y-70039571D01*
X90822804Y-70015773D01*
X90819204Y-69991504D01*
X90818000Y-69967000D01*
X90818000Y-68717000D01*
X90819204Y-68692496D01*
X90822804Y-68668227D01*
X90828765Y-68644429D01*
X90837030Y-68621329D01*
X90847520Y-68599151D01*
X90860133Y-68578107D01*
X90874747Y-68558402D01*
X90891223Y-68540223D01*
X90909402Y-68523747D01*
X90929107Y-68509133D01*
X90950151Y-68496520D01*
X90972329Y-68486030D01*
X90995429Y-68477765D01*
X91019227Y-68471804D01*
X91043496Y-68468204D01*
X91068000Y-68467000D01*
X91993000Y-68467000D01*
X92017504Y-68468204D01*
X92017504Y-68468204D01*
G37*
D11*
X91530500Y-69342000D03*
D10*
G36*
X89042504Y-68468204D02*
G01*
X89066773Y-68471804D01*
X89090571Y-68477765D01*
X89113671Y-68486030D01*
X89135849Y-68496520D01*
X89156893Y-68509133D01*
X89176598Y-68523747D01*
X89194777Y-68540223D01*
X89211253Y-68558402D01*
X89225867Y-68578107D01*
X89238480Y-68599151D01*
X89248970Y-68621329D01*
X89257235Y-68644429D01*
X89263196Y-68668227D01*
X89266796Y-68692496D01*
X89268000Y-68717000D01*
X89268000Y-69967000D01*
X89266796Y-69991504D01*
X89263196Y-70015773D01*
X89257235Y-70039571D01*
X89248970Y-70062671D01*
X89238480Y-70084849D01*
X89225867Y-70105893D01*
X89211253Y-70125598D01*
X89194777Y-70143777D01*
X89176598Y-70160253D01*
X89156893Y-70174867D01*
X89135849Y-70187480D01*
X89113671Y-70197970D01*
X89090571Y-70206235D01*
X89066773Y-70212196D01*
X89042504Y-70215796D01*
X89018000Y-70217000D01*
X88093000Y-70217000D01*
X88068496Y-70215796D01*
X88044227Y-70212196D01*
X88020429Y-70206235D01*
X87997329Y-70197970D01*
X87975151Y-70187480D01*
X87954107Y-70174867D01*
X87934402Y-70160253D01*
X87916223Y-70143777D01*
X87899747Y-70125598D01*
X87885133Y-70105893D01*
X87872520Y-70084849D01*
X87862030Y-70062671D01*
X87853765Y-70039571D01*
X87847804Y-70015773D01*
X87844204Y-69991504D01*
X87843000Y-69967000D01*
X87843000Y-68717000D01*
X87844204Y-68692496D01*
X87847804Y-68668227D01*
X87853765Y-68644429D01*
X87862030Y-68621329D01*
X87872520Y-68599151D01*
X87885133Y-68578107D01*
X87899747Y-68558402D01*
X87916223Y-68540223D01*
X87934402Y-68523747D01*
X87954107Y-68509133D01*
X87975151Y-68496520D01*
X87997329Y-68486030D01*
X88020429Y-68477765D01*
X88044227Y-68471804D01*
X88068496Y-68468204D01*
X88093000Y-68467000D01*
X89018000Y-68467000D01*
X89042504Y-68468204D01*
X89042504Y-68468204D01*
G37*
D11*
X88555500Y-69342000D03*
D10*
G36*
X144413504Y-34540704D02*
G01*
X144437773Y-34544304D01*
X144461571Y-34550265D01*
X144484671Y-34558530D01*
X144506849Y-34569020D01*
X144527893Y-34581633D01*
X144547598Y-34596247D01*
X144565777Y-34612723D01*
X144582253Y-34630902D01*
X144596867Y-34650607D01*
X144609480Y-34671651D01*
X144619970Y-34693829D01*
X144628235Y-34716929D01*
X144634196Y-34740727D01*
X144637796Y-34764996D01*
X144639000Y-34789500D01*
X144639000Y-35714500D01*
X144637796Y-35739004D01*
X144634196Y-35763273D01*
X144628235Y-35787071D01*
X144619970Y-35810171D01*
X144609480Y-35832349D01*
X144596867Y-35853393D01*
X144582253Y-35873098D01*
X144565777Y-35891277D01*
X144547598Y-35907753D01*
X144527893Y-35922367D01*
X144506849Y-35934980D01*
X144484671Y-35945470D01*
X144461571Y-35953735D01*
X144437773Y-35959696D01*
X144413504Y-35963296D01*
X144389000Y-35964500D01*
X143139000Y-35964500D01*
X143114496Y-35963296D01*
X143090227Y-35959696D01*
X143066429Y-35953735D01*
X143043329Y-35945470D01*
X143021151Y-35934980D01*
X143000107Y-35922367D01*
X142980402Y-35907753D01*
X142962223Y-35891277D01*
X142945747Y-35873098D01*
X142931133Y-35853393D01*
X142918520Y-35832349D01*
X142908030Y-35810171D01*
X142899765Y-35787071D01*
X142893804Y-35763273D01*
X142890204Y-35739004D01*
X142889000Y-35714500D01*
X142889000Y-34789500D01*
X142890204Y-34764996D01*
X142893804Y-34740727D01*
X142899765Y-34716929D01*
X142908030Y-34693829D01*
X142918520Y-34671651D01*
X142931133Y-34650607D01*
X142945747Y-34630902D01*
X142962223Y-34612723D01*
X142980402Y-34596247D01*
X143000107Y-34581633D01*
X143021151Y-34569020D01*
X143043329Y-34558530D01*
X143066429Y-34550265D01*
X143090227Y-34544304D01*
X143114496Y-34540704D01*
X143139000Y-34539500D01*
X144389000Y-34539500D01*
X144413504Y-34540704D01*
X144413504Y-34540704D01*
G37*
D11*
X143764000Y-35252000D03*
D10*
G36*
X144413504Y-37515704D02*
G01*
X144437773Y-37519304D01*
X144461571Y-37525265D01*
X144484671Y-37533530D01*
X144506849Y-37544020D01*
X144527893Y-37556633D01*
X144547598Y-37571247D01*
X144565777Y-37587723D01*
X144582253Y-37605902D01*
X144596867Y-37625607D01*
X144609480Y-37646651D01*
X144619970Y-37668829D01*
X144628235Y-37691929D01*
X144634196Y-37715727D01*
X144637796Y-37739996D01*
X144639000Y-37764500D01*
X144639000Y-38689500D01*
X144637796Y-38714004D01*
X144634196Y-38738273D01*
X144628235Y-38762071D01*
X144619970Y-38785171D01*
X144609480Y-38807349D01*
X144596867Y-38828393D01*
X144582253Y-38848098D01*
X144565777Y-38866277D01*
X144547598Y-38882753D01*
X144527893Y-38897367D01*
X144506849Y-38909980D01*
X144484671Y-38920470D01*
X144461571Y-38928735D01*
X144437773Y-38934696D01*
X144413504Y-38938296D01*
X144389000Y-38939500D01*
X143139000Y-38939500D01*
X143114496Y-38938296D01*
X143090227Y-38934696D01*
X143066429Y-38928735D01*
X143043329Y-38920470D01*
X143021151Y-38909980D01*
X143000107Y-38897367D01*
X142980402Y-38882753D01*
X142962223Y-38866277D01*
X142945747Y-38848098D01*
X142931133Y-38828393D01*
X142918520Y-38807349D01*
X142908030Y-38785171D01*
X142899765Y-38762071D01*
X142893804Y-38738273D01*
X142890204Y-38714004D01*
X142889000Y-38689500D01*
X142889000Y-37764500D01*
X142890204Y-37739996D01*
X142893804Y-37715727D01*
X142899765Y-37691929D01*
X142908030Y-37668829D01*
X142918520Y-37646651D01*
X142931133Y-37625607D01*
X142945747Y-37605902D01*
X142962223Y-37587723D01*
X142980402Y-37571247D01*
X143000107Y-37556633D01*
X143021151Y-37544020D01*
X143043329Y-37533530D01*
X143066429Y-37525265D01*
X143090227Y-37519304D01*
X143114496Y-37515704D01*
X143139000Y-37514500D01*
X144389000Y-37514500D01*
X144413504Y-37515704D01*
X144413504Y-37515704D01*
G37*
D11*
X143764000Y-38227000D03*
D10*
G36*
X92017504Y-71135204D02*
G01*
X92041773Y-71138804D01*
X92065571Y-71144765D01*
X92088671Y-71153030D01*
X92110849Y-71163520D01*
X92131893Y-71176133D01*
X92151598Y-71190747D01*
X92169777Y-71207223D01*
X92186253Y-71225402D01*
X92200867Y-71245107D01*
X92213480Y-71266151D01*
X92223970Y-71288329D01*
X92232235Y-71311429D01*
X92238196Y-71335227D01*
X92241796Y-71359496D01*
X92243000Y-71384000D01*
X92243000Y-72634000D01*
X92241796Y-72658504D01*
X92238196Y-72682773D01*
X92232235Y-72706571D01*
X92223970Y-72729671D01*
X92213480Y-72751849D01*
X92200867Y-72772893D01*
X92186253Y-72792598D01*
X92169777Y-72810777D01*
X92151598Y-72827253D01*
X92131893Y-72841867D01*
X92110849Y-72854480D01*
X92088671Y-72864970D01*
X92065571Y-72873235D01*
X92041773Y-72879196D01*
X92017504Y-72882796D01*
X91993000Y-72884000D01*
X91068000Y-72884000D01*
X91043496Y-72882796D01*
X91019227Y-72879196D01*
X90995429Y-72873235D01*
X90972329Y-72864970D01*
X90950151Y-72854480D01*
X90929107Y-72841867D01*
X90909402Y-72827253D01*
X90891223Y-72810777D01*
X90874747Y-72792598D01*
X90860133Y-72772893D01*
X90847520Y-72751849D01*
X90837030Y-72729671D01*
X90828765Y-72706571D01*
X90822804Y-72682773D01*
X90819204Y-72658504D01*
X90818000Y-72634000D01*
X90818000Y-71384000D01*
X90819204Y-71359496D01*
X90822804Y-71335227D01*
X90828765Y-71311429D01*
X90837030Y-71288329D01*
X90847520Y-71266151D01*
X90860133Y-71245107D01*
X90874747Y-71225402D01*
X90891223Y-71207223D01*
X90909402Y-71190747D01*
X90929107Y-71176133D01*
X90950151Y-71163520D01*
X90972329Y-71153030D01*
X90995429Y-71144765D01*
X91019227Y-71138804D01*
X91043496Y-71135204D01*
X91068000Y-71134000D01*
X91993000Y-71134000D01*
X92017504Y-71135204D01*
X92017504Y-71135204D01*
G37*
D11*
X91530500Y-72009000D03*
D10*
G36*
X89042504Y-71135204D02*
G01*
X89066773Y-71138804D01*
X89090571Y-71144765D01*
X89113671Y-71153030D01*
X89135849Y-71163520D01*
X89156893Y-71176133D01*
X89176598Y-71190747D01*
X89194777Y-71207223D01*
X89211253Y-71225402D01*
X89225867Y-71245107D01*
X89238480Y-71266151D01*
X89248970Y-71288329D01*
X89257235Y-71311429D01*
X89263196Y-71335227D01*
X89266796Y-71359496D01*
X89268000Y-71384000D01*
X89268000Y-72634000D01*
X89266796Y-72658504D01*
X89263196Y-72682773D01*
X89257235Y-72706571D01*
X89248970Y-72729671D01*
X89238480Y-72751849D01*
X89225867Y-72772893D01*
X89211253Y-72792598D01*
X89194777Y-72810777D01*
X89176598Y-72827253D01*
X89156893Y-72841867D01*
X89135849Y-72854480D01*
X89113671Y-72864970D01*
X89090571Y-72873235D01*
X89066773Y-72879196D01*
X89042504Y-72882796D01*
X89018000Y-72884000D01*
X88093000Y-72884000D01*
X88068496Y-72882796D01*
X88044227Y-72879196D01*
X88020429Y-72873235D01*
X87997329Y-72864970D01*
X87975151Y-72854480D01*
X87954107Y-72841867D01*
X87934402Y-72827253D01*
X87916223Y-72810777D01*
X87899747Y-72792598D01*
X87885133Y-72772893D01*
X87872520Y-72751849D01*
X87862030Y-72729671D01*
X87853765Y-72706571D01*
X87847804Y-72682773D01*
X87844204Y-72658504D01*
X87843000Y-72634000D01*
X87843000Y-71384000D01*
X87844204Y-71359496D01*
X87847804Y-71335227D01*
X87853765Y-71311429D01*
X87862030Y-71288329D01*
X87872520Y-71266151D01*
X87885133Y-71245107D01*
X87899747Y-71225402D01*
X87916223Y-71207223D01*
X87934402Y-71190747D01*
X87954107Y-71176133D01*
X87975151Y-71163520D01*
X87997329Y-71153030D01*
X88020429Y-71144765D01*
X88044227Y-71138804D01*
X88068496Y-71135204D01*
X88093000Y-71134000D01*
X89018000Y-71134000D01*
X89042504Y-71135204D01*
X89042504Y-71135204D01*
G37*
D11*
X88555500Y-72009000D03*
D10*
G36*
X85794504Y-57800204D02*
G01*
X85818773Y-57803804D01*
X85842571Y-57809765D01*
X85865671Y-57818030D01*
X85887849Y-57828520D01*
X85908893Y-57841133D01*
X85928598Y-57855747D01*
X85946777Y-57872223D01*
X85963253Y-57890402D01*
X85977867Y-57910107D01*
X85990480Y-57931151D01*
X86000970Y-57953329D01*
X86009235Y-57976429D01*
X86015196Y-58000227D01*
X86018796Y-58024496D01*
X86020000Y-58049000D01*
X86020000Y-59299000D01*
X86018796Y-59323504D01*
X86015196Y-59347773D01*
X86009235Y-59371571D01*
X86000970Y-59394671D01*
X85990480Y-59416849D01*
X85977867Y-59437893D01*
X85963253Y-59457598D01*
X85946777Y-59475777D01*
X85928598Y-59492253D01*
X85908893Y-59506867D01*
X85887849Y-59519480D01*
X85865671Y-59529970D01*
X85842571Y-59538235D01*
X85818773Y-59544196D01*
X85794504Y-59547796D01*
X85770000Y-59549000D01*
X84845000Y-59549000D01*
X84820496Y-59547796D01*
X84796227Y-59544196D01*
X84772429Y-59538235D01*
X84749329Y-59529970D01*
X84727151Y-59519480D01*
X84706107Y-59506867D01*
X84686402Y-59492253D01*
X84668223Y-59475777D01*
X84651747Y-59457598D01*
X84637133Y-59437893D01*
X84624520Y-59416849D01*
X84614030Y-59394671D01*
X84605765Y-59371571D01*
X84599804Y-59347773D01*
X84596204Y-59323504D01*
X84595000Y-59299000D01*
X84595000Y-58049000D01*
X84596204Y-58024496D01*
X84599804Y-58000227D01*
X84605765Y-57976429D01*
X84614030Y-57953329D01*
X84624520Y-57931151D01*
X84637133Y-57910107D01*
X84651747Y-57890402D01*
X84668223Y-57872223D01*
X84686402Y-57855747D01*
X84706107Y-57841133D01*
X84727151Y-57828520D01*
X84749329Y-57818030D01*
X84772429Y-57809765D01*
X84796227Y-57803804D01*
X84820496Y-57800204D01*
X84845000Y-57799000D01*
X85770000Y-57799000D01*
X85794504Y-57800204D01*
X85794504Y-57800204D01*
G37*
D11*
X85307500Y-58674000D03*
D10*
G36*
X82819504Y-57800204D02*
G01*
X82843773Y-57803804D01*
X82867571Y-57809765D01*
X82890671Y-57818030D01*
X82912849Y-57828520D01*
X82933893Y-57841133D01*
X82953598Y-57855747D01*
X82971777Y-57872223D01*
X82988253Y-57890402D01*
X83002867Y-57910107D01*
X83015480Y-57931151D01*
X83025970Y-57953329D01*
X83034235Y-57976429D01*
X83040196Y-58000227D01*
X83043796Y-58024496D01*
X83045000Y-58049000D01*
X83045000Y-59299000D01*
X83043796Y-59323504D01*
X83040196Y-59347773D01*
X83034235Y-59371571D01*
X83025970Y-59394671D01*
X83015480Y-59416849D01*
X83002867Y-59437893D01*
X82988253Y-59457598D01*
X82971777Y-59475777D01*
X82953598Y-59492253D01*
X82933893Y-59506867D01*
X82912849Y-59519480D01*
X82890671Y-59529970D01*
X82867571Y-59538235D01*
X82843773Y-59544196D01*
X82819504Y-59547796D01*
X82795000Y-59549000D01*
X81870000Y-59549000D01*
X81845496Y-59547796D01*
X81821227Y-59544196D01*
X81797429Y-59538235D01*
X81774329Y-59529970D01*
X81752151Y-59519480D01*
X81731107Y-59506867D01*
X81711402Y-59492253D01*
X81693223Y-59475777D01*
X81676747Y-59457598D01*
X81662133Y-59437893D01*
X81649520Y-59416849D01*
X81639030Y-59394671D01*
X81630765Y-59371571D01*
X81624804Y-59347773D01*
X81621204Y-59323504D01*
X81620000Y-59299000D01*
X81620000Y-58049000D01*
X81621204Y-58024496D01*
X81624804Y-58000227D01*
X81630765Y-57976429D01*
X81639030Y-57953329D01*
X81649520Y-57931151D01*
X81662133Y-57910107D01*
X81676747Y-57890402D01*
X81693223Y-57872223D01*
X81711402Y-57855747D01*
X81731107Y-57841133D01*
X81752151Y-57828520D01*
X81774329Y-57818030D01*
X81797429Y-57809765D01*
X81821227Y-57803804D01*
X81845496Y-57800204D01*
X81870000Y-57799000D01*
X82795000Y-57799000D01*
X82819504Y-57800204D01*
X82819504Y-57800204D01*
G37*
D11*
X82332500Y-58674000D03*
D10*
G36*
X85794504Y-60467204D02*
G01*
X85818773Y-60470804D01*
X85842571Y-60476765D01*
X85865671Y-60485030D01*
X85887849Y-60495520D01*
X85908893Y-60508133D01*
X85928598Y-60522747D01*
X85946777Y-60539223D01*
X85963253Y-60557402D01*
X85977867Y-60577107D01*
X85990480Y-60598151D01*
X86000970Y-60620329D01*
X86009235Y-60643429D01*
X86015196Y-60667227D01*
X86018796Y-60691496D01*
X86020000Y-60716000D01*
X86020000Y-61966000D01*
X86018796Y-61990504D01*
X86015196Y-62014773D01*
X86009235Y-62038571D01*
X86000970Y-62061671D01*
X85990480Y-62083849D01*
X85977867Y-62104893D01*
X85963253Y-62124598D01*
X85946777Y-62142777D01*
X85928598Y-62159253D01*
X85908893Y-62173867D01*
X85887849Y-62186480D01*
X85865671Y-62196970D01*
X85842571Y-62205235D01*
X85818773Y-62211196D01*
X85794504Y-62214796D01*
X85770000Y-62216000D01*
X84845000Y-62216000D01*
X84820496Y-62214796D01*
X84796227Y-62211196D01*
X84772429Y-62205235D01*
X84749329Y-62196970D01*
X84727151Y-62186480D01*
X84706107Y-62173867D01*
X84686402Y-62159253D01*
X84668223Y-62142777D01*
X84651747Y-62124598D01*
X84637133Y-62104893D01*
X84624520Y-62083849D01*
X84614030Y-62061671D01*
X84605765Y-62038571D01*
X84599804Y-62014773D01*
X84596204Y-61990504D01*
X84595000Y-61966000D01*
X84595000Y-60716000D01*
X84596204Y-60691496D01*
X84599804Y-60667227D01*
X84605765Y-60643429D01*
X84614030Y-60620329D01*
X84624520Y-60598151D01*
X84637133Y-60577107D01*
X84651747Y-60557402D01*
X84668223Y-60539223D01*
X84686402Y-60522747D01*
X84706107Y-60508133D01*
X84727151Y-60495520D01*
X84749329Y-60485030D01*
X84772429Y-60476765D01*
X84796227Y-60470804D01*
X84820496Y-60467204D01*
X84845000Y-60466000D01*
X85770000Y-60466000D01*
X85794504Y-60467204D01*
X85794504Y-60467204D01*
G37*
D11*
X85307500Y-61341000D03*
D10*
G36*
X82819504Y-60467204D02*
G01*
X82843773Y-60470804D01*
X82867571Y-60476765D01*
X82890671Y-60485030D01*
X82912849Y-60495520D01*
X82933893Y-60508133D01*
X82953598Y-60522747D01*
X82971777Y-60539223D01*
X82988253Y-60557402D01*
X83002867Y-60577107D01*
X83015480Y-60598151D01*
X83025970Y-60620329D01*
X83034235Y-60643429D01*
X83040196Y-60667227D01*
X83043796Y-60691496D01*
X83045000Y-60716000D01*
X83045000Y-61966000D01*
X83043796Y-61990504D01*
X83040196Y-62014773D01*
X83034235Y-62038571D01*
X83025970Y-62061671D01*
X83015480Y-62083849D01*
X83002867Y-62104893D01*
X82988253Y-62124598D01*
X82971777Y-62142777D01*
X82953598Y-62159253D01*
X82933893Y-62173867D01*
X82912849Y-62186480D01*
X82890671Y-62196970D01*
X82867571Y-62205235D01*
X82843773Y-62211196D01*
X82819504Y-62214796D01*
X82795000Y-62216000D01*
X81870000Y-62216000D01*
X81845496Y-62214796D01*
X81821227Y-62211196D01*
X81797429Y-62205235D01*
X81774329Y-62196970D01*
X81752151Y-62186480D01*
X81731107Y-62173867D01*
X81711402Y-62159253D01*
X81693223Y-62142777D01*
X81676747Y-62124598D01*
X81662133Y-62104893D01*
X81649520Y-62083849D01*
X81639030Y-62061671D01*
X81630765Y-62038571D01*
X81624804Y-62014773D01*
X81621204Y-61990504D01*
X81620000Y-61966000D01*
X81620000Y-60716000D01*
X81621204Y-60691496D01*
X81624804Y-60667227D01*
X81630765Y-60643429D01*
X81639030Y-60620329D01*
X81649520Y-60598151D01*
X81662133Y-60577107D01*
X81676747Y-60557402D01*
X81693223Y-60539223D01*
X81711402Y-60522747D01*
X81731107Y-60508133D01*
X81752151Y-60495520D01*
X81774329Y-60485030D01*
X81797429Y-60476765D01*
X81821227Y-60470804D01*
X81845496Y-60467204D01*
X81870000Y-60466000D01*
X82795000Y-60466000D01*
X82819504Y-60467204D01*
X82819504Y-60467204D01*
G37*
D11*
X82332500Y-61341000D03*
D10*
G36*
X85794504Y-63134204D02*
G01*
X85818773Y-63137804D01*
X85842571Y-63143765D01*
X85865671Y-63152030D01*
X85887849Y-63162520D01*
X85908893Y-63175133D01*
X85928598Y-63189747D01*
X85946777Y-63206223D01*
X85963253Y-63224402D01*
X85977867Y-63244107D01*
X85990480Y-63265151D01*
X86000970Y-63287329D01*
X86009235Y-63310429D01*
X86015196Y-63334227D01*
X86018796Y-63358496D01*
X86020000Y-63383000D01*
X86020000Y-64633000D01*
X86018796Y-64657504D01*
X86015196Y-64681773D01*
X86009235Y-64705571D01*
X86000970Y-64728671D01*
X85990480Y-64750849D01*
X85977867Y-64771893D01*
X85963253Y-64791598D01*
X85946777Y-64809777D01*
X85928598Y-64826253D01*
X85908893Y-64840867D01*
X85887849Y-64853480D01*
X85865671Y-64863970D01*
X85842571Y-64872235D01*
X85818773Y-64878196D01*
X85794504Y-64881796D01*
X85770000Y-64883000D01*
X84845000Y-64883000D01*
X84820496Y-64881796D01*
X84796227Y-64878196D01*
X84772429Y-64872235D01*
X84749329Y-64863970D01*
X84727151Y-64853480D01*
X84706107Y-64840867D01*
X84686402Y-64826253D01*
X84668223Y-64809777D01*
X84651747Y-64791598D01*
X84637133Y-64771893D01*
X84624520Y-64750849D01*
X84614030Y-64728671D01*
X84605765Y-64705571D01*
X84599804Y-64681773D01*
X84596204Y-64657504D01*
X84595000Y-64633000D01*
X84595000Y-63383000D01*
X84596204Y-63358496D01*
X84599804Y-63334227D01*
X84605765Y-63310429D01*
X84614030Y-63287329D01*
X84624520Y-63265151D01*
X84637133Y-63244107D01*
X84651747Y-63224402D01*
X84668223Y-63206223D01*
X84686402Y-63189747D01*
X84706107Y-63175133D01*
X84727151Y-63162520D01*
X84749329Y-63152030D01*
X84772429Y-63143765D01*
X84796227Y-63137804D01*
X84820496Y-63134204D01*
X84845000Y-63133000D01*
X85770000Y-63133000D01*
X85794504Y-63134204D01*
X85794504Y-63134204D01*
G37*
D11*
X85307500Y-64008000D03*
D10*
G36*
X82819504Y-63134204D02*
G01*
X82843773Y-63137804D01*
X82867571Y-63143765D01*
X82890671Y-63152030D01*
X82912849Y-63162520D01*
X82933893Y-63175133D01*
X82953598Y-63189747D01*
X82971777Y-63206223D01*
X82988253Y-63224402D01*
X83002867Y-63244107D01*
X83015480Y-63265151D01*
X83025970Y-63287329D01*
X83034235Y-63310429D01*
X83040196Y-63334227D01*
X83043796Y-63358496D01*
X83045000Y-63383000D01*
X83045000Y-64633000D01*
X83043796Y-64657504D01*
X83040196Y-64681773D01*
X83034235Y-64705571D01*
X83025970Y-64728671D01*
X83015480Y-64750849D01*
X83002867Y-64771893D01*
X82988253Y-64791598D01*
X82971777Y-64809777D01*
X82953598Y-64826253D01*
X82933893Y-64840867D01*
X82912849Y-64853480D01*
X82890671Y-64863970D01*
X82867571Y-64872235D01*
X82843773Y-64878196D01*
X82819504Y-64881796D01*
X82795000Y-64883000D01*
X81870000Y-64883000D01*
X81845496Y-64881796D01*
X81821227Y-64878196D01*
X81797429Y-64872235D01*
X81774329Y-64863970D01*
X81752151Y-64853480D01*
X81731107Y-64840867D01*
X81711402Y-64826253D01*
X81693223Y-64809777D01*
X81676747Y-64791598D01*
X81662133Y-64771893D01*
X81649520Y-64750849D01*
X81639030Y-64728671D01*
X81630765Y-64705571D01*
X81624804Y-64681773D01*
X81621204Y-64657504D01*
X81620000Y-64633000D01*
X81620000Y-63383000D01*
X81621204Y-63358496D01*
X81624804Y-63334227D01*
X81630765Y-63310429D01*
X81639030Y-63287329D01*
X81649520Y-63265151D01*
X81662133Y-63244107D01*
X81676747Y-63224402D01*
X81693223Y-63206223D01*
X81711402Y-63189747D01*
X81731107Y-63175133D01*
X81752151Y-63162520D01*
X81774329Y-63152030D01*
X81797429Y-63143765D01*
X81821227Y-63137804D01*
X81845496Y-63134204D01*
X81870000Y-63133000D01*
X82795000Y-63133000D01*
X82819504Y-63134204D01*
X82819504Y-63134204D01*
G37*
D11*
X82332500Y-64008000D03*
D10*
G36*
X85794504Y-65801204D02*
G01*
X85818773Y-65804804D01*
X85842571Y-65810765D01*
X85865671Y-65819030D01*
X85887849Y-65829520D01*
X85908893Y-65842133D01*
X85928598Y-65856747D01*
X85946777Y-65873223D01*
X85963253Y-65891402D01*
X85977867Y-65911107D01*
X85990480Y-65932151D01*
X86000970Y-65954329D01*
X86009235Y-65977429D01*
X86015196Y-66001227D01*
X86018796Y-66025496D01*
X86020000Y-66050000D01*
X86020000Y-67300000D01*
X86018796Y-67324504D01*
X86015196Y-67348773D01*
X86009235Y-67372571D01*
X86000970Y-67395671D01*
X85990480Y-67417849D01*
X85977867Y-67438893D01*
X85963253Y-67458598D01*
X85946777Y-67476777D01*
X85928598Y-67493253D01*
X85908893Y-67507867D01*
X85887849Y-67520480D01*
X85865671Y-67530970D01*
X85842571Y-67539235D01*
X85818773Y-67545196D01*
X85794504Y-67548796D01*
X85770000Y-67550000D01*
X84845000Y-67550000D01*
X84820496Y-67548796D01*
X84796227Y-67545196D01*
X84772429Y-67539235D01*
X84749329Y-67530970D01*
X84727151Y-67520480D01*
X84706107Y-67507867D01*
X84686402Y-67493253D01*
X84668223Y-67476777D01*
X84651747Y-67458598D01*
X84637133Y-67438893D01*
X84624520Y-67417849D01*
X84614030Y-67395671D01*
X84605765Y-67372571D01*
X84599804Y-67348773D01*
X84596204Y-67324504D01*
X84595000Y-67300000D01*
X84595000Y-66050000D01*
X84596204Y-66025496D01*
X84599804Y-66001227D01*
X84605765Y-65977429D01*
X84614030Y-65954329D01*
X84624520Y-65932151D01*
X84637133Y-65911107D01*
X84651747Y-65891402D01*
X84668223Y-65873223D01*
X84686402Y-65856747D01*
X84706107Y-65842133D01*
X84727151Y-65829520D01*
X84749329Y-65819030D01*
X84772429Y-65810765D01*
X84796227Y-65804804D01*
X84820496Y-65801204D01*
X84845000Y-65800000D01*
X85770000Y-65800000D01*
X85794504Y-65801204D01*
X85794504Y-65801204D01*
G37*
D11*
X85307500Y-66675000D03*
D10*
G36*
X82819504Y-65801204D02*
G01*
X82843773Y-65804804D01*
X82867571Y-65810765D01*
X82890671Y-65819030D01*
X82912849Y-65829520D01*
X82933893Y-65842133D01*
X82953598Y-65856747D01*
X82971777Y-65873223D01*
X82988253Y-65891402D01*
X83002867Y-65911107D01*
X83015480Y-65932151D01*
X83025970Y-65954329D01*
X83034235Y-65977429D01*
X83040196Y-66001227D01*
X83043796Y-66025496D01*
X83045000Y-66050000D01*
X83045000Y-67300000D01*
X83043796Y-67324504D01*
X83040196Y-67348773D01*
X83034235Y-67372571D01*
X83025970Y-67395671D01*
X83015480Y-67417849D01*
X83002867Y-67438893D01*
X82988253Y-67458598D01*
X82971777Y-67476777D01*
X82953598Y-67493253D01*
X82933893Y-67507867D01*
X82912849Y-67520480D01*
X82890671Y-67530970D01*
X82867571Y-67539235D01*
X82843773Y-67545196D01*
X82819504Y-67548796D01*
X82795000Y-67550000D01*
X81870000Y-67550000D01*
X81845496Y-67548796D01*
X81821227Y-67545196D01*
X81797429Y-67539235D01*
X81774329Y-67530970D01*
X81752151Y-67520480D01*
X81731107Y-67507867D01*
X81711402Y-67493253D01*
X81693223Y-67476777D01*
X81676747Y-67458598D01*
X81662133Y-67438893D01*
X81649520Y-67417849D01*
X81639030Y-67395671D01*
X81630765Y-67372571D01*
X81624804Y-67348773D01*
X81621204Y-67324504D01*
X81620000Y-67300000D01*
X81620000Y-66050000D01*
X81621204Y-66025496D01*
X81624804Y-66001227D01*
X81630765Y-65977429D01*
X81639030Y-65954329D01*
X81649520Y-65932151D01*
X81662133Y-65911107D01*
X81676747Y-65891402D01*
X81693223Y-65873223D01*
X81711402Y-65856747D01*
X81731107Y-65842133D01*
X81752151Y-65829520D01*
X81774329Y-65819030D01*
X81797429Y-65810765D01*
X81821227Y-65804804D01*
X81845496Y-65801204D01*
X81870000Y-65800000D01*
X82795000Y-65800000D01*
X82819504Y-65801204D01*
X82819504Y-65801204D01*
G37*
D11*
X82332500Y-66675000D03*
D10*
G36*
X85794504Y-68468204D02*
G01*
X85818773Y-68471804D01*
X85842571Y-68477765D01*
X85865671Y-68486030D01*
X85887849Y-68496520D01*
X85908893Y-68509133D01*
X85928598Y-68523747D01*
X85946777Y-68540223D01*
X85963253Y-68558402D01*
X85977867Y-68578107D01*
X85990480Y-68599151D01*
X86000970Y-68621329D01*
X86009235Y-68644429D01*
X86015196Y-68668227D01*
X86018796Y-68692496D01*
X86020000Y-68717000D01*
X86020000Y-69967000D01*
X86018796Y-69991504D01*
X86015196Y-70015773D01*
X86009235Y-70039571D01*
X86000970Y-70062671D01*
X85990480Y-70084849D01*
X85977867Y-70105893D01*
X85963253Y-70125598D01*
X85946777Y-70143777D01*
X85928598Y-70160253D01*
X85908893Y-70174867D01*
X85887849Y-70187480D01*
X85865671Y-70197970D01*
X85842571Y-70206235D01*
X85818773Y-70212196D01*
X85794504Y-70215796D01*
X85770000Y-70217000D01*
X84845000Y-70217000D01*
X84820496Y-70215796D01*
X84796227Y-70212196D01*
X84772429Y-70206235D01*
X84749329Y-70197970D01*
X84727151Y-70187480D01*
X84706107Y-70174867D01*
X84686402Y-70160253D01*
X84668223Y-70143777D01*
X84651747Y-70125598D01*
X84637133Y-70105893D01*
X84624520Y-70084849D01*
X84614030Y-70062671D01*
X84605765Y-70039571D01*
X84599804Y-70015773D01*
X84596204Y-69991504D01*
X84595000Y-69967000D01*
X84595000Y-68717000D01*
X84596204Y-68692496D01*
X84599804Y-68668227D01*
X84605765Y-68644429D01*
X84614030Y-68621329D01*
X84624520Y-68599151D01*
X84637133Y-68578107D01*
X84651747Y-68558402D01*
X84668223Y-68540223D01*
X84686402Y-68523747D01*
X84706107Y-68509133D01*
X84727151Y-68496520D01*
X84749329Y-68486030D01*
X84772429Y-68477765D01*
X84796227Y-68471804D01*
X84820496Y-68468204D01*
X84845000Y-68467000D01*
X85770000Y-68467000D01*
X85794504Y-68468204D01*
X85794504Y-68468204D01*
G37*
D11*
X85307500Y-69342000D03*
D10*
G36*
X82819504Y-68468204D02*
G01*
X82843773Y-68471804D01*
X82867571Y-68477765D01*
X82890671Y-68486030D01*
X82912849Y-68496520D01*
X82933893Y-68509133D01*
X82953598Y-68523747D01*
X82971777Y-68540223D01*
X82988253Y-68558402D01*
X83002867Y-68578107D01*
X83015480Y-68599151D01*
X83025970Y-68621329D01*
X83034235Y-68644429D01*
X83040196Y-68668227D01*
X83043796Y-68692496D01*
X83045000Y-68717000D01*
X83045000Y-69967000D01*
X83043796Y-69991504D01*
X83040196Y-70015773D01*
X83034235Y-70039571D01*
X83025970Y-70062671D01*
X83015480Y-70084849D01*
X83002867Y-70105893D01*
X82988253Y-70125598D01*
X82971777Y-70143777D01*
X82953598Y-70160253D01*
X82933893Y-70174867D01*
X82912849Y-70187480D01*
X82890671Y-70197970D01*
X82867571Y-70206235D01*
X82843773Y-70212196D01*
X82819504Y-70215796D01*
X82795000Y-70217000D01*
X81870000Y-70217000D01*
X81845496Y-70215796D01*
X81821227Y-70212196D01*
X81797429Y-70206235D01*
X81774329Y-70197970D01*
X81752151Y-70187480D01*
X81731107Y-70174867D01*
X81711402Y-70160253D01*
X81693223Y-70143777D01*
X81676747Y-70125598D01*
X81662133Y-70105893D01*
X81649520Y-70084849D01*
X81639030Y-70062671D01*
X81630765Y-70039571D01*
X81624804Y-70015773D01*
X81621204Y-69991504D01*
X81620000Y-69967000D01*
X81620000Y-68717000D01*
X81621204Y-68692496D01*
X81624804Y-68668227D01*
X81630765Y-68644429D01*
X81639030Y-68621329D01*
X81649520Y-68599151D01*
X81662133Y-68578107D01*
X81676747Y-68558402D01*
X81693223Y-68540223D01*
X81711402Y-68523747D01*
X81731107Y-68509133D01*
X81752151Y-68496520D01*
X81774329Y-68486030D01*
X81797429Y-68477765D01*
X81821227Y-68471804D01*
X81845496Y-68468204D01*
X81870000Y-68467000D01*
X82795000Y-68467000D01*
X82819504Y-68468204D01*
X82819504Y-68468204D01*
G37*
D11*
X82332500Y-69342000D03*
D10*
G36*
X85794504Y-71135204D02*
G01*
X85818773Y-71138804D01*
X85842571Y-71144765D01*
X85865671Y-71153030D01*
X85887849Y-71163520D01*
X85908893Y-71176133D01*
X85928598Y-71190747D01*
X85946777Y-71207223D01*
X85963253Y-71225402D01*
X85977867Y-71245107D01*
X85990480Y-71266151D01*
X86000970Y-71288329D01*
X86009235Y-71311429D01*
X86015196Y-71335227D01*
X86018796Y-71359496D01*
X86020000Y-71384000D01*
X86020000Y-72634000D01*
X86018796Y-72658504D01*
X86015196Y-72682773D01*
X86009235Y-72706571D01*
X86000970Y-72729671D01*
X85990480Y-72751849D01*
X85977867Y-72772893D01*
X85963253Y-72792598D01*
X85946777Y-72810777D01*
X85928598Y-72827253D01*
X85908893Y-72841867D01*
X85887849Y-72854480D01*
X85865671Y-72864970D01*
X85842571Y-72873235D01*
X85818773Y-72879196D01*
X85794504Y-72882796D01*
X85770000Y-72884000D01*
X84845000Y-72884000D01*
X84820496Y-72882796D01*
X84796227Y-72879196D01*
X84772429Y-72873235D01*
X84749329Y-72864970D01*
X84727151Y-72854480D01*
X84706107Y-72841867D01*
X84686402Y-72827253D01*
X84668223Y-72810777D01*
X84651747Y-72792598D01*
X84637133Y-72772893D01*
X84624520Y-72751849D01*
X84614030Y-72729671D01*
X84605765Y-72706571D01*
X84599804Y-72682773D01*
X84596204Y-72658504D01*
X84595000Y-72634000D01*
X84595000Y-71384000D01*
X84596204Y-71359496D01*
X84599804Y-71335227D01*
X84605765Y-71311429D01*
X84614030Y-71288329D01*
X84624520Y-71266151D01*
X84637133Y-71245107D01*
X84651747Y-71225402D01*
X84668223Y-71207223D01*
X84686402Y-71190747D01*
X84706107Y-71176133D01*
X84727151Y-71163520D01*
X84749329Y-71153030D01*
X84772429Y-71144765D01*
X84796227Y-71138804D01*
X84820496Y-71135204D01*
X84845000Y-71134000D01*
X85770000Y-71134000D01*
X85794504Y-71135204D01*
X85794504Y-71135204D01*
G37*
D11*
X85307500Y-72009000D03*
D10*
G36*
X82819504Y-71135204D02*
G01*
X82843773Y-71138804D01*
X82867571Y-71144765D01*
X82890671Y-71153030D01*
X82912849Y-71163520D01*
X82933893Y-71176133D01*
X82953598Y-71190747D01*
X82971777Y-71207223D01*
X82988253Y-71225402D01*
X83002867Y-71245107D01*
X83015480Y-71266151D01*
X83025970Y-71288329D01*
X83034235Y-71311429D01*
X83040196Y-71335227D01*
X83043796Y-71359496D01*
X83045000Y-71384000D01*
X83045000Y-72634000D01*
X83043796Y-72658504D01*
X83040196Y-72682773D01*
X83034235Y-72706571D01*
X83025970Y-72729671D01*
X83015480Y-72751849D01*
X83002867Y-72772893D01*
X82988253Y-72792598D01*
X82971777Y-72810777D01*
X82953598Y-72827253D01*
X82933893Y-72841867D01*
X82912849Y-72854480D01*
X82890671Y-72864970D01*
X82867571Y-72873235D01*
X82843773Y-72879196D01*
X82819504Y-72882796D01*
X82795000Y-72884000D01*
X81870000Y-72884000D01*
X81845496Y-72882796D01*
X81821227Y-72879196D01*
X81797429Y-72873235D01*
X81774329Y-72864970D01*
X81752151Y-72854480D01*
X81731107Y-72841867D01*
X81711402Y-72827253D01*
X81693223Y-72810777D01*
X81676747Y-72792598D01*
X81662133Y-72772893D01*
X81649520Y-72751849D01*
X81639030Y-72729671D01*
X81630765Y-72706571D01*
X81624804Y-72682773D01*
X81621204Y-72658504D01*
X81620000Y-72634000D01*
X81620000Y-71384000D01*
X81621204Y-71359496D01*
X81624804Y-71335227D01*
X81630765Y-71311429D01*
X81639030Y-71288329D01*
X81649520Y-71266151D01*
X81662133Y-71245107D01*
X81676747Y-71225402D01*
X81693223Y-71207223D01*
X81711402Y-71190747D01*
X81731107Y-71176133D01*
X81752151Y-71163520D01*
X81774329Y-71153030D01*
X81797429Y-71144765D01*
X81821227Y-71138804D01*
X81845496Y-71135204D01*
X81870000Y-71134000D01*
X82795000Y-71134000D01*
X82819504Y-71135204D01*
X82819504Y-71135204D01*
G37*
D11*
X82332500Y-72009000D03*
D10*
G36*
X142127504Y-49199704D02*
G01*
X142151773Y-49203304D01*
X142175571Y-49209265D01*
X142198671Y-49217530D01*
X142220849Y-49228020D01*
X142241893Y-49240633D01*
X142261598Y-49255247D01*
X142279777Y-49271723D01*
X142296253Y-49289902D01*
X142310867Y-49309607D01*
X142323480Y-49330651D01*
X142333970Y-49352829D01*
X142342235Y-49375929D01*
X142348196Y-49399727D01*
X142351796Y-49423996D01*
X142353000Y-49448500D01*
X142353000Y-50373500D01*
X142351796Y-50398004D01*
X142348196Y-50422273D01*
X142342235Y-50446071D01*
X142333970Y-50469171D01*
X142323480Y-50491349D01*
X142310867Y-50512393D01*
X142296253Y-50532098D01*
X142279777Y-50550277D01*
X142261598Y-50566753D01*
X142241893Y-50581367D01*
X142220849Y-50593980D01*
X142198671Y-50604470D01*
X142175571Y-50612735D01*
X142151773Y-50618696D01*
X142127504Y-50622296D01*
X142103000Y-50623500D01*
X140853000Y-50623500D01*
X140828496Y-50622296D01*
X140804227Y-50618696D01*
X140780429Y-50612735D01*
X140757329Y-50604470D01*
X140735151Y-50593980D01*
X140714107Y-50581367D01*
X140694402Y-50566753D01*
X140676223Y-50550277D01*
X140659747Y-50532098D01*
X140645133Y-50512393D01*
X140632520Y-50491349D01*
X140622030Y-50469171D01*
X140613765Y-50446071D01*
X140607804Y-50422273D01*
X140604204Y-50398004D01*
X140603000Y-50373500D01*
X140603000Y-49448500D01*
X140604204Y-49423996D01*
X140607804Y-49399727D01*
X140613765Y-49375929D01*
X140622030Y-49352829D01*
X140632520Y-49330651D01*
X140645133Y-49309607D01*
X140659747Y-49289902D01*
X140676223Y-49271723D01*
X140694402Y-49255247D01*
X140714107Y-49240633D01*
X140735151Y-49228020D01*
X140757329Y-49217530D01*
X140780429Y-49209265D01*
X140804227Y-49203304D01*
X140828496Y-49199704D01*
X140853000Y-49198500D01*
X142103000Y-49198500D01*
X142127504Y-49199704D01*
X142127504Y-49199704D01*
G37*
D11*
X141478000Y-49911000D03*
D10*
G36*
X142127504Y-46224704D02*
G01*
X142151773Y-46228304D01*
X142175571Y-46234265D01*
X142198671Y-46242530D01*
X142220849Y-46253020D01*
X142241893Y-46265633D01*
X142261598Y-46280247D01*
X142279777Y-46296723D01*
X142296253Y-46314902D01*
X142310867Y-46334607D01*
X142323480Y-46355651D01*
X142333970Y-46377829D01*
X142342235Y-46400929D01*
X142348196Y-46424727D01*
X142351796Y-46448996D01*
X142353000Y-46473500D01*
X142353000Y-47398500D01*
X142351796Y-47423004D01*
X142348196Y-47447273D01*
X142342235Y-47471071D01*
X142333970Y-47494171D01*
X142323480Y-47516349D01*
X142310867Y-47537393D01*
X142296253Y-47557098D01*
X142279777Y-47575277D01*
X142261598Y-47591753D01*
X142241893Y-47606367D01*
X142220849Y-47618980D01*
X142198671Y-47629470D01*
X142175571Y-47637735D01*
X142151773Y-47643696D01*
X142127504Y-47647296D01*
X142103000Y-47648500D01*
X140853000Y-47648500D01*
X140828496Y-47647296D01*
X140804227Y-47643696D01*
X140780429Y-47637735D01*
X140757329Y-47629470D01*
X140735151Y-47618980D01*
X140714107Y-47606367D01*
X140694402Y-47591753D01*
X140676223Y-47575277D01*
X140659747Y-47557098D01*
X140645133Y-47537393D01*
X140632520Y-47516349D01*
X140622030Y-47494171D01*
X140613765Y-47471071D01*
X140607804Y-47447273D01*
X140604204Y-47423004D01*
X140603000Y-47398500D01*
X140603000Y-46473500D01*
X140604204Y-46448996D01*
X140607804Y-46424727D01*
X140613765Y-46400929D01*
X140622030Y-46377829D01*
X140632520Y-46355651D01*
X140645133Y-46334607D01*
X140659747Y-46314902D01*
X140676223Y-46296723D01*
X140694402Y-46280247D01*
X140714107Y-46265633D01*
X140735151Y-46253020D01*
X140757329Y-46242530D01*
X140780429Y-46234265D01*
X140804227Y-46228304D01*
X140828496Y-46224704D01*
X140853000Y-46223500D01*
X142103000Y-46223500D01*
X142127504Y-46224704D01*
X142127504Y-46224704D01*
G37*
D11*
X141478000Y-46936000D03*
D10*
G36*
X85794504Y-73802204D02*
G01*
X85818773Y-73805804D01*
X85842571Y-73811765D01*
X85865671Y-73820030D01*
X85887849Y-73830520D01*
X85908893Y-73843133D01*
X85928598Y-73857747D01*
X85946777Y-73874223D01*
X85963253Y-73892402D01*
X85977867Y-73912107D01*
X85990480Y-73933151D01*
X86000970Y-73955329D01*
X86009235Y-73978429D01*
X86015196Y-74002227D01*
X86018796Y-74026496D01*
X86020000Y-74051000D01*
X86020000Y-75301000D01*
X86018796Y-75325504D01*
X86015196Y-75349773D01*
X86009235Y-75373571D01*
X86000970Y-75396671D01*
X85990480Y-75418849D01*
X85977867Y-75439893D01*
X85963253Y-75459598D01*
X85946777Y-75477777D01*
X85928598Y-75494253D01*
X85908893Y-75508867D01*
X85887849Y-75521480D01*
X85865671Y-75531970D01*
X85842571Y-75540235D01*
X85818773Y-75546196D01*
X85794504Y-75549796D01*
X85770000Y-75551000D01*
X84845000Y-75551000D01*
X84820496Y-75549796D01*
X84796227Y-75546196D01*
X84772429Y-75540235D01*
X84749329Y-75531970D01*
X84727151Y-75521480D01*
X84706107Y-75508867D01*
X84686402Y-75494253D01*
X84668223Y-75477777D01*
X84651747Y-75459598D01*
X84637133Y-75439893D01*
X84624520Y-75418849D01*
X84614030Y-75396671D01*
X84605765Y-75373571D01*
X84599804Y-75349773D01*
X84596204Y-75325504D01*
X84595000Y-75301000D01*
X84595000Y-74051000D01*
X84596204Y-74026496D01*
X84599804Y-74002227D01*
X84605765Y-73978429D01*
X84614030Y-73955329D01*
X84624520Y-73933151D01*
X84637133Y-73912107D01*
X84651747Y-73892402D01*
X84668223Y-73874223D01*
X84686402Y-73857747D01*
X84706107Y-73843133D01*
X84727151Y-73830520D01*
X84749329Y-73820030D01*
X84772429Y-73811765D01*
X84796227Y-73805804D01*
X84820496Y-73802204D01*
X84845000Y-73801000D01*
X85770000Y-73801000D01*
X85794504Y-73802204D01*
X85794504Y-73802204D01*
G37*
D11*
X85307500Y-74676000D03*
D10*
G36*
X82819504Y-73802204D02*
G01*
X82843773Y-73805804D01*
X82867571Y-73811765D01*
X82890671Y-73820030D01*
X82912849Y-73830520D01*
X82933893Y-73843133D01*
X82953598Y-73857747D01*
X82971777Y-73874223D01*
X82988253Y-73892402D01*
X83002867Y-73912107D01*
X83015480Y-73933151D01*
X83025970Y-73955329D01*
X83034235Y-73978429D01*
X83040196Y-74002227D01*
X83043796Y-74026496D01*
X83045000Y-74051000D01*
X83045000Y-75301000D01*
X83043796Y-75325504D01*
X83040196Y-75349773D01*
X83034235Y-75373571D01*
X83025970Y-75396671D01*
X83015480Y-75418849D01*
X83002867Y-75439893D01*
X82988253Y-75459598D01*
X82971777Y-75477777D01*
X82953598Y-75494253D01*
X82933893Y-75508867D01*
X82912849Y-75521480D01*
X82890671Y-75531970D01*
X82867571Y-75540235D01*
X82843773Y-75546196D01*
X82819504Y-75549796D01*
X82795000Y-75551000D01*
X81870000Y-75551000D01*
X81845496Y-75549796D01*
X81821227Y-75546196D01*
X81797429Y-75540235D01*
X81774329Y-75531970D01*
X81752151Y-75521480D01*
X81731107Y-75508867D01*
X81711402Y-75494253D01*
X81693223Y-75477777D01*
X81676747Y-75459598D01*
X81662133Y-75439893D01*
X81649520Y-75418849D01*
X81639030Y-75396671D01*
X81630765Y-75373571D01*
X81624804Y-75349773D01*
X81621204Y-75325504D01*
X81620000Y-75301000D01*
X81620000Y-74051000D01*
X81621204Y-74026496D01*
X81624804Y-74002227D01*
X81630765Y-73978429D01*
X81639030Y-73955329D01*
X81649520Y-73933151D01*
X81662133Y-73912107D01*
X81676747Y-73892402D01*
X81693223Y-73874223D01*
X81711402Y-73857747D01*
X81731107Y-73843133D01*
X81752151Y-73830520D01*
X81774329Y-73820030D01*
X81797429Y-73811765D01*
X81821227Y-73805804D01*
X81845496Y-73802204D01*
X81870000Y-73801000D01*
X82795000Y-73801000D01*
X82819504Y-73802204D01*
X82819504Y-73802204D01*
G37*
D11*
X82332500Y-74676000D03*
D10*
G36*
X142000504Y-35483704D02*
G01*
X142024773Y-35487304D01*
X142048571Y-35493265D01*
X142071671Y-35501530D01*
X142093849Y-35512020D01*
X142114893Y-35524633D01*
X142134598Y-35539247D01*
X142152777Y-35555723D01*
X142169253Y-35573902D01*
X142183867Y-35593607D01*
X142196480Y-35614651D01*
X142206970Y-35636829D01*
X142215235Y-35659929D01*
X142221196Y-35683727D01*
X142224796Y-35707996D01*
X142226000Y-35732500D01*
X142226000Y-36657500D01*
X142224796Y-36682004D01*
X142221196Y-36706273D01*
X142215235Y-36730071D01*
X142206970Y-36753171D01*
X142196480Y-36775349D01*
X142183867Y-36796393D01*
X142169253Y-36816098D01*
X142152777Y-36834277D01*
X142134598Y-36850753D01*
X142114893Y-36865367D01*
X142093849Y-36877980D01*
X142071671Y-36888470D01*
X142048571Y-36896735D01*
X142024773Y-36902696D01*
X142000504Y-36906296D01*
X141976000Y-36907500D01*
X140726000Y-36907500D01*
X140701496Y-36906296D01*
X140677227Y-36902696D01*
X140653429Y-36896735D01*
X140630329Y-36888470D01*
X140608151Y-36877980D01*
X140587107Y-36865367D01*
X140567402Y-36850753D01*
X140549223Y-36834277D01*
X140532747Y-36816098D01*
X140518133Y-36796393D01*
X140505520Y-36775349D01*
X140495030Y-36753171D01*
X140486765Y-36730071D01*
X140480804Y-36706273D01*
X140477204Y-36682004D01*
X140476000Y-36657500D01*
X140476000Y-35732500D01*
X140477204Y-35707996D01*
X140480804Y-35683727D01*
X140486765Y-35659929D01*
X140495030Y-35636829D01*
X140505520Y-35614651D01*
X140518133Y-35593607D01*
X140532747Y-35573902D01*
X140549223Y-35555723D01*
X140567402Y-35539247D01*
X140587107Y-35524633D01*
X140608151Y-35512020D01*
X140630329Y-35501530D01*
X140653429Y-35493265D01*
X140677227Y-35487304D01*
X140701496Y-35483704D01*
X140726000Y-35482500D01*
X141976000Y-35482500D01*
X142000504Y-35483704D01*
X142000504Y-35483704D01*
G37*
D11*
X141351000Y-36195000D03*
D10*
G36*
X142000504Y-38458704D02*
G01*
X142024773Y-38462304D01*
X142048571Y-38468265D01*
X142071671Y-38476530D01*
X142093849Y-38487020D01*
X142114893Y-38499633D01*
X142134598Y-38514247D01*
X142152777Y-38530723D01*
X142169253Y-38548902D01*
X142183867Y-38568607D01*
X142196480Y-38589651D01*
X142206970Y-38611829D01*
X142215235Y-38634929D01*
X142221196Y-38658727D01*
X142224796Y-38682996D01*
X142226000Y-38707500D01*
X142226000Y-39632500D01*
X142224796Y-39657004D01*
X142221196Y-39681273D01*
X142215235Y-39705071D01*
X142206970Y-39728171D01*
X142196480Y-39750349D01*
X142183867Y-39771393D01*
X142169253Y-39791098D01*
X142152777Y-39809277D01*
X142134598Y-39825753D01*
X142114893Y-39840367D01*
X142093849Y-39852980D01*
X142071671Y-39863470D01*
X142048571Y-39871735D01*
X142024773Y-39877696D01*
X142000504Y-39881296D01*
X141976000Y-39882500D01*
X140726000Y-39882500D01*
X140701496Y-39881296D01*
X140677227Y-39877696D01*
X140653429Y-39871735D01*
X140630329Y-39863470D01*
X140608151Y-39852980D01*
X140587107Y-39840367D01*
X140567402Y-39825753D01*
X140549223Y-39809277D01*
X140532747Y-39791098D01*
X140518133Y-39771393D01*
X140505520Y-39750349D01*
X140495030Y-39728171D01*
X140486765Y-39705071D01*
X140480804Y-39681273D01*
X140477204Y-39657004D01*
X140476000Y-39632500D01*
X140476000Y-38707500D01*
X140477204Y-38682996D01*
X140480804Y-38658727D01*
X140486765Y-38634929D01*
X140495030Y-38611829D01*
X140505520Y-38589651D01*
X140518133Y-38568607D01*
X140532747Y-38548902D01*
X140549223Y-38530723D01*
X140567402Y-38514247D01*
X140587107Y-38499633D01*
X140608151Y-38487020D01*
X140630329Y-38476530D01*
X140653429Y-38468265D01*
X140677227Y-38462304D01*
X140701496Y-38458704D01*
X140726000Y-38457500D01*
X141976000Y-38457500D01*
X142000504Y-38458704D01*
X142000504Y-38458704D01*
G37*
D11*
X141351000Y-39170000D03*
D10*
G36*
X64930004Y-26431204D02*
G01*
X64954273Y-26434804D01*
X64978071Y-26440765D01*
X65001171Y-26449030D01*
X65023349Y-26459520D01*
X65044393Y-26472133D01*
X65064098Y-26486747D01*
X65082277Y-26503223D01*
X65098753Y-26521402D01*
X65113367Y-26541107D01*
X65125980Y-26562151D01*
X65136470Y-26584329D01*
X65144735Y-26607429D01*
X65150696Y-26631227D01*
X65154296Y-26655496D01*
X65155500Y-26680000D01*
X65155500Y-27930000D01*
X65154296Y-27954504D01*
X65150696Y-27978773D01*
X65144735Y-28002571D01*
X65136470Y-28025671D01*
X65125980Y-28047849D01*
X65113367Y-28068893D01*
X65098753Y-28088598D01*
X65082277Y-28106777D01*
X65064098Y-28123253D01*
X65044393Y-28137867D01*
X65023349Y-28150480D01*
X65001171Y-28160970D01*
X64978071Y-28169235D01*
X64954273Y-28175196D01*
X64930004Y-28178796D01*
X64905500Y-28180000D01*
X63980500Y-28180000D01*
X63955996Y-28178796D01*
X63931727Y-28175196D01*
X63907929Y-28169235D01*
X63884829Y-28160970D01*
X63862651Y-28150480D01*
X63841607Y-28137867D01*
X63821902Y-28123253D01*
X63803723Y-28106777D01*
X63787247Y-28088598D01*
X63772633Y-28068893D01*
X63760020Y-28047849D01*
X63749530Y-28025671D01*
X63741265Y-28002571D01*
X63735304Y-27978773D01*
X63731704Y-27954504D01*
X63730500Y-27930000D01*
X63730500Y-26680000D01*
X63731704Y-26655496D01*
X63735304Y-26631227D01*
X63741265Y-26607429D01*
X63749530Y-26584329D01*
X63760020Y-26562151D01*
X63772633Y-26541107D01*
X63787247Y-26521402D01*
X63803723Y-26503223D01*
X63821902Y-26486747D01*
X63841607Y-26472133D01*
X63862651Y-26459520D01*
X63884829Y-26449030D01*
X63907929Y-26440765D01*
X63931727Y-26434804D01*
X63955996Y-26431204D01*
X63980500Y-26430000D01*
X64905500Y-26430000D01*
X64930004Y-26431204D01*
X64930004Y-26431204D01*
G37*
D11*
X64443000Y-27305000D03*
D10*
G36*
X61955004Y-26431204D02*
G01*
X61979273Y-26434804D01*
X62003071Y-26440765D01*
X62026171Y-26449030D01*
X62048349Y-26459520D01*
X62069393Y-26472133D01*
X62089098Y-26486747D01*
X62107277Y-26503223D01*
X62123753Y-26521402D01*
X62138367Y-26541107D01*
X62150980Y-26562151D01*
X62161470Y-26584329D01*
X62169735Y-26607429D01*
X62175696Y-26631227D01*
X62179296Y-26655496D01*
X62180500Y-26680000D01*
X62180500Y-27930000D01*
X62179296Y-27954504D01*
X62175696Y-27978773D01*
X62169735Y-28002571D01*
X62161470Y-28025671D01*
X62150980Y-28047849D01*
X62138367Y-28068893D01*
X62123753Y-28088598D01*
X62107277Y-28106777D01*
X62089098Y-28123253D01*
X62069393Y-28137867D01*
X62048349Y-28150480D01*
X62026171Y-28160970D01*
X62003071Y-28169235D01*
X61979273Y-28175196D01*
X61955004Y-28178796D01*
X61930500Y-28180000D01*
X61005500Y-28180000D01*
X60980996Y-28178796D01*
X60956727Y-28175196D01*
X60932929Y-28169235D01*
X60909829Y-28160970D01*
X60887651Y-28150480D01*
X60866607Y-28137867D01*
X60846902Y-28123253D01*
X60828723Y-28106777D01*
X60812247Y-28088598D01*
X60797633Y-28068893D01*
X60785020Y-28047849D01*
X60774530Y-28025671D01*
X60766265Y-28002571D01*
X60760304Y-27978773D01*
X60756704Y-27954504D01*
X60755500Y-27930000D01*
X60755500Y-26680000D01*
X60756704Y-26655496D01*
X60760304Y-26631227D01*
X60766265Y-26607429D01*
X60774530Y-26584329D01*
X60785020Y-26562151D01*
X60797633Y-26541107D01*
X60812247Y-26521402D01*
X60828723Y-26503223D01*
X60846902Y-26486747D01*
X60866607Y-26472133D01*
X60887651Y-26459520D01*
X60909829Y-26449030D01*
X60932929Y-26440765D01*
X60956727Y-26434804D01*
X60980996Y-26431204D01*
X61005500Y-26430000D01*
X61930500Y-26430000D01*
X61955004Y-26431204D01*
X61955004Y-26431204D01*
G37*
D11*
X61468000Y-27305000D03*
D10*
G36*
X83707703Y-27484722D02*
G01*
X83722264Y-27486882D01*
X83736543Y-27490459D01*
X83750403Y-27495418D01*
X83763710Y-27501712D01*
X83776336Y-27509280D01*
X83788159Y-27518048D01*
X83799066Y-27527934D01*
X83808952Y-27538841D01*
X83817720Y-27550664D01*
X83825288Y-27563290D01*
X83831582Y-27576597D01*
X83836541Y-27590457D01*
X83840118Y-27604736D01*
X83842278Y-27619297D01*
X83843000Y-27634000D01*
X83843000Y-28934000D01*
X83842278Y-28948703D01*
X83840118Y-28963264D01*
X83836541Y-28977543D01*
X83831582Y-28991403D01*
X83825288Y-29004710D01*
X83817720Y-29017336D01*
X83808952Y-29029159D01*
X83799066Y-29040066D01*
X83788159Y-29049952D01*
X83776336Y-29058720D01*
X83763710Y-29066288D01*
X83750403Y-29072582D01*
X83736543Y-29077541D01*
X83722264Y-29081118D01*
X83707703Y-29083278D01*
X83693000Y-29084000D01*
X83393000Y-29084000D01*
X83378297Y-29083278D01*
X83363736Y-29081118D01*
X83349457Y-29077541D01*
X83335597Y-29072582D01*
X83322290Y-29066288D01*
X83309664Y-29058720D01*
X83297841Y-29049952D01*
X83286934Y-29040066D01*
X83277048Y-29029159D01*
X83268280Y-29017336D01*
X83260712Y-29004710D01*
X83254418Y-28991403D01*
X83249459Y-28977543D01*
X83245882Y-28963264D01*
X83243722Y-28948703D01*
X83243000Y-28934000D01*
X83243000Y-27634000D01*
X83243722Y-27619297D01*
X83245882Y-27604736D01*
X83249459Y-27590457D01*
X83254418Y-27576597D01*
X83260712Y-27563290D01*
X83268280Y-27550664D01*
X83277048Y-27538841D01*
X83286934Y-27527934D01*
X83297841Y-27518048D01*
X83309664Y-27509280D01*
X83322290Y-27501712D01*
X83335597Y-27495418D01*
X83349457Y-27490459D01*
X83363736Y-27486882D01*
X83378297Y-27484722D01*
X83393000Y-27484000D01*
X83693000Y-27484000D01*
X83707703Y-27484722D01*
X83707703Y-27484722D01*
G37*
D12*
X83543000Y-28284000D03*
D10*
G36*
X84977703Y-27484722D02*
G01*
X84992264Y-27486882D01*
X85006543Y-27490459D01*
X85020403Y-27495418D01*
X85033710Y-27501712D01*
X85046336Y-27509280D01*
X85058159Y-27518048D01*
X85069066Y-27527934D01*
X85078952Y-27538841D01*
X85087720Y-27550664D01*
X85095288Y-27563290D01*
X85101582Y-27576597D01*
X85106541Y-27590457D01*
X85110118Y-27604736D01*
X85112278Y-27619297D01*
X85113000Y-27634000D01*
X85113000Y-28934000D01*
X85112278Y-28948703D01*
X85110118Y-28963264D01*
X85106541Y-28977543D01*
X85101582Y-28991403D01*
X85095288Y-29004710D01*
X85087720Y-29017336D01*
X85078952Y-29029159D01*
X85069066Y-29040066D01*
X85058159Y-29049952D01*
X85046336Y-29058720D01*
X85033710Y-29066288D01*
X85020403Y-29072582D01*
X85006543Y-29077541D01*
X84992264Y-29081118D01*
X84977703Y-29083278D01*
X84963000Y-29084000D01*
X84663000Y-29084000D01*
X84648297Y-29083278D01*
X84633736Y-29081118D01*
X84619457Y-29077541D01*
X84605597Y-29072582D01*
X84592290Y-29066288D01*
X84579664Y-29058720D01*
X84567841Y-29049952D01*
X84556934Y-29040066D01*
X84547048Y-29029159D01*
X84538280Y-29017336D01*
X84530712Y-29004710D01*
X84524418Y-28991403D01*
X84519459Y-28977543D01*
X84515882Y-28963264D01*
X84513722Y-28948703D01*
X84513000Y-28934000D01*
X84513000Y-27634000D01*
X84513722Y-27619297D01*
X84515882Y-27604736D01*
X84519459Y-27590457D01*
X84524418Y-27576597D01*
X84530712Y-27563290D01*
X84538280Y-27550664D01*
X84547048Y-27538841D01*
X84556934Y-27527934D01*
X84567841Y-27518048D01*
X84579664Y-27509280D01*
X84592290Y-27501712D01*
X84605597Y-27495418D01*
X84619457Y-27490459D01*
X84633736Y-27486882D01*
X84648297Y-27484722D01*
X84663000Y-27484000D01*
X84963000Y-27484000D01*
X84977703Y-27484722D01*
X84977703Y-27484722D01*
G37*
D12*
X84813000Y-28284000D03*
D10*
G36*
X86247703Y-27484722D02*
G01*
X86262264Y-27486882D01*
X86276543Y-27490459D01*
X86290403Y-27495418D01*
X86303710Y-27501712D01*
X86316336Y-27509280D01*
X86328159Y-27518048D01*
X86339066Y-27527934D01*
X86348952Y-27538841D01*
X86357720Y-27550664D01*
X86365288Y-27563290D01*
X86371582Y-27576597D01*
X86376541Y-27590457D01*
X86380118Y-27604736D01*
X86382278Y-27619297D01*
X86383000Y-27634000D01*
X86383000Y-28934000D01*
X86382278Y-28948703D01*
X86380118Y-28963264D01*
X86376541Y-28977543D01*
X86371582Y-28991403D01*
X86365288Y-29004710D01*
X86357720Y-29017336D01*
X86348952Y-29029159D01*
X86339066Y-29040066D01*
X86328159Y-29049952D01*
X86316336Y-29058720D01*
X86303710Y-29066288D01*
X86290403Y-29072582D01*
X86276543Y-29077541D01*
X86262264Y-29081118D01*
X86247703Y-29083278D01*
X86233000Y-29084000D01*
X85933000Y-29084000D01*
X85918297Y-29083278D01*
X85903736Y-29081118D01*
X85889457Y-29077541D01*
X85875597Y-29072582D01*
X85862290Y-29066288D01*
X85849664Y-29058720D01*
X85837841Y-29049952D01*
X85826934Y-29040066D01*
X85817048Y-29029159D01*
X85808280Y-29017336D01*
X85800712Y-29004710D01*
X85794418Y-28991403D01*
X85789459Y-28977543D01*
X85785882Y-28963264D01*
X85783722Y-28948703D01*
X85783000Y-28934000D01*
X85783000Y-27634000D01*
X85783722Y-27619297D01*
X85785882Y-27604736D01*
X85789459Y-27590457D01*
X85794418Y-27576597D01*
X85800712Y-27563290D01*
X85808280Y-27550664D01*
X85817048Y-27538841D01*
X85826934Y-27527934D01*
X85837841Y-27518048D01*
X85849664Y-27509280D01*
X85862290Y-27501712D01*
X85875597Y-27495418D01*
X85889457Y-27490459D01*
X85903736Y-27486882D01*
X85918297Y-27484722D01*
X85933000Y-27484000D01*
X86233000Y-27484000D01*
X86247703Y-27484722D01*
X86247703Y-27484722D01*
G37*
D12*
X86083000Y-28284000D03*
D10*
G36*
X87517703Y-27484722D02*
G01*
X87532264Y-27486882D01*
X87546543Y-27490459D01*
X87560403Y-27495418D01*
X87573710Y-27501712D01*
X87586336Y-27509280D01*
X87598159Y-27518048D01*
X87609066Y-27527934D01*
X87618952Y-27538841D01*
X87627720Y-27550664D01*
X87635288Y-27563290D01*
X87641582Y-27576597D01*
X87646541Y-27590457D01*
X87650118Y-27604736D01*
X87652278Y-27619297D01*
X87653000Y-27634000D01*
X87653000Y-28934000D01*
X87652278Y-28948703D01*
X87650118Y-28963264D01*
X87646541Y-28977543D01*
X87641582Y-28991403D01*
X87635288Y-29004710D01*
X87627720Y-29017336D01*
X87618952Y-29029159D01*
X87609066Y-29040066D01*
X87598159Y-29049952D01*
X87586336Y-29058720D01*
X87573710Y-29066288D01*
X87560403Y-29072582D01*
X87546543Y-29077541D01*
X87532264Y-29081118D01*
X87517703Y-29083278D01*
X87503000Y-29084000D01*
X87203000Y-29084000D01*
X87188297Y-29083278D01*
X87173736Y-29081118D01*
X87159457Y-29077541D01*
X87145597Y-29072582D01*
X87132290Y-29066288D01*
X87119664Y-29058720D01*
X87107841Y-29049952D01*
X87096934Y-29040066D01*
X87087048Y-29029159D01*
X87078280Y-29017336D01*
X87070712Y-29004710D01*
X87064418Y-28991403D01*
X87059459Y-28977543D01*
X87055882Y-28963264D01*
X87053722Y-28948703D01*
X87053000Y-28934000D01*
X87053000Y-27634000D01*
X87053722Y-27619297D01*
X87055882Y-27604736D01*
X87059459Y-27590457D01*
X87064418Y-27576597D01*
X87070712Y-27563290D01*
X87078280Y-27550664D01*
X87087048Y-27538841D01*
X87096934Y-27527934D01*
X87107841Y-27518048D01*
X87119664Y-27509280D01*
X87132290Y-27501712D01*
X87145597Y-27495418D01*
X87159457Y-27490459D01*
X87173736Y-27486882D01*
X87188297Y-27484722D01*
X87203000Y-27484000D01*
X87503000Y-27484000D01*
X87517703Y-27484722D01*
X87517703Y-27484722D01*
G37*
D12*
X87353000Y-28284000D03*
D10*
G36*
X88787703Y-27484722D02*
G01*
X88802264Y-27486882D01*
X88816543Y-27490459D01*
X88830403Y-27495418D01*
X88843710Y-27501712D01*
X88856336Y-27509280D01*
X88868159Y-27518048D01*
X88879066Y-27527934D01*
X88888952Y-27538841D01*
X88897720Y-27550664D01*
X88905288Y-27563290D01*
X88911582Y-27576597D01*
X88916541Y-27590457D01*
X88920118Y-27604736D01*
X88922278Y-27619297D01*
X88923000Y-27634000D01*
X88923000Y-28934000D01*
X88922278Y-28948703D01*
X88920118Y-28963264D01*
X88916541Y-28977543D01*
X88911582Y-28991403D01*
X88905288Y-29004710D01*
X88897720Y-29017336D01*
X88888952Y-29029159D01*
X88879066Y-29040066D01*
X88868159Y-29049952D01*
X88856336Y-29058720D01*
X88843710Y-29066288D01*
X88830403Y-29072582D01*
X88816543Y-29077541D01*
X88802264Y-29081118D01*
X88787703Y-29083278D01*
X88773000Y-29084000D01*
X88473000Y-29084000D01*
X88458297Y-29083278D01*
X88443736Y-29081118D01*
X88429457Y-29077541D01*
X88415597Y-29072582D01*
X88402290Y-29066288D01*
X88389664Y-29058720D01*
X88377841Y-29049952D01*
X88366934Y-29040066D01*
X88357048Y-29029159D01*
X88348280Y-29017336D01*
X88340712Y-29004710D01*
X88334418Y-28991403D01*
X88329459Y-28977543D01*
X88325882Y-28963264D01*
X88323722Y-28948703D01*
X88323000Y-28934000D01*
X88323000Y-27634000D01*
X88323722Y-27619297D01*
X88325882Y-27604736D01*
X88329459Y-27590457D01*
X88334418Y-27576597D01*
X88340712Y-27563290D01*
X88348280Y-27550664D01*
X88357048Y-27538841D01*
X88366934Y-27527934D01*
X88377841Y-27518048D01*
X88389664Y-27509280D01*
X88402290Y-27501712D01*
X88415597Y-27495418D01*
X88429457Y-27490459D01*
X88443736Y-27486882D01*
X88458297Y-27484722D01*
X88473000Y-27484000D01*
X88773000Y-27484000D01*
X88787703Y-27484722D01*
X88787703Y-27484722D01*
G37*
D12*
X88623000Y-28284000D03*
D10*
G36*
X90057703Y-27484722D02*
G01*
X90072264Y-27486882D01*
X90086543Y-27490459D01*
X90100403Y-27495418D01*
X90113710Y-27501712D01*
X90126336Y-27509280D01*
X90138159Y-27518048D01*
X90149066Y-27527934D01*
X90158952Y-27538841D01*
X90167720Y-27550664D01*
X90175288Y-27563290D01*
X90181582Y-27576597D01*
X90186541Y-27590457D01*
X90190118Y-27604736D01*
X90192278Y-27619297D01*
X90193000Y-27634000D01*
X90193000Y-28934000D01*
X90192278Y-28948703D01*
X90190118Y-28963264D01*
X90186541Y-28977543D01*
X90181582Y-28991403D01*
X90175288Y-29004710D01*
X90167720Y-29017336D01*
X90158952Y-29029159D01*
X90149066Y-29040066D01*
X90138159Y-29049952D01*
X90126336Y-29058720D01*
X90113710Y-29066288D01*
X90100403Y-29072582D01*
X90086543Y-29077541D01*
X90072264Y-29081118D01*
X90057703Y-29083278D01*
X90043000Y-29084000D01*
X89743000Y-29084000D01*
X89728297Y-29083278D01*
X89713736Y-29081118D01*
X89699457Y-29077541D01*
X89685597Y-29072582D01*
X89672290Y-29066288D01*
X89659664Y-29058720D01*
X89647841Y-29049952D01*
X89636934Y-29040066D01*
X89627048Y-29029159D01*
X89618280Y-29017336D01*
X89610712Y-29004710D01*
X89604418Y-28991403D01*
X89599459Y-28977543D01*
X89595882Y-28963264D01*
X89593722Y-28948703D01*
X89593000Y-28934000D01*
X89593000Y-27634000D01*
X89593722Y-27619297D01*
X89595882Y-27604736D01*
X89599459Y-27590457D01*
X89604418Y-27576597D01*
X89610712Y-27563290D01*
X89618280Y-27550664D01*
X89627048Y-27538841D01*
X89636934Y-27527934D01*
X89647841Y-27518048D01*
X89659664Y-27509280D01*
X89672290Y-27501712D01*
X89685597Y-27495418D01*
X89699457Y-27490459D01*
X89713736Y-27486882D01*
X89728297Y-27484722D01*
X89743000Y-27484000D01*
X90043000Y-27484000D01*
X90057703Y-27484722D01*
X90057703Y-27484722D01*
G37*
D12*
X89893000Y-28284000D03*
D10*
G36*
X91327703Y-27484722D02*
G01*
X91342264Y-27486882D01*
X91356543Y-27490459D01*
X91370403Y-27495418D01*
X91383710Y-27501712D01*
X91396336Y-27509280D01*
X91408159Y-27518048D01*
X91419066Y-27527934D01*
X91428952Y-27538841D01*
X91437720Y-27550664D01*
X91445288Y-27563290D01*
X91451582Y-27576597D01*
X91456541Y-27590457D01*
X91460118Y-27604736D01*
X91462278Y-27619297D01*
X91463000Y-27634000D01*
X91463000Y-28934000D01*
X91462278Y-28948703D01*
X91460118Y-28963264D01*
X91456541Y-28977543D01*
X91451582Y-28991403D01*
X91445288Y-29004710D01*
X91437720Y-29017336D01*
X91428952Y-29029159D01*
X91419066Y-29040066D01*
X91408159Y-29049952D01*
X91396336Y-29058720D01*
X91383710Y-29066288D01*
X91370403Y-29072582D01*
X91356543Y-29077541D01*
X91342264Y-29081118D01*
X91327703Y-29083278D01*
X91313000Y-29084000D01*
X91013000Y-29084000D01*
X90998297Y-29083278D01*
X90983736Y-29081118D01*
X90969457Y-29077541D01*
X90955597Y-29072582D01*
X90942290Y-29066288D01*
X90929664Y-29058720D01*
X90917841Y-29049952D01*
X90906934Y-29040066D01*
X90897048Y-29029159D01*
X90888280Y-29017336D01*
X90880712Y-29004710D01*
X90874418Y-28991403D01*
X90869459Y-28977543D01*
X90865882Y-28963264D01*
X90863722Y-28948703D01*
X90863000Y-28934000D01*
X90863000Y-27634000D01*
X90863722Y-27619297D01*
X90865882Y-27604736D01*
X90869459Y-27590457D01*
X90874418Y-27576597D01*
X90880712Y-27563290D01*
X90888280Y-27550664D01*
X90897048Y-27538841D01*
X90906934Y-27527934D01*
X90917841Y-27518048D01*
X90929664Y-27509280D01*
X90942290Y-27501712D01*
X90955597Y-27495418D01*
X90969457Y-27490459D01*
X90983736Y-27486882D01*
X90998297Y-27484722D01*
X91013000Y-27484000D01*
X91313000Y-27484000D01*
X91327703Y-27484722D01*
X91327703Y-27484722D01*
G37*
D12*
X91163000Y-28284000D03*
D10*
G36*
X92597703Y-27484722D02*
G01*
X92612264Y-27486882D01*
X92626543Y-27490459D01*
X92640403Y-27495418D01*
X92653710Y-27501712D01*
X92666336Y-27509280D01*
X92678159Y-27518048D01*
X92689066Y-27527934D01*
X92698952Y-27538841D01*
X92707720Y-27550664D01*
X92715288Y-27563290D01*
X92721582Y-27576597D01*
X92726541Y-27590457D01*
X92730118Y-27604736D01*
X92732278Y-27619297D01*
X92733000Y-27634000D01*
X92733000Y-28934000D01*
X92732278Y-28948703D01*
X92730118Y-28963264D01*
X92726541Y-28977543D01*
X92721582Y-28991403D01*
X92715288Y-29004710D01*
X92707720Y-29017336D01*
X92698952Y-29029159D01*
X92689066Y-29040066D01*
X92678159Y-29049952D01*
X92666336Y-29058720D01*
X92653710Y-29066288D01*
X92640403Y-29072582D01*
X92626543Y-29077541D01*
X92612264Y-29081118D01*
X92597703Y-29083278D01*
X92583000Y-29084000D01*
X92283000Y-29084000D01*
X92268297Y-29083278D01*
X92253736Y-29081118D01*
X92239457Y-29077541D01*
X92225597Y-29072582D01*
X92212290Y-29066288D01*
X92199664Y-29058720D01*
X92187841Y-29049952D01*
X92176934Y-29040066D01*
X92167048Y-29029159D01*
X92158280Y-29017336D01*
X92150712Y-29004710D01*
X92144418Y-28991403D01*
X92139459Y-28977543D01*
X92135882Y-28963264D01*
X92133722Y-28948703D01*
X92133000Y-28934000D01*
X92133000Y-27634000D01*
X92133722Y-27619297D01*
X92135882Y-27604736D01*
X92139459Y-27590457D01*
X92144418Y-27576597D01*
X92150712Y-27563290D01*
X92158280Y-27550664D01*
X92167048Y-27538841D01*
X92176934Y-27527934D01*
X92187841Y-27518048D01*
X92199664Y-27509280D01*
X92212290Y-27501712D01*
X92225597Y-27495418D01*
X92239457Y-27490459D01*
X92253736Y-27486882D01*
X92268297Y-27484722D01*
X92283000Y-27484000D01*
X92583000Y-27484000D01*
X92597703Y-27484722D01*
X92597703Y-27484722D01*
G37*
D12*
X92433000Y-28284000D03*
D10*
G36*
X92597703Y-33984722D02*
G01*
X92612264Y-33986882D01*
X92626543Y-33990459D01*
X92640403Y-33995418D01*
X92653710Y-34001712D01*
X92666336Y-34009280D01*
X92678159Y-34018048D01*
X92689066Y-34027934D01*
X92698952Y-34038841D01*
X92707720Y-34050664D01*
X92715288Y-34063290D01*
X92721582Y-34076597D01*
X92726541Y-34090457D01*
X92730118Y-34104736D01*
X92732278Y-34119297D01*
X92733000Y-34134000D01*
X92733000Y-35434000D01*
X92732278Y-35448703D01*
X92730118Y-35463264D01*
X92726541Y-35477543D01*
X92721582Y-35491403D01*
X92715288Y-35504710D01*
X92707720Y-35517336D01*
X92698952Y-35529159D01*
X92689066Y-35540066D01*
X92678159Y-35549952D01*
X92666336Y-35558720D01*
X92653710Y-35566288D01*
X92640403Y-35572582D01*
X92626543Y-35577541D01*
X92612264Y-35581118D01*
X92597703Y-35583278D01*
X92583000Y-35584000D01*
X92283000Y-35584000D01*
X92268297Y-35583278D01*
X92253736Y-35581118D01*
X92239457Y-35577541D01*
X92225597Y-35572582D01*
X92212290Y-35566288D01*
X92199664Y-35558720D01*
X92187841Y-35549952D01*
X92176934Y-35540066D01*
X92167048Y-35529159D01*
X92158280Y-35517336D01*
X92150712Y-35504710D01*
X92144418Y-35491403D01*
X92139459Y-35477543D01*
X92135882Y-35463264D01*
X92133722Y-35448703D01*
X92133000Y-35434000D01*
X92133000Y-34134000D01*
X92133722Y-34119297D01*
X92135882Y-34104736D01*
X92139459Y-34090457D01*
X92144418Y-34076597D01*
X92150712Y-34063290D01*
X92158280Y-34050664D01*
X92167048Y-34038841D01*
X92176934Y-34027934D01*
X92187841Y-34018048D01*
X92199664Y-34009280D01*
X92212290Y-34001712D01*
X92225597Y-33995418D01*
X92239457Y-33990459D01*
X92253736Y-33986882D01*
X92268297Y-33984722D01*
X92283000Y-33984000D01*
X92583000Y-33984000D01*
X92597703Y-33984722D01*
X92597703Y-33984722D01*
G37*
D12*
X92433000Y-34784000D03*
D10*
G36*
X91327703Y-33984722D02*
G01*
X91342264Y-33986882D01*
X91356543Y-33990459D01*
X91370403Y-33995418D01*
X91383710Y-34001712D01*
X91396336Y-34009280D01*
X91408159Y-34018048D01*
X91419066Y-34027934D01*
X91428952Y-34038841D01*
X91437720Y-34050664D01*
X91445288Y-34063290D01*
X91451582Y-34076597D01*
X91456541Y-34090457D01*
X91460118Y-34104736D01*
X91462278Y-34119297D01*
X91463000Y-34134000D01*
X91463000Y-35434000D01*
X91462278Y-35448703D01*
X91460118Y-35463264D01*
X91456541Y-35477543D01*
X91451582Y-35491403D01*
X91445288Y-35504710D01*
X91437720Y-35517336D01*
X91428952Y-35529159D01*
X91419066Y-35540066D01*
X91408159Y-35549952D01*
X91396336Y-35558720D01*
X91383710Y-35566288D01*
X91370403Y-35572582D01*
X91356543Y-35577541D01*
X91342264Y-35581118D01*
X91327703Y-35583278D01*
X91313000Y-35584000D01*
X91013000Y-35584000D01*
X90998297Y-35583278D01*
X90983736Y-35581118D01*
X90969457Y-35577541D01*
X90955597Y-35572582D01*
X90942290Y-35566288D01*
X90929664Y-35558720D01*
X90917841Y-35549952D01*
X90906934Y-35540066D01*
X90897048Y-35529159D01*
X90888280Y-35517336D01*
X90880712Y-35504710D01*
X90874418Y-35491403D01*
X90869459Y-35477543D01*
X90865882Y-35463264D01*
X90863722Y-35448703D01*
X90863000Y-35434000D01*
X90863000Y-34134000D01*
X90863722Y-34119297D01*
X90865882Y-34104736D01*
X90869459Y-34090457D01*
X90874418Y-34076597D01*
X90880712Y-34063290D01*
X90888280Y-34050664D01*
X90897048Y-34038841D01*
X90906934Y-34027934D01*
X90917841Y-34018048D01*
X90929664Y-34009280D01*
X90942290Y-34001712D01*
X90955597Y-33995418D01*
X90969457Y-33990459D01*
X90983736Y-33986882D01*
X90998297Y-33984722D01*
X91013000Y-33984000D01*
X91313000Y-33984000D01*
X91327703Y-33984722D01*
X91327703Y-33984722D01*
G37*
D12*
X91163000Y-34784000D03*
D10*
G36*
X90057703Y-33984722D02*
G01*
X90072264Y-33986882D01*
X90086543Y-33990459D01*
X90100403Y-33995418D01*
X90113710Y-34001712D01*
X90126336Y-34009280D01*
X90138159Y-34018048D01*
X90149066Y-34027934D01*
X90158952Y-34038841D01*
X90167720Y-34050664D01*
X90175288Y-34063290D01*
X90181582Y-34076597D01*
X90186541Y-34090457D01*
X90190118Y-34104736D01*
X90192278Y-34119297D01*
X90193000Y-34134000D01*
X90193000Y-35434000D01*
X90192278Y-35448703D01*
X90190118Y-35463264D01*
X90186541Y-35477543D01*
X90181582Y-35491403D01*
X90175288Y-35504710D01*
X90167720Y-35517336D01*
X90158952Y-35529159D01*
X90149066Y-35540066D01*
X90138159Y-35549952D01*
X90126336Y-35558720D01*
X90113710Y-35566288D01*
X90100403Y-35572582D01*
X90086543Y-35577541D01*
X90072264Y-35581118D01*
X90057703Y-35583278D01*
X90043000Y-35584000D01*
X89743000Y-35584000D01*
X89728297Y-35583278D01*
X89713736Y-35581118D01*
X89699457Y-35577541D01*
X89685597Y-35572582D01*
X89672290Y-35566288D01*
X89659664Y-35558720D01*
X89647841Y-35549952D01*
X89636934Y-35540066D01*
X89627048Y-35529159D01*
X89618280Y-35517336D01*
X89610712Y-35504710D01*
X89604418Y-35491403D01*
X89599459Y-35477543D01*
X89595882Y-35463264D01*
X89593722Y-35448703D01*
X89593000Y-35434000D01*
X89593000Y-34134000D01*
X89593722Y-34119297D01*
X89595882Y-34104736D01*
X89599459Y-34090457D01*
X89604418Y-34076597D01*
X89610712Y-34063290D01*
X89618280Y-34050664D01*
X89627048Y-34038841D01*
X89636934Y-34027934D01*
X89647841Y-34018048D01*
X89659664Y-34009280D01*
X89672290Y-34001712D01*
X89685597Y-33995418D01*
X89699457Y-33990459D01*
X89713736Y-33986882D01*
X89728297Y-33984722D01*
X89743000Y-33984000D01*
X90043000Y-33984000D01*
X90057703Y-33984722D01*
X90057703Y-33984722D01*
G37*
D12*
X89893000Y-34784000D03*
D10*
G36*
X88787703Y-33984722D02*
G01*
X88802264Y-33986882D01*
X88816543Y-33990459D01*
X88830403Y-33995418D01*
X88843710Y-34001712D01*
X88856336Y-34009280D01*
X88868159Y-34018048D01*
X88879066Y-34027934D01*
X88888952Y-34038841D01*
X88897720Y-34050664D01*
X88905288Y-34063290D01*
X88911582Y-34076597D01*
X88916541Y-34090457D01*
X88920118Y-34104736D01*
X88922278Y-34119297D01*
X88923000Y-34134000D01*
X88923000Y-35434000D01*
X88922278Y-35448703D01*
X88920118Y-35463264D01*
X88916541Y-35477543D01*
X88911582Y-35491403D01*
X88905288Y-35504710D01*
X88897720Y-35517336D01*
X88888952Y-35529159D01*
X88879066Y-35540066D01*
X88868159Y-35549952D01*
X88856336Y-35558720D01*
X88843710Y-35566288D01*
X88830403Y-35572582D01*
X88816543Y-35577541D01*
X88802264Y-35581118D01*
X88787703Y-35583278D01*
X88773000Y-35584000D01*
X88473000Y-35584000D01*
X88458297Y-35583278D01*
X88443736Y-35581118D01*
X88429457Y-35577541D01*
X88415597Y-35572582D01*
X88402290Y-35566288D01*
X88389664Y-35558720D01*
X88377841Y-35549952D01*
X88366934Y-35540066D01*
X88357048Y-35529159D01*
X88348280Y-35517336D01*
X88340712Y-35504710D01*
X88334418Y-35491403D01*
X88329459Y-35477543D01*
X88325882Y-35463264D01*
X88323722Y-35448703D01*
X88323000Y-35434000D01*
X88323000Y-34134000D01*
X88323722Y-34119297D01*
X88325882Y-34104736D01*
X88329459Y-34090457D01*
X88334418Y-34076597D01*
X88340712Y-34063290D01*
X88348280Y-34050664D01*
X88357048Y-34038841D01*
X88366934Y-34027934D01*
X88377841Y-34018048D01*
X88389664Y-34009280D01*
X88402290Y-34001712D01*
X88415597Y-33995418D01*
X88429457Y-33990459D01*
X88443736Y-33986882D01*
X88458297Y-33984722D01*
X88473000Y-33984000D01*
X88773000Y-33984000D01*
X88787703Y-33984722D01*
X88787703Y-33984722D01*
G37*
D12*
X88623000Y-34784000D03*
D10*
G36*
X87517703Y-33984722D02*
G01*
X87532264Y-33986882D01*
X87546543Y-33990459D01*
X87560403Y-33995418D01*
X87573710Y-34001712D01*
X87586336Y-34009280D01*
X87598159Y-34018048D01*
X87609066Y-34027934D01*
X87618952Y-34038841D01*
X87627720Y-34050664D01*
X87635288Y-34063290D01*
X87641582Y-34076597D01*
X87646541Y-34090457D01*
X87650118Y-34104736D01*
X87652278Y-34119297D01*
X87653000Y-34134000D01*
X87653000Y-35434000D01*
X87652278Y-35448703D01*
X87650118Y-35463264D01*
X87646541Y-35477543D01*
X87641582Y-35491403D01*
X87635288Y-35504710D01*
X87627720Y-35517336D01*
X87618952Y-35529159D01*
X87609066Y-35540066D01*
X87598159Y-35549952D01*
X87586336Y-35558720D01*
X87573710Y-35566288D01*
X87560403Y-35572582D01*
X87546543Y-35577541D01*
X87532264Y-35581118D01*
X87517703Y-35583278D01*
X87503000Y-35584000D01*
X87203000Y-35584000D01*
X87188297Y-35583278D01*
X87173736Y-35581118D01*
X87159457Y-35577541D01*
X87145597Y-35572582D01*
X87132290Y-35566288D01*
X87119664Y-35558720D01*
X87107841Y-35549952D01*
X87096934Y-35540066D01*
X87087048Y-35529159D01*
X87078280Y-35517336D01*
X87070712Y-35504710D01*
X87064418Y-35491403D01*
X87059459Y-35477543D01*
X87055882Y-35463264D01*
X87053722Y-35448703D01*
X87053000Y-35434000D01*
X87053000Y-34134000D01*
X87053722Y-34119297D01*
X87055882Y-34104736D01*
X87059459Y-34090457D01*
X87064418Y-34076597D01*
X87070712Y-34063290D01*
X87078280Y-34050664D01*
X87087048Y-34038841D01*
X87096934Y-34027934D01*
X87107841Y-34018048D01*
X87119664Y-34009280D01*
X87132290Y-34001712D01*
X87145597Y-33995418D01*
X87159457Y-33990459D01*
X87173736Y-33986882D01*
X87188297Y-33984722D01*
X87203000Y-33984000D01*
X87503000Y-33984000D01*
X87517703Y-33984722D01*
X87517703Y-33984722D01*
G37*
D12*
X87353000Y-34784000D03*
D10*
G36*
X86247703Y-33984722D02*
G01*
X86262264Y-33986882D01*
X86276543Y-33990459D01*
X86290403Y-33995418D01*
X86303710Y-34001712D01*
X86316336Y-34009280D01*
X86328159Y-34018048D01*
X86339066Y-34027934D01*
X86348952Y-34038841D01*
X86357720Y-34050664D01*
X86365288Y-34063290D01*
X86371582Y-34076597D01*
X86376541Y-34090457D01*
X86380118Y-34104736D01*
X86382278Y-34119297D01*
X86383000Y-34134000D01*
X86383000Y-35434000D01*
X86382278Y-35448703D01*
X86380118Y-35463264D01*
X86376541Y-35477543D01*
X86371582Y-35491403D01*
X86365288Y-35504710D01*
X86357720Y-35517336D01*
X86348952Y-35529159D01*
X86339066Y-35540066D01*
X86328159Y-35549952D01*
X86316336Y-35558720D01*
X86303710Y-35566288D01*
X86290403Y-35572582D01*
X86276543Y-35577541D01*
X86262264Y-35581118D01*
X86247703Y-35583278D01*
X86233000Y-35584000D01*
X85933000Y-35584000D01*
X85918297Y-35583278D01*
X85903736Y-35581118D01*
X85889457Y-35577541D01*
X85875597Y-35572582D01*
X85862290Y-35566288D01*
X85849664Y-35558720D01*
X85837841Y-35549952D01*
X85826934Y-35540066D01*
X85817048Y-35529159D01*
X85808280Y-35517336D01*
X85800712Y-35504710D01*
X85794418Y-35491403D01*
X85789459Y-35477543D01*
X85785882Y-35463264D01*
X85783722Y-35448703D01*
X85783000Y-35434000D01*
X85783000Y-34134000D01*
X85783722Y-34119297D01*
X85785882Y-34104736D01*
X85789459Y-34090457D01*
X85794418Y-34076597D01*
X85800712Y-34063290D01*
X85808280Y-34050664D01*
X85817048Y-34038841D01*
X85826934Y-34027934D01*
X85837841Y-34018048D01*
X85849664Y-34009280D01*
X85862290Y-34001712D01*
X85875597Y-33995418D01*
X85889457Y-33990459D01*
X85903736Y-33986882D01*
X85918297Y-33984722D01*
X85933000Y-33984000D01*
X86233000Y-33984000D01*
X86247703Y-33984722D01*
X86247703Y-33984722D01*
G37*
D12*
X86083000Y-34784000D03*
D10*
G36*
X84977703Y-33984722D02*
G01*
X84992264Y-33986882D01*
X85006543Y-33990459D01*
X85020403Y-33995418D01*
X85033710Y-34001712D01*
X85046336Y-34009280D01*
X85058159Y-34018048D01*
X85069066Y-34027934D01*
X85078952Y-34038841D01*
X85087720Y-34050664D01*
X85095288Y-34063290D01*
X85101582Y-34076597D01*
X85106541Y-34090457D01*
X85110118Y-34104736D01*
X85112278Y-34119297D01*
X85113000Y-34134000D01*
X85113000Y-35434000D01*
X85112278Y-35448703D01*
X85110118Y-35463264D01*
X85106541Y-35477543D01*
X85101582Y-35491403D01*
X85095288Y-35504710D01*
X85087720Y-35517336D01*
X85078952Y-35529159D01*
X85069066Y-35540066D01*
X85058159Y-35549952D01*
X85046336Y-35558720D01*
X85033710Y-35566288D01*
X85020403Y-35572582D01*
X85006543Y-35577541D01*
X84992264Y-35581118D01*
X84977703Y-35583278D01*
X84963000Y-35584000D01*
X84663000Y-35584000D01*
X84648297Y-35583278D01*
X84633736Y-35581118D01*
X84619457Y-35577541D01*
X84605597Y-35572582D01*
X84592290Y-35566288D01*
X84579664Y-35558720D01*
X84567841Y-35549952D01*
X84556934Y-35540066D01*
X84547048Y-35529159D01*
X84538280Y-35517336D01*
X84530712Y-35504710D01*
X84524418Y-35491403D01*
X84519459Y-35477543D01*
X84515882Y-35463264D01*
X84513722Y-35448703D01*
X84513000Y-35434000D01*
X84513000Y-34134000D01*
X84513722Y-34119297D01*
X84515882Y-34104736D01*
X84519459Y-34090457D01*
X84524418Y-34076597D01*
X84530712Y-34063290D01*
X84538280Y-34050664D01*
X84547048Y-34038841D01*
X84556934Y-34027934D01*
X84567841Y-34018048D01*
X84579664Y-34009280D01*
X84592290Y-34001712D01*
X84605597Y-33995418D01*
X84619457Y-33990459D01*
X84633736Y-33986882D01*
X84648297Y-33984722D01*
X84663000Y-33984000D01*
X84963000Y-33984000D01*
X84977703Y-33984722D01*
X84977703Y-33984722D01*
G37*
D12*
X84813000Y-34784000D03*
D10*
G36*
X83707703Y-33984722D02*
G01*
X83722264Y-33986882D01*
X83736543Y-33990459D01*
X83750403Y-33995418D01*
X83763710Y-34001712D01*
X83776336Y-34009280D01*
X83788159Y-34018048D01*
X83799066Y-34027934D01*
X83808952Y-34038841D01*
X83817720Y-34050664D01*
X83825288Y-34063290D01*
X83831582Y-34076597D01*
X83836541Y-34090457D01*
X83840118Y-34104736D01*
X83842278Y-34119297D01*
X83843000Y-34134000D01*
X83843000Y-35434000D01*
X83842278Y-35448703D01*
X83840118Y-35463264D01*
X83836541Y-35477543D01*
X83831582Y-35491403D01*
X83825288Y-35504710D01*
X83817720Y-35517336D01*
X83808952Y-35529159D01*
X83799066Y-35540066D01*
X83788159Y-35549952D01*
X83776336Y-35558720D01*
X83763710Y-35566288D01*
X83750403Y-35572582D01*
X83736543Y-35577541D01*
X83722264Y-35581118D01*
X83707703Y-35583278D01*
X83693000Y-35584000D01*
X83393000Y-35584000D01*
X83378297Y-35583278D01*
X83363736Y-35581118D01*
X83349457Y-35577541D01*
X83335597Y-35572582D01*
X83322290Y-35566288D01*
X83309664Y-35558720D01*
X83297841Y-35549952D01*
X83286934Y-35540066D01*
X83277048Y-35529159D01*
X83268280Y-35517336D01*
X83260712Y-35504710D01*
X83254418Y-35491403D01*
X83249459Y-35477543D01*
X83245882Y-35463264D01*
X83243722Y-35448703D01*
X83243000Y-35434000D01*
X83243000Y-34134000D01*
X83243722Y-34119297D01*
X83245882Y-34104736D01*
X83249459Y-34090457D01*
X83254418Y-34076597D01*
X83260712Y-34063290D01*
X83268280Y-34050664D01*
X83277048Y-34038841D01*
X83286934Y-34027934D01*
X83297841Y-34018048D01*
X83309664Y-34009280D01*
X83322290Y-34001712D01*
X83335597Y-33995418D01*
X83349457Y-33990459D01*
X83363736Y-33986882D01*
X83378297Y-33984722D01*
X83393000Y-33984000D01*
X83693000Y-33984000D01*
X83707703Y-33984722D01*
X83707703Y-33984722D01*
G37*
D12*
X83543000Y-34784000D03*
D13*
X142743000Y-70784000D03*
X141473000Y-70784000D03*
X140203000Y-70784000D03*
X138933000Y-70784000D03*
X137663000Y-70784000D03*
X136393000Y-70784000D03*
X135123000Y-70784000D03*
X133853000Y-70784000D03*
X132583000Y-70784000D03*
X131313000Y-70784000D03*
X130043000Y-70784000D03*
X128773000Y-70784000D03*
X127503000Y-70784000D03*
X126233000Y-70784000D03*
D14*
X125233000Y-67999000D03*
X125233000Y-66729000D03*
X125233000Y-65459000D03*
X125233000Y-64189000D03*
X125233000Y-62919000D03*
X125233000Y-61649000D03*
X125233000Y-60379000D03*
X125233000Y-59109000D03*
X125233000Y-57839000D03*
X125233000Y-56569000D03*
D13*
X126233000Y-53784000D03*
X127503000Y-53784000D03*
X128773000Y-53784000D03*
X130043000Y-53784000D03*
X131313000Y-53784000D03*
X132583000Y-53784000D03*
X133853000Y-53784000D03*
X135123000Y-53784000D03*
X136393000Y-53784000D03*
X137663000Y-53784000D03*
X138933000Y-53784000D03*
X140203000Y-53784000D03*
X141473000Y-53784000D03*
X142743000Y-53784000D03*
D15*
X135243000Y-61284000D03*
D16*
X114538000Y-57384000D03*
X109938000Y-57384000D03*
X112238000Y-57384000D03*
D17*
X112238000Y-63684000D03*
D18*
X70738000Y-30684000D03*
D19*
X66738000Y-29534000D03*
D18*
X70738000Y-28384000D03*
D10*
G36*
X77357504Y-26503204D02*
G01*
X77381773Y-26506804D01*
X77405571Y-26512765D01*
X77428671Y-26521030D01*
X77450849Y-26531520D01*
X77471893Y-26544133D01*
X77491598Y-26558747D01*
X77509777Y-26575223D01*
X77526253Y-26593402D01*
X77540867Y-26613107D01*
X77553480Y-26634151D01*
X77563970Y-26656329D01*
X77572235Y-26679429D01*
X77578196Y-26703227D01*
X77581796Y-26727496D01*
X77583000Y-26752000D01*
X77583000Y-27677000D01*
X77581796Y-27701504D01*
X77578196Y-27725773D01*
X77572235Y-27749571D01*
X77563970Y-27772671D01*
X77553480Y-27794849D01*
X77540867Y-27815893D01*
X77526253Y-27835598D01*
X77509777Y-27853777D01*
X77491598Y-27870253D01*
X77471893Y-27884867D01*
X77450849Y-27897480D01*
X77428671Y-27907970D01*
X77405571Y-27916235D01*
X77381773Y-27922196D01*
X77357504Y-27925796D01*
X77333000Y-27927000D01*
X76083000Y-27927000D01*
X76058496Y-27925796D01*
X76034227Y-27922196D01*
X76010429Y-27916235D01*
X75987329Y-27907970D01*
X75965151Y-27897480D01*
X75944107Y-27884867D01*
X75924402Y-27870253D01*
X75906223Y-27853777D01*
X75889747Y-27835598D01*
X75875133Y-27815893D01*
X75862520Y-27794849D01*
X75852030Y-27772671D01*
X75843765Y-27749571D01*
X75837804Y-27725773D01*
X75834204Y-27701504D01*
X75833000Y-27677000D01*
X75833000Y-26752000D01*
X75834204Y-26727496D01*
X75837804Y-26703227D01*
X75843765Y-26679429D01*
X75852030Y-26656329D01*
X75862520Y-26634151D01*
X75875133Y-26613107D01*
X75889747Y-26593402D01*
X75906223Y-26575223D01*
X75924402Y-26558747D01*
X75944107Y-26544133D01*
X75965151Y-26531520D01*
X75987329Y-26521030D01*
X76010429Y-26512765D01*
X76034227Y-26506804D01*
X76058496Y-26503204D01*
X76083000Y-26502000D01*
X77333000Y-26502000D01*
X77357504Y-26503204D01*
X77357504Y-26503204D01*
G37*
D11*
X76708000Y-27214500D03*
D10*
G36*
X77357504Y-29478204D02*
G01*
X77381773Y-29481804D01*
X77405571Y-29487765D01*
X77428671Y-29496030D01*
X77450849Y-29506520D01*
X77471893Y-29519133D01*
X77491598Y-29533747D01*
X77509777Y-29550223D01*
X77526253Y-29568402D01*
X77540867Y-29588107D01*
X77553480Y-29609151D01*
X77563970Y-29631329D01*
X77572235Y-29654429D01*
X77578196Y-29678227D01*
X77581796Y-29702496D01*
X77583000Y-29727000D01*
X77583000Y-30652000D01*
X77581796Y-30676504D01*
X77578196Y-30700773D01*
X77572235Y-30724571D01*
X77563970Y-30747671D01*
X77553480Y-30769849D01*
X77540867Y-30790893D01*
X77526253Y-30810598D01*
X77509777Y-30828777D01*
X77491598Y-30845253D01*
X77471893Y-30859867D01*
X77450849Y-30872480D01*
X77428671Y-30882970D01*
X77405571Y-30891235D01*
X77381773Y-30897196D01*
X77357504Y-30900796D01*
X77333000Y-30902000D01*
X76083000Y-30902000D01*
X76058496Y-30900796D01*
X76034227Y-30897196D01*
X76010429Y-30891235D01*
X75987329Y-30882970D01*
X75965151Y-30872480D01*
X75944107Y-30859867D01*
X75924402Y-30845253D01*
X75906223Y-30828777D01*
X75889747Y-30810598D01*
X75875133Y-30790893D01*
X75862520Y-30769849D01*
X75852030Y-30747671D01*
X75843765Y-30724571D01*
X75837804Y-30700773D01*
X75834204Y-30676504D01*
X75833000Y-30652000D01*
X75833000Y-29727000D01*
X75834204Y-29702496D01*
X75837804Y-29678227D01*
X75843765Y-29654429D01*
X75852030Y-29631329D01*
X75862520Y-29609151D01*
X75875133Y-29588107D01*
X75889747Y-29568402D01*
X75906223Y-29550223D01*
X75924402Y-29533747D01*
X75944107Y-29519133D01*
X75965151Y-29506520D01*
X75987329Y-29496030D01*
X76010429Y-29487765D01*
X76034227Y-29481804D01*
X76058496Y-29478204D01*
X76083000Y-29477000D01*
X77333000Y-29477000D01*
X77357504Y-29478204D01*
X77357504Y-29478204D01*
G37*
D11*
X76708000Y-30189500D03*
D10*
G36*
X79643504Y-26539704D02*
G01*
X79667773Y-26543304D01*
X79691571Y-26549265D01*
X79714671Y-26557530D01*
X79736849Y-26568020D01*
X79757893Y-26580633D01*
X79777598Y-26595247D01*
X79795777Y-26611723D01*
X79812253Y-26629902D01*
X79826867Y-26649607D01*
X79839480Y-26670651D01*
X79849970Y-26692829D01*
X79858235Y-26715929D01*
X79864196Y-26739727D01*
X79867796Y-26763996D01*
X79869000Y-26788500D01*
X79869000Y-27713500D01*
X79867796Y-27738004D01*
X79864196Y-27762273D01*
X79858235Y-27786071D01*
X79849970Y-27809171D01*
X79839480Y-27831349D01*
X79826867Y-27852393D01*
X79812253Y-27872098D01*
X79795777Y-27890277D01*
X79777598Y-27906753D01*
X79757893Y-27921367D01*
X79736849Y-27933980D01*
X79714671Y-27944470D01*
X79691571Y-27952735D01*
X79667773Y-27958696D01*
X79643504Y-27962296D01*
X79619000Y-27963500D01*
X78369000Y-27963500D01*
X78344496Y-27962296D01*
X78320227Y-27958696D01*
X78296429Y-27952735D01*
X78273329Y-27944470D01*
X78251151Y-27933980D01*
X78230107Y-27921367D01*
X78210402Y-27906753D01*
X78192223Y-27890277D01*
X78175747Y-27872098D01*
X78161133Y-27852393D01*
X78148520Y-27831349D01*
X78138030Y-27809171D01*
X78129765Y-27786071D01*
X78123804Y-27762273D01*
X78120204Y-27738004D01*
X78119000Y-27713500D01*
X78119000Y-26788500D01*
X78120204Y-26763996D01*
X78123804Y-26739727D01*
X78129765Y-26715929D01*
X78138030Y-26692829D01*
X78148520Y-26670651D01*
X78161133Y-26649607D01*
X78175747Y-26629902D01*
X78192223Y-26611723D01*
X78210402Y-26595247D01*
X78230107Y-26580633D01*
X78251151Y-26568020D01*
X78273329Y-26557530D01*
X78296429Y-26549265D01*
X78320227Y-26543304D01*
X78344496Y-26539704D01*
X78369000Y-26538500D01*
X79619000Y-26538500D01*
X79643504Y-26539704D01*
X79643504Y-26539704D01*
G37*
D11*
X78994000Y-27251000D03*
D10*
G36*
X79643504Y-29514704D02*
G01*
X79667773Y-29518304D01*
X79691571Y-29524265D01*
X79714671Y-29532530D01*
X79736849Y-29543020D01*
X79757893Y-29555633D01*
X79777598Y-29570247D01*
X79795777Y-29586723D01*
X79812253Y-29604902D01*
X79826867Y-29624607D01*
X79839480Y-29645651D01*
X79849970Y-29667829D01*
X79858235Y-29690929D01*
X79864196Y-29714727D01*
X79867796Y-29738996D01*
X79869000Y-29763500D01*
X79869000Y-30688500D01*
X79867796Y-30713004D01*
X79864196Y-30737273D01*
X79858235Y-30761071D01*
X79849970Y-30784171D01*
X79839480Y-30806349D01*
X79826867Y-30827393D01*
X79812253Y-30847098D01*
X79795777Y-30865277D01*
X79777598Y-30881753D01*
X79757893Y-30896367D01*
X79736849Y-30908980D01*
X79714671Y-30919470D01*
X79691571Y-30927735D01*
X79667773Y-30933696D01*
X79643504Y-30937296D01*
X79619000Y-30938500D01*
X78369000Y-30938500D01*
X78344496Y-30937296D01*
X78320227Y-30933696D01*
X78296429Y-30927735D01*
X78273329Y-30919470D01*
X78251151Y-30908980D01*
X78230107Y-30896367D01*
X78210402Y-30881753D01*
X78192223Y-30865277D01*
X78175747Y-30847098D01*
X78161133Y-30827393D01*
X78148520Y-30806349D01*
X78138030Y-30784171D01*
X78129765Y-30761071D01*
X78123804Y-30737273D01*
X78120204Y-30713004D01*
X78119000Y-30688500D01*
X78119000Y-29763500D01*
X78120204Y-29738996D01*
X78123804Y-29714727D01*
X78129765Y-29690929D01*
X78138030Y-29667829D01*
X78148520Y-29645651D01*
X78161133Y-29624607D01*
X78175747Y-29604902D01*
X78192223Y-29586723D01*
X78210402Y-29570247D01*
X78230107Y-29555633D01*
X78251151Y-29543020D01*
X78273329Y-29532530D01*
X78296429Y-29524265D01*
X78320227Y-29518304D01*
X78344496Y-29514704D01*
X78369000Y-29513500D01*
X79619000Y-29513500D01*
X79643504Y-29514704D01*
X79643504Y-29514704D01*
G37*
D11*
X78994000Y-30226000D03*
D10*
G36*
X65419504Y-65328704D02*
G01*
X65443773Y-65332304D01*
X65467571Y-65338265D01*
X65490671Y-65346530D01*
X65512849Y-65357020D01*
X65533893Y-65369633D01*
X65553598Y-65384247D01*
X65571777Y-65400723D01*
X65588253Y-65418902D01*
X65602867Y-65438607D01*
X65615480Y-65459651D01*
X65625970Y-65481829D01*
X65634235Y-65504929D01*
X65640196Y-65528727D01*
X65643796Y-65552996D01*
X65645000Y-65577500D01*
X65645000Y-66502500D01*
X65643796Y-66527004D01*
X65640196Y-66551273D01*
X65634235Y-66575071D01*
X65625970Y-66598171D01*
X65615480Y-66620349D01*
X65602867Y-66641393D01*
X65588253Y-66661098D01*
X65571777Y-66679277D01*
X65553598Y-66695753D01*
X65533893Y-66710367D01*
X65512849Y-66722980D01*
X65490671Y-66733470D01*
X65467571Y-66741735D01*
X65443773Y-66747696D01*
X65419504Y-66751296D01*
X65395000Y-66752500D01*
X64145000Y-66752500D01*
X64120496Y-66751296D01*
X64096227Y-66747696D01*
X64072429Y-66741735D01*
X64049329Y-66733470D01*
X64027151Y-66722980D01*
X64006107Y-66710367D01*
X63986402Y-66695753D01*
X63968223Y-66679277D01*
X63951747Y-66661098D01*
X63937133Y-66641393D01*
X63924520Y-66620349D01*
X63914030Y-66598171D01*
X63905765Y-66575071D01*
X63899804Y-66551273D01*
X63896204Y-66527004D01*
X63895000Y-66502500D01*
X63895000Y-65577500D01*
X63896204Y-65552996D01*
X63899804Y-65528727D01*
X63905765Y-65504929D01*
X63914030Y-65481829D01*
X63924520Y-65459651D01*
X63937133Y-65438607D01*
X63951747Y-65418902D01*
X63968223Y-65400723D01*
X63986402Y-65384247D01*
X64006107Y-65369633D01*
X64027151Y-65357020D01*
X64049329Y-65346530D01*
X64072429Y-65338265D01*
X64096227Y-65332304D01*
X64120496Y-65328704D01*
X64145000Y-65327500D01*
X65395000Y-65327500D01*
X65419504Y-65328704D01*
X65419504Y-65328704D01*
G37*
D11*
X64770000Y-66040000D03*
D10*
G36*
X65419504Y-62353704D02*
G01*
X65443773Y-62357304D01*
X65467571Y-62363265D01*
X65490671Y-62371530D01*
X65512849Y-62382020D01*
X65533893Y-62394633D01*
X65553598Y-62409247D01*
X65571777Y-62425723D01*
X65588253Y-62443902D01*
X65602867Y-62463607D01*
X65615480Y-62484651D01*
X65625970Y-62506829D01*
X65634235Y-62529929D01*
X65640196Y-62553727D01*
X65643796Y-62577996D01*
X65645000Y-62602500D01*
X65645000Y-63527500D01*
X65643796Y-63552004D01*
X65640196Y-63576273D01*
X65634235Y-63600071D01*
X65625970Y-63623171D01*
X65615480Y-63645349D01*
X65602867Y-63666393D01*
X65588253Y-63686098D01*
X65571777Y-63704277D01*
X65553598Y-63720753D01*
X65533893Y-63735367D01*
X65512849Y-63747980D01*
X65490671Y-63758470D01*
X65467571Y-63766735D01*
X65443773Y-63772696D01*
X65419504Y-63776296D01*
X65395000Y-63777500D01*
X64145000Y-63777500D01*
X64120496Y-63776296D01*
X64096227Y-63772696D01*
X64072429Y-63766735D01*
X64049329Y-63758470D01*
X64027151Y-63747980D01*
X64006107Y-63735367D01*
X63986402Y-63720753D01*
X63968223Y-63704277D01*
X63951747Y-63686098D01*
X63937133Y-63666393D01*
X63924520Y-63645349D01*
X63914030Y-63623171D01*
X63905765Y-63600071D01*
X63899804Y-63576273D01*
X63896204Y-63552004D01*
X63895000Y-63527500D01*
X63895000Y-62602500D01*
X63896204Y-62577996D01*
X63899804Y-62553727D01*
X63905765Y-62529929D01*
X63914030Y-62506829D01*
X63924520Y-62484651D01*
X63937133Y-62463607D01*
X63951747Y-62443902D01*
X63968223Y-62425723D01*
X63986402Y-62409247D01*
X64006107Y-62394633D01*
X64027151Y-62382020D01*
X64049329Y-62371530D01*
X64072429Y-62363265D01*
X64096227Y-62357304D01*
X64120496Y-62353704D01*
X64145000Y-62352500D01*
X65395000Y-62352500D01*
X65419504Y-62353704D01*
X65419504Y-62353704D01*
G37*
D11*
X64770000Y-63065000D03*
D10*
G36*
X65419504Y-40473204D02*
G01*
X65443773Y-40476804D01*
X65467571Y-40482765D01*
X65490671Y-40491030D01*
X65512849Y-40501520D01*
X65533893Y-40514133D01*
X65553598Y-40528747D01*
X65571777Y-40545223D01*
X65588253Y-40563402D01*
X65602867Y-40583107D01*
X65615480Y-40604151D01*
X65625970Y-40626329D01*
X65634235Y-40649429D01*
X65640196Y-40673227D01*
X65643796Y-40697496D01*
X65645000Y-40722000D01*
X65645000Y-41647000D01*
X65643796Y-41671504D01*
X65640196Y-41695773D01*
X65634235Y-41719571D01*
X65625970Y-41742671D01*
X65615480Y-41764849D01*
X65602867Y-41785893D01*
X65588253Y-41805598D01*
X65571777Y-41823777D01*
X65553598Y-41840253D01*
X65533893Y-41854867D01*
X65512849Y-41867480D01*
X65490671Y-41877970D01*
X65467571Y-41886235D01*
X65443773Y-41892196D01*
X65419504Y-41895796D01*
X65395000Y-41897000D01*
X64145000Y-41897000D01*
X64120496Y-41895796D01*
X64096227Y-41892196D01*
X64072429Y-41886235D01*
X64049329Y-41877970D01*
X64027151Y-41867480D01*
X64006107Y-41854867D01*
X63986402Y-41840253D01*
X63968223Y-41823777D01*
X63951747Y-41805598D01*
X63937133Y-41785893D01*
X63924520Y-41764849D01*
X63914030Y-41742671D01*
X63905765Y-41719571D01*
X63899804Y-41695773D01*
X63896204Y-41671504D01*
X63895000Y-41647000D01*
X63895000Y-40722000D01*
X63896204Y-40697496D01*
X63899804Y-40673227D01*
X63905765Y-40649429D01*
X63914030Y-40626329D01*
X63924520Y-40604151D01*
X63937133Y-40583107D01*
X63951747Y-40563402D01*
X63968223Y-40545223D01*
X63986402Y-40528747D01*
X64006107Y-40514133D01*
X64027151Y-40501520D01*
X64049329Y-40491030D01*
X64072429Y-40482765D01*
X64096227Y-40476804D01*
X64120496Y-40473204D01*
X64145000Y-40472000D01*
X65395000Y-40472000D01*
X65419504Y-40473204D01*
X65419504Y-40473204D01*
G37*
D11*
X64770000Y-41184500D03*
D10*
G36*
X65419504Y-43448204D02*
G01*
X65443773Y-43451804D01*
X65467571Y-43457765D01*
X65490671Y-43466030D01*
X65512849Y-43476520D01*
X65533893Y-43489133D01*
X65553598Y-43503747D01*
X65571777Y-43520223D01*
X65588253Y-43538402D01*
X65602867Y-43558107D01*
X65615480Y-43579151D01*
X65625970Y-43601329D01*
X65634235Y-43624429D01*
X65640196Y-43648227D01*
X65643796Y-43672496D01*
X65645000Y-43697000D01*
X65645000Y-44622000D01*
X65643796Y-44646504D01*
X65640196Y-44670773D01*
X65634235Y-44694571D01*
X65625970Y-44717671D01*
X65615480Y-44739849D01*
X65602867Y-44760893D01*
X65588253Y-44780598D01*
X65571777Y-44798777D01*
X65553598Y-44815253D01*
X65533893Y-44829867D01*
X65512849Y-44842480D01*
X65490671Y-44852970D01*
X65467571Y-44861235D01*
X65443773Y-44867196D01*
X65419504Y-44870796D01*
X65395000Y-44872000D01*
X64145000Y-44872000D01*
X64120496Y-44870796D01*
X64096227Y-44867196D01*
X64072429Y-44861235D01*
X64049329Y-44852970D01*
X64027151Y-44842480D01*
X64006107Y-44829867D01*
X63986402Y-44815253D01*
X63968223Y-44798777D01*
X63951747Y-44780598D01*
X63937133Y-44760893D01*
X63924520Y-44739849D01*
X63914030Y-44717671D01*
X63905765Y-44694571D01*
X63899804Y-44670773D01*
X63896204Y-44646504D01*
X63895000Y-44622000D01*
X63895000Y-43697000D01*
X63896204Y-43672496D01*
X63899804Y-43648227D01*
X63905765Y-43624429D01*
X63914030Y-43601329D01*
X63924520Y-43579151D01*
X63937133Y-43558107D01*
X63951747Y-43538402D01*
X63968223Y-43520223D01*
X63986402Y-43503747D01*
X64006107Y-43489133D01*
X64027151Y-43476520D01*
X64049329Y-43466030D01*
X64072429Y-43457765D01*
X64096227Y-43451804D01*
X64120496Y-43448204D01*
X64145000Y-43447000D01*
X65395000Y-43447000D01*
X65419504Y-43448204D01*
X65419504Y-43448204D01*
G37*
D11*
X64770000Y-44159500D03*
D10*
G36*
X81887504Y-29572704D02*
G01*
X81911773Y-29576304D01*
X81935571Y-29582265D01*
X81958671Y-29590530D01*
X81980849Y-29601020D01*
X82001893Y-29613633D01*
X82021598Y-29628247D01*
X82039777Y-29644723D01*
X82056253Y-29662902D01*
X82070867Y-29682607D01*
X82083480Y-29703651D01*
X82093970Y-29725829D01*
X82102235Y-29748929D01*
X82108196Y-29772727D01*
X82111796Y-29796996D01*
X82113000Y-29821500D01*
X82113000Y-30746500D01*
X82111796Y-30771004D01*
X82108196Y-30795273D01*
X82102235Y-30819071D01*
X82093970Y-30842171D01*
X82083480Y-30864349D01*
X82070867Y-30885393D01*
X82056253Y-30905098D01*
X82039777Y-30923277D01*
X82021598Y-30939753D01*
X82001893Y-30954367D01*
X81980849Y-30966980D01*
X81958671Y-30977470D01*
X81935571Y-30985735D01*
X81911773Y-30991696D01*
X81887504Y-30995296D01*
X81863000Y-30996500D01*
X80613000Y-30996500D01*
X80588496Y-30995296D01*
X80564227Y-30991696D01*
X80540429Y-30985735D01*
X80517329Y-30977470D01*
X80495151Y-30966980D01*
X80474107Y-30954367D01*
X80454402Y-30939753D01*
X80436223Y-30923277D01*
X80419747Y-30905098D01*
X80405133Y-30885393D01*
X80392520Y-30864349D01*
X80382030Y-30842171D01*
X80373765Y-30819071D01*
X80367804Y-30795273D01*
X80364204Y-30771004D01*
X80363000Y-30746500D01*
X80363000Y-29821500D01*
X80364204Y-29796996D01*
X80367804Y-29772727D01*
X80373765Y-29748929D01*
X80382030Y-29725829D01*
X80392520Y-29703651D01*
X80405133Y-29682607D01*
X80419747Y-29662902D01*
X80436223Y-29644723D01*
X80454402Y-29628247D01*
X80474107Y-29613633D01*
X80495151Y-29601020D01*
X80517329Y-29590530D01*
X80540429Y-29582265D01*
X80564227Y-29576304D01*
X80588496Y-29572704D01*
X80613000Y-29571500D01*
X81863000Y-29571500D01*
X81887504Y-29572704D01*
X81887504Y-29572704D01*
G37*
D11*
X81238000Y-30284000D03*
D10*
G36*
X81887504Y-32547704D02*
G01*
X81911773Y-32551304D01*
X81935571Y-32557265D01*
X81958671Y-32565530D01*
X81980849Y-32576020D01*
X82001893Y-32588633D01*
X82021598Y-32603247D01*
X82039777Y-32619723D01*
X82056253Y-32637902D01*
X82070867Y-32657607D01*
X82083480Y-32678651D01*
X82093970Y-32700829D01*
X82102235Y-32723929D01*
X82108196Y-32747727D01*
X82111796Y-32771996D01*
X82113000Y-32796500D01*
X82113000Y-33721500D01*
X82111796Y-33746004D01*
X82108196Y-33770273D01*
X82102235Y-33794071D01*
X82093970Y-33817171D01*
X82083480Y-33839349D01*
X82070867Y-33860393D01*
X82056253Y-33880098D01*
X82039777Y-33898277D01*
X82021598Y-33914753D01*
X82001893Y-33929367D01*
X81980849Y-33941980D01*
X81958671Y-33952470D01*
X81935571Y-33960735D01*
X81911773Y-33966696D01*
X81887504Y-33970296D01*
X81863000Y-33971500D01*
X80613000Y-33971500D01*
X80588496Y-33970296D01*
X80564227Y-33966696D01*
X80540429Y-33960735D01*
X80517329Y-33952470D01*
X80495151Y-33941980D01*
X80474107Y-33929367D01*
X80454402Y-33914753D01*
X80436223Y-33898277D01*
X80419747Y-33880098D01*
X80405133Y-33860393D01*
X80392520Y-33839349D01*
X80382030Y-33817171D01*
X80373765Y-33794071D01*
X80367804Y-33770273D01*
X80364204Y-33746004D01*
X80363000Y-33721500D01*
X80363000Y-32796500D01*
X80364204Y-32771996D01*
X80367804Y-32747727D01*
X80373765Y-32723929D01*
X80382030Y-32700829D01*
X80392520Y-32678651D01*
X80405133Y-32657607D01*
X80419747Y-32637902D01*
X80436223Y-32619723D01*
X80454402Y-32603247D01*
X80474107Y-32588633D01*
X80495151Y-32576020D01*
X80517329Y-32565530D01*
X80540429Y-32557265D01*
X80564227Y-32551304D01*
X80588496Y-32547704D01*
X80613000Y-32546500D01*
X81863000Y-32546500D01*
X81887504Y-32547704D01*
X81887504Y-32547704D01*
G37*
D11*
X81238000Y-33259000D03*
D10*
G36*
X114225004Y-51410204D02*
G01*
X114249273Y-51413804D01*
X114273071Y-51419765D01*
X114296171Y-51428030D01*
X114318349Y-51438520D01*
X114339393Y-51451133D01*
X114359098Y-51465747D01*
X114377277Y-51482223D01*
X114393753Y-51500402D01*
X114408367Y-51520107D01*
X114420980Y-51541151D01*
X114431470Y-51563329D01*
X114439735Y-51586429D01*
X114445696Y-51610227D01*
X114449296Y-51634496D01*
X114450500Y-51659000D01*
X114450500Y-52909000D01*
X114449296Y-52933504D01*
X114445696Y-52957773D01*
X114439735Y-52981571D01*
X114431470Y-53004671D01*
X114420980Y-53026849D01*
X114408367Y-53047893D01*
X114393753Y-53067598D01*
X114377277Y-53085777D01*
X114359098Y-53102253D01*
X114339393Y-53116867D01*
X114318349Y-53129480D01*
X114296171Y-53139970D01*
X114273071Y-53148235D01*
X114249273Y-53154196D01*
X114225004Y-53157796D01*
X114200500Y-53159000D01*
X113275500Y-53159000D01*
X113250996Y-53157796D01*
X113226727Y-53154196D01*
X113202929Y-53148235D01*
X113179829Y-53139970D01*
X113157651Y-53129480D01*
X113136607Y-53116867D01*
X113116902Y-53102253D01*
X113098723Y-53085777D01*
X113082247Y-53067598D01*
X113067633Y-53047893D01*
X113055020Y-53026849D01*
X113044530Y-53004671D01*
X113036265Y-52981571D01*
X113030304Y-52957773D01*
X113026704Y-52933504D01*
X113025500Y-52909000D01*
X113025500Y-51659000D01*
X113026704Y-51634496D01*
X113030304Y-51610227D01*
X113036265Y-51586429D01*
X113044530Y-51563329D01*
X113055020Y-51541151D01*
X113067633Y-51520107D01*
X113082247Y-51500402D01*
X113098723Y-51482223D01*
X113116902Y-51465747D01*
X113136607Y-51451133D01*
X113157651Y-51438520D01*
X113179829Y-51428030D01*
X113202929Y-51419765D01*
X113226727Y-51413804D01*
X113250996Y-51410204D01*
X113275500Y-51409000D01*
X114200500Y-51409000D01*
X114225004Y-51410204D01*
X114225004Y-51410204D01*
G37*
D11*
X113738000Y-52284000D03*
D10*
G36*
X111250004Y-51410204D02*
G01*
X111274273Y-51413804D01*
X111298071Y-51419765D01*
X111321171Y-51428030D01*
X111343349Y-51438520D01*
X111364393Y-51451133D01*
X111384098Y-51465747D01*
X111402277Y-51482223D01*
X111418753Y-51500402D01*
X111433367Y-51520107D01*
X111445980Y-51541151D01*
X111456470Y-51563329D01*
X111464735Y-51586429D01*
X111470696Y-51610227D01*
X111474296Y-51634496D01*
X111475500Y-51659000D01*
X111475500Y-52909000D01*
X111474296Y-52933504D01*
X111470696Y-52957773D01*
X111464735Y-52981571D01*
X111456470Y-53004671D01*
X111445980Y-53026849D01*
X111433367Y-53047893D01*
X111418753Y-53067598D01*
X111402277Y-53085777D01*
X111384098Y-53102253D01*
X111364393Y-53116867D01*
X111343349Y-53129480D01*
X111321171Y-53139970D01*
X111298071Y-53148235D01*
X111274273Y-53154196D01*
X111250004Y-53157796D01*
X111225500Y-53159000D01*
X110300500Y-53159000D01*
X110275996Y-53157796D01*
X110251727Y-53154196D01*
X110227929Y-53148235D01*
X110204829Y-53139970D01*
X110182651Y-53129480D01*
X110161607Y-53116867D01*
X110141902Y-53102253D01*
X110123723Y-53085777D01*
X110107247Y-53067598D01*
X110092633Y-53047893D01*
X110080020Y-53026849D01*
X110069530Y-53004671D01*
X110061265Y-52981571D01*
X110055304Y-52957773D01*
X110051704Y-52933504D01*
X110050500Y-52909000D01*
X110050500Y-51659000D01*
X110051704Y-51634496D01*
X110055304Y-51610227D01*
X110061265Y-51586429D01*
X110069530Y-51563329D01*
X110080020Y-51541151D01*
X110092633Y-51520107D01*
X110107247Y-51500402D01*
X110123723Y-51482223D01*
X110141902Y-51465747D01*
X110161607Y-51451133D01*
X110182651Y-51438520D01*
X110204829Y-51428030D01*
X110227929Y-51419765D01*
X110251727Y-51413804D01*
X110275996Y-51410204D01*
X110300500Y-51409000D01*
X111225500Y-51409000D01*
X111250004Y-51410204D01*
X111250004Y-51410204D01*
G37*
D11*
X110763000Y-52284000D03*
D10*
G36*
X114200004Y-53660204D02*
G01*
X114224273Y-53663804D01*
X114248071Y-53669765D01*
X114271171Y-53678030D01*
X114293349Y-53688520D01*
X114314393Y-53701133D01*
X114334098Y-53715747D01*
X114352277Y-53732223D01*
X114368753Y-53750402D01*
X114383367Y-53770107D01*
X114395980Y-53791151D01*
X114406470Y-53813329D01*
X114414735Y-53836429D01*
X114420696Y-53860227D01*
X114424296Y-53884496D01*
X114425500Y-53909000D01*
X114425500Y-55159000D01*
X114424296Y-55183504D01*
X114420696Y-55207773D01*
X114414735Y-55231571D01*
X114406470Y-55254671D01*
X114395980Y-55276849D01*
X114383367Y-55297893D01*
X114368753Y-55317598D01*
X114352277Y-55335777D01*
X114334098Y-55352253D01*
X114314393Y-55366867D01*
X114293349Y-55379480D01*
X114271171Y-55389970D01*
X114248071Y-55398235D01*
X114224273Y-55404196D01*
X114200004Y-55407796D01*
X114175500Y-55409000D01*
X113250500Y-55409000D01*
X113225996Y-55407796D01*
X113201727Y-55404196D01*
X113177929Y-55398235D01*
X113154829Y-55389970D01*
X113132651Y-55379480D01*
X113111607Y-55366867D01*
X113091902Y-55352253D01*
X113073723Y-55335777D01*
X113057247Y-55317598D01*
X113042633Y-55297893D01*
X113030020Y-55276849D01*
X113019530Y-55254671D01*
X113011265Y-55231571D01*
X113005304Y-55207773D01*
X113001704Y-55183504D01*
X113000500Y-55159000D01*
X113000500Y-53909000D01*
X113001704Y-53884496D01*
X113005304Y-53860227D01*
X113011265Y-53836429D01*
X113019530Y-53813329D01*
X113030020Y-53791151D01*
X113042633Y-53770107D01*
X113057247Y-53750402D01*
X113073723Y-53732223D01*
X113091902Y-53715747D01*
X113111607Y-53701133D01*
X113132651Y-53688520D01*
X113154829Y-53678030D01*
X113177929Y-53669765D01*
X113201727Y-53663804D01*
X113225996Y-53660204D01*
X113250500Y-53659000D01*
X114175500Y-53659000D01*
X114200004Y-53660204D01*
X114200004Y-53660204D01*
G37*
D11*
X113713000Y-54534000D03*
D10*
G36*
X111225004Y-53660204D02*
G01*
X111249273Y-53663804D01*
X111273071Y-53669765D01*
X111296171Y-53678030D01*
X111318349Y-53688520D01*
X111339393Y-53701133D01*
X111359098Y-53715747D01*
X111377277Y-53732223D01*
X111393753Y-53750402D01*
X111408367Y-53770107D01*
X111420980Y-53791151D01*
X111431470Y-53813329D01*
X111439735Y-53836429D01*
X111445696Y-53860227D01*
X111449296Y-53884496D01*
X111450500Y-53909000D01*
X111450500Y-55159000D01*
X111449296Y-55183504D01*
X111445696Y-55207773D01*
X111439735Y-55231571D01*
X111431470Y-55254671D01*
X111420980Y-55276849D01*
X111408367Y-55297893D01*
X111393753Y-55317598D01*
X111377277Y-55335777D01*
X111359098Y-55352253D01*
X111339393Y-55366867D01*
X111318349Y-55379480D01*
X111296171Y-55389970D01*
X111273071Y-55398235D01*
X111249273Y-55404196D01*
X111225004Y-55407796D01*
X111200500Y-55409000D01*
X110275500Y-55409000D01*
X110250996Y-55407796D01*
X110226727Y-55404196D01*
X110202929Y-55398235D01*
X110179829Y-55389970D01*
X110157651Y-55379480D01*
X110136607Y-55366867D01*
X110116902Y-55352253D01*
X110098723Y-55335777D01*
X110082247Y-55317598D01*
X110067633Y-55297893D01*
X110055020Y-55276849D01*
X110044530Y-55254671D01*
X110036265Y-55231571D01*
X110030304Y-55207773D01*
X110026704Y-55183504D01*
X110025500Y-55159000D01*
X110025500Y-53909000D01*
X110026704Y-53884496D01*
X110030304Y-53860227D01*
X110036265Y-53836429D01*
X110044530Y-53813329D01*
X110055020Y-53791151D01*
X110067633Y-53770107D01*
X110082247Y-53750402D01*
X110098723Y-53732223D01*
X110116902Y-53715747D01*
X110136607Y-53701133D01*
X110157651Y-53688520D01*
X110179829Y-53678030D01*
X110202929Y-53669765D01*
X110226727Y-53663804D01*
X110250996Y-53660204D01*
X110275500Y-53659000D01*
X111200500Y-53659000D01*
X111225004Y-53660204D01*
X111225004Y-53660204D01*
G37*
D11*
X110738000Y-54534000D03*
D10*
G36*
X114200004Y-49164204D02*
G01*
X114224273Y-49167804D01*
X114248071Y-49173765D01*
X114271171Y-49182030D01*
X114293349Y-49192520D01*
X114314393Y-49205133D01*
X114334098Y-49219747D01*
X114352277Y-49236223D01*
X114368753Y-49254402D01*
X114383367Y-49274107D01*
X114395980Y-49295151D01*
X114406470Y-49317329D01*
X114414735Y-49340429D01*
X114420696Y-49364227D01*
X114424296Y-49388496D01*
X114425500Y-49413000D01*
X114425500Y-50663000D01*
X114424296Y-50687504D01*
X114420696Y-50711773D01*
X114414735Y-50735571D01*
X114406470Y-50758671D01*
X114395980Y-50780849D01*
X114383367Y-50801893D01*
X114368753Y-50821598D01*
X114352277Y-50839777D01*
X114334098Y-50856253D01*
X114314393Y-50870867D01*
X114293349Y-50883480D01*
X114271171Y-50893970D01*
X114248071Y-50902235D01*
X114224273Y-50908196D01*
X114200004Y-50911796D01*
X114175500Y-50913000D01*
X113250500Y-50913000D01*
X113225996Y-50911796D01*
X113201727Y-50908196D01*
X113177929Y-50902235D01*
X113154829Y-50893970D01*
X113132651Y-50883480D01*
X113111607Y-50870867D01*
X113091902Y-50856253D01*
X113073723Y-50839777D01*
X113057247Y-50821598D01*
X113042633Y-50801893D01*
X113030020Y-50780849D01*
X113019530Y-50758671D01*
X113011265Y-50735571D01*
X113005304Y-50711773D01*
X113001704Y-50687504D01*
X113000500Y-50663000D01*
X113000500Y-49413000D01*
X113001704Y-49388496D01*
X113005304Y-49364227D01*
X113011265Y-49340429D01*
X113019530Y-49317329D01*
X113030020Y-49295151D01*
X113042633Y-49274107D01*
X113057247Y-49254402D01*
X113073723Y-49236223D01*
X113091902Y-49219747D01*
X113111607Y-49205133D01*
X113132651Y-49192520D01*
X113154829Y-49182030D01*
X113177929Y-49173765D01*
X113201727Y-49167804D01*
X113225996Y-49164204D01*
X113250500Y-49163000D01*
X114175500Y-49163000D01*
X114200004Y-49164204D01*
X114200004Y-49164204D01*
G37*
D11*
X113713000Y-50038000D03*
D10*
G36*
X111225004Y-49164204D02*
G01*
X111249273Y-49167804D01*
X111273071Y-49173765D01*
X111296171Y-49182030D01*
X111318349Y-49192520D01*
X111339393Y-49205133D01*
X111359098Y-49219747D01*
X111377277Y-49236223D01*
X111393753Y-49254402D01*
X111408367Y-49274107D01*
X111420980Y-49295151D01*
X111431470Y-49317329D01*
X111439735Y-49340429D01*
X111445696Y-49364227D01*
X111449296Y-49388496D01*
X111450500Y-49413000D01*
X111450500Y-50663000D01*
X111449296Y-50687504D01*
X111445696Y-50711773D01*
X111439735Y-50735571D01*
X111431470Y-50758671D01*
X111420980Y-50780849D01*
X111408367Y-50801893D01*
X111393753Y-50821598D01*
X111377277Y-50839777D01*
X111359098Y-50856253D01*
X111339393Y-50870867D01*
X111318349Y-50883480D01*
X111296171Y-50893970D01*
X111273071Y-50902235D01*
X111249273Y-50908196D01*
X111225004Y-50911796D01*
X111200500Y-50913000D01*
X110275500Y-50913000D01*
X110250996Y-50911796D01*
X110226727Y-50908196D01*
X110202929Y-50902235D01*
X110179829Y-50893970D01*
X110157651Y-50883480D01*
X110136607Y-50870867D01*
X110116902Y-50856253D01*
X110098723Y-50839777D01*
X110082247Y-50821598D01*
X110067633Y-50801893D01*
X110055020Y-50780849D01*
X110044530Y-50758671D01*
X110036265Y-50735571D01*
X110030304Y-50711773D01*
X110026704Y-50687504D01*
X110025500Y-50663000D01*
X110025500Y-49413000D01*
X110026704Y-49388496D01*
X110030304Y-49364227D01*
X110036265Y-49340429D01*
X110044530Y-49317329D01*
X110055020Y-49295151D01*
X110067633Y-49274107D01*
X110082247Y-49254402D01*
X110098723Y-49236223D01*
X110116902Y-49219747D01*
X110136607Y-49205133D01*
X110157651Y-49192520D01*
X110179829Y-49182030D01*
X110202929Y-49173765D01*
X110226727Y-49167804D01*
X110250996Y-49164204D01*
X110275500Y-49163000D01*
X111200500Y-49163000D01*
X111225004Y-49164204D01*
X111225004Y-49164204D01*
G37*
D11*
X110738000Y-50038000D03*
D10*
G36*
X63137504Y-65297704D02*
G01*
X63161773Y-65301304D01*
X63185571Y-65307265D01*
X63208671Y-65315530D01*
X63230849Y-65326020D01*
X63251893Y-65338633D01*
X63271598Y-65353247D01*
X63289777Y-65369723D01*
X63306253Y-65387902D01*
X63320867Y-65407607D01*
X63333480Y-65428651D01*
X63343970Y-65450829D01*
X63352235Y-65473929D01*
X63358196Y-65497727D01*
X63361796Y-65521996D01*
X63363000Y-65546500D01*
X63363000Y-66471500D01*
X63361796Y-66496004D01*
X63358196Y-66520273D01*
X63352235Y-66544071D01*
X63343970Y-66567171D01*
X63333480Y-66589349D01*
X63320867Y-66610393D01*
X63306253Y-66630098D01*
X63289777Y-66648277D01*
X63271598Y-66664753D01*
X63251893Y-66679367D01*
X63230849Y-66691980D01*
X63208671Y-66702470D01*
X63185571Y-66710735D01*
X63161773Y-66716696D01*
X63137504Y-66720296D01*
X63113000Y-66721500D01*
X61863000Y-66721500D01*
X61838496Y-66720296D01*
X61814227Y-66716696D01*
X61790429Y-66710735D01*
X61767329Y-66702470D01*
X61745151Y-66691980D01*
X61724107Y-66679367D01*
X61704402Y-66664753D01*
X61686223Y-66648277D01*
X61669747Y-66630098D01*
X61655133Y-66610393D01*
X61642520Y-66589349D01*
X61632030Y-66567171D01*
X61623765Y-66544071D01*
X61617804Y-66520273D01*
X61614204Y-66496004D01*
X61613000Y-66471500D01*
X61613000Y-65546500D01*
X61614204Y-65521996D01*
X61617804Y-65497727D01*
X61623765Y-65473929D01*
X61632030Y-65450829D01*
X61642520Y-65428651D01*
X61655133Y-65407607D01*
X61669747Y-65387902D01*
X61686223Y-65369723D01*
X61704402Y-65353247D01*
X61724107Y-65338633D01*
X61745151Y-65326020D01*
X61767329Y-65315530D01*
X61790429Y-65307265D01*
X61814227Y-65301304D01*
X61838496Y-65297704D01*
X61863000Y-65296500D01*
X63113000Y-65296500D01*
X63137504Y-65297704D01*
X63137504Y-65297704D01*
G37*
D11*
X62488000Y-66009000D03*
D10*
G36*
X63137504Y-62322704D02*
G01*
X63161773Y-62326304D01*
X63185571Y-62332265D01*
X63208671Y-62340530D01*
X63230849Y-62351020D01*
X63251893Y-62363633D01*
X63271598Y-62378247D01*
X63289777Y-62394723D01*
X63306253Y-62412902D01*
X63320867Y-62432607D01*
X63333480Y-62453651D01*
X63343970Y-62475829D01*
X63352235Y-62498929D01*
X63358196Y-62522727D01*
X63361796Y-62546996D01*
X63363000Y-62571500D01*
X63363000Y-63496500D01*
X63361796Y-63521004D01*
X63358196Y-63545273D01*
X63352235Y-63569071D01*
X63343970Y-63592171D01*
X63333480Y-63614349D01*
X63320867Y-63635393D01*
X63306253Y-63655098D01*
X63289777Y-63673277D01*
X63271598Y-63689753D01*
X63251893Y-63704367D01*
X63230849Y-63716980D01*
X63208671Y-63727470D01*
X63185571Y-63735735D01*
X63161773Y-63741696D01*
X63137504Y-63745296D01*
X63113000Y-63746500D01*
X61863000Y-63746500D01*
X61838496Y-63745296D01*
X61814227Y-63741696D01*
X61790429Y-63735735D01*
X61767329Y-63727470D01*
X61745151Y-63716980D01*
X61724107Y-63704367D01*
X61704402Y-63689753D01*
X61686223Y-63673277D01*
X61669747Y-63655098D01*
X61655133Y-63635393D01*
X61642520Y-63614349D01*
X61632030Y-63592171D01*
X61623765Y-63569071D01*
X61617804Y-63545273D01*
X61614204Y-63521004D01*
X61613000Y-63496500D01*
X61613000Y-62571500D01*
X61614204Y-62546996D01*
X61617804Y-62522727D01*
X61623765Y-62498929D01*
X61632030Y-62475829D01*
X61642520Y-62453651D01*
X61655133Y-62432607D01*
X61669747Y-62412902D01*
X61686223Y-62394723D01*
X61704402Y-62378247D01*
X61724107Y-62363633D01*
X61745151Y-62351020D01*
X61767329Y-62340530D01*
X61790429Y-62332265D01*
X61814227Y-62326304D01*
X61838496Y-62322704D01*
X61863000Y-62321500D01*
X63113000Y-62321500D01*
X63137504Y-62322704D01*
X63137504Y-62322704D01*
G37*
D11*
X62488000Y-63034000D03*
D10*
G36*
X63137504Y-40322704D02*
G01*
X63161773Y-40326304D01*
X63185571Y-40332265D01*
X63208671Y-40340530D01*
X63230849Y-40351020D01*
X63251893Y-40363633D01*
X63271598Y-40378247D01*
X63289777Y-40394723D01*
X63306253Y-40412902D01*
X63320867Y-40432607D01*
X63333480Y-40453651D01*
X63343970Y-40475829D01*
X63352235Y-40498929D01*
X63358196Y-40522727D01*
X63361796Y-40546996D01*
X63363000Y-40571500D01*
X63363000Y-41496500D01*
X63361796Y-41521004D01*
X63358196Y-41545273D01*
X63352235Y-41569071D01*
X63343970Y-41592171D01*
X63333480Y-41614349D01*
X63320867Y-41635393D01*
X63306253Y-41655098D01*
X63289777Y-41673277D01*
X63271598Y-41689753D01*
X63251893Y-41704367D01*
X63230849Y-41716980D01*
X63208671Y-41727470D01*
X63185571Y-41735735D01*
X63161773Y-41741696D01*
X63137504Y-41745296D01*
X63113000Y-41746500D01*
X61863000Y-41746500D01*
X61838496Y-41745296D01*
X61814227Y-41741696D01*
X61790429Y-41735735D01*
X61767329Y-41727470D01*
X61745151Y-41716980D01*
X61724107Y-41704367D01*
X61704402Y-41689753D01*
X61686223Y-41673277D01*
X61669747Y-41655098D01*
X61655133Y-41635393D01*
X61642520Y-41614349D01*
X61632030Y-41592171D01*
X61623765Y-41569071D01*
X61617804Y-41545273D01*
X61614204Y-41521004D01*
X61613000Y-41496500D01*
X61613000Y-40571500D01*
X61614204Y-40546996D01*
X61617804Y-40522727D01*
X61623765Y-40498929D01*
X61632030Y-40475829D01*
X61642520Y-40453651D01*
X61655133Y-40432607D01*
X61669747Y-40412902D01*
X61686223Y-40394723D01*
X61704402Y-40378247D01*
X61724107Y-40363633D01*
X61745151Y-40351020D01*
X61767329Y-40340530D01*
X61790429Y-40332265D01*
X61814227Y-40326304D01*
X61838496Y-40322704D01*
X61863000Y-40321500D01*
X63113000Y-40321500D01*
X63137504Y-40322704D01*
X63137504Y-40322704D01*
G37*
D11*
X62488000Y-41034000D03*
D10*
G36*
X63137504Y-43297704D02*
G01*
X63161773Y-43301304D01*
X63185571Y-43307265D01*
X63208671Y-43315530D01*
X63230849Y-43326020D01*
X63251893Y-43338633D01*
X63271598Y-43353247D01*
X63289777Y-43369723D01*
X63306253Y-43387902D01*
X63320867Y-43407607D01*
X63333480Y-43428651D01*
X63343970Y-43450829D01*
X63352235Y-43473929D01*
X63358196Y-43497727D01*
X63361796Y-43521996D01*
X63363000Y-43546500D01*
X63363000Y-44471500D01*
X63361796Y-44496004D01*
X63358196Y-44520273D01*
X63352235Y-44544071D01*
X63343970Y-44567171D01*
X63333480Y-44589349D01*
X63320867Y-44610393D01*
X63306253Y-44630098D01*
X63289777Y-44648277D01*
X63271598Y-44664753D01*
X63251893Y-44679367D01*
X63230849Y-44691980D01*
X63208671Y-44702470D01*
X63185571Y-44710735D01*
X63161773Y-44716696D01*
X63137504Y-44720296D01*
X63113000Y-44721500D01*
X61863000Y-44721500D01*
X61838496Y-44720296D01*
X61814227Y-44716696D01*
X61790429Y-44710735D01*
X61767329Y-44702470D01*
X61745151Y-44691980D01*
X61724107Y-44679367D01*
X61704402Y-44664753D01*
X61686223Y-44648277D01*
X61669747Y-44630098D01*
X61655133Y-44610393D01*
X61642520Y-44589349D01*
X61632030Y-44567171D01*
X61623765Y-44544071D01*
X61617804Y-44520273D01*
X61614204Y-44496004D01*
X61613000Y-44471500D01*
X61613000Y-43546500D01*
X61614204Y-43521996D01*
X61617804Y-43497727D01*
X61623765Y-43473929D01*
X61632030Y-43450829D01*
X61642520Y-43428651D01*
X61655133Y-43407607D01*
X61669747Y-43387902D01*
X61686223Y-43369723D01*
X61704402Y-43353247D01*
X61724107Y-43338633D01*
X61745151Y-43326020D01*
X61767329Y-43315530D01*
X61790429Y-43307265D01*
X61814227Y-43301304D01*
X61838496Y-43297704D01*
X61863000Y-43296500D01*
X63113000Y-43296500D01*
X63137504Y-43297704D01*
X63137504Y-43297704D01*
G37*
D11*
X62488000Y-44009000D03*
M02*
