M48
; DRILL file {KiCad (5.1.2)-1} date 25.06.2020 14:26:43
; FORMAT={-:-/ absolute / metric / decimal}
; #@! TF.CreationDate,2020-06-25T14:26:43+02:00
; #@! TF.GenerationSoftware,Kicad,Pcbnew,(5.1.2)-1
FMAT,2
METRIC
T1C0.400
T2C0.600
T3C1.000
T4C1.500
T5C3.000
T6C1.800
T7C3.200
%
G90
G05
T1
X56.896Y-31.369
X58.928Y-73.406
X62.134Y-83.566
X62.484Y-78.994
X66.167Y-82.55
X66.294Y-76.962
X66.967Y-57.531
X67.31Y-44.196
X67.691Y-54.864
X69.596Y-54.864
X70.104Y-77.978
X70.612Y-33.274
X71.12Y-58.674
X71.12Y-174.175
X72.009Y-61.341
X72.081Y-161.345
X72.517Y-29.337
X72.898Y-64.008
X72.95Y-148.515
X73.66Y-29.337
X73.787Y-66.675
X73.836Y-135.685
X74.168Y-44.196
X74.549Y-27.178
X74.676Y-69.342
X74.722Y-122.855
X75.438Y-25.908
X75.565Y-72.009
X75.585Y-110.025
X76.327Y-35.306
X76.454Y-74.676
X76.541Y-97.195
X77.47Y-79.375
X77.978Y-78.486
X78.613Y-36.449
X83.4Y-80.391
X83.65Y-82.55
X83.693Y-74.676
X83.82Y-58.674
X83.82Y-61.341
X83.82Y-64.008
X83.82Y-66.675
X83.82Y-69.342
X83.82Y-72.009
X86.106Y-83.566
X87.249Y-48.768
X87.376Y-36.576
X88.456Y-48.704
X88.646Y-26.67
X88.646Y-36.576
X89.599Y-48.578
X89.916Y-26.67
X89.916Y-36.576
X90.043Y-58.674
X90.043Y-61.341
X90.043Y-64.008
X90.043Y-66.675
X90.043Y-69.342
X90.043Y-72.009
X90.17Y-56.007
X90.731Y-48.461
X91.186Y-26.67
X91.186Y-36.576
X91.186Y-75.438
X92.329Y-32.385
X92.456Y-26.67
X92.456Y-80.518
X92.456Y-83.566
X94.996Y-57.277
X94.996Y-62.611
X94.996Y-65.278
X95.0Y-80.4
X95.123Y-59.944
X95.123Y-67.945
X95.123Y-70.612
X95.123Y-73.279
X95.25Y-39.497
X95.25Y-47.596
X98.266Y-83.566
X98.298Y-59.69
X100.076Y-82.55
X100.203Y-43.434
X103.632Y-58.42
X107.442Y-57.404
X115.824Y-80.391
X116.534Y-83.566
X118.364Y-82.55
X119.38Y-57.912
X119.38Y-65.278
X122.428Y-55.206
X124.46Y-50.546
X126.238Y-51.562
X127.3Y-81.5
X127.508Y-51.562
X128.413Y-83.566
X130.048Y-77.724
X132.461Y-50.673
X132.588Y-76.708
X133.477Y-50.419
X133.858Y-59.944
X133.858Y-61.214
X133.858Y-62.484
X133.858Y-75.692
X134.493Y-50.292
X135.128Y-59.944
X135.128Y-62.484
X135.509Y-50.165
X136.09Y-82.604
X136.398Y-59.944
X136.398Y-61.214
X136.398Y-62.484
X136.398Y-74.676
X136.525Y-50.038
X137.668Y-74.803
X138.938Y-74.803
X140.208Y-73.66
X141.478Y-72.771
X144.399Y-82.55
X148.971Y-82.804
T2
X56.896Y-53.34
X57.7Y-92.9
X58.558Y-33.744
X59.182Y-80.01
X67.818Y-80.01
X68.58Y-73.66
X69.532Y-46.545
X73.406Y-50.673
X73.66Y-56.642
X78.105Y-45.72
X78.74Y-56.642
X79.248Y-76.454
X79.375Y-45.72
X80.645Y-45.72
X81.915Y-45.72
X91.186Y-45.339
X91.186Y-46.609
X91.694Y-92.456
X92.583Y-45.339
X92.583Y-46.609
X100.584Y-46.99
X103.558Y-33.744
X110.744Y-47.498
X110.744Y-92.71
X117.094Y-58.039
X118.558Y-33.744
X123.19Y-63.627
X128.524Y-40.64
X128.558Y-28.744
X128.778Y-92.456
X138.049Y-42.672
X141.478Y-51.435
X143.002Y-88.9
X143.256Y-92.202
X143.558Y-28.744
X146.812Y-88.9
X146.812Y-92.202
T3
X135.128Y-61.214
X79.129Y-97.195
X79.129Y-101.695
X87.129Y-97.195
X87.129Y-101.695
X97.249Y-122.855
X97.249Y-127.355
X105.249Y-122.855
X105.249Y-127.355
X53.848Y-40.331
X53.848Y-44.831
X60.348Y-40.331
X60.348Y-44.831
X61.009Y-148.515
X61.009Y-153.015
X69.009Y-148.515
X69.009Y-153.015
X105.488Y-24.134
X105.488Y-47.434
X108.028Y-47.384
X117.248Y-47.434
X119.788Y-24.134
X119.788Y-47.434
X61.009Y-110.025
X61.009Y-114.525
X69.009Y-110.025
X69.009Y-114.525
X133.489Y-97.195
X133.489Y-101.695
X141.489Y-97.195
X141.489Y-101.695
X147.988Y-38.284
X147.988Y-40.284
X147.988Y-42.284
X133.489Y-148.515
X133.489Y-153.015
X141.489Y-148.515
X141.489Y-153.015
X115.369Y-148.515
X115.369Y-153.015
X123.369Y-148.515
X123.369Y-153.015
X79.129Y-148.515
X79.129Y-153.015
X87.129Y-148.515
X87.129Y-153.015
X97.249Y-174.175
X97.249Y-178.675
X105.249Y-174.175
X105.249Y-178.675
X62.488Y-24.284
X65.028Y-24.284
X67.568Y-24.284
X70.108Y-24.284
X72.648Y-24.284
X75.188Y-24.284
X77.728Y-24.284
X80.268Y-24.284
X82.808Y-24.284
X85.348Y-24.284
X87.888Y-24.284
X90.428Y-24.284
X92.968Y-24.284
X95.508Y-24.284
X98.048Y-24.284
X100.588Y-24.284
X115.369Y-110.025
X115.369Y-114.525
X123.369Y-110.025
X123.369Y-114.525
X79.129Y-110.025
X79.129Y-114.525
X87.129Y-110.025
X87.129Y-114.525
X97.249Y-135.685
X97.249Y-140.185
X105.249Y-135.685
X105.249Y-140.185
X53.721Y-62.556
X53.721Y-67.056
X60.221Y-62.556
X60.221Y-67.056
X61.009Y-161.345
X61.009Y-165.845
X69.009Y-161.345
X69.009Y-165.845
X97.249Y-97.195
X97.249Y-101.695
X105.249Y-97.195
X105.249Y-101.695
X61.009Y-122.855
X61.009Y-127.355
X69.009Y-122.855
X69.009Y-127.355
X133.489Y-110.025
X133.489Y-114.525
X141.489Y-110.025
X141.489Y-114.525
X133.489Y-161.345
X133.489Y-165.845
X141.489Y-161.345
X141.489Y-165.845
X115.369Y-161.345
X115.369Y-165.845
X123.369Y-161.345
X123.369Y-165.845
X79.129Y-161.345
X79.129Y-165.845
X87.129Y-161.345
X87.129Y-165.845
X115.369Y-97.195
X115.369Y-101.695
X123.369Y-97.195
X123.369Y-101.695
X133.489Y-122.855
X133.489Y-127.355
X141.489Y-122.855
X141.489Y-127.355
X115.369Y-122.855
X115.369Y-127.355
X123.369Y-122.855
X123.369Y-127.355
X79.129Y-122.855
X79.129Y-127.355
X87.129Y-122.855
X87.129Y-127.355
X97.249Y-148.515
X97.249Y-153.015
X105.249Y-148.515
X105.249Y-153.015
X62.488Y-47.284
X62.488Y-49.824
X62.488Y-52.364
X62.488Y-54.904
X62.488Y-57.444
X62.488Y-59.984
X61.009Y-174.175
X61.009Y-178.675
X69.009Y-174.175
X69.009Y-178.675
X97.249Y-110.025
X97.249Y-114.525
X105.249Y-110.025
X105.249Y-114.525
X61.009Y-135.685
X61.009Y-140.185
X69.009Y-135.685
X69.009Y-140.185
X61.009Y-97.195
X61.009Y-101.695
X69.009Y-97.195
X69.009Y-101.695
X133.489Y-174.175
X133.489Y-178.675
X141.489Y-174.175
X141.489Y-178.675
X115.369Y-174.175
X115.369Y-178.675
X123.369Y-174.175
X123.369Y-178.675
X79.129Y-174.175
X79.129Y-178.675
X87.129Y-174.175
X87.129Y-178.675
X133.489Y-135.685
X133.489Y-140.185
X141.489Y-135.685
X141.489Y-140.185
X115.369Y-135.685
X115.369Y-140.185
X123.369Y-135.685
X123.369Y-140.185
X79.129Y-135.685
X79.129Y-140.185
X87.129Y-135.685
X87.129Y-140.185
X97.249Y-161.345
X97.249Y-165.845
X105.249Y-161.345
X105.249Y-165.845
T4
X147.988Y-36.184
X147.988Y-44.384
T5
X64.988Y-35.941
X137.988Y-35.941
T7
X54.988Y-79.284
X147.988Y-79.284
T6
G00X143.845Y-99.187
M15
G01X144.445Y-99.187
M16
G05
G00X101.473Y-88.057
M15
G01X101.473Y-87.457
M16
G05
G00X143.845Y-150.495
M15
G01X144.445Y-150.495
M16
G05
G00X143.845Y-111.887
M15
G01X144.445Y-111.887
M16
G05
G00X119.761Y-88.057
M15
G01X119.761Y-87.457
M16
G05
G00X65.405Y-88.057
M15
G01X65.405Y-87.457
M16
G05
G00X143.845Y-163.169
M15
G01X144.445Y-163.169
M16
G05
G00X143.845Y-124.841
M15
G01X144.445Y-124.841
M16
G05
G00X137.541Y-88.057
M15
G01X137.541Y-87.457
M16
G05
G00X83.185Y-88.057
M15
G01X83.185Y-87.457
M16
G05
G00X143.845Y-176.149
M15
G01X144.445Y-176.149
M16
G05
G00X143.845Y-137.541
M15
G01X144.445Y-137.541
M16
G05
T7
G00X54.988Y-24.384
M15
G01X54.988Y-26.184
M16
G05
G00X147.988Y-24.384
M15
G01X147.988Y-26.184
M16
G05
T0
M30
