G04 #@! TF.GenerationSoftware,KiCad,Pcbnew,(5.1.2)-1*
G04 #@! TF.CreationDate,2020-06-25T14:26:39+02:00*
G04 #@! TF.ProjectId,projet,70726f6a-6574-42e6-9b69-6361645f7063,rev?*
G04 #@! TF.SameCoordinates,Original*
G04 #@! TF.FileFunction,Paste,Bot*
G04 #@! TF.FilePolarity,Positive*
%FSLAX46Y46*%
G04 Gerber Fmt 4.6, Leading zero omitted, Abs format (unit mm)*
G04 Created by KiCad (PCBNEW (5.1.2)-1) date 2020-06-25 14:26:39*
%MOMM*%
%LPD*%
G04 APERTURE LIST*
%ADD10C,0.100000*%
%ADD11C,1.425000*%
%ADD12R,0.800000X1.900000*%
%ADD13C,0.950000*%
G04 APERTURE END LIST*
D10*
G36*
X104974504Y-91326204D02*
G01*
X104998773Y-91329804D01*
X105022571Y-91335765D01*
X105045671Y-91344030D01*
X105067849Y-91354520D01*
X105088893Y-91367133D01*
X105108598Y-91381747D01*
X105126777Y-91398223D01*
X105143253Y-91416402D01*
X105157867Y-91436107D01*
X105170480Y-91457151D01*
X105180970Y-91479329D01*
X105189235Y-91502429D01*
X105195196Y-91526227D01*
X105198796Y-91550496D01*
X105200000Y-91575000D01*
X105200000Y-92825000D01*
X105198796Y-92849504D01*
X105195196Y-92873773D01*
X105189235Y-92897571D01*
X105180970Y-92920671D01*
X105170480Y-92942849D01*
X105157867Y-92963893D01*
X105143253Y-92983598D01*
X105126777Y-93001777D01*
X105108598Y-93018253D01*
X105088893Y-93032867D01*
X105067849Y-93045480D01*
X105045671Y-93055970D01*
X105022571Y-93064235D01*
X104998773Y-93070196D01*
X104974504Y-93073796D01*
X104950000Y-93075000D01*
X104025000Y-93075000D01*
X104000496Y-93073796D01*
X103976227Y-93070196D01*
X103952429Y-93064235D01*
X103929329Y-93055970D01*
X103907151Y-93045480D01*
X103886107Y-93032867D01*
X103866402Y-93018253D01*
X103848223Y-93001777D01*
X103831747Y-92983598D01*
X103817133Y-92963893D01*
X103804520Y-92942849D01*
X103794030Y-92920671D01*
X103785765Y-92897571D01*
X103779804Y-92873773D01*
X103776204Y-92849504D01*
X103775000Y-92825000D01*
X103775000Y-91575000D01*
X103776204Y-91550496D01*
X103779804Y-91526227D01*
X103785765Y-91502429D01*
X103794030Y-91479329D01*
X103804520Y-91457151D01*
X103817133Y-91436107D01*
X103831747Y-91416402D01*
X103848223Y-91398223D01*
X103866402Y-91381747D01*
X103886107Y-91367133D01*
X103907151Y-91354520D01*
X103929329Y-91344030D01*
X103952429Y-91335765D01*
X103976227Y-91329804D01*
X104000496Y-91326204D01*
X104025000Y-91325000D01*
X104950000Y-91325000D01*
X104974504Y-91326204D01*
X104974504Y-91326204D01*
G37*
D11*
X104487500Y-92200000D03*
D10*
G36*
X101999504Y-91326204D02*
G01*
X102023773Y-91329804D01*
X102047571Y-91335765D01*
X102070671Y-91344030D01*
X102092849Y-91354520D01*
X102113893Y-91367133D01*
X102133598Y-91381747D01*
X102151777Y-91398223D01*
X102168253Y-91416402D01*
X102182867Y-91436107D01*
X102195480Y-91457151D01*
X102205970Y-91479329D01*
X102214235Y-91502429D01*
X102220196Y-91526227D01*
X102223796Y-91550496D01*
X102225000Y-91575000D01*
X102225000Y-92825000D01*
X102223796Y-92849504D01*
X102220196Y-92873773D01*
X102214235Y-92897571D01*
X102205970Y-92920671D01*
X102195480Y-92942849D01*
X102182867Y-92963893D01*
X102168253Y-92983598D01*
X102151777Y-93001777D01*
X102133598Y-93018253D01*
X102113893Y-93032867D01*
X102092849Y-93045480D01*
X102070671Y-93055970D01*
X102047571Y-93064235D01*
X102023773Y-93070196D01*
X101999504Y-93073796D01*
X101975000Y-93075000D01*
X101050000Y-93075000D01*
X101025496Y-93073796D01*
X101001227Y-93070196D01*
X100977429Y-93064235D01*
X100954329Y-93055970D01*
X100932151Y-93045480D01*
X100911107Y-93032867D01*
X100891402Y-93018253D01*
X100873223Y-93001777D01*
X100856747Y-92983598D01*
X100842133Y-92963893D01*
X100829520Y-92942849D01*
X100819030Y-92920671D01*
X100810765Y-92897571D01*
X100804804Y-92873773D01*
X100801204Y-92849504D01*
X100800000Y-92825000D01*
X100800000Y-91575000D01*
X100801204Y-91550496D01*
X100804804Y-91526227D01*
X100810765Y-91502429D01*
X100819030Y-91479329D01*
X100829520Y-91457151D01*
X100842133Y-91436107D01*
X100856747Y-91416402D01*
X100873223Y-91398223D01*
X100891402Y-91381747D01*
X100911107Y-91367133D01*
X100932151Y-91354520D01*
X100954329Y-91344030D01*
X100977429Y-91335765D01*
X101001227Y-91329804D01*
X101025496Y-91326204D01*
X101050000Y-91325000D01*
X101975000Y-91325000D01*
X101999504Y-91326204D01*
X101999504Y-91326204D01*
G37*
D11*
X101512500Y-92200000D03*
D10*
G36*
X94987004Y-85226204D02*
G01*
X95011273Y-85229804D01*
X95035071Y-85235765D01*
X95058171Y-85244030D01*
X95080349Y-85254520D01*
X95101393Y-85267133D01*
X95121098Y-85281747D01*
X95139277Y-85298223D01*
X95155753Y-85316402D01*
X95170367Y-85336107D01*
X95182980Y-85357151D01*
X95193470Y-85379329D01*
X95201735Y-85402429D01*
X95207696Y-85426227D01*
X95211296Y-85450496D01*
X95212500Y-85475000D01*
X95212500Y-86725000D01*
X95211296Y-86749504D01*
X95207696Y-86773773D01*
X95201735Y-86797571D01*
X95193470Y-86820671D01*
X95182980Y-86842849D01*
X95170367Y-86863893D01*
X95155753Y-86883598D01*
X95139277Y-86901777D01*
X95121098Y-86918253D01*
X95101393Y-86932867D01*
X95080349Y-86945480D01*
X95058171Y-86955970D01*
X95035071Y-86964235D01*
X95011273Y-86970196D01*
X94987004Y-86973796D01*
X94962500Y-86975000D01*
X94037500Y-86975000D01*
X94012996Y-86973796D01*
X93988727Y-86970196D01*
X93964929Y-86964235D01*
X93941829Y-86955970D01*
X93919651Y-86945480D01*
X93898607Y-86932867D01*
X93878902Y-86918253D01*
X93860723Y-86901777D01*
X93844247Y-86883598D01*
X93829633Y-86863893D01*
X93817020Y-86842849D01*
X93806530Y-86820671D01*
X93798265Y-86797571D01*
X93792304Y-86773773D01*
X93788704Y-86749504D01*
X93787500Y-86725000D01*
X93787500Y-85475000D01*
X93788704Y-85450496D01*
X93792304Y-85426227D01*
X93798265Y-85402429D01*
X93806530Y-85379329D01*
X93817020Y-85357151D01*
X93829633Y-85336107D01*
X93844247Y-85316402D01*
X93860723Y-85298223D01*
X93878902Y-85281747D01*
X93898607Y-85267133D01*
X93919651Y-85254520D01*
X93941829Y-85244030D01*
X93964929Y-85235765D01*
X93988727Y-85229804D01*
X94012996Y-85226204D01*
X94037500Y-85225000D01*
X94962500Y-85225000D01*
X94987004Y-85226204D01*
X94987004Y-85226204D01*
G37*
D11*
X94500000Y-86100000D03*
D10*
G36*
X92012004Y-85226204D02*
G01*
X92036273Y-85229804D01*
X92060071Y-85235765D01*
X92083171Y-85244030D01*
X92105349Y-85254520D01*
X92126393Y-85267133D01*
X92146098Y-85281747D01*
X92164277Y-85298223D01*
X92180753Y-85316402D01*
X92195367Y-85336107D01*
X92207980Y-85357151D01*
X92218470Y-85379329D01*
X92226735Y-85402429D01*
X92232696Y-85426227D01*
X92236296Y-85450496D01*
X92237500Y-85475000D01*
X92237500Y-86725000D01*
X92236296Y-86749504D01*
X92232696Y-86773773D01*
X92226735Y-86797571D01*
X92218470Y-86820671D01*
X92207980Y-86842849D01*
X92195367Y-86863893D01*
X92180753Y-86883598D01*
X92164277Y-86901777D01*
X92146098Y-86918253D01*
X92126393Y-86932867D01*
X92105349Y-86945480D01*
X92083171Y-86955970D01*
X92060071Y-86964235D01*
X92036273Y-86970196D01*
X92012004Y-86973796D01*
X91987500Y-86975000D01*
X91062500Y-86975000D01*
X91037996Y-86973796D01*
X91013727Y-86970196D01*
X90989929Y-86964235D01*
X90966829Y-86955970D01*
X90944651Y-86945480D01*
X90923607Y-86932867D01*
X90903902Y-86918253D01*
X90885723Y-86901777D01*
X90869247Y-86883598D01*
X90854633Y-86863893D01*
X90842020Y-86842849D01*
X90831530Y-86820671D01*
X90823265Y-86797571D01*
X90817304Y-86773773D01*
X90813704Y-86749504D01*
X90812500Y-86725000D01*
X90812500Y-85475000D01*
X90813704Y-85450496D01*
X90817304Y-85426227D01*
X90823265Y-85402429D01*
X90831530Y-85379329D01*
X90842020Y-85357151D01*
X90854633Y-85336107D01*
X90869247Y-85316402D01*
X90885723Y-85298223D01*
X90903902Y-85281747D01*
X90923607Y-85267133D01*
X90944651Y-85254520D01*
X90966829Y-85244030D01*
X90989929Y-85235765D01*
X91013727Y-85229804D01*
X91037996Y-85226204D01*
X91062500Y-85225000D01*
X91987500Y-85225000D01*
X92012004Y-85226204D01*
X92012004Y-85226204D01*
G37*
D11*
X91525000Y-86100000D03*
D10*
G36*
X141174504Y-91326204D02*
G01*
X141198773Y-91329804D01*
X141222571Y-91335765D01*
X141245671Y-91344030D01*
X141267849Y-91354520D01*
X141288893Y-91367133D01*
X141308598Y-91381747D01*
X141326777Y-91398223D01*
X141343253Y-91416402D01*
X141357867Y-91436107D01*
X141370480Y-91457151D01*
X141380970Y-91479329D01*
X141389235Y-91502429D01*
X141395196Y-91526227D01*
X141398796Y-91550496D01*
X141400000Y-91575000D01*
X141400000Y-92825000D01*
X141398796Y-92849504D01*
X141395196Y-92873773D01*
X141389235Y-92897571D01*
X141380970Y-92920671D01*
X141370480Y-92942849D01*
X141357867Y-92963893D01*
X141343253Y-92983598D01*
X141326777Y-93001777D01*
X141308598Y-93018253D01*
X141288893Y-93032867D01*
X141267849Y-93045480D01*
X141245671Y-93055970D01*
X141222571Y-93064235D01*
X141198773Y-93070196D01*
X141174504Y-93073796D01*
X141150000Y-93075000D01*
X140225000Y-93075000D01*
X140200496Y-93073796D01*
X140176227Y-93070196D01*
X140152429Y-93064235D01*
X140129329Y-93055970D01*
X140107151Y-93045480D01*
X140086107Y-93032867D01*
X140066402Y-93018253D01*
X140048223Y-93001777D01*
X140031747Y-92983598D01*
X140017133Y-92963893D01*
X140004520Y-92942849D01*
X139994030Y-92920671D01*
X139985765Y-92897571D01*
X139979804Y-92873773D01*
X139976204Y-92849504D01*
X139975000Y-92825000D01*
X139975000Y-91575000D01*
X139976204Y-91550496D01*
X139979804Y-91526227D01*
X139985765Y-91502429D01*
X139994030Y-91479329D01*
X140004520Y-91457151D01*
X140017133Y-91436107D01*
X140031747Y-91416402D01*
X140048223Y-91398223D01*
X140066402Y-91381747D01*
X140086107Y-91367133D01*
X140107151Y-91354520D01*
X140129329Y-91344030D01*
X140152429Y-91335765D01*
X140176227Y-91329804D01*
X140200496Y-91326204D01*
X140225000Y-91325000D01*
X141150000Y-91325000D01*
X141174504Y-91326204D01*
X141174504Y-91326204D01*
G37*
D11*
X140687500Y-92200000D03*
D10*
G36*
X138199504Y-91326204D02*
G01*
X138223773Y-91329804D01*
X138247571Y-91335765D01*
X138270671Y-91344030D01*
X138292849Y-91354520D01*
X138313893Y-91367133D01*
X138333598Y-91381747D01*
X138351777Y-91398223D01*
X138368253Y-91416402D01*
X138382867Y-91436107D01*
X138395480Y-91457151D01*
X138405970Y-91479329D01*
X138414235Y-91502429D01*
X138420196Y-91526227D01*
X138423796Y-91550496D01*
X138425000Y-91575000D01*
X138425000Y-92825000D01*
X138423796Y-92849504D01*
X138420196Y-92873773D01*
X138414235Y-92897571D01*
X138405970Y-92920671D01*
X138395480Y-92942849D01*
X138382867Y-92963893D01*
X138368253Y-92983598D01*
X138351777Y-93001777D01*
X138333598Y-93018253D01*
X138313893Y-93032867D01*
X138292849Y-93045480D01*
X138270671Y-93055970D01*
X138247571Y-93064235D01*
X138223773Y-93070196D01*
X138199504Y-93073796D01*
X138175000Y-93075000D01*
X137250000Y-93075000D01*
X137225496Y-93073796D01*
X137201227Y-93070196D01*
X137177429Y-93064235D01*
X137154329Y-93055970D01*
X137132151Y-93045480D01*
X137111107Y-93032867D01*
X137091402Y-93018253D01*
X137073223Y-93001777D01*
X137056747Y-92983598D01*
X137042133Y-92963893D01*
X137029520Y-92942849D01*
X137019030Y-92920671D01*
X137010765Y-92897571D01*
X137004804Y-92873773D01*
X137001204Y-92849504D01*
X137000000Y-92825000D01*
X137000000Y-91575000D01*
X137001204Y-91550496D01*
X137004804Y-91526227D01*
X137010765Y-91502429D01*
X137019030Y-91479329D01*
X137029520Y-91457151D01*
X137042133Y-91436107D01*
X137056747Y-91416402D01*
X137073223Y-91398223D01*
X137091402Y-91381747D01*
X137111107Y-91367133D01*
X137132151Y-91354520D01*
X137154329Y-91344030D01*
X137177429Y-91335765D01*
X137201227Y-91329804D01*
X137225496Y-91326204D01*
X137250000Y-91325000D01*
X138175000Y-91325000D01*
X138199504Y-91326204D01*
X138199504Y-91326204D01*
G37*
D11*
X137712500Y-92200000D03*
D10*
G36*
X131074504Y-85226204D02*
G01*
X131098773Y-85229804D01*
X131122571Y-85235765D01*
X131145671Y-85244030D01*
X131167849Y-85254520D01*
X131188893Y-85267133D01*
X131208598Y-85281747D01*
X131226777Y-85298223D01*
X131243253Y-85316402D01*
X131257867Y-85336107D01*
X131270480Y-85357151D01*
X131280970Y-85379329D01*
X131289235Y-85402429D01*
X131295196Y-85426227D01*
X131298796Y-85450496D01*
X131300000Y-85475000D01*
X131300000Y-86725000D01*
X131298796Y-86749504D01*
X131295196Y-86773773D01*
X131289235Y-86797571D01*
X131280970Y-86820671D01*
X131270480Y-86842849D01*
X131257867Y-86863893D01*
X131243253Y-86883598D01*
X131226777Y-86901777D01*
X131208598Y-86918253D01*
X131188893Y-86932867D01*
X131167849Y-86945480D01*
X131145671Y-86955970D01*
X131122571Y-86964235D01*
X131098773Y-86970196D01*
X131074504Y-86973796D01*
X131050000Y-86975000D01*
X130125000Y-86975000D01*
X130100496Y-86973796D01*
X130076227Y-86970196D01*
X130052429Y-86964235D01*
X130029329Y-86955970D01*
X130007151Y-86945480D01*
X129986107Y-86932867D01*
X129966402Y-86918253D01*
X129948223Y-86901777D01*
X129931747Y-86883598D01*
X129917133Y-86863893D01*
X129904520Y-86842849D01*
X129894030Y-86820671D01*
X129885765Y-86797571D01*
X129879804Y-86773773D01*
X129876204Y-86749504D01*
X129875000Y-86725000D01*
X129875000Y-85475000D01*
X129876204Y-85450496D01*
X129879804Y-85426227D01*
X129885765Y-85402429D01*
X129894030Y-85379329D01*
X129904520Y-85357151D01*
X129917133Y-85336107D01*
X129931747Y-85316402D01*
X129948223Y-85298223D01*
X129966402Y-85281747D01*
X129986107Y-85267133D01*
X130007151Y-85254520D01*
X130029329Y-85244030D01*
X130052429Y-85235765D01*
X130076227Y-85229804D01*
X130100496Y-85226204D01*
X130125000Y-85225000D01*
X131050000Y-85225000D01*
X131074504Y-85226204D01*
X131074504Y-85226204D01*
G37*
D11*
X130587500Y-86100000D03*
D10*
G36*
X128099504Y-85226204D02*
G01*
X128123773Y-85229804D01*
X128147571Y-85235765D01*
X128170671Y-85244030D01*
X128192849Y-85254520D01*
X128213893Y-85267133D01*
X128233598Y-85281747D01*
X128251777Y-85298223D01*
X128268253Y-85316402D01*
X128282867Y-85336107D01*
X128295480Y-85357151D01*
X128305970Y-85379329D01*
X128314235Y-85402429D01*
X128320196Y-85426227D01*
X128323796Y-85450496D01*
X128325000Y-85475000D01*
X128325000Y-86725000D01*
X128323796Y-86749504D01*
X128320196Y-86773773D01*
X128314235Y-86797571D01*
X128305970Y-86820671D01*
X128295480Y-86842849D01*
X128282867Y-86863893D01*
X128268253Y-86883598D01*
X128251777Y-86901777D01*
X128233598Y-86918253D01*
X128213893Y-86932867D01*
X128192849Y-86945480D01*
X128170671Y-86955970D01*
X128147571Y-86964235D01*
X128123773Y-86970196D01*
X128099504Y-86973796D01*
X128075000Y-86975000D01*
X127150000Y-86975000D01*
X127125496Y-86973796D01*
X127101227Y-86970196D01*
X127077429Y-86964235D01*
X127054329Y-86955970D01*
X127032151Y-86945480D01*
X127011107Y-86932867D01*
X126991402Y-86918253D01*
X126973223Y-86901777D01*
X126956747Y-86883598D01*
X126942133Y-86863893D01*
X126929520Y-86842849D01*
X126919030Y-86820671D01*
X126910765Y-86797571D01*
X126904804Y-86773773D01*
X126901204Y-86749504D01*
X126900000Y-86725000D01*
X126900000Y-85475000D01*
X126901204Y-85450496D01*
X126904804Y-85426227D01*
X126910765Y-85402429D01*
X126919030Y-85379329D01*
X126929520Y-85357151D01*
X126942133Y-85336107D01*
X126956747Y-85316402D01*
X126973223Y-85298223D01*
X126991402Y-85281747D01*
X127011107Y-85267133D01*
X127032151Y-85254520D01*
X127054329Y-85244030D01*
X127077429Y-85235765D01*
X127101227Y-85229804D01*
X127125496Y-85226204D01*
X127150000Y-85225000D01*
X128075000Y-85225000D01*
X128099504Y-85226204D01*
X128099504Y-85226204D01*
G37*
D11*
X127612500Y-86100000D03*
D10*
G36*
X86862004Y-91526204D02*
G01*
X86886273Y-91529804D01*
X86910071Y-91535765D01*
X86933171Y-91544030D01*
X86955349Y-91554520D01*
X86976393Y-91567133D01*
X86996098Y-91581747D01*
X87014277Y-91598223D01*
X87030753Y-91616402D01*
X87045367Y-91636107D01*
X87057980Y-91657151D01*
X87068470Y-91679329D01*
X87076735Y-91702429D01*
X87082696Y-91726227D01*
X87086296Y-91750496D01*
X87087500Y-91775000D01*
X87087500Y-93025000D01*
X87086296Y-93049504D01*
X87082696Y-93073773D01*
X87076735Y-93097571D01*
X87068470Y-93120671D01*
X87057980Y-93142849D01*
X87045367Y-93163893D01*
X87030753Y-93183598D01*
X87014277Y-93201777D01*
X86996098Y-93218253D01*
X86976393Y-93232867D01*
X86955349Y-93245480D01*
X86933171Y-93255970D01*
X86910071Y-93264235D01*
X86886273Y-93270196D01*
X86862004Y-93273796D01*
X86837500Y-93275000D01*
X85912500Y-93275000D01*
X85887996Y-93273796D01*
X85863727Y-93270196D01*
X85839929Y-93264235D01*
X85816829Y-93255970D01*
X85794651Y-93245480D01*
X85773607Y-93232867D01*
X85753902Y-93218253D01*
X85735723Y-93201777D01*
X85719247Y-93183598D01*
X85704633Y-93163893D01*
X85692020Y-93142849D01*
X85681530Y-93120671D01*
X85673265Y-93097571D01*
X85667304Y-93073773D01*
X85663704Y-93049504D01*
X85662500Y-93025000D01*
X85662500Y-91775000D01*
X85663704Y-91750496D01*
X85667304Y-91726227D01*
X85673265Y-91702429D01*
X85681530Y-91679329D01*
X85692020Y-91657151D01*
X85704633Y-91636107D01*
X85719247Y-91616402D01*
X85735723Y-91598223D01*
X85753902Y-91581747D01*
X85773607Y-91567133D01*
X85794651Y-91554520D01*
X85816829Y-91544030D01*
X85839929Y-91535765D01*
X85863727Y-91529804D01*
X85887996Y-91526204D01*
X85912500Y-91525000D01*
X86837500Y-91525000D01*
X86862004Y-91526204D01*
X86862004Y-91526204D01*
G37*
D11*
X86375000Y-92400000D03*
D10*
G36*
X83887004Y-91526204D02*
G01*
X83911273Y-91529804D01*
X83935071Y-91535765D01*
X83958171Y-91544030D01*
X83980349Y-91554520D01*
X84001393Y-91567133D01*
X84021098Y-91581747D01*
X84039277Y-91598223D01*
X84055753Y-91616402D01*
X84070367Y-91636107D01*
X84082980Y-91657151D01*
X84093470Y-91679329D01*
X84101735Y-91702429D01*
X84107696Y-91726227D01*
X84111296Y-91750496D01*
X84112500Y-91775000D01*
X84112500Y-93025000D01*
X84111296Y-93049504D01*
X84107696Y-93073773D01*
X84101735Y-93097571D01*
X84093470Y-93120671D01*
X84082980Y-93142849D01*
X84070367Y-93163893D01*
X84055753Y-93183598D01*
X84039277Y-93201777D01*
X84021098Y-93218253D01*
X84001393Y-93232867D01*
X83980349Y-93245480D01*
X83958171Y-93255970D01*
X83935071Y-93264235D01*
X83911273Y-93270196D01*
X83887004Y-93273796D01*
X83862500Y-93275000D01*
X82937500Y-93275000D01*
X82912996Y-93273796D01*
X82888727Y-93270196D01*
X82864929Y-93264235D01*
X82841829Y-93255970D01*
X82819651Y-93245480D01*
X82798607Y-93232867D01*
X82778902Y-93218253D01*
X82760723Y-93201777D01*
X82744247Y-93183598D01*
X82729633Y-93163893D01*
X82717020Y-93142849D01*
X82706530Y-93120671D01*
X82698265Y-93097571D01*
X82692304Y-93073773D01*
X82688704Y-93049504D01*
X82687500Y-93025000D01*
X82687500Y-91775000D01*
X82688704Y-91750496D01*
X82692304Y-91726227D01*
X82698265Y-91702429D01*
X82706530Y-91679329D01*
X82717020Y-91657151D01*
X82729633Y-91636107D01*
X82744247Y-91616402D01*
X82760723Y-91598223D01*
X82778902Y-91581747D01*
X82798607Y-91567133D01*
X82819651Y-91554520D01*
X82841829Y-91544030D01*
X82864929Y-91535765D01*
X82888727Y-91529804D01*
X82912996Y-91526204D01*
X82937500Y-91525000D01*
X83862500Y-91525000D01*
X83887004Y-91526204D01*
X83887004Y-91526204D01*
G37*
D11*
X83400000Y-92400000D03*
D10*
G36*
X78612004Y-81826204D02*
G01*
X78636273Y-81829804D01*
X78660071Y-81835765D01*
X78683171Y-81844030D01*
X78705349Y-81854520D01*
X78726393Y-81867133D01*
X78746098Y-81881747D01*
X78764277Y-81898223D01*
X78780753Y-81916402D01*
X78795367Y-81936107D01*
X78807980Y-81957151D01*
X78818470Y-81979329D01*
X78826735Y-82002429D01*
X78832696Y-82026227D01*
X78836296Y-82050496D01*
X78837500Y-82075000D01*
X78837500Y-83325000D01*
X78836296Y-83349504D01*
X78832696Y-83373773D01*
X78826735Y-83397571D01*
X78818470Y-83420671D01*
X78807980Y-83442849D01*
X78795367Y-83463893D01*
X78780753Y-83483598D01*
X78764277Y-83501777D01*
X78746098Y-83518253D01*
X78726393Y-83532867D01*
X78705349Y-83545480D01*
X78683171Y-83555970D01*
X78660071Y-83564235D01*
X78636273Y-83570196D01*
X78612004Y-83573796D01*
X78587500Y-83575000D01*
X77662500Y-83575000D01*
X77637996Y-83573796D01*
X77613727Y-83570196D01*
X77589929Y-83564235D01*
X77566829Y-83555970D01*
X77544651Y-83545480D01*
X77523607Y-83532867D01*
X77503902Y-83518253D01*
X77485723Y-83501777D01*
X77469247Y-83483598D01*
X77454633Y-83463893D01*
X77442020Y-83442849D01*
X77431530Y-83420671D01*
X77423265Y-83397571D01*
X77417304Y-83373773D01*
X77413704Y-83349504D01*
X77412500Y-83325000D01*
X77412500Y-82075000D01*
X77413704Y-82050496D01*
X77417304Y-82026227D01*
X77423265Y-82002429D01*
X77431530Y-81979329D01*
X77442020Y-81957151D01*
X77454633Y-81936107D01*
X77469247Y-81916402D01*
X77485723Y-81898223D01*
X77503902Y-81881747D01*
X77523607Y-81867133D01*
X77544651Y-81854520D01*
X77566829Y-81844030D01*
X77589929Y-81835765D01*
X77613727Y-81829804D01*
X77637996Y-81826204D01*
X77662500Y-81825000D01*
X78587500Y-81825000D01*
X78612004Y-81826204D01*
X78612004Y-81826204D01*
G37*
D11*
X78125000Y-82700000D03*
D10*
G36*
X81587004Y-81826204D02*
G01*
X81611273Y-81829804D01*
X81635071Y-81835765D01*
X81658171Y-81844030D01*
X81680349Y-81854520D01*
X81701393Y-81867133D01*
X81721098Y-81881747D01*
X81739277Y-81898223D01*
X81755753Y-81916402D01*
X81770367Y-81936107D01*
X81782980Y-81957151D01*
X81793470Y-81979329D01*
X81801735Y-82002429D01*
X81807696Y-82026227D01*
X81811296Y-82050496D01*
X81812500Y-82075000D01*
X81812500Y-83325000D01*
X81811296Y-83349504D01*
X81807696Y-83373773D01*
X81801735Y-83397571D01*
X81793470Y-83420671D01*
X81782980Y-83442849D01*
X81770367Y-83463893D01*
X81755753Y-83483598D01*
X81739277Y-83501777D01*
X81721098Y-83518253D01*
X81701393Y-83532867D01*
X81680349Y-83545480D01*
X81658171Y-83555970D01*
X81635071Y-83564235D01*
X81611273Y-83570196D01*
X81587004Y-83573796D01*
X81562500Y-83575000D01*
X80637500Y-83575000D01*
X80612996Y-83573796D01*
X80588727Y-83570196D01*
X80564929Y-83564235D01*
X80541829Y-83555970D01*
X80519651Y-83545480D01*
X80498607Y-83532867D01*
X80478902Y-83518253D01*
X80460723Y-83501777D01*
X80444247Y-83483598D01*
X80429633Y-83463893D01*
X80417020Y-83442849D01*
X80406530Y-83420671D01*
X80398265Y-83397571D01*
X80392304Y-83373773D01*
X80388704Y-83349504D01*
X80387500Y-83325000D01*
X80387500Y-82075000D01*
X80388704Y-82050496D01*
X80392304Y-82026227D01*
X80398265Y-82002429D01*
X80406530Y-81979329D01*
X80417020Y-81957151D01*
X80429633Y-81936107D01*
X80444247Y-81916402D01*
X80460723Y-81898223D01*
X80478902Y-81881747D01*
X80498607Y-81867133D01*
X80519651Y-81854520D01*
X80541829Y-81844030D01*
X80564929Y-81835765D01*
X80588727Y-81829804D01*
X80612996Y-81826204D01*
X80637500Y-81825000D01*
X81562500Y-81825000D01*
X81587004Y-81826204D01*
X81587004Y-81826204D01*
G37*
D11*
X81100000Y-82700000D03*
D10*
G36*
X123074504Y-91426204D02*
G01*
X123098773Y-91429804D01*
X123122571Y-91435765D01*
X123145671Y-91444030D01*
X123167849Y-91454520D01*
X123188893Y-91467133D01*
X123208598Y-91481747D01*
X123226777Y-91498223D01*
X123243253Y-91516402D01*
X123257867Y-91536107D01*
X123270480Y-91557151D01*
X123280970Y-91579329D01*
X123289235Y-91602429D01*
X123295196Y-91626227D01*
X123298796Y-91650496D01*
X123300000Y-91675000D01*
X123300000Y-92925000D01*
X123298796Y-92949504D01*
X123295196Y-92973773D01*
X123289235Y-92997571D01*
X123280970Y-93020671D01*
X123270480Y-93042849D01*
X123257867Y-93063893D01*
X123243253Y-93083598D01*
X123226777Y-93101777D01*
X123208598Y-93118253D01*
X123188893Y-93132867D01*
X123167849Y-93145480D01*
X123145671Y-93155970D01*
X123122571Y-93164235D01*
X123098773Y-93170196D01*
X123074504Y-93173796D01*
X123050000Y-93175000D01*
X122125000Y-93175000D01*
X122100496Y-93173796D01*
X122076227Y-93170196D01*
X122052429Y-93164235D01*
X122029329Y-93155970D01*
X122007151Y-93145480D01*
X121986107Y-93132867D01*
X121966402Y-93118253D01*
X121948223Y-93101777D01*
X121931747Y-93083598D01*
X121917133Y-93063893D01*
X121904520Y-93042849D01*
X121894030Y-93020671D01*
X121885765Y-92997571D01*
X121879804Y-92973773D01*
X121876204Y-92949504D01*
X121875000Y-92925000D01*
X121875000Y-91675000D01*
X121876204Y-91650496D01*
X121879804Y-91626227D01*
X121885765Y-91602429D01*
X121894030Y-91579329D01*
X121904520Y-91557151D01*
X121917133Y-91536107D01*
X121931747Y-91516402D01*
X121948223Y-91498223D01*
X121966402Y-91481747D01*
X121986107Y-91467133D01*
X122007151Y-91454520D01*
X122029329Y-91444030D01*
X122052429Y-91435765D01*
X122076227Y-91429804D01*
X122100496Y-91426204D01*
X122125000Y-91425000D01*
X123050000Y-91425000D01*
X123074504Y-91426204D01*
X123074504Y-91426204D01*
G37*
D11*
X122587500Y-92300000D03*
D10*
G36*
X120099504Y-91426204D02*
G01*
X120123773Y-91429804D01*
X120147571Y-91435765D01*
X120170671Y-91444030D01*
X120192849Y-91454520D01*
X120213893Y-91467133D01*
X120233598Y-91481747D01*
X120251777Y-91498223D01*
X120268253Y-91516402D01*
X120282867Y-91536107D01*
X120295480Y-91557151D01*
X120305970Y-91579329D01*
X120314235Y-91602429D01*
X120320196Y-91626227D01*
X120323796Y-91650496D01*
X120325000Y-91675000D01*
X120325000Y-92925000D01*
X120323796Y-92949504D01*
X120320196Y-92973773D01*
X120314235Y-92997571D01*
X120305970Y-93020671D01*
X120295480Y-93042849D01*
X120282867Y-93063893D01*
X120268253Y-93083598D01*
X120251777Y-93101777D01*
X120233598Y-93118253D01*
X120213893Y-93132867D01*
X120192849Y-93145480D01*
X120170671Y-93155970D01*
X120147571Y-93164235D01*
X120123773Y-93170196D01*
X120099504Y-93173796D01*
X120075000Y-93175000D01*
X119150000Y-93175000D01*
X119125496Y-93173796D01*
X119101227Y-93170196D01*
X119077429Y-93164235D01*
X119054329Y-93155970D01*
X119032151Y-93145480D01*
X119011107Y-93132867D01*
X118991402Y-93118253D01*
X118973223Y-93101777D01*
X118956747Y-93083598D01*
X118942133Y-93063893D01*
X118929520Y-93042849D01*
X118919030Y-93020671D01*
X118910765Y-92997571D01*
X118904804Y-92973773D01*
X118901204Y-92949504D01*
X118900000Y-92925000D01*
X118900000Y-91675000D01*
X118901204Y-91650496D01*
X118904804Y-91626227D01*
X118910765Y-91602429D01*
X118919030Y-91579329D01*
X118929520Y-91557151D01*
X118942133Y-91536107D01*
X118956747Y-91516402D01*
X118973223Y-91498223D01*
X118991402Y-91481747D01*
X119011107Y-91467133D01*
X119032151Y-91454520D01*
X119054329Y-91444030D01*
X119077429Y-91435765D01*
X119101227Y-91429804D01*
X119125496Y-91426204D01*
X119150000Y-91425000D01*
X120075000Y-91425000D01*
X120099504Y-91426204D01*
X120099504Y-91426204D01*
G37*
D11*
X119612500Y-92300000D03*
D10*
G36*
X113287004Y-85226204D02*
G01*
X113311273Y-85229804D01*
X113335071Y-85235765D01*
X113358171Y-85244030D01*
X113380349Y-85254520D01*
X113401393Y-85267133D01*
X113421098Y-85281747D01*
X113439277Y-85298223D01*
X113455753Y-85316402D01*
X113470367Y-85336107D01*
X113482980Y-85357151D01*
X113493470Y-85379329D01*
X113501735Y-85402429D01*
X113507696Y-85426227D01*
X113511296Y-85450496D01*
X113512500Y-85475000D01*
X113512500Y-86725000D01*
X113511296Y-86749504D01*
X113507696Y-86773773D01*
X113501735Y-86797571D01*
X113493470Y-86820671D01*
X113482980Y-86842849D01*
X113470367Y-86863893D01*
X113455753Y-86883598D01*
X113439277Y-86901777D01*
X113421098Y-86918253D01*
X113401393Y-86932867D01*
X113380349Y-86945480D01*
X113358171Y-86955970D01*
X113335071Y-86964235D01*
X113311273Y-86970196D01*
X113287004Y-86973796D01*
X113262500Y-86975000D01*
X112337500Y-86975000D01*
X112312996Y-86973796D01*
X112288727Y-86970196D01*
X112264929Y-86964235D01*
X112241829Y-86955970D01*
X112219651Y-86945480D01*
X112198607Y-86932867D01*
X112178902Y-86918253D01*
X112160723Y-86901777D01*
X112144247Y-86883598D01*
X112129633Y-86863893D01*
X112117020Y-86842849D01*
X112106530Y-86820671D01*
X112098265Y-86797571D01*
X112092304Y-86773773D01*
X112088704Y-86749504D01*
X112087500Y-86725000D01*
X112087500Y-85475000D01*
X112088704Y-85450496D01*
X112092304Y-85426227D01*
X112098265Y-85402429D01*
X112106530Y-85379329D01*
X112117020Y-85357151D01*
X112129633Y-85336107D01*
X112144247Y-85316402D01*
X112160723Y-85298223D01*
X112178902Y-85281747D01*
X112198607Y-85267133D01*
X112219651Y-85254520D01*
X112241829Y-85244030D01*
X112264929Y-85235765D01*
X112288727Y-85229804D01*
X112312996Y-85226204D01*
X112337500Y-85225000D01*
X113262500Y-85225000D01*
X113287004Y-85226204D01*
X113287004Y-85226204D01*
G37*
D11*
X112800000Y-86100000D03*
D10*
G36*
X110312004Y-85226204D02*
G01*
X110336273Y-85229804D01*
X110360071Y-85235765D01*
X110383171Y-85244030D01*
X110405349Y-85254520D01*
X110426393Y-85267133D01*
X110446098Y-85281747D01*
X110464277Y-85298223D01*
X110480753Y-85316402D01*
X110495367Y-85336107D01*
X110507980Y-85357151D01*
X110518470Y-85379329D01*
X110526735Y-85402429D01*
X110532696Y-85426227D01*
X110536296Y-85450496D01*
X110537500Y-85475000D01*
X110537500Y-86725000D01*
X110536296Y-86749504D01*
X110532696Y-86773773D01*
X110526735Y-86797571D01*
X110518470Y-86820671D01*
X110507980Y-86842849D01*
X110495367Y-86863893D01*
X110480753Y-86883598D01*
X110464277Y-86901777D01*
X110446098Y-86918253D01*
X110426393Y-86932867D01*
X110405349Y-86945480D01*
X110383171Y-86955970D01*
X110360071Y-86964235D01*
X110336273Y-86970196D01*
X110312004Y-86973796D01*
X110287500Y-86975000D01*
X109362500Y-86975000D01*
X109337996Y-86973796D01*
X109313727Y-86970196D01*
X109289929Y-86964235D01*
X109266829Y-86955970D01*
X109244651Y-86945480D01*
X109223607Y-86932867D01*
X109203902Y-86918253D01*
X109185723Y-86901777D01*
X109169247Y-86883598D01*
X109154633Y-86863893D01*
X109142020Y-86842849D01*
X109131530Y-86820671D01*
X109123265Y-86797571D01*
X109117304Y-86773773D01*
X109113704Y-86749504D01*
X109112500Y-86725000D01*
X109112500Y-85475000D01*
X109113704Y-85450496D01*
X109117304Y-85426227D01*
X109123265Y-85402429D01*
X109131530Y-85379329D01*
X109142020Y-85357151D01*
X109154633Y-85336107D01*
X109169247Y-85316402D01*
X109185723Y-85298223D01*
X109203902Y-85281747D01*
X109223607Y-85267133D01*
X109244651Y-85254520D01*
X109266829Y-85244030D01*
X109289929Y-85235765D01*
X109313727Y-85229804D01*
X109337996Y-85226204D01*
X109362500Y-85225000D01*
X110287500Y-85225000D01*
X110312004Y-85226204D01*
X110312004Y-85226204D01*
G37*
D11*
X109825000Y-86100000D03*
D10*
G36*
X68774504Y-91526204D02*
G01*
X68798773Y-91529804D01*
X68822571Y-91535765D01*
X68845671Y-91544030D01*
X68867849Y-91554520D01*
X68888893Y-91567133D01*
X68908598Y-91581747D01*
X68926777Y-91598223D01*
X68943253Y-91616402D01*
X68957867Y-91636107D01*
X68970480Y-91657151D01*
X68980970Y-91679329D01*
X68989235Y-91702429D01*
X68995196Y-91726227D01*
X68998796Y-91750496D01*
X69000000Y-91775000D01*
X69000000Y-93025000D01*
X68998796Y-93049504D01*
X68995196Y-93073773D01*
X68989235Y-93097571D01*
X68980970Y-93120671D01*
X68970480Y-93142849D01*
X68957867Y-93163893D01*
X68943253Y-93183598D01*
X68926777Y-93201777D01*
X68908598Y-93218253D01*
X68888893Y-93232867D01*
X68867849Y-93245480D01*
X68845671Y-93255970D01*
X68822571Y-93264235D01*
X68798773Y-93270196D01*
X68774504Y-93273796D01*
X68750000Y-93275000D01*
X67825000Y-93275000D01*
X67800496Y-93273796D01*
X67776227Y-93270196D01*
X67752429Y-93264235D01*
X67729329Y-93255970D01*
X67707151Y-93245480D01*
X67686107Y-93232867D01*
X67666402Y-93218253D01*
X67648223Y-93201777D01*
X67631747Y-93183598D01*
X67617133Y-93163893D01*
X67604520Y-93142849D01*
X67594030Y-93120671D01*
X67585765Y-93097571D01*
X67579804Y-93073773D01*
X67576204Y-93049504D01*
X67575000Y-93025000D01*
X67575000Y-91775000D01*
X67576204Y-91750496D01*
X67579804Y-91726227D01*
X67585765Y-91702429D01*
X67594030Y-91679329D01*
X67604520Y-91657151D01*
X67617133Y-91636107D01*
X67631747Y-91616402D01*
X67648223Y-91598223D01*
X67666402Y-91581747D01*
X67686107Y-91567133D01*
X67707151Y-91554520D01*
X67729329Y-91544030D01*
X67752429Y-91535765D01*
X67776227Y-91529804D01*
X67800496Y-91526204D01*
X67825000Y-91525000D01*
X68750000Y-91525000D01*
X68774504Y-91526204D01*
X68774504Y-91526204D01*
G37*
D11*
X68287500Y-92400000D03*
D10*
G36*
X65799504Y-91526204D02*
G01*
X65823773Y-91529804D01*
X65847571Y-91535765D01*
X65870671Y-91544030D01*
X65892849Y-91554520D01*
X65913893Y-91567133D01*
X65933598Y-91581747D01*
X65951777Y-91598223D01*
X65968253Y-91616402D01*
X65982867Y-91636107D01*
X65995480Y-91657151D01*
X66005970Y-91679329D01*
X66014235Y-91702429D01*
X66020196Y-91726227D01*
X66023796Y-91750496D01*
X66025000Y-91775000D01*
X66025000Y-93025000D01*
X66023796Y-93049504D01*
X66020196Y-93073773D01*
X66014235Y-93097571D01*
X66005970Y-93120671D01*
X65995480Y-93142849D01*
X65982867Y-93163893D01*
X65968253Y-93183598D01*
X65951777Y-93201777D01*
X65933598Y-93218253D01*
X65913893Y-93232867D01*
X65892849Y-93245480D01*
X65870671Y-93255970D01*
X65847571Y-93264235D01*
X65823773Y-93270196D01*
X65799504Y-93273796D01*
X65775000Y-93275000D01*
X64850000Y-93275000D01*
X64825496Y-93273796D01*
X64801227Y-93270196D01*
X64777429Y-93264235D01*
X64754329Y-93255970D01*
X64732151Y-93245480D01*
X64711107Y-93232867D01*
X64691402Y-93218253D01*
X64673223Y-93201777D01*
X64656747Y-93183598D01*
X64642133Y-93163893D01*
X64629520Y-93142849D01*
X64619030Y-93120671D01*
X64610765Y-93097571D01*
X64604804Y-93073773D01*
X64601204Y-93049504D01*
X64600000Y-93025000D01*
X64600000Y-91775000D01*
X64601204Y-91750496D01*
X64604804Y-91726227D01*
X64610765Y-91702429D01*
X64619030Y-91679329D01*
X64629520Y-91657151D01*
X64642133Y-91636107D01*
X64656747Y-91616402D01*
X64673223Y-91598223D01*
X64691402Y-91581747D01*
X64711107Y-91567133D01*
X64732151Y-91554520D01*
X64754329Y-91544030D01*
X64777429Y-91535765D01*
X64801227Y-91529804D01*
X64825496Y-91526204D01*
X64850000Y-91525000D01*
X65775000Y-91525000D01*
X65799504Y-91526204D01*
X65799504Y-91526204D01*
G37*
D11*
X65312500Y-92400000D03*
D10*
G36*
X58787004Y-85526204D02*
G01*
X58811273Y-85529804D01*
X58835071Y-85535765D01*
X58858171Y-85544030D01*
X58880349Y-85554520D01*
X58901393Y-85567133D01*
X58921098Y-85581747D01*
X58939277Y-85598223D01*
X58955753Y-85616402D01*
X58970367Y-85636107D01*
X58982980Y-85657151D01*
X58993470Y-85679329D01*
X59001735Y-85702429D01*
X59007696Y-85726227D01*
X59011296Y-85750496D01*
X59012500Y-85775000D01*
X59012500Y-87025000D01*
X59011296Y-87049504D01*
X59007696Y-87073773D01*
X59001735Y-87097571D01*
X58993470Y-87120671D01*
X58982980Y-87142849D01*
X58970367Y-87163893D01*
X58955753Y-87183598D01*
X58939277Y-87201777D01*
X58921098Y-87218253D01*
X58901393Y-87232867D01*
X58880349Y-87245480D01*
X58858171Y-87255970D01*
X58835071Y-87264235D01*
X58811273Y-87270196D01*
X58787004Y-87273796D01*
X58762500Y-87275000D01*
X57837500Y-87275000D01*
X57812996Y-87273796D01*
X57788727Y-87270196D01*
X57764929Y-87264235D01*
X57741829Y-87255970D01*
X57719651Y-87245480D01*
X57698607Y-87232867D01*
X57678902Y-87218253D01*
X57660723Y-87201777D01*
X57644247Y-87183598D01*
X57629633Y-87163893D01*
X57617020Y-87142849D01*
X57606530Y-87120671D01*
X57598265Y-87097571D01*
X57592304Y-87073773D01*
X57588704Y-87049504D01*
X57587500Y-87025000D01*
X57587500Y-85775000D01*
X57588704Y-85750496D01*
X57592304Y-85726227D01*
X57598265Y-85702429D01*
X57606530Y-85679329D01*
X57617020Y-85657151D01*
X57629633Y-85636107D01*
X57644247Y-85616402D01*
X57660723Y-85598223D01*
X57678902Y-85581747D01*
X57698607Y-85567133D01*
X57719651Y-85554520D01*
X57741829Y-85544030D01*
X57764929Y-85535765D01*
X57788727Y-85529804D01*
X57812996Y-85526204D01*
X57837500Y-85525000D01*
X58762500Y-85525000D01*
X58787004Y-85526204D01*
X58787004Y-85526204D01*
G37*
D11*
X58300000Y-86400000D03*
D10*
G36*
X55812004Y-85526204D02*
G01*
X55836273Y-85529804D01*
X55860071Y-85535765D01*
X55883171Y-85544030D01*
X55905349Y-85554520D01*
X55926393Y-85567133D01*
X55946098Y-85581747D01*
X55964277Y-85598223D01*
X55980753Y-85616402D01*
X55995367Y-85636107D01*
X56007980Y-85657151D01*
X56018470Y-85679329D01*
X56026735Y-85702429D01*
X56032696Y-85726227D01*
X56036296Y-85750496D01*
X56037500Y-85775000D01*
X56037500Y-87025000D01*
X56036296Y-87049504D01*
X56032696Y-87073773D01*
X56026735Y-87097571D01*
X56018470Y-87120671D01*
X56007980Y-87142849D01*
X55995367Y-87163893D01*
X55980753Y-87183598D01*
X55964277Y-87201777D01*
X55946098Y-87218253D01*
X55926393Y-87232867D01*
X55905349Y-87245480D01*
X55883171Y-87255970D01*
X55860071Y-87264235D01*
X55836273Y-87270196D01*
X55812004Y-87273796D01*
X55787500Y-87275000D01*
X54862500Y-87275000D01*
X54837996Y-87273796D01*
X54813727Y-87270196D01*
X54789929Y-87264235D01*
X54766829Y-87255970D01*
X54744651Y-87245480D01*
X54723607Y-87232867D01*
X54703902Y-87218253D01*
X54685723Y-87201777D01*
X54669247Y-87183598D01*
X54654633Y-87163893D01*
X54642020Y-87142849D01*
X54631530Y-87120671D01*
X54623265Y-87097571D01*
X54617304Y-87073773D01*
X54613704Y-87049504D01*
X54612500Y-87025000D01*
X54612500Y-85775000D01*
X54613704Y-85750496D01*
X54617304Y-85726227D01*
X54623265Y-85702429D01*
X54631530Y-85679329D01*
X54642020Y-85657151D01*
X54654633Y-85636107D01*
X54669247Y-85616402D01*
X54685723Y-85598223D01*
X54703902Y-85581747D01*
X54723607Y-85567133D01*
X54744651Y-85554520D01*
X54766829Y-85544030D01*
X54789929Y-85535765D01*
X54813727Y-85529804D01*
X54837996Y-85526204D01*
X54862500Y-85525000D01*
X55787500Y-85525000D01*
X55812004Y-85526204D01*
X55812004Y-85526204D01*
G37*
D11*
X55325000Y-86400000D03*
D12*
X133350000Y-88000000D03*
X134300000Y-85000000D03*
X132400000Y-85000000D03*
X115550000Y-88000000D03*
X116500000Y-85000000D03*
X114600000Y-85000000D03*
X97300000Y-88000000D03*
X98250000Y-85000000D03*
X96350000Y-85000000D03*
X79000000Y-88600000D03*
X79950000Y-85600000D03*
X78050000Y-85600000D03*
X61100000Y-88300000D03*
X62050000Y-85300000D03*
X60150000Y-85300000D03*
D10*
G36*
X147588504Y-173913704D02*
G01*
X147612773Y-173917304D01*
X147636571Y-173923265D01*
X147659671Y-173931530D01*
X147681849Y-173942020D01*
X147702893Y-173954633D01*
X147722598Y-173969247D01*
X147740777Y-173985723D01*
X147757253Y-174003902D01*
X147771867Y-174023607D01*
X147784480Y-174044651D01*
X147794970Y-174066829D01*
X147803235Y-174089929D01*
X147809196Y-174113727D01*
X147812796Y-174137996D01*
X147814000Y-174162500D01*
X147814000Y-175087500D01*
X147812796Y-175112004D01*
X147809196Y-175136273D01*
X147803235Y-175160071D01*
X147794970Y-175183171D01*
X147784480Y-175205349D01*
X147771867Y-175226393D01*
X147757253Y-175246098D01*
X147740777Y-175264277D01*
X147722598Y-175280753D01*
X147702893Y-175295367D01*
X147681849Y-175307980D01*
X147659671Y-175318470D01*
X147636571Y-175326735D01*
X147612773Y-175332696D01*
X147588504Y-175336296D01*
X147564000Y-175337500D01*
X146314000Y-175337500D01*
X146289496Y-175336296D01*
X146265227Y-175332696D01*
X146241429Y-175326735D01*
X146218329Y-175318470D01*
X146196151Y-175307980D01*
X146175107Y-175295367D01*
X146155402Y-175280753D01*
X146137223Y-175264277D01*
X146120747Y-175246098D01*
X146106133Y-175226393D01*
X146093520Y-175205349D01*
X146083030Y-175183171D01*
X146074765Y-175160071D01*
X146068804Y-175136273D01*
X146065204Y-175112004D01*
X146064000Y-175087500D01*
X146064000Y-174162500D01*
X146065204Y-174137996D01*
X146068804Y-174113727D01*
X146074765Y-174089929D01*
X146083030Y-174066829D01*
X146093520Y-174044651D01*
X146106133Y-174023607D01*
X146120747Y-174003902D01*
X146137223Y-173985723D01*
X146155402Y-173969247D01*
X146175107Y-173954633D01*
X146196151Y-173942020D01*
X146218329Y-173931530D01*
X146241429Y-173923265D01*
X146265227Y-173917304D01*
X146289496Y-173913704D01*
X146314000Y-173912500D01*
X147564000Y-173912500D01*
X147588504Y-173913704D01*
X147588504Y-173913704D01*
G37*
D11*
X146939000Y-174625000D03*
D10*
G36*
X147588504Y-176888704D02*
G01*
X147612773Y-176892304D01*
X147636571Y-176898265D01*
X147659671Y-176906530D01*
X147681849Y-176917020D01*
X147702893Y-176929633D01*
X147722598Y-176944247D01*
X147740777Y-176960723D01*
X147757253Y-176978902D01*
X147771867Y-176998607D01*
X147784480Y-177019651D01*
X147794970Y-177041829D01*
X147803235Y-177064929D01*
X147809196Y-177088727D01*
X147812796Y-177112996D01*
X147814000Y-177137500D01*
X147814000Y-178062500D01*
X147812796Y-178087004D01*
X147809196Y-178111273D01*
X147803235Y-178135071D01*
X147794970Y-178158171D01*
X147784480Y-178180349D01*
X147771867Y-178201393D01*
X147757253Y-178221098D01*
X147740777Y-178239277D01*
X147722598Y-178255753D01*
X147702893Y-178270367D01*
X147681849Y-178282980D01*
X147659671Y-178293470D01*
X147636571Y-178301735D01*
X147612773Y-178307696D01*
X147588504Y-178311296D01*
X147564000Y-178312500D01*
X146314000Y-178312500D01*
X146289496Y-178311296D01*
X146265227Y-178307696D01*
X146241429Y-178301735D01*
X146218329Y-178293470D01*
X146196151Y-178282980D01*
X146175107Y-178270367D01*
X146155402Y-178255753D01*
X146137223Y-178239277D01*
X146120747Y-178221098D01*
X146106133Y-178201393D01*
X146093520Y-178180349D01*
X146083030Y-178158171D01*
X146074765Y-178135071D01*
X146068804Y-178111273D01*
X146065204Y-178087004D01*
X146064000Y-178062500D01*
X146064000Y-177137500D01*
X146065204Y-177112996D01*
X146068804Y-177088727D01*
X146074765Y-177064929D01*
X146083030Y-177041829D01*
X146093520Y-177019651D01*
X146106133Y-176998607D01*
X146120747Y-176978902D01*
X146137223Y-176960723D01*
X146155402Y-176944247D01*
X146175107Y-176929633D01*
X146196151Y-176917020D01*
X146218329Y-176906530D01*
X146241429Y-176898265D01*
X146265227Y-176892304D01*
X146289496Y-176888704D01*
X146314000Y-176887500D01*
X147564000Y-176887500D01*
X147588504Y-176888704D01*
X147588504Y-176888704D01*
G37*
D11*
X146939000Y-177600000D03*
D10*
G36*
X147588504Y-161032704D02*
G01*
X147612773Y-161036304D01*
X147636571Y-161042265D01*
X147659671Y-161050530D01*
X147681849Y-161061020D01*
X147702893Y-161073633D01*
X147722598Y-161088247D01*
X147740777Y-161104723D01*
X147757253Y-161122902D01*
X147771867Y-161142607D01*
X147784480Y-161163651D01*
X147794970Y-161185829D01*
X147803235Y-161208929D01*
X147809196Y-161232727D01*
X147812796Y-161256996D01*
X147814000Y-161281500D01*
X147814000Y-162206500D01*
X147812796Y-162231004D01*
X147809196Y-162255273D01*
X147803235Y-162279071D01*
X147794970Y-162302171D01*
X147784480Y-162324349D01*
X147771867Y-162345393D01*
X147757253Y-162365098D01*
X147740777Y-162383277D01*
X147722598Y-162399753D01*
X147702893Y-162414367D01*
X147681849Y-162426980D01*
X147659671Y-162437470D01*
X147636571Y-162445735D01*
X147612773Y-162451696D01*
X147588504Y-162455296D01*
X147564000Y-162456500D01*
X146314000Y-162456500D01*
X146289496Y-162455296D01*
X146265227Y-162451696D01*
X146241429Y-162445735D01*
X146218329Y-162437470D01*
X146196151Y-162426980D01*
X146175107Y-162414367D01*
X146155402Y-162399753D01*
X146137223Y-162383277D01*
X146120747Y-162365098D01*
X146106133Y-162345393D01*
X146093520Y-162324349D01*
X146083030Y-162302171D01*
X146074765Y-162279071D01*
X146068804Y-162255273D01*
X146065204Y-162231004D01*
X146064000Y-162206500D01*
X146064000Y-161281500D01*
X146065204Y-161256996D01*
X146068804Y-161232727D01*
X146074765Y-161208929D01*
X146083030Y-161185829D01*
X146093520Y-161163651D01*
X146106133Y-161142607D01*
X146120747Y-161122902D01*
X146137223Y-161104723D01*
X146155402Y-161088247D01*
X146175107Y-161073633D01*
X146196151Y-161061020D01*
X146218329Y-161050530D01*
X146241429Y-161042265D01*
X146265227Y-161036304D01*
X146289496Y-161032704D01*
X146314000Y-161031500D01*
X147564000Y-161031500D01*
X147588504Y-161032704D01*
X147588504Y-161032704D01*
G37*
D11*
X146939000Y-161744000D03*
D10*
G36*
X147588504Y-164007704D02*
G01*
X147612773Y-164011304D01*
X147636571Y-164017265D01*
X147659671Y-164025530D01*
X147681849Y-164036020D01*
X147702893Y-164048633D01*
X147722598Y-164063247D01*
X147740777Y-164079723D01*
X147757253Y-164097902D01*
X147771867Y-164117607D01*
X147784480Y-164138651D01*
X147794970Y-164160829D01*
X147803235Y-164183929D01*
X147809196Y-164207727D01*
X147812796Y-164231996D01*
X147814000Y-164256500D01*
X147814000Y-165181500D01*
X147812796Y-165206004D01*
X147809196Y-165230273D01*
X147803235Y-165254071D01*
X147794970Y-165277171D01*
X147784480Y-165299349D01*
X147771867Y-165320393D01*
X147757253Y-165340098D01*
X147740777Y-165358277D01*
X147722598Y-165374753D01*
X147702893Y-165389367D01*
X147681849Y-165401980D01*
X147659671Y-165412470D01*
X147636571Y-165420735D01*
X147612773Y-165426696D01*
X147588504Y-165430296D01*
X147564000Y-165431500D01*
X146314000Y-165431500D01*
X146289496Y-165430296D01*
X146265227Y-165426696D01*
X146241429Y-165420735D01*
X146218329Y-165412470D01*
X146196151Y-165401980D01*
X146175107Y-165389367D01*
X146155402Y-165374753D01*
X146137223Y-165358277D01*
X146120747Y-165340098D01*
X146106133Y-165320393D01*
X146093520Y-165299349D01*
X146083030Y-165277171D01*
X146074765Y-165254071D01*
X146068804Y-165230273D01*
X146065204Y-165206004D01*
X146064000Y-165181500D01*
X146064000Y-164256500D01*
X146065204Y-164231996D01*
X146068804Y-164207727D01*
X146074765Y-164183929D01*
X146083030Y-164160829D01*
X146093520Y-164138651D01*
X146106133Y-164117607D01*
X146120747Y-164097902D01*
X146137223Y-164079723D01*
X146155402Y-164063247D01*
X146175107Y-164048633D01*
X146196151Y-164036020D01*
X146218329Y-164025530D01*
X146241429Y-164017265D01*
X146265227Y-164011304D01*
X146289496Y-164007704D01*
X146314000Y-164006500D01*
X147564000Y-164006500D01*
X147588504Y-164007704D01*
X147588504Y-164007704D01*
G37*
D11*
X146939000Y-164719000D03*
D10*
G36*
X147588504Y-148332704D02*
G01*
X147612773Y-148336304D01*
X147636571Y-148342265D01*
X147659671Y-148350530D01*
X147681849Y-148361020D01*
X147702893Y-148373633D01*
X147722598Y-148388247D01*
X147740777Y-148404723D01*
X147757253Y-148422902D01*
X147771867Y-148442607D01*
X147784480Y-148463651D01*
X147794970Y-148485829D01*
X147803235Y-148508929D01*
X147809196Y-148532727D01*
X147812796Y-148556996D01*
X147814000Y-148581500D01*
X147814000Y-149506500D01*
X147812796Y-149531004D01*
X147809196Y-149555273D01*
X147803235Y-149579071D01*
X147794970Y-149602171D01*
X147784480Y-149624349D01*
X147771867Y-149645393D01*
X147757253Y-149665098D01*
X147740777Y-149683277D01*
X147722598Y-149699753D01*
X147702893Y-149714367D01*
X147681849Y-149726980D01*
X147659671Y-149737470D01*
X147636571Y-149745735D01*
X147612773Y-149751696D01*
X147588504Y-149755296D01*
X147564000Y-149756500D01*
X146314000Y-149756500D01*
X146289496Y-149755296D01*
X146265227Y-149751696D01*
X146241429Y-149745735D01*
X146218329Y-149737470D01*
X146196151Y-149726980D01*
X146175107Y-149714367D01*
X146155402Y-149699753D01*
X146137223Y-149683277D01*
X146120747Y-149665098D01*
X146106133Y-149645393D01*
X146093520Y-149624349D01*
X146083030Y-149602171D01*
X146074765Y-149579071D01*
X146068804Y-149555273D01*
X146065204Y-149531004D01*
X146064000Y-149506500D01*
X146064000Y-148581500D01*
X146065204Y-148556996D01*
X146068804Y-148532727D01*
X146074765Y-148508929D01*
X146083030Y-148485829D01*
X146093520Y-148463651D01*
X146106133Y-148442607D01*
X146120747Y-148422902D01*
X146137223Y-148404723D01*
X146155402Y-148388247D01*
X146175107Y-148373633D01*
X146196151Y-148361020D01*
X146218329Y-148350530D01*
X146241429Y-148342265D01*
X146265227Y-148336304D01*
X146289496Y-148332704D01*
X146314000Y-148331500D01*
X147564000Y-148331500D01*
X147588504Y-148332704D01*
X147588504Y-148332704D01*
G37*
D11*
X146939000Y-149044000D03*
D10*
G36*
X147588504Y-151307704D02*
G01*
X147612773Y-151311304D01*
X147636571Y-151317265D01*
X147659671Y-151325530D01*
X147681849Y-151336020D01*
X147702893Y-151348633D01*
X147722598Y-151363247D01*
X147740777Y-151379723D01*
X147757253Y-151397902D01*
X147771867Y-151417607D01*
X147784480Y-151438651D01*
X147794970Y-151460829D01*
X147803235Y-151483929D01*
X147809196Y-151507727D01*
X147812796Y-151531996D01*
X147814000Y-151556500D01*
X147814000Y-152481500D01*
X147812796Y-152506004D01*
X147809196Y-152530273D01*
X147803235Y-152554071D01*
X147794970Y-152577171D01*
X147784480Y-152599349D01*
X147771867Y-152620393D01*
X147757253Y-152640098D01*
X147740777Y-152658277D01*
X147722598Y-152674753D01*
X147702893Y-152689367D01*
X147681849Y-152701980D01*
X147659671Y-152712470D01*
X147636571Y-152720735D01*
X147612773Y-152726696D01*
X147588504Y-152730296D01*
X147564000Y-152731500D01*
X146314000Y-152731500D01*
X146289496Y-152730296D01*
X146265227Y-152726696D01*
X146241429Y-152720735D01*
X146218329Y-152712470D01*
X146196151Y-152701980D01*
X146175107Y-152689367D01*
X146155402Y-152674753D01*
X146137223Y-152658277D01*
X146120747Y-152640098D01*
X146106133Y-152620393D01*
X146093520Y-152599349D01*
X146083030Y-152577171D01*
X146074765Y-152554071D01*
X146068804Y-152530273D01*
X146065204Y-152506004D01*
X146064000Y-152481500D01*
X146064000Y-151556500D01*
X146065204Y-151531996D01*
X146068804Y-151507727D01*
X146074765Y-151483929D01*
X146083030Y-151460829D01*
X146093520Y-151438651D01*
X146106133Y-151417607D01*
X146120747Y-151397902D01*
X146137223Y-151379723D01*
X146155402Y-151363247D01*
X146175107Y-151348633D01*
X146196151Y-151336020D01*
X146218329Y-151325530D01*
X146241429Y-151317265D01*
X146265227Y-151311304D01*
X146289496Y-151307704D01*
X146314000Y-151306500D01*
X147564000Y-151306500D01*
X147588504Y-151307704D01*
X147588504Y-151307704D01*
G37*
D11*
X146939000Y-152019000D03*
D10*
G36*
X147588504Y-135378704D02*
G01*
X147612773Y-135382304D01*
X147636571Y-135388265D01*
X147659671Y-135396530D01*
X147681849Y-135407020D01*
X147702893Y-135419633D01*
X147722598Y-135434247D01*
X147740777Y-135450723D01*
X147757253Y-135468902D01*
X147771867Y-135488607D01*
X147784480Y-135509651D01*
X147794970Y-135531829D01*
X147803235Y-135554929D01*
X147809196Y-135578727D01*
X147812796Y-135602996D01*
X147814000Y-135627500D01*
X147814000Y-136552500D01*
X147812796Y-136577004D01*
X147809196Y-136601273D01*
X147803235Y-136625071D01*
X147794970Y-136648171D01*
X147784480Y-136670349D01*
X147771867Y-136691393D01*
X147757253Y-136711098D01*
X147740777Y-136729277D01*
X147722598Y-136745753D01*
X147702893Y-136760367D01*
X147681849Y-136772980D01*
X147659671Y-136783470D01*
X147636571Y-136791735D01*
X147612773Y-136797696D01*
X147588504Y-136801296D01*
X147564000Y-136802500D01*
X146314000Y-136802500D01*
X146289496Y-136801296D01*
X146265227Y-136797696D01*
X146241429Y-136791735D01*
X146218329Y-136783470D01*
X146196151Y-136772980D01*
X146175107Y-136760367D01*
X146155402Y-136745753D01*
X146137223Y-136729277D01*
X146120747Y-136711098D01*
X146106133Y-136691393D01*
X146093520Y-136670349D01*
X146083030Y-136648171D01*
X146074765Y-136625071D01*
X146068804Y-136601273D01*
X146065204Y-136577004D01*
X146064000Y-136552500D01*
X146064000Y-135627500D01*
X146065204Y-135602996D01*
X146068804Y-135578727D01*
X146074765Y-135554929D01*
X146083030Y-135531829D01*
X146093520Y-135509651D01*
X146106133Y-135488607D01*
X146120747Y-135468902D01*
X146137223Y-135450723D01*
X146155402Y-135434247D01*
X146175107Y-135419633D01*
X146196151Y-135407020D01*
X146218329Y-135396530D01*
X146241429Y-135388265D01*
X146265227Y-135382304D01*
X146289496Y-135378704D01*
X146314000Y-135377500D01*
X147564000Y-135377500D01*
X147588504Y-135378704D01*
X147588504Y-135378704D01*
G37*
D11*
X146939000Y-136090000D03*
D10*
G36*
X147588504Y-138353704D02*
G01*
X147612773Y-138357304D01*
X147636571Y-138363265D01*
X147659671Y-138371530D01*
X147681849Y-138382020D01*
X147702893Y-138394633D01*
X147722598Y-138409247D01*
X147740777Y-138425723D01*
X147757253Y-138443902D01*
X147771867Y-138463607D01*
X147784480Y-138484651D01*
X147794970Y-138506829D01*
X147803235Y-138529929D01*
X147809196Y-138553727D01*
X147812796Y-138577996D01*
X147814000Y-138602500D01*
X147814000Y-139527500D01*
X147812796Y-139552004D01*
X147809196Y-139576273D01*
X147803235Y-139600071D01*
X147794970Y-139623171D01*
X147784480Y-139645349D01*
X147771867Y-139666393D01*
X147757253Y-139686098D01*
X147740777Y-139704277D01*
X147722598Y-139720753D01*
X147702893Y-139735367D01*
X147681849Y-139747980D01*
X147659671Y-139758470D01*
X147636571Y-139766735D01*
X147612773Y-139772696D01*
X147588504Y-139776296D01*
X147564000Y-139777500D01*
X146314000Y-139777500D01*
X146289496Y-139776296D01*
X146265227Y-139772696D01*
X146241429Y-139766735D01*
X146218329Y-139758470D01*
X146196151Y-139747980D01*
X146175107Y-139735367D01*
X146155402Y-139720753D01*
X146137223Y-139704277D01*
X146120747Y-139686098D01*
X146106133Y-139666393D01*
X146093520Y-139645349D01*
X146083030Y-139623171D01*
X146074765Y-139600071D01*
X146068804Y-139576273D01*
X146065204Y-139552004D01*
X146064000Y-139527500D01*
X146064000Y-138602500D01*
X146065204Y-138577996D01*
X146068804Y-138553727D01*
X146074765Y-138529929D01*
X146083030Y-138506829D01*
X146093520Y-138484651D01*
X146106133Y-138463607D01*
X146120747Y-138443902D01*
X146137223Y-138425723D01*
X146155402Y-138409247D01*
X146175107Y-138394633D01*
X146196151Y-138382020D01*
X146218329Y-138371530D01*
X146241429Y-138363265D01*
X146265227Y-138357304D01*
X146289496Y-138353704D01*
X146314000Y-138352500D01*
X147564000Y-138352500D01*
X147588504Y-138353704D01*
X147588504Y-138353704D01*
G37*
D11*
X146939000Y-139065000D03*
D10*
G36*
X147588504Y-122678704D02*
G01*
X147612773Y-122682304D01*
X147636571Y-122688265D01*
X147659671Y-122696530D01*
X147681849Y-122707020D01*
X147702893Y-122719633D01*
X147722598Y-122734247D01*
X147740777Y-122750723D01*
X147757253Y-122768902D01*
X147771867Y-122788607D01*
X147784480Y-122809651D01*
X147794970Y-122831829D01*
X147803235Y-122854929D01*
X147809196Y-122878727D01*
X147812796Y-122902996D01*
X147814000Y-122927500D01*
X147814000Y-123852500D01*
X147812796Y-123877004D01*
X147809196Y-123901273D01*
X147803235Y-123925071D01*
X147794970Y-123948171D01*
X147784480Y-123970349D01*
X147771867Y-123991393D01*
X147757253Y-124011098D01*
X147740777Y-124029277D01*
X147722598Y-124045753D01*
X147702893Y-124060367D01*
X147681849Y-124072980D01*
X147659671Y-124083470D01*
X147636571Y-124091735D01*
X147612773Y-124097696D01*
X147588504Y-124101296D01*
X147564000Y-124102500D01*
X146314000Y-124102500D01*
X146289496Y-124101296D01*
X146265227Y-124097696D01*
X146241429Y-124091735D01*
X146218329Y-124083470D01*
X146196151Y-124072980D01*
X146175107Y-124060367D01*
X146155402Y-124045753D01*
X146137223Y-124029277D01*
X146120747Y-124011098D01*
X146106133Y-123991393D01*
X146093520Y-123970349D01*
X146083030Y-123948171D01*
X146074765Y-123925071D01*
X146068804Y-123901273D01*
X146065204Y-123877004D01*
X146064000Y-123852500D01*
X146064000Y-122927500D01*
X146065204Y-122902996D01*
X146068804Y-122878727D01*
X146074765Y-122854929D01*
X146083030Y-122831829D01*
X146093520Y-122809651D01*
X146106133Y-122788607D01*
X146120747Y-122768902D01*
X146137223Y-122750723D01*
X146155402Y-122734247D01*
X146175107Y-122719633D01*
X146196151Y-122707020D01*
X146218329Y-122696530D01*
X146241429Y-122688265D01*
X146265227Y-122682304D01*
X146289496Y-122678704D01*
X146314000Y-122677500D01*
X147564000Y-122677500D01*
X147588504Y-122678704D01*
X147588504Y-122678704D01*
G37*
D11*
X146939000Y-123390000D03*
D10*
G36*
X147588504Y-125653704D02*
G01*
X147612773Y-125657304D01*
X147636571Y-125663265D01*
X147659671Y-125671530D01*
X147681849Y-125682020D01*
X147702893Y-125694633D01*
X147722598Y-125709247D01*
X147740777Y-125725723D01*
X147757253Y-125743902D01*
X147771867Y-125763607D01*
X147784480Y-125784651D01*
X147794970Y-125806829D01*
X147803235Y-125829929D01*
X147809196Y-125853727D01*
X147812796Y-125877996D01*
X147814000Y-125902500D01*
X147814000Y-126827500D01*
X147812796Y-126852004D01*
X147809196Y-126876273D01*
X147803235Y-126900071D01*
X147794970Y-126923171D01*
X147784480Y-126945349D01*
X147771867Y-126966393D01*
X147757253Y-126986098D01*
X147740777Y-127004277D01*
X147722598Y-127020753D01*
X147702893Y-127035367D01*
X147681849Y-127047980D01*
X147659671Y-127058470D01*
X147636571Y-127066735D01*
X147612773Y-127072696D01*
X147588504Y-127076296D01*
X147564000Y-127077500D01*
X146314000Y-127077500D01*
X146289496Y-127076296D01*
X146265227Y-127072696D01*
X146241429Y-127066735D01*
X146218329Y-127058470D01*
X146196151Y-127047980D01*
X146175107Y-127035367D01*
X146155402Y-127020753D01*
X146137223Y-127004277D01*
X146120747Y-126986098D01*
X146106133Y-126966393D01*
X146093520Y-126945349D01*
X146083030Y-126923171D01*
X146074765Y-126900071D01*
X146068804Y-126876273D01*
X146065204Y-126852004D01*
X146064000Y-126827500D01*
X146064000Y-125902500D01*
X146065204Y-125877996D01*
X146068804Y-125853727D01*
X146074765Y-125829929D01*
X146083030Y-125806829D01*
X146093520Y-125784651D01*
X146106133Y-125763607D01*
X146120747Y-125743902D01*
X146137223Y-125725723D01*
X146155402Y-125709247D01*
X146175107Y-125694633D01*
X146196151Y-125682020D01*
X146218329Y-125671530D01*
X146241429Y-125663265D01*
X146265227Y-125657304D01*
X146289496Y-125653704D01*
X146314000Y-125652500D01*
X147564000Y-125652500D01*
X147588504Y-125653704D01*
X147588504Y-125653704D01*
G37*
D11*
X146939000Y-126365000D03*
D10*
G36*
X147588504Y-109688204D02*
G01*
X147612773Y-109691804D01*
X147636571Y-109697765D01*
X147659671Y-109706030D01*
X147681849Y-109716520D01*
X147702893Y-109729133D01*
X147722598Y-109743747D01*
X147740777Y-109760223D01*
X147757253Y-109778402D01*
X147771867Y-109798107D01*
X147784480Y-109819151D01*
X147794970Y-109841329D01*
X147803235Y-109864429D01*
X147809196Y-109888227D01*
X147812796Y-109912496D01*
X147814000Y-109937000D01*
X147814000Y-110862000D01*
X147812796Y-110886504D01*
X147809196Y-110910773D01*
X147803235Y-110934571D01*
X147794970Y-110957671D01*
X147784480Y-110979849D01*
X147771867Y-111000893D01*
X147757253Y-111020598D01*
X147740777Y-111038777D01*
X147722598Y-111055253D01*
X147702893Y-111069867D01*
X147681849Y-111082480D01*
X147659671Y-111092970D01*
X147636571Y-111101235D01*
X147612773Y-111107196D01*
X147588504Y-111110796D01*
X147564000Y-111112000D01*
X146314000Y-111112000D01*
X146289496Y-111110796D01*
X146265227Y-111107196D01*
X146241429Y-111101235D01*
X146218329Y-111092970D01*
X146196151Y-111082480D01*
X146175107Y-111069867D01*
X146155402Y-111055253D01*
X146137223Y-111038777D01*
X146120747Y-111020598D01*
X146106133Y-111000893D01*
X146093520Y-110979849D01*
X146083030Y-110957671D01*
X146074765Y-110934571D01*
X146068804Y-110910773D01*
X146065204Y-110886504D01*
X146064000Y-110862000D01*
X146064000Y-109937000D01*
X146065204Y-109912496D01*
X146068804Y-109888227D01*
X146074765Y-109864429D01*
X146083030Y-109841329D01*
X146093520Y-109819151D01*
X146106133Y-109798107D01*
X146120747Y-109778402D01*
X146137223Y-109760223D01*
X146155402Y-109743747D01*
X146175107Y-109729133D01*
X146196151Y-109716520D01*
X146218329Y-109706030D01*
X146241429Y-109697765D01*
X146265227Y-109691804D01*
X146289496Y-109688204D01*
X146314000Y-109687000D01*
X147564000Y-109687000D01*
X147588504Y-109688204D01*
X147588504Y-109688204D01*
G37*
D11*
X146939000Y-110399500D03*
D10*
G36*
X147588504Y-112663204D02*
G01*
X147612773Y-112666804D01*
X147636571Y-112672765D01*
X147659671Y-112681030D01*
X147681849Y-112691520D01*
X147702893Y-112704133D01*
X147722598Y-112718747D01*
X147740777Y-112735223D01*
X147757253Y-112753402D01*
X147771867Y-112773107D01*
X147784480Y-112794151D01*
X147794970Y-112816329D01*
X147803235Y-112839429D01*
X147809196Y-112863227D01*
X147812796Y-112887496D01*
X147814000Y-112912000D01*
X147814000Y-113837000D01*
X147812796Y-113861504D01*
X147809196Y-113885773D01*
X147803235Y-113909571D01*
X147794970Y-113932671D01*
X147784480Y-113954849D01*
X147771867Y-113975893D01*
X147757253Y-113995598D01*
X147740777Y-114013777D01*
X147722598Y-114030253D01*
X147702893Y-114044867D01*
X147681849Y-114057480D01*
X147659671Y-114067970D01*
X147636571Y-114076235D01*
X147612773Y-114082196D01*
X147588504Y-114085796D01*
X147564000Y-114087000D01*
X146314000Y-114087000D01*
X146289496Y-114085796D01*
X146265227Y-114082196D01*
X146241429Y-114076235D01*
X146218329Y-114067970D01*
X146196151Y-114057480D01*
X146175107Y-114044867D01*
X146155402Y-114030253D01*
X146137223Y-114013777D01*
X146120747Y-113995598D01*
X146106133Y-113975893D01*
X146093520Y-113954849D01*
X146083030Y-113932671D01*
X146074765Y-113909571D01*
X146068804Y-113885773D01*
X146065204Y-113861504D01*
X146064000Y-113837000D01*
X146064000Y-112912000D01*
X146065204Y-112887496D01*
X146068804Y-112863227D01*
X146074765Y-112839429D01*
X146083030Y-112816329D01*
X146093520Y-112794151D01*
X146106133Y-112773107D01*
X146120747Y-112753402D01*
X146137223Y-112735223D01*
X146155402Y-112718747D01*
X146175107Y-112704133D01*
X146196151Y-112691520D01*
X146218329Y-112681030D01*
X146241429Y-112672765D01*
X146265227Y-112666804D01*
X146289496Y-112663204D01*
X146314000Y-112662000D01*
X147564000Y-112662000D01*
X147588504Y-112663204D01*
X147588504Y-112663204D01*
G37*
D11*
X146939000Y-113374500D03*
D10*
G36*
X147588504Y-97278704D02*
G01*
X147612773Y-97282304D01*
X147636571Y-97288265D01*
X147659671Y-97296530D01*
X147681849Y-97307020D01*
X147702893Y-97319633D01*
X147722598Y-97334247D01*
X147740777Y-97350723D01*
X147757253Y-97368902D01*
X147771867Y-97388607D01*
X147784480Y-97409651D01*
X147794970Y-97431829D01*
X147803235Y-97454929D01*
X147809196Y-97478727D01*
X147812796Y-97502996D01*
X147814000Y-97527500D01*
X147814000Y-98452500D01*
X147812796Y-98477004D01*
X147809196Y-98501273D01*
X147803235Y-98525071D01*
X147794970Y-98548171D01*
X147784480Y-98570349D01*
X147771867Y-98591393D01*
X147757253Y-98611098D01*
X147740777Y-98629277D01*
X147722598Y-98645753D01*
X147702893Y-98660367D01*
X147681849Y-98672980D01*
X147659671Y-98683470D01*
X147636571Y-98691735D01*
X147612773Y-98697696D01*
X147588504Y-98701296D01*
X147564000Y-98702500D01*
X146314000Y-98702500D01*
X146289496Y-98701296D01*
X146265227Y-98697696D01*
X146241429Y-98691735D01*
X146218329Y-98683470D01*
X146196151Y-98672980D01*
X146175107Y-98660367D01*
X146155402Y-98645753D01*
X146137223Y-98629277D01*
X146120747Y-98611098D01*
X146106133Y-98591393D01*
X146093520Y-98570349D01*
X146083030Y-98548171D01*
X146074765Y-98525071D01*
X146068804Y-98501273D01*
X146065204Y-98477004D01*
X146064000Y-98452500D01*
X146064000Y-97527500D01*
X146065204Y-97502996D01*
X146068804Y-97478727D01*
X146074765Y-97454929D01*
X146083030Y-97431829D01*
X146093520Y-97409651D01*
X146106133Y-97388607D01*
X146120747Y-97368902D01*
X146137223Y-97350723D01*
X146155402Y-97334247D01*
X146175107Y-97319633D01*
X146196151Y-97307020D01*
X146218329Y-97296530D01*
X146241429Y-97288265D01*
X146265227Y-97282304D01*
X146289496Y-97278704D01*
X146314000Y-97277500D01*
X147564000Y-97277500D01*
X147588504Y-97278704D01*
X147588504Y-97278704D01*
G37*
D11*
X146939000Y-97990000D03*
D10*
G36*
X147588504Y-100253704D02*
G01*
X147612773Y-100257304D01*
X147636571Y-100263265D01*
X147659671Y-100271530D01*
X147681849Y-100282020D01*
X147702893Y-100294633D01*
X147722598Y-100309247D01*
X147740777Y-100325723D01*
X147757253Y-100343902D01*
X147771867Y-100363607D01*
X147784480Y-100384651D01*
X147794970Y-100406829D01*
X147803235Y-100429929D01*
X147809196Y-100453727D01*
X147812796Y-100477996D01*
X147814000Y-100502500D01*
X147814000Y-101427500D01*
X147812796Y-101452004D01*
X147809196Y-101476273D01*
X147803235Y-101500071D01*
X147794970Y-101523171D01*
X147784480Y-101545349D01*
X147771867Y-101566393D01*
X147757253Y-101586098D01*
X147740777Y-101604277D01*
X147722598Y-101620753D01*
X147702893Y-101635367D01*
X147681849Y-101647980D01*
X147659671Y-101658470D01*
X147636571Y-101666735D01*
X147612773Y-101672696D01*
X147588504Y-101676296D01*
X147564000Y-101677500D01*
X146314000Y-101677500D01*
X146289496Y-101676296D01*
X146265227Y-101672696D01*
X146241429Y-101666735D01*
X146218329Y-101658470D01*
X146196151Y-101647980D01*
X146175107Y-101635367D01*
X146155402Y-101620753D01*
X146137223Y-101604277D01*
X146120747Y-101586098D01*
X146106133Y-101566393D01*
X146093520Y-101545349D01*
X146083030Y-101523171D01*
X146074765Y-101500071D01*
X146068804Y-101476273D01*
X146065204Y-101452004D01*
X146064000Y-101427500D01*
X146064000Y-100502500D01*
X146065204Y-100477996D01*
X146068804Y-100453727D01*
X146074765Y-100429929D01*
X146083030Y-100406829D01*
X146093520Y-100384651D01*
X146106133Y-100363607D01*
X146120747Y-100343902D01*
X146137223Y-100325723D01*
X146155402Y-100309247D01*
X146175107Y-100294633D01*
X146196151Y-100282020D01*
X146218329Y-100271530D01*
X146241429Y-100263265D01*
X146265227Y-100257304D01*
X146289496Y-100253704D01*
X146314000Y-100252500D01*
X147564000Y-100252500D01*
X147588504Y-100253704D01*
X147588504Y-100253704D01*
G37*
D11*
X146939000Y-100965000D03*
D10*
G36*
X136577004Y-84089204D02*
G01*
X136601273Y-84092804D01*
X136625071Y-84098765D01*
X136648171Y-84107030D01*
X136670349Y-84117520D01*
X136691393Y-84130133D01*
X136711098Y-84144747D01*
X136729277Y-84161223D01*
X136745753Y-84179402D01*
X136760367Y-84199107D01*
X136772980Y-84220151D01*
X136783470Y-84242329D01*
X136791735Y-84265429D01*
X136797696Y-84289227D01*
X136801296Y-84313496D01*
X136802500Y-84338000D01*
X136802500Y-85588000D01*
X136801296Y-85612504D01*
X136797696Y-85636773D01*
X136791735Y-85660571D01*
X136783470Y-85683671D01*
X136772980Y-85705849D01*
X136760367Y-85726893D01*
X136745753Y-85746598D01*
X136729277Y-85764777D01*
X136711098Y-85781253D01*
X136691393Y-85795867D01*
X136670349Y-85808480D01*
X136648171Y-85818970D01*
X136625071Y-85827235D01*
X136601273Y-85833196D01*
X136577004Y-85836796D01*
X136552500Y-85838000D01*
X135627500Y-85838000D01*
X135602996Y-85836796D01*
X135578727Y-85833196D01*
X135554929Y-85827235D01*
X135531829Y-85818970D01*
X135509651Y-85808480D01*
X135488607Y-85795867D01*
X135468902Y-85781253D01*
X135450723Y-85764777D01*
X135434247Y-85746598D01*
X135419633Y-85726893D01*
X135407020Y-85705849D01*
X135396530Y-85683671D01*
X135388265Y-85660571D01*
X135382304Y-85636773D01*
X135378704Y-85612504D01*
X135377500Y-85588000D01*
X135377500Y-84338000D01*
X135378704Y-84313496D01*
X135382304Y-84289227D01*
X135388265Y-84265429D01*
X135396530Y-84242329D01*
X135407020Y-84220151D01*
X135419633Y-84199107D01*
X135434247Y-84179402D01*
X135450723Y-84161223D01*
X135468902Y-84144747D01*
X135488607Y-84130133D01*
X135509651Y-84117520D01*
X135531829Y-84107030D01*
X135554929Y-84098765D01*
X135578727Y-84092804D01*
X135602996Y-84089204D01*
X135627500Y-84088000D01*
X136552500Y-84088000D01*
X136577004Y-84089204D01*
X136577004Y-84089204D01*
G37*
D11*
X136090000Y-84963000D03*
D10*
G36*
X139552004Y-84089204D02*
G01*
X139576273Y-84092804D01*
X139600071Y-84098765D01*
X139623171Y-84107030D01*
X139645349Y-84117520D01*
X139666393Y-84130133D01*
X139686098Y-84144747D01*
X139704277Y-84161223D01*
X139720753Y-84179402D01*
X139735367Y-84199107D01*
X139747980Y-84220151D01*
X139758470Y-84242329D01*
X139766735Y-84265429D01*
X139772696Y-84289227D01*
X139776296Y-84313496D01*
X139777500Y-84338000D01*
X139777500Y-85588000D01*
X139776296Y-85612504D01*
X139772696Y-85636773D01*
X139766735Y-85660571D01*
X139758470Y-85683671D01*
X139747980Y-85705849D01*
X139735367Y-85726893D01*
X139720753Y-85746598D01*
X139704277Y-85764777D01*
X139686098Y-85781253D01*
X139666393Y-85795867D01*
X139645349Y-85808480D01*
X139623171Y-85818970D01*
X139600071Y-85827235D01*
X139576273Y-85833196D01*
X139552004Y-85836796D01*
X139527500Y-85838000D01*
X138602500Y-85838000D01*
X138577996Y-85836796D01*
X138553727Y-85833196D01*
X138529929Y-85827235D01*
X138506829Y-85818970D01*
X138484651Y-85808480D01*
X138463607Y-85795867D01*
X138443902Y-85781253D01*
X138425723Y-85764777D01*
X138409247Y-85746598D01*
X138394633Y-85726893D01*
X138382020Y-85705849D01*
X138371530Y-85683671D01*
X138363265Y-85660571D01*
X138357304Y-85636773D01*
X138353704Y-85612504D01*
X138352500Y-85588000D01*
X138352500Y-84338000D01*
X138353704Y-84313496D01*
X138357304Y-84289227D01*
X138363265Y-84265429D01*
X138371530Y-84242329D01*
X138382020Y-84220151D01*
X138394633Y-84199107D01*
X138409247Y-84179402D01*
X138425723Y-84161223D01*
X138443902Y-84144747D01*
X138463607Y-84130133D01*
X138484651Y-84117520D01*
X138506829Y-84107030D01*
X138529929Y-84098765D01*
X138553727Y-84092804D01*
X138577996Y-84089204D01*
X138602500Y-84088000D01*
X139527500Y-84088000D01*
X139552004Y-84089204D01*
X139552004Y-84089204D01*
G37*
D11*
X139065000Y-84963000D03*
D10*
G36*
X118797004Y-84089204D02*
G01*
X118821273Y-84092804D01*
X118845071Y-84098765D01*
X118868171Y-84107030D01*
X118890349Y-84117520D01*
X118911393Y-84130133D01*
X118931098Y-84144747D01*
X118949277Y-84161223D01*
X118965753Y-84179402D01*
X118980367Y-84199107D01*
X118992980Y-84220151D01*
X119003470Y-84242329D01*
X119011735Y-84265429D01*
X119017696Y-84289227D01*
X119021296Y-84313496D01*
X119022500Y-84338000D01*
X119022500Y-85588000D01*
X119021296Y-85612504D01*
X119017696Y-85636773D01*
X119011735Y-85660571D01*
X119003470Y-85683671D01*
X118992980Y-85705849D01*
X118980367Y-85726893D01*
X118965753Y-85746598D01*
X118949277Y-85764777D01*
X118931098Y-85781253D01*
X118911393Y-85795867D01*
X118890349Y-85808480D01*
X118868171Y-85818970D01*
X118845071Y-85827235D01*
X118821273Y-85833196D01*
X118797004Y-85836796D01*
X118772500Y-85838000D01*
X117847500Y-85838000D01*
X117822996Y-85836796D01*
X117798727Y-85833196D01*
X117774929Y-85827235D01*
X117751829Y-85818970D01*
X117729651Y-85808480D01*
X117708607Y-85795867D01*
X117688902Y-85781253D01*
X117670723Y-85764777D01*
X117654247Y-85746598D01*
X117639633Y-85726893D01*
X117627020Y-85705849D01*
X117616530Y-85683671D01*
X117608265Y-85660571D01*
X117602304Y-85636773D01*
X117598704Y-85612504D01*
X117597500Y-85588000D01*
X117597500Y-84338000D01*
X117598704Y-84313496D01*
X117602304Y-84289227D01*
X117608265Y-84265429D01*
X117616530Y-84242329D01*
X117627020Y-84220151D01*
X117639633Y-84199107D01*
X117654247Y-84179402D01*
X117670723Y-84161223D01*
X117688902Y-84144747D01*
X117708607Y-84130133D01*
X117729651Y-84117520D01*
X117751829Y-84107030D01*
X117774929Y-84098765D01*
X117798727Y-84092804D01*
X117822996Y-84089204D01*
X117847500Y-84088000D01*
X118772500Y-84088000D01*
X118797004Y-84089204D01*
X118797004Y-84089204D01*
G37*
D11*
X118310000Y-84963000D03*
D10*
G36*
X121772004Y-84089204D02*
G01*
X121796273Y-84092804D01*
X121820071Y-84098765D01*
X121843171Y-84107030D01*
X121865349Y-84117520D01*
X121886393Y-84130133D01*
X121906098Y-84144747D01*
X121924277Y-84161223D01*
X121940753Y-84179402D01*
X121955367Y-84199107D01*
X121967980Y-84220151D01*
X121978470Y-84242329D01*
X121986735Y-84265429D01*
X121992696Y-84289227D01*
X121996296Y-84313496D01*
X121997500Y-84338000D01*
X121997500Y-85588000D01*
X121996296Y-85612504D01*
X121992696Y-85636773D01*
X121986735Y-85660571D01*
X121978470Y-85683671D01*
X121967980Y-85705849D01*
X121955367Y-85726893D01*
X121940753Y-85746598D01*
X121924277Y-85764777D01*
X121906098Y-85781253D01*
X121886393Y-85795867D01*
X121865349Y-85808480D01*
X121843171Y-85818970D01*
X121820071Y-85827235D01*
X121796273Y-85833196D01*
X121772004Y-85836796D01*
X121747500Y-85838000D01*
X120822500Y-85838000D01*
X120797996Y-85836796D01*
X120773727Y-85833196D01*
X120749929Y-85827235D01*
X120726829Y-85818970D01*
X120704651Y-85808480D01*
X120683607Y-85795867D01*
X120663902Y-85781253D01*
X120645723Y-85764777D01*
X120629247Y-85746598D01*
X120614633Y-85726893D01*
X120602020Y-85705849D01*
X120591530Y-85683671D01*
X120583265Y-85660571D01*
X120577304Y-85636773D01*
X120573704Y-85612504D01*
X120572500Y-85588000D01*
X120572500Y-84338000D01*
X120573704Y-84313496D01*
X120577304Y-84289227D01*
X120583265Y-84265429D01*
X120591530Y-84242329D01*
X120602020Y-84220151D01*
X120614633Y-84199107D01*
X120629247Y-84179402D01*
X120645723Y-84161223D01*
X120663902Y-84144747D01*
X120683607Y-84130133D01*
X120704651Y-84117520D01*
X120726829Y-84107030D01*
X120749929Y-84098765D01*
X120773727Y-84092804D01*
X120797996Y-84089204D01*
X120822500Y-84088000D01*
X121747500Y-84088000D01*
X121772004Y-84089204D01*
X121772004Y-84089204D01*
G37*
D11*
X121285000Y-84963000D03*
D10*
G36*
X100509004Y-84089204D02*
G01*
X100533273Y-84092804D01*
X100557071Y-84098765D01*
X100580171Y-84107030D01*
X100602349Y-84117520D01*
X100623393Y-84130133D01*
X100643098Y-84144747D01*
X100661277Y-84161223D01*
X100677753Y-84179402D01*
X100692367Y-84199107D01*
X100704980Y-84220151D01*
X100715470Y-84242329D01*
X100723735Y-84265429D01*
X100729696Y-84289227D01*
X100733296Y-84313496D01*
X100734500Y-84338000D01*
X100734500Y-85588000D01*
X100733296Y-85612504D01*
X100729696Y-85636773D01*
X100723735Y-85660571D01*
X100715470Y-85683671D01*
X100704980Y-85705849D01*
X100692367Y-85726893D01*
X100677753Y-85746598D01*
X100661277Y-85764777D01*
X100643098Y-85781253D01*
X100623393Y-85795867D01*
X100602349Y-85808480D01*
X100580171Y-85818970D01*
X100557071Y-85827235D01*
X100533273Y-85833196D01*
X100509004Y-85836796D01*
X100484500Y-85838000D01*
X99559500Y-85838000D01*
X99534996Y-85836796D01*
X99510727Y-85833196D01*
X99486929Y-85827235D01*
X99463829Y-85818970D01*
X99441651Y-85808480D01*
X99420607Y-85795867D01*
X99400902Y-85781253D01*
X99382723Y-85764777D01*
X99366247Y-85746598D01*
X99351633Y-85726893D01*
X99339020Y-85705849D01*
X99328530Y-85683671D01*
X99320265Y-85660571D01*
X99314304Y-85636773D01*
X99310704Y-85612504D01*
X99309500Y-85588000D01*
X99309500Y-84338000D01*
X99310704Y-84313496D01*
X99314304Y-84289227D01*
X99320265Y-84265429D01*
X99328530Y-84242329D01*
X99339020Y-84220151D01*
X99351633Y-84199107D01*
X99366247Y-84179402D01*
X99382723Y-84161223D01*
X99400902Y-84144747D01*
X99420607Y-84130133D01*
X99441651Y-84117520D01*
X99463829Y-84107030D01*
X99486929Y-84098765D01*
X99510727Y-84092804D01*
X99534996Y-84089204D01*
X99559500Y-84088000D01*
X100484500Y-84088000D01*
X100509004Y-84089204D01*
X100509004Y-84089204D01*
G37*
D11*
X100022000Y-84963000D03*
D10*
G36*
X103484004Y-84089204D02*
G01*
X103508273Y-84092804D01*
X103532071Y-84098765D01*
X103555171Y-84107030D01*
X103577349Y-84117520D01*
X103598393Y-84130133D01*
X103618098Y-84144747D01*
X103636277Y-84161223D01*
X103652753Y-84179402D01*
X103667367Y-84199107D01*
X103679980Y-84220151D01*
X103690470Y-84242329D01*
X103698735Y-84265429D01*
X103704696Y-84289227D01*
X103708296Y-84313496D01*
X103709500Y-84338000D01*
X103709500Y-85588000D01*
X103708296Y-85612504D01*
X103704696Y-85636773D01*
X103698735Y-85660571D01*
X103690470Y-85683671D01*
X103679980Y-85705849D01*
X103667367Y-85726893D01*
X103652753Y-85746598D01*
X103636277Y-85764777D01*
X103618098Y-85781253D01*
X103598393Y-85795867D01*
X103577349Y-85808480D01*
X103555171Y-85818970D01*
X103532071Y-85827235D01*
X103508273Y-85833196D01*
X103484004Y-85836796D01*
X103459500Y-85838000D01*
X102534500Y-85838000D01*
X102509996Y-85836796D01*
X102485727Y-85833196D01*
X102461929Y-85827235D01*
X102438829Y-85818970D01*
X102416651Y-85808480D01*
X102395607Y-85795867D01*
X102375902Y-85781253D01*
X102357723Y-85764777D01*
X102341247Y-85746598D01*
X102326633Y-85726893D01*
X102314020Y-85705849D01*
X102303530Y-85683671D01*
X102295265Y-85660571D01*
X102289304Y-85636773D01*
X102285704Y-85612504D01*
X102284500Y-85588000D01*
X102284500Y-84338000D01*
X102285704Y-84313496D01*
X102289304Y-84289227D01*
X102295265Y-84265429D01*
X102303530Y-84242329D01*
X102314020Y-84220151D01*
X102326633Y-84199107D01*
X102341247Y-84179402D01*
X102357723Y-84161223D01*
X102375902Y-84144747D01*
X102395607Y-84130133D01*
X102416651Y-84117520D01*
X102438829Y-84107030D01*
X102461929Y-84098765D01*
X102485727Y-84092804D01*
X102509996Y-84089204D01*
X102534500Y-84088000D01*
X103459500Y-84088000D01*
X103484004Y-84089204D01*
X103484004Y-84089204D01*
G37*
D11*
X102997000Y-84963000D03*
D10*
G36*
X82221004Y-84089204D02*
G01*
X82245273Y-84092804D01*
X82269071Y-84098765D01*
X82292171Y-84107030D01*
X82314349Y-84117520D01*
X82335393Y-84130133D01*
X82355098Y-84144747D01*
X82373277Y-84161223D01*
X82389753Y-84179402D01*
X82404367Y-84199107D01*
X82416980Y-84220151D01*
X82427470Y-84242329D01*
X82435735Y-84265429D01*
X82441696Y-84289227D01*
X82445296Y-84313496D01*
X82446500Y-84338000D01*
X82446500Y-85588000D01*
X82445296Y-85612504D01*
X82441696Y-85636773D01*
X82435735Y-85660571D01*
X82427470Y-85683671D01*
X82416980Y-85705849D01*
X82404367Y-85726893D01*
X82389753Y-85746598D01*
X82373277Y-85764777D01*
X82355098Y-85781253D01*
X82335393Y-85795867D01*
X82314349Y-85808480D01*
X82292171Y-85818970D01*
X82269071Y-85827235D01*
X82245273Y-85833196D01*
X82221004Y-85836796D01*
X82196500Y-85838000D01*
X81271500Y-85838000D01*
X81246996Y-85836796D01*
X81222727Y-85833196D01*
X81198929Y-85827235D01*
X81175829Y-85818970D01*
X81153651Y-85808480D01*
X81132607Y-85795867D01*
X81112902Y-85781253D01*
X81094723Y-85764777D01*
X81078247Y-85746598D01*
X81063633Y-85726893D01*
X81051020Y-85705849D01*
X81040530Y-85683671D01*
X81032265Y-85660571D01*
X81026304Y-85636773D01*
X81022704Y-85612504D01*
X81021500Y-85588000D01*
X81021500Y-84338000D01*
X81022704Y-84313496D01*
X81026304Y-84289227D01*
X81032265Y-84265429D01*
X81040530Y-84242329D01*
X81051020Y-84220151D01*
X81063633Y-84199107D01*
X81078247Y-84179402D01*
X81094723Y-84161223D01*
X81112902Y-84144747D01*
X81132607Y-84130133D01*
X81153651Y-84117520D01*
X81175829Y-84107030D01*
X81198929Y-84098765D01*
X81222727Y-84092804D01*
X81246996Y-84089204D01*
X81271500Y-84088000D01*
X82196500Y-84088000D01*
X82221004Y-84089204D01*
X82221004Y-84089204D01*
G37*
D11*
X81734000Y-84963000D03*
D10*
G36*
X85196004Y-84089204D02*
G01*
X85220273Y-84092804D01*
X85244071Y-84098765D01*
X85267171Y-84107030D01*
X85289349Y-84117520D01*
X85310393Y-84130133D01*
X85330098Y-84144747D01*
X85348277Y-84161223D01*
X85364753Y-84179402D01*
X85379367Y-84199107D01*
X85391980Y-84220151D01*
X85402470Y-84242329D01*
X85410735Y-84265429D01*
X85416696Y-84289227D01*
X85420296Y-84313496D01*
X85421500Y-84338000D01*
X85421500Y-85588000D01*
X85420296Y-85612504D01*
X85416696Y-85636773D01*
X85410735Y-85660571D01*
X85402470Y-85683671D01*
X85391980Y-85705849D01*
X85379367Y-85726893D01*
X85364753Y-85746598D01*
X85348277Y-85764777D01*
X85330098Y-85781253D01*
X85310393Y-85795867D01*
X85289349Y-85808480D01*
X85267171Y-85818970D01*
X85244071Y-85827235D01*
X85220273Y-85833196D01*
X85196004Y-85836796D01*
X85171500Y-85838000D01*
X84246500Y-85838000D01*
X84221996Y-85836796D01*
X84197727Y-85833196D01*
X84173929Y-85827235D01*
X84150829Y-85818970D01*
X84128651Y-85808480D01*
X84107607Y-85795867D01*
X84087902Y-85781253D01*
X84069723Y-85764777D01*
X84053247Y-85746598D01*
X84038633Y-85726893D01*
X84026020Y-85705849D01*
X84015530Y-85683671D01*
X84007265Y-85660571D01*
X84001304Y-85636773D01*
X83997704Y-85612504D01*
X83996500Y-85588000D01*
X83996500Y-84338000D01*
X83997704Y-84313496D01*
X84001304Y-84289227D01*
X84007265Y-84265429D01*
X84015530Y-84242329D01*
X84026020Y-84220151D01*
X84038633Y-84199107D01*
X84053247Y-84179402D01*
X84069723Y-84161223D01*
X84087902Y-84144747D01*
X84107607Y-84130133D01*
X84128651Y-84117520D01*
X84150829Y-84107030D01*
X84173929Y-84098765D01*
X84197727Y-84092804D01*
X84221996Y-84089204D01*
X84246500Y-84088000D01*
X85171500Y-84088000D01*
X85196004Y-84089204D01*
X85196004Y-84089204D01*
G37*
D11*
X84709000Y-84963000D03*
D10*
G36*
X64314004Y-84089204D02*
G01*
X64338273Y-84092804D01*
X64362071Y-84098765D01*
X64385171Y-84107030D01*
X64407349Y-84117520D01*
X64428393Y-84130133D01*
X64448098Y-84144747D01*
X64466277Y-84161223D01*
X64482753Y-84179402D01*
X64497367Y-84199107D01*
X64509980Y-84220151D01*
X64520470Y-84242329D01*
X64528735Y-84265429D01*
X64534696Y-84289227D01*
X64538296Y-84313496D01*
X64539500Y-84338000D01*
X64539500Y-85588000D01*
X64538296Y-85612504D01*
X64534696Y-85636773D01*
X64528735Y-85660571D01*
X64520470Y-85683671D01*
X64509980Y-85705849D01*
X64497367Y-85726893D01*
X64482753Y-85746598D01*
X64466277Y-85764777D01*
X64448098Y-85781253D01*
X64428393Y-85795867D01*
X64407349Y-85808480D01*
X64385171Y-85818970D01*
X64362071Y-85827235D01*
X64338273Y-85833196D01*
X64314004Y-85836796D01*
X64289500Y-85838000D01*
X63364500Y-85838000D01*
X63339996Y-85836796D01*
X63315727Y-85833196D01*
X63291929Y-85827235D01*
X63268829Y-85818970D01*
X63246651Y-85808480D01*
X63225607Y-85795867D01*
X63205902Y-85781253D01*
X63187723Y-85764777D01*
X63171247Y-85746598D01*
X63156633Y-85726893D01*
X63144020Y-85705849D01*
X63133530Y-85683671D01*
X63125265Y-85660571D01*
X63119304Y-85636773D01*
X63115704Y-85612504D01*
X63114500Y-85588000D01*
X63114500Y-84338000D01*
X63115704Y-84313496D01*
X63119304Y-84289227D01*
X63125265Y-84265429D01*
X63133530Y-84242329D01*
X63144020Y-84220151D01*
X63156633Y-84199107D01*
X63171247Y-84179402D01*
X63187723Y-84161223D01*
X63205902Y-84144747D01*
X63225607Y-84130133D01*
X63246651Y-84117520D01*
X63268829Y-84107030D01*
X63291929Y-84098765D01*
X63315727Y-84092804D01*
X63339996Y-84089204D01*
X63364500Y-84088000D01*
X64289500Y-84088000D01*
X64314004Y-84089204D01*
X64314004Y-84089204D01*
G37*
D11*
X63827000Y-84963000D03*
D10*
G36*
X67289004Y-84089204D02*
G01*
X67313273Y-84092804D01*
X67337071Y-84098765D01*
X67360171Y-84107030D01*
X67382349Y-84117520D01*
X67403393Y-84130133D01*
X67423098Y-84144747D01*
X67441277Y-84161223D01*
X67457753Y-84179402D01*
X67472367Y-84199107D01*
X67484980Y-84220151D01*
X67495470Y-84242329D01*
X67503735Y-84265429D01*
X67509696Y-84289227D01*
X67513296Y-84313496D01*
X67514500Y-84338000D01*
X67514500Y-85588000D01*
X67513296Y-85612504D01*
X67509696Y-85636773D01*
X67503735Y-85660571D01*
X67495470Y-85683671D01*
X67484980Y-85705849D01*
X67472367Y-85726893D01*
X67457753Y-85746598D01*
X67441277Y-85764777D01*
X67423098Y-85781253D01*
X67403393Y-85795867D01*
X67382349Y-85808480D01*
X67360171Y-85818970D01*
X67337071Y-85827235D01*
X67313273Y-85833196D01*
X67289004Y-85836796D01*
X67264500Y-85838000D01*
X66339500Y-85838000D01*
X66314996Y-85836796D01*
X66290727Y-85833196D01*
X66266929Y-85827235D01*
X66243829Y-85818970D01*
X66221651Y-85808480D01*
X66200607Y-85795867D01*
X66180902Y-85781253D01*
X66162723Y-85764777D01*
X66146247Y-85746598D01*
X66131633Y-85726893D01*
X66119020Y-85705849D01*
X66108530Y-85683671D01*
X66100265Y-85660571D01*
X66094304Y-85636773D01*
X66090704Y-85612504D01*
X66089500Y-85588000D01*
X66089500Y-84338000D01*
X66090704Y-84313496D01*
X66094304Y-84289227D01*
X66100265Y-84265429D01*
X66108530Y-84242329D01*
X66119020Y-84220151D01*
X66131633Y-84199107D01*
X66146247Y-84179402D01*
X66162723Y-84161223D01*
X66180902Y-84144747D01*
X66200607Y-84130133D01*
X66221651Y-84117520D01*
X66243829Y-84107030D01*
X66266929Y-84098765D01*
X66290727Y-84092804D01*
X66314996Y-84089204D01*
X66339500Y-84088000D01*
X67264500Y-84088000D01*
X67289004Y-84089204D01*
X67289004Y-84089204D01*
G37*
D11*
X66802000Y-84963000D03*
D10*
G36*
X144848623Y-174124915D02*
G01*
X144867067Y-174127651D01*
X144885154Y-174132181D01*
X144902710Y-174138463D01*
X144919565Y-174146435D01*
X144935558Y-174156021D01*
X144950535Y-174167128D01*
X144964350Y-174179650D01*
X144976872Y-174193465D01*
X144987979Y-174208442D01*
X144997565Y-174224435D01*
X145005537Y-174241290D01*
X145011819Y-174258846D01*
X145016349Y-174276933D01*
X145019085Y-174295377D01*
X145020000Y-174314000D01*
X145020000Y-174884000D01*
X145019085Y-174902623D01*
X145016349Y-174921067D01*
X145011819Y-174939154D01*
X145005537Y-174956710D01*
X144997565Y-174973565D01*
X144987979Y-174989558D01*
X144976872Y-175004535D01*
X144964350Y-175018350D01*
X144950535Y-175030872D01*
X144935558Y-175041979D01*
X144919565Y-175051565D01*
X144902710Y-175059537D01*
X144885154Y-175065819D01*
X144867067Y-175070349D01*
X144848623Y-175073085D01*
X144830000Y-175074000D01*
X143460000Y-175074000D01*
X143441377Y-175073085D01*
X143422933Y-175070349D01*
X143404846Y-175065819D01*
X143387290Y-175059537D01*
X143370435Y-175051565D01*
X143354442Y-175041979D01*
X143339465Y-175030872D01*
X143325650Y-175018350D01*
X143313128Y-175004535D01*
X143302021Y-174989558D01*
X143292435Y-174973565D01*
X143284463Y-174956710D01*
X143278181Y-174939154D01*
X143273651Y-174921067D01*
X143270915Y-174902623D01*
X143270000Y-174884000D01*
X143270000Y-174314000D01*
X143270915Y-174295377D01*
X143273651Y-174276933D01*
X143278181Y-174258846D01*
X143284463Y-174241290D01*
X143292435Y-174224435D01*
X143302021Y-174208442D01*
X143313128Y-174193465D01*
X143325650Y-174179650D01*
X143339465Y-174167128D01*
X143354442Y-174156021D01*
X143370435Y-174146435D01*
X143387290Y-174138463D01*
X143404846Y-174132181D01*
X143422933Y-174127651D01*
X143441377Y-174124915D01*
X143460000Y-174124000D01*
X144830000Y-174124000D01*
X144848623Y-174124915D01*
X144848623Y-174124915D01*
G37*
D13*
X144145000Y-174599000D03*
D10*
G36*
X144848623Y-177224915D02*
G01*
X144867067Y-177227651D01*
X144885154Y-177232181D01*
X144902710Y-177238463D01*
X144919565Y-177246435D01*
X144935558Y-177256021D01*
X144950535Y-177267128D01*
X144964350Y-177279650D01*
X144976872Y-177293465D01*
X144987979Y-177308442D01*
X144997565Y-177324435D01*
X145005537Y-177341290D01*
X145011819Y-177358846D01*
X145016349Y-177376933D01*
X145019085Y-177395377D01*
X145020000Y-177414000D01*
X145020000Y-177984000D01*
X145019085Y-178002623D01*
X145016349Y-178021067D01*
X145011819Y-178039154D01*
X145005537Y-178056710D01*
X144997565Y-178073565D01*
X144987979Y-178089558D01*
X144976872Y-178104535D01*
X144964350Y-178118350D01*
X144950535Y-178130872D01*
X144935558Y-178141979D01*
X144919565Y-178151565D01*
X144902710Y-178159537D01*
X144885154Y-178165819D01*
X144867067Y-178170349D01*
X144848623Y-178173085D01*
X144830000Y-178174000D01*
X143460000Y-178174000D01*
X143441377Y-178173085D01*
X143422933Y-178170349D01*
X143404846Y-178165819D01*
X143387290Y-178159537D01*
X143370435Y-178151565D01*
X143354442Y-178141979D01*
X143339465Y-178130872D01*
X143325650Y-178118350D01*
X143313128Y-178104535D01*
X143302021Y-178089558D01*
X143292435Y-178073565D01*
X143284463Y-178056710D01*
X143278181Y-178039154D01*
X143273651Y-178021067D01*
X143270915Y-178002623D01*
X143270000Y-177984000D01*
X143270000Y-177414000D01*
X143270915Y-177395377D01*
X143273651Y-177376933D01*
X143278181Y-177358846D01*
X143284463Y-177341290D01*
X143292435Y-177324435D01*
X143302021Y-177308442D01*
X143313128Y-177293465D01*
X143325650Y-177279650D01*
X143339465Y-177267128D01*
X143354442Y-177256021D01*
X143370435Y-177246435D01*
X143387290Y-177238463D01*
X143404846Y-177232181D01*
X143422933Y-177227651D01*
X143441377Y-177224915D01*
X143460000Y-177224000D01*
X144830000Y-177224000D01*
X144848623Y-177224915D01*
X144848623Y-177224915D01*
G37*
D13*
X144145000Y-177699000D03*
D10*
G36*
X144848623Y-161144915D02*
G01*
X144867067Y-161147651D01*
X144885154Y-161152181D01*
X144902710Y-161158463D01*
X144919565Y-161166435D01*
X144935558Y-161176021D01*
X144950535Y-161187128D01*
X144964350Y-161199650D01*
X144976872Y-161213465D01*
X144987979Y-161228442D01*
X144997565Y-161244435D01*
X145005537Y-161261290D01*
X145011819Y-161278846D01*
X145016349Y-161296933D01*
X145019085Y-161315377D01*
X145020000Y-161334000D01*
X145020000Y-161904000D01*
X145019085Y-161922623D01*
X145016349Y-161941067D01*
X145011819Y-161959154D01*
X145005537Y-161976710D01*
X144997565Y-161993565D01*
X144987979Y-162009558D01*
X144976872Y-162024535D01*
X144964350Y-162038350D01*
X144950535Y-162050872D01*
X144935558Y-162061979D01*
X144919565Y-162071565D01*
X144902710Y-162079537D01*
X144885154Y-162085819D01*
X144867067Y-162090349D01*
X144848623Y-162093085D01*
X144830000Y-162094000D01*
X143460000Y-162094000D01*
X143441377Y-162093085D01*
X143422933Y-162090349D01*
X143404846Y-162085819D01*
X143387290Y-162079537D01*
X143370435Y-162071565D01*
X143354442Y-162061979D01*
X143339465Y-162050872D01*
X143325650Y-162038350D01*
X143313128Y-162024535D01*
X143302021Y-162009558D01*
X143292435Y-161993565D01*
X143284463Y-161976710D01*
X143278181Y-161959154D01*
X143273651Y-161941067D01*
X143270915Y-161922623D01*
X143270000Y-161904000D01*
X143270000Y-161334000D01*
X143270915Y-161315377D01*
X143273651Y-161296933D01*
X143278181Y-161278846D01*
X143284463Y-161261290D01*
X143292435Y-161244435D01*
X143302021Y-161228442D01*
X143313128Y-161213465D01*
X143325650Y-161199650D01*
X143339465Y-161187128D01*
X143354442Y-161176021D01*
X143370435Y-161166435D01*
X143387290Y-161158463D01*
X143404846Y-161152181D01*
X143422933Y-161147651D01*
X143441377Y-161144915D01*
X143460000Y-161144000D01*
X144830000Y-161144000D01*
X144848623Y-161144915D01*
X144848623Y-161144915D01*
G37*
D13*
X144145000Y-161619000D03*
D10*
G36*
X144848623Y-164244915D02*
G01*
X144867067Y-164247651D01*
X144885154Y-164252181D01*
X144902710Y-164258463D01*
X144919565Y-164266435D01*
X144935558Y-164276021D01*
X144950535Y-164287128D01*
X144964350Y-164299650D01*
X144976872Y-164313465D01*
X144987979Y-164328442D01*
X144997565Y-164344435D01*
X145005537Y-164361290D01*
X145011819Y-164378846D01*
X145016349Y-164396933D01*
X145019085Y-164415377D01*
X145020000Y-164434000D01*
X145020000Y-165004000D01*
X145019085Y-165022623D01*
X145016349Y-165041067D01*
X145011819Y-165059154D01*
X145005537Y-165076710D01*
X144997565Y-165093565D01*
X144987979Y-165109558D01*
X144976872Y-165124535D01*
X144964350Y-165138350D01*
X144950535Y-165150872D01*
X144935558Y-165161979D01*
X144919565Y-165171565D01*
X144902710Y-165179537D01*
X144885154Y-165185819D01*
X144867067Y-165190349D01*
X144848623Y-165193085D01*
X144830000Y-165194000D01*
X143460000Y-165194000D01*
X143441377Y-165193085D01*
X143422933Y-165190349D01*
X143404846Y-165185819D01*
X143387290Y-165179537D01*
X143370435Y-165171565D01*
X143354442Y-165161979D01*
X143339465Y-165150872D01*
X143325650Y-165138350D01*
X143313128Y-165124535D01*
X143302021Y-165109558D01*
X143292435Y-165093565D01*
X143284463Y-165076710D01*
X143278181Y-165059154D01*
X143273651Y-165041067D01*
X143270915Y-165022623D01*
X143270000Y-165004000D01*
X143270000Y-164434000D01*
X143270915Y-164415377D01*
X143273651Y-164396933D01*
X143278181Y-164378846D01*
X143284463Y-164361290D01*
X143292435Y-164344435D01*
X143302021Y-164328442D01*
X143313128Y-164313465D01*
X143325650Y-164299650D01*
X143339465Y-164287128D01*
X143354442Y-164276021D01*
X143370435Y-164266435D01*
X143387290Y-164258463D01*
X143404846Y-164252181D01*
X143422933Y-164247651D01*
X143441377Y-164244915D01*
X143460000Y-164244000D01*
X144830000Y-164244000D01*
X144848623Y-164244915D01*
X144848623Y-164244915D01*
G37*
D13*
X144145000Y-164719000D03*
D10*
G36*
X144848623Y-148470915D02*
G01*
X144867067Y-148473651D01*
X144885154Y-148478181D01*
X144902710Y-148484463D01*
X144919565Y-148492435D01*
X144935558Y-148502021D01*
X144950535Y-148513128D01*
X144964350Y-148525650D01*
X144976872Y-148539465D01*
X144987979Y-148554442D01*
X144997565Y-148570435D01*
X145005537Y-148587290D01*
X145011819Y-148604846D01*
X145016349Y-148622933D01*
X145019085Y-148641377D01*
X145020000Y-148660000D01*
X145020000Y-149230000D01*
X145019085Y-149248623D01*
X145016349Y-149267067D01*
X145011819Y-149285154D01*
X145005537Y-149302710D01*
X144997565Y-149319565D01*
X144987979Y-149335558D01*
X144976872Y-149350535D01*
X144964350Y-149364350D01*
X144950535Y-149376872D01*
X144935558Y-149387979D01*
X144919565Y-149397565D01*
X144902710Y-149405537D01*
X144885154Y-149411819D01*
X144867067Y-149416349D01*
X144848623Y-149419085D01*
X144830000Y-149420000D01*
X143460000Y-149420000D01*
X143441377Y-149419085D01*
X143422933Y-149416349D01*
X143404846Y-149411819D01*
X143387290Y-149405537D01*
X143370435Y-149397565D01*
X143354442Y-149387979D01*
X143339465Y-149376872D01*
X143325650Y-149364350D01*
X143313128Y-149350535D01*
X143302021Y-149335558D01*
X143292435Y-149319565D01*
X143284463Y-149302710D01*
X143278181Y-149285154D01*
X143273651Y-149267067D01*
X143270915Y-149248623D01*
X143270000Y-149230000D01*
X143270000Y-148660000D01*
X143270915Y-148641377D01*
X143273651Y-148622933D01*
X143278181Y-148604846D01*
X143284463Y-148587290D01*
X143292435Y-148570435D01*
X143302021Y-148554442D01*
X143313128Y-148539465D01*
X143325650Y-148525650D01*
X143339465Y-148513128D01*
X143354442Y-148502021D01*
X143370435Y-148492435D01*
X143387290Y-148484463D01*
X143404846Y-148478181D01*
X143422933Y-148473651D01*
X143441377Y-148470915D01*
X143460000Y-148470000D01*
X144830000Y-148470000D01*
X144848623Y-148470915D01*
X144848623Y-148470915D01*
G37*
D13*
X144145000Y-148945000D03*
D10*
G36*
X144848623Y-151570915D02*
G01*
X144867067Y-151573651D01*
X144885154Y-151578181D01*
X144902710Y-151584463D01*
X144919565Y-151592435D01*
X144935558Y-151602021D01*
X144950535Y-151613128D01*
X144964350Y-151625650D01*
X144976872Y-151639465D01*
X144987979Y-151654442D01*
X144997565Y-151670435D01*
X145005537Y-151687290D01*
X145011819Y-151704846D01*
X145016349Y-151722933D01*
X145019085Y-151741377D01*
X145020000Y-151760000D01*
X145020000Y-152330000D01*
X145019085Y-152348623D01*
X145016349Y-152367067D01*
X145011819Y-152385154D01*
X145005537Y-152402710D01*
X144997565Y-152419565D01*
X144987979Y-152435558D01*
X144976872Y-152450535D01*
X144964350Y-152464350D01*
X144950535Y-152476872D01*
X144935558Y-152487979D01*
X144919565Y-152497565D01*
X144902710Y-152505537D01*
X144885154Y-152511819D01*
X144867067Y-152516349D01*
X144848623Y-152519085D01*
X144830000Y-152520000D01*
X143460000Y-152520000D01*
X143441377Y-152519085D01*
X143422933Y-152516349D01*
X143404846Y-152511819D01*
X143387290Y-152505537D01*
X143370435Y-152497565D01*
X143354442Y-152487979D01*
X143339465Y-152476872D01*
X143325650Y-152464350D01*
X143313128Y-152450535D01*
X143302021Y-152435558D01*
X143292435Y-152419565D01*
X143284463Y-152402710D01*
X143278181Y-152385154D01*
X143273651Y-152367067D01*
X143270915Y-152348623D01*
X143270000Y-152330000D01*
X143270000Y-151760000D01*
X143270915Y-151741377D01*
X143273651Y-151722933D01*
X143278181Y-151704846D01*
X143284463Y-151687290D01*
X143292435Y-151670435D01*
X143302021Y-151654442D01*
X143313128Y-151639465D01*
X143325650Y-151625650D01*
X143339465Y-151613128D01*
X143354442Y-151602021D01*
X143370435Y-151592435D01*
X143387290Y-151584463D01*
X143404846Y-151578181D01*
X143422933Y-151573651D01*
X143441377Y-151570915D01*
X143460000Y-151570000D01*
X144830000Y-151570000D01*
X144848623Y-151570915D01*
X144848623Y-151570915D01*
G37*
D13*
X144145000Y-152045000D03*
D10*
G36*
X144848623Y-135516915D02*
G01*
X144867067Y-135519651D01*
X144885154Y-135524181D01*
X144902710Y-135530463D01*
X144919565Y-135538435D01*
X144935558Y-135548021D01*
X144950535Y-135559128D01*
X144964350Y-135571650D01*
X144976872Y-135585465D01*
X144987979Y-135600442D01*
X144997565Y-135616435D01*
X145005537Y-135633290D01*
X145011819Y-135650846D01*
X145016349Y-135668933D01*
X145019085Y-135687377D01*
X145020000Y-135706000D01*
X145020000Y-136276000D01*
X145019085Y-136294623D01*
X145016349Y-136313067D01*
X145011819Y-136331154D01*
X145005537Y-136348710D01*
X144997565Y-136365565D01*
X144987979Y-136381558D01*
X144976872Y-136396535D01*
X144964350Y-136410350D01*
X144950535Y-136422872D01*
X144935558Y-136433979D01*
X144919565Y-136443565D01*
X144902710Y-136451537D01*
X144885154Y-136457819D01*
X144867067Y-136462349D01*
X144848623Y-136465085D01*
X144830000Y-136466000D01*
X143460000Y-136466000D01*
X143441377Y-136465085D01*
X143422933Y-136462349D01*
X143404846Y-136457819D01*
X143387290Y-136451537D01*
X143370435Y-136443565D01*
X143354442Y-136433979D01*
X143339465Y-136422872D01*
X143325650Y-136410350D01*
X143313128Y-136396535D01*
X143302021Y-136381558D01*
X143292435Y-136365565D01*
X143284463Y-136348710D01*
X143278181Y-136331154D01*
X143273651Y-136313067D01*
X143270915Y-136294623D01*
X143270000Y-136276000D01*
X143270000Y-135706000D01*
X143270915Y-135687377D01*
X143273651Y-135668933D01*
X143278181Y-135650846D01*
X143284463Y-135633290D01*
X143292435Y-135616435D01*
X143302021Y-135600442D01*
X143313128Y-135585465D01*
X143325650Y-135571650D01*
X143339465Y-135559128D01*
X143354442Y-135548021D01*
X143370435Y-135538435D01*
X143387290Y-135530463D01*
X143404846Y-135524181D01*
X143422933Y-135519651D01*
X143441377Y-135516915D01*
X143460000Y-135516000D01*
X144830000Y-135516000D01*
X144848623Y-135516915D01*
X144848623Y-135516915D01*
G37*
D13*
X144145000Y-135991000D03*
D10*
G36*
X144848623Y-138616915D02*
G01*
X144867067Y-138619651D01*
X144885154Y-138624181D01*
X144902710Y-138630463D01*
X144919565Y-138638435D01*
X144935558Y-138648021D01*
X144950535Y-138659128D01*
X144964350Y-138671650D01*
X144976872Y-138685465D01*
X144987979Y-138700442D01*
X144997565Y-138716435D01*
X145005537Y-138733290D01*
X145011819Y-138750846D01*
X145016349Y-138768933D01*
X145019085Y-138787377D01*
X145020000Y-138806000D01*
X145020000Y-139376000D01*
X145019085Y-139394623D01*
X145016349Y-139413067D01*
X145011819Y-139431154D01*
X145005537Y-139448710D01*
X144997565Y-139465565D01*
X144987979Y-139481558D01*
X144976872Y-139496535D01*
X144964350Y-139510350D01*
X144950535Y-139522872D01*
X144935558Y-139533979D01*
X144919565Y-139543565D01*
X144902710Y-139551537D01*
X144885154Y-139557819D01*
X144867067Y-139562349D01*
X144848623Y-139565085D01*
X144830000Y-139566000D01*
X143460000Y-139566000D01*
X143441377Y-139565085D01*
X143422933Y-139562349D01*
X143404846Y-139557819D01*
X143387290Y-139551537D01*
X143370435Y-139543565D01*
X143354442Y-139533979D01*
X143339465Y-139522872D01*
X143325650Y-139510350D01*
X143313128Y-139496535D01*
X143302021Y-139481558D01*
X143292435Y-139465565D01*
X143284463Y-139448710D01*
X143278181Y-139431154D01*
X143273651Y-139413067D01*
X143270915Y-139394623D01*
X143270000Y-139376000D01*
X143270000Y-138806000D01*
X143270915Y-138787377D01*
X143273651Y-138768933D01*
X143278181Y-138750846D01*
X143284463Y-138733290D01*
X143292435Y-138716435D01*
X143302021Y-138700442D01*
X143313128Y-138685465D01*
X143325650Y-138671650D01*
X143339465Y-138659128D01*
X143354442Y-138648021D01*
X143370435Y-138638435D01*
X143387290Y-138630463D01*
X143404846Y-138624181D01*
X143422933Y-138619651D01*
X143441377Y-138616915D01*
X143460000Y-138616000D01*
X144830000Y-138616000D01*
X144848623Y-138616915D01*
X144848623Y-138616915D01*
G37*
D13*
X144145000Y-139091000D03*
D10*
G36*
X144848623Y-122816915D02*
G01*
X144867067Y-122819651D01*
X144885154Y-122824181D01*
X144902710Y-122830463D01*
X144919565Y-122838435D01*
X144935558Y-122848021D01*
X144950535Y-122859128D01*
X144964350Y-122871650D01*
X144976872Y-122885465D01*
X144987979Y-122900442D01*
X144997565Y-122916435D01*
X145005537Y-122933290D01*
X145011819Y-122950846D01*
X145016349Y-122968933D01*
X145019085Y-122987377D01*
X145020000Y-123006000D01*
X145020000Y-123576000D01*
X145019085Y-123594623D01*
X145016349Y-123613067D01*
X145011819Y-123631154D01*
X145005537Y-123648710D01*
X144997565Y-123665565D01*
X144987979Y-123681558D01*
X144976872Y-123696535D01*
X144964350Y-123710350D01*
X144950535Y-123722872D01*
X144935558Y-123733979D01*
X144919565Y-123743565D01*
X144902710Y-123751537D01*
X144885154Y-123757819D01*
X144867067Y-123762349D01*
X144848623Y-123765085D01*
X144830000Y-123766000D01*
X143460000Y-123766000D01*
X143441377Y-123765085D01*
X143422933Y-123762349D01*
X143404846Y-123757819D01*
X143387290Y-123751537D01*
X143370435Y-123743565D01*
X143354442Y-123733979D01*
X143339465Y-123722872D01*
X143325650Y-123710350D01*
X143313128Y-123696535D01*
X143302021Y-123681558D01*
X143292435Y-123665565D01*
X143284463Y-123648710D01*
X143278181Y-123631154D01*
X143273651Y-123613067D01*
X143270915Y-123594623D01*
X143270000Y-123576000D01*
X143270000Y-123006000D01*
X143270915Y-122987377D01*
X143273651Y-122968933D01*
X143278181Y-122950846D01*
X143284463Y-122933290D01*
X143292435Y-122916435D01*
X143302021Y-122900442D01*
X143313128Y-122885465D01*
X143325650Y-122871650D01*
X143339465Y-122859128D01*
X143354442Y-122848021D01*
X143370435Y-122838435D01*
X143387290Y-122830463D01*
X143404846Y-122824181D01*
X143422933Y-122819651D01*
X143441377Y-122816915D01*
X143460000Y-122816000D01*
X144830000Y-122816000D01*
X144848623Y-122816915D01*
X144848623Y-122816915D01*
G37*
D13*
X144145000Y-123291000D03*
D10*
G36*
X144848623Y-125916915D02*
G01*
X144867067Y-125919651D01*
X144885154Y-125924181D01*
X144902710Y-125930463D01*
X144919565Y-125938435D01*
X144935558Y-125948021D01*
X144950535Y-125959128D01*
X144964350Y-125971650D01*
X144976872Y-125985465D01*
X144987979Y-126000442D01*
X144997565Y-126016435D01*
X145005537Y-126033290D01*
X145011819Y-126050846D01*
X145016349Y-126068933D01*
X145019085Y-126087377D01*
X145020000Y-126106000D01*
X145020000Y-126676000D01*
X145019085Y-126694623D01*
X145016349Y-126713067D01*
X145011819Y-126731154D01*
X145005537Y-126748710D01*
X144997565Y-126765565D01*
X144987979Y-126781558D01*
X144976872Y-126796535D01*
X144964350Y-126810350D01*
X144950535Y-126822872D01*
X144935558Y-126833979D01*
X144919565Y-126843565D01*
X144902710Y-126851537D01*
X144885154Y-126857819D01*
X144867067Y-126862349D01*
X144848623Y-126865085D01*
X144830000Y-126866000D01*
X143460000Y-126866000D01*
X143441377Y-126865085D01*
X143422933Y-126862349D01*
X143404846Y-126857819D01*
X143387290Y-126851537D01*
X143370435Y-126843565D01*
X143354442Y-126833979D01*
X143339465Y-126822872D01*
X143325650Y-126810350D01*
X143313128Y-126796535D01*
X143302021Y-126781558D01*
X143292435Y-126765565D01*
X143284463Y-126748710D01*
X143278181Y-126731154D01*
X143273651Y-126713067D01*
X143270915Y-126694623D01*
X143270000Y-126676000D01*
X143270000Y-126106000D01*
X143270915Y-126087377D01*
X143273651Y-126068933D01*
X143278181Y-126050846D01*
X143284463Y-126033290D01*
X143292435Y-126016435D01*
X143302021Y-126000442D01*
X143313128Y-125985465D01*
X143325650Y-125971650D01*
X143339465Y-125959128D01*
X143354442Y-125948021D01*
X143370435Y-125938435D01*
X143387290Y-125930463D01*
X143404846Y-125924181D01*
X143422933Y-125919651D01*
X143441377Y-125916915D01*
X143460000Y-125916000D01*
X144830000Y-125916000D01*
X144848623Y-125916915D01*
X144848623Y-125916915D01*
G37*
D13*
X144145000Y-126391000D03*
D10*
G36*
X144848623Y-109862915D02*
G01*
X144867067Y-109865651D01*
X144885154Y-109870181D01*
X144902710Y-109876463D01*
X144919565Y-109884435D01*
X144935558Y-109894021D01*
X144950535Y-109905128D01*
X144964350Y-109917650D01*
X144976872Y-109931465D01*
X144987979Y-109946442D01*
X144997565Y-109962435D01*
X145005537Y-109979290D01*
X145011819Y-109996846D01*
X145016349Y-110014933D01*
X145019085Y-110033377D01*
X145020000Y-110052000D01*
X145020000Y-110622000D01*
X145019085Y-110640623D01*
X145016349Y-110659067D01*
X145011819Y-110677154D01*
X145005537Y-110694710D01*
X144997565Y-110711565D01*
X144987979Y-110727558D01*
X144976872Y-110742535D01*
X144964350Y-110756350D01*
X144950535Y-110768872D01*
X144935558Y-110779979D01*
X144919565Y-110789565D01*
X144902710Y-110797537D01*
X144885154Y-110803819D01*
X144867067Y-110808349D01*
X144848623Y-110811085D01*
X144830000Y-110812000D01*
X143460000Y-110812000D01*
X143441377Y-110811085D01*
X143422933Y-110808349D01*
X143404846Y-110803819D01*
X143387290Y-110797537D01*
X143370435Y-110789565D01*
X143354442Y-110779979D01*
X143339465Y-110768872D01*
X143325650Y-110756350D01*
X143313128Y-110742535D01*
X143302021Y-110727558D01*
X143292435Y-110711565D01*
X143284463Y-110694710D01*
X143278181Y-110677154D01*
X143273651Y-110659067D01*
X143270915Y-110640623D01*
X143270000Y-110622000D01*
X143270000Y-110052000D01*
X143270915Y-110033377D01*
X143273651Y-110014933D01*
X143278181Y-109996846D01*
X143284463Y-109979290D01*
X143292435Y-109962435D01*
X143302021Y-109946442D01*
X143313128Y-109931465D01*
X143325650Y-109917650D01*
X143339465Y-109905128D01*
X143354442Y-109894021D01*
X143370435Y-109884435D01*
X143387290Y-109876463D01*
X143404846Y-109870181D01*
X143422933Y-109865651D01*
X143441377Y-109862915D01*
X143460000Y-109862000D01*
X144830000Y-109862000D01*
X144848623Y-109862915D01*
X144848623Y-109862915D01*
G37*
D13*
X144145000Y-110337000D03*
D10*
G36*
X144848623Y-112962915D02*
G01*
X144867067Y-112965651D01*
X144885154Y-112970181D01*
X144902710Y-112976463D01*
X144919565Y-112984435D01*
X144935558Y-112994021D01*
X144950535Y-113005128D01*
X144964350Y-113017650D01*
X144976872Y-113031465D01*
X144987979Y-113046442D01*
X144997565Y-113062435D01*
X145005537Y-113079290D01*
X145011819Y-113096846D01*
X145016349Y-113114933D01*
X145019085Y-113133377D01*
X145020000Y-113152000D01*
X145020000Y-113722000D01*
X145019085Y-113740623D01*
X145016349Y-113759067D01*
X145011819Y-113777154D01*
X145005537Y-113794710D01*
X144997565Y-113811565D01*
X144987979Y-113827558D01*
X144976872Y-113842535D01*
X144964350Y-113856350D01*
X144950535Y-113868872D01*
X144935558Y-113879979D01*
X144919565Y-113889565D01*
X144902710Y-113897537D01*
X144885154Y-113903819D01*
X144867067Y-113908349D01*
X144848623Y-113911085D01*
X144830000Y-113912000D01*
X143460000Y-113912000D01*
X143441377Y-113911085D01*
X143422933Y-113908349D01*
X143404846Y-113903819D01*
X143387290Y-113897537D01*
X143370435Y-113889565D01*
X143354442Y-113879979D01*
X143339465Y-113868872D01*
X143325650Y-113856350D01*
X143313128Y-113842535D01*
X143302021Y-113827558D01*
X143292435Y-113811565D01*
X143284463Y-113794710D01*
X143278181Y-113777154D01*
X143273651Y-113759067D01*
X143270915Y-113740623D01*
X143270000Y-113722000D01*
X143270000Y-113152000D01*
X143270915Y-113133377D01*
X143273651Y-113114933D01*
X143278181Y-113096846D01*
X143284463Y-113079290D01*
X143292435Y-113062435D01*
X143302021Y-113046442D01*
X143313128Y-113031465D01*
X143325650Y-113017650D01*
X143339465Y-113005128D01*
X143354442Y-112994021D01*
X143370435Y-112984435D01*
X143387290Y-112976463D01*
X143404846Y-112970181D01*
X143422933Y-112965651D01*
X143441377Y-112962915D01*
X143460000Y-112962000D01*
X144830000Y-112962000D01*
X144848623Y-112962915D01*
X144848623Y-112962915D01*
G37*
D13*
X144145000Y-113437000D03*
D10*
G36*
X144848623Y-97162915D02*
G01*
X144867067Y-97165651D01*
X144885154Y-97170181D01*
X144902710Y-97176463D01*
X144919565Y-97184435D01*
X144935558Y-97194021D01*
X144950535Y-97205128D01*
X144964350Y-97217650D01*
X144976872Y-97231465D01*
X144987979Y-97246442D01*
X144997565Y-97262435D01*
X145005537Y-97279290D01*
X145011819Y-97296846D01*
X145016349Y-97314933D01*
X145019085Y-97333377D01*
X145020000Y-97352000D01*
X145020000Y-97922000D01*
X145019085Y-97940623D01*
X145016349Y-97959067D01*
X145011819Y-97977154D01*
X145005537Y-97994710D01*
X144997565Y-98011565D01*
X144987979Y-98027558D01*
X144976872Y-98042535D01*
X144964350Y-98056350D01*
X144950535Y-98068872D01*
X144935558Y-98079979D01*
X144919565Y-98089565D01*
X144902710Y-98097537D01*
X144885154Y-98103819D01*
X144867067Y-98108349D01*
X144848623Y-98111085D01*
X144830000Y-98112000D01*
X143460000Y-98112000D01*
X143441377Y-98111085D01*
X143422933Y-98108349D01*
X143404846Y-98103819D01*
X143387290Y-98097537D01*
X143370435Y-98089565D01*
X143354442Y-98079979D01*
X143339465Y-98068872D01*
X143325650Y-98056350D01*
X143313128Y-98042535D01*
X143302021Y-98027558D01*
X143292435Y-98011565D01*
X143284463Y-97994710D01*
X143278181Y-97977154D01*
X143273651Y-97959067D01*
X143270915Y-97940623D01*
X143270000Y-97922000D01*
X143270000Y-97352000D01*
X143270915Y-97333377D01*
X143273651Y-97314933D01*
X143278181Y-97296846D01*
X143284463Y-97279290D01*
X143292435Y-97262435D01*
X143302021Y-97246442D01*
X143313128Y-97231465D01*
X143325650Y-97217650D01*
X143339465Y-97205128D01*
X143354442Y-97194021D01*
X143370435Y-97184435D01*
X143387290Y-97176463D01*
X143404846Y-97170181D01*
X143422933Y-97165651D01*
X143441377Y-97162915D01*
X143460000Y-97162000D01*
X144830000Y-97162000D01*
X144848623Y-97162915D01*
X144848623Y-97162915D01*
G37*
D13*
X144145000Y-97637000D03*
D10*
G36*
X144848623Y-100262915D02*
G01*
X144867067Y-100265651D01*
X144885154Y-100270181D01*
X144902710Y-100276463D01*
X144919565Y-100284435D01*
X144935558Y-100294021D01*
X144950535Y-100305128D01*
X144964350Y-100317650D01*
X144976872Y-100331465D01*
X144987979Y-100346442D01*
X144997565Y-100362435D01*
X145005537Y-100379290D01*
X145011819Y-100396846D01*
X145016349Y-100414933D01*
X145019085Y-100433377D01*
X145020000Y-100452000D01*
X145020000Y-101022000D01*
X145019085Y-101040623D01*
X145016349Y-101059067D01*
X145011819Y-101077154D01*
X145005537Y-101094710D01*
X144997565Y-101111565D01*
X144987979Y-101127558D01*
X144976872Y-101142535D01*
X144964350Y-101156350D01*
X144950535Y-101168872D01*
X144935558Y-101179979D01*
X144919565Y-101189565D01*
X144902710Y-101197537D01*
X144885154Y-101203819D01*
X144867067Y-101208349D01*
X144848623Y-101211085D01*
X144830000Y-101212000D01*
X143460000Y-101212000D01*
X143441377Y-101211085D01*
X143422933Y-101208349D01*
X143404846Y-101203819D01*
X143387290Y-101197537D01*
X143370435Y-101189565D01*
X143354442Y-101179979D01*
X143339465Y-101168872D01*
X143325650Y-101156350D01*
X143313128Y-101142535D01*
X143302021Y-101127558D01*
X143292435Y-101111565D01*
X143284463Y-101094710D01*
X143278181Y-101077154D01*
X143273651Y-101059067D01*
X143270915Y-101040623D01*
X143270000Y-101022000D01*
X143270000Y-100452000D01*
X143270915Y-100433377D01*
X143273651Y-100414933D01*
X143278181Y-100396846D01*
X143284463Y-100379290D01*
X143292435Y-100362435D01*
X143302021Y-100346442D01*
X143313128Y-100331465D01*
X143325650Y-100317650D01*
X143339465Y-100305128D01*
X143354442Y-100294021D01*
X143370435Y-100284435D01*
X143387290Y-100276463D01*
X143404846Y-100270181D01*
X143422933Y-100265651D01*
X143441377Y-100262915D01*
X143460000Y-100262000D01*
X144830000Y-100262000D01*
X144848623Y-100262915D01*
X144848623Y-100262915D01*
G37*
D13*
X144145000Y-100737000D03*
D10*
G36*
X136294623Y-86882915D02*
G01*
X136313067Y-86885651D01*
X136331154Y-86890181D01*
X136348710Y-86896463D01*
X136365565Y-86904435D01*
X136381558Y-86914021D01*
X136396535Y-86925128D01*
X136410350Y-86937650D01*
X136422872Y-86951465D01*
X136433979Y-86966442D01*
X136443565Y-86982435D01*
X136451537Y-86999290D01*
X136457819Y-87016846D01*
X136462349Y-87034933D01*
X136465085Y-87053377D01*
X136466000Y-87072000D01*
X136466000Y-88442000D01*
X136465085Y-88460623D01*
X136462349Y-88479067D01*
X136457819Y-88497154D01*
X136451537Y-88514710D01*
X136443565Y-88531565D01*
X136433979Y-88547558D01*
X136422872Y-88562535D01*
X136410350Y-88576350D01*
X136396535Y-88588872D01*
X136381558Y-88599979D01*
X136365565Y-88609565D01*
X136348710Y-88617537D01*
X136331154Y-88623819D01*
X136313067Y-88628349D01*
X136294623Y-88631085D01*
X136276000Y-88632000D01*
X135706000Y-88632000D01*
X135687377Y-88631085D01*
X135668933Y-88628349D01*
X135650846Y-88623819D01*
X135633290Y-88617537D01*
X135616435Y-88609565D01*
X135600442Y-88599979D01*
X135585465Y-88588872D01*
X135571650Y-88576350D01*
X135559128Y-88562535D01*
X135548021Y-88547558D01*
X135538435Y-88531565D01*
X135530463Y-88514710D01*
X135524181Y-88497154D01*
X135519651Y-88479067D01*
X135516915Y-88460623D01*
X135516000Y-88442000D01*
X135516000Y-87072000D01*
X135516915Y-87053377D01*
X135519651Y-87034933D01*
X135524181Y-87016846D01*
X135530463Y-86999290D01*
X135538435Y-86982435D01*
X135548021Y-86966442D01*
X135559128Y-86951465D01*
X135571650Y-86937650D01*
X135585465Y-86925128D01*
X135600442Y-86914021D01*
X135616435Y-86904435D01*
X135633290Y-86896463D01*
X135650846Y-86890181D01*
X135668933Y-86885651D01*
X135687377Y-86882915D01*
X135706000Y-86882000D01*
X136276000Y-86882000D01*
X136294623Y-86882915D01*
X136294623Y-86882915D01*
G37*
D13*
X135991000Y-87757000D03*
D10*
G36*
X139394623Y-86882915D02*
G01*
X139413067Y-86885651D01*
X139431154Y-86890181D01*
X139448710Y-86896463D01*
X139465565Y-86904435D01*
X139481558Y-86914021D01*
X139496535Y-86925128D01*
X139510350Y-86937650D01*
X139522872Y-86951465D01*
X139533979Y-86966442D01*
X139543565Y-86982435D01*
X139551537Y-86999290D01*
X139557819Y-87016846D01*
X139562349Y-87034933D01*
X139565085Y-87053377D01*
X139566000Y-87072000D01*
X139566000Y-88442000D01*
X139565085Y-88460623D01*
X139562349Y-88479067D01*
X139557819Y-88497154D01*
X139551537Y-88514710D01*
X139543565Y-88531565D01*
X139533979Y-88547558D01*
X139522872Y-88562535D01*
X139510350Y-88576350D01*
X139496535Y-88588872D01*
X139481558Y-88599979D01*
X139465565Y-88609565D01*
X139448710Y-88617537D01*
X139431154Y-88623819D01*
X139413067Y-88628349D01*
X139394623Y-88631085D01*
X139376000Y-88632000D01*
X138806000Y-88632000D01*
X138787377Y-88631085D01*
X138768933Y-88628349D01*
X138750846Y-88623819D01*
X138733290Y-88617537D01*
X138716435Y-88609565D01*
X138700442Y-88599979D01*
X138685465Y-88588872D01*
X138671650Y-88576350D01*
X138659128Y-88562535D01*
X138648021Y-88547558D01*
X138638435Y-88531565D01*
X138630463Y-88514710D01*
X138624181Y-88497154D01*
X138619651Y-88479067D01*
X138616915Y-88460623D01*
X138616000Y-88442000D01*
X138616000Y-87072000D01*
X138616915Y-87053377D01*
X138619651Y-87034933D01*
X138624181Y-87016846D01*
X138630463Y-86999290D01*
X138638435Y-86982435D01*
X138648021Y-86966442D01*
X138659128Y-86951465D01*
X138671650Y-86937650D01*
X138685465Y-86925128D01*
X138700442Y-86914021D01*
X138716435Y-86904435D01*
X138733290Y-86896463D01*
X138750846Y-86890181D01*
X138768933Y-86885651D01*
X138787377Y-86882915D01*
X138806000Y-86882000D01*
X139376000Y-86882000D01*
X139394623Y-86882915D01*
X139394623Y-86882915D01*
G37*
D13*
X139091000Y-87757000D03*
D10*
G36*
X118514623Y-86882915D02*
G01*
X118533067Y-86885651D01*
X118551154Y-86890181D01*
X118568710Y-86896463D01*
X118585565Y-86904435D01*
X118601558Y-86914021D01*
X118616535Y-86925128D01*
X118630350Y-86937650D01*
X118642872Y-86951465D01*
X118653979Y-86966442D01*
X118663565Y-86982435D01*
X118671537Y-86999290D01*
X118677819Y-87016846D01*
X118682349Y-87034933D01*
X118685085Y-87053377D01*
X118686000Y-87072000D01*
X118686000Y-88442000D01*
X118685085Y-88460623D01*
X118682349Y-88479067D01*
X118677819Y-88497154D01*
X118671537Y-88514710D01*
X118663565Y-88531565D01*
X118653979Y-88547558D01*
X118642872Y-88562535D01*
X118630350Y-88576350D01*
X118616535Y-88588872D01*
X118601558Y-88599979D01*
X118585565Y-88609565D01*
X118568710Y-88617537D01*
X118551154Y-88623819D01*
X118533067Y-88628349D01*
X118514623Y-88631085D01*
X118496000Y-88632000D01*
X117926000Y-88632000D01*
X117907377Y-88631085D01*
X117888933Y-88628349D01*
X117870846Y-88623819D01*
X117853290Y-88617537D01*
X117836435Y-88609565D01*
X117820442Y-88599979D01*
X117805465Y-88588872D01*
X117791650Y-88576350D01*
X117779128Y-88562535D01*
X117768021Y-88547558D01*
X117758435Y-88531565D01*
X117750463Y-88514710D01*
X117744181Y-88497154D01*
X117739651Y-88479067D01*
X117736915Y-88460623D01*
X117736000Y-88442000D01*
X117736000Y-87072000D01*
X117736915Y-87053377D01*
X117739651Y-87034933D01*
X117744181Y-87016846D01*
X117750463Y-86999290D01*
X117758435Y-86982435D01*
X117768021Y-86966442D01*
X117779128Y-86951465D01*
X117791650Y-86937650D01*
X117805465Y-86925128D01*
X117820442Y-86914021D01*
X117836435Y-86904435D01*
X117853290Y-86896463D01*
X117870846Y-86890181D01*
X117888933Y-86885651D01*
X117907377Y-86882915D01*
X117926000Y-86882000D01*
X118496000Y-86882000D01*
X118514623Y-86882915D01*
X118514623Y-86882915D01*
G37*
D13*
X118211000Y-87757000D03*
D10*
G36*
X121614623Y-86882915D02*
G01*
X121633067Y-86885651D01*
X121651154Y-86890181D01*
X121668710Y-86896463D01*
X121685565Y-86904435D01*
X121701558Y-86914021D01*
X121716535Y-86925128D01*
X121730350Y-86937650D01*
X121742872Y-86951465D01*
X121753979Y-86966442D01*
X121763565Y-86982435D01*
X121771537Y-86999290D01*
X121777819Y-87016846D01*
X121782349Y-87034933D01*
X121785085Y-87053377D01*
X121786000Y-87072000D01*
X121786000Y-88442000D01*
X121785085Y-88460623D01*
X121782349Y-88479067D01*
X121777819Y-88497154D01*
X121771537Y-88514710D01*
X121763565Y-88531565D01*
X121753979Y-88547558D01*
X121742872Y-88562535D01*
X121730350Y-88576350D01*
X121716535Y-88588872D01*
X121701558Y-88599979D01*
X121685565Y-88609565D01*
X121668710Y-88617537D01*
X121651154Y-88623819D01*
X121633067Y-88628349D01*
X121614623Y-88631085D01*
X121596000Y-88632000D01*
X121026000Y-88632000D01*
X121007377Y-88631085D01*
X120988933Y-88628349D01*
X120970846Y-88623819D01*
X120953290Y-88617537D01*
X120936435Y-88609565D01*
X120920442Y-88599979D01*
X120905465Y-88588872D01*
X120891650Y-88576350D01*
X120879128Y-88562535D01*
X120868021Y-88547558D01*
X120858435Y-88531565D01*
X120850463Y-88514710D01*
X120844181Y-88497154D01*
X120839651Y-88479067D01*
X120836915Y-88460623D01*
X120836000Y-88442000D01*
X120836000Y-87072000D01*
X120836915Y-87053377D01*
X120839651Y-87034933D01*
X120844181Y-87016846D01*
X120850463Y-86999290D01*
X120858435Y-86982435D01*
X120868021Y-86966442D01*
X120879128Y-86951465D01*
X120891650Y-86937650D01*
X120905465Y-86925128D01*
X120920442Y-86914021D01*
X120936435Y-86904435D01*
X120953290Y-86896463D01*
X120970846Y-86890181D01*
X120988933Y-86885651D01*
X121007377Y-86882915D01*
X121026000Y-86882000D01*
X121596000Y-86882000D01*
X121614623Y-86882915D01*
X121614623Y-86882915D01*
G37*
D13*
X121311000Y-87757000D03*
D10*
G36*
X100226623Y-86882915D02*
G01*
X100245067Y-86885651D01*
X100263154Y-86890181D01*
X100280710Y-86896463D01*
X100297565Y-86904435D01*
X100313558Y-86914021D01*
X100328535Y-86925128D01*
X100342350Y-86937650D01*
X100354872Y-86951465D01*
X100365979Y-86966442D01*
X100375565Y-86982435D01*
X100383537Y-86999290D01*
X100389819Y-87016846D01*
X100394349Y-87034933D01*
X100397085Y-87053377D01*
X100398000Y-87072000D01*
X100398000Y-88442000D01*
X100397085Y-88460623D01*
X100394349Y-88479067D01*
X100389819Y-88497154D01*
X100383537Y-88514710D01*
X100375565Y-88531565D01*
X100365979Y-88547558D01*
X100354872Y-88562535D01*
X100342350Y-88576350D01*
X100328535Y-88588872D01*
X100313558Y-88599979D01*
X100297565Y-88609565D01*
X100280710Y-88617537D01*
X100263154Y-88623819D01*
X100245067Y-88628349D01*
X100226623Y-88631085D01*
X100208000Y-88632000D01*
X99638000Y-88632000D01*
X99619377Y-88631085D01*
X99600933Y-88628349D01*
X99582846Y-88623819D01*
X99565290Y-88617537D01*
X99548435Y-88609565D01*
X99532442Y-88599979D01*
X99517465Y-88588872D01*
X99503650Y-88576350D01*
X99491128Y-88562535D01*
X99480021Y-88547558D01*
X99470435Y-88531565D01*
X99462463Y-88514710D01*
X99456181Y-88497154D01*
X99451651Y-88479067D01*
X99448915Y-88460623D01*
X99448000Y-88442000D01*
X99448000Y-87072000D01*
X99448915Y-87053377D01*
X99451651Y-87034933D01*
X99456181Y-87016846D01*
X99462463Y-86999290D01*
X99470435Y-86982435D01*
X99480021Y-86966442D01*
X99491128Y-86951465D01*
X99503650Y-86937650D01*
X99517465Y-86925128D01*
X99532442Y-86914021D01*
X99548435Y-86904435D01*
X99565290Y-86896463D01*
X99582846Y-86890181D01*
X99600933Y-86885651D01*
X99619377Y-86882915D01*
X99638000Y-86882000D01*
X100208000Y-86882000D01*
X100226623Y-86882915D01*
X100226623Y-86882915D01*
G37*
D13*
X99923000Y-87757000D03*
D10*
G36*
X103326623Y-86882915D02*
G01*
X103345067Y-86885651D01*
X103363154Y-86890181D01*
X103380710Y-86896463D01*
X103397565Y-86904435D01*
X103413558Y-86914021D01*
X103428535Y-86925128D01*
X103442350Y-86937650D01*
X103454872Y-86951465D01*
X103465979Y-86966442D01*
X103475565Y-86982435D01*
X103483537Y-86999290D01*
X103489819Y-87016846D01*
X103494349Y-87034933D01*
X103497085Y-87053377D01*
X103498000Y-87072000D01*
X103498000Y-88442000D01*
X103497085Y-88460623D01*
X103494349Y-88479067D01*
X103489819Y-88497154D01*
X103483537Y-88514710D01*
X103475565Y-88531565D01*
X103465979Y-88547558D01*
X103454872Y-88562535D01*
X103442350Y-88576350D01*
X103428535Y-88588872D01*
X103413558Y-88599979D01*
X103397565Y-88609565D01*
X103380710Y-88617537D01*
X103363154Y-88623819D01*
X103345067Y-88628349D01*
X103326623Y-88631085D01*
X103308000Y-88632000D01*
X102738000Y-88632000D01*
X102719377Y-88631085D01*
X102700933Y-88628349D01*
X102682846Y-88623819D01*
X102665290Y-88617537D01*
X102648435Y-88609565D01*
X102632442Y-88599979D01*
X102617465Y-88588872D01*
X102603650Y-88576350D01*
X102591128Y-88562535D01*
X102580021Y-88547558D01*
X102570435Y-88531565D01*
X102562463Y-88514710D01*
X102556181Y-88497154D01*
X102551651Y-88479067D01*
X102548915Y-88460623D01*
X102548000Y-88442000D01*
X102548000Y-87072000D01*
X102548915Y-87053377D01*
X102551651Y-87034933D01*
X102556181Y-87016846D01*
X102562463Y-86999290D01*
X102570435Y-86982435D01*
X102580021Y-86966442D01*
X102591128Y-86951465D01*
X102603650Y-86937650D01*
X102617465Y-86925128D01*
X102632442Y-86914021D01*
X102648435Y-86904435D01*
X102665290Y-86896463D01*
X102682846Y-86890181D01*
X102700933Y-86885651D01*
X102719377Y-86882915D01*
X102738000Y-86882000D01*
X103308000Y-86882000D01*
X103326623Y-86882915D01*
X103326623Y-86882915D01*
G37*
D13*
X103023000Y-87757000D03*
D10*
G36*
X81938623Y-86882915D02*
G01*
X81957067Y-86885651D01*
X81975154Y-86890181D01*
X81992710Y-86896463D01*
X82009565Y-86904435D01*
X82025558Y-86914021D01*
X82040535Y-86925128D01*
X82054350Y-86937650D01*
X82066872Y-86951465D01*
X82077979Y-86966442D01*
X82087565Y-86982435D01*
X82095537Y-86999290D01*
X82101819Y-87016846D01*
X82106349Y-87034933D01*
X82109085Y-87053377D01*
X82110000Y-87072000D01*
X82110000Y-88442000D01*
X82109085Y-88460623D01*
X82106349Y-88479067D01*
X82101819Y-88497154D01*
X82095537Y-88514710D01*
X82087565Y-88531565D01*
X82077979Y-88547558D01*
X82066872Y-88562535D01*
X82054350Y-88576350D01*
X82040535Y-88588872D01*
X82025558Y-88599979D01*
X82009565Y-88609565D01*
X81992710Y-88617537D01*
X81975154Y-88623819D01*
X81957067Y-88628349D01*
X81938623Y-88631085D01*
X81920000Y-88632000D01*
X81350000Y-88632000D01*
X81331377Y-88631085D01*
X81312933Y-88628349D01*
X81294846Y-88623819D01*
X81277290Y-88617537D01*
X81260435Y-88609565D01*
X81244442Y-88599979D01*
X81229465Y-88588872D01*
X81215650Y-88576350D01*
X81203128Y-88562535D01*
X81192021Y-88547558D01*
X81182435Y-88531565D01*
X81174463Y-88514710D01*
X81168181Y-88497154D01*
X81163651Y-88479067D01*
X81160915Y-88460623D01*
X81160000Y-88442000D01*
X81160000Y-87072000D01*
X81160915Y-87053377D01*
X81163651Y-87034933D01*
X81168181Y-87016846D01*
X81174463Y-86999290D01*
X81182435Y-86982435D01*
X81192021Y-86966442D01*
X81203128Y-86951465D01*
X81215650Y-86937650D01*
X81229465Y-86925128D01*
X81244442Y-86914021D01*
X81260435Y-86904435D01*
X81277290Y-86896463D01*
X81294846Y-86890181D01*
X81312933Y-86885651D01*
X81331377Y-86882915D01*
X81350000Y-86882000D01*
X81920000Y-86882000D01*
X81938623Y-86882915D01*
X81938623Y-86882915D01*
G37*
D13*
X81635000Y-87757000D03*
D10*
G36*
X85038623Y-86882915D02*
G01*
X85057067Y-86885651D01*
X85075154Y-86890181D01*
X85092710Y-86896463D01*
X85109565Y-86904435D01*
X85125558Y-86914021D01*
X85140535Y-86925128D01*
X85154350Y-86937650D01*
X85166872Y-86951465D01*
X85177979Y-86966442D01*
X85187565Y-86982435D01*
X85195537Y-86999290D01*
X85201819Y-87016846D01*
X85206349Y-87034933D01*
X85209085Y-87053377D01*
X85210000Y-87072000D01*
X85210000Y-88442000D01*
X85209085Y-88460623D01*
X85206349Y-88479067D01*
X85201819Y-88497154D01*
X85195537Y-88514710D01*
X85187565Y-88531565D01*
X85177979Y-88547558D01*
X85166872Y-88562535D01*
X85154350Y-88576350D01*
X85140535Y-88588872D01*
X85125558Y-88599979D01*
X85109565Y-88609565D01*
X85092710Y-88617537D01*
X85075154Y-88623819D01*
X85057067Y-88628349D01*
X85038623Y-88631085D01*
X85020000Y-88632000D01*
X84450000Y-88632000D01*
X84431377Y-88631085D01*
X84412933Y-88628349D01*
X84394846Y-88623819D01*
X84377290Y-88617537D01*
X84360435Y-88609565D01*
X84344442Y-88599979D01*
X84329465Y-88588872D01*
X84315650Y-88576350D01*
X84303128Y-88562535D01*
X84292021Y-88547558D01*
X84282435Y-88531565D01*
X84274463Y-88514710D01*
X84268181Y-88497154D01*
X84263651Y-88479067D01*
X84260915Y-88460623D01*
X84260000Y-88442000D01*
X84260000Y-87072000D01*
X84260915Y-87053377D01*
X84263651Y-87034933D01*
X84268181Y-87016846D01*
X84274463Y-86999290D01*
X84282435Y-86982435D01*
X84292021Y-86966442D01*
X84303128Y-86951465D01*
X84315650Y-86937650D01*
X84329465Y-86925128D01*
X84344442Y-86914021D01*
X84360435Y-86904435D01*
X84377290Y-86896463D01*
X84394846Y-86890181D01*
X84412933Y-86885651D01*
X84431377Y-86882915D01*
X84450000Y-86882000D01*
X85020000Y-86882000D01*
X85038623Y-86882915D01*
X85038623Y-86882915D01*
G37*
D13*
X84735000Y-87757000D03*
D10*
G36*
X64158623Y-86882915D02*
G01*
X64177067Y-86885651D01*
X64195154Y-86890181D01*
X64212710Y-86896463D01*
X64229565Y-86904435D01*
X64245558Y-86914021D01*
X64260535Y-86925128D01*
X64274350Y-86937650D01*
X64286872Y-86951465D01*
X64297979Y-86966442D01*
X64307565Y-86982435D01*
X64315537Y-86999290D01*
X64321819Y-87016846D01*
X64326349Y-87034933D01*
X64329085Y-87053377D01*
X64330000Y-87072000D01*
X64330000Y-88442000D01*
X64329085Y-88460623D01*
X64326349Y-88479067D01*
X64321819Y-88497154D01*
X64315537Y-88514710D01*
X64307565Y-88531565D01*
X64297979Y-88547558D01*
X64286872Y-88562535D01*
X64274350Y-88576350D01*
X64260535Y-88588872D01*
X64245558Y-88599979D01*
X64229565Y-88609565D01*
X64212710Y-88617537D01*
X64195154Y-88623819D01*
X64177067Y-88628349D01*
X64158623Y-88631085D01*
X64140000Y-88632000D01*
X63570000Y-88632000D01*
X63551377Y-88631085D01*
X63532933Y-88628349D01*
X63514846Y-88623819D01*
X63497290Y-88617537D01*
X63480435Y-88609565D01*
X63464442Y-88599979D01*
X63449465Y-88588872D01*
X63435650Y-88576350D01*
X63423128Y-88562535D01*
X63412021Y-88547558D01*
X63402435Y-88531565D01*
X63394463Y-88514710D01*
X63388181Y-88497154D01*
X63383651Y-88479067D01*
X63380915Y-88460623D01*
X63380000Y-88442000D01*
X63380000Y-87072000D01*
X63380915Y-87053377D01*
X63383651Y-87034933D01*
X63388181Y-87016846D01*
X63394463Y-86999290D01*
X63402435Y-86982435D01*
X63412021Y-86966442D01*
X63423128Y-86951465D01*
X63435650Y-86937650D01*
X63449465Y-86925128D01*
X63464442Y-86914021D01*
X63480435Y-86904435D01*
X63497290Y-86896463D01*
X63514846Y-86890181D01*
X63532933Y-86885651D01*
X63551377Y-86882915D01*
X63570000Y-86882000D01*
X64140000Y-86882000D01*
X64158623Y-86882915D01*
X64158623Y-86882915D01*
G37*
D13*
X63855000Y-87757000D03*
D10*
G36*
X67258623Y-86882915D02*
G01*
X67277067Y-86885651D01*
X67295154Y-86890181D01*
X67312710Y-86896463D01*
X67329565Y-86904435D01*
X67345558Y-86914021D01*
X67360535Y-86925128D01*
X67374350Y-86937650D01*
X67386872Y-86951465D01*
X67397979Y-86966442D01*
X67407565Y-86982435D01*
X67415537Y-86999290D01*
X67421819Y-87016846D01*
X67426349Y-87034933D01*
X67429085Y-87053377D01*
X67430000Y-87072000D01*
X67430000Y-88442000D01*
X67429085Y-88460623D01*
X67426349Y-88479067D01*
X67421819Y-88497154D01*
X67415537Y-88514710D01*
X67407565Y-88531565D01*
X67397979Y-88547558D01*
X67386872Y-88562535D01*
X67374350Y-88576350D01*
X67360535Y-88588872D01*
X67345558Y-88599979D01*
X67329565Y-88609565D01*
X67312710Y-88617537D01*
X67295154Y-88623819D01*
X67277067Y-88628349D01*
X67258623Y-88631085D01*
X67240000Y-88632000D01*
X66670000Y-88632000D01*
X66651377Y-88631085D01*
X66632933Y-88628349D01*
X66614846Y-88623819D01*
X66597290Y-88617537D01*
X66580435Y-88609565D01*
X66564442Y-88599979D01*
X66549465Y-88588872D01*
X66535650Y-88576350D01*
X66523128Y-88562535D01*
X66512021Y-88547558D01*
X66502435Y-88531565D01*
X66494463Y-88514710D01*
X66488181Y-88497154D01*
X66483651Y-88479067D01*
X66480915Y-88460623D01*
X66480000Y-88442000D01*
X66480000Y-87072000D01*
X66480915Y-87053377D01*
X66483651Y-87034933D01*
X66488181Y-87016846D01*
X66494463Y-86999290D01*
X66502435Y-86982435D01*
X66512021Y-86966442D01*
X66523128Y-86951465D01*
X66535650Y-86937650D01*
X66549465Y-86925128D01*
X66564442Y-86914021D01*
X66580435Y-86904435D01*
X66597290Y-86896463D01*
X66614846Y-86890181D01*
X66632933Y-86885651D01*
X66651377Y-86882915D01*
X66670000Y-86882000D01*
X67240000Y-86882000D01*
X67258623Y-86882915D01*
X67258623Y-86882915D01*
G37*
D13*
X66955000Y-87757000D03*
M02*
