G04 #@! TF.GenerationSoftware,KiCad,Pcbnew,(5.1.2)-1*
G04 #@! TF.CreationDate,2020-06-25T14:26:39+02:00*
G04 #@! TF.ProjectId,projet,70726f6a-6574-42e6-9b69-6361645f7063,rev?*
G04 #@! TF.SameCoordinates,Original*
G04 #@! TF.FileFunction,Legend,Bot*
G04 #@! TF.FilePolarity,Positive*
%FSLAX46Y46*%
G04 Gerber Fmt 4.6, Leading zero omitted, Abs format (unit mm)*
G04 Created by KiCad (PCBNEW (5.1.2)-1) date 2020-06-25 14:26:39*
%MOMM*%
%LPD*%
G04 APERTURE LIST*
%ADD10C,0.150000*%
%ADD11C,0.120000*%
%ADD12C,1.000000*%
G04 APERTURE END LIST*
D10*
X139513023Y-27123380D02*
X139513023Y-26123380D01*
X139132071Y-26123380D01*
X139036833Y-26171000D01*
X138989214Y-26218619D01*
X138941595Y-26313857D01*
X138941595Y-26456714D01*
X138989214Y-26551952D01*
X139036833Y-26599571D01*
X139132071Y-26647190D01*
X139513023Y-26647190D01*
X138370166Y-27123380D02*
X138465404Y-27075761D01*
X138513023Y-27028142D01*
X138560642Y-26932904D01*
X138560642Y-26647190D01*
X138513023Y-26551952D01*
X138465404Y-26504333D01*
X138370166Y-26456714D01*
X138227309Y-26456714D01*
X138132071Y-26504333D01*
X138084452Y-26551952D01*
X138036833Y-26647190D01*
X138036833Y-26932904D01*
X138084452Y-27028142D01*
X138132071Y-27075761D01*
X138227309Y-27123380D01*
X138370166Y-27123380D01*
X137465404Y-27123380D02*
X137560642Y-27075761D01*
X137608261Y-26980523D01*
X137608261Y-26123380D01*
X136941595Y-27123380D02*
X137036833Y-27075761D01*
X137084452Y-27028142D01*
X137132071Y-26932904D01*
X137132071Y-26647190D01*
X137084452Y-26551952D01*
X137036833Y-26504333D01*
X136941595Y-26456714D01*
X136798738Y-26456714D01*
X136703499Y-26504333D01*
X136655880Y-26551952D01*
X136608261Y-26647190D01*
X136608261Y-26932904D01*
X136655880Y-27028142D01*
X136703499Y-27075761D01*
X136798738Y-27123380D01*
X136941595Y-27123380D01*
X136179690Y-26456714D02*
X136179690Y-27123380D01*
X136179690Y-26551952D02*
X136132071Y-26504333D01*
X136036833Y-26456714D01*
X135893976Y-26456714D01*
X135798738Y-26504333D01*
X135751119Y-26599571D01*
X135751119Y-27123380D01*
X134846357Y-27123380D02*
X134846357Y-26599571D01*
X134893976Y-26504333D01*
X134989214Y-26456714D01*
X135179690Y-26456714D01*
X135274928Y-26504333D01*
X134846357Y-27075761D02*
X134941595Y-27123380D01*
X135179690Y-27123380D01*
X135274928Y-27075761D01*
X135322547Y-26980523D01*
X135322547Y-26885285D01*
X135274928Y-26790047D01*
X135179690Y-26742428D01*
X134941595Y-26742428D01*
X134846357Y-26694809D01*
X134370166Y-27123380D02*
X134370166Y-26456714D01*
X134370166Y-26123380D02*
X134417785Y-26171000D01*
X134370166Y-26218619D01*
X134322547Y-26171000D01*
X134370166Y-26123380D01*
X134370166Y-26218619D01*
X133941595Y-27075761D02*
X133846357Y-27123380D01*
X133655880Y-27123380D01*
X133560642Y-27075761D01*
X133513023Y-26980523D01*
X133513023Y-26932904D01*
X133560642Y-26837666D01*
X133655880Y-26790047D01*
X133798738Y-26790047D01*
X133893976Y-26742428D01*
X133941595Y-26647190D01*
X133941595Y-26599571D01*
X133893976Y-26504333D01*
X133798738Y-26456714D01*
X133655880Y-26456714D01*
X133560642Y-26504333D01*
X132703499Y-27075761D02*
X132798738Y-27123380D01*
X132989214Y-27123380D01*
X133084452Y-27075761D01*
X133132071Y-26980523D01*
X133132071Y-26599571D01*
X133084452Y-26504333D01*
X132989214Y-26456714D01*
X132798738Y-26456714D01*
X132703499Y-26504333D01*
X132655880Y-26599571D01*
X132655880Y-26694809D01*
X133132071Y-26790047D01*
X139513023Y-28773380D02*
X139513023Y-27773380D01*
X139036833Y-28106714D02*
X139036833Y-28773380D01*
X139036833Y-28201952D02*
X138989214Y-28154333D01*
X138893976Y-28106714D01*
X138751119Y-28106714D01*
X138655880Y-28154333D01*
X138608261Y-28249571D01*
X138608261Y-28773380D01*
X138227309Y-28106714D02*
X137989214Y-28773380D01*
X137751119Y-28106714D01*
X136989214Y-28725761D02*
X137084452Y-28773380D01*
X137274928Y-28773380D01*
X137370166Y-28725761D01*
X137417785Y-28630523D01*
X137417785Y-28249571D01*
X137370166Y-28154333D01*
X137274928Y-28106714D01*
X137084452Y-28106714D01*
X136989214Y-28154333D01*
X136941595Y-28249571D01*
X136941595Y-28344809D01*
X137417785Y-28440047D01*
X136513023Y-28773380D02*
X136513023Y-28106714D01*
X136513023Y-28297190D02*
X136465404Y-28201952D01*
X136417785Y-28154333D01*
X136322547Y-28106714D01*
X136227309Y-28106714D01*
X135941595Y-28725761D02*
X135846357Y-28773380D01*
X135655880Y-28773380D01*
X135560642Y-28725761D01*
X135513023Y-28630523D01*
X135513023Y-28582904D01*
X135560642Y-28487666D01*
X135655880Y-28440047D01*
X135798738Y-28440047D01*
X135893976Y-28392428D01*
X135941595Y-28297190D01*
X135941595Y-28249571D01*
X135893976Y-28154333D01*
X135798738Y-28106714D01*
X135655880Y-28106714D01*
X135560642Y-28154333D01*
X134703499Y-28725761D02*
X134798738Y-28773380D01*
X134989214Y-28773380D01*
X135084452Y-28725761D01*
X135132071Y-28630523D01*
X135132071Y-28249571D01*
X135084452Y-28154333D01*
X134989214Y-28106714D01*
X134798738Y-28106714D01*
X134703499Y-28154333D01*
X134655880Y-28249571D01*
X134655880Y-28344809D01*
X135132071Y-28440047D01*
X133608261Y-27773380D02*
X133274928Y-28773380D01*
X132941595Y-27773380D01*
X132417785Y-27773380D02*
X132322547Y-27773380D01*
X132227309Y-27821000D01*
X132179690Y-27868619D01*
X132132071Y-27963857D01*
X132084452Y-28154333D01*
X132084452Y-28392428D01*
X132132071Y-28582904D01*
X132179690Y-28678142D01*
X132227309Y-28725761D01*
X132322547Y-28773380D01*
X132417785Y-28773380D01*
X132513023Y-28725761D01*
X132560642Y-28678142D01*
X132608261Y-28582904D01*
X132655880Y-28392428D01*
X132655880Y-28154333D01*
X132608261Y-27963857D01*
X132560642Y-27868619D01*
X132513023Y-27821000D01*
X132417785Y-27773380D01*
X131655880Y-28678142D02*
X131608261Y-28725761D01*
X131655880Y-28773380D01*
X131703499Y-28725761D01*
X131655880Y-28678142D01*
X131655880Y-28773380D01*
X130751119Y-28106714D02*
X130751119Y-28773380D01*
X130989214Y-27725761D02*
X131227309Y-28440047D01*
X130608261Y-28440047D01*
X139513023Y-30423380D02*
X139513023Y-29423380D01*
X139179690Y-30137666D01*
X138846357Y-29423380D01*
X138846357Y-30423380D01*
X138417785Y-30137666D02*
X137941595Y-30137666D01*
X138513023Y-30423380D02*
X138179690Y-29423380D01*
X137846357Y-30423380D01*
X137560642Y-30375761D02*
X137417785Y-30423380D01*
X137179690Y-30423380D01*
X137084452Y-30375761D01*
X137036833Y-30328142D01*
X136989214Y-30232904D01*
X136989214Y-30137666D01*
X137036833Y-30042428D01*
X137084452Y-29994809D01*
X137179690Y-29947190D01*
X137370166Y-29899571D01*
X137465404Y-29851952D01*
X137513023Y-29804333D01*
X137560642Y-29709095D01*
X137560642Y-29613857D01*
X137513023Y-29518619D01*
X137465404Y-29471000D01*
X137370166Y-29423380D01*
X137132071Y-29423380D01*
X136989214Y-29471000D01*
X135798738Y-30042428D02*
X135036833Y-30042428D01*
X133465404Y-29899571D02*
X133798738Y-29899571D01*
X133798738Y-30423380D02*
X133798738Y-29423380D01*
X133322547Y-29423380D01*
X132941595Y-30423380D02*
X132941595Y-29756714D01*
X132941595Y-29947190D02*
X132893976Y-29851952D01*
X132846357Y-29804333D01*
X132751119Y-29756714D01*
X132655880Y-29756714D01*
X131893976Y-30423380D02*
X131893976Y-29899571D01*
X131941595Y-29804333D01*
X132036833Y-29756714D01*
X132227309Y-29756714D01*
X132322547Y-29804333D01*
X131893976Y-30375761D02*
X131989214Y-30423380D01*
X132227309Y-30423380D01*
X132322547Y-30375761D01*
X132370166Y-30280523D01*
X132370166Y-30185285D01*
X132322547Y-30090047D01*
X132227309Y-30042428D01*
X131989214Y-30042428D01*
X131893976Y-29994809D01*
X131417785Y-29756714D02*
X131417785Y-30423380D01*
X131417785Y-29851952D02*
X131370166Y-29804333D01*
X131274928Y-29756714D01*
X131132071Y-29756714D01*
X131036833Y-29804333D01*
X130989214Y-29899571D01*
X130989214Y-30423380D01*
X130513023Y-30423380D02*
X130513023Y-29423380D01*
X130417785Y-30042428D02*
X130132071Y-30423380D01*
X130132071Y-29756714D02*
X130513023Y-30137666D01*
X129560642Y-30423380D02*
X129655880Y-30375761D01*
X129703499Y-30280523D01*
X129703499Y-29423380D01*
X129179690Y-30423380D02*
X129179690Y-29756714D01*
X129179690Y-29423380D02*
X129227309Y-29471000D01*
X129179690Y-29518619D01*
X129132071Y-29471000D01*
X129179690Y-29423380D01*
X129179690Y-29518619D01*
X128703499Y-29756714D02*
X128703499Y-30423380D01*
X128703499Y-29851952D02*
X128655880Y-29804333D01*
X128560642Y-29756714D01*
X128417785Y-29756714D01*
X128322547Y-29804333D01*
X128274928Y-29899571D01*
X128274928Y-30423380D01*
X127655880Y-29994809D02*
X127703499Y-30042428D01*
X127655880Y-30090047D01*
X127608261Y-30042428D01*
X127655880Y-29994809D01*
X127655880Y-30090047D01*
X126655880Y-30375761D02*
X126751119Y-30423380D01*
X126941595Y-30423380D01*
X127036833Y-30375761D01*
X127084452Y-30280523D01*
X127084452Y-29899571D01*
X127036833Y-29804333D01*
X126941595Y-29756714D01*
X126751119Y-29756714D01*
X126655880Y-29804333D01*
X126608261Y-29899571D01*
X126608261Y-29994809D01*
X127084452Y-30090047D01*
X125084452Y-29899571D02*
X124941595Y-29947190D01*
X124893976Y-29994809D01*
X124846357Y-30090047D01*
X124846357Y-30232904D01*
X124893976Y-30328142D01*
X124941595Y-30375761D01*
X125036833Y-30423380D01*
X125417785Y-30423380D01*
X125417785Y-29423380D01*
X125084452Y-29423380D01*
X124989214Y-29471000D01*
X124941595Y-29518619D01*
X124893976Y-29613857D01*
X124893976Y-29709095D01*
X124941595Y-29804333D01*
X124989214Y-29851952D01*
X125084452Y-29899571D01*
X125417785Y-29899571D01*
X124036833Y-30375761D02*
X124132071Y-30423380D01*
X124322547Y-30423380D01*
X124417785Y-30375761D01*
X124465404Y-30280523D01*
X124465404Y-29899571D01*
X124417785Y-29804333D01*
X124322547Y-29756714D01*
X124132071Y-29756714D01*
X124036833Y-29804333D01*
X123989214Y-29899571D01*
X123989214Y-29994809D01*
X124465404Y-30090047D01*
X123560642Y-30423380D02*
X123560642Y-29756714D01*
X123560642Y-29947190D02*
X123513023Y-29851952D01*
X123465404Y-29804333D01*
X123370166Y-29756714D01*
X123274928Y-29756714D01*
X122513023Y-29756714D02*
X122513023Y-30566238D01*
X122560642Y-30661476D01*
X122608261Y-30709095D01*
X122703499Y-30756714D01*
X122846357Y-30756714D01*
X122941595Y-30709095D01*
X122513023Y-30375761D02*
X122608261Y-30423380D01*
X122798738Y-30423380D01*
X122893976Y-30375761D01*
X122941595Y-30328142D01*
X122989214Y-30232904D01*
X122989214Y-29947190D01*
X122941595Y-29851952D01*
X122893976Y-29804333D01*
X122798738Y-29756714D01*
X122608261Y-29756714D01*
X122513023Y-29804333D01*
X121655880Y-30375761D02*
X121751119Y-30423380D01*
X121941595Y-30423380D01*
X122036833Y-30375761D01*
X122084452Y-30280523D01*
X122084452Y-29899571D01*
X122036833Y-29804333D01*
X121941595Y-29756714D01*
X121751119Y-29756714D01*
X121655880Y-29804333D01*
X121608261Y-29899571D01*
X121608261Y-29994809D01*
X122084452Y-30090047D01*
X121179690Y-30423380D02*
X121179690Y-29756714D01*
X121179690Y-29947190D02*
X121132071Y-29851952D01*
X121084452Y-29804333D01*
X120989214Y-29756714D01*
X120893976Y-29756714D01*
D11*
X110366000Y-23130000D02*
X107566000Y-23130000D01*
X107566000Y-23130000D02*
X107566000Y-25130000D01*
X107566000Y-25130000D02*
X110366000Y-25130000D01*
X110366000Y-25130000D02*
X110366000Y-23130000D01*
X102397936Y-91290000D02*
X103602064Y-91290000D01*
X102397936Y-93110000D02*
X103602064Y-93110000D01*
X92410436Y-85190000D02*
X93614564Y-85190000D01*
X92410436Y-87010000D02*
X93614564Y-87010000D01*
X138597936Y-91290000D02*
X139802064Y-91290000D01*
X138597936Y-93110000D02*
X139802064Y-93110000D01*
X128497936Y-85190000D02*
X129702064Y-85190000D01*
X128497936Y-87010000D02*
X129702064Y-87010000D01*
X84285436Y-91490000D02*
X85489564Y-91490000D01*
X84285436Y-93310000D02*
X85489564Y-93310000D01*
X80214564Y-83610000D02*
X79010436Y-83610000D01*
X80214564Y-81790000D02*
X79010436Y-81790000D01*
X120497936Y-91390000D02*
X121702064Y-91390000D01*
X120497936Y-93210000D02*
X121702064Y-93210000D01*
X110710436Y-85190000D02*
X111914564Y-85190000D01*
X110710436Y-87010000D02*
X111914564Y-87010000D01*
X66197936Y-91490000D02*
X67402064Y-91490000D01*
X66197936Y-93310000D02*
X67402064Y-93310000D01*
X56210436Y-85490000D02*
X57414564Y-85490000D01*
X56210436Y-87310000D02*
X57414564Y-87310000D01*
X134930000Y-87260000D02*
X134930000Y-85800000D01*
X131770000Y-87260000D02*
X131770000Y-84100000D01*
X131770000Y-87260000D02*
X132700000Y-87260000D01*
X134930000Y-87260000D02*
X134000000Y-87260000D01*
X117130000Y-87260000D02*
X117130000Y-85800000D01*
X113970000Y-87260000D02*
X113970000Y-84100000D01*
X113970000Y-87260000D02*
X114900000Y-87260000D01*
X117130000Y-87260000D02*
X116200000Y-87260000D01*
X98880000Y-87260000D02*
X98880000Y-85800000D01*
X95720000Y-87260000D02*
X95720000Y-84100000D01*
X95720000Y-87260000D02*
X96650000Y-87260000D01*
X98880000Y-87260000D02*
X97950000Y-87260000D01*
X80580000Y-87860000D02*
X80580000Y-86400000D01*
X77420000Y-87860000D02*
X77420000Y-84700000D01*
X77420000Y-87860000D02*
X78350000Y-87860000D01*
X80580000Y-87860000D02*
X79650000Y-87860000D01*
X62680000Y-87560000D02*
X62680000Y-86100000D01*
X59520000Y-87560000D02*
X59520000Y-84400000D01*
X59520000Y-87560000D02*
X60450000Y-87560000D01*
X62680000Y-87560000D02*
X61750000Y-87560000D01*
X62988000Y-45941000D02*
X139988000Y-45941000D01*
X62988000Y-25941000D02*
X62988000Y-45941000D01*
X139988000Y-25941000D02*
X62988000Y-25941000D01*
X139988000Y-45941000D02*
X139988000Y-25941000D01*
X146029000Y-176714564D02*
X146029000Y-175510436D01*
X147849000Y-176714564D02*
X147849000Y-175510436D01*
X146029000Y-163833564D02*
X146029000Y-162629436D01*
X147849000Y-163833564D02*
X147849000Y-162629436D01*
X146029000Y-151133564D02*
X146029000Y-149929436D01*
X147849000Y-151133564D02*
X147849000Y-149929436D01*
X146029000Y-138179564D02*
X146029000Y-136975436D01*
X147849000Y-138179564D02*
X147849000Y-136975436D01*
X146029000Y-125479564D02*
X146029000Y-124275436D01*
X147849000Y-125479564D02*
X147849000Y-124275436D01*
X146029000Y-112489064D02*
X146029000Y-111284936D01*
X147849000Y-112489064D02*
X147849000Y-111284936D01*
X146029000Y-100079564D02*
X146029000Y-98875436D01*
X147849000Y-100079564D02*
X147849000Y-98875436D01*
X138179564Y-85873000D02*
X136975436Y-85873000D01*
X138179564Y-84053000D02*
X136975436Y-84053000D01*
X120399564Y-85873000D02*
X119195436Y-85873000D01*
X120399564Y-84053000D02*
X119195436Y-84053000D01*
X102111564Y-85873000D02*
X100907436Y-85873000D01*
X102111564Y-84053000D02*
X100907436Y-84053000D01*
X83823564Y-85873000D02*
X82619436Y-85873000D01*
X83823564Y-84053000D02*
X82619436Y-84053000D01*
X65916564Y-85873000D02*
X64712436Y-85873000D01*
X65916564Y-84053000D02*
X64712436Y-84053000D01*
X149011000Y-83963000D02*
X146211000Y-83963000D01*
X146211000Y-83963000D02*
X146211000Y-85963000D01*
X146211000Y-85963000D02*
X149011000Y-85963000D01*
X149011000Y-85963000D02*
X149011000Y-83963000D01*
X114813000Y-25130000D02*
X117613000Y-25130000D01*
X117613000Y-25130000D02*
X117613000Y-23130000D01*
X117613000Y-23130000D02*
X114813000Y-23130000D01*
X114813000Y-23130000D02*
X114813000Y-25130000D01*
X142685000Y-178434000D02*
X142685000Y-174549000D01*
X145605000Y-178434000D02*
X142685000Y-178434000D01*
X145605000Y-174549000D02*
X145605000Y-178434000D01*
X142685000Y-165454000D02*
X142685000Y-161569000D01*
X145605000Y-165454000D02*
X142685000Y-165454000D01*
X145605000Y-161569000D02*
X145605000Y-165454000D01*
X142685000Y-152780000D02*
X142685000Y-148895000D01*
X145605000Y-152780000D02*
X142685000Y-152780000D01*
X145605000Y-148895000D02*
X145605000Y-152780000D01*
X142685000Y-139826000D02*
X142685000Y-135941000D01*
X145605000Y-139826000D02*
X142685000Y-139826000D01*
X145605000Y-135941000D02*
X145605000Y-139826000D01*
X142685000Y-127126000D02*
X142685000Y-123241000D01*
X145605000Y-127126000D02*
X142685000Y-127126000D01*
X145605000Y-123241000D02*
X145605000Y-127126000D01*
X142685000Y-114172000D02*
X142685000Y-110287000D01*
X145605000Y-114172000D02*
X142685000Y-114172000D01*
X145605000Y-110287000D02*
X145605000Y-114172000D01*
X142685000Y-101472000D02*
X142685000Y-97587000D01*
X145605000Y-101472000D02*
X142685000Y-101472000D01*
X145605000Y-97587000D02*
X145605000Y-101472000D01*
X139826000Y-89217000D02*
X135941000Y-89217000D01*
X139826000Y-86297000D02*
X139826000Y-89217000D01*
X135941000Y-86297000D02*
X139826000Y-86297000D01*
X122046000Y-89217000D02*
X118161000Y-89217000D01*
X122046000Y-86297000D02*
X122046000Y-89217000D01*
X118161000Y-86297000D02*
X122046000Y-86297000D01*
X103758000Y-89217000D02*
X99873000Y-89217000D01*
X103758000Y-86297000D02*
X103758000Y-89217000D01*
X99873000Y-86297000D02*
X103758000Y-86297000D01*
X85470000Y-89217000D02*
X81585000Y-89217000D01*
X85470000Y-86297000D02*
X85470000Y-89217000D01*
X81585000Y-86297000D02*
X85470000Y-86297000D01*
X67690000Y-89217000D02*
X63805000Y-89217000D01*
X67690000Y-86297000D02*
X67690000Y-89217000D01*
X63805000Y-86297000D02*
X67690000Y-86297000D01*
D10*
X109799333Y-21931380D02*
X109799333Y-22645666D01*
X109846952Y-22788523D01*
X109942190Y-22883761D01*
X110085047Y-22931380D01*
X110180285Y-22931380D01*
X109323142Y-22931380D02*
X109323142Y-21931380D01*
X108942190Y-21931380D01*
X108846952Y-21979000D01*
X108799333Y-22026619D01*
X108751714Y-22121857D01*
X108751714Y-22264714D01*
X108799333Y-22359952D01*
X108846952Y-22407571D01*
X108942190Y-22455190D01*
X109323142Y-22455190D01*
X108418380Y-21931380D02*
X107799333Y-21931380D01*
X108132666Y-22312333D01*
X107989809Y-22312333D01*
X107894571Y-22359952D01*
X107846952Y-22407571D01*
X107799333Y-22502809D01*
X107799333Y-22740904D01*
X107846952Y-22836142D01*
X107894571Y-22883761D01*
X107989809Y-22931380D01*
X108275523Y-22931380D01*
X108370761Y-22883761D01*
X108418380Y-22836142D01*
X103642857Y-94472380D02*
X103976190Y-93996190D01*
X104214285Y-94472380D02*
X104214285Y-93472380D01*
X103833333Y-93472380D01*
X103738095Y-93520000D01*
X103690476Y-93567619D01*
X103642857Y-93662857D01*
X103642857Y-93805714D01*
X103690476Y-93900952D01*
X103738095Y-93948571D01*
X103833333Y-93996190D01*
X104214285Y-93996190D01*
X103309523Y-93472380D02*
X102690476Y-93472380D01*
X103023809Y-93853333D01*
X102880952Y-93853333D01*
X102785714Y-93900952D01*
X102738095Y-93948571D01*
X102690476Y-94043809D01*
X102690476Y-94281904D01*
X102738095Y-94377142D01*
X102785714Y-94424761D01*
X102880952Y-94472380D01*
X103166666Y-94472380D01*
X103261904Y-94424761D01*
X103309523Y-94377142D01*
X101833333Y-93805714D02*
X101833333Y-94472380D01*
X102071428Y-93424761D02*
X102309523Y-94139047D01*
X101690476Y-94139047D01*
X93655357Y-88372380D02*
X93988690Y-87896190D01*
X94226785Y-88372380D02*
X94226785Y-87372380D01*
X93845833Y-87372380D01*
X93750595Y-87420000D01*
X93702976Y-87467619D01*
X93655357Y-87562857D01*
X93655357Y-87705714D01*
X93702976Y-87800952D01*
X93750595Y-87848571D01*
X93845833Y-87896190D01*
X94226785Y-87896190D01*
X93322023Y-87372380D02*
X92702976Y-87372380D01*
X93036309Y-87753333D01*
X92893452Y-87753333D01*
X92798214Y-87800952D01*
X92750595Y-87848571D01*
X92702976Y-87943809D01*
X92702976Y-88181904D01*
X92750595Y-88277142D01*
X92798214Y-88324761D01*
X92893452Y-88372380D01*
X93179166Y-88372380D01*
X93274404Y-88324761D01*
X93322023Y-88277142D01*
X92369642Y-87372380D02*
X91750595Y-87372380D01*
X92083928Y-87753333D01*
X91941071Y-87753333D01*
X91845833Y-87800952D01*
X91798214Y-87848571D01*
X91750595Y-87943809D01*
X91750595Y-88181904D01*
X91798214Y-88277142D01*
X91845833Y-88324761D01*
X91941071Y-88372380D01*
X92226785Y-88372380D01*
X92322023Y-88324761D01*
X92369642Y-88277142D01*
X139842857Y-94472380D02*
X140176190Y-93996190D01*
X140414285Y-94472380D02*
X140414285Y-93472380D01*
X140033333Y-93472380D01*
X139938095Y-93520000D01*
X139890476Y-93567619D01*
X139842857Y-93662857D01*
X139842857Y-93805714D01*
X139890476Y-93900952D01*
X139938095Y-93948571D01*
X140033333Y-93996190D01*
X140414285Y-93996190D01*
X139509523Y-93472380D02*
X138890476Y-93472380D01*
X139223809Y-93853333D01*
X139080952Y-93853333D01*
X138985714Y-93900952D01*
X138938095Y-93948571D01*
X138890476Y-94043809D01*
X138890476Y-94281904D01*
X138938095Y-94377142D01*
X138985714Y-94424761D01*
X139080952Y-94472380D01*
X139366666Y-94472380D01*
X139461904Y-94424761D01*
X139509523Y-94377142D01*
X138509523Y-93567619D02*
X138461904Y-93520000D01*
X138366666Y-93472380D01*
X138128571Y-93472380D01*
X138033333Y-93520000D01*
X137985714Y-93567619D01*
X137938095Y-93662857D01*
X137938095Y-93758095D01*
X137985714Y-93900952D01*
X138557142Y-94472380D01*
X137938095Y-94472380D01*
X129742857Y-88372380D02*
X130076190Y-87896190D01*
X130314285Y-88372380D02*
X130314285Y-87372380D01*
X129933333Y-87372380D01*
X129838095Y-87420000D01*
X129790476Y-87467619D01*
X129742857Y-87562857D01*
X129742857Y-87705714D01*
X129790476Y-87800952D01*
X129838095Y-87848571D01*
X129933333Y-87896190D01*
X130314285Y-87896190D01*
X129409523Y-87372380D02*
X128790476Y-87372380D01*
X129123809Y-87753333D01*
X128980952Y-87753333D01*
X128885714Y-87800952D01*
X128838095Y-87848571D01*
X128790476Y-87943809D01*
X128790476Y-88181904D01*
X128838095Y-88277142D01*
X128885714Y-88324761D01*
X128980952Y-88372380D01*
X129266666Y-88372380D01*
X129361904Y-88324761D01*
X129409523Y-88277142D01*
X127838095Y-88372380D02*
X128409523Y-88372380D01*
X128123809Y-88372380D02*
X128123809Y-87372380D01*
X128219047Y-87515238D01*
X128314285Y-87610476D01*
X128409523Y-87658095D01*
X85530357Y-94672380D02*
X85863690Y-94196190D01*
X86101785Y-94672380D02*
X86101785Y-93672380D01*
X85720833Y-93672380D01*
X85625595Y-93720000D01*
X85577976Y-93767619D01*
X85530357Y-93862857D01*
X85530357Y-94005714D01*
X85577976Y-94100952D01*
X85625595Y-94148571D01*
X85720833Y-94196190D01*
X86101785Y-94196190D01*
X85197023Y-93672380D02*
X84577976Y-93672380D01*
X84911309Y-94053333D01*
X84768452Y-94053333D01*
X84673214Y-94100952D01*
X84625595Y-94148571D01*
X84577976Y-94243809D01*
X84577976Y-94481904D01*
X84625595Y-94577142D01*
X84673214Y-94624761D01*
X84768452Y-94672380D01*
X85054166Y-94672380D01*
X85149404Y-94624761D01*
X85197023Y-94577142D01*
X83958928Y-93672380D02*
X83863690Y-93672380D01*
X83768452Y-93720000D01*
X83720833Y-93767619D01*
X83673214Y-93862857D01*
X83625595Y-94053333D01*
X83625595Y-94291428D01*
X83673214Y-94481904D01*
X83720833Y-94577142D01*
X83768452Y-94624761D01*
X83863690Y-94672380D01*
X83958928Y-94672380D01*
X84054166Y-94624761D01*
X84101785Y-94577142D01*
X84149404Y-94481904D01*
X84197023Y-94291428D01*
X84197023Y-94053333D01*
X84149404Y-93862857D01*
X84101785Y-93767619D01*
X84054166Y-93720000D01*
X83958928Y-93672380D01*
X80255357Y-81332380D02*
X80588690Y-80856190D01*
X80826785Y-81332380D02*
X80826785Y-80332380D01*
X80445833Y-80332380D01*
X80350595Y-80380000D01*
X80302976Y-80427619D01*
X80255357Y-80522857D01*
X80255357Y-80665714D01*
X80302976Y-80760952D01*
X80350595Y-80808571D01*
X80445833Y-80856190D01*
X80826785Y-80856190D01*
X79874404Y-80427619D02*
X79826785Y-80380000D01*
X79731547Y-80332380D01*
X79493452Y-80332380D01*
X79398214Y-80380000D01*
X79350595Y-80427619D01*
X79302976Y-80522857D01*
X79302976Y-80618095D01*
X79350595Y-80760952D01*
X79922023Y-81332380D01*
X79302976Y-81332380D01*
X78826785Y-81332380D02*
X78636309Y-81332380D01*
X78541071Y-81284761D01*
X78493452Y-81237142D01*
X78398214Y-81094285D01*
X78350595Y-80903809D01*
X78350595Y-80522857D01*
X78398214Y-80427619D01*
X78445833Y-80380000D01*
X78541071Y-80332380D01*
X78731547Y-80332380D01*
X78826785Y-80380000D01*
X78874404Y-80427619D01*
X78922023Y-80522857D01*
X78922023Y-80760952D01*
X78874404Y-80856190D01*
X78826785Y-80903809D01*
X78731547Y-80951428D01*
X78541071Y-80951428D01*
X78445833Y-80903809D01*
X78398214Y-80856190D01*
X78350595Y-80760952D01*
X121742857Y-94572380D02*
X122076190Y-94096190D01*
X122314285Y-94572380D02*
X122314285Y-93572380D01*
X121933333Y-93572380D01*
X121838095Y-93620000D01*
X121790476Y-93667619D01*
X121742857Y-93762857D01*
X121742857Y-93905714D01*
X121790476Y-94000952D01*
X121838095Y-94048571D01*
X121933333Y-94096190D01*
X122314285Y-94096190D01*
X121361904Y-93667619D02*
X121314285Y-93620000D01*
X121219047Y-93572380D01*
X120980952Y-93572380D01*
X120885714Y-93620000D01*
X120838095Y-93667619D01*
X120790476Y-93762857D01*
X120790476Y-93858095D01*
X120838095Y-94000952D01*
X121409523Y-94572380D01*
X120790476Y-94572380D01*
X120219047Y-94000952D02*
X120314285Y-93953333D01*
X120361904Y-93905714D01*
X120409523Y-93810476D01*
X120409523Y-93762857D01*
X120361904Y-93667619D01*
X120314285Y-93620000D01*
X120219047Y-93572380D01*
X120028571Y-93572380D01*
X119933333Y-93620000D01*
X119885714Y-93667619D01*
X119838095Y-93762857D01*
X119838095Y-93810476D01*
X119885714Y-93905714D01*
X119933333Y-93953333D01*
X120028571Y-94000952D01*
X120219047Y-94000952D01*
X120314285Y-94048571D01*
X120361904Y-94096190D01*
X120409523Y-94191428D01*
X120409523Y-94381904D01*
X120361904Y-94477142D01*
X120314285Y-94524761D01*
X120219047Y-94572380D01*
X120028571Y-94572380D01*
X119933333Y-94524761D01*
X119885714Y-94477142D01*
X119838095Y-94381904D01*
X119838095Y-94191428D01*
X119885714Y-94096190D01*
X119933333Y-94048571D01*
X120028571Y-94000952D01*
X111955357Y-88372380D02*
X112288690Y-87896190D01*
X112526785Y-88372380D02*
X112526785Y-87372380D01*
X112145833Y-87372380D01*
X112050595Y-87420000D01*
X112002976Y-87467619D01*
X111955357Y-87562857D01*
X111955357Y-87705714D01*
X112002976Y-87800952D01*
X112050595Y-87848571D01*
X112145833Y-87896190D01*
X112526785Y-87896190D01*
X111574404Y-87467619D02*
X111526785Y-87420000D01*
X111431547Y-87372380D01*
X111193452Y-87372380D01*
X111098214Y-87420000D01*
X111050595Y-87467619D01*
X111002976Y-87562857D01*
X111002976Y-87658095D01*
X111050595Y-87800952D01*
X111622023Y-88372380D01*
X111002976Y-88372380D01*
X110669642Y-87372380D02*
X110002976Y-87372380D01*
X110431547Y-88372380D01*
X67455357Y-91052380D02*
X67788690Y-90576190D01*
X68026785Y-91052380D02*
X68026785Y-90052380D01*
X67645833Y-90052380D01*
X67550595Y-90100000D01*
X67502976Y-90147619D01*
X67455357Y-90242857D01*
X67455357Y-90385714D01*
X67502976Y-90480952D01*
X67550595Y-90528571D01*
X67645833Y-90576190D01*
X68026785Y-90576190D01*
X67074404Y-90147619D02*
X67026785Y-90100000D01*
X66931547Y-90052380D01*
X66693452Y-90052380D01*
X66598214Y-90100000D01*
X66550595Y-90147619D01*
X66502976Y-90242857D01*
X66502976Y-90338095D01*
X66550595Y-90480952D01*
X67122023Y-91052380D01*
X66502976Y-91052380D01*
X65645833Y-90052380D02*
X65836309Y-90052380D01*
X65931547Y-90100000D01*
X65979166Y-90147619D01*
X66074404Y-90290476D01*
X66122023Y-90480952D01*
X66122023Y-90861904D01*
X66074404Y-90957142D01*
X66026785Y-91004761D01*
X65931547Y-91052380D01*
X65741071Y-91052380D01*
X65645833Y-91004761D01*
X65598214Y-90957142D01*
X65550595Y-90861904D01*
X65550595Y-90623809D01*
X65598214Y-90528571D01*
X65645833Y-90480952D01*
X65741071Y-90433333D01*
X65931547Y-90433333D01*
X66026785Y-90480952D01*
X66074404Y-90528571D01*
X66122023Y-90623809D01*
X57455357Y-88672380D02*
X57788690Y-88196190D01*
X58026785Y-88672380D02*
X58026785Y-87672380D01*
X57645833Y-87672380D01*
X57550595Y-87720000D01*
X57502976Y-87767619D01*
X57455357Y-87862857D01*
X57455357Y-88005714D01*
X57502976Y-88100952D01*
X57550595Y-88148571D01*
X57645833Y-88196190D01*
X58026785Y-88196190D01*
X57074404Y-87767619D02*
X57026785Y-87720000D01*
X56931547Y-87672380D01*
X56693452Y-87672380D01*
X56598214Y-87720000D01*
X56550595Y-87767619D01*
X56502976Y-87862857D01*
X56502976Y-87958095D01*
X56550595Y-88100952D01*
X57122023Y-88672380D01*
X56502976Y-88672380D01*
X55598214Y-87672380D02*
X56074404Y-87672380D01*
X56122023Y-88148571D01*
X56074404Y-88100952D01*
X55979166Y-88053333D01*
X55741071Y-88053333D01*
X55645833Y-88100952D01*
X55598214Y-88148571D01*
X55550595Y-88243809D01*
X55550595Y-88481904D01*
X55598214Y-88577142D01*
X55645833Y-88624761D01*
X55741071Y-88672380D01*
X55979166Y-88672380D01*
X56074404Y-88624761D01*
X56122023Y-88577142D01*
X132647619Y-88204761D02*
X132600000Y-88109523D01*
X132504761Y-88014285D01*
X132361904Y-87871428D01*
X132314285Y-87776190D01*
X132314285Y-87680952D01*
X132552380Y-87728571D02*
X132504761Y-87633333D01*
X132409523Y-87538095D01*
X132219047Y-87490476D01*
X131885714Y-87490476D01*
X131695238Y-87538095D01*
X131600000Y-87633333D01*
X131552380Y-87728571D01*
X131552380Y-87919047D01*
X131600000Y-88014285D01*
X131695238Y-88109523D01*
X131885714Y-88157142D01*
X132219047Y-88157142D01*
X132409523Y-88109523D01*
X132504761Y-88014285D01*
X132552380Y-87919047D01*
X132552380Y-87728571D01*
X131552380Y-89061904D02*
X131552380Y-88585714D01*
X132028571Y-88538095D01*
X131980952Y-88585714D01*
X131933333Y-88680952D01*
X131933333Y-88919047D01*
X131980952Y-89014285D01*
X132028571Y-89061904D01*
X132123809Y-89109523D01*
X132361904Y-89109523D01*
X132457142Y-89061904D01*
X132504761Y-89014285D01*
X132552380Y-88919047D01*
X132552380Y-88680952D01*
X132504761Y-88585714D01*
X132457142Y-88538095D01*
X114847619Y-88204761D02*
X114800000Y-88109523D01*
X114704761Y-88014285D01*
X114561904Y-87871428D01*
X114514285Y-87776190D01*
X114514285Y-87680952D01*
X114752380Y-87728571D02*
X114704761Y-87633333D01*
X114609523Y-87538095D01*
X114419047Y-87490476D01*
X114085714Y-87490476D01*
X113895238Y-87538095D01*
X113800000Y-87633333D01*
X113752380Y-87728571D01*
X113752380Y-87919047D01*
X113800000Y-88014285D01*
X113895238Y-88109523D01*
X114085714Y-88157142D01*
X114419047Y-88157142D01*
X114609523Y-88109523D01*
X114704761Y-88014285D01*
X114752380Y-87919047D01*
X114752380Y-87728571D01*
X114085714Y-89014285D02*
X114752380Y-89014285D01*
X113704761Y-88776190D02*
X114419047Y-88538095D01*
X114419047Y-89157142D01*
X96647619Y-88204761D02*
X96600000Y-88109523D01*
X96504761Y-88014285D01*
X96361904Y-87871428D01*
X96314285Y-87776190D01*
X96314285Y-87680952D01*
X96552380Y-87728571D02*
X96504761Y-87633333D01*
X96409523Y-87538095D01*
X96219047Y-87490476D01*
X95885714Y-87490476D01*
X95695238Y-87538095D01*
X95600000Y-87633333D01*
X95552380Y-87728571D01*
X95552380Y-87919047D01*
X95600000Y-88014285D01*
X95695238Y-88109523D01*
X95885714Y-88157142D01*
X96219047Y-88157142D01*
X96409523Y-88109523D01*
X96504761Y-88014285D01*
X96552380Y-87919047D01*
X96552380Y-87728571D01*
X95552380Y-88490476D02*
X95552380Y-89109523D01*
X95933333Y-88776190D01*
X95933333Y-88919047D01*
X95980952Y-89014285D01*
X96028571Y-89061904D01*
X96123809Y-89109523D01*
X96361904Y-89109523D01*
X96457142Y-89061904D01*
X96504761Y-89014285D01*
X96552380Y-88919047D01*
X96552380Y-88633333D01*
X96504761Y-88538095D01*
X96457142Y-88490476D01*
X77047619Y-87004761D02*
X77000000Y-86909523D01*
X76904761Y-86814285D01*
X76761904Y-86671428D01*
X76714285Y-86576190D01*
X76714285Y-86480952D01*
X76952380Y-86528571D02*
X76904761Y-86433333D01*
X76809523Y-86338095D01*
X76619047Y-86290476D01*
X76285714Y-86290476D01*
X76095238Y-86338095D01*
X76000000Y-86433333D01*
X75952380Y-86528571D01*
X75952380Y-86719047D01*
X76000000Y-86814285D01*
X76095238Y-86909523D01*
X76285714Y-86957142D01*
X76619047Y-86957142D01*
X76809523Y-86909523D01*
X76904761Y-86814285D01*
X76952380Y-86719047D01*
X76952380Y-86528571D01*
X76047619Y-87338095D02*
X76000000Y-87385714D01*
X75952380Y-87480952D01*
X75952380Y-87719047D01*
X76000000Y-87814285D01*
X76047619Y-87861904D01*
X76142857Y-87909523D01*
X76238095Y-87909523D01*
X76380952Y-87861904D01*
X76952380Y-87290476D01*
X76952380Y-87909523D01*
X60347619Y-88604761D02*
X60300000Y-88509523D01*
X60204761Y-88414285D01*
X60061904Y-88271428D01*
X60014285Y-88176190D01*
X60014285Y-88080952D01*
X60252380Y-88128571D02*
X60204761Y-88033333D01*
X60109523Y-87938095D01*
X59919047Y-87890476D01*
X59585714Y-87890476D01*
X59395238Y-87938095D01*
X59300000Y-88033333D01*
X59252380Y-88128571D01*
X59252380Y-88319047D01*
X59300000Y-88414285D01*
X59395238Y-88509523D01*
X59585714Y-88557142D01*
X59919047Y-88557142D01*
X60109523Y-88509523D01*
X60204761Y-88414285D01*
X60252380Y-88319047D01*
X60252380Y-88128571D01*
X60252380Y-89509523D02*
X60252380Y-88938095D01*
X60252380Y-89223809D02*
X59252380Y-89223809D01*
X59395238Y-89128571D01*
X59490476Y-89033333D01*
X59538095Y-88938095D01*
X138773714Y-24869571D02*
X138630857Y-24917190D01*
X138583238Y-24964809D01*
X138535619Y-25060047D01*
X138535619Y-25202904D01*
X138583238Y-25298142D01*
X138630857Y-25345761D01*
X138726095Y-25393380D01*
X139107047Y-25393380D01*
X139107047Y-24393380D01*
X138773714Y-24393380D01*
X138678476Y-24441000D01*
X138630857Y-24488619D01*
X138583238Y-24583857D01*
X138583238Y-24679095D01*
X138630857Y-24774333D01*
X138678476Y-24821952D01*
X138773714Y-24869571D01*
X139107047Y-24869571D01*
X138249904Y-24393380D02*
X137678476Y-24393380D01*
X137964190Y-25393380D02*
X137964190Y-24393380D01*
X136821333Y-25393380D02*
X137392761Y-25393380D01*
X137107047Y-25393380D02*
X137107047Y-24393380D01*
X137202285Y-24536238D01*
X137297523Y-24631476D01*
X137392761Y-24679095D01*
D12*
X71392761Y-36298142D02*
X67583238Y-36298142D01*
X134892761Y-36298142D02*
X131083238Y-36298142D01*
X132988000Y-38202904D02*
X132988000Y-34393380D01*
D10*
X149211380Y-175469642D02*
X148735190Y-175136309D01*
X149211380Y-174898214D02*
X148211380Y-174898214D01*
X148211380Y-175279166D01*
X148259000Y-175374404D01*
X148306619Y-175422023D01*
X148401857Y-175469642D01*
X148544714Y-175469642D01*
X148639952Y-175422023D01*
X148687571Y-175374404D01*
X148735190Y-175279166D01*
X148735190Y-174898214D01*
X149211380Y-176422023D02*
X149211380Y-175850595D01*
X149211380Y-176136309D02*
X148211380Y-176136309D01*
X148354238Y-176041071D01*
X148449476Y-175945833D01*
X148497095Y-175850595D01*
X148211380Y-177279166D02*
X148211380Y-177088690D01*
X148259000Y-176993452D01*
X148306619Y-176945833D01*
X148449476Y-176850595D01*
X148639952Y-176802976D01*
X149020904Y-176802976D01*
X149116142Y-176850595D01*
X149163761Y-176898214D01*
X149211380Y-176993452D01*
X149211380Y-177183928D01*
X149163761Y-177279166D01*
X149116142Y-177326785D01*
X149020904Y-177374404D01*
X148782809Y-177374404D01*
X148687571Y-177326785D01*
X148639952Y-177279166D01*
X148592333Y-177183928D01*
X148592333Y-176993452D01*
X148639952Y-176898214D01*
X148687571Y-176850595D01*
X148782809Y-176802976D01*
X149211380Y-162588642D02*
X148735190Y-162255309D01*
X149211380Y-162017214D02*
X148211380Y-162017214D01*
X148211380Y-162398166D01*
X148259000Y-162493404D01*
X148306619Y-162541023D01*
X148401857Y-162588642D01*
X148544714Y-162588642D01*
X148639952Y-162541023D01*
X148687571Y-162493404D01*
X148735190Y-162398166D01*
X148735190Y-162017214D01*
X149211380Y-163541023D02*
X149211380Y-162969595D01*
X149211380Y-163255309D02*
X148211380Y-163255309D01*
X148354238Y-163160071D01*
X148449476Y-163064833D01*
X148497095Y-162969595D01*
X148211380Y-164445785D02*
X148211380Y-163969595D01*
X148687571Y-163921976D01*
X148639952Y-163969595D01*
X148592333Y-164064833D01*
X148592333Y-164302928D01*
X148639952Y-164398166D01*
X148687571Y-164445785D01*
X148782809Y-164493404D01*
X149020904Y-164493404D01*
X149116142Y-164445785D01*
X149163761Y-164398166D01*
X149211380Y-164302928D01*
X149211380Y-164064833D01*
X149163761Y-163969595D01*
X149116142Y-163921976D01*
X149211380Y-149888642D02*
X148735190Y-149555309D01*
X149211380Y-149317214D02*
X148211380Y-149317214D01*
X148211380Y-149698166D01*
X148259000Y-149793404D01*
X148306619Y-149841023D01*
X148401857Y-149888642D01*
X148544714Y-149888642D01*
X148639952Y-149841023D01*
X148687571Y-149793404D01*
X148735190Y-149698166D01*
X148735190Y-149317214D01*
X149211380Y-150841023D02*
X149211380Y-150269595D01*
X149211380Y-150555309D02*
X148211380Y-150555309D01*
X148354238Y-150460071D01*
X148449476Y-150364833D01*
X148497095Y-150269595D01*
X148544714Y-151698166D02*
X149211380Y-151698166D01*
X148163761Y-151460071D02*
X148878047Y-151221976D01*
X148878047Y-151841023D01*
X149211380Y-136934642D02*
X148735190Y-136601309D01*
X149211380Y-136363214D02*
X148211380Y-136363214D01*
X148211380Y-136744166D01*
X148259000Y-136839404D01*
X148306619Y-136887023D01*
X148401857Y-136934642D01*
X148544714Y-136934642D01*
X148639952Y-136887023D01*
X148687571Y-136839404D01*
X148735190Y-136744166D01*
X148735190Y-136363214D01*
X149211380Y-137887023D02*
X149211380Y-137315595D01*
X149211380Y-137601309D02*
X148211380Y-137601309D01*
X148354238Y-137506071D01*
X148449476Y-137410833D01*
X148497095Y-137315595D01*
X148211380Y-138220357D02*
X148211380Y-138839404D01*
X148592333Y-138506071D01*
X148592333Y-138648928D01*
X148639952Y-138744166D01*
X148687571Y-138791785D01*
X148782809Y-138839404D01*
X149020904Y-138839404D01*
X149116142Y-138791785D01*
X149163761Y-138744166D01*
X149211380Y-138648928D01*
X149211380Y-138363214D01*
X149163761Y-138267976D01*
X149116142Y-138220357D01*
X149211380Y-124234642D02*
X148735190Y-123901309D01*
X149211380Y-123663214D02*
X148211380Y-123663214D01*
X148211380Y-124044166D01*
X148259000Y-124139404D01*
X148306619Y-124187023D01*
X148401857Y-124234642D01*
X148544714Y-124234642D01*
X148639952Y-124187023D01*
X148687571Y-124139404D01*
X148735190Y-124044166D01*
X148735190Y-123663214D01*
X149211380Y-125187023D02*
X149211380Y-124615595D01*
X149211380Y-124901309D02*
X148211380Y-124901309D01*
X148354238Y-124806071D01*
X148449476Y-124710833D01*
X148497095Y-124615595D01*
X148306619Y-125567976D02*
X148259000Y-125615595D01*
X148211380Y-125710833D01*
X148211380Y-125948928D01*
X148259000Y-126044166D01*
X148306619Y-126091785D01*
X148401857Y-126139404D01*
X148497095Y-126139404D01*
X148639952Y-126091785D01*
X149211380Y-125520357D01*
X149211380Y-126139404D01*
X149211380Y-111244142D02*
X148735190Y-110910809D01*
X149211380Y-110672714D02*
X148211380Y-110672714D01*
X148211380Y-111053666D01*
X148259000Y-111148904D01*
X148306619Y-111196523D01*
X148401857Y-111244142D01*
X148544714Y-111244142D01*
X148639952Y-111196523D01*
X148687571Y-111148904D01*
X148735190Y-111053666D01*
X148735190Y-110672714D01*
X149211380Y-112196523D02*
X149211380Y-111625095D01*
X149211380Y-111910809D02*
X148211380Y-111910809D01*
X148354238Y-111815571D01*
X148449476Y-111720333D01*
X148497095Y-111625095D01*
X149211380Y-113148904D02*
X149211380Y-112577476D01*
X149211380Y-112863190D02*
X148211380Y-112863190D01*
X148354238Y-112767952D01*
X148449476Y-112672714D01*
X148497095Y-112577476D01*
X149211380Y-98834642D02*
X148735190Y-98501309D01*
X149211380Y-98263214D02*
X148211380Y-98263214D01*
X148211380Y-98644166D01*
X148259000Y-98739404D01*
X148306619Y-98787023D01*
X148401857Y-98834642D01*
X148544714Y-98834642D01*
X148639952Y-98787023D01*
X148687571Y-98739404D01*
X148735190Y-98644166D01*
X148735190Y-98263214D01*
X149211380Y-99787023D02*
X149211380Y-99215595D01*
X149211380Y-99501309D02*
X148211380Y-99501309D01*
X148354238Y-99406071D01*
X148449476Y-99310833D01*
X148497095Y-99215595D01*
X148211380Y-100406071D02*
X148211380Y-100501309D01*
X148259000Y-100596547D01*
X148306619Y-100644166D01*
X148401857Y-100691785D01*
X148592333Y-100739404D01*
X148830428Y-100739404D01*
X149020904Y-100691785D01*
X149116142Y-100644166D01*
X149163761Y-100596547D01*
X149211380Y-100501309D01*
X149211380Y-100406071D01*
X149163761Y-100310833D01*
X149116142Y-100263214D01*
X149020904Y-100215595D01*
X148830428Y-100167976D01*
X148592333Y-100167976D01*
X148401857Y-100215595D01*
X148306619Y-100263214D01*
X148259000Y-100310833D01*
X148211380Y-100406071D01*
X137744166Y-83595380D02*
X138077500Y-83119190D01*
X138315595Y-83595380D02*
X138315595Y-82595380D01*
X137934642Y-82595380D01*
X137839404Y-82643000D01*
X137791785Y-82690619D01*
X137744166Y-82785857D01*
X137744166Y-82928714D01*
X137791785Y-83023952D01*
X137839404Y-83071571D01*
X137934642Y-83119190D01*
X138315595Y-83119190D01*
X137267976Y-83595380D02*
X137077500Y-83595380D01*
X136982261Y-83547761D01*
X136934642Y-83500142D01*
X136839404Y-83357285D01*
X136791785Y-83166809D01*
X136791785Y-82785857D01*
X136839404Y-82690619D01*
X136887023Y-82643000D01*
X136982261Y-82595380D01*
X137172738Y-82595380D01*
X137267976Y-82643000D01*
X137315595Y-82690619D01*
X137363214Y-82785857D01*
X137363214Y-83023952D01*
X137315595Y-83119190D01*
X137267976Y-83166809D01*
X137172738Y-83214428D01*
X136982261Y-83214428D01*
X136887023Y-83166809D01*
X136839404Y-83119190D01*
X136791785Y-83023952D01*
X119964166Y-83595380D02*
X120297500Y-83119190D01*
X120535595Y-83595380D02*
X120535595Y-82595380D01*
X120154642Y-82595380D01*
X120059404Y-82643000D01*
X120011785Y-82690619D01*
X119964166Y-82785857D01*
X119964166Y-82928714D01*
X120011785Y-83023952D01*
X120059404Y-83071571D01*
X120154642Y-83119190D01*
X120535595Y-83119190D01*
X119392738Y-83023952D02*
X119487976Y-82976333D01*
X119535595Y-82928714D01*
X119583214Y-82833476D01*
X119583214Y-82785857D01*
X119535595Y-82690619D01*
X119487976Y-82643000D01*
X119392738Y-82595380D01*
X119202261Y-82595380D01*
X119107023Y-82643000D01*
X119059404Y-82690619D01*
X119011785Y-82785857D01*
X119011785Y-82833476D01*
X119059404Y-82928714D01*
X119107023Y-82976333D01*
X119202261Y-83023952D01*
X119392738Y-83023952D01*
X119487976Y-83071571D01*
X119535595Y-83119190D01*
X119583214Y-83214428D01*
X119583214Y-83404904D01*
X119535595Y-83500142D01*
X119487976Y-83547761D01*
X119392738Y-83595380D01*
X119202261Y-83595380D01*
X119107023Y-83547761D01*
X119059404Y-83500142D01*
X119011785Y-83404904D01*
X119011785Y-83214428D01*
X119059404Y-83119190D01*
X119107023Y-83071571D01*
X119202261Y-83023952D01*
X101676166Y-83595380D02*
X102009500Y-83119190D01*
X102247595Y-83595380D02*
X102247595Y-82595380D01*
X101866642Y-82595380D01*
X101771404Y-82643000D01*
X101723785Y-82690619D01*
X101676166Y-82785857D01*
X101676166Y-82928714D01*
X101723785Y-83023952D01*
X101771404Y-83071571D01*
X101866642Y-83119190D01*
X102247595Y-83119190D01*
X101342833Y-82595380D02*
X100676166Y-82595380D01*
X101104738Y-83595380D01*
X86653666Y-85415380D02*
X86987000Y-84939190D01*
X87225095Y-85415380D02*
X87225095Y-84415380D01*
X86844142Y-84415380D01*
X86748904Y-84463000D01*
X86701285Y-84510619D01*
X86653666Y-84605857D01*
X86653666Y-84748714D01*
X86701285Y-84843952D01*
X86748904Y-84891571D01*
X86844142Y-84939190D01*
X87225095Y-84939190D01*
X85796523Y-84415380D02*
X85987000Y-84415380D01*
X86082238Y-84463000D01*
X86129857Y-84510619D01*
X86225095Y-84653476D01*
X86272714Y-84843952D01*
X86272714Y-85224904D01*
X86225095Y-85320142D01*
X86177476Y-85367761D01*
X86082238Y-85415380D01*
X85891761Y-85415380D01*
X85796523Y-85367761D01*
X85748904Y-85320142D01*
X85701285Y-85224904D01*
X85701285Y-84986809D01*
X85748904Y-84891571D01*
X85796523Y-84843952D01*
X85891761Y-84796333D01*
X86082238Y-84796333D01*
X86177476Y-84843952D01*
X86225095Y-84891571D01*
X86272714Y-84986809D01*
X65481166Y-83595380D02*
X65814500Y-83119190D01*
X66052595Y-83595380D02*
X66052595Y-82595380D01*
X65671642Y-82595380D01*
X65576404Y-82643000D01*
X65528785Y-82690619D01*
X65481166Y-82785857D01*
X65481166Y-82928714D01*
X65528785Y-83023952D01*
X65576404Y-83071571D01*
X65671642Y-83119190D01*
X66052595Y-83119190D01*
X64576404Y-82595380D02*
X65052595Y-82595380D01*
X65100214Y-83071571D01*
X65052595Y-83023952D01*
X64957357Y-82976333D01*
X64719261Y-82976333D01*
X64624023Y-83023952D01*
X64576404Y-83071571D01*
X64528785Y-83166809D01*
X64528785Y-83404904D01*
X64576404Y-83500142D01*
X64624023Y-83547761D01*
X64719261Y-83595380D01*
X64957357Y-83595380D01*
X65052595Y-83547761D01*
X65100214Y-83500142D01*
X148444333Y-82615380D02*
X148444333Y-83329666D01*
X148491952Y-83472523D01*
X148587190Y-83567761D01*
X148730047Y-83615380D01*
X148825285Y-83615380D01*
X147968142Y-83615380D02*
X147968142Y-82615380D01*
X147587190Y-82615380D01*
X147491952Y-82663000D01*
X147444333Y-82710619D01*
X147396714Y-82805857D01*
X147396714Y-82948714D01*
X147444333Y-83043952D01*
X147491952Y-83091571D01*
X147587190Y-83139190D01*
X147968142Y-83139190D01*
X147015761Y-82710619D02*
X146968142Y-82663000D01*
X146872904Y-82615380D01*
X146634809Y-82615380D01*
X146539571Y-82663000D01*
X146491952Y-82710619D01*
X146444333Y-82805857D01*
X146444333Y-82901095D01*
X146491952Y-83043952D01*
X147063380Y-83615380D01*
X146444333Y-83615380D01*
X117038333Y-21931380D02*
X117038333Y-22645666D01*
X117085952Y-22788523D01*
X117181190Y-22883761D01*
X117324047Y-22931380D01*
X117419285Y-22931380D01*
X116562142Y-22931380D02*
X116562142Y-21931380D01*
X116181190Y-21931380D01*
X116085952Y-21979000D01*
X116038333Y-22026619D01*
X115990714Y-22121857D01*
X115990714Y-22264714D01*
X116038333Y-22359952D01*
X116085952Y-22407571D01*
X116181190Y-22455190D01*
X116562142Y-22455190D01*
X115038333Y-22931380D02*
X115609761Y-22931380D01*
X115324047Y-22931380D02*
X115324047Y-21931380D01*
X115419285Y-22074238D01*
X115514523Y-22169476D01*
X115609761Y-22217095D01*
X144597380Y-178744714D02*
X143597380Y-178744714D01*
X143597380Y-178982809D01*
X143645000Y-179125666D01*
X143740238Y-179220904D01*
X143835476Y-179268523D01*
X144025952Y-179316142D01*
X144168809Y-179316142D01*
X144359285Y-179268523D01*
X144454523Y-179220904D01*
X144549761Y-179125666D01*
X144597380Y-178982809D01*
X144597380Y-178744714D01*
X144597380Y-180268523D02*
X144597380Y-179697095D01*
X144597380Y-179982809D02*
X143597380Y-179982809D01*
X143740238Y-179887571D01*
X143835476Y-179792333D01*
X143883095Y-179697095D01*
X143692619Y-180649476D02*
X143645000Y-180697095D01*
X143597380Y-180792333D01*
X143597380Y-181030428D01*
X143645000Y-181125666D01*
X143692619Y-181173285D01*
X143787857Y-181220904D01*
X143883095Y-181220904D01*
X144025952Y-181173285D01*
X144597380Y-180601857D01*
X144597380Y-181220904D01*
X144597380Y-165790714D02*
X143597380Y-165790714D01*
X143597380Y-166028809D01*
X143645000Y-166171666D01*
X143740238Y-166266904D01*
X143835476Y-166314523D01*
X144025952Y-166362142D01*
X144168809Y-166362142D01*
X144359285Y-166314523D01*
X144454523Y-166266904D01*
X144549761Y-166171666D01*
X144597380Y-166028809D01*
X144597380Y-165790714D01*
X144597380Y-167314523D02*
X144597380Y-166743095D01*
X144597380Y-167028809D02*
X143597380Y-167028809D01*
X143740238Y-166933571D01*
X143835476Y-166838333D01*
X143883095Y-166743095D01*
X144597380Y-168266904D02*
X144597380Y-167695476D01*
X144597380Y-167981190D02*
X143597380Y-167981190D01*
X143740238Y-167885952D01*
X143835476Y-167790714D01*
X143883095Y-167695476D01*
X144851380Y-153090714D02*
X143851380Y-153090714D01*
X143851380Y-153328809D01*
X143899000Y-153471666D01*
X143994238Y-153566904D01*
X144089476Y-153614523D01*
X144279952Y-153662142D01*
X144422809Y-153662142D01*
X144613285Y-153614523D01*
X144708523Y-153566904D01*
X144803761Y-153471666D01*
X144851380Y-153328809D01*
X144851380Y-153090714D01*
X144851380Y-154614523D02*
X144851380Y-154043095D01*
X144851380Y-154328809D02*
X143851380Y-154328809D01*
X143994238Y-154233571D01*
X144089476Y-154138333D01*
X144137095Y-154043095D01*
X143851380Y-155233571D02*
X143851380Y-155328809D01*
X143899000Y-155424047D01*
X143946619Y-155471666D01*
X144041857Y-155519285D01*
X144232333Y-155566904D01*
X144470428Y-155566904D01*
X144660904Y-155519285D01*
X144756142Y-155471666D01*
X144803761Y-155424047D01*
X144851380Y-155328809D01*
X144851380Y-155233571D01*
X144803761Y-155138333D01*
X144756142Y-155090714D01*
X144660904Y-155043095D01*
X144470428Y-154995476D01*
X144232333Y-154995476D01*
X144041857Y-155043095D01*
X143946619Y-155090714D01*
X143899000Y-155138333D01*
X143851380Y-155233571D01*
X144597380Y-140104904D02*
X143597380Y-140104904D01*
X143597380Y-140343000D01*
X143645000Y-140485857D01*
X143740238Y-140581095D01*
X143835476Y-140628714D01*
X144025952Y-140676333D01*
X144168809Y-140676333D01*
X144359285Y-140628714D01*
X144454523Y-140581095D01*
X144549761Y-140485857D01*
X144597380Y-140343000D01*
X144597380Y-140104904D01*
X144597380Y-141152523D02*
X144597380Y-141343000D01*
X144549761Y-141438238D01*
X144502142Y-141485857D01*
X144359285Y-141581095D01*
X144168809Y-141628714D01*
X143787857Y-141628714D01*
X143692619Y-141581095D01*
X143645000Y-141533476D01*
X143597380Y-141438238D01*
X143597380Y-141247761D01*
X143645000Y-141152523D01*
X143692619Y-141104904D01*
X143787857Y-141057285D01*
X144025952Y-141057285D01*
X144121190Y-141104904D01*
X144168809Y-141152523D01*
X144216428Y-141247761D01*
X144216428Y-141438238D01*
X144168809Y-141533476D01*
X144121190Y-141581095D01*
X144025952Y-141628714D01*
X144597380Y-127404904D02*
X143597380Y-127404904D01*
X143597380Y-127643000D01*
X143645000Y-127785857D01*
X143740238Y-127881095D01*
X143835476Y-127928714D01*
X144025952Y-127976333D01*
X144168809Y-127976333D01*
X144359285Y-127928714D01*
X144454523Y-127881095D01*
X144549761Y-127785857D01*
X144597380Y-127643000D01*
X144597380Y-127404904D01*
X144025952Y-128547761D02*
X143978333Y-128452523D01*
X143930714Y-128404904D01*
X143835476Y-128357285D01*
X143787857Y-128357285D01*
X143692619Y-128404904D01*
X143645000Y-128452523D01*
X143597380Y-128547761D01*
X143597380Y-128738238D01*
X143645000Y-128833476D01*
X143692619Y-128881095D01*
X143787857Y-128928714D01*
X143835476Y-128928714D01*
X143930714Y-128881095D01*
X143978333Y-128833476D01*
X144025952Y-128738238D01*
X144025952Y-128547761D01*
X144073571Y-128452523D01*
X144121190Y-128404904D01*
X144216428Y-128357285D01*
X144406904Y-128357285D01*
X144502142Y-128404904D01*
X144549761Y-128452523D01*
X144597380Y-128547761D01*
X144597380Y-128738238D01*
X144549761Y-128833476D01*
X144502142Y-128881095D01*
X144406904Y-128928714D01*
X144216428Y-128928714D01*
X144121190Y-128881095D01*
X144073571Y-128833476D01*
X144025952Y-128738238D01*
X144597380Y-114450904D02*
X143597380Y-114450904D01*
X143597380Y-114689000D01*
X143645000Y-114831857D01*
X143740238Y-114927095D01*
X143835476Y-114974714D01*
X144025952Y-115022333D01*
X144168809Y-115022333D01*
X144359285Y-114974714D01*
X144454523Y-114927095D01*
X144549761Y-114831857D01*
X144597380Y-114689000D01*
X144597380Y-114450904D01*
X143597380Y-115355666D02*
X143597380Y-116022333D01*
X144597380Y-115593761D01*
X144597380Y-101750904D02*
X143597380Y-101750904D01*
X143597380Y-101989000D01*
X143645000Y-102131857D01*
X143740238Y-102227095D01*
X143835476Y-102274714D01*
X144025952Y-102322333D01*
X144168809Y-102322333D01*
X144359285Y-102274714D01*
X144454523Y-102227095D01*
X144549761Y-102131857D01*
X144597380Y-101989000D01*
X144597380Y-101750904D01*
X143597380Y-103179476D02*
X143597380Y-102989000D01*
X143645000Y-102893761D01*
X143692619Y-102846142D01*
X143835476Y-102750904D01*
X144025952Y-102703285D01*
X144406904Y-102703285D01*
X144502142Y-102750904D01*
X144549761Y-102798523D01*
X144597380Y-102893761D01*
X144597380Y-103084238D01*
X144549761Y-103179476D01*
X144502142Y-103227095D01*
X144406904Y-103274714D01*
X144168809Y-103274714D01*
X144073571Y-103227095D01*
X144025952Y-103179476D01*
X143978333Y-103084238D01*
X143978333Y-102893761D01*
X144025952Y-102798523D01*
X144073571Y-102750904D01*
X144168809Y-102703285D01*
X141581095Y-88209380D02*
X141581095Y-87209380D01*
X141343000Y-87209380D01*
X141200142Y-87257000D01*
X141104904Y-87352238D01*
X141057285Y-87447476D01*
X141009666Y-87637952D01*
X141009666Y-87780809D01*
X141057285Y-87971285D01*
X141104904Y-88066523D01*
X141200142Y-88161761D01*
X141343000Y-88209380D01*
X141581095Y-88209380D01*
X140104904Y-87209380D02*
X140581095Y-87209380D01*
X140628714Y-87685571D01*
X140581095Y-87637952D01*
X140485857Y-87590333D01*
X140247761Y-87590333D01*
X140152523Y-87637952D01*
X140104904Y-87685571D01*
X140057285Y-87780809D01*
X140057285Y-88018904D01*
X140104904Y-88114142D01*
X140152523Y-88161761D01*
X140247761Y-88209380D01*
X140485857Y-88209380D01*
X140581095Y-88161761D01*
X140628714Y-88114142D01*
X123801095Y-88209380D02*
X123801095Y-87209380D01*
X123563000Y-87209380D01*
X123420142Y-87257000D01*
X123324904Y-87352238D01*
X123277285Y-87447476D01*
X123229666Y-87637952D01*
X123229666Y-87780809D01*
X123277285Y-87971285D01*
X123324904Y-88066523D01*
X123420142Y-88161761D01*
X123563000Y-88209380D01*
X123801095Y-88209380D01*
X122372523Y-87542714D02*
X122372523Y-88209380D01*
X122610619Y-87161761D02*
X122848714Y-87876047D01*
X122229666Y-87876047D01*
X105513095Y-88209380D02*
X105513095Y-87209380D01*
X105275000Y-87209380D01*
X105132142Y-87257000D01*
X105036904Y-87352238D01*
X104989285Y-87447476D01*
X104941666Y-87637952D01*
X104941666Y-87780809D01*
X104989285Y-87971285D01*
X105036904Y-88066523D01*
X105132142Y-88161761D01*
X105275000Y-88209380D01*
X105513095Y-88209380D01*
X104608333Y-87209380D02*
X103989285Y-87209380D01*
X104322619Y-87590333D01*
X104179761Y-87590333D01*
X104084523Y-87637952D01*
X104036904Y-87685571D01*
X103989285Y-87780809D01*
X103989285Y-88018904D01*
X104036904Y-88114142D01*
X104084523Y-88161761D01*
X104179761Y-88209380D01*
X104465476Y-88209380D01*
X104560714Y-88161761D01*
X104608333Y-88114142D01*
X87225095Y-88209380D02*
X87225095Y-87209380D01*
X86987000Y-87209380D01*
X86844142Y-87257000D01*
X86748904Y-87352238D01*
X86701285Y-87447476D01*
X86653666Y-87637952D01*
X86653666Y-87780809D01*
X86701285Y-87971285D01*
X86748904Y-88066523D01*
X86844142Y-88161761D01*
X86987000Y-88209380D01*
X87225095Y-88209380D01*
X86272714Y-87304619D02*
X86225095Y-87257000D01*
X86129857Y-87209380D01*
X85891761Y-87209380D01*
X85796523Y-87257000D01*
X85748904Y-87304619D01*
X85701285Y-87399857D01*
X85701285Y-87495095D01*
X85748904Y-87637952D01*
X86320333Y-88209380D01*
X85701285Y-88209380D01*
X69318095Y-88209380D02*
X69318095Y-87209380D01*
X69080000Y-87209380D01*
X68937142Y-87257000D01*
X68841904Y-87352238D01*
X68794285Y-87447476D01*
X68746666Y-87637952D01*
X68746666Y-87780809D01*
X68794285Y-87971285D01*
X68841904Y-88066523D01*
X68937142Y-88161761D01*
X69080000Y-88209380D01*
X69318095Y-88209380D01*
X67794285Y-88209380D02*
X68365714Y-88209380D01*
X68080000Y-88209380D02*
X68080000Y-87209380D01*
X68175238Y-87352238D01*
X68270476Y-87447476D01*
X68365714Y-87495095D01*
M02*
