M48
; DRILL file {KiCad (5.1.6)-1} date 08/25/20 11:11:58
; FORMAT={-:-/ absolute / inch / decimal}
; #@! TF.CreationDate,2020-08-25T11:11:58+02:00
; #@! TF.GenerationSoftware,Kicad,Pcbnew,(5.1.6)-1
FMAT,2
INCH
T1C0.0098
T2C0.0157
T3C0.0236
T4C0.0394
T5C0.0472
T6C0.0591
T7C0.1181
T8C0.0709
T9C0.1260
%
G90
G05
T1
X4.4024Y-2.12
X4.4274Y-2.105
X4.4274Y-2.135
X4.4524Y-2.12
T2
X2.24Y-1.235
X2.2862Y-3.29
X2.3Y-3.1
X2.32Y-2.89
X2.46Y-3.11
X2.605Y-3.25
X2.61Y-3.03
X2.6365Y-2.265
X2.65Y-1.74
X2.665Y-2.16
X2.69Y-3.59
X2.71Y-3.03
X2.74Y-2.16
X2.78Y-1.31
X2.8Y-2.31
X2.835Y-2.415
X2.855Y-1.155
X2.87Y-2.52
X2.905Y-2.625
X2.92Y-1.7481
X2.935Y-1.07
X2.94Y-2.73
X2.97Y-1.02
X2.975Y-2.835
X2.98Y-2.255
X3.01Y-2.94
X3.05Y-3.125
X3.07Y-3.09
X3.08Y-2.255
X3.095Y-1.435
X3.17Y-3.29
X3.2835Y-3.165
X3.2933Y-3.25
X3.295Y-2.94
X3.3Y-2.31
X3.3Y-2.415
X3.3Y-2.52
X3.3Y-2.625
X3.3Y-2.73
X3.3Y-2.835
X3.395Y-1.395
X3.435Y-1.92
X3.445Y-1.395
X3.4825Y-1.9175
X3.49Y-1.05
X3.495Y-1.395
X3.5275Y-1.9125
X3.53Y-3.17
X3.53Y-3.29
X3.54Y-1.05
X3.545Y-1.395
X3.545Y-2.3115
X3.545Y-2.415
X3.545Y-2.52
X3.545Y-2.625
X3.545Y-2.73
X3.545Y-2.835
X3.546Y-2.244
X3.5721Y-1.9079
X3.585Y-2.945
X3.59Y-1.05
X3.635Y-1.275
X3.64Y-1.05
X3.655Y-1.345
X3.71Y-3.165
X3.72Y-3.29
X3.74Y-2.255
X3.74Y-2.465
X3.74Y-2.57
X3.745Y-2.36
X3.745Y-2.675
X3.745Y-2.78
X3.745Y-2.885
X3.75Y-1.555
X3.75Y-1.8739
X3.79Y-3.25
X3.87Y-2.35
X3.945Y-1.71
X4.08Y-2.3
X4.165Y-2.0665
X4.23Y-2.2816
X4.27Y-2.9815
X4.295Y-2.12
X4.33Y-1.865
X4.395Y-3.165
X4.423Y-3.29
X4.495Y-3.25
X4.5275Y-2.065
X4.5275Y-2.205
X4.565Y-2.04
X4.565Y-2.165
X4.7Y-2.2816
X4.78Y-2.57
X4.7903Y-2.0423
X4.803Y-2.165
X4.8618Y-3.2087
X4.9056Y-3.29
X4.9682Y-1.9829
X5.0198Y-2.0498
X5.07Y-1.8491
X5.07Y-1.8885
X5.12Y-3.06
X5.17Y-2.04
X5.17Y-2.71
X5.2079Y-3.2521
X5.215Y-1.995
X5.22Y-3.02
X5.255Y-1.985
X5.27Y-2.36
X5.27Y-2.41
X5.27Y-2.46
X5.27Y-2.98
X5.32Y-2.36
X5.32Y-2.46
X5.37Y-2.36
X5.37Y-2.41
X5.37Y-2.46
X5.37Y-2.94
X5.375Y-1.97
X5.42Y-2.945
X5.47Y-2.945
X5.485Y-1.72
X5.52Y-2.9
X5.57Y-2.865
X5.685Y-3.25
X5.725Y-1.11
X5.865Y-3.26
T3
X2.145Y-3.66
X2.18Y-2.87
X2.205Y-3.61
X2.24Y-2.045
X2.24Y-2.265
X2.3054Y-1.3285
X2.325Y-0.97
X2.38Y-3.125
X2.42Y-2.885
X2.555Y-3.125
X2.645Y-2.865
X2.67Y-3.15
X2.72Y-1.035
X2.7375Y-1.8325
X2.835Y-1.46
X2.89Y-1.995
X2.965Y-2.12
X3.07Y-2.135
X3.075Y-1.815
X3.12Y-3.01
X3.125Y-1.815
X3.175Y-1.815
X3.195Y-1.425
X3.225Y-1.815
X3.36Y-2.015
X3.61Y-3.64
X3.625Y-1.86
X3.675Y-1.86
X3.77Y-2.065
X3.77Y-2.11
X3.84Y-2.07
X3.865Y-1.86
X3.87Y-2.11
X3.9475Y-1.5075
X3.96Y-1.85
X4.04Y-2.065
X4.095Y-3.13
X4.31Y-1.16
X4.36Y-3.65
X4.654Y-2.074
X4.655Y-2.985
X4.6676Y-1.3285
X4.85Y-2.505
X4.92Y-3.64
X5.0613Y-1.1317
X5.07Y-1.6675
X5.2625Y-1.665
X5.315Y-1.6625
X5.365Y-1.6625
X5.52Y-3.085
X5.57Y-2.025
X5.58Y-0.985
X5.63Y-3.5
X5.64Y-3.63
X5.652Y-1.754
X5.78Y-3.5
X5.78Y-3.63
T4
X5.32Y-2.41
X5.8263Y-1.5072
X5.8263Y-1.586
X5.8263Y-1.6647
X4.1531Y-0.9502
X4.1531Y-1.8675
X4.2531Y-1.8655
X4.6161Y-1.8675
X4.7161Y-0.9502
X4.7161Y-1.8675
X2.115Y-2.4628
X2.115Y-2.64
X2.3709Y-2.4628
X2.3709Y-2.64
X2.4602Y-1.8616
X2.4602Y-1.9616
X2.4602Y-2.0616
X2.4602Y-2.1616
X2.4602Y-2.2616
X2.4602Y-2.3616
X2.12Y-1.5878
X2.12Y-1.765
X2.3759Y-1.5878
X2.3759Y-1.765
X2.4603Y-0.9556
X2.5603Y-0.9556
X2.6603Y-0.9556
X2.7603Y-0.9556
X2.8603Y-0.9556
X2.9603Y-0.9556
X3.0603Y-0.9556
X3.1603Y-0.9556
X3.2603Y-0.9556
X3.3603Y-0.9556
X3.4603Y-0.9556
X3.5603Y-0.9556
X3.6603Y-0.9556
X3.7603Y-0.9556
X3.8603Y-0.9556
X3.9603Y-0.9556
T5
X4.3879Y-5.8481
X4.3879Y-6.045
X4.88Y-5.8481
X4.88Y-6.045
X2.2479Y-3.86
X2.2479Y-4.0569
X2.74Y-3.86
X2.74Y-4.0569
X2.9579Y-5.1881
X2.9579Y-5.385
X3.45Y-5.1881
X3.45Y-5.385
X5.0979Y-3.8531
X5.0979Y-4.05
X5.59Y-3.8531
X5.59Y-4.05
X4.3879Y-4.5231
X4.3879Y-4.72
X4.88Y-4.5231
X4.88Y-4.72
X3.6779Y-7.1781
X3.6779Y-7.375
X4.17Y-7.1781
X4.17Y-7.375
X2.2479Y-7.8389
X2.2479Y-8.0357
X2.74Y-7.8389
X2.74Y-8.0357
X5.0979Y-5.8481
X5.0979Y-6.045
X5.59Y-5.8481
X5.59Y-6.045
X2.9579Y-7.8431
X2.9579Y-8.04
X3.45Y-7.8431
X3.45Y-8.04
X5.0979Y-4.5231
X5.0979Y-4.72
X5.59Y-4.5231
X5.59Y-4.72
X2.2479Y-5.8581
X2.2479Y-6.055
X2.74Y-5.8581
X2.74Y-6.055
X4.3879Y-7.1781
X4.3879Y-7.375
X4.88Y-7.1781
X4.88Y-7.375
X3.6779Y-5.8581
X3.6779Y-6.055
X4.17Y-5.8581
X4.17Y-6.055
X4.3879Y-6.5231
X4.3879Y-6.72
X4.88Y-6.5231
X4.88Y-6.72
X3.6779Y-5.1881
X3.6779Y-5.385
X4.17Y-5.1881
X4.17Y-5.385
X5.0979Y-7.1781
X5.0979Y-7.375
X5.59Y-7.1781
X5.59Y-7.375
X2.9579Y-3.8531
X2.9579Y-4.05
X3.45Y-3.8531
X3.45Y-4.05
X5.0979Y-5.1831
X5.0979Y-5.38
X5.59Y-5.1831
X5.59Y-5.38
X2.2479Y-6.5181
X2.2479Y-6.715
X2.74Y-6.5181
X2.74Y-6.715
X3.6779Y-6.5181
X3.6779Y-6.715
X4.17Y-6.5181
X4.17Y-6.715
X3.6779Y-3.8531
X3.6779Y-4.05
X4.17Y-3.8531
X4.17Y-4.05
X5.0979Y-7.8331
X5.0979Y-8.03
X5.59Y-7.8331
X5.59Y-8.03
X2.9579Y-4.5231
X2.9579Y-4.72
X3.45Y-4.5231
X3.45Y-4.72
X5.0979Y-6.5181
X5.0979Y-6.715
X5.59Y-6.5181
X5.59Y-6.715
X2.9579Y-5.8581
X2.9579Y-6.055
X3.45Y-5.8581
X3.45Y-6.055
X3.6779Y-7.8381
X3.6779Y-8.035
X4.17Y-7.8381
X4.17Y-8.035
X3.6779Y-4.5231
X3.6779Y-4.72
X4.17Y-4.5231
X4.17Y-4.72
X2.96Y-6.5181
X2.96Y-6.715
X3.4521Y-6.5181
X3.4521Y-6.715
X2.2479Y-7.1757
X2.2479Y-7.3726
X2.74Y-7.1757
X2.74Y-7.3726
X4.3879Y-5.1831
X4.3879Y-5.38
X4.88Y-5.1831
X4.88Y-5.38
X2.9579Y-7.1781
X2.9579Y-7.375
X3.45Y-7.1781
X3.45Y-7.375
X4.3879Y-3.8531
X4.3879Y-4.05
X4.88Y-3.8531
X4.88Y-4.05
X2.2479Y-5.1863
X2.2479Y-5.3831
X2.74Y-5.1863
X2.74Y-5.3831
X2.2479Y-4.5231
X2.2479Y-4.72
X2.74Y-4.5231
X2.74Y-4.72
X4.3879Y-7.8331
X4.3879Y-8.03
X4.88Y-7.8331
X4.88Y-8.03
T6
X5.8263Y-1.4246
X5.8263Y-1.7474
T7
X2.5586Y-1.415
X5.4326Y-1.415
T9
X2.165Y-3.121
X5.8264Y-3.121
T8
G00X4.549Y-3.4768
M15
G01X4.549Y-3.4532
M16
G05
G00X5.6982Y-4.615
M15
G01X5.7218Y-4.615
M16
G05
G00X5.6982Y-7.925
M15
G01X5.7218Y-7.925
M16
G05
G00X2.41Y-3.4918
M15
G01X2.41Y-3.4682
M16
G05
G00X5.6982Y-5.275
M15
G01X5.7218Y-5.275
M16
G05
G00X5.834Y-1.1682
M15
G01X5.834Y-1.1918
M16
G05
G00X5.6982Y-5.935
M15
G01X5.7218Y-5.935
M16
G05
G00X5.6982Y-6.605
M15
G01X5.7218Y-6.605
M16
G05
G00X3.125Y-3.4868
M15
G01X3.125Y-3.4632
M16
G05
G00X5.6982Y-7.274
M15
G01X5.7218Y-7.274
M16
G05
G00X3.845Y-3.4868
M15
G01X3.845Y-3.4632
M16
G05
G00X5.6982Y-3.945
M15
G01X5.7218Y-3.945
M16
G05
G00X5.265Y-3.4768
M15
G01X5.265Y-3.4532
M16
G05
T9
G00X2.165Y-0.9596
M15
G01X2.165Y-1.0304
M16
G05
G00X5.8264Y-0.9596
M15
G01X5.8264Y-1.0304
M16
G05
T0
M30
