G04 #@! TF.GenerationSoftware,KiCad,Pcbnew,(5.1.6)-1*
G04 #@! TF.CreationDate,2020-08-25T11:11:56+02:00*
G04 #@! TF.ProjectId,projet,70726f6a-6574-42e6-9b69-6361645f7063,rev?*
G04 #@! TF.SameCoordinates,Original*
G04 #@! TF.FileFunction,Legend,Top*
G04 #@! TF.FilePolarity,Positive*
%FSLAX46Y46*%
G04 Gerber Fmt 4.6, Leading zero omitted, Abs format (unit mm)*
G04 Created by KiCad (PCBNEW (5.1.6)-1) date 2020-08-25 11:11:56*
%MOMM*%
%LPD*%
G01*
G04 APERTURE LIST*
%ADD10C,0.300000*%
%ADD11C,0.200000*%
%ADD12C,0.150000*%
%ADD13C,0.120000*%
G04 APERTURE END LIST*
D10*
X114554000Y-52359714D02*
X114482571Y-52431142D01*
X114554000Y-52502571D01*
X114625428Y-52431142D01*
X114554000Y-52359714D01*
X114554000Y-52502571D01*
X81156952Y-191235452D02*
X81395047Y-191235452D01*
X81633142Y-191354500D01*
X81752190Y-191473547D01*
X81871238Y-191711642D01*
X81990285Y-192187833D01*
X81990285Y-192783071D01*
X81871238Y-193259261D01*
X81752190Y-193497357D01*
X81633142Y-193616404D01*
X81395047Y-193735452D01*
X81156952Y-193735452D01*
X80918857Y-193616404D01*
X80799809Y-193497357D01*
X80680761Y-193259261D01*
X80561714Y-192783071D01*
X80561714Y-192187833D01*
X80680761Y-191711642D01*
X80799809Y-191473547D01*
X80918857Y-191354500D01*
X81156952Y-191235452D01*
X82045857Y-176785857D02*
X80760142Y-176785857D01*
X81403000Y-176785857D02*
X81403000Y-174535857D01*
X81188714Y-174857285D01*
X80974428Y-175071571D01*
X80760142Y-175178714D01*
X98880142Y-174750142D02*
X98987285Y-174643000D01*
X99201571Y-174535857D01*
X99737285Y-174535857D01*
X99951571Y-174643000D01*
X100058714Y-174750142D01*
X100165857Y-174964428D01*
X100165857Y-175178714D01*
X100058714Y-175500142D01*
X98773000Y-176785857D01*
X100165857Y-176785857D01*
X116639000Y-174662857D02*
X118031857Y-174662857D01*
X117281857Y-175520000D01*
X117603285Y-175520000D01*
X117817571Y-175627142D01*
X117924714Y-175734285D01*
X118031857Y-175948571D01*
X118031857Y-176484285D01*
X117924714Y-176698571D01*
X117817571Y-176805714D01*
X117603285Y-176912857D01*
X116960428Y-176912857D01*
X116746142Y-176805714D01*
X116639000Y-176698571D01*
X118119190Y-157574452D02*
X117643000Y-157574452D01*
X117404904Y-157693500D01*
X117285857Y-157812547D01*
X117047761Y-158169690D01*
X116928714Y-158645880D01*
X116928714Y-159598261D01*
X117047761Y-159836357D01*
X117166809Y-159955404D01*
X117404904Y-160074452D01*
X117881095Y-160074452D01*
X118119190Y-159955404D01*
X118238238Y-159836357D01*
X118357285Y-159598261D01*
X118357285Y-159003023D01*
X118238238Y-158764928D01*
X118119190Y-158645880D01*
X117881095Y-158526833D01*
X117404904Y-158526833D01*
X117166809Y-158645880D01*
X117047761Y-158764928D01*
X116928714Y-159003023D01*
X100046809Y-157799238D02*
X98999190Y-157799238D01*
X98894428Y-158846857D01*
X98999190Y-158742095D01*
X99208714Y-158637333D01*
X99732523Y-158637333D01*
X99942047Y-158742095D01*
X100046809Y-158846857D01*
X100151571Y-159056380D01*
X100151571Y-159580190D01*
X100046809Y-159789714D01*
X99942047Y-159894476D01*
X99732523Y-159999238D01*
X99208714Y-159999238D01*
X98999190Y-159894476D01*
X98894428Y-159789714D01*
X81822047Y-158532571D02*
X81822047Y-159999238D01*
X81298238Y-157694476D02*
X80774428Y-159265904D01*
X82136333Y-159265904D01*
X80653000Y-140817357D02*
X82153000Y-140817357D01*
X81188714Y-143067357D01*
X99308714Y-141781642D02*
X99094428Y-141674500D01*
X98987285Y-141567357D01*
X98880142Y-141353071D01*
X98880142Y-141245928D01*
X98987285Y-141031642D01*
X99094428Y-140924500D01*
X99308714Y-140817357D01*
X99737285Y-140817357D01*
X99951571Y-140924500D01*
X100058714Y-141031642D01*
X100165857Y-141245928D01*
X100165857Y-141353071D01*
X100058714Y-141567357D01*
X99951571Y-141674500D01*
X99737285Y-141781642D01*
X99308714Y-141781642D01*
X99094428Y-141888785D01*
X98987285Y-141995928D01*
X98880142Y-142210214D01*
X98880142Y-142638785D01*
X98987285Y-142853071D01*
X99094428Y-142960214D01*
X99308714Y-143067357D01*
X99737285Y-143067357D01*
X99951571Y-142960214D01*
X100058714Y-142853071D01*
X100165857Y-142638785D01*
X100165857Y-142210214D01*
X100058714Y-141995928D01*
X99951571Y-141888785D01*
X99737285Y-141781642D01*
D11*
X116474904Y-126468214D02*
X116713000Y-127134880D01*
X116951095Y-126468214D02*
X116713000Y-127134880D01*
X116617761Y-127372976D01*
X116570142Y-127420595D01*
X116474904Y-127468214D01*
X118633904Y-123737714D02*
X118872000Y-124404380D01*
X119110095Y-123737714D02*
X118872000Y-124404380D01*
X118776761Y-124642476D01*
X118729142Y-124690095D01*
X118633904Y-124737714D01*
X100552285Y-124007619D02*
X100599904Y-123960000D01*
X100695142Y-123912380D01*
X100933238Y-123912380D01*
X101028476Y-123960000D01*
X101076095Y-124007619D01*
X101123714Y-124102857D01*
X101123714Y-124198095D01*
X101076095Y-124340952D01*
X100504666Y-124912380D01*
X101123714Y-124912380D01*
X119078809Y-107454238D02*
X119681190Y-106687571D01*
X119078809Y-106687571D02*
X119681190Y-107454238D01*
X136451619Y-107565976D02*
X137106380Y-106732642D01*
X136451619Y-106732642D02*
X137106380Y-107565976D01*
X133725333Y-195083976D02*
X133725333Y-193833976D01*
X134142000Y-194726833D01*
X134558666Y-193833976D01*
X134558666Y-195083976D01*
X135153904Y-194429214D02*
X135570571Y-194429214D01*
X135749142Y-195083976D02*
X135153904Y-195083976D01*
X135153904Y-193833976D01*
X135749142Y-193833976D01*
X136284857Y-195083976D02*
X136284857Y-193833976D01*
X136999142Y-195083976D01*
X136999142Y-193833976D01*
X137594380Y-193833976D02*
X137594380Y-194845880D01*
X137653904Y-194964928D01*
X137713428Y-195024452D01*
X137832476Y-195083976D01*
X138070571Y-195083976D01*
X138189619Y-195024452D01*
X138249142Y-194964928D01*
X138308666Y-194845880D01*
X138308666Y-193833976D01*
D10*
X132540809Y-192343642D02*
X133207476Y-192343642D01*
X133493190Y-193391261D02*
X132540809Y-193391261D01*
X132540809Y-191391261D01*
X133493190Y-191391261D01*
X134350333Y-193391261D02*
X134350333Y-191391261D01*
X135493190Y-193391261D01*
X135493190Y-191391261D01*
X136159857Y-191391261D02*
X137302714Y-191391261D01*
X136731285Y-193391261D02*
X136731285Y-191391261D01*
X138731285Y-193391261D02*
X138731285Y-191867452D01*
X138350333Y-192248404D02*
X138731285Y-191867452D01*
X139112238Y-192248404D01*
X114773142Y-192406571D02*
X116144571Y-192406571D01*
X115458857Y-193092285D02*
X115458857Y-191720857D01*
X118287428Y-191206571D02*
X116744571Y-193520857D01*
X118887428Y-192406571D02*
X120258857Y-192406571D01*
D11*
X116658857Y-194725857D02*
X115973142Y-194725857D01*
X116316000Y-194725857D02*
X116316000Y-193525857D01*
X116201714Y-193697285D01*
X116087428Y-193811571D01*
X115973142Y-193868714D01*
X118030285Y-193468714D02*
X117001714Y-195011571D01*
X118316000Y-193525857D02*
X119116000Y-194725857D01*
X119116000Y-193525857D02*
X118316000Y-194725857D01*
D10*
X99523000Y-192142928D02*
X99665857Y-192285785D01*
X99523000Y-192428642D01*
X99380142Y-192285785D01*
X99523000Y-192142928D01*
X99523000Y-192428642D01*
D11*
X96814666Y-194897452D02*
X96993238Y-194956976D01*
X97290857Y-194956976D01*
X97409904Y-194897452D01*
X97469428Y-194837928D01*
X97528952Y-194718880D01*
X97528952Y-194599833D01*
X97469428Y-194480785D01*
X97409904Y-194421261D01*
X97290857Y-194361738D01*
X97052761Y-194302214D01*
X96933714Y-194242690D01*
X96874190Y-194183166D01*
X96814666Y-194064119D01*
X96814666Y-193945071D01*
X96874190Y-193826023D01*
X96933714Y-193766500D01*
X97052761Y-193706976D01*
X97350380Y-193706976D01*
X97528952Y-193766500D01*
X98064666Y-194956976D02*
X98064666Y-193706976D01*
X98540857Y-193706976D01*
X98659904Y-193766500D01*
X98719428Y-193826023D01*
X98778952Y-193945071D01*
X98778952Y-194123642D01*
X98719428Y-194242690D01*
X98659904Y-194302214D01*
X98540857Y-194361738D01*
X98064666Y-194361738D01*
X99255142Y-194599833D02*
X99850380Y-194599833D01*
X99136095Y-194956976D02*
X99552761Y-193706976D01*
X99969428Y-194956976D01*
X101100380Y-194837928D02*
X101040857Y-194897452D01*
X100862285Y-194956976D01*
X100743238Y-194956976D01*
X100564666Y-194897452D01*
X100445619Y-194778404D01*
X100386095Y-194659357D01*
X100326571Y-194421261D01*
X100326571Y-194242690D01*
X100386095Y-194004595D01*
X100445619Y-193885547D01*
X100564666Y-193766500D01*
X100743238Y-193706976D01*
X100862285Y-193706976D01*
X101040857Y-193766500D01*
X101100380Y-193826023D01*
X101636095Y-194302214D02*
X102052761Y-194302214D01*
X102231333Y-194956976D02*
X101636095Y-194956976D01*
X101636095Y-193706976D01*
X102231333Y-193706976D01*
X79549809Y-195337976D02*
X79549809Y-194087976D01*
X80264095Y-195337976D01*
X80264095Y-194087976D01*
X80859333Y-194087976D02*
X80859333Y-195099880D01*
X80918857Y-195218928D01*
X80978380Y-195278452D01*
X81097428Y-195337976D01*
X81335523Y-195337976D01*
X81454571Y-195278452D01*
X81514095Y-195218928D01*
X81573619Y-195099880D01*
X81573619Y-194087976D01*
X82168857Y-195337976D02*
X82168857Y-194087976D01*
X82585523Y-194980833D01*
X83002190Y-194087976D01*
X83002190Y-195337976D01*
D10*
X61044904Y-193391261D02*
X61044904Y-191391261D01*
X61521095Y-191391261D01*
X61806809Y-191486500D01*
X61997285Y-191676976D01*
X62092523Y-191867452D01*
X62187761Y-192248404D01*
X62187761Y-192534119D01*
X62092523Y-192915071D01*
X61997285Y-193105547D01*
X61806809Y-193296023D01*
X61521095Y-193391261D01*
X61044904Y-193391261D01*
X63044904Y-192343642D02*
X63711571Y-192343642D01*
X63997285Y-193391261D02*
X63044904Y-193391261D01*
X63044904Y-191391261D01*
X63997285Y-191391261D01*
X65806809Y-193391261D02*
X64854428Y-193391261D01*
X64854428Y-191391261D01*
D11*
X62658000Y-194964928D02*
X62598476Y-195024452D01*
X62419904Y-195083976D01*
X62300857Y-195083976D01*
X62122285Y-195024452D01*
X62003238Y-194905404D01*
X61943714Y-194786357D01*
X61884190Y-194548261D01*
X61884190Y-194369690D01*
X61943714Y-194131595D01*
X62003238Y-194012547D01*
X62122285Y-193893500D01*
X62300857Y-193833976D01*
X62419904Y-193833976D01*
X62598476Y-193893500D01*
X62658000Y-193953023D01*
X63788952Y-195083976D02*
X63193714Y-195083976D01*
X63193714Y-193833976D01*
X64086571Y-195083976D02*
X64741333Y-194250642D01*
X64086571Y-194250642D02*
X64741333Y-195083976D01*
X135963380Y-178443976D02*
X135308619Y-178443976D01*
X135725285Y-177789214D01*
X135308619Y-177193976D01*
X135963380Y-177193976D01*
D10*
X134683619Y-175629071D02*
X136588380Y-175629071D01*
X135636000Y-176581452D02*
X135636000Y-174676690D01*
D11*
X117031857Y-178373428D02*
X117091380Y-178432952D01*
X117031857Y-178492476D01*
X116972333Y-178432952D01*
X117031857Y-178373428D01*
X117031857Y-178492476D01*
X116793761Y-177302000D02*
X116912809Y-177242476D01*
X117210428Y-177242476D01*
X117329476Y-177302000D01*
X117389000Y-177421047D01*
X117389000Y-177540095D01*
X117329476Y-177659142D01*
X117269952Y-177718666D01*
X117150904Y-177778190D01*
X117091380Y-177837714D01*
X117031857Y-177956761D01*
X117031857Y-178016285D01*
X117924714Y-178373428D02*
X117984238Y-178432952D01*
X117924714Y-178492476D01*
X117865190Y-178432952D01*
X117924714Y-178373428D01*
X117924714Y-178492476D01*
X117924714Y-178016285D02*
X117865190Y-177302000D01*
X117924714Y-177242476D01*
X117984238Y-177302000D01*
X117924714Y-178016285D01*
X117924714Y-177242476D01*
X97261095Y-177115476D02*
X97558714Y-178365476D01*
X97796809Y-177472619D01*
X98034904Y-178365476D01*
X98332523Y-177115476D01*
X98689666Y-177115476D02*
X99523000Y-178365476D01*
X99523000Y-177115476D02*
X98689666Y-178365476D01*
X100237285Y-177770238D02*
X100237285Y-178365476D01*
X99820619Y-177115476D02*
X100237285Y-177770238D01*
X100653952Y-177115476D01*
X100951571Y-177115476D02*
X101784904Y-177115476D01*
X100951571Y-178365476D01*
X101784904Y-178365476D01*
X79855380Y-177115476D02*
X80569666Y-177115476D01*
X80212523Y-178365476D02*
X80212523Y-177115476D01*
X80986333Y-177115476D02*
X80986333Y-178127380D01*
X81045857Y-178246428D01*
X81105380Y-178305952D01*
X81224428Y-178365476D01*
X81462523Y-178365476D01*
X81581571Y-178305952D01*
X81641095Y-178246428D01*
X81700619Y-178127380D01*
X81700619Y-177115476D01*
X82117285Y-177115476D02*
X82533952Y-178365476D01*
X82950619Y-177115476D01*
D10*
X59711571Y-176529023D02*
X59997285Y-176624261D01*
X60473476Y-176624261D01*
X60663952Y-176529023D01*
X60759190Y-176433785D01*
X60854428Y-176243309D01*
X60854428Y-176052833D01*
X60759190Y-175862357D01*
X60663952Y-175767119D01*
X60473476Y-175671880D01*
X60092523Y-175576642D01*
X59902047Y-175481404D01*
X59806809Y-175386166D01*
X59711571Y-175195690D01*
X59711571Y-175005214D01*
X59806809Y-174814738D01*
X59902047Y-174719500D01*
X60092523Y-174624261D01*
X60568714Y-174624261D01*
X60854428Y-174719500D01*
X61521095Y-174624261D02*
X61997285Y-176624261D01*
X62378238Y-175195690D01*
X62759190Y-176624261D01*
X63235380Y-174624261D01*
X63902047Y-176052833D02*
X64854428Y-176052833D01*
X63711571Y-176624261D02*
X64378238Y-174624261D01*
X65044904Y-176624261D01*
X65711571Y-176624261D02*
X65711571Y-174624261D01*
X66473476Y-174624261D01*
X66663952Y-174719500D01*
X66759190Y-174814738D01*
X66854428Y-175005214D01*
X66854428Y-175290928D01*
X66759190Y-175481404D01*
X66663952Y-175576642D01*
X66473476Y-175671880D01*
X65711571Y-175671880D01*
D11*
X61556809Y-178316976D02*
X60961571Y-178316976D01*
X60961571Y-177066976D01*
X61913952Y-177959833D02*
X62509190Y-177959833D01*
X61794904Y-178316976D02*
X62211571Y-177066976D01*
X62628238Y-178316976D01*
X62985380Y-178257452D02*
X63163952Y-178316976D01*
X63461571Y-178316976D01*
X63580619Y-178257452D01*
X63640142Y-178197928D01*
X63699666Y-178078880D01*
X63699666Y-177959833D01*
X63640142Y-177840785D01*
X63580619Y-177781261D01*
X63461571Y-177721738D01*
X63223476Y-177662214D01*
X63104428Y-177602690D01*
X63044904Y-177543166D01*
X62985380Y-177424119D01*
X62985380Y-177305071D01*
X63044904Y-177186023D01*
X63104428Y-177126500D01*
X63223476Y-177066976D01*
X63521095Y-177066976D01*
X63699666Y-177126500D01*
X64056809Y-177066976D02*
X64771095Y-177066976D01*
X64413952Y-178316976D02*
X64413952Y-177066976D01*
X65068714Y-178316976D02*
X65723476Y-177483642D01*
X65068714Y-177483642D02*
X65723476Y-178316976D01*
X133560619Y-161168976D02*
X133143952Y-160573738D01*
X132846333Y-161168976D02*
X132846333Y-159918976D01*
X133322523Y-159918976D01*
X133441571Y-159978500D01*
X133501095Y-160038023D01*
X133560619Y-160157071D01*
X133560619Y-160335642D01*
X133501095Y-160454690D01*
X133441571Y-160514214D01*
X133322523Y-160573738D01*
X132846333Y-160573738D01*
X134334428Y-159918976D02*
X134572523Y-159918976D01*
X134691571Y-159978500D01*
X134810619Y-160097547D01*
X134870142Y-160335642D01*
X134870142Y-160752309D01*
X134810619Y-160990404D01*
X134691571Y-161109452D01*
X134572523Y-161168976D01*
X134334428Y-161168976D01*
X134215380Y-161109452D01*
X134096333Y-160990404D01*
X134036809Y-160752309D01*
X134036809Y-160335642D01*
X134096333Y-160097547D01*
X134215380Y-159978500D01*
X134334428Y-159918976D01*
X135405857Y-159918976D02*
X135405857Y-160930880D01*
X135465380Y-161049928D01*
X135524904Y-161109452D01*
X135643952Y-161168976D01*
X135882047Y-161168976D01*
X136001095Y-161109452D01*
X136060619Y-161049928D01*
X136120142Y-160930880D01*
X136120142Y-159918976D01*
X136715380Y-161168976D02*
X136715380Y-159918976D01*
X137429666Y-161168976D01*
X137429666Y-159918976D01*
X138024904Y-161168976D02*
X138024904Y-159918976D01*
X138322523Y-159918976D01*
X138501095Y-159978500D01*
X138620142Y-160097547D01*
X138679666Y-160216595D01*
X138739190Y-160454690D01*
X138739190Y-160633261D01*
X138679666Y-160871357D01*
X138620142Y-160990404D01*
X138501095Y-161109452D01*
X138322523Y-161168976D01*
X138024904Y-161168976D01*
D10*
X135001095Y-158714357D02*
X136524904Y-158714357D01*
D11*
X115440619Y-161676976D02*
X115440619Y-160426976D01*
X115916809Y-160426976D01*
X116035857Y-160486500D01*
X116095380Y-160546023D01*
X116154904Y-160665071D01*
X116154904Y-160843642D01*
X116095380Y-160962690D01*
X116035857Y-161022214D01*
X115916809Y-161081738D01*
X115440619Y-161081738D01*
X117523952Y-161796023D02*
X117404904Y-161736500D01*
X117285857Y-161617452D01*
X117107285Y-161438880D01*
X116988238Y-161379357D01*
X116869190Y-161379357D01*
X116928714Y-161676976D02*
X116809666Y-161617452D01*
X116690619Y-161498404D01*
X116631095Y-161260309D01*
X116631095Y-160843642D01*
X116690619Y-160605547D01*
X116809666Y-160486500D01*
X116928714Y-160426976D01*
X117166809Y-160426976D01*
X117285857Y-160486500D01*
X117404904Y-160605547D01*
X117464428Y-160843642D01*
X117464428Y-161260309D01*
X117404904Y-161498404D01*
X117285857Y-161617452D01*
X117166809Y-161676976D01*
X116928714Y-161676976D01*
X118714428Y-161676976D02*
X118297761Y-161081738D01*
X118000142Y-161676976D02*
X118000142Y-160426976D01*
X118476333Y-160426976D01*
X118595380Y-160486500D01*
X118654904Y-160546023D01*
X118714428Y-160665071D01*
X118714428Y-160843642D01*
X118654904Y-160962690D01*
X118595380Y-161022214D01*
X118476333Y-161081738D01*
X118000142Y-161081738D01*
X119190619Y-161617452D02*
X119369190Y-161676976D01*
X119666809Y-161676976D01*
X119785857Y-161617452D01*
X119845380Y-161557928D01*
X119904904Y-161438880D01*
X119904904Y-161319833D01*
X119845380Y-161200785D01*
X119785857Y-161141261D01*
X119666809Y-161081738D01*
X119428714Y-161022214D01*
X119309666Y-160962690D01*
X119250142Y-160903166D01*
X119190619Y-160784119D01*
X119190619Y-160665071D01*
X119250142Y-160546023D01*
X119309666Y-160486500D01*
X119428714Y-160426976D01*
X119726333Y-160426976D01*
X119904904Y-160486500D01*
X97796809Y-161676976D02*
X97796809Y-160426976D01*
X98213476Y-161319833D01*
X98630142Y-160426976D01*
X98630142Y-161676976D01*
X99225380Y-161676976D02*
X99225380Y-160426976D01*
X99939666Y-161676976D01*
X99939666Y-160426976D01*
X100773000Y-160426976D02*
X101011095Y-160426976D01*
X101130142Y-160486500D01*
X101249190Y-160605547D01*
X101308714Y-160843642D01*
X101308714Y-161260309D01*
X101249190Y-161498404D01*
X101130142Y-161617452D01*
X101011095Y-161676976D01*
X100773000Y-161676976D01*
X100653952Y-161617452D01*
X100534904Y-161498404D01*
X100475380Y-161260309D01*
X100475380Y-160843642D01*
X100534904Y-160605547D01*
X100653952Y-160486500D01*
X100773000Y-160426976D01*
X80454619Y-160351476D02*
X80454619Y-161244333D01*
X80395095Y-161422904D01*
X80276047Y-161541952D01*
X80097476Y-161601476D01*
X79978428Y-161601476D01*
X81049857Y-161601476D02*
X81049857Y-160351476D01*
X81764142Y-161601476D02*
X81228428Y-160887190D01*
X81764142Y-160351476D02*
X81049857Y-161065761D01*
X82895095Y-161601476D02*
X82299857Y-161601476D01*
X82299857Y-160351476D01*
D10*
X62663952Y-159730261D02*
X61997285Y-158777880D01*
X61521095Y-159730261D02*
X61521095Y-157730261D01*
X62283000Y-157730261D01*
X62473476Y-157825500D01*
X62568714Y-157920738D01*
X62663952Y-158111214D01*
X62663952Y-158396928D01*
X62568714Y-158587404D01*
X62473476Y-158682642D01*
X62283000Y-158777880D01*
X61521095Y-158777880D01*
X64283000Y-158206452D02*
X64283000Y-159730261D01*
X64663952Y-159349309D02*
X64283000Y-159730261D01*
X63902047Y-159349309D01*
D11*
X62896095Y-161422976D02*
X62479428Y-160827738D01*
X62181809Y-161422976D02*
X62181809Y-160172976D01*
X62658000Y-160172976D01*
X62777047Y-160232500D01*
X62836571Y-160292023D01*
X62896095Y-160411071D01*
X62896095Y-160589642D01*
X62836571Y-160708690D01*
X62777047Y-160768214D01*
X62658000Y-160827738D01*
X62181809Y-160827738D01*
X63908000Y-161422976D02*
X63908000Y-160470595D01*
X63669904Y-160708690D02*
X63908000Y-160470595D01*
X64146095Y-160708690D01*
X134794714Y-143278976D02*
X135628047Y-144528976D01*
X135628047Y-143278976D02*
X134794714Y-144528976D01*
X136104238Y-144409928D02*
X136163761Y-144469452D01*
X136104238Y-144528976D01*
X136044714Y-144469452D01*
X136104238Y-144409928D01*
X136104238Y-144528976D01*
X136104238Y-144052785D02*
X136044714Y-143338500D01*
X136104238Y-143278976D01*
X136163761Y-143338500D01*
X136104238Y-144052785D01*
X136104238Y-143278976D01*
D10*
X134609000Y-140836261D02*
X136409000Y-142836261D01*
X136409000Y-140836261D02*
X134609000Y-142836261D01*
X117214428Y-142876857D02*
X117643000Y-142876857D01*
X117857285Y-142769714D01*
X117964428Y-142662571D01*
X118178714Y-142341142D01*
X118285857Y-141912571D01*
X118285857Y-141055428D01*
X118178714Y-140841142D01*
X118071571Y-140734000D01*
X117857285Y-140626857D01*
X117428714Y-140626857D01*
X117214428Y-140734000D01*
X117107285Y-140841142D01*
X117000142Y-141055428D01*
X117000142Y-141591142D01*
X117107285Y-141805428D01*
X117214428Y-141912571D01*
X117428714Y-142019714D01*
X117857285Y-142019714D01*
X118071571Y-141912571D01*
X118178714Y-141805428D01*
X118285857Y-141591142D01*
D11*
X117018000Y-143338500D02*
X116898952Y-143278976D01*
X116720380Y-143278976D01*
X116541809Y-143338500D01*
X116422761Y-143457547D01*
X116363238Y-143576595D01*
X116303714Y-143814690D01*
X116303714Y-143993261D01*
X116363238Y-144231357D01*
X116422761Y-144350404D01*
X116541809Y-144469452D01*
X116720380Y-144528976D01*
X116839428Y-144528976D01*
X117018000Y-144469452D01*
X117077523Y-144409928D01*
X117077523Y-143993261D01*
X116839428Y-143993261D01*
X117613238Y-144528976D02*
X117613238Y-143278976D01*
X117613238Y-143874214D02*
X118327523Y-143874214D01*
X118327523Y-144528976D02*
X118327523Y-143278976D01*
X118922761Y-144528976D02*
X118922761Y-143278976D01*
X98094428Y-144782976D02*
X98094428Y-143532976D01*
X98392047Y-143532976D01*
X98570619Y-143592500D01*
X98689666Y-143711547D01*
X98749190Y-143830595D01*
X98808714Y-144068690D01*
X98808714Y-144247261D01*
X98749190Y-144485357D01*
X98689666Y-144604404D01*
X98570619Y-144723452D01*
X98392047Y-144782976D01*
X98094428Y-144782976D01*
X99344428Y-144128214D02*
X99761095Y-144128214D01*
X99939666Y-144782976D02*
X99344428Y-144782976D01*
X99344428Y-143532976D01*
X99939666Y-143532976D01*
X100892047Y-144128214D02*
X100475380Y-144128214D01*
X100475380Y-144782976D02*
X100475380Y-143532976D01*
X101070619Y-143532976D01*
X79855380Y-144425833D02*
X80450619Y-144425833D01*
X79736333Y-144782976D02*
X80153000Y-143532976D01*
X80569666Y-144782976D01*
X81403000Y-144128214D02*
X81581571Y-144187738D01*
X81641095Y-144247261D01*
X81700619Y-144366309D01*
X81700619Y-144544880D01*
X81641095Y-144663928D01*
X81581571Y-144723452D01*
X81462523Y-144782976D01*
X80986333Y-144782976D01*
X80986333Y-143532976D01*
X81403000Y-143532976D01*
X81522047Y-143592500D01*
X81581571Y-143652023D01*
X81641095Y-143771071D01*
X81641095Y-143890119D01*
X81581571Y-144009166D01*
X81522047Y-144068690D01*
X81403000Y-144128214D01*
X80986333Y-144128214D01*
X82950619Y-144663928D02*
X82891095Y-144723452D01*
X82712523Y-144782976D01*
X82593476Y-144782976D01*
X82414904Y-144723452D01*
X82295857Y-144604404D01*
X82236333Y-144485357D01*
X82176809Y-144247261D01*
X82176809Y-144068690D01*
X82236333Y-143830595D01*
X82295857Y-143711547D01*
X82414904Y-143592500D01*
X82593476Y-143532976D01*
X82712523Y-143532976D01*
X82891095Y-143592500D01*
X82950619Y-143652023D01*
D10*
X60902047Y-142995023D02*
X61187761Y-143090261D01*
X61663952Y-143090261D01*
X61854428Y-142995023D01*
X61949666Y-142899785D01*
X62044904Y-142709309D01*
X62044904Y-142518833D01*
X61949666Y-142328357D01*
X61854428Y-142233119D01*
X61663952Y-142137880D01*
X61283000Y-142042642D01*
X61092523Y-141947404D01*
X60997285Y-141852166D01*
X60902047Y-141661690D01*
X60902047Y-141471214D01*
X60997285Y-141280738D01*
X61092523Y-141185500D01*
X61283000Y-141090261D01*
X61759190Y-141090261D01*
X62044904Y-141185500D01*
X62616333Y-141090261D02*
X63759190Y-141090261D01*
X63187761Y-143090261D02*
X63187761Y-141090261D01*
X64806809Y-141090261D02*
X65187761Y-141090261D01*
X65378238Y-141185500D01*
X65568714Y-141375976D01*
X65663952Y-141756928D01*
X65663952Y-142423595D01*
X65568714Y-142804547D01*
X65378238Y-142995023D01*
X65187761Y-143090261D01*
X64806809Y-143090261D01*
X64616333Y-142995023D01*
X64425857Y-142804547D01*
X64330619Y-142423595D01*
X64330619Y-141756928D01*
X64425857Y-141375976D01*
X64616333Y-141185500D01*
X64806809Y-141090261D01*
D11*
X62538952Y-144782976D02*
X62122285Y-144187738D01*
X61824666Y-144782976D02*
X61824666Y-143532976D01*
X62300857Y-143532976D01*
X62419904Y-143592500D01*
X62479428Y-143652023D01*
X62538952Y-143771071D01*
X62538952Y-143949642D01*
X62479428Y-144068690D01*
X62419904Y-144128214D01*
X62300857Y-144187738D01*
X61824666Y-144187738D01*
X63788952Y-144663928D02*
X63729428Y-144723452D01*
X63550857Y-144782976D01*
X63431809Y-144782976D01*
X63253238Y-144723452D01*
X63134190Y-144604404D01*
X63074666Y-144485357D01*
X63015142Y-144247261D01*
X63015142Y-144068690D01*
X63074666Y-143830595D01*
X63134190Y-143711547D01*
X63253238Y-143592500D01*
X63431809Y-143532976D01*
X63550857Y-143532976D01*
X63729428Y-143592500D01*
X63788952Y-143652023D01*
X64919904Y-144782976D02*
X64324666Y-144782976D01*
X64324666Y-143532976D01*
X133812571Y-127634976D02*
X133812571Y-126384976D01*
X134229238Y-127277833D01*
X134645904Y-126384976D01*
X134645904Y-127634976D01*
X135479238Y-126384976D02*
X135717333Y-126384976D01*
X135836380Y-126444500D01*
X135955428Y-126563547D01*
X136014952Y-126801642D01*
X136014952Y-127218309D01*
X135955428Y-127456404D01*
X135836380Y-127575452D01*
X135717333Y-127634976D01*
X135479238Y-127634976D01*
X135360190Y-127575452D01*
X135241142Y-127456404D01*
X135181619Y-127218309D01*
X135181619Y-126801642D01*
X135241142Y-126563547D01*
X135360190Y-126444500D01*
X135479238Y-126384976D01*
X136550666Y-127634976D02*
X136550666Y-126384976D01*
X136848285Y-126384976D01*
X137026857Y-126444500D01*
X137145904Y-126563547D01*
X137205428Y-126682595D01*
X137264952Y-126920690D01*
X137264952Y-127099261D01*
X137205428Y-127337357D01*
X137145904Y-127456404D01*
X137026857Y-127575452D01*
X136848285Y-127634976D01*
X136550666Y-127634976D01*
D10*
X136270904Y-125180357D02*
X134747095Y-125180357D01*
X135509000Y-125656547D02*
X135604238Y-125751785D01*
X135509000Y-125847023D01*
X135413761Y-125751785D01*
X135509000Y-125656547D01*
X135509000Y-125847023D01*
X135509000Y-124513690D02*
X135604238Y-124608928D01*
X135509000Y-124704166D01*
X135413761Y-124608928D01*
X135509000Y-124513690D01*
X135509000Y-124704166D01*
X117397000Y-124400571D02*
X118397000Y-125900571D01*
X118397000Y-124400571D02*
X117397000Y-125900571D01*
D11*
X116885095Y-127345309D02*
X117123190Y-127285785D01*
X117242238Y-127761976D01*
X118135095Y-126273880D01*
X118313666Y-127761976D02*
X118968428Y-126928642D01*
X118313666Y-126928642D02*
X118968428Y-127761976D01*
D10*
X99023000Y-124470071D02*
X100023000Y-125970071D01*
X100023000Y-124470071D02*
X99023000Y-125970071D01*
D11*
X98511095Y-127472309D02*
X98749190Y-127412785D01*
X98868238Y-127888976D01*
X99761095Y-126400880D01*
X99939666Y-127888976D02*
X100594428Y-127055642D01*
X99939666Y-127055642D02*
X100594428Y-127888976D01*
D10*
X81688714Y-124241785D02*
X81688714Y-125908452D01*
X80855380Y-124241785D02*
X80855380Y-125551309D01*
X80736333Y-125789404D01*
X80498238Y-125908452D01*
X82164904Y-124241785D02*
X80617285Y-124241785D01*
X80379190Y-124360833D01*
X80260142Y-124598928D01*
D11*
X81438714Y-127416642D02*
X81295857Y-127488071D01*
X81010142Y-127488071D01*
X80867285Y-127416642D01*
X80795857Y-127273785D01*
X80795857Y-126702357D01*
X80867285Y-126559500D01*
X81010142Y-126488071D01*
X81295857Y-126488071D01*
X81438714Y-126559500D01*
X81510142Y-126702357D01*
X81510142Y-126845214D01*
X80795857Y-126988071D01*
D10*
X61695666Y-124894642D02*
X62362333Y-124894642D01*
X62648047Y-125942261D02*
X61695666Y-125942261D01*
X61695666Y-123942261D01*
X62648047Y-123942261D01*
X63505190Y-124894642D02*
X64171857Y-124894642D01*
X64457571Y-125942261D02*
X63505190Y-125942261D01*
X63505190Y-123942261D01*
X64457571Y-123942261D01*
D11*
X61421857Y-127158785D02*
X62374238Y-127158785D01*
X62969476Y-126980214D02*
X63386142Y-126980214D01*
X63564714Y-127634976D02*
X62969476Y-127634976D01*
X62969476Y-126384976D01*
X63564714Y-126384976D01*
X64100428Y-126980214D02*
X64517095Y-126980214D01*
X64695666Y-127634976D02*
X64100428Y-127634976D01*
X64100428Y-126384976D01*
X64695666Y-126384976D01*
X135241142Y-110740976D02*
X134645904Y-110740976D01*
X134645904Y-109490976D01*
X135657809Y-110740976D02*
X135657809Y-109490976D01*
X136372095Y-110740976D01*
X136372095Y-109490976D01*
D10*
X135889952Y-108953023D02*
X135699476Y-109048261D01*
X135318523Y-109048261D01*
X135128047Y-108953023D01*
X135032809Y-108762547D01*
X135032809Y-108000642D01*
X135128047Y-107810166D01*
X135318523Y-107714928D01*
X135699476Y-107714928D01*
X135889952Y-107810166D01*
X135985190Y-108000642D01*
X135985190Y-108191119D01*
X135032809Y-108381595D01*
X117319190Y-109166547D02*
X116347761Y-109166547D01*
X116833476Y-109166547D02*
X116833476Y-107466547D01*
X116671571Y-107709404D01*
X116509666Y-107871309D01*
X116347761Y-107952261D01*
X118371571Y-107466547D02*
X118533476Y-107466547D01*
X118695380Y-107547500D01*
X118776333Y-107628452D01*
X118857285Y-107790357D01*
X118938238Y-108114166D01*
X118938238Y-108518928D01*
X118857285Y-108842738D01*
X118776333Y-109004642D01*
X118695380Y-109085595D01*
X118533476Y-109166547D01*
X118371571Y-109166547D01*
X118209666Y-109085595D01*
X118128714Y-109004642D01*
X118047761Y-108842738D01*
X117966809Y-108518928D01*
X117966809Y-108114166D01*
X118047761Y-107790357D01*
X118128714Y-107628452D01*
X118209666Y-107547500D01*
X118371571Y-107466547D01*
D11*
X116750142Y-110994976D02*
X116154904Y-110994976D01*
X116154904Y-109744976D01*
X117404904Y-109744976D02*
X117643000Y-109744976D01*
X117762047Y-109804500D01*
X117881095Y-109923547D01*
X117940619Y-110161642D01*
X117940619Y-110578309D01*
X117881095Y-110816404D01*
X117762047Y-110935452D01*
X117643000Y-110994976D01*
X117404904Y-110994976D01*
X117285857Y-110935452D01*
X117166809Y-110816404D01*
X117107285Y-110578309D01*
X117107285Y-110161642D01*
X117166809Y-109923547D01*
X117285857Y-109804500D01*
X117404904Y-109744976D01*
X119131095Y-109804500D02*
X119012047Y-109744976D01*
X118833476Y-109744976D01*
X118654904Y-109804500D01*
X118535857Y-109923547D01*
X118476333Y-110042595D01*
X118416809Y-110280690D01*
X118416809Y-110459261D01*
X118476333Y-110697357D01*
X118535857Y-110816404D01*
X118654904Y-110935452D01*
X118833476Y-110994976D01*
X118952523Y-110994976D01*
X119131095Y-110935452D01*
X119190619Y-110875928D01*
X119190619Y-110459261D01*
X118952523Y-110459261D01*
D10*
X97046809Y-107048261D02*
X98189666Y-107048261D01*
X97618238Y-109048261D02*
X97618238Y-107048261D01*
X98761095Y-108476833D02*
X99713476Y-108476833D01*
X98570619Y-109048261D02*
X99237285Y-107048261D01*
X99903952Y-109048261D01*
X100570619Y-109048261D02*
X100570619Y-107048261D01*
X101713476Y-109048261D01*
X101713476Y-107048261D01*
D11*
X96308714Y-110383833D02*
X96903952Y-110383833D01*
X96189666Y-110740976D02*
X96606333Y-109490976D01*
X97023000Y-110740976D01*
X98153952Y-110740976D02*
X97737285Y-110145738D01*
X97439666Y-110740976D02*
X97439666Y-109490976D01*
X97915857Y-109490976D01*
X98034904Y-109550500D01*
X98094428Y-109610023D01*
X98153952Y-109729071D01*
X98153952Y-109907642D01*
X98094428Y-110026690D01*
X98034904Y-110086214D01*
X97915857Y-110145738D01*
X97439666Y-110145738D01*
X99403952Y-110621928D02*
X99344428Y-110681452D01*
X99165857Y-110740976D01*
X99046809Y-110740976D01*
X98868238Y-110681452D01*
X98749190Y-110562404D01*
X98689666Y-110443357D01*
X98630142Y-110205261D01*
X98630142Y-110026690D01*
X98689666Y-109788595D01*
X98749190Y-109669547D01*
X98868238Y-109550500D01*
X99046809Y-109490976D01*
X99165857Y-109490976D01*
X99344428Y-109550500D01*
X99403952Y-109610023D01*
X99761095Y-109490976D02*
X100475380Y-109490976D01*
X100118238Y-110740976D02*
X100118238Y-109490976D01*
X100832523Y-110383833D02*
X101427761Y-110383833D01*
X100713476Y-110740976D02*
X101130142Y-109490976D01*
X101546809Y-110740976D01*
X101963476Y-110740976D02*
X101963476Y-109490976D01*
X102677761Y-110740976D01*
X102677761Y-109490976D01*
D10*
X80022047Y-108857785D02*
X79926809Y-108953023D01*
X79641095Y-109048261D01*
X79450619Y-109048261D01*
X79164904Y-108953023D01*
X78974428Y-108762547D01*
X78879190Y-108572071D01*
X78783952Y-108191119D01*
X78783952Y-107905404D01*
X78879190Y-107524452D01*
X78974428Y-107333976D01*
X79164904Y-107143500D01*
X79450619Y-107048261D01*
X79641095Y-107048261D01*
X79926809Y-107143500D01*
X80022047Y-107238738D01*
X81260142Y-107048261D02*
X81641095Y-107048261D01*
X81831571Y-107143500D01*
X82022047Y-107333976D01*
X82117285Y-107714928D01*
X82117285Y-108381595D01*
X82022047Y-108762547D01*
X81831571Y-108953023D01*
X81641095Y-109048261D01*
X81260142Y-109048261D01*
X81069666Y-108953023D01*
X80879190Y-108762547D01*
X80783952Y-108381595D01*
X80783952Y-107714928D01*
X80879190Y-107333976D01*
X81069666Y-107143500D01*
X81260142Y-107048261D01*
X82879190Y-108953023D02*
X83164904Y-109048261D01*
X83641095Y-109048261D01*
X83831571Y-108953023D01*
X83926809Y-108857785D01*
X84022047Y-108667309D01*
X84022047Y-108476833D01*
X83926809Y-108286357D01*
X83831571Y-108191119D01*
X83641095Y-108095880D01*
X83260142Y-108000642D01*
X83069666Y-107905404D01*
X82974428Y-107810166D01*
X82879190Y-107619690D01*
X82879190Y-107429214D01*
X82974428Y-107238738D01*
X83069666Y-107143500D01*
X83260142Y-107048261D01*
X83736333Y-107048261D01*
X84022047Y-107143500D01*
D11*
X78605380Y-110383833D02*
X79200619Y-110383833D01*
X78486333Y-110740976D02*
X78903000Y-109490976D01*
X79319666Y-110740976D01*
X80450619Y-110740976D02*
X80033952Y-110145738D01*
X79736333Y-110740976D02*
X79736333Y-109490976D01*
X80212523Y-109490976D01*
X80331571Y-109550500D01*
X80391095Y-109610023D01*
X80450619Y-109729071D01*
X80450619Y-109907642D01*
X80391095Y-110026690D01*
X80331571Y-110086214D01*
X80212523Y-110145738D01*
X79736333Y-110145738D01*
X81700619Y-110621928D02*
X81641095Y-110681452D01*
X81462523Y-110740976D01*
X81343476Y-110740976D01*
X81164904Y-110681452D01*
X81045857Y-110562404D01*
X80986333Y-110443357D01*
X80926809Y-110205261D01*
X80926809Y-110026690D01*
X80986333Y-109788595D01*
X81045857Y-109669547D01*
X81164904Y-109550500D01*
X81343476Y-109490976D01*
X81462523Y-109490976D01*
X81641095Y-109550500D01*
X81700619Y-109610023D01*
X82474428Y-109490976D02*
X82712523Y-109490976D01*
X82831571Y-109550500D01*
X82950619Y-109669547D01*
X83010142Y-109907642D01*
X83010142Y-110324309D01*
X82950619Y-110562404D01*
X82831571Y-110681452D01*
X82712523Y-110740976D01*
X82474428Y-110740976D01*
X82355380Y-110681452D01*
X82236333Y-110562404D01*
X82176809Y-110324309D01*
X82176809Y-109907642D01*
X82236333Y-109669547D01*
X82355380Y-109550500D01*
X82474428Y-109490976D01*
X83486333Y-110681452D02*
X83664904Y-110740976D01*
X83962523Y-110740976D01*
X84081571Y-110681452D01*
X84141095Y-110621928D01*
X84200619Y-110502880D01*
X84200619Y-110383833D01*
X84141095Y-110264785D01*
X84081571Y-110205261D01*
X83962523Y-110145738D01*
X83724428Y-110086214D01*
X83605380Y-110026690D01*
X83545857Y-109967166D01*
X83486333Y-109848119D01*
X83486333Y-109729071D01*
X83545857Y-109610023D01*
X83605380Y-109550500D01*
X83724428Y-109490976D01*
X84022047Y-109490976D01*
X84200619Y-109550500D01*
D10*
X61568761Y-108992973D02*
X61854476Y-109088211D01*
X62330666Y-109088211D01*
X62521142Y-108992973D01*
X62616380Y-108897735D01*
X62711619Y-108707259D01*
X62711619Y-108516783D01*
X62616380Y-108326307D01*
X62521142Y-108231069D01*
X62330666Y-108135830D01*
X61949714Y-108040592D01*
X61759238Y-107945354D01*
X61664000Y-107850116D01*
X61568761Y-107659640D01*
X61568761Y-107469164D01*
X61664000Y-107278688D01*
X61759238Y-107183450D01*
X61949714Y-107088211D01*
X62425904Y-107088211D01*
X62711619Y-107183450D01*
X63568761Y-109088211D02*
X63568761Y-107088211D01*
X64521142Y-109088211D02*
X64521142Y-107088211D01*
X65664000Y-109088211D01*
X65664000Y-107088211D01*
D11*
X60568761Y-110423783D02*
X61164000Y-110423783D01*
X60449714Y-110780926D02*
X60866380Y-109530926D01*
X61283047Y-110780926D01*
X62414000Y-110780926D02*
X61997333Y-110185688D01*
X61699714Y-110780926D02*
X61699714Y-109530926D01*
X62175904Y-109530926D01*
X62294952Y-109590450D01*
X62354476Y-109649973D01*
X62414000Y-109769021D01*
X62414000Y-109947592D01*
X62354476Y-110066640D01*
X62294952Y-110126164D01*
X62175904Y-110185688D01*
X61699714Y-110185688D01*
X63664000Y-110661878D02*
X63604476Y-110721402D01*
X63425904Y-110780926D01*
X63306857Y-110780926D01*
X63128285Y-110721402D01*
X63009238Y-110602354D01*
X62949714Y-110483307D01*
X62890190Y-110245211D01*
X62890190Y-110066640D01*
X62949714Y-109828545D01*
X63009238Y-109709497D01*
X63128285Y-109590450D01*
X63306857Y-109530926D01*
X63425904Y-109530926D01*
X63604476Y-109590450D01*
X63664000Y-109649973D01*
X64140190Y-110721402D02*
X64318761Y-110780926D01*
X64616380Y-110780926D01*
X64735428Y-110721402D01*
X64794952Y-110661878D01*
X64854476Y-110542830D01*
X64854476Y-110423783D01*
X64794952Y-110304735D01*
X64735428Y-110245211D01*
X64616380Y-110185688D01*
X64378285Y-110126164D01*
X64259238Y-110066640D01*
X64199714Y-110007116D01*
X64140190Y-109888069D01*
X64140190Y-109769021D01*
X64199714Y-109649973D01*
X64259238Y-109590450D01*
X64378285Y-109530926D01*
X64675904Y-109530926D01*
X64854476Y-109590450D01*
X65390190Y-110780926D02*
X65390190Y-109530926D01*
X65985428Y-110780926D02*
X65985428Y-109530926D01*
X66699714Y-110780926D01*
X66699714Y-109530926D01*
D10*
X59674571Y-91098857D02*
X59817428Y-90956000D01*
X60103142Y-90813142D01*
X60817428Y-90813142D01*
X61103142Y-90956000D01*
X61246000Y-91098857D01*
X61388857Y-91384571D01*
X61388857Y-91670285D01*
X61246000Y-92098857D01*
X59531714Y-93813142D01*
X61388857Y-93813142D01*
X62674571Y-91813142D02*
X62674571Y-93813142D01*
X62674571Y-92098857D02*
X62817428Y-91956000D01*
X63103142Y-91813142D01*
X63531714Y-91813142D01*
X63817428Y-91956000D01*
X63960285Y-92241714D01*
X63960285Y-93813142D01*
X66674571Y-93813142D02*
X66674571Y-90813142D01*
X66674571Y-93670285D02*
X66388857Y-93813142D01*
X65817428Y-93813142D01*
X65531714Y-93670285D01*
X65388857Y-93527428D01*
X65246000Y-93241714D01*
X65246000Y-92384571D01*
X65388857Y-92098857D01*
X65531714Y-91956000D01*
X65817428Y-91813142D01*
X66388857Y-91813142D01*
X66674571Y-91956000D01*
D11*
X79095428Y-93243785D02*
X80047809Y-93243785D01*
X79809714Y-93481880D02*
X80047809Y-93243785D01*
X79809714Y-93005690D01*
X81059714Y-93065214D02*
X81238285Y-93124738D01*
X81297809Y-93184261D01*
X81357333Y-93303309D01*
X81357333Y-93481880D01*
X81297809Y-93600928D01*
X81238285Y-93660452D01*
X81119238Y-93719976D01*
X80643047Y-93719976D01*
X80643047Y-92469976D01*
X81059714Y-92469976D01*
X81178761Y-92529500D01*
X81238285Y-92589023D01*
X81297809Y-92708071D01*
X81297809Y-92827119D01*
X81238285Y-92946166D01*
X81178761Y-93005690D01*
X81059714Y-93065214D01*
X80643047Y-93065214D01*
X81893047Y-93719976D02*
X81893047Y-92469976D01*
X82488285Y-93719976D02*
X82488285Y-92469976D01*
X83202571Y-93719976D01*
X83202571Y-92469976D01*
D10*
X79768047Y-90979642D02*
X80053761Y-91074880D01*
X80149000Y-91170119D01*
X80244238Y-91360595D01*
X80244238Y-91646309D01*
X80149000Y-91836785D01*
X80053761Y-91932023D01*
X79863285Y-92027261D01*
X79101380Y-92027261D01*
X79101380Y-90027261D01*
X79768047Y-90027261D01*
X79958523Y-90122500D01*
X80053761Y-90217738D01*
X80149000Y-90408214D01*
X80149000Y-90598690D01*
X80053761Y-90789166D01*
X79958523Y-90884404D01*
X79768047Y-90979642D01*
X79101380Y-90979642D01*
X81101380Y-92027261D02*
X81101380Y-90027261D01*
X82053761Y-92027261D02*
X82053761Y-90027261D01*
X83196619Y-92027261D01*
X83196619Y-90027261D01*
D11*
X96977333Y-93243785D02*
X97929714Y-93243785D01*
X97691619Y-93481880D02*
X97929714Y-93243785D01*
X97691619Y-93005690D01*
X98524952Y-93719976D02*
X98524952Y-92469976D01*
X98524952Y-93065214D02*
X99239238Y-93065214D01*
X99239238Y-93719976D02*
X99239238Y-92469976D01*
X99834476Y-93065214D02*
X100251142Y-93065214D01*
X100429714Y-93719976D02*
X99834476Y-93719976D01*
X99834476Y-92469976D01*
X100429714Y-92469976D01*
X100846380Y-92469976D02*
X101679714Y-93719976D01*
X101679714Y-92469976D02*
X100846380Y-93719976D01*
D10*
X96840428Y-92027261D02*
X96840428Y-90027261D01*
X96840428Y-90979642D02*
X97983285Y-90979642D01*
X97983285Y-92027261D02*
X97983285Y-90027261D01*
X98935666Y-90979642D02*
X99602333Y-90979642D01*
X99888047Y-92027261D02*
X98935666Y-92027261D01*
X98935666Y-90027261D01*
X99888047Y-90027261D01*
X100554714Y-90027261D02*
X101888047Y-92027261D01*
X101888047Y-90027261D02*
X100554714Y-92027261D01*
D11*
X115097333Y-93243785D02*
X116049714Y-93243785D01*
X115811619Y-93481880D02*
X116049714Y-93243785D01*
X115811619Y-93005690D01*
X116644952Y-93719976D02*
X116644952Y-92469976D01*
X116942571Y-92469976D01*
X117121142Y-92529500D01*
X117240190Y-92648547D01*
X117299714Y-92767595D01*
X117359238Y-93005690D01*
X117359238Y-93184261D01*
X117299714Y-93422357D01*
X117240190Y-93541404D01*
X117121142Y-93660452D01*
X116942571Y-93719976D01*
X116644952Y-93719976D01*
X117894952Y-93065214D02*
X118311619Y-93065214D01*
X118490190Y-93719976D02*
X117894952Y-93719976D01*
X117894952Y-92469976D01*
X118490190Y-92469976D01*
X119740190Y-93600928D02*
X119680666Y-93660452D01*
X119502095Y-93719976D01*
X119383047Y-93719976D01*
X119204476Y-93660452D01*
X119085428Y-93541404D01*
X119025904Y-93422357D01*
X118966380Y-93184261D01*
X118966380Y-93005690D01*
X119025904Y-92767595D01*
X119085428Y-92648547D01*
X119204476Y-92529500D01*
X119383047Y-92469976D01*
X119502095Y-92469976D01*
X119680666Y-92529500D01*
X119740190Y-92589023D01*
D10*
X114960428Y-92027261D02*
X114960428Y-90027261D01*
X115436619Y-90027261D01*
X115722333Y-90122500D01*
X115912809Y-90312976D01*
X116008047Y-90503452D01*
X116103285Y-90884404D01*
X116103285Y-91170119D01*
X116008047Y-91551071D01*
X115912809Y-91741547D01*
X115722333Y-91932023D01*
X115436619Y-92027261D01*
X114960428Y-92027261D01*
X116960428Y-90979642D02*
X117627095Y-90979642D01*
X117912809Y-92027261D02*
X116960428Y-92027261D01*
X116960428Y-90027261D01*
X117912809Y-90027261D01*
X119912809Y-91836785D02*
X119817571Y-91932023D01*
X119531857Y-92027261D01*
X119341380Y-92027261D01*
X119055666Y-91932023D01*
X118865190Y-91741547D01*
X118769952Y-91551071D01*
X118674714Y-91170119D01*
X118674714Y-90884404D01*
X118769952Y-90503452D01*
X118865190Y-90312976D01*
X119055666Y-90122500D01*
X119341380Y-90027261D01*
X119531857Y-90027261D01*
X119817571Y-90122500D01*
X119912809Y-90217738D01*
X131207428Y-93019428D02*
X131064571Y-93162285D01*
X130636000Y-93305142D01*
X130350285Y-93305142D01*
X129921714Y-93162285D01*
X129636000Y-92876571D01*
X129493142Y-92590857D01*
X129350285Y-92019428D01*
X129350285Y-91590857D01*
X129493142Y-91019428D01*
X129636000Y-90733714D01*
X129921714Y-90448000D01*
X130350285Y-90305142D01*
X130636000Y-90305142D01*
X131064571Y-90448000D01*
X131207428Y-90590857D01*
X133921714Y-93305142D02*
X132493142Y-93305142D01*
X132493142Y-90305142D01*
X134921714Y-91733714D02*
X135921714Y-91733714D01*
X136350285Y-93305142D02*
X134921714Y-93305142D01*
X134921714Y-90305142D01*
X136350285Y-90305142D01*
X137493142Y-92448000D02*
X138921714Y-92448000D01*
X137207428Y-93305142D02*
X138207428Y-90305142D01*
X139207428Y-93305142D01*
X141921714Y-93305142D02*
X140921714Y-91876571D01*
X140207428Y-93305142D02*
X140207428Y-90305142D01*
X141350285Y-90305142D01*
X141636000Y-90448000D01*
X141778857Y-90590857D01*
X141921714Y-90876571D01*
X141921714Y-91305142D01*
X141778857Y-91590857D01*
X141636000Y-91733714D01*
X141350285Y-91876571D01*
X140207428Y-91876571D01*
D11*
X53809428Y-37361904D02*
X53809428Y-37695238D01*
X53285619Y-37838095D02*
X53285619Y-37361904D01*
X54285619Y-37361904D01*
X54285619Y-37838095D01*
X53285619Y-38266666D02*
X54285619Y-38266666D01*
X53285619Y-38838095D01*
X54285619Y-38838095D01*
X53665428Y-68778666D02*
X53617809Y-68921523D01*
X53570190Y-68969142D01*
X53474952Y-69016761D01*
X53332095Y-69016761D01*
X53236857Y-68969142D01*
X53189238Y-68921523D01*
X53141619Y-68826285D01*
X53141619Y-68445333D01*
X54141619Y-68445333D01*
X54141619Y-68778666D01*
X54094000Y-68873904D01*
X54046380Y-68921523D01*
X53951142Y-68969142D01*
X53855904Y-68969142D01*
X53760666Y-68921523D01*
X53713047Y-68873904D01*
X53665428Y-68778666D01*
X53665428Y-68445333D01*
X54141619Y-69635809D02*
X54141619Y-69826285D01*
X54094000Y-69921523D01*
X53998761Y-70016761D01*
X53808285Y-70064380D01*
X53474952Y-70064380D01*
X53284476Y-70016761D01*
X53189238Y-69921523D01*
X53141619Y-69826285D01*
X53141619Y-69635809D01*
X53189238Y-69540571D01*
X53284476Y-69445333D01*
X53474952Y-69397714D01*
X53808285Y-69397714D01*
X53998761Y-69445333D01*
X54094000Y-69540571D01*
X54141619Y-69635809D01*
X54141619Y-70683428D02*
X54141619Y-70873904D01*
X54094000Y-70969142D01*
X53998761Y-71064380D01*
X53808285Y-71112000D01*
X53474952Y-71112000D01*
X53284476Y-71064380D01*
X53189238Y-70969142D01*
X53141619Y-70873904D01*
X53141619Y-70683428D01*
X53189238Y-70588190D01*
X53284476Y-70492952D01*
X53474952Y-70445333D01*
X53808285Y-70445333D01*
X53998761Y-70492952D01*
X54094000Y-70588190D01*
X54141619Y-70683428D01*
X54141619Y-71397714D02*
X54141619Y-71969142D01*
X53141619Y-71683428D02*
X54141619Y-71683428D01*
X54141619Y-72492952D02*
X54141619Y-72588190D01*
X54094000Y-72683428D01*
X54046380Y-72731047D01*
X53951142Y-72778666D01*
X53760666Y-72826285D01*
X53522571Y-72826285D01*
X53332095Y-72778666D01*
X53236857Y-72731047D01*
X53189238Y-72683428D01*
X53141619Y-72588190D01*
X53141619Y-72492952D01*
X53189238Y-72397714D01*
X53236857Y-72350095D01*
X53332095Y-72302476D01*
X53522571Y-72254857D01*
X53760666Y-72254857D01*
X53951142Y-72302476D01*
X54046380Y-72350095D01*
X54094000Y-72397714D01*
X54141619Y-72492952D01*
D12*
X148440380Y-34236380D02*
X148440380Y-34045904D01*
X148488000Y-33950666D01*
X148583238Y-33855428D01*
X148773714Y-33807809D01*
X149107047Y-33807809D01*
X149297523Y-33855428D01*
X149392761Y-33950666D01*
X149440380Y-34045904D01*
X149440380Y-34236380D01*
X149392761Y-34331619D01*
X149297523Y-34426857D01*
X149107047Y-34474476D01*
X148773714Y-34474476D01*
X148583238Y-34426857D01*
X148488000Y-34331619D01*
X148440380Y-34236380D01*
X148916571Y-33045904D02*
X148916571Y-33379238D01*
X149440380Y-33379238D02*
X148440380Y-33379238D01*
X148440380Y-32903047D01*
X148916571Y-32188761D02*
X148916571Y-32522095D01*
X149440380Y-32522095D02*
X148440380Y-32522095D01*
X148440380Y-32045904D01*
X148440380Y-47403047D02*
X148440380Y-47212571D01*
X148488000Y-47117333D01*
X148583238Y-47022095D01*
X148773714Y-46974476D01*
X149107047Y-46974476D01*
X149297523Y-47022095D01*
X149392761Y-47117333D01*
X149440380Y-47212571D01*
X149440380Y-47403047D01*
X149392761Y-47498285D01*
X149297523Y-47593523D01*
X149107047Y-47641142D01*
X148773714Y-47641142D01*
X148583238Y-47593523D01*
X148488000Y-47498285D01*
X148440380Y-47403047D01*
X149440380Y-46545904D02*
X148440380Y-46545904D01*
X149440380Y-45974476D01*
X148440380Y-45974476D01*
D13*
X114066000Y-52208000D02*
X114066000Y-53213000D01*
X114066000Y-55458000D02*
X113836000Y-55458000D01*
X114066000Y-54483000D02*
X114066000Y-55458000D01*
X110846000Y-54483000D02*
X110846000Y-55458000D01*
X111076000Y-55458000D02*
X110846000Y-55458000D01*
X110846000Y-52238000D02*
X110846000Y-53213000D01*
X111076000Y-52238000D02*
X110846000Y-52238000D01*
X142854000Y-28263436D02*
X142854000Y-29467564D01*
X144674000Y-28263436D02*
X144674000Y-29467564D01*
X83006000Y-36880000D02*
X83006000Y-38695000D01*
X82751000Y-36880000D02*
X83006000Y-36880000D01*
X82751000Y-33020000D02*
X82751000Y-36880000D01*
X82751000Y-29160000D02*
X83006000Y-29160000D01*
X82751000Y-33020000D02*
X82751000Y-29160000D01*
X93271000Y-36880000D02*
X93016000Y-36880000D01*
X93271000Y-33020000D02*
X93271000Y-36880000D01*
X93271000Y-29160000D02*
X93016000Y-29160000D01*
X93271000Y-33020000D02*
X93271000Y-29160000D01*
X69496000Y-99574000D02*
X69496000Y-101514000D01*
X69496000Y-94394000D02*
X69496000Y-96514000D01*
X57196000Y-94394000D02*
X69496000Y-94394000D01*
X57196000Y-96514000D02*
X57196000Y-94394000D01*
X57196000Y-101514000D02*
X57196000Y-99574000D01*
X57196000Y-106694000D02*
X57196000Y-104574000D01*
X69496000Y-106694000D02*
X57196000Y-106694000D01*
X69496000Y-104574000D02*
X69496000Y-106694000D01*
X67825050Y-100504000D02*
G75*
G03*
X67825050Y-100504000I-4579050J0D01*
G01*
X141886000Y-200492000D02*
X141886000Y-202432000D01*
X141886000Y-195312000D02*
X141886000Y-197432000D01*
X129586000Y-195312000D02*
X141886000Y-195312000D01*
X129586000Y-197432000D02*
X129586000Y-195312000D01*
X129586000Y-202432000D02*
X129586000Y-200492000D01*
X129586000Y-207612000D02*
X129586000Y-205492000D01*
X141886000Y-207612000D02*
X129586000Y-207612000D01*
X141886000Y-205492000D02*
X141886000Y-207612000D01*
X140215050Y-201422000D02*
G75*
G03*
X140215050Y-201422000I-4579050J0D01*
G01*
X141886000Y-183855000D02*
X141886000Y-185795000D01*
X141886000Y-178675000D02*
X141886000Y-180795000D01*
X129586000Y-178675000D02*
X141886000Y-178675000D01*
X129586000Y-180795000D02*
X129586000Y-178675000D01*
X129586000Y-185795000D02*
X129586000Y-183855000D01*
X129586000Y-190975000D02*
X129586000Y-188855000D01*
X141886000Y-190975000D02*
X129586000Y-190975000D01*
X141886000Y-188855000D02*
X141886000Y-190975000D01*
X140215050Y-184785000D02*
G75*
G03*
X140215050Y-184785000I-4579050J0D01*
G01*
X141886000Y-167091000D02*
X141886000Y-169031000D01*
X141886000Y-161911000D02*
X141886000Y-164031000D01*
X129586000Y-161911000D02*
X141886000Y-161911000D01*
X129586000Y-164031000D02*
X129586000Y-161911000D01*
X129586000Y-169031000D02*
X129586000Y-167091000D01*
X129586000Y-174211000D02*
X129586000Y-172091000D01*
X141886000Y-174211000D02*
X129586000Y-174211000D01*
X141886000Y-172091000D02*
X141886000Y-174211000D01*
X140215050Y-168021000D02*
G75*
G03*
X140215050Y-168021000I-4579050J0D01*
G01*
X141886000Y-150073000D02*
X141886000Y-152013000D01*
X141886000Y-144893000D02*
X141886000Y-147013000D01*
X129586000Y-144893000D02*
X141886000Y-144893000D01*
X129586000Y-147013000D02*
X129586000Y-144893000D01*
X129586000Y-152013000D02*
X129586000Y-150073000D01*
X129586000Y-157193000D02*
X129586000Y-155073000D01*
X141886000Y-157193000D02*
X129586000Y-157193000D01*
X141886000Y-155073000D02*
X141886000Y-157193000D01*
X140215050Y-151003000D02*
G75*
G03*
X140215050Y-151003000I-4579050J0D01*
G01*
X141886000Y-133182000D02*
X141886000Y-135122000D01*
X141886000Y-128002000D02*
X141886000Y-130122000D01*
X129586000Y-128002000D02*
X141886000Y-128002000D01*
X129586000Y-130122000D02*
X129586000Y-128002000D01*
X129586000Y-135122000D02*
X129586000Y-133182000D01*
X129586000Y-140302000D02*
X129586000Y-138182000D01*
X141886000Y-140302000D02*
X129586000Y-140302000D01*
X141886000Y-138182000D02*
X141886000Y-140302000D01*
X140215050Y-134112000D02*
G75*
G03*
X140215050Y-134112000I-4579050J0D01*
G01*
X141886000Y-116418000D02*
X141886000Y-118358000D01*
X141886000Y-111238000D02*
X141886000Y-113358000D01*
X129586000Y-111238000D02*
X141886000Y-111238000D01*
X129586000Y-113358000D02*
X129586000Y-111238000D01*
X129586000Y-118358000D02*
X129586000Y-116418000D01*
X129586000Y-123538000D02*
X129586000Y-121418000D01*
X141886000Y-123538000D02*
X129586000Y-123538000D01*
X141886000Y-121418000D02*
X141886000Y-123538000D01*
X140215050Y-117348000D02*
G75*
G03*
X140215050Y-117348000I-4579050J0D01*
G01*
X141886000Y-99400000D02*
X141886000Y-101340000D01*
X141886000Y-94220000D02*
X141886000Y-96340000D01*
X129586000Y-94220000D02*
X141886000Y-94220000D01*
X129586000Y-96340000D02*
X129586000Y-94220000D01*
X129586000Y-101340000D02*
X129586000Y-99400000D01*
X129586000Y-106520000D02*
X129586000Y-104400000D01*
X141886000Y-106520000D02*
X129586000Y-106520000D01*
X141886000Y-104400000D02*
X141886000Y-106520000D01*
X140215050Y-100330000D02*
G75*
G03*
X140215050Y-100330000I-4579050J0D01*
G01*
X123852000Y-200492000D02*
X123852000Y-202432000D01*
X123852000Y-195312000D02*
X123852000Y-197432000D01*
X111552000Y-195312000D02*
X123852000Y-195312000D01*
X111552000Y-197432000D02*
X111552000Y-195312000D01*
X111552000Y-202432000D02*
X111552000Y-200492000D01*
X111552000Y-207612000D02*
X111552000Y-205492000D01*
X123852000Y-207612000D02*
X111552000Y-207612000D01*
X123852000Y-205492000D02*
X123852000Y-207612000D01*
X122181050Y-201422000D02*
G75*
G03*
X122181050Y-201422000I-4579050J0D01*
G01*
X123852000Y-183855000D02*
X123852000Y-185795000D01*
X123852000Y-178675000D02*
X123852000Y-180795000D01*
X111552000Y-178675000D02*
X123852000Y-178675000D01*
X111552000Y-180795000D02*
X111552000Y-178675000D01*
X111552000Y-185795000D02*
X111552000Y-183855000D01*
X111552000Y-190975000D02*
X111552000Y-188855000D01*
X123852000Y-190975000D02*
X111552000Y-190975000D01*
X123852000Y-188855000D02*
X123852000Y-190975000D01*
X122181050Y-184785000D02*
G75*
G03*
X122181050Y-184785000I-4579050J0D01*
G01*
X123852000Y-167218000D02*
X123852000Y-169158000D01*
X123852000Y-162038000D02*
X123852000Y-164158000D01*
X111552000Y-162038000D02*
X123852000Y-162038000D01*
X111552000Y-164158000D02*
X111552000Y-162038000D01*
X111552000Y-169158000D02*
X111552000Y-167218000D01*
X111552000Y-174338000D02*
X111552000Y-172218000D01*
X123852000Y-174338000D02*
X111552000Y-174338000D01*
X123852000Y-172218000D02*
X123852000Y-174338000D01*
X122181050Y-168148000D02*
G75*
G03*
X122181050Y-168148000I-4579050J0D01*
G01*
X123852000Y-150073000D02*
X123852000Y-152013000D01*
X123852000Y-144893000D02*
X123852000Y-147013000D01*
X111552000Y-144893000D02*
X123852000Y-144893000D01*
X111552000Y-147013000D02*
X111552000Y-144893000D01*
X111552000Y-152013000D02*
X111552000Y-150073000D01*
X111552000Y-157193000D02*
X111552000Y-155073000D01*
X123852000Y-157193000D02*
X111552000Y-157193000D01*
X123852000Y-155073000D02*
X123852000Y-157193000D01*
X122181050Y-151003000D02*
G75*
G03*
X122181050Y-151003000I-4579050J0D01*
G01*
X123852000Y-133182000D02*
X123852000Y-135122000D01*
X123852000Y-128002000D02*
X123852000Y-130122000D01*
X111552000Y-128002000D02*
X123852000Y-128002000D01*
X111552000Y-130122000D02*
X111552000Y-128002000D01*
X111552000Y-135122000D02*
X111552000Y-133182000D01*
X111552000Y-140302000D02*
X111552000Y-138182000D01*
X123852000Y-140302000D02*
X111552000Y-140302000D01*
X123852000Y-138182000D02*
X123852000Y-140302000D01*
X122181050Y-134112000D02*
G75*
G03*
X122181050Y-134112000I-4579050J0D01*
G01*
X123852000Y-116418000D02*
X123852000Y-118358000D01*
X123852000Y-111238000D02*
X123852000Y-113358000D01*
X111552000Y-111238000D02*
X123852000Y-111238000D01*
X111552000Y-113358000D02*
X111552000Y-111238000D01*
X111552000Y-118358000D02*
X111552000Y-116418000D01*
X111552000Y-123538000D02*
X111552000Y-121418000D01*
X123852000Y-123538000D02*
X111552000Y-123538000D01*
X123852000Y-121418000D02*
X123852000Y-123538000D01*
X122181050Y-117348000D02*
G75*
G03*
X122181050Y-117348000I-4579050J0D01*
G01*
X123852000Y-99400000D02*
X123852000Y-101340000D01*
X123852000Y-94220000D02*
X123852000Y-96340000D01*
X111552000Y-94220000D02*
X123852000Y-94220000D01*
X111552000Y-96340000D02*
X111552000Y-94220000D01*
X111552000Y-101340000D02*
X111552000Y-99400000D01*
X111552000Y-106520000D02*
X111552000Y-104400000D01*
X123852000Y-106520000D02*
X111552000Y-106520000D01*
X123852000Y-104400000D02*
X123852000Y-106520000D01*
X122181050Y-100330000D02*
G75*
G03*
X122181050Y-100330000I-4579050J0D01*
G01*
X105818000Y-200619000D02*
X105818000Y-202559000D01*
X105818000Y-195439000D02*
X105818000Y-197559000D01*
X93518000Y-195439000D02*
X105818000Y-195439000D01*
X93518000Y-197559000D02*
X93518000Y-195439000D01*
X93518000Y-202559000D02*
X93518000Y-200619000D01*
X93518000Y-207739000D02*
X93518000Y-205619000D01*
X105818000Y-207739000D02*
X93518000Y-207739000D01*
X105818000Y-205619000D02*
X105818000Y-207739000D01*
X104147050Y-201549000D02*
G75*
G03*
X104147050Y-201549000I-4579050J0D01*
G01*
X105818000Y-183855000D02*
X105818000Y-185795000D01*
X105818000Y-178675000D02*
X105818000Y-180795000D01*
X93518000Y-178675000D02*
X105818000Y-178675000D01*
X93518000Y-180795000D02*
X93518000Y-178675000D01*
X93518000Y-185795000D02*
X93518000Y-183855000D01*
X93518000Y-190975000D02*
X93518000Y-188855000D01*
X105818000Y-190975000D02*
X93518000Y-190975000D01*
X105818000Y-188855000D02*
X105818000Y-190975000D01*
X104147050Y-184785000D02*
G75*
G03*
X104147050Y-184785000I-4579050J0D01*
G01*
X105818000Y-167091000D02*
X105818000Y-169031000D01*
X105818000Y-161911000D02*
X105818000Y-164031000D01*
X93518000Y-161911000D02*
X105818000Y-161911000D01*
X93518000Y-164031000D02*
X93518000Y-161911000D01*
X93518000Y-169031000D02*
X93518000Y-167091000D01*
X93518000Y-174211000D02*
X93518000Y-172091000D01*
X105818000Y-174211000D02*
X93518000Y-174211000D01*
X105818000Y-172091000D02*
X105818000Y-174211000D01*
X104147050Y-168021000D02*
G75*
G03*
X104147050Y-168021000I-4579050J0D01*
G01*
X105818000Y-150327000D02*
X105818000Y-152267000D01*
X105818000Y-145147000D02*
X105818000Y-147267000D01*
X93518000Y-145147000D02*
X105818000Y-145147000D01*
X93518000Y-147267000D02*
X93518000Y-145147000D01*
X93518000Y-152267000D02*
X93518000Y-150327000D01*
X93518000Y-157447000D02*
X93518000Y-155327000D01*
X105818000Y-157447000D02*
X93518000Y-157447000D01*
X105818000Y-155327000D02*
X105818000Y-157447000D01*
X104147050Y-151257000D02*
G75*
G03*
X104147050Y-151257000I-4579050J0D01*
G01*
X105818000Y-133309000D02*
X105818000Y-135249000D01*
X105818000Y-128129000D02*
X105818000Y-130249000D01*
X93518000Y-128129000D02*
X105818000Y-128129000D01*
X93518000Y-130249000D02*
X93518000Y-128129000D01*
X93518000Y-135249000D02*
X93518000Y-133309000D01*
X93518000Y-140429000D02*
X93518000Y-138309000D01*
X105818000Y-140429000D02*
X93518000Y-140429000D01*
X105818000Y-138309000D02*
X105818000Y-140429000D01*
X104147050Y-134239000D02*
G75*
G03*
X104147050Y-134239000I-4579050J0D01*
G01*
X105818000Y-116418000D02*
X105818000Y-118358000D01*
X105818000Y-111238000D02*
X105818000Y-113358000D01*
X93518000Y-111238000D02*
X105818000Y-111238000D01*
X93518000Y-113358000D02*
X93518000Y-111238000D01*
X93518000Y-118358000D02*
X93518000Y-116418000D01*
X93518000Y-123538000D02*
X93518000Y-121418000D01*
X105818000Y-123538000D02*
X93518000Y-123538000D01*
X105818000Y-121418000D02*
X105818000Y-123538000D01*
X104147050Y-117348000D02*
G75*
G03*
X104147050Y-117348000I-4579050J0D01*
G01*
X105818000Y-99400000D02*
X105818000Y-101340000D01*
X105818000Y-94220000D02*
X105818000Y-96340000D01*
X93518000Y-94220000D02*
X105818000Y-94220000D01*
X93518000Y-96340000D02*
X93518000Y-94220000D01*
X93518000Y-101340000D02*
X93518000Y-99400000D01*
X93518000Y-106520000D02*
X93518000Y-104400000D01*
X105818000Y-106520000D02*
X93518000Y-106520000D01*
X105818000Y-104400000D02*
X105818000Y-106520000D01*
X104147050Y-100330000D02*
G75*
G03*
X104147050Y-100330000I-4579050J0D01*
G01*
X87530000Y-200746000D02*
X87530000Y-202686000D01*
X87530000Y-195566000D02*
X87530000Y-197686000D01*
X75230000Y-195566000D02*
X87530000Y-195566000D01*
X75230000Y-197686000D02*
X75230000Y-195566000D01*
X75230000Y-202686000D02*
X75230000Y-200746000D01*
X75230000Y-207866000D02*
X75230000Y-205746000D01*
X87530000Y-207866000D02*
X75230000Y-207866000D01*
X87530000Y-205746000D02*
X87530000Y-207866000D01*
X85859050Y-201676000D02*
G75*
G03*
X85859050Y-201676000I-4579050J0D01*
G01*
X87530000Y-183855000D02*
X87530000Y-185795000D01*
X87530000Y-178675000D02*
X87530000Y-180795000D01*
X75230000Y-178675000D02*
X87530000Y-178675000D01*
X75230000Y-180795000D02*
X75230000Y-178675000D01*
X75230000Y-185795000D02*
X75230000Y-183855000D01*
X75230000Y-190975000D02*
X75230000Y-188855000D01*
X87530000Y-190975000D02*
X75230000Y-190975000D01*
X87530000Y-188855000D02*
X87530000Y-190975000D01*
X85859050Y-184785000D02*
G75*
G03*
X85859050Y-184785000I-4579050J0D01*
G01*
X87584000Y-167091000D02*
X87584000Y-169031000D01*
X87584000Y-161911000D02*
X87584000Y-164031000D01*
X75284000Y-161911000D02*
X87584000Y-161911000D01*
X75284000Y-164031000D02*
X75284000Y-161911000D01*
X75284000Y-169031000D02*
X75284000Y-167091000D01*
X75284000Y-174211000D02*
X75284000Y-172091000D01*
X87584000Y-174211000D02*
X75284000Y-174211000D01*
X87584000Y-172091000D02*
X87584000Y-174211000D01*
X85913050Y-168021000D02*
G75*
G03*
X85913050Y-168021000I-4579050J0D01*
G01*
X87530000Y-150327000D02*
X87530000Y-152267000D01*
X87530000Y-145147000D02*
X87530000Y-147267000D01*
X75230000Y-145147000D02*
X87530000Y-145147000D01*
X75230000Y-147267000D02*
X75230000Y-145147000D01*
X75230000Y-152267000D02*
X75230000Y-150327000D01*
X75230000Y-157447000D02*
X75230000Y-155327000D01*
X87530000Y-157447000D02*
X75230000Y-157447000D01*
X87530000Y-155327000D02*
X87530000Y-157447000D01*
X85859050Y-151257000D02*
G75*
G03*
X85859050Y-151257000I-4579050J0D01*
G01*
X87530000Y-133309000D02*
X87530000Y-135249000D01*
X87530000Y-128129000D02*
X87530000Y-130249000D01*
X75230000Y-128129000D02*
X87530000Y-128129000D01*
X75230000Y-130249000D02*
X75230000Y-128129000D01*
X75230000Y-135249000D02*
X75230000Y-133309000D01*
X75230000Y-140429000D02*
X75230000Y-138309000D01*
X87530000Y-140429000D02*
X75230000Y-140429000D01*
X87530000Y-138309000D02*
X87530000Y-140429000D01*
X85859050Y-134239000D02*
G75*
G03*
X85859050Y-134239000I-4579050J0D01*
G01*
X87530000Y-116418000D02*
X87530000Y-118358000D01*
X87530000Y-111238000D02*
X87530000Y-113358000D01*
X75230000Y-111238000D02*
X87530000Y-111238000D01*
X75230000Y-113358000D02*
X75230000Y-111238000D01*
X75230000Y-118358000D02*
X75230000Y-116418000D01*
X75230000Y-123538000D02*
X75230000Y-121418000D01*
X87530000Y-123538000D02*
X75230000Y-123538000D01*
X87530000Y-121418000D02*
X87530000Y-123538000D01*
X85859050Y-117348000D02*
G75*
G03*
X85859050Y-117348000I-4579050J0D01*
G01*
X87530000Y-99400000D02*
X87530000Y-101340000D01*
X87530000Y-94220000D02*
X87530000Y-96340000D01*
X75230000Y-94220000D02*
X87530000Y-94220000D01*
X75230000Y-96340000D02*
X75230000Y-94220000D01*
X75230000Y-101340000D02*
X75230000Y-99400000D01*
X75230000Y-106520000D02*
X75230000Y-104400000D01*
X87530000Y-106520000D02*
X75230000Y-106520000D01*
X87530000Y-104400000D02*
X87530000Y-106520000D01*
X85859050Y-100330000D02*
G75*
G03*
X85859050Y-100330000I-4579050J0D01*
G01*
X69496000Y-200638000D02*
X69496000Y-202578000D01*
X69496000Y-195458000D02*
X69496000Y-197578000D01*
X57196000Y-195458000D02*
X69496000Y-195458000D01*
X57196000Y-197578000D02*
X57196000Y-195458000D01*
X57196000Y-202578000D02*
X57196000Y-200638000D01*
X57196000Y-207758000D02*
X57196000Y-205638000D01*
X69496000Y-207758000D02*
X57196000Y-207758000D01*
X69496000Y-205638000D02*
X69496000Y-207758000D01*
X67825050Y-201568000D02*
G75*
G03*
X67825050Y-201568000I-4579050J0D01*
G01*
X69496000Y-183794000D02*
X69496000Y-185734000D01*
X69496000Y-178614000D02*
X69496000Y-180734000D01*
X57196000Y-178614000D02*
X69496000Y-178614000D01*
X57196000Y-180734000D02*
X57196000Y-178614000D01*
X57196000Y-185734000D02*
X57196000Y-183794000D01*
X57196000Y-190914000D02*
X57196000Y-188794000D01*
X69496000Y-190914000D02*
X57196000Y-190914000D01*
X69496000Y-188794000D02*
X69496000Y-190914000D01*
X67825050Y-184724000D02*
G75*
G03*
X67825050Y-184724000I-4579050J0D01*
G01*
X69496000Y-167091000D02*
X69496000Y-169031000D01*
X69496000Y-161911000D02*
X69496000Y-164031000D01*
X57196000Y-161911000D02*
X69496000Y-161911000D01*
X57196000Y-164031000D02*
X57196000Y-161911000D01*
X57196000Y-169031000D02*
X57196000Y-167091000D01*
X57196000Y-174211000D02*
X57196000Y-172091000D01*
X69496000Y-174211000D02*
X57196000Y-174211000D01*
X69496000Y-172091000D02*
X69496000Y-174211000D01*
X67825050Y-168021000D02*
G75*
G03*
X67825050Y-168021000I-4579050J0D01*
G01*
X69496000Y-150327000D02*
X69496000Y-152267000D01*
X69496000Y-145147000D02*
X69496000Y-147267000D01*
X57196000Y-145147000D02*
X69496000Y-145147000D01*
X57196000Y-147267000D02*
X57196000Y-145147000D01*
X57196000Y-152267000D02*
X57196000Y-150327000D01*
X57196000Y-157447000D02*
X57196000Y-155327000D01*
X69496000Y-157447000D02*
X57196000Y-157447000D01*
X69496000Y-155327000D02*
X69496000Y-157447000D01*
X67825050Y-151257000D02*
G75*
G03*
X67825050Y-151257000I-4579050J0D01*
G01*
X69496000Y-133262000D02*
X69496000Y-135202000D01*
X69496000Y-128082000D02*
X69496000Y-130202000D01*
X57196000Y-128082000D02*
X69496000Y-128082000D01*
X57196000Y-130202000D02*
X57196000Y-128082000D01*
X57196000Y-135202000D02*
X57196000Y-133262000D01*
X57196000Y-140382000D02*
X57196000Y-138262000D01*
X69496000Y-140382000D02*
X57196000Y-140382000D01*
X69496000Y-138262000D02*
X69496000Y-140382000D01*
X67825050Y-134192000D02*
G75*
G03*
X67825050Y-134192000I-4579050J0D01*
G01*
X69496000Y-116418000D02*
X69496000Y-118358000D01*
X69496000Y-111238000D02*
X69496000Y-113358000D01*
X57196000Y-111238000D02*
X69496000Y-111238000D01*
X57196000Y-113358000D02*
X57196000Y-111238000D01*
X57196000Y-118358000D02*
X57196000Y-116418000D01*
X57196000Y-123538000D02*
X57196000Y-121418000D01*
X69496000Y-123538000D02*
X57196000Y-123538000D01*
X69496000Y-121418000D02*
X69496000Y-123538000D01*
X67825050Y-117348000D02*
G75*
G03*
X67825050Y-117348000I-4579050J0D01*
G01*
X103589500Y-31018564D02*
X103589500Y-29814436D01*
X101769500Y-31018564D02*
X101769500Y-29814436D01*
X100414500Y-30982064D02*
X100414500Y-29777936D01*
X98594500Y-30982064D02*
X98594500Y-29777936D01*
X101852000Y-36314500D02*
X100392000Y-36314500D01*
X101852000Y-33154500D02*
X98692000Y-33154500D01*
X101852000Y-33154500D02*
X101852000Y-34084500D01*
X101852000Y-36314500D02*
X101852000Y-35384500D01*
X110593500Y-51338000D02*
X114993500Y-51338000D01*
X110593500Y-48738000D02*
X114993500Y-48738000D01*
X113353436Y-58822000D02*
X114557564Y-58822000D01*
X113353436Y-57002000D02*
X114557564Y-57002000D01*
X106393064Y-51414000D02*
X105188936Y-51414000D01*
X106393064Y-53234000D02*
X105188936Y-53234000D01*
X90998000Y-41844000D02*
X90998000Y-39944000D01*
X92898000Y-41844000D02*
X90998000Y-41844000D01*
X92898000Y-39944000D02*
X92898000Y-41844000D01*
X90998000Y-39944000D02*
X92898000Y-39944000D01*
X87061000Y-41844000D02*
X87061000Y-39944000D01*
X88961000Y-41844000D02*
X87061000Y-41844000D01*
X88961000Y-39944000D02*
X88961000Y-41844000D01*
X87061000Y-39944000D02*
X88961000Y-39944000D01*
X83251000Y-41844000D02*
X83251000Y-39944000D01*
X85151000Y-41844000D02*
X83251000Y-41844000D01*
X85151000Y-39944000D02*
X85151000Y-41844000D01*
X83251000Y-39944000D02*
X85151000Y-39944000D01*
X79441000Y-41717000D02*
X79441000Y-39817000D01*
X81341000Y-41717000D02*
X79441000Y-41717000D01*
X81341000Y-39817000D02*
X81341000Y-41717000D01*
X79441000Y-39817000D02*
X81341000Y-39817000D01*
X82997000Y-49845000D02*
X82997000Y-47945000D01*
X84897000Y-49845000D02*
X82997000Y-49845000D01*
X84897000Y-47945000D02*
X84897000Y-49845000D01*
X82997000Y-47945000D02*
X84897000Y-47945000D01*
X79060000Y-49845000D02*
X79060000Y-47945000D01*
X80960000Y-49845000D02*
X79060000Y-49845000D01*
X80960000Y-47945000D02*
X80960000Y-49845000D01*
X79060000Y-47945000D02*
X80960000Y-47945000D01*
X54041000Y-32319000D02*
X54041000Y-30419000D01*
X55941000Y-32319000D02*
X54041000Y-32319000D01*
X55941000Y-30419000D02*
X55941000Y-32319000D01*
X54041000Y-30419000D02*
X55941000Y-30419000D01*
X92522000Y-52766000D02*
X92522000Y-50866000D01*
X94422000Y-52766000D02*
X92522000Y-52766000D01*
X94422000Y-50866000D02*
X94422000Y-52766000D01*
X92522000Y-50866000D02*
X94422000Y-50866000D01*
X88712000Y-52766000D02*
X88712000Y-50866000D01*
X90612000Y-52766000D02*
X88712000Y-52766000D01*
X90612000Y-50866000D02*
X90612000Y-52766000D01*
X88712000Y-50866000D02*
X90612000Y-50866000D01*
X63566000Y-77912000D02*
X63566000Y-76012000D01*
X65466000Y-77912000D02*
X63566000Y-77912000D01*
X65466000Y-76012000D02*
X65466000Y-77912000D01*
X63566000Y-76012000D02*
X65466000Y-76012000D01*
X60772000Y-77912000D02*
X60772000Y-76012000D01*
X62672000Y-77912000D02*
X60772000Y-77912000D01*
X62672000Y-76012000D02*
X62672000Y-77912000D01*
X60772000Y-76012000D02*
X62672000Y-76012000D01*
X57978000Y-77912000D02*
X57978000Y-76012000D01*
X59878000Y-77912000D02*
X57978000Y-77912000D01*
X59878000Y-76012000D02*
X59878000Y-77912000D01*
X57978000Y-76012000D02*
X59878000Y-76012000D01*
X56200000Y-38542000D02*
X56200000Y-36642000D01*
X58100000Y-38542000D02*
X56200000Y-38542000D01*
X58100000Y-36642000D02*
X58100000Y-38542000D01*
X56200000Y-36642000D02*
X58100000Y-36642000D01*
X69916000Y-53274000D02*
X69916000Y-51374000D01*
X71816000Y-53274000D02*
X69916000Y-53274000D01*
X71816000Y-51374000D02*
X71816000Y-53274000D01*
X69916000Y-51374000D02*
X71816000Y-51374000D01*
X67122000Y-53274000D02*
X67122000Y-51374000D01*
X69022000Y-53274000D02*
X67122000Y-53274000D01*
X69022000Y-51374000D02*
X69022000Y-53274000D01*
X67122000Y-51374000D02*
X69022000Y-51374000D01*
X105730000Y-63180000D02*
X105730000Y-61280000D01*
X107630000Y-63180000D02*
X105730000Y-63180000D01*
X107630000Y-61280000D02*
X107630000Y-63180000D01*
X105730000Y-61280000D02*
X107630000Y-61280000D01*
X102682000Y-63180000D02*
X102682000Y-61280000D01*
X104582000Y-63180000D02*
X102682000Y-63180000D01*
X104582000Y-61280000D02*
X104582000Y-63180000D01*
X102682000Y-61280000D02*
X104582000Y-61280000D01*
X99888000Y-63180000D02*
X99888000Y-61280000D01*
X101788000Y-63180000D02*
X99888000Y-63180000D01*
X101788000Y-61280000D02*
X101788000Y-63180000D01*
X99888000Y-61280000D02*
X101788000Y-61280000D01*
X62353436Y-30501000D02*
X63557564Y-30501000D01*
X62353436Y-28681000D02*
X63557564Y-28681000D01*
X89440936Y-56917000D02*
X90645064Y-56917000D01*
X89440936Y-55097000D02*
X90645064Y-55097000D01*
X89440936Y-59584000D02*
X90645064Y-59584000D01*
X89440936Y-57764000D02*
X90645064Y-57764000D01*
X89440936Y-62251000D02*
X90645064Y-62251000D01*
X89440936Y-60431000D02*
X90645064Y-60431000D01*
X89440936Y-64918000D02*
X90645064Y-64918000D01*
X89440936Y-63098000D02*
X90645064Y-63098000D01*
X89440936Y-67585000D02*
X90645064Y-67585000D01*
X89440936Y-65765000D02*
X90645064Y-65765000D01*
X89440936Y-70252000D02*
X90645064Y-70252000D01*
X89440936Y-68432000D02*
X90645064Y-68432000D01*
X144674000Y-37341564D02*
X144674000Y-36137436D01*
X142854000Y-37341564D02*
X142854000Y-36137436D01*
X89440936Y-72919000D02*
X90645064Y-72919000D01*
X89440936Y-71099000D02*
X90645064Y-71099000D01*
X83217936Y-59584000D02*
X84422064Y-59584000D01*
X83217936Y-57764000D02*
X84422064Y-57764000D01*
X83217936Y-62251000D02*
X84422064Y-62251000D01*
X83217936Y-60431000D02*
X84422064Y-60431000D01*
X83217936Y-64918000D02*
X84422064Y-64918000D01*
X83217936Y-63098000D02*
X84422064Y-63098000D01*
X83217936Y-67585000D02*
X84422064Y-67585000D01*
X83217936Y-65765000D02*
X84422064Y-65765000D01*
X83217936Y-70252000D02*
X84422064Y-70252000D01*
X83217936Y-68432000D02*
X84422064Y-68432000D01*
X83217936Y-72919000D02*
X84422064Y-72919000D01*
X83217936Y-71099000D02*
X84422064Y-71099000D01*
X140568000Y-47821436D02*
X140568000Y-49025564D01*
X142388000Y-47821436D02*
X142388000Y-49025564D01*
X83217936Y-75586000D02*
X84422064Y-75586000D01*
X83217936Y-73766000D02*
X84422064Y-73766000D01*
D12*
X150288000Y-38284000D02*
X150288000Y-35984000D01*
X150288000Y-44584000D02*
X150288000Y-42384000D01*
X145688000Y-44584000D02*
X145688000Y-35984000D01*
D13*
X142261000Y-38284564D02*
X142261000Y-37080436D01*
X140441000Y-38284564D02*
X140441000Y-37080436D01*
X52991000Y-31773000D02*
X52991000Y-71773000D01*
X149991000Y-31773000D02*
X52991000Y-31773000D01*
X149991000Y-71773000D02*
X149991000Y-31773000D01*
X52991000Y-71773000D02*
X149991000Y-71773000D01*
X63491000Y-38773000D02*
X63491000Y-64773000D01*
X139491000Y-38773000D02*
X63491000Y-38773000D01*
X139491000Y-64773000D02*
X139491000Y-38773000D01*
X63491000Y-64773000D02*
X139491000Y-64773000D01*
X62491000Y-25603000D02*
X61161000Y-25603000D01*
X61161000Y-25603000D02*
X61161000Y-24273000D01*
X101921000Y-25603000D02*
X101921000Y-22943000D01*
X63761000Y-25603000D02*
X101921000Y-25603000D01*
X63761000Y-22943000D02*
X101921000Y-22943000D01*
X63761000Y-25603000D02*
X63761000Y-22943000D01*
X150491000Y-21773000D02*
X52491000Y-21773000D01*
X150491000Y-81773000D02*
X150491000Y-21773000D01*
X52491000Y-81773000D02*
X150491000Y-81773000D01*
X52491000Y-81773000D02*
X52491000Y-21773000D01*
X62353436Y-28215000D02*
X63557564Y-28215000D01*
X62353436Y-26395000D02*
X63557564Y-26395000D01*
D12*
X58089034Y-64806000D02*
G75*
G03*
X58089034Y-64806000I-1118034J0D01*
G01*
X54971000Y-67056000D02*
X58971000Y-67056000D01*
X58971000Y-62556000D02*
X54971000Y-62556000D01*
X53471000Y-65806000D02*
X53471000Y-63806000D01*
X60471000Y-65806000D02*
X60471000Y-63806000D01*
X58216034Y-42581000D02*
G75*
G03*
X58216034Y-42581000I-1118034J0D01*
G01*
X59098000Y-40331000D02*
X55098000Y-40331000D01*
X55098000Y-44831000D02*
X59098000Y-44831000D01*
X60598000Y-41581000D02*
X60598000Y-43581000D01*
X53598000Y-41581000D02*
X53598000Y-43581000D01*
D13*
X143933000Y-53164000D02*
X143933000Y-52784000D01*
X150353000Y-53164000D02*
X143933000Y-53164000D01*
X150353000Y-71404000D02*
X143933000Y-71404000D01*
X150353000Y-53164000D02*
X150353000Y-71404000D01*
X124608000Y-71404000D02*
X124608000Y-70404000D01*
X125388000Y-71404000D02*
X124608000Y-71404000D01*
X124608000Y-53164000D02*
X124608000Y-54164000D01*
X125388000Y-53164000D02*
X124608000Y-53164000D01*
X118090000Y-22784000D02*
X107168000Y-22784000D01*
X121138000Y-45898000D02*
X121138000Y-25832000D01*
X107168000Y-48692000D02*
X118090000Y-48692000D01*
X104120000Y-25832000D02*
X104120000Y-45898000D01*
X66318000Y-27394000D02*
X66318000Y-28294000D01*
X66318000Y-27394000D02*
X66318000Y-28294000D01*
X66318000Y-27394000D02*
X66318000Y-27394000D01*
X71158000Y-31574000D02*
X71158000Y-32054000D01*
X71158000Y-29274000D02*
X71158000Y-29794000D01*
X71158000Y-27014000D02*
X71158000Y-27494000D01*
X66318000Y-30774000D02*
X66318000Y-32054000D01*
X66318000Y-27014000D02*
X66318000Y-28294000D01*
X66318000Y-32054000D02*
X71158000Y-32054000D01*
X66318000Y-27014000D02*
X71158000Y-27014000D01*
X77618000Y-29304064D02*
X77618000Y-28099936D01*
X75798000Y-29304064D02*
X75798000Y-28099936D01*
X79904000Y-29340564D02*
X79904000Y-28136436D01*
X78084000Y-29340564D02*
X78084000Y-28136436D01*
X63860000Y-63950436D02*
X63860000Y-65154564D01*
X65680000Y-63950436D02*
X65680000Y-65154564D01*
X65680000Y-43274064D02*
X65680000Y-42069936D01*
X63860000Y-43274064D02*
X63860000Y-42069936D01*
X62488000Y-45954000D02*
X63598000Y-45954000D01*
X63598000Y-45954000D02*
X63598000Y-47284000D01*
X52398000Y-45954000D02*
X52398000Y-61314000D01*
X52398000Y-61314000D02*
X61028000Y-61314000D01*
X61028000Y-45954000D02*
X61028000Y-61314000D01*
X52398000Y-45954000D02*
X61028000Y-45954000D01*
X52398000Y-58714000D02*
X61028000Y-58714000D01*
X52398000Y-56174000D02*
X61028000Y-56174000D01*
X52398000Y-53634000D02*
X61028000Y-53634000D01*
X52398000Y-51094000D02*
X61028000Y-51094000D01*
X52398000Y-48554000D02*
X61028000Y-48554000D01*
X61028000Y-60344000D02*
X61438000Y-60344000D01*
X61028000Y-59624000D02*
X61438000Y-59624000D01*
X61028000Y-57804000D02*
X61438000Y-57804000D01*
X61028000Y-57084000D02*
X61438000Y-57084000D01*
X61028000Y-55264000D02*
X61438000Y-55264000D01*
X61028000Y-54544000D02*
X61438000Y-54544000D01*
X61028000Y-52724000D02*
X61438000Y-52724000D01*
X61028000Y-52004000D02*
X61438000Y-52004000D01*
X61028000Y-50184000D02*
X61438000Y-50184000D01*
X61028000Y-49464000D02*
X61438000Y-49464000D01*
X61028000Y-47644000D02*
X61378000Y-47644000D01*
X61028000Y-46924000D02*
X61378000Y-46924000D01*
X52398000Y-48435900D02*
X61028000Y-48435900D01*
X52398000Y-48317805D02*
X61028000Y-48317805D01*
X52398000Y-48199710D02*
X61028000Y-48199710D01*
X52398000Y-48081615D02*
X61028000Y-48081615D01*
X52398000Y-47963520D02*
X61028000Y-47963520D01*
X52398000Y-47845425D02*
X61028000Y-47845425D01*
X52398000Y-47727330D02*
X61028000Y-47727330D01*
X52398000Y-47609235D02*
X61028000Y-47609235D01*
X52398000Y-47491140D02*
X61028000Y-47491140D01*
X52398000Y-47373045D02*
X61028000Y-47373045D01*
X52398000Y-47254950D02*
X61028000Y-47254950D01*
X52398000Y-47136855D02*
X61028000Y-47136855D01*
X52398000Y-47018760D02*
X61028000Y-47018760D01*
X52398000Y-46900665D02*
X61028000Y-46900665D01*
X52398000Y-46782570D02*
X61028000Y-46782570D01*
X52398000Y-46664475D02*
X61028000Y-46664475D01*
X52398000Y-46546380D02*
X61028000Y-46546380D01*
X52398000Y-46428285D02*
X61028000Y-46428285D01*
X52398000Y-46310190D02*
X61028000Y-46310190D01*
X52398000Y-46192095D02*
X61028000Y-46192095D01*
X52398000Y-46074000D02*
X61028000Y-46074000D01*
X82148000Y-32373564D02*
X82148000Y-31169436D01*
X80328000Y-32373564D02*
X80328000Y-31169436D01*
X61578000Y-63919436D02*
X61578000Y-65123564D01*
X63398000Y-63919436D02*
X63398000Y-65123564D01*
X63398000Y-43123564D02*
X63398000Y-41919436D01*
X61578000Y-43123564D02*
X61578000Y-41919436D01*
D12*
X109561380Y-53212904D02*
X110370904Y-53212904D01*
X110466142Y-53165285D01*
X110513761Y-53117666D01*
X110561380Y-53022428D01*
X110561380Y-52831952D01*
X110513761Y-52736714D01*
X110466142Y-52689095D01*
X110370904Y-52641476D01*
X109561380Y-52641476D01*
X109656619Y-52212904D02*
X109609000Y-52165285D01*
X109561380Y-52070047D01*
X109561380Y-51831952D01*
X109609000Y-51736714D01*
X109656619Y-51689095D01*
X109751857Y-51641476D01*
X109847095Y-51641476D01*
X109989952Y-51689095D01*
X110561380Y-52260523D01*
X110561380Y-51641476D01*
X144216380Y-25788857D02*
X143740190Y-26122190D01*
X144216380Y-26360285D02*
X143216380Y-26360285D01*
X143216380Y-25979333D01*
X143264000Y-25884095D01*
X143311619Y-25836476D01*
X143406857Y-25788857D01*
X143549714Y-25788857D01*
X143644952Y-25836476D01*
X143692571Y-25884095D01*
X143740190Y-25979333D01*
X143740190Y-26360285D01*
X143216380Y-25455523D02*
X143216380Y-24836476D01*
X143597333Y-25169809D01*
X143597333Y-25026952D01*
X143644952Y-24931714D01*
X143692571Y-24884095D01*
X143787809Y-24836476D01*
X144025904Y-24836476D01*
X144121142Y-24884095D01*
X144168761Y-24931714D01*
X144216380Y-25026952D01*
X144216380Y-25312666D01*
X144168761Y-25407904D01*
X144121142Y-25455523D01*
X143216380Y-24503142D02*
X143216380Y-23836476D01*
X144216380Y-24265047D01*
X93559380Y-36829904D02*
X94368904Y-36829904D01*
X94464142Y-36782285D01*
X94511761Y-36734666D01*
X94559380Y-36639428D01*
X94559380Y-36448952D01*
X94511761Y-36353714D01*
X94464142Y-36306095D01*
X94368904Y-36258476D01*
X93559380Y-36258476D01*
X93892714Y-35353714D02*
X94559380Y-35353714D01*
X93511761Y-35591809D02*
X94226047Y-35829904D01*
X94226047Y-35210857D01*
X65762666Y-95948761D02*
X65905523Y-95996380D01*
X66143619Y-95996380D01*
X66238857Y-95948761D01*
X66286476Y-95901142D01*
X66334095Y-95805904D01*
X66334095Y-95710666D01*
X66286476Y-95615428D01*
X66238857Y-95567809D01*
X66143619Y-95520190D01*
X65953142Y-95472571D01*
X65857904Y-95424952D01*
X65810285Y-95377333D01*
X65762666Y-95282095D01*
X65762666Y-95186857D01*
X65810285Y-95091619D01*
X65857904Y-95044000D01*
X65953142Y-94996380D01*
X66191238Y-94996380D01*
X66334095Y-95044000D01*
X66667428Y-94996380D02*
X66905523Y-95996380D01*
X67096000Y-95282095D01*
X67286476Y-95996380D01*
X67524571Y-94996380D01*
X67810285Y-94996380D02*
X68429333Y-94996380D01*
X68096000Y-95377333D01*
X68238857Y-95377333D01*
X68334095Y-95424952D01*
X68381714Y-95472571D01*
X68429333Y-95567809D01*
X68429333Y-95805904D01*
X68381714Y-95901142D01*
X68334095Y-95948761D01*
X68238857Y-95996380D01*
X67953142Y-95996380D01*
X67857904Y-95948761D01*
X67810285Y-95901142D01*
X137676476Y-196866761D02*
X137819333Y-196914380D01*
X138057428Y-196914380D01*
X138152666Y-196866761D01*
X138200285Y-196819142D01*
X138247904Y-196723904D01*
X138247904Y-196628666D01*
X138200285Y-196533428D01*
X138152666Y-196485809D01*
X138057428Y-196438190D01*
X137866952Y-196390571D01*
X137771714Y-196342952D01*
X137724095Y-196295333D01*
X137676476Y-196200095D01*
X137676476Y-196104857D01*
X137724095Y-196009619D01*
X137771714Y-195962000D01*
X137866952Y-195914380D01*
X138105047Y-195914380D01*
X138247904Y-195962000D01*
X138581238Y-195914380D02*
X138819333Y-196914380D01*
X139009809Y-196200095D01*
X139200285Y-196914380D01*
X139438380Y-195914380D01*
X139724095Y-195914380D02*
X140343142Y-195914380D01*
X140009809Y-196295333D01*
X140152666Y-196295333D01*
X140247904Y-196342952D01*
X140295523Y-196390571D01*
X140343142Y-196485809D01*
X140343142Y-196723904D01*
X140295523Y-196819142D01*
X140247904Y-196866761D01*
X140152666Y-196914380D01*
X139866952Y-196914380D01*
X139771714Y-196866761D01*
X139724095Y-196819142D01*
X140676476Y-195914380D02*
X141343142Y-195914380D01*
X140914571Y-196914380D01*
X137676476Y-180229761D02*
X137819333Y-180277380D01*
X138057428Y-180277380D01*
X138152666Y-180229761D01*
X138200285Y-180182142D01*
X138247904Y-180086904D01*
X138247904Y-179991666D01*
X138200285Y-179896428D01*
X138152666Y-179848809D01*
X138057428Y-179801190D01*
X137866952Y-179753571D01*
X137771714Y-179705952D01*
X137724095Y-179658333D01*
X137676476Y-179563095D01*
X137676476Y-179467857D01*
X137724095Y-179372619D01*
X137771714Y-179325000D01*
X137866952Y-179277380D01*
X138105047Y-179277380D01*
X138247904Y-179325000D01*
X138581238Y-179277380D02*
X138819333Y-180277380D01*
X139009809Y-179563095D01*
X139200285Y-180277380D01*
X139438380Y-179277380D01*
X139724095Y-179277380D02*
X140343142Y-179277380D01*
X140009809Y-179658333D01*
X140152666Y-179658333D01*
X140247904Y-179705952D01*
X140295523Y-179753571D01*
X140343142Y-179848809D01*
X140343142Y-180086904D01*
X140295523Y-180182142D01*
X140247904Y-180229761D01*
X140152666Y-180277380D01*
X139866952Y-180277380D01*
X139771714Y-180229761D01*
X139724095Y-180182142D01*
X141200285Y-179277380D02*
X141009809Y-179277380D01*
X140914571Y-179325000D01*
X140866952Y-179372619D01*
X140771714Y-179515476D01*
X140724095Y-179705952D01*
X140724095Y-180086904D01*
X140771714Y-180182142D01*
X140819333Y-180229761D01*
X140914571Y-180277380D01*
X141105047Y-180277380D01*
X141200285Y-180229761D01*
X141247904Y-180182142D01*
X141295523Y-180086904D01*
X141295523Y-179848809D01*
X141247904Y-179753571D01*
X141200285Y-179705952D01*
X141105047Y-179658333D01*
X140914571Y-179658333D01*
X140819333Y-179705952D01*
X140771714Y-179753571D01*
X140724095Y-179848809D01*
X137676476Y-163465761D02*
X137819333Y-163513380D01*
X138057428Y-163513380D01*
X138152666Y-163465761D01*
X138200285Y-163418142D01*
X138247904Y-163322904D01*
X138247904Y-163227666D01*
X138200285Y-163132428D01*
X138152666Y-163084809D01*
X138057428Y-163037190D01*
X137866952Y-162989571D01*
X137771714Y-162941952D01*
X137724095Y-162894333D01*
X137676476Y-162799095D01*
X137676476Y-162703857D01*
X137724095Y-162608619D01*
X137771714Y-162561000D01*
X137866952Y-162513380D01*
X138105047Y-162513380D01*
X138247904Y-162561000D01*
X138581238Y-162513380D02*
X138819333Y-163513380D01*
X139009809Y-162799095D01*
X139200285Y-163513380D01*
X139438380Y-162513380D01*
X139724095Y-162513380D02*
X140343142Y-162513380D01*
X140009809Y-162894333D01*
X140152666Y-162894333D01*
X140247904Y-162941952D01*
X140295523Y-162989571D01*
X140343142Y-163084809D01*
X140343142Y-163322904D01*
X140295523Y-163418142D01*
X140247904Y-163465761D01*
X140152666Y-163513380D01*
X139866952Y-163513380D01*
X139771714Y-163465761D01*
X139724095Y-163418142D01*
X141247904Y-162513380D02*
X140771714Y-162513380D01*
X140724095Y-162989571D01*
X140771714Y-162941952D01*
X140866952Y-162894333D01*
X141105047Y-162894333D01*
X141200285Y-162941952D01*
X141247904Y-162989571D01*
X141295523Y-163084809D01*
X141295523Y-163322904D01*
X141247904Y-163418142D01*
X141200285Y-163465761D01*
X141105047Y-163513380D01*
X140866952Y-163513380D01*
X140771714Y-163465761D01*
X140724095Y-163418142D01*
X137676476Y-146447761D02*
X137819333Y-146495380D01*
X138057428Y-146495380D01*
X138152666Y-146447761D01*
X138200285Y-146400142D01*
X138247904Y-146304904D01*
X138247904Y-146209666D01*
X138200285Y-146114428D01*
X138152666Y-146066809D01*
X138057428Y-146019190D01*
X137866952Y-145971571D01*
X137771714Y-145923952D01*
X137724095Y-145876333D01*
X137676476Y-145781095D01*
X137676476Y-145685857D01*
X137724095Y-145590619D01*
X137771714Y-145543000D01*
X137866952Y-145495380D01*
X138105047Y-145495380D01*
X138247904Y-145543000D01*
X138581238Y-145495380D02*
X138819333Y-146495380D01*
X139009809Y-145781095D01*
X139200285Y-146495380D01*
X139438380Y-145495380D01*
X139724095Y-145495380D02*
X140343142Y-145495380D01*
X140009809Y-145876333D01*
X140152666Y-145876333D01*
X140247904Y-145923952D01*
X140295523Y-145971571D01*
X140343142Y-146066809D01*
X140343142Y-146304904D01*
X140295523Y-146400142D01*
X140247904Y-146447761D01*
X140152666Y-146495380D01*
X139866952Y-146495380D01*
X139771714Y-146447761D01*
X139724095Y-146400142D01*
X141200285Y-145828714D02*
X141200285Y-146495380D01*
X140962190Y-145447761D02*
X140724095Y-146162047D01*
X141343142Y-146162047D01*
X137676476Y-129556761D02*
X137819333Y-129604380D01*
X138057428Y-129604380D01*
X138152666Y-129556761D01*
X138200285Y-129509142D01*
X138247904Y-129413904D01*
X138247904Y-129318666D01*
X138200285Y-129223428D01*
X138152666Y-129175809D01*
X138057428Y-129128190D01*
X137866952Y-129080571D01*
X137771714Y-129032952D01*
X137724095Y-128985333D01*
X137676476Y-128890095D01*
X137676476Y-128794857D01*
X137724095Y-128699619D01*
X137771714Y-128652000D01*
X137866952Y-128604380D01*
X138105047Y-128604380D01*
X138247904Y-128652000D01*
X138581238Y-128604380D02*
X138819333Y-129604380D01*
X139009809Y-128890095D01*
X139200285Y-129604380D01*
X139438380Y-128604380D01*
X139724095Y-128604380D02*
X140343142Y-128604380D01*
X140009809Y-128985333D01*
X140152666Y-128985333D01*
X140247904Y-129032952D01*
X140295523Y-129080571D01*
X140343142Y-129175809D01*
X140343142Y-129413904D01*
X140295523Y-129509142D01*
X140247904Y-129556761D01*
X140152666Y-129604380D01*
X139866952Y-129604380D01*
X139771714Y-129556761D01*
X139724095Y-129509142D01*
X140676476Y-128604380D02*
X141295523Y-128604380D01*
X140962190Y-128985333D01*
X141105047Y-128985333D01*
X141200285Y-129032952D01*
X141247904Y-129080571D01*
X141295523Y-129175809D01*
X141295523Y-129413904D01*
X141247904Y-129509142D01*
X141200285Y-129556761D01*
X141105047Y-129604380D01*
X140819333Y-129604380D01*
X140724095Y-129556761D01*
X140676476Y-129509142D01*
X137676476Y-112792761D02*
X137819333Y-112840380D01*
X138057428Y-112840380D01*
X138152666Y-112792761D01*
X138200285Y-112745142D01*
X138247904Y-112649904D01*
X138247904Y-112554666D01*
X138200285Y-112459428D01*
X138152666Y-112411809D01*
X138057428Y-112364190D01*
X137866952Y-112316571D01*
X137771714Y-112268952D01*
X137724095Y-112221333D01*
X137676476Y-112126095D01*
X137676476Y-112030857D01*
X137724095Y-111935619D01*
X137771714Y-111888000D01*
X137866952Y-111840380D01*
X138105047Y-111840380D01*
X138247904Y-111888000D01*
X138581238Y-111840380D02*
X138819333Y-112840380D01*
X139009809Y-112126095D01*
X139200285Y-112840380D01*
X139438380Y-111840380D01*
X139724095Y-111840380D02*
X140343142Y-111840380D01*
X140009809Y-112221333D01*
X140152666Y-112221333D01*
X140247904Y-112268952D01*
X140295523Y-112316571D01*
X140343142Y-112411809D01*
X140343142Y-112649904D01*
X140295523Y-112745142D01*
X140247904Y-112792761D01*
X140152666Y-112840380D01*
X139866952Y-112840380D01*
X139771714Y-112792761D01*
X139724095Y-112745142D01*
X140724095Y-111935619D02*
X140771714Y-111888000D01*
X140866952Y-111840380D01*
X141105047Y-111840380D01*
X141200285Y-111888000D01*
X141247904Y-111935619D01*
X141295523Y-112030857D01*
X141295523Y-112126095D01*
X141247904Y-112268952D01*
X140676476Y-112840380D01*
X141295523Y-112840380D01*
X137676476Y-95774761D02*
X137819333Y-95822380D01*
X138057428Y-95822380D01*
X138152666Y-95774761D01*
X138200285Y-95727142D01*
X138247904Y-95631904D01*
X138247904Y-95536666D01*
X138200285Y-95441428D01*
X138152666Y-95393809D01*
X138057428Y-95346190D01*
X137866952Y-95298571D01*
X137771714Y-95250952D01*
X137724095Y-95203333D01*
X137676476Y-95108095D01*
X137676476Y-95012857D01*
X137724095Y-94917619D01*
X137771714Y-94870000D01*
X137866952Y-94822380D01*
X138105047Y-94822380D01*
X138247904Y-94870000D01*
X138581238Y-94822380D02*
X138819333Y-95822380D01*
X139009809Y-95108095D01*
X139200285Y-95822380D01*
X139438380Y-94822380D01*
X139724095Y-94822380D02*
X140343142Y-94822380D01*
X140009809Y-95203333D01*
X140152666Y-95203333D01*
X140247904Y-95250952D01*
X140295523Y-95298571D01*
X140343142Y-95393809D01*
X140343142Y-95631904D01*
X140295523Y-95727142D01*
X140247904Y-95774761D01*
X140152666Y-95822380D01*
X139866952Y-95822380D01*
X139771714Y-95774761D01*
X139724095Y-95727142D01*
X141295523Y-95822380D02*
X140724095Y-95822380D01*
X141009809Y-95822380D02*
X141009809Y-94822380D01*
X140914571Y-94965238D01*
X140819333Y-95060476D01*
X140724095Y-95108095D01*
X119642476Y-196866761D02*
X119785333Y-196914380D01*
X120023428Y-196914380D01*
X120118666Y-196866761D01*
X120166285Y-196819142D01*
X120213904Y-196723904D01*
X120213904Y-196628666D01*
X120166285Y-196533428D01*
X120118666Y-196485809D01*
X120023428Y-196438190D01*
X119832952Y-196390571D01*
X119737714Y-196342952D01*
X119690095Y-196295333D01*
X119642476Y-196200095D01*
X119642476Y-196104857D01*
X119690095Y-196009619D01*
X119737714Y-195962000D01*
X119832952Y-195914380D01*
X120071047Y-195914380D01*
X120213904Y-195962000D01*
X120547238Y-195914380D02*
X120785333Y-196914380D01*
X120975809Y-196200095D01*
X121166285Y-196914380D01*
X121404380Y-195914380D01*
X121690095Y-195914380D02*
X122309142Y-195914380D01*
X121975809Y-196295333D01*
X122118666Y-196295333D01*
X122213904Y-196342952D01*
X122261523Y-196390571D01*
X122309142Y-196485809D01*
X122309142Y-196723904D01*
X122261523Y-196819142D01*
X122213904Y-196866761D01*
X122118666Y-196914380D01*
X121832952Y-196914380D01*
X121737714Y-196866761D01*
X121690095Y-196819142D01*
X122928190Y-195914380D02*
X123023428Y-195914380D01*
X123118666Y-195962000D01*
X123166285Y-196009619D01*
X123213904Y-196104857D01*
X123261523Y-196295333D01*
X123261523Y-196533428D01*
X123213904Y-196723904D01*
X123166285Y-196819142D01*
X123118666Y-196866761D01*
X123023428Y-196914380D01*
X122928190Y-196914380D01*
X122832952Y-196866761D01*
X122785333Y-196819142D01*
X122737714Y-196723904D01*
X122690095Y-196533428D01*
X122690095Y-196295333D01*
X122737714Y-196104857D01*
X122785333Y-196009619D01*
X122832952Y-195962000D01*
X122928190Y-195914380D01*
X119642476Y-180229761D02*
X119785333Y-180277380D01*
X120023428Y-180277380D01*
X120118666Y-180229761D01*
X120166285Y-180182142D01*
X120213904Y-180086904D01*
X120213904Y-179991666D01*
X120166285Y-179896428D01*
X120118666Y-179848809D01*
X120023428Y-179801190D01*
X119832952Y-179753571D01*
X119737714Y-179705952D01*
X119690095Y-179658333D01*
X119642476Y-179563095D01*
X119642476Y-179467857D01*
X119690095Y-179372619D01*
X119737714Y-179325000D01*
X119832952Y-179277380D01*
X120071047Y-179277380D01*
X120213904Y-179325000D01*
X120547238Y-179277380D02*
X120785333Y-180277380D01*
X120975809Y-179563095D01*
X121166285Y-180277380D01*
X121404380Y-179277380D01*
X121737714Y-179372619D02*
X121785333Y-179325000D01*
X121880571Y-179277380D01*
X122118666Y-179277380D01*
X122213904Y-179325000D01*
X122261523Y-179372619D01*
X122309142Y-179467857D01*
X122309142Y-179563095D01*
X122261523Y-179705952D01*
X121690095Y-180277380D01*
X122309142Y-180277380D01*
X122785333Y-180277380D02*
X122975809Y-180277380D01*
X123071047Y-180229761D01*
X123118666Y-180182142D01*
X123213904Y-180039285D01*
X123261523Y-179848809D01*
X123261523Y-179467857D01*
X123213904Y-179372619D01*
X123166285Y-179325000D01*
X123071047Y-179277380D01*
X122880571Y-179277380D01*
X122785333Y-179325000D01*
X122737714Y-179372619D01*
X122690095Y-179467857D01*
X122690095Y-179705952D01*
X122737714Y-179801190D01*
X122785333Y-179848809D01*
X122880571Y-179896428D01*
X123071047Y-179896428D01*
X123166285Y-179848809D01*
X123213904Y-179801190D01*
X123261523Y-179705952D01*
X119642476Y-163592761D02*
X119785333Y-163640380D01*
X120023428Y-163640380D01*
X120118666Y-163592761D01*
X120166285Y-163545142D01*
X120213904Y-163449904D01*
X120213904Y-163354666D01*
X120166285Y-163259428D01*
X120118666Y-163211809D01*
X120023428Y-163164190D01*
X119832952Y-163116571D01*
X119737714Y-163068952D01*
X119690095Y-163021333D01*
X119642476Y-162926095D01*
X119642476Y-162830857D01*
X119690095Y-162735619D01*
X119737714Y-162688000D01*
X119832952Y-162640380D01*
X120071047Y-162640380D01*
X120213904Y-162688000D01*
X120547238Y-162640380D02*
X120785333Y-163640380D01*
X120975809Y-162926095D01*
X121166285Y-163640380D01*
X121404380Y-162640380D01*
X121737714Y-162735619D02*
X121785333Y-162688000D01*
X121880571Y-162640380D01*
X122118666Y-162640380D01*
X122213904Y-162688000D01*
X122261523Y-162735619D01*
X122309142Y-162830857D01*
X122309142Y-162926095D01*
X122261523Y-163068952D01*
X121690095Y-163640380D01*
X122309142Y-163640380D01*
X122880571Y-163068952D02*
X122785333Y-163021333D01*
X122737714Y-162973714D01*
X122690095Y-162878476D01*
X122690095Y-162830857D01*
X122737714Y-162735619D01*
X122785333Y-162688000D01*
X122880571Y-162640380D01*
X123071047Y-162640380D01*
X123166285Y-162688000D01*
X123213904Y-162735619D01*
X123261523Y-162830857D01*
X123261523Y-162878476D01*
X123213904Y-162973714D01*
X123166285Y-163021333D01*
X123071047Y-163068952D01*
X122880571Y-163068952D01*
X122785333Y-163116571D01*
X122737714Y-163164190D01*
X122690095Y-163259428D01*
X122690095Y-163449904D01*
X122737714Y-163545142D01*
X122785333Y-163592761D01*
X122880571Y-163640380D01*
X123071047Y-163640380D01*
X123166285Y-163592761D01*
X123213904Y-163545142D01*
X123261523Y-163449904D01*
X123261523Y-163259428D01*
X123213904Y-163164190D01*
X123166285Y-163116571D01*
X123071047Y-163068952D01*
X119642476Y-146447761D02*
X119785333Y-146495380D01*
X120023428Y-146495380D01*
X120118666Y-146447761D01*
X120166285Y-146400142D01*
X120213904Y-146304904D01*
X120213904Y-146209666D01*
X120166285Y-146114428D01*
X120118666Y-146066809D01*
X120023428Y-146019190D01*
X119832952Y-145971571D01*
X119737714Y-145923952D01*
X119690095Y-145876333D01*
X119642476Y-145781095D01*
X119642476Y-145685857D01*
X119690095Y-145590619D01*
X119737714Y-145543000D01*
X119832952Y-145495380D01*
X120071047Y-145495380D01*
X120213904Y-145543000D01*
X120547238Y-145495380D02*
X120785333Y-146495380D01*
X120975809Y-145781095D01*
X121166285Y-146495380D01*
X121404380Y-145495380D01*
X121737714Y-145590619D02*
X121785333Y-145543000D01*
X121880571Y-145495380D01*
X122118666Y-145495380D01*
X122213904Y-145543000D01*
X122261523Y-145590619D01*
X122309142Y-145685857D01*
X122309142Y-145781095D01*
X122261523Y-145923952D01*
X121690095Y-146495380D01*
X122309142Y-146495380D01*
X122642476Y-145495380D02*
X123309142Y-145495380D01*
X122880571Y-146495380D01*
X119642476Y-129556761D02*
X119785333Y-129604380D01*
X120023428Y-129604380D01*
X120118666Y-129556761D01*
X120166285Y-129509142D01*
X120213904Y-129413904D01*
X120213904Y-129318666D01*
X120166285Y-129223428D01*
X120118666Y-129175809D01*
X120023428Y-129128190D01*
X119832952Y-129080571D01*
X119737714Y-129032952D01*
X119690095Y-128985333D01*
X119642476Y-128890095D01*
X119642476Y-128794857D01*
X119690095Y-128699619D01*
X119737714Y-128652000D01*
X119832952Y-128604380D01*
X120071047Y-128604380D01*
X120213904Y-128652000D01*
X120547238Y-128604380D02*
X120785333Y-129604380D01*
X120975809Y-128890095D01*
X121166285Y-129604380D01*
X121404380Y-128604380D01*
X121737714Y-128699619D02*
X121785333Y-128652000D01*
X121880571Y-128604380D01*
X122118666Y-128604380D01*
X122213904Y-128652000D01*
X122261523Y-128699619D01*
X122309142Y-128794857D01*
X122309142Y-128890095D01*
X122261523Y-129032952D01*
X121690095Y-129604380D01*
X122309142Y-129604380D01*
X123166285Y-128604380D02*
X122975809Y-128604380D01*
X122880571Y-128652000D01*
X122832952Y-128699619D01*
X122737714Y-128842476D01*
X122690095Y-129032952D01*
X122690095Y-129413904D01*
X122737714Y-129509142D01*
X122785333Y-129556761D01*
X122880571Y-129604380D01*
X123071047Y-129604380D01*
X123166285Y-129556761D01*
X123213904Y-129509142D01*
X123261523Y-129413904D01*
X123261523Y-129175809D01*
X123213904Y-129080571D01*
X123166285Y-129032952D01*
X123071047Y-128985333D01*
X122880571Y-128985333D01*
X122785333Y-129032952D01*
X122737714Y-129080571D01*
X122690095Y-129175809D01*
X119642476Y-112792761D02*
X119785333Y-112840380D01*
X120023428Y-112840380D01*
X120118666Y-112792761D01*
X120166285Y-112745142D01*
X120213904Y-112649904D01*
X120213904Y-112554666D01*
X120166285Y-112459428D01*
X120118666Y-112411809D01*
X120023428Y-112364190D01*
X119832952Y-112316571D01*
X119737714Y-112268952D01*
X119690095Y-112221333D01*
X119642476Y-112126095D01*
X119642476Y-112030857D01*
X119690095Y-111935619D01*
X119737714Y-111888000D01*
X119832952Y-111840380D01*
X120071047Y-111840380D01*
X120213904Y-111888000D01*
X120547238Y-111840380D02*
X120785333Y-112840380D01*
X120975809Y-112126095D01*
X121166285Y-112840380D01*
X121404380Y-111840380D01*
X121737714Y-111935619D02*
X121785333Y-111888000D01*
X121880571Y-111840380D01*
X122118666Y-111840380D01*
X122213904Y-111888000D01*
X122261523Y-111935619D01*
X122309142Y-112030857D01*
X122309142Y-112126095D01*
X122261523Y-112268952D01*
X121690095Y-112840380D01*
X122309142Y-112840380D01*
X123213904Y-111840380D02*
X122737714Y-111840380D01*
X122690095Y-112316571D01*
X122737714Y-112268952D01*
X122832952Y-112221333D01*
X123071047Y-112221333D01*
X123166285Y-112268952D01*
X123213904Y-112316571D01*
X123261523Y-112411809D01*
X123261523Y-112649904D01*
X123213904Y-112745142D01*
X123166285Y-112792761D01*
X123071047Y-112840380D01*
X122832952Y-112840380D01*
X122737714Y-112792761D01*
X122690095Y-112745142D01*
X119642476Y-95774761D02*
X119785333Y-95822380D01*
X120023428Y-95822380D01*
X120118666Y-95774761D01*
X120166285Y-95727142D01*
X120213904Y-95631904D01*
X120213904Y-95536666D01*
X120166285Y-95441428D01*
X120118666Y-95393809D01*
X120023428Y-95346190D01*
X119832952Y-95298571D01*
X119737714Y-95250952D01*
X119690095Y-95203333D01*
X119642476Y-95108095D01*
X119642476Y-95012857D01*
X119690095Y-94917619D01*
X119737714Y-94870000D01*
X119832952Y-94822380D01*
X120071047Y-94822380D01*
X120213904Y-94870000D01*
X120547238Y-94822380D02*
X120785333Y-95822380D01*
X120975809Y-95108095D01*
X121166285Y-95822380D01*
X121404380Y-94822380D01*
X121737714Y-94917619D02*
X121785333Y-94870000D01*
X121880571Y-94822380D01*
X122118666Y-94822380D01*
X122213904Y-94870000D01*
X122261523Y-94917619D01*
X122309142Y-95012857D01*
X122309142Y-95108095D01*
X122261523Y-95250952D01*
X121690095Y-95822380D01*
X122309142Y-95822380D01*
X123166285Y-95155714D02*
X123166285Y-95822380D01*
X122928190Y-94774761D02*
X122690095Y-95489047D01*
X123309142Y-95489047D01*
X101608476Y-196993761D02*
X101751333Y-197041380D01*
X101989428Y-197041380D01*
X102084666Y-196993761D01*
X102132285Y-196946142D01*
X102179904Y-196850904D01*
X102179904Y-196755666D01*
X102132285Y-196660428D01*
X102084666Y-196612809D01*
X101989428Y-196565190D01*
X101798952Y-196517571D01*
X101703714Y-196469952D01*
X101656095Y-196422333D01*
X101608476Y-196327095D01*
X101608476Y-196231857D01*
X101656095Y-196136619D01*
X101703714Y-196089000D01*
X101798952Y-196041380D01*
X102037047Y-196041380D01*
X102179904Y-196089000D01*
X102513238Y-196041380D02*
X102751333Y-197041380D01*
X102941809Y-196327095D01*
X103132285Y-197041380D01*
X103370380Y-196041380D01*
X103703714Y-196136619D02*
X103751333Y-196089000D01*
X103846571Y-196041380D01*
X104084666Y-196041380D01*
X104179904Y-196089000D01*
X104227523Y-196136619D01*
X104275142Y-196231857D01*
X104275142Y-196327095D01*
X104227523Y-196469952D01*
X103656095Y-197041380D01*
X104275142Y-197041380D01*
X104608476Y-196041380D02*
X105227523Y-196041380D01*
X104894190Y-196422333D01*
X105037047Y-196422333D01*
X105132285Y-196469952D01*
X105179904Y-196517571D01*
X105227523Y-196612809D01*
X105227523Y-196850904D01*
X105179904Y-196946142D01*
X105132285Y-196993761D01*
X105037047Y-197041380D01*
X104751333Y-197041380D01*
X104656095Y-196993761D01*
X104608476Y-196946142D01*
X101608476Y-180229761D02*
X101751333Y-180277380D01*
X101989428Y-180277380D01*
X102084666Y-180229761D01*
X102132285Y-180182142D01*
X102179904Y-180086904D01*
X102179904Y-179991666D01*
X102132285Y-179896428D01*
X102084666Y-179848809D01*
X101989428Y-179801190D01*
X101798952Y-179753571D01*
X101703714Y-179705952D01*
X101656095Y-179658333D01*
X101608476Y-179563095D01*
X101608476Y-179467857D01*
X101656095Y-179372619D01*
X101703714Y-179325000D01*
X101798952Y-179277380D01*
X102037047Y-179277380D01*
X102179904Y-179325000D01*
X102513238Y-179277380D02*
X102751333Y-180277380D01*
X102941809Y-179563095D01*
X103132285Y-180277380D01*
X103370380Y-179277380D01*
X103703714Y-179372619D02*
X103751333Y-179325000D01*
X103846571Y-179277380D01*
X104084666Y-179277380D01*
X104179904Y-179325000D01*
X104227523Y-179372619D01*
X104275142Y-179467857D01*
X104275142Y-179563095D01*
X104227523Y-179705952D01*
X103656095Y-180277380D01*
X104275142Y-180277380D01*
X104656095Y-179372619D02*
X104703714Y-179325000D01*
X104798952Y-179277380D01*
X105037047Y-179277380D01*
X105132285Y-179325000D01*
X105179904Y-179372619D01*
X105227523Y-179467857D01*
X105227523Y-179563095D01*
X105179904Y-179705952D01*
X104608476Y-180277380D01*
X105227523Y-180277380D01*
X101608476Y-163465761D02*
X101751333Y-163513380D01*
X101989428Y-163513380D01*
X102084666Y-163465761D01*
X102132285Y-163418142D01*
X102179904Y-163322904D01*
X102179904Y-163227666D01*
X102132285Y-163132428D01*
X102084666Y-163084809D01*
X101989428Y-163037190D01*
X101798952Y-162989571D01*
X101703714Y-162941952D01*
X101656095Y-162894333D01*
X101608476Y-162799095D01*
X101608476Y-162703857D01*
X101656095Y-162608619D01*
X101703714Y-162561000D01*
X101798952Y-162513380D01*
X102037047Y-162513380D01*
X102179904Y-162561000D01*
X102513238Y-162513380D02*
X102751333Y-163513380D01*
X102941809Y-162799095D01*
X103132285Y-163513380D01*
X103370380Y-162513380D01*
X103703714Y-162608619D02*
X103751333Y-162561000D01*
X103846571Y-162513380D01*
X104084666Y-162513380D01*
X104179904Y-162561000D01*
X104227523Y-162608619D01*
X104275142Y-162703857D01*
X104275142Y-162799095D01*
X104227523Y-162941952D01*
X103656095Y-163513380D01*
X104275142Y-163513380D01*
X105227523Y-163513380D02*
X104656095Y-163513380D01*
X104941809Y-163513380D02*
X104941809Y-162513380D01*
X104846571Y-162656238D01*
X104751333Y-162751476D01*
X104656095Y-162799095D01*
X101608476Y-146701761D02*
X101751333Y-146749380D01*
X101989428Y-146749380D01*
X102084666Y-146701761D01*
X102132285Y-146654142D01*
X102179904Y-146558904D01*
X102179904Y-146463666D01*
X102132285Y-146368428D01*
X102084666Y-146320809D01*
X101989428Y-146273190D01*
X101798952Y-146225571D01*
X101703714Y-146177952D01*
X101656095Y-146130333D01*
X101608476Y-146035095D01*
X101608476Y-145939857D01*
X101656095Y-145844619D01*
X101703714Y-145797000D01*
X101798952Y-145749380D01*
X102037047Y-145749380D01*
X102179904Y-145797000D01*
X102513238Y-145749380D02*
X102751333Y-146749380D01*
X102941809Y-146035095D01*
X103132285Y-146749380D01*
X103370380Y-145749380D01*
X103703714Y-145844619D02*
X103751333Y-145797000D01*
X103846571Y-145749380D01*
X104084666Y-145749380D01*
X104179904Y-145797000D01*
X104227523Y-145844619D01*
X104275142Y-145939857D01*
X104275142Y-146035095D01*
X104227523Y-146177952D01*
X103656095Y-146749380D01*
X104275142Y-146749380D01*
X104894190Y-145749380D02*
X104989428Y-145749380D01*
X105084666Y-145797000D01*
X105132285Y-145844619D01*
X105179904Y-145939857D01*
X105227523Y-146130333D01*
X105227523Y-146368428D01*
X105179904Y-146558904D01*
X105132285Y-146654142D01*
X105084666Y-146701761D01*
X104989428Y-146749380D01*
X104894190Y-146749380D01*
X104798952Y-146701761D01*
X104751333Y-146654142D01*
X104703714Y-146558904D01*
X104656095Y-146368428D01*
X104656095Y-146130333D01*
X104703714Y-145939857D01*
X104751333Y-145844619D01*
X104798952Y-145797000D01*
X104894190Y-145749380D01*
X101608476Y-129683761D02*
X101751333Y-129731380D01*
X101989428Y-129731380D01*
X102084666Y-129683761D01*
X102132285Y-129636142D01*
X102179904Y-129540904D01*
X102179904Y-129445666D01*
X102132285Y-129350428D01*
X102084666Y-129302809D01*
X101989428Y-129255190D01*
X101798952Y-129207571D01*
X101703714Y-129159952D01*
X101656095Y-129112333D01*
X101608476Y-129017095D01*
X101608476Y-128921857D01*
X101656095Y-128826619D01*
X101703714Y-128779000D01*
X101798952Y-128731380D01*
X102037047Y-128731380D01*
X102179904Y-128779000D01*
X102513238Y-128731380D02*
X102751333Y-129731380D01*
X102941809Y-129017095D01*
X103132285Y-129731380D01*
X103370380Y-128731380D01*
X104275142Y-129731380D02*
X103703714Y-129731380D01*
X103989428Y-129731380D02*
X103989428Y-128731380D01*
X103894190Y-128874238D01*
X103798952Y-128969476D01*
X103703714Y-129017095D01*
X104751333Y-129731380D02*
X104941809Y-129731380D01*
X105037047Y-129683761D01*
X105084666Y-129636142D01*
X105179904Y-129493285D01*
X105227523Y-129302809D01*
X105227523Y-128921857D01*
X105179904Y-128826619D01*
X105132285Y-128779000D01*
X105037047Y-128731380D01*
X104846571Y-128731380D01*
X104751333Y-128779000D01*
X104703714Y-128826619D01*
X104656095Y-128921857D01*
X104656095Y-129159952D01*
X104703714Y-129255190D01*
X104751333Y-129302809D01*
X104846571Y-129350428D01*
X105037047Y-129350428D01*
X105132285Y-129302809D01*
X105179904Y-129255190D01*
X105227523Y-129159952D01*
X101608476Y-112792761D02*
X101751333Y-112840380D01*
X101989428Y-112840380D01*
X102084666Y-112792761D01*
X102132285Y-112745142D01*
X102179904Y-112649904D01*
X102179904Y-112554666D01*
X102132285Y-112459428D01*
X102084666Y-112411809D01*
X101989428Y-112364190D01*
X101798952Y-112316571D01*
X101703714Y-112268952D01*
X101656095Y-112221333D01*
X101608476Y-112126095D01*
X101608476Y-112030857D01*
X101656095Y-111935619D01*
X101703714Y-111888000D01*
X101798952Y-111840380D01*
X102037047Y-111840380D01*
X102179904Y-111888000D01*
X102513238Y-111840380D02*
X102751333Y-112840380D01*
X102941809Y-112126095D01*
X103132285Y-112840380D01*
X103370380Y-111840380D01*
X104275142Y-112840380D02*
X103703714Y-112840380D01*
X103989428Y-112840380D02*
X103989428Y-111840380D01*
X103894190Y-111983238D01*
X103798952Y-112078476D01*
X103703714Y-112126095D01*
X104846571Y-112268952D02*
X104751333Y-112221333D01*
X104703714Y-112173714D01*
X104656095Y-112078476D01*
X104656095Y-112030857D01*
X104703714Y-111935619D01*
X104751333Y-111888000D01*
X104846571Y-111840380D01*
X105037047Y-111840380D01*
X105132285Y-111888000D01*
X105179904Y-111935619D01*
X105227523Y-112030857D01*
X105227523Y-112078476D01*
X105179904Y-112173714D01*
X105132285Y-112221333D01*
X105037047Y-112268952D01*
X104846571Y-112268952D01*
X104751333Y-112316571D01*
X104703714Y-112364190D01*
X104656095Y-112459428D01*
X104656095Y-112649904D01*
X104703714Y-112745142D01*
X104751333Y-112792761D01*
X104846571Y-112840380D01*
X105037047Y-112840380D01*
X105132285Y-112792761D01*
X105179904Y-112745142D01*
X105227523Y-112649904D01*
X105227523Y-112459428D01*
X105179904Y-112364190D01*
X105132285Y-112316571D01*
X105037047Y-112268952D01*
X101608476Y-95774761D02*
X101751333Y-95822380D01*
X101989428Y-95822380D01*
X102084666Y-95774761D01*
X102132285Y-95727142D01*
X102179904Y-95631904D01*
X102179904Y-95536666D01*
X102132285Y-95441428D01*
X102084666Y-95393809D01*
X101989428Y-95346190D01*
X101798952Y-95298571D01*
X101703714Y-95250952D01*
X101656095Y-95203333D01*
X101608476Y-95108095D01*
X101608476Y-95012857D01*
X101656095Y-94917619D01*
X101703714Y-94870000D01*
X101798952Y-94822380D01*
X102037047Y-94822380D01*
X102179904Y-94870000D01*
X102513238Y-94822380D02*
X102751333Y-95822380D01*
X102941809Y-95108095D01*
X103132285Y-95822380D01*
X103370380Y-94822380D01*
X104275142Y-95822380D02*
X103703714Y-95822380D01*
X103989428Y-95822380D02*
X103989428Y-94822380D01*
X103894190Y-94965238D01*
X103798952Y-95060476D01*
X103703714Y-95108095D01*
X104608476Y-94822380D02*
X105275142Y-94822380D01*
X104846571Y-95822380D01*
X83320476Y-197120761D02*
X83463333Y-197168380D01*
X83701428Y-197168380D01*
X83796666Y-197120761D01*
X83844285Y-197073142D01*
X83891904Y-196977904D01*
X83891904Y-196882666D01*
X83844285Y-196787428D01*
X83796666Y-196739809D01*
X83701428Y-196692190D01*
X83510952Y-196644571D01*
X83415714Y-196596952D01*
X83368095Y-196549333D01*
X83320476Y-196454095D01*
X83320476Y-196358857D01*
X83368095Y-196263619D01*
X83415714Y-196216000D01*
X83510952Y-196168380D01*
X83749047Y-196168380D01*
X83891904Y-196216000D01*
X84225238Y-196168380D02*
X84463333Y-197168380D01*
X84653809Y-196454095D01*
X84844285Y-197168380D01*
X85082380Y-196168380D01*
X85987142Y-197168380D02*
X85415714Y-197168380D01*
X85701428Y-197168380D02*
X85701428Y-196168380D01*
X85606190Y-196311238D01*
X85510952Y-196406476D01*
X85415714Y-196454095D01*
X86844285Y-196168380D02*
X86653809Y-196168380D01*
X86558571Y-196216000D01*
X86510952Y-196263619D01*
X86415714Y-196406476D01*
X86368095Y-196596952D01*
X86368095Y-196977904D01*
X86415714Y-197073142D01*
X86463333Y-197120761D01*
X86558571Y-197168380D01*
X86749047Y-197168380D01*
X86844285Y-197120761D01*
X86891904Y-197073142D01*
X86939523Y-196977904D01*
X86939523Y-196739809D01*
X86891904Y-196644571D01*
X86844285Y-196596952D01*
X86749047Y-196549333D01*
X86558571Y-196549333D01*
X86463333Y-196596952D01*
X86415714Y-196644571D01*
X86368095Y-196739809D01*
X83320476Y-180229761D02*
X83463333Y-180277380D01*
X83701428Y-180277380D01*
X83796666Y-180229761D01*
X83844285Y-180182142D01*
X83891904Y-180086904D01*
X83891904Y-179991666D01*
X83844285Y-179896428D01*
X83796666Y-179848809D01*
X83701428Y-179801190D01*
X83510952Y-179753571D01*
X83415714Y-179705952D01*
X83368095Y-179658333D01*
X83320476Y-179563095D01*
X83320476Y-179467857D01*
X83368095Y-179372619D01*
X83415714Y-179325000D01*
X83510952Y-179277380D01*
X83749047Y-179277380D01*
X83891904Y-179325000D01*
X84225238Y-179277380D02*
X84463333Y-180277380D01*
X84653809Y-179563095D01*
X84844285Y-180277380D01*
X85082380Y-179277380D01*
X85987142Y-180277380D02*
X85415714Y-180277380D01*
X85701428Y-180277380D02*
X85701428Y-179277380D01*
X85606190Y-179420238D01*
X85510952Y-179515476D01*
X85415714Y-179563095D01*
X86891904Y-179277380D02*
X86415714Y-179277380D01*
X86368095Y-179753571D01*
X86415714Y-179705952D01*
X86510952Y-179658333D01*
X86749047Y-179658333D01*
X86844285Y-179705952D01*
X86891904Y-179753571D01*
X86939523Y-179848809D01*
X86939523Y-180086904D01*
X86891904Y-180182142D01*
X86844285Y-180229761D01*
X86749047Y-180277380D01*
X86510952Y-180277380D01*
X86415714Y-180229761D01*
X86368095Y-180182142D01*
X83374476Y-163465761D02*
X83517333Y-163513380D01*
X83755428Y-163513380D01*
X83850666Y-163465761D01*
X83898285Y-163418142D01*
X83945904Y-163322904D01*
X83945904Y-163227666D01*
X83898285Y-163132428D01*
X83850666Y-163084809D01*
X83755428Y-163037190D01*
X83564952Y-162989571D01*
X83469714Y-162941952D01*
X83422095Y-162894333D01*
X83374476Y-162799095D01*
X83374476Y-162703857D01*
X83422095Y-162608619D01*
X83469714Y-162561000D01*
X83564952Y-162513380D01*
X83803047Y-162513380D01*
X83945904Y-162561000D01*
X84279238Y-162513380D02*
X84517333Y-163513380D01*
X84707809Y-162799095D01*
X84898285Y-163513380D01*
X85136380Y-162513380D01*
X86041142Y-163513380D02*
X85469714Y-163513380D01*
X85755428Y-163513380D02*
X85755428Y-162513380D01*
X85660190Y-162656238D01*
X85564952Y-162751476D01*
X85469714Y-162799095D01*
X86898285Y-162846714D02*
X86898285Y-163513380D01*
X86660190Y-162465761D02*
X86422095Y-163180047D01*
X87041142Y-163180047D01*
X83320476Y-146701761D02*
X83463333Y-146749380D01*
X83701428Y-146749380D01*
X83796666Y-146701761D01*
X83844285Y-146654142D01*
X83891904Y-146558904D01*
X83891904Y-146463666D01*
X83844285Y-146368428D01*
X83796666Y-146320809D01*
X83701428Y-146273190D01*
X83510952Y-146225571D01*
X83415714Y-146177952D01*
X83368095Y-146130333D01*
X83320476Y-146035095D01*
X83320476Y-145939857D01*
X83368095Y-145844619D01*
X83415714Y-145797000D01*
X83510952Y-145749380D01*
X83749047Y-145749380D01*
X83891904Y-145797000D01*
X84225238Y-145749380D02*
X84463333Y-146749380D01*
X84653809Y-146035095D01*
X84844285Y-146749380D01*
X85082380Y-145749380D01*
X85987142Y-146749380D02*
X85415714Y-146749380D01*
X85701428Y-146749380D02*
X85701428Y-145749380D01*
X85606190Y-145892238D01*
X85510952Y-145987476D01*
X85415714Y-146035095D01*
X86320476Y-145749380D02*
X86939523Y-145749380D01*
X86606190Y-146130333D01*
X86749047Y-146130333D01*
X86844285Y-146177952D01*
X86891904Y-146225571D01*
X86939523Y-146320809D01*
X86939523Y-146558904D01*
X86891904Y-146654142D01*
X86844285Y-146701761D01*
X86749047Y-146749380D01*
X86463333Y-146749380D01*
X86368095Y-146701761D01*
X86320476Y-146654142D01*
X83320476Y-129683761D02*
X83463333Y-129731380D01*
X83701428Y-129731380D01*
X83796666Y-129683761D01*
X83844285Y-129636142D01*
X83891904Y-129540904D01*
X83891904Y-129445666D01*
X83844285Y-129350428D01*
X83796666Y-129302809D01*
X83701428Y-129255190D01*
X83510952Y-129207571D01*
X83415714Y-129159952D01*
X83368095Y-129112333D01*
X83320476Y-129017095D01*
X83320476Y-128921857D01*
X83368095Y-128826619D01*
X83415714Y-128779000D01*
X83510952Y-128731380D01*
X83749047Y-128731380D01*
X83891904Y-128779000D01*
X84225238Y-128731380D02*
X84463333Y-129731380D01*
X84653809Y-129017095D01*
X84844285Y-129731380D01*
X85082380Y-128731380D01*
X85987142Y-129731380D02*
X85415714Y-129731380D01*
X85701428Y-129731380D02*
X85701428Y-128731380D01*
X85606190Y-128874238D01*
X85510952Y-128969476D01*
X85415714Y-129017095D01*
X86368095Y-128826619D02*
X86415714Y-128779000D01*
X86510952Y-128731380D01*
X86749047Y-128731380D01*
X86844285Y-128779000D01*
X86891904Y-128826619D01*
X86939523Y-128921857D01*
X86939523Y-129017095D01*
X86891904Y-129159952D01*
X86320476Y-129731380D01*
X86939523Y-129731380D01*
X83320476Y-112792761D02*
X83463333Y-112840380D01*
X83701428Y-112840380D01*
X83796666Y-112792761D01*
X83844285Y-112745142D01*
X83891904Y-112649904D01*
X83891904Y-112554666D01*
X83844285Y-112459428D01*
X83796666Y-112411809D01*
X83701428Y-112364190D01*
X83510952Y-112316571D01*
X83415714Y-112268952D01*
X83368095Y-112221333D01*
X83320476Y-112126095D01*
X83320476Y-112030857D01*
X83368095Y-111935619D01*
X83415714Y-111888000D01*
X83510952Y-111840380D01*
X83749047Y-111840380D01*
X83891904Y-111888000D01*
X84225238Y-111840380D02*
X84463333Y-112840380D01*
X84653809Y-112126095D01*
X84844285Y-112840380D01*
X85082380Y-111840380D01*
X85987142Y-112840380D02*
X85415714Y-112840380D01*
X85701428Y-112840380D02*
X85701428Y-111840380D01*
X85606190Y-111983238D01*
X85510952Y-112078476D01*
X85415714Y-112126095D01*
X86939523Y-112840380D02*
X86368095Y-112840380D01*
X86653809Y-112840380D02*
X86653809Y-111840380D01*
X86558571Y-111983238D01*
X86463333Y-112078476D01*
X86368095Y-112126095D01*
X83320476Y-95774761D02*
X83463333Y-95822380D01*
X83701428Y-95822380D01*
X83796666Y-95774761D01*
X83844285Y-95727142D01*
X83891904Y-95631904D01*
X83891904Y-95536666D01*
X83844285Y-95441428D01*
X83796666Y-95393809D01*
X83701428Y-95346190D01*
X83510952Y-95298571D01*
X83415714Y-95250952D01*
X83368095Y-95203333D01*
X83320476Y-95108095D01*
X83320476Y-95012857D01*
X83368095Y-94917619D01*
X83415714Y-94870000D01*
X83510952Y-94822380D01*
X83749047Y-94822380D01*
X83891904Y-94870000D01*
X84225238Y-94822380D02*
X84463333Y-95822380D01*
X84653809Y-95108095D01*
X84844285Y-95822380D01*
X85082380Y-94822380D01*
X85987142Y-95822380D02*
X85415714Y-95822380D01*
X85701428Y-95822380D02*
X85701428Y-94822380D01*
X85606190Y-94965238D01*
X85510952Y-95060476D01*
X85415714Y-95108095D01*
X86606190Y-94822380D02*
X86701428Y-94822380D01*
X86796666Y-94870000D01*
X86844285Y-94917619D01*
X86891904Y-95012857D01*
X86939523Y-95203333D01*
X86939523Y-95441428D01*
X86891904Y-95631904D01*
X86844285Y-95727142D01*
X86796666Y-95774761D01*
X86701428Y-95822380D01*
X86606190Y-95822380D01*
X86510952Y-95774761D01*
X86463333Y-95727142D01*
X86415714Y-95631904D01*
X86368095Y-95441428D01*
X86368095Y-95203333D01*
X86415714Y-95012857D01*
X86463333Y-94917619D01*
X86510952Y-94870000D01*
X86606190Y-94822380D01*
X65762666Y-197012761D02*
X65905523Y-197060380D01*
X66143619Y-197060380D01*
X66238857Y-197012761D01*
X66286476Y-196965142D01*
X66334095Y-196869904D01*
X66334095Y-196774666D01*
X66286476Y-196679428D01*
X66238857Y-196631809D01*
X66143619Y-196584190D01*
X65953142Y-196536571D01*
X65857904Y-196488952D01*
X65810285Y-196441333D01*
X65762666Y-196346095D01*
X65762666Y-196250857D01*
X65810285Y-196155619D01*
X65857904Y-196108000D01*
X65953142Y-196060380D01*
X66191238Y-196060380D01*
X66334095Y-196108000D01*
X66667428Y-196060380D02*
X66905523Y-197060380D01*
X67096000Y-196346095D01*
X67286476Y-197060380D01*
X67524571Y-196060380D01*
X67953142Y-197060380D02*
X68143619Y-197060380D01*
X68238857Y-197012761D01*
X68286476Y-196965142D01*
X68381714Y-196822285D01*
X68429333Y-196631809D01*
X68429333Y-196250857D01*
X68381714Y-196155619D01*
X68334095Y-196108000D01*
X68238857Y-196060380D01*
X68048380Y-196060380D01*
X67953142Y-196108000D01*
X67905523Y-196155619D01*
X67857904Y-196250857D01*
X67857904Y-196488952D01*
X67905523Y-196584190D01*
X67953142Y-196631809D01*
X68048380Y-196679428D01*
X68238857Y-196679428D01*
X68334095Y-196631809D01*
X68381714Y-196584190D01*
X68429333Y-196488952D01*
X65762666Y-180168761D02*
X65905523Y-180216380D01*
X66143619Y-180216380D01*
X66238857Y-180168761D01*
X66286476Y-180121142D01*
X66334095Y-180025904D01*
X66334095Y-179930666D01*
X66286476Y-179835428D01*
X66238857Y-179787809D01*
X66143619Y-179740190D01*
X65953142Y-179692571D01*
X65857904Y-179644952D01*
X65810285Y-179597333D01*
X65762666Y-179502095D01*
X65762666Y-179406857D01*
X65810285Y-179311619D01*
X65857904Y-179264000D01*
X65953142Y-179216380D01*
X66191238Y-179216380D01*
X66334095Y-179264000D01*
X66667428Y-179216380D02*
X66905523Y-180216380D01*
X67096000Y-179502095D01*
X67286476Y-180216380D01*
X67524571Y-179216380D01*
X68048380Y-179644952D02*
X67953142Y-179597333D01*
X67905523Y-179549714D01*
X67857904Y-179454476D01*
X67857904Y-179406857D01*
X67905523Y-179311619D01*
X67953142Y-179264000D01*
X68048380Y-179216380D01*
X68238857Y-179216380D01*
X68334095Y-179264000D01*
X68381714Y-179311619D01*
X68429333Y-179406857D01*
X68429333Y-179454476D01*
X68381714Y-179549714D01*
X68334095Y-179597333D01*
X68238857Y-179644952D01*
X68048380Y-179644952D01*
X67953142Y-179692571D01*
X67905523Y-179740190D01*
X67857904Y-179835428D01*
X67857904Y-180025904D01*
X67905523Y-180121142D01*
X67953142Y-180168761D01*
X68048380Y-180216380D01*
X68238857Y-180216380D01*
X68334095Y-180168761D01*
X68381714Y-180121142D01*
X68429333Y-180025904D01*
X68429333Y-179835428D01*
X68381714Y-179740190D01*
X68334095Y-179692571D01*
X68238857Y-179644952D01*
X65762666Y-163465761D02*
X65905523Y-163513380D01*
X66143619Y-163513380D01*
X66238857Y-163465761D01*
X66286476Y-163418142D01*
X66334095Y-163322904D01*
X66334095Y-163227666D01*
X66286476Y-163132428D01*
X66238857Y-163084809D01*
X66143619Y-163037190D01*
X65953142Y-162989571D01*
X65857904Y-162941952D01*
X65810285Y-162894333D01*
X65762666Y-162799095D01*
X65762666Y-162703857D01*
X65810285Y-162608619D01*
X65857904Y-162561000D01*
X65953142Y-162513380D01*
X66191238Y-162513380D01*
X66334095Y-162561000D01*
X66667428Y-162513380D02*
X66905523Y-163513380D01*
X67096000Y-162799095D01*
X67286476Y-163513380D01*
X67524571Y-162513380D01*
X67810285Y-162513380D02*
X68476952Y-162513380D01*
X68048380Y-163513380D01*
X65762666Y-146701761D02*
X65905523Y-146749380D01*
X66143619Y-146749380D01*
X66238857Y-146701761D01*
X66286476Y-146654142D01*
X66334095Y-146558904D01*
X66334095Y-146463666D01*
X66286476Y-146368428D01*
X66238857Y-146320809D01*
X66143619Y-146273190D01*
X65953142Y-146225571D01*
X65857904Y-146177952D01*
X65810285Y-146130333D01*
X65762666Y-146035095D01*
X65762666Y-145939857D01*
X65810285Y-145844619D01*
X65857904Y-145797000D01*
X65953142Y-145749380D01*
X66191238Y-145749380D01*
X66334095Y-145797000D01*
X66667428Y-145749380D02*
X66905523Y-146749380D01*
X67096000Y-146035095D01*
X67286476Y-146749380D01*
X67524571Y-145749380D01*
X68334095Y-145749380D02*
X68143619Y-145749380D01*
X68048380Y-145797000D01*
X68000761Y-145844619D01*
X67905523Y-145987476D01*
X67857904Y-146177952D01*
X67857904Y-146558904D01*
X67905523Y-146654142D01*
X67953142Y-146701761D01*
X68048380Y-146749380D01*
X68238857Y-146749380D01*
X68334095Y-146701761D01*
X68381714Y-146654142D01*
X68429333Y-146558904D01*
X68429333Y-146320809D01*
X68381714Y-146225571D01*
X68334095Y-146177952D01*
X68238857Y-146130333D01*
X68048380Y-146130333D01*
X67953142Y-146177952D01*
X67905523Y-146225571D01*
X67857904Y-146320809D01*
X66484666Y-129516761D02*
X66627523Y-129564380D01*
X66865619Y-129564380D01*
X66960857Y-129516761D01*
X67008476Y-129469142D01*
X67056095Y-129373904D01*
X67056095Y-129278666D01*
X67008476Y-129183428D01*
X66960857Y-129135809D01*
X66865619Y-129088190D01*
X66675142Y-129040571D01*
X66579904Y-128992952D01*
X66532285Y-128945333D01*
X66484666Y-128850095D01*
X66484666Y-128754857D01*
X66532285Y-128659619D01*
X66579904Y-128612000D01*
X66675142Y-128564380D01*
X66913238Y-128564380D01*
X67056095Y-128612000D01*
X67389428Y-128564380D02*
X67627523Y-129564380D01*
X67818000Y-128850095D01*
X68008476Y-129564380D01*
X68246571Y-128564380D01*
X69103714Y-128564380D02*
X68627523Y-128564380D01*
X68579904Y-129040571D01*
X68627523Y-128992952D01*
X68722761Y-128945333D01*
X68960857Y-128945333D01*
X69056095Y-128992952D01*
X69103714Y-129040571D01*
X69151333Y-129135809D01*
X69151333Y-129373904D01*
X69103714Y-129469142D01*
X69056095Y-129516761D01*
X68960857Y-129564380D01*
X68722761Y-129564380D01*
X68627523Y-129516761D01*
X68579904Y-129469142D01*
X65762666Y-112792761D02*
X65905523Y-112840380D01*
X66143619Y-112840380D01*
X66238857Y-112792761D01*
X66286476Y-112745142D01*
X66334095Y-112649904D01*
X66334095Y-112554666D01*
X66286476Y-112459428D01*
X66238857Y-112411809D01*
X66143619Y-112364190D01*
X65953142Y-112316571D01*
X65857904Y-112268952D01*
X65810285Y-112221333D01*
X65762666Y-112126095D01*
X65762666Y-112030857D01*
X65810285Y-111935619D01*
X65857904Y-111888000D01*
X65953142Y-111840380D01*
X66191238Y-111840380D01*
X66334095Y-111888000D01*
X66667428Y-111840380D02*
X66905523Y-112840380D01*
X67096000Y-112126095D01*
X67286476Y-112840380D01*
X67524571Y-111840380D01*
X68334095Y-112173714D02*
X68334095Y-112840380D01*
X68096000Y-111792761D02*
X67857904Y-112507047D01*
X68476952Y-112507047D01*
X101973142Y-27820880D02*
X101639809Y-27344690D01*
X101401714Y-27820880D02*
X101401714Y-26820880D01*
X101782666Y-26820880D01*
X101877904Y-26868500D01*
X101925523Y-26916119D01*
X101973142Y-27011357D01*
X101973142Y-27154214D01*
X101925523Y-27249452D01*
X101877904Y-27297071D01*
X101782666Y-27344690D01*
X101401714Y-27344690D01*
X102306476Y-26820880D02*
X102925523Y-26820880D01*
X102592190Y-27201833D01*
X102735047Y-27201833D01*
X102830285Y-27249452D01*
X102877904Y-27297071D01*
X102925523Y-27392309D01*
X102925523Y-27630404D01*
X102877904Y-27725642D01*
X102830285Y-27773261D01*
X102735047Y-27820880D01*
X102449333Y-27820880D01*
X102354095Y-27773261D01*
X102306476Y-27725642D01*
X103782666Y-26820880D02*
X103592190Y-26820880D01*
X103496952Y-26868500D01*
X103449333Y-26916119D01*
X103354095Y-27058976D01*
X103306476Y-27249452D01*
X103306476Y-27630404D01*
X103354095Y-27725642D01*
X103401714Y-27773261D01*
X103496952Y-27820880D01*
X103687428Y-27820880D01*
X103782666Y-27773261D01*
X103830285Y-27725642D01*
X103877904Y-27630404D01*
X103877904Y-27392309D01*
X103830285Y-27297071D01*
X103782666Y-27249452D01*
X103687428Y-27201833D01*
X103496952Y-27201833D01*
X103401714Y-27249452D01*
X103354095Y-27297071D01*
X103306476Y-27392309D01*
X98861642Y-27820880D02*
X98528309Y-27344690D01*
X98290214Y-27820880D02*
X98290214Y-26820880D01*
X98671166Y-26820880D01*
X98766404Y-26868500D01*
X98814023Y-26916119D01*
X98861642Y-27011357D01*
X98861642Y-27154214D01*
X98814023Y-27249452D01*
X98766404Y-27297071D01*
X98671166Y-27344690D01*
X98290214Y-27344690D01*
X99194976Y-26820880D02*
X99814023Y-26820880D01*
X99480690Y-27201833D01*
X99623547Y-27201833D01*
X99718785Y-27249452D01*
X99766404Y-27297071D01*
X99814023Y-27392309D01*
X99814023Y-27630404D01*
X99766404Y-27725642D01*
X99718785Y-27773261D01*
X99623547Y-27820880D01*
X99337833Y-27820880D01*
X99242595Y-27773261D01*
X99194976Y-27725642D01*
X100718785Y-26820880D02*
X100242595Y-26820880D01*
X100194976Y-27297071D01*
X100242595Y-27249452D01*
X100337833Y-27201833D01*
X100575928Y-27201833D01*
X100671166Y-27249452D01*
X100718785Y-27297071D01*
X100766404Y-27392309D01*
X100766404Y-27630404D01*
X100718785Y-27725642D01*
X100671166Y-27773261D01*
X100575928Y-27820880D01*
X100337833Y-27820880D01*
X100242595Y-27773261D01*
X100194976Y-27725642D01*
X102774761Y-36552119D02*
X102679523Y-36504500D01*
X102584285Y-36409261D01*
X102441428Y-36266404D01*
X102346190Y-36218785D01*
X102250952Y-36218785D01*
X102298571Y-36456880D02*
X102203333Y-36409261D01*
X102108095Y-36314023D01*
X102060476Y-36123547D01*
X102060476Y-35790214D01*
X102108095Y-35599738D01*
X102203333Y-35504500D01*
X102298571Y-35456880D01*
X102489047Y-35456880D01*
X102584285Y-35504500D01*
X102679523Y-35599738D01*
X102727142Y-35790214D01*
X102727142Y-36123547D01*
X102679523Y-36314023D01*
X102584285Y-36409261D01*
X102489047Y-36456880D01*
X102298571Y-36456880D01*
X103584285Y-35456880D02*
X103393809Y-35456880D01*
X103298571Y-35504500D01*
X103250952Y-35552119D01*
X103155714Y-35694976D01*
X103108095Y-35885452D01*
X103108095Y-36266404D01*
X103155714Y-36361642D01*
X103203333Y-36409261D01*
X103298571Y-36456880D01*
X103489047Y-36456880D01*
X103584285Y-36409261D01*
X103631904Y-36361642D01*
X103679523Y-36266404D01*
X103679523Y-36028309D01*
X103631904Y-35933071D01*
X103584285Y-35885452D01*
X103489047Y-35837833D01*
X103298571Y-35837833D01*
X103203333Y-35885452D01*
X103155714Y-35933071D01*
X103108095Y-36028309D01*
X112626833Y-48290380D02*
X112150642Y-48290380D01*
X112150642Y-47290380D01*
X113483976Y-48290380D02*
X112912547Y-48290380D01*
X113198261Y-48290380D02*
X113198261Y-47290380D01*
X113103023Y-47433238D01*
X113007785Y-47528476D01*
X112912547Y-47576095D01*
X113777733Y-59970942D02*
X113730114Y-60018561D01*
X113587257Y-60066180D01*
X113492019Y-60066180D01*
X113349161Y-60018561D01*
X113253923Y-59923323D01*
X113206304Y-59828085D01*
X113158685Y-59637609D01*
X113158685Y-59494752D01*
X113206304Y-59304276D01*
X113253923Y-59209038D01*
X113349161Y-59113800D01*
X113492019Y-59066180D01*
X113587257Y-59066180D01*
X113730114Y-59113800D01*
X113777733Y-59161419D01*
X114634876Y-59399514D02*
X114634876Y-60066180D01*
X114396780Y-59018561D02*
X114158685Y-59732847D01*
X114777733Y-59732847D01*
X105624333Y-51030142D02*
X105576714Y-51077761D01*
X105433857Y-51125380D01*
X105338619Y-51125380D01*
X105195761Y-51077761D01*
X105100523Y-50982523D01*
X105052904Y-50887285D01*
X105005285Y-50696809D01*
X105005285Y-50553952D01*
X105052904Y-50363476D01*
X105100523Y-50268238D01*
X105195761Y-50173000D01*
X105338619Y-50125380D01*
X105433857Y-50125380D01*
X105576714Y-50173000D01*
X105624333Y-50220619D01*
X105957666Y-50125380D02*
X106576714Y-50125380D01*
X106243380Y-50506333D01*
X106386238Y-50506333D01*
X106481476Y-50553952D01*
X106529095Y-50601571D01*
X106576714Y-50696809D01*
X106576714Y-50934904D01*
X106529095Y-51030142D01*
X106481476Y-51077761D01*
X106386238Y-51125380D01*
X106100523Y-51125380D01*
X106005285Y-51077761D01*
X105957666Y-51030142D01*
X90209904Y-41997380D02*
X90781333Y-41997380D01*
X90495619Y-42997380D02*
X90495619Y-41997380D01*
X91114666Y-42997380D02*
X91114666Y-41997380D01*
X91495619Y-41997380D01*
X91590857Y-42045000D01*
X91638476Y-42092619D01*
X91686095Y-42187857D01*
X91686095Y-42330714D01*
X91638476Y-42425952D01*
X91590857Y-42473571D01*
X91495619Y-42521190D01*
X91114666Y-42521190D01*
X92638476Y-42997380D02*
X92067047Y-42997380D01*
X92352761Y-42997380D02*
X92352761Y-41997380D01*
X92257523Y-42140238D01*
X92162285Y-42235476D01*
X92067047Y-42283095D01*
X93209904Y-42425952D02*
X93114666Y-42378333D01*
X93067047Y-42330714D01*
X93019428Y-42235476D01*
X93019428Y-42187857D01*
X93067047Y-42092619D01*
X93114666Y-42045000D01*
X93209904Y-41997380D01*
X93400380Y-41997380D01*
X93495619Y-42045000D01*
X93543238Y-42092619D01*
X93590857Y-42187857D01*
X93590857Y-42235476D01*
X93543238Y-42330714D01*
X93495619Y-42378333D01*
X93400380Y-42425952D01*
X93209904Y-42425952D01*
X93114666Y-42473571D01*
X93067047Y-42521190D01*
X93019428Y-42616428D01*
X93019428Y-42806904D01*
X93067047Y-42902142D01*
X93114666Y-42949761D01*
X93209904Y-42997380D01*
X93400380Y-42997380D01*
X93495619Y-42949761D01*
X93543238Y-42902142D01*
X93590857Y-42806904D01*
X93590857Y-42616428D01*
X93543238Y-42521190D01*
X93495619Y-42473571D01*
X93400380Y-42425952D01*
X86272904Y-41997380D02*
X86844333Y-41997380D01*
X86558619Y-42997380D02*
X86558619Y-41997380D01*
X87177666Y-42997380D02*
X87177666Y-41997380D01*
X87558619Y-41997380D01*
X87653857Y-42045000D01*
X87701476Y-42092619D01*
X87749095Y-42187857D01*
X87749095Y-42330714D01*
X87701476Y-42425952D01*
X87653857Y-42473571D01*
X87558619Y-42521190D01*
X87177666Y-42521190D01*
X88701476Y-42997380D02*
X88130047Y-42997380D01*
X88415761Y-42997380D02*
X88415761Y-41997380D01*
X88320523Y-42140238D01*
X88225285Y-42235476D01*
X88130047Y-42283095D01*
X89034809Y-41997380D02*
X89701476Y-41997380D01*
X89272904Y-42997380D01*
X82462904Y-41997380D02*
X83034333Y-41997380D01*
X82748619Y-42997380D02*
X82748619Y-41997380D01*
X83367666Y-42997380D02*
X83367666Y-41997380D01*
X83748619Y-41997380D01*
X83843857Y-42045000D01*
X83891476Y-42092619D01*
X83939095Y-42187857D01*
X83939095Y-42330714D01*
X83891476Y-42425952D01*
X83843857Y-42473571D01*
X83748619Y-42521190D01*
X83367666Y-42521190D01*
X84891476Y-42997380D02*
X84320047Y-42997380D01*
X84605761Y-42997380D02*
X84605761Y-41997380D01*
X84510523Y-42140238D01*
X84415285Y-42235476D01*
X84320047Y-42283095D01*
X85748619Y-41997380D02*
X85558142Y-41997380D01*
X85462904Y-42045000D01*
X85415285Y-42092619D01*
X85320047Y-42235476D01*
X85272428Y-42425952D01*
X85272428Y-42806904D01*
X85320047Y-42902142D01*
X85367666Y-42949761D01*
X85462904Y-42997380D01*
X85653380Y-42997380D01*
X85748619Y-42949761D01*
X85796238Y-42902142D01*
X85843857Y-42806904D01*
X85843857Y-42568809D01*
X85796238Y-42473571D01*
X85748619Y-42425952D01*
X85653380Y-42378333D01*
X85462904Y-42378333D01*
X85367666Y-42425952D01*
X85320047Y-42473571D01*
X85272428Y-42568809D01*
X78652904Y-41997380D02*
X79224333Y-41997380D01*
X78938619Y-42997380D02*
X78938619Y-41997380D01*
X79557666Y-42997380D02*
X79557666Y-41997380D01*
X79938619Y-41997380D01*
X80033857Y-42045000D01*
X80081476Y-42092619D01*
X80129095Y-42187857D01*
X80129095Y-42330714D01*
X80081476Y-42425952D01*
X80033857Y-42473571D01*
X79938619Y-42521190D01*
X79557666Y-42521190D01*
X81081476Y-42997380D02*
X80510047Y-42997380D01*
X80795761Y-42997380D02*
X80795761Y-41997380D01*
X80700523Y-42140238D01*
X80605285Y-42235476D01*
X80510047Y-42283095D01*
X81986238Y-41997380D02*
X81510047Y-41997380D01*
X81462428Y-42473571D01*
X81510047Y-42425952D01*
X81605285Y-42378333D01*
X81843380Y-42378333D01*
X81938619Y-42425952D01*
X81986238Y-42473571D01*
X82033857Y-42568809D01*
X82033857Y-42806904D01*
X81986238Y-42902142D01*
X81938619Y-42949761D01*
X81843380Y-42997380D01*
X81605285Y-42997380D01*
X81510047Y-42949761D01*
X81462428Y-42902142D01*
X82208904Y-46699380D02*
X82780333Y-46699380D01*
X82494619Y-47699380D02*
X82494619Y-46699380D01*
X83113666Y-47699380D02*
X83113666Y-46699380D01*
X83494619Y-46699380D01*
X83589857Y-46747000D01*
X83637476Y-46794619D01*
X83685095Y-46889857D01*
X83685095Y-47032714D01*
X83637476Y-47127952D01*
X83589857Y-47175571D01*
X83494619Y-47223190D01*
X83113666Y-47223190D01*
X84637476Y-47699380D02*
X84066047Y-47699380D01*
X84351761Y-47699380D02*
X84351761Y-46699380D01*
X84256523Y-46842238D01*
X84161285Y-46937476D01*
X84066047Y-46985095D01*
X85494619Y-47032714D02*
X85494619Y-47699380D01*
X85256523Y-46651761D02*
X85018428Y-47366047D01*
X85637476Y-47366047D01*
X78271904Y-46699380D02*
X78843333Y-46699380D01*
X78557619Y-47699380D02*
X78557619Y-46699380D01*
X79176666Y-47699380D02*
X79176666Y-46699380D01*
X79557619Y-46699380D01*
X79652857Y-46747000D01*
X79700476Y-46794619D01*
X79748095Y-46889857D01*
X79748095Y-47032714D01*
X79700476Y-47127952D01*
X79652857Y-47175571D01*
X79557619Y-47223190D01*
X79176666Y-47223190D01*
X80700476Y-47699380D02*
X80129047Y-47699380D01*
X80414761Y-47699380D02*
X80414761Y-46699380D01*
X80319523Y-46842238D01*
X80224285Y-46937476D01*
X80129047Y-46985095D01*
X81033809Y-46699380D02*
X81652857Y-46699380D01*
X81319523Y-47080333D01*
X81462380Y-47080333D01*
X81557619Y-47127952D01*
X81605238Y-47175571D01*
X81652857Y-47270809D01*
X81652857Y-47508904D01*
X81605238Y-47604142D01*
X81557619Y-47651761D01*
X81462380Y-47699380D01*
X81176666Y-47699380D01*
X81081428Y-47651761D01*
X81033809Y-47604142D01*
X53252904Y-29173380D02*
X53824333Y-29173380D01*
X53538619Y-30173380D02*
X53538619Y-29173380D01*
X54157666Y-30173380D02*
X54157666Y-29173380D01*
X54538619Y-29173380D01*
X54633857Y-29221000D01*
X54681476Y-29268619D01*
X54729095Y-29363857D01*
X54729095Y-29506714D01*
X54681476Y-29601952D01*
X54633857Y-29649571D01*
X54538619Y-29697190D01*
X54157666Y-29697190D01*
X55681476Y-30173380D02*
X55110047Y-30173380D01*
X55395761Y-30173380D02*
X55395761Y-29173380D01*
X55300523Y-29316238D01*
X55205285Y-29411476D01*
X55110047Y-29459095D01*
X56062428Y-29268619D02*
X56110047Y-29221000D01*
X56205285Y-29173380D01*
X56443380Y-29173380D01*
X56538619Y-29221000D01*
X56586238Y-29268619D01*
X56633857Y-29363857D01*
X56633857Y-29459095D01*
X56586238Y-29601952D01*
X56014809Y-30173380D01*
X56633857Y-30173380D01*
X91733904Y-49620380D02*
X92305333Y-49620380D01*
X92019619Y-50620380D02*
X92019619Y-49620380D01*
X92638666Y-50620380D02*
X92638666Y-49620380D01*
X93019619Y-49620380D01*
X93114857Y-49668000D01*
X93162476Y-49715619D01*
X93210095Y-49810857D01*
X93210095Y-49953714D01*
X93162476Y-50048952D01*
X93114857Y-50096571D01*
X93019619Y-50144190D01*
X92638666Y-50144190D01*
X94162476Y-50620380D02*
X93591047Y-50620380D01*
X93876761Y-50620380D02*
X93876761Y-49620380D01*
X93781523Y-49763238D01*
X93686285Y-49858476D01*
X93591047Y-49906095D01*
X95114857Y-50620380D02*
X94543428Y-50620380D01*
X94829142Y-50620380D02*
X94829142Y-49620380D01*
X94733904Y-49763238D01*
X94638666Y-49858476D01*
X94543428Y-49906095D01*
X87923904Y-49620380D02*
X88495333Y-49620380D01*
X88209619Y-50620380D02*
X88209619Y-49620380D01*
X88828666Y-50620380D02*
X88828666Y-49620380D01*
X89209619Y-49620380D01*
X89304857Y-49668000D01*
X89352476Y-49715619D01*
X89400095Y-49810857D01*
X89400095Y-49953714D01*
X89352476Y-50048952D01*
X89304857Y-50096571D01*
X89209619Y-50144190D01*
X88828666Y-50144190D01*
X90352476Y-50620380D02*
X89781047Y-50620380D01*
X90066761Y-50620380D02*
X90066761Y-49620380D01*
X89971523Y-49763238D01*
X89876285Y-49858476D01*
X89781047Y-49906095D01*
X90971523Y-49620380D02*
X91066761Y-49620380D01*
X91162000Y-49668000D01*
X91209619Y-49715619D01*
X91257238Y-49810857D01*
X91304857Y-50001333D01*
X91304857Y-50239428D01*
X91257238Y-50429904D01*
X91209619Y-50525142D01*
X91162000Y-50572761D01*
X91066761Y-50620380D01*
X90971523Y-50620380D01*
X90876285Y-50572761D01*
X90828666Y-50525142D01*
X90781047Y-50429904D01*
X90733428Y-50239428D01*
X90733428Y-50001333D01*
X90781047Y-49810857D01*
X90828666Y-49715619D01*
X90876285Y-49668000D01*
X90971523Y-49620380D01*
X63254095Y-74766380D02*
X63825523Y-74766380D01*
X63539809Y-75766380D02*
X63539809Y-74766380D01*
X64158857Y-75766380D02*
X64158857Y-74766380D01*
X64539809Y-74766380D01*
X64635047Y-74814000D01*
X64682666Y-74861619D01*
X64730285Y-74956857D01*
X64730285Y-75099714D01*
X64682666Y-75194952D01*
X64635047Y-75242571D01*
X64539809Y-75290190D01*
X64158857Y-75290190D01*
X65206476Y-75766380D02*
X65396952Y-75766380D01*
X65492190Y-75718761D01*
X65539809Y-75671142D01*
X65635047Y-75528285D01*
X65682666Y-75337809D01*
X65682666Y-74956857D01*
X65635047Y-74861619D01*
X65587428Y-74814000D01*
X65492190Y-74766380D01*
X65301714Y-74766380D01*
X65206476Y-74814000D01*
X65158857Y-74861619D01*
X65111238Y-74956857D01*
X65111238Y-75194952D01*
X65158857Y-75290190D01*
X65206476Y-75337809D01*
X65301714Y-75385428D01*
X65492190Y-75385428D01*
X65587428Y-75337809D01*
X65635047Y-75290190D01*
X65682666Y-75194952D01*
X60460095Y-74766380D02*
X61031523Y-74766380D01*
X60745809Y-75766380D02*
X60745809Y-74766380D01*
X61364857Y-75766380D02*
X61364857Y-74766380D01*
X61745809Y-74766380D01*
X61841047Y-74814000D01*
X61888666Y-74861619D01*
X61936285Y-74956857D01*
X61936285Y-75099714D01*
X61888666Y-75194952D01*
X61841047Y-75242571D01*
X61745809Y-75290190D01*
X61364857Y-75290190D01*
X62507714Y-75194952D02*
X62412476Y-75147333D01*
X62364857Y-75099714D01*
X62317238Y-75004476D01*
X62317238Y-74956857D01*
X62364857Y-74861619D01*
X62412476Y-74814000D01*
X62507714Y-74766380D01*
X62698190Y-74766380D01*
X62793428Y-74814000D01*
X62841047Y-74861619D01*
X62888666Y-74956857D01*
X62888666Y-75004476D01*
X62841047Y-75099714D01*
X62793428Y-75147333D01*
X62698190Y-75194952D01*
X62507714Y-75194952D01*
X62412476Y-75242571D01*
X62364857Y-75290190D01*
X62317238Y-75385428D01*
X62317238Y-75575904D01*
X62364857Y-75671142D01*
X62412476Y-75718761D01*
X62507714Y-75766380D01*
X62698190Y-75766380D01*
X62793428Y-75718761D01*
X62841047Y-75671142D01*
X62888666Y-75575904D01*
X62888666Y-75385428D01*
X62841047Y-75290190D01*
X62793428Y-75242571D01*
X62698190Y-75194952D01*
X57666095Y-74766380D02*
X58237523Y-74766380D01*
X57951809Y-75766380D02*
X57951809Y-74766380D01*
X58570857Y-75766380D02*
X58570857Y-74766380D01*
X58951809Y-74766380D01*
X59047047Y-74814000D01*
X59094666Y-74861619D01*
X59142285Y-74956857D01*
X59142285Y-75099714D01*
X59094666Y-75194952D01*
X59047047Y-75242571D01*
X58951809Y-75290190D01*
X58570857Y-75290190D01*
X59475619Y-74766380D02*
X60142285Y-74766380D01*
X59713714Y-75766380D01*
X55888095Y-35396380D02*
X56459523Y-35396380D01*
X56173809Y-36396380D02*
X56173809Y-35396380D01*
X56792857Y-36396380D02*
X56792857Y-35396380D01*
X57173809Y-35396380D01*
X57269047Y-35444000D01*
X57316666Y-35491619D01*
X57364285Y-35586857D01*
X57364285Y-35729714D01*
X57316666Y-35824952D01*
X57269047Y-35872571D01*
X57173809Y-35920190D01*
X56792857Y-35920190D01*
X58221428Y-35396380D02*
X58030952Y-35396380D01*
X57935714Y-35444000D01*
X57888095Y-35491619D01*
X57792857Y-35634476D01*
X57745238Y-35824952D01*
X57745238Y-36205904D01*
X57792857Y-36301142D01*
X57840476Y-36348761D01*
X57935714Y-36396380D01*
X58126190Y-36396380D01*
X58221428Y-36348761D01*
X58269047Y-36301142D01*
X58316666Y-36205904D01*
X58316666Y-35967809D01*
X58269047Y-35872571D01*
X58221428Y-35824952D01*
X58126190Y-35777333D01*
X57935714Y-35777333D01*
X57840476Y-35824952D01*
X57792857Y-35872571D01*
X57745238Y-35967809D01*
X69604095Y-50128380D02*
X70175523Y-50128380D01*
X69889809Y-51128380D02*
X69889809Y-50128380D01*
X70508857Y-51128380D02*
X70508857Y-50128380D01*
X70889809Y-50128380D01*
X70985047Y-50176000D01*
X71032666Y-50223619D01*
X71080285Y-50318857D01*
X71080285Y-50461714D01*
X71032666Y-50556952D01*
X70985047Y-50604571D01*
X70889809Y-50652190D01*
X70508857Y-50652190D01*
X71985047Y-50128380D02*
X71508857Y-50128380D01*
X71461238Y-50604571D01*
X71508857Y-50556952D01*
X71604095Y-50509333D01*
X71842190Y-50509333D01*
X71937428Y-50556952D01*
X71985047Y-50604571D01*
X72032666Y-50699809D01*
X72032666Y-50937904D01*
X71985047Y-51033142D01*
X71937428Y-51080761D01*
X71842190Y-51128380D01*
X71604095Y-51128380D01*
X71508857Y-51080761D01*
X71461238Y-51033142D01*
X66810095Y-50128380D02*
X67381523Y-50128380D01*
X67095809Y-51128380D02*
X67095809Y-50128380D01*
X67714857Y-51128380D02*
X67714857Y-50128380D01*
X68095809Y-50128380D01*
X68191047Y-50176000D01*
X68238666Y-50223619D01*
X68286285Y-50318857D01*
X68286285Y-50461714D01*
X68238666Y-50556952D01*
X68191047Y-50604571D01*
X68095809Y-50652190D01*
X67714857Y-50652190D01*
X69143428Y-50461714D02*
X69143428Y-51128380D01*
X68905333Y-50080761D02*
X68667238Y-50795047D01*
X69286285Y-50795047D01*
X105418095Y-60034380D02*
X105989523Y-60034380D01*
X105703809Y-61034380D02*
X105703809Y-60034380D01*
X106322857Y-61034380D02*
X106322857Y-60034380D01*
X106703809Y-60034380D01*
X106799047Y-60082000D01*
X106846666Y-60129619D01*
X106894285Y-60224857D01*
X106894285Y-60367714D01*
X106846666Y-60462952D01*
X106799047Y-60510571D01*
X106703809Y-60558190D01*
X106322857Y-60558190D01*
X107227619Y-60034380D02*
X107846666Y-60034380D01*
X107513333Y-60415333D01*
X107656190Y-60415333D01*
X107751428Y-60462952D01*
X107799047Y-60510571D01*
X107846666Y-60605809D01*
X107846666Y-60843904D01*
X107799047Y-60939142D01*
X107751428Y-60986761D01*
X107656190Y-61034380D01*
X107370476Y-61034380D01*
X107275238Y-60986761D01*
X107227619Y-60939142D01*
X102370095Y-60034380D02*
X102941523Y-60034380D01*
X102655809Y-61034380D02*
X102655809Y-60034380D01*
X103274857Y-61034380D02*
X103274857Y-60034380D01*
X103655809Y-60034380D01*
X103751047Y-60082000D01*
X103798666Y-60129619D01*
X103846285Y-60224857D01*
X103846285Y-60367714D01*
X103798666Y-60462952D01*
X103751047Y-60510571D01*
X103655809Y-60558190D01*
X103274857Y-60558190D01*
X104227238Y-60129619D02*
X104274857Y-60082000D01*
X104370095Y-60034380D01*
X104608190Y-60034380D01*
X104703428Y-60082000D01*
X104751047Y-60129619D01*
X104798666Y-60224857D01*
X104798666Y-60320095D01*
X104751047Y-60462952D01*
X104179619Y-61034380D01*
X104798666Y-61034380D01*
X99576095Y-60034380D02*
X100147523Y-60034380D01*
X99861809Y-61034380D02*
X99861809Y-60034380D01*
X100480857Y-61034380D02*
X100480857Y-60034380D01*
X100861809Y-60034380D01*
X100957047Y-60082000D01*
X101004666Y-60129619D01*
X101052285Y-60224857D01*
X101052285Y-60367714D01*
X101004666Y-60462952D01*
X100957047Y-60510571D01*
X100861809Y-60558190D01*
X100480857Y-60558190D01*
X102004666Y-61034380D02*
X101433238Y-61034380D01*
X101718952Y-61034380D02*
X101718952Y-60034380D01*
X101623714Y-60177238D01*
X101528476Y-60272476D01*
X101433238Y-60320095D01*
X58539142Y-29948142D02*
X58491523Y-29995761D01*
X58348666Y-30043380D01*
X58253428Y-30043380D01*
X58110571Y-29995761D01*
X58015333Y-29900523D01*
X57967714Y-29805285D01*
X57920095Y-29614809D01*
X57920095Y-29471952D01*
X57967714Y-29281476D01*
X58015333Y-29186238D01*
X58110571Y-29091000D01*
X58253428Y-29043380D01*
X58348666Y-29043380D01*
X58491523Y-29091000D01*
X58539142Y-29138619D01*
X59491523Y-30043380D02*
X58920095Y-30043380D01*
X59205809Y-30043380D02*
X59205809Y-29043380D01*
X59110571Y-29186238D01*
X59015333Y-29281476D01*
X58920095Y-29329095D01*
X59824857Y-29043380D02*
X60491523Y-29043380D01*
X60062952Y-30043380D01*
X93210142Y-56459380D02*
X92876809Y-55983190D01*
X92638714Y-56459380D02*
X92638714Y-55459380D01*
X93019666Y-55459380D01*
X93114904Y-55507000D01*
X93162523Y-55554619D01*
X93210142Y-55649857D01*
X93210142Y-55792714D01*
X93162523Y-55887952D01*
X93114904Y-55935571D01*
X93019666Y-55983190D01*
X92638714Y-55983190D01*
X93591095Y-55554619D02*
X93638714Y-55507000D01*
X93733952Y-55459380D01*
X93972047Y-55459380D01*
X94067285Y-55507000D01*
X94114904Y-55554619D01*
X94162523Y-55649857D01*
X94162523Y-55745095D01*
X94114904Y-55887952D01*
X93543476Y-56459380D01*
X94162523Y-56459380D01*
X95019666Y-55792714D02*
X95019666Y-56459380D01*
X94781571Y-55411761D02*
X94543476Y-56126047D01*
X95162523Y-56126047D01*
X93210142Y-59126380D02*
X92876809Y-58650190D01*
X92638714Y-59126380D02*
X92638714Y-58126380D01*
X93019666Y-58126380D01*
X93114904Y-58174000D01*
X93162523Y-58221619D01*
X93210142Y-58316857D01*
X93210142Y-58459714D01*
X93162523Y-58554952D01*
X93114904Y-58602571D01*
X93019666Y-58650190D01*
X92638714Y-58650190D01*
X93591095Y-58221619D02*
X93638714Y-58174000D01*
X93733952Y-58126380D01*
X93972047Y-58126380D01*
X94067285Y-58174000D01*
X94114904Y-58221619D01*
X94162523Y-58316857D01*
X94162523Y-58412095D01*
X94114904Y-58554952D01*
X93543476Y-59126380D01*
X94162523Y-59126380D01*
X94495857Y-58126380D02*
X95114904Y-58126380D01*
X94781571Y-58507333D01*
X94924428Y-58507333D01*
X95019666Y-58554952D01*
X95067285Y-58602571D01*
X95114904Y-58697809D01*
X95114904Y-58935904D01*
X95067285Y-59031142D01*
X95019666Y-59078761D01*
X94924428Y-59126380D01*
X94638714Y-59126380D01*
X94543476Y-59078761D01*
X94495857Y-59031142D01*
X93210142Y-61793380D02*
X92876809Y-61317190D01*
X92638714Y-61793380D02*
X92638714Y-60793380D01*
X93019666Y-60793380D01*
X93114904Y-60841000D01*
X93162523Y-60888619D01*
X93210142Y-60983857D01*
X93210142Y-61126714D01*
X93162523Y-61221952D01*
X93114904Y-61269571D01*
X93019666Y-61317190D01*
X92638714Y-61317190D01*
X93591095Y-60888619D02*
X93638714Y-60841000D01*
X93733952Y-60793380D01*
X93972047Y-60793380D01*
X94067285Y-60841000D01*
X94114904Y-60888619D01*
X94162523Y-60983857D01*
X94162523Y-61079095D01*
X94114904Y-61221952D01*
X93543476Y-61793380D01*
X94162523Y-61793380D01*
X94543476Y-60888619D02*
X94591095Y-60841000D01*
X94686333Y-60793380D01*
X94924428Y-60793380D01*
X95019666Y-60841000D01*
X95067285Y-60888619D01*
X95114904Y-60983857D01*
X95114904Y-61079095D01*
X95067285Y-61221952D01*
X94495857Y-61793380D01*
X95114904Y-61793380D01*
X93210142Y-64460380D02*
X92876809Y-63984190D01*
X92638714Y-64460380D02*
X92638714Y-63460380D01*
X93019666Y-63460380D01*
X93114904Y-63508000D01*
X93162523Y-63555619D01*
X93210142Y-63650857D01*
X93210142Y-63793714D01*
X93162523Y-63888952D01*
X93114904Y-63936571D01*
X93019666Y-63984190D01*
X92638714Y-63984190D01*
X93591095Y-63555619D02*
X93638714Y-63508000D01*
X93733952Y-63460380D01*
X93972047Y-63460380D01*
X94067285Y-63508000D01*
X94114904Y-63555619D01*
X94162523Y-63650857D01*
X94162523Y-63746095D01*
X94114904Y-63888952D01*
X93543476Y-64460380D01*
X94162523Y-64460380D01*
X95114904Y-64460380D02*
X94543476Y-64460380D01*
X94829190Y-64460380D02*
X94829190Y-63460380D01*
X94733952Y-63603238D01*
X94638714Y-63698476D01*
X94543476Y-63746095D01*
X93210142Y-67127380D02*
X92876809Y-66651190D01*
X92638714Y-67127380D02*
X92638714Y-66127380D01*
X93019666Y-66127380D01*
X93114904Y-66175000D01*
X93162523Y-66222619D01*
X93210142Y-66317857D01*
X93210142Y-66460714D01*
X93162523Y-66555952D01*
X93114904Y-66603571D01*
X93019666Y-66651190D01*
X92638714Y-66651190D01*
X93591095Y-66222619D02*
X93638714Y-66175000D01*
X93733952Y-66127380D01*
X93972047Y-66127380D01*
X94067285Y-66175000D01*
X94114904Y-66222619D01*
X94162523Y-66317857D01*
X94162523Y-66413095D01*
X94114904Y-66555952D01*
X93543476Y-67127380D01*
X94162523Y-67127380D01*
X94781571Y-66127380D02*
X94876809Y-66127380D01*
X94972047Y-66175000D01*
X95019666Y-66222619D01*
X95067285Y-66317857D01*
X95114904Y-66508333D01*
X95114904Y-66746428D01*
X95067285Y-66936904D01*
X95019666Y-67032142D01*
X94972047Y-67079761D01*
X94876809Y-67127380D01*
X94781571Y-67127380D01*
X94686333Y-67079761D01*
X94638714Y-67032142D01*
X94591095Y-66936904D01*
X94543476Y-66746428D01*
X94543476Y-66508333D01*
X94591095Y-66317857D01*
X94638714Y-66222619D01*
X94686333Y-66175000D01*
X94781571Y-66127380D01*
X93210142Y-69921380D02*
X92876809Y-69445190D01*
X92638714Y-69921380D02*
X92638714Y-68921380D01*
X93019666Y-68921380D01*
X93114904Y-68969000D01*
X93162523Y-69016619D01*
X93210142Y-69111857D01*
X93210142Y-69254714D01*
X93162523Y-69349952D01*
X93114904Y-69397571D01*
X93019666Y-69445190D01*
X92638714Y-69445190D01*
X94162523Y-69921380D02*
X93591095Y-69921380D01*
X93876809Y-69921380D02*
X93876809Y-68921380D01*
X93781571Y-69064238D01*
X93686333Y-69159476D01*
X93591095Y-69207095D01*
X94638714Y-69921380D02*
X94829190Y-69921380D01*
X94924428Y-69873761D01*
X94972047Y-69826142D01*
X95067285Y-69683285D01*
X95114904Y-69492809D01*
X95114904Y-69111857D01*
X95067285Y-69016619D01*
X95019666Y-68969000D01*
X94924428Y-68921380D01*
X94733952Y-68921380D01*
X94638714Y-68969000D01*
X94591095Y-69016619D01*
X94543476Y-69111857D01*
X94543476Y-69349952D01*
X94591095Y-69445190D01*
X94638714Y-69492809D01*
X94733952Y-69540428D01*
X94924428Y-69540428D01*
X95019666Y-69492809D01*
X95067285Y-69445190D01*
X95114904Y-69349952D01*
X144216380Y-33535857D02*
X143740190Y-33869190D01*
X144216380Y-34107285D02*
X143216380Y-34107285D01*
X143216380Y-33726333D01*
X143264000Y-33631095D01*
X143311619Y-33583476D01*
X143406857Y-33535857D01*
X143549714Y-33535857D01*
X143644952Y-33583476D01*
X143692571Y-33631095D01*
X143740190Y-33726333D01*
X143740190Y-34107285D01*
X144216380Y-32583476D02*
X144216380Y-33154904D01*
X144216380Y-32869190D02*
X143216380Y-32869190D01*
X143359238Y-32964428D01*
X143454476Y-33059666D01*
X143502095Y-33154904D01*
X143644952Y-32012047D02*
X143597333Y-32107285D01*
X143549714Y-32154904D01*
X143454476Y-32202523D01*
X143406857Y-32202523D01*
X143311619Y-32154904D01*
X143264000Y-32107285D01*
X143216380Y-32012047D01*
X143216380Y-31821571D01*
X143264000Y-31726333D01*
X143311619Y-31678714D01*
X143406857Y-31631095D01*
X143454476Y-31631095D01*
X143549714Y-31678714D01*
X143597333Y-31726333D01*
X143644952Y-31821571D01*
X143644952Y-32012047D01*
X143692571Y-32107285D01*
X143740190Y-32154904D01*
X143835428Y-32202523D01*
X144025904Y-32202523D01*
X144121142Y-32154904D01*
X144168761Y-32107285D01*
X144216380Y-32012047D01*
X144216380Y-31821571D01*
X144168761Y-31726333D01*
X144121142Y-31678714D01*
X144025904Y-31631095D01*
X143835428Y-31631095D01*
X143740190Y-31678714D01*
X143692571Y-31726333D01*
X143644952Y-31821571D01*
X93210142Y-72461380D02*
X92876809Y-71985190D01*
X92638714Y-72461380D02*
X92638714Y-71461380D01*
X93019666Y-71461380D01*
X93114904Y-71509000D01*
X93162523Y-71556619D01*
X93210142Y-71651857D01*
X93210142Y-71794714D01*
X93162523Y-71889952D01*
X93114904Y-71937571D01*
X93019666Y-71985190D01*
X92638714Y-71985190D01*
X94162523Y-72461380D02*
X93591095Y-72461380D01*
X93876809Y-72461380D02*
X93876809Y-71461380D01*
X93781571Y-71604238D01*
X93686333Y-71699476D01*
X93591095Y-71747095D01*
X94495857Y-71461380D02*
X95162523Y-71461380D01*
X94733952Y-72461380D01*
X79386142Y-59055142D02*
X79338523Y-59102761D01*
X79195666Y-59150380D01*
X79100428Y-59150380D01*
X78957571Y-59102761D01*
X78862333Y-59007523D01*
X78814714Y-58912285D01*
X78767095Y-58721809D01*
X78767095Y-58578952D01*
X78814714Y-58388476D01*
X78862333Y-58293238D01*
X78957571Y-58198000D01*
X79100428Y-58150380D01*
X79195666Y-58150380D01*
X79338523Y-58198000D01*
X79386142Y-58245619D01*
X80338523Y-59150380D02*
X79767095Y-59150380D01*
X80052809Y-59150380D02*
X80052809Y-58150380D01*
X79957571Y-58293238D01*
X79862333Y-58388476D01*
X79767095Y-58436095D01*
X81195666Y-58150380D02*
X81005190Y-58150380D01*
X80909952Y-58198000D01*
X80862333Y-58245619D01*
X80767095Y-58388476D01*
X80719476Y-58578952D01*
X80719476Y-58959904D01*
X80767095Y-59055142D01*
X80814714Y-59102761D01*
X80909952Y-59150380D01*
X81100428Y-59150380D01*
X81195666Y-59102761D01*
X81243285Y-59055142D01*
X81290904Y-58959904D01*
X81290904Y-58721809D01*
X81243285Y-58626571D01*
X81195666Y-58578952D01*
X81100428Y-58531333D01*
X80909952Y-58531333D01*
X80814714Y-58578952D01*
X80767095Y-58626571D01*
X80719476Y-58721809D01*
X79330642Y-61698142D02*
X79283023Y-61745761D01*
X79140166Y-61793380D01*
X79044928Y-61793380D01*
X78902071Y-61745761D01*
X78806833Y-61650523D01*
X78759214Y-61555285D01*
X78711595Y-61364809D01*
X78711595Y-61221952D01*
X78759214Y-61031476D01*
X78806833Y-60936238D01*
X78902071Y-60841000D01*
X79044928Y-60793380D01*
X79140166Y-60793380D01*
X79283023Y-60841000D01*
X79330642Y-60888619D01*
X80283023Y-61793380D02*
X79711595Y-61793380D01*
X79997309Y-61793380D02*
X79997309Y-60793380D01*
X79902071Y-60936238D01*
X79806833Y-61031476D01*
X79711595Y-61079095D01*
X81187785Y-60793380D02*
X80711595Y-60793380D01*
X80663976Y-61269571D01*
X80711595Y-61221952D01*
X80806833Y-61174333D01*
X81044928Y-61174333D01*
X81140166Y-61221952D01*
X81187785Y-61269571D01*
X81235404Y-61364809D01*
X81235404Y-61602904D01*
X81187785Y-61698142D01*
X81140166Y-61745761D01*
X81044928Y-61793380D01*
X80806833Y-61793380D01*
X80711595Y-61745761D01*
X80663976Y-61698142D01*
X79367142Y-64238142D02*
X79319523Y-64285761D01*
X79176666Y-64333380D01*
X79081428Y-64333380D01*
X78938571Y-64285761D01*
X78843333Y-64190523D01*
X78795714Y-64095285D01*
X78748095Y-63904809D01*
X78748095Y-63761952D01*
X78795714Y-63571476D01*
X78843333Y-63476238D01*
X78938571Y-63381000D01*
X79081428Y-63333380D01*
X79176666Y-63333380D01*
X79319523Y-63381000D01*
X79367142Y-63428619D01*
X80319523Y-64333380D02*
X79748095Y-64333380D01*
X80033809Y-64333380D02*
X80033809Y-63333380D01*
X79938571Y-63476238D01*
X79843333Y-63571476D01*
X79748095Y-63619095D01*
X81176666Y-63666714D02*
X81176666Y-64333380D01*
X80938571Y-63285761D02*
X80700476Y-64000047D01*
X81319523Y-64000047D01*
X79367142Y-67032142D02*
X79319523Y-67079761D01*
X79176666Y-67127380D01*
X79081428Y-67127380D01*
X78938571Y-67079761D01*
X78843333Y-66984523D01*
X78795714Y-66889285D01*
X78748095Y-66698809D01*
X78748095Y-66555952D01*
X78795714Y-66365476D01*
X78843333Y-66270238D01*
X78938571Y-66175000D01*
X79081428Y-66127380D01*
X79176666Y-66127380D01*
X79319523Y-66175000D01*
X79367142Y-66222619D01*
X80319523Y-67127380D02*
X79748095Y-67127380D01*
X80033809Y-67127380D02*
X80033809Y-66127380D01*
X79938571Y-66270238D01*
X79843333Y-66365476D01*
X79748095Y-66413095D01*
X80652857Y-66127380D02*
X81271904Y-66127380D01*
X80938571Y-66508333D01*
X81081428Y-66508333D01*
X81176666Y-66555952D01*
X81224285Y-66603571D01*
X81271904Y-66698809D01*
X81271904Y-66936904D01*
X81224285Y-67032142D01*
X81176666Y-67079761D01*
X81081428Y-67127380D01*
X80795714Y-67127380D01*
X80700476Y-67079761D01*
X80652857Y-67032142D01*
X79330642Y-69699142D02*
X79283023Y-69746761D01*
X79140166Y-69794380D01*
X79044928Y-69794380D01*
X78902071Y-69746761D01*
X78806833Y-69651523D01*
X78759214Y-69556285D01*
X78711595Y-69365809D01*
X78711595Y-69222952D01*
X78759214Y-69032476D01*
X78806833Y-68937238D01*
X78902071Y-68842000D01*
X79044928Y-68794380D01*
X79140166Y-68794380D01*
X79283023Y-68842000D01*
X79330642Y-68889619D01*
X80283023Y-69794380D02*
X79711595Y-69794380D01*
X79997309Y-69794380D02*
X79997309Y-68794380D01*
X79902071Y-68937238D01*
X79806833Y-69032476D01*
X79711595Y-69080095D01*
X80663976Y-68889619D02*
X80711595Y-68842000D01*
X80806833Y-68794380D01*
X81044928Y-68794380D01*
X81140166Y-68842000D01*
X81187785Y-68889619D01*
X81235404Y-68984857D01*
X81235404Y-69080095D01*
X81187785Y-69222952D01*
X80616357Y-69794380D01*
X81235404Y-69794380D01*
X79367142Y-72366142D02*
X79319523Y-72413761D01*
X79176666Y-72461380D01*
X79081428Y-72461380D01*
X78938571Y-72413761D01*
X78843333Y-72318523D01*
X78795714Y-72223285D01*
X78748095Y-72032809D01*
X78748095Y-71889952D01*
X78795714Y-71699476D01*
X78843333Y-71604238D01*
X78938571Y-71509000D01*
X79081428Y-71461380D01*
X79176666Y-71461380D01*
X79319523Y-71509000D01*
X79367142Y-71556619D01*
X80319523Y-72461380D02*
X79748095Y-72461380D01*
X80033809Y-72461380D02*
X80033809Y-71461380D01*
X79938571Y-71604238D01*
X79843333Y-71699476D01*
X79748095Y-71747095D01*
X81271904Y-72461380D02*
X80700476Y-72461380D01*
X80986190Y-72461380D02*
X80986190Y-71461380D01*
X80890952Y-71604238D01*
X80795714Y-71699476D01*
X80700476Y-71747095D01*
X140835142Y-45823142D02*
X140787523Y-45870761D01*
X140644666Y-45918380D01*
X140549428Y-45918380D01*
X140406571Y-45870761D01*
X140311333Y-45775523D01*
X140263714Y-45680285D01*
X140216095Y-45489809D01*
X140216095Y-45346952D01*
X140263714Y-45156476D01*
X140311333Y-45061238D01*
X140406571Y-44966000D01*
X140549428Y-44918380D01*
X140644666Y-44918380D01*
X140787523Y-44966000D01*
X140835142Y-45013619D01*
X141787523Y-45918380D02*
X141216095Y-45918380D01*
X141501809Y-45918380D02*
X141501809Y-44918380D01*
X141406571Y-45061238D01*
X141311333Y-45156476D01*
X141216095Y-45204095D01*
X142406571Y-44918380D02*
X142501809Y-44918380D01*
X142597047Y-44966000D01*
X142644666Y-45013619D01*
X142692285Y-45108857D01*
X142739904Y-45299333D01*
X142739904Y-45537428D01*
X142692285Y-45727904D01*
X142644666Y-45823142D01*
X142597047Y-45870761D01*
X142501809Y-45918380D01*
X142406571Y-45918380D01*
X142311333Y-45870761D01*
X142263714Y-45823142D01*
X142216095Y-45727904D01*
X142168476Y-45537428D01*
X142168476Y-45299333D01*
X142216095Y-45108857D01*
X142263714Y-45013619D01*
X142311333Y-44966000D01*
X142406571Y-44918380D01*
X80351333Y-75033142D02*
X80303714Y-75080761D01*
X80160857Y-75128380D01*
X80065619Y-75128380D01*
X79922761Y-75080761D01*
X79827523Y-74985523D01*
X79779904Y-74890285D01*
X79732285Y-74699809D01*
X79732285Y-74556952D01*
X79779904Y-74366476D01*
X79827523Y-74271238D01*
X79922761Y-74176000D01*
X80065619Y-74128380D01*
X80160857Y-74128380D01*
X80303714Y-74176000D01*
X80351333Y-74223619D01*
X80827523Y-75128380D02*
X81018000Y-75128380D01*
X81113238Y-75080761D01*
X81160857Y-75033142D01*
X81256095Y-74890285D01*
X81303714Y-74699809D01*
X81303714Y-74318857D01*
X81256095Y-74223619D01*
X81208476Y-74176000D01*
X81113238Y-74128380D01*
X80922761Y-74128380D01*
X80827523Y-74176000D01*
X80779904Y-74223619D01*
X80732285Y-74318857D01*
X80732285Y-74556952D01*
X80779904Y-74652190D01*
X80827523Y-74699809D01*
X80922761Y-74747428D01*
X81113238Y-74747428D01*
X81208476Y-74699809D01*
X81256095Y-74652190D01*
X81303714Y-74556952D01*
X145392761Y-44593523D02*
X145440380Y-44450666D01*
X145440380Y-44212571D01*
X145392761Y-44117333D01*
X145345142Y-44069714D01*
X145249904Y-44022095D01*
X145154666Y-44022095D01*
X145059428Y-44069714D01*
X145011809Y-44117333D01*
X144964190Y-44212571D01*
X144916571Y-44403047D01*
X144868952Y-44498285D01*
X144821333Y-44545904D01*
X144726095Y-44593523D01*
X144630857Y-44593523D01*
X144535619Y-44545904D01*
X144488000Y-44498285D01*
X144440380Y-44403047D01*
X144440380Y-44164952D01*
X144488000Y-44022095D01*
X144440380Y-43688761D02*
X145440380Y-43450666D01*
X144726095Y-43260190D01*
X145440380Y-43069714D01*
X144440380Y-42831619D01*
X144440380Y-42545904D02*
X144440380Y-41926857D01*
X144821333Y-42260190D01*
X144821333Y-42117333D01*
X144868952Y-42022095D01*
X144916571Y-41974476D01*
X145011809Y-41926857D01*
X145249904Y-41926857D01*
X145345142Y-41974476D01*
X145392761Y-42022095D01*
X145440380Y-42117333D01*
X145440380Y-42403047D01*
X145392761Y-42498285D01*
X145345142Y-42545904D01*
X144868952Y-41355428D02*
X144821333Y-41450666D01*
X144773714Y-41498285D01*
X144678476Y-41545904D01*
X144630857Y-41545904D01*
X144535619Y-41498285D01*
X144488000Y-41450666D01*
X144440380Y-41355428D01*
X144440380Y-41164952D01*
X144488000Y-41069714D01*
X144535619Y-41022095D01*
X144630857Y-40974476D01*
X144678476Y-40974476D01*
X144773714Y-41022095D01*
X144821333Y-41069714D01*
X144868952Y-41164952D01*
X144868952Y-41355428D01*
X144916571Y-41450666D01*
X144964190Y-41498285D01*
X145059428Y-41545904D01*
X145249904Y-41545904D01*
X145345142Y-41498285D01*
X145392761Y-41450666D01*
X145440380Y-41355428D01*
X145440380Y-41164952D01*
X145392761Y-41069714D01*
X145345142Y-41022095D01*
X145249904Y-40974476D01*
X145059428Y-40974476D01*
X144964190Y-41022095D01*
X144916571Y-41069714D01*
X144868952Y-41164952D01*
X141708142Y-34456666D02*
X141755761Y-34504285D01*
X141803380Y-34647142D01*
X141803380Y-34742380D01*
X141755761Y-34885238D01*
X141660523Y-34980476D01*
X141565285Y-35028095D01*
X141374809Y-35075714D01*
X141231952Y-35075714D01*
X141041476Y-35028095D01*
X140946238Y-34980476D01*
X140851000Y-34885238D01*
X140803380Y-34742380D01*
X140803380Y-34647142D01*
X140851000Y-34504285D01*
X140898619Y-34456666D01*
X141231952Y-33885238D02*
X141184333Y-33980476D01*
X141136714Y-34028095D01*
X141041476Y-34075714D01*
X140993857Y-34075714D01*
X140898619Y-34028095D01*
X140851000Y-33980476D01*
X140803380Y-33885238D01*
X140803380Y-33694761D01*
X140851000Y-33599523D01*
X140898619Y-33551904D01*
X140993857Y-33504285D01*
X141041476Y-33504285D01*
X141136714Y-33551904D01*
X141184333Y-33599523D01*
X141231952Y-33694761D01*
X141231952Y-33885238D01*
X141279571Y-33980476D01*
X141327190Y-34028095D01*
X141422428Y-34075714D01*
X141612904Y-34075714D01*
X141708142Y-34028095D01*
X141755761Y-33980476D01*
X141803380Y-33885238D01*
X141803380Y-33694761D01*
X141755761Y-33599523D01*
X141708142Y-33551904D01*
X141612904Y-33504285D01*
X141422428Y-33504285D01*
X141327190Y-33551904D01*
X141279571Y-33599523D01*
X141231952Y-33694761D01*
X57776714Y-81225380D02*
X57776714Y-80225380D01*
X58014809Y-80225380D01*
X58157666Y-80273000D01*
X58252904Y-80368238D01*
X58300523Y-80463476D01*
X58348142Y-80653952D01*
X58348142Y-80796809D01*
X58300523Y-80987285D01*
X58252904Y-81082523D01*
X58157666Y-81177761D01*
X58014809Y-81225380D01*
X57776714Y-81225380D01*
X58729095Y-81177761D02*
X58871952Y-81225380D01*
X59110047Y-81225380D01*
X59205285Y-81177761D01*
X59252904Y-81130142D01*
X59300523Y-81034904D01*
X59300523Y-80939666D01*
X59252904Y-80844428D01*
X59205285Y-80796809D01*
X59110047Y-80749190D01*
X58919571Y-80701571D01*
X58824333Y-80653952D01*
X58776714Y-80606333D01*
X58729095Y-80511095D01*
X58729095Y-80415857D01*
X58776714Y-80320619D01*
X58824333Y-80273000D01*
X58919571Y-80225380D01*
X59157666Y-80225380D01*
X59300523Y-80273000D01*
X60252904Y-81225380D02*
X59681476Y-81225380D01*
X59967190Y-81225380D02*
X59967190Y-80225380D01*
X59871952Y-80368238D01*
X59776714Y-80463476D01*
X59681476Y-80511095D01*
X59523333Y-27662142D02*
X59475714Y-27709761D01*
X59332857Y-27757380D01*
X59237619Y-27757380D01*
X59094761Y-27709761D01*
X58999523Y-27614523D01*
X58951904Y-27519285D01*
X58904285Y-27328809D01*
X58904285Y-27185952D01*
X58951904Y-26995476D01*
X58999523Y-26900238D01*
X59094761Y-26805000D01*
X59237619Y-26757380D01*
X59332857Y-26757380D01*
X59475714Y-26805000D01*
X59523333Y-26852619D01*
X59856666Y-26757380D02*
X60523333Y-26757380D01*
X60094761Y-27757380D01*
X54891666Y-68210761D02*
X55034523Y-68258380D01*
X55272619Y-68258380D01*
X55367857Y-68210761D01*
X55415476Y-68163142D01*
X55463095Y-68067904D01*
X55463095Y-67972666D01*
X55415476Y-67877428D01*
X55367857Y-67829809D01*
X55272619Y-67782190D01*
X55082142Y-67734571D01*
X54986904Y-67686952D01*
X54939285Y-67639333D01*
X54891666Y-67544095D01*
X54891666Y-67448857D01*
X54939285Y-67353619D01*
X54986904Y-67306000D01*
X55082142Y-67258380D01*
X55320238Y-67258380D01*
X55463095Y-67306000D01*
X55796428Y-67258380D02*
X56034523Y-68258380D01*
X56225000Y-67544095D01*
X56415476Y-68258380D01*
X56653571Y-67258380D01*
X56986904Y-67353619D02*
X57034523Y-67306000D01*
X57129761Y-67258380D01*
X57367857Y-67258380D01*
X57463095Y-67306000D01*
X57510714Y-67353619D01*
X57558333Y-67448857D01*
X57558333Y-67544095D01*
X57510714Y-67686952D01*
X56939285Y-68258380D01*
X57558333Y-68258380D01*
X55689666Y-40028761D02*
X55832523Y-40076380D01*
X56070619Y-40076380D01*
X56165857Y-40028761D01*
X56213476Y-39981142D01*
X56261095Y-39885904D01*
X56261095Y-39790666D01*
X56213476Y-39695428D01*
X56165857Y-39647809D01*
X56070619Y-39600190D01*
X55880142Y-39552571D01*
X55784904Y-39504952D01*
X55737285Y-39457333D01*
X55689666Y-39362095D01*
X55689666Y-39266857D01*
X55737285Y-39171619D01*
X55784904Y-39124000D01*
X55880142Y-39076380D01*
X56118238Y-39076380D01*
X56261095Y-39124000D01*
X56594428Y-39076380D02*
X56832523Y-40076380D01*
X57023000Y-39362095D01*
X57213476Y-40076380D01*
X57451571Y-39076380D01*
X58356333Y-40076380D02*
X57784904Y-40076380D01*
X58070619Y-40076380D02*
X58070619Y-39076380D01*
X57975380Y-39219238D01*
X57880142Y-39314476D01*
X57784904Y-39362095D01*
X122940380Y-71045904D02*
X123749904Y-71045904D01*
X123845142Y-70998285D01*
X123892761Y-70950666D01*
X123940380Y-70855428D01*
X123940380Y-70664952D01*
X123892761Y-70569714D01*
X123845142Y-70522095D01*
X123749904Y-70474476D01*
X122940380Y-70474476D01*
X122940380Y-70093523D02*
X122940380Y-69474476D01*
X123321333Y-69807809D01*
X123321333Y-69664952D01*
X123368952Y-69569714D01*
X123416571Y-69522095D01*
X123511809Y-69474476D01*
X123749904Y-69474476D01*
X123845142Y-69522095D01*
X123892761Y-69569714D01*
X123940380Y-69664952D01*
X123940380Y-69950666D01*
X123892761Y-70045904D01*
X123845142Y-70093523D01*
X107266095Y-23078380D02*
X107266095Y-23887904D01*
X107313714Y-23983142D01*
X107361333Y-24030761D01*
X107456571Y-24078380D01*
X107647047Y-24078380D01*
X107742285Y-24030761D01*
X107789904Y-23983142D01*
X107837523Y-23887904D01*
X107837523Y-23078380D01*
X108837523Y-24078380D02*
X108266095Y-24078380D01*
X108551809Y-24078380D02*
X108551809Y-23078380D01*
X108456571Y-23221238D01*
X108361333Y-23316476D01*
X108266095Y-23364095D01*
X68238761Y-33218380D02*
X67905428Y-32742190D01*
X67667333Y-33218380D02*
X67667333Y-32218380D01*
X68048285Y-32218380D01*
X68143523Y-32266000D01*
X68191142Y-32313619D01*
X68238761Y-32408857D01*
X68238761Y-32551714D01*
X68191142Y-32646952D01*
X68143523Y-32694571D01*
X68048285Y-32742190D01*
X67667333Y-32742190D01*
X68524476Y-32218380D02*
X68857809Y-33218380D01*
X69191142Y-32218380D01*
X70048285Y-33218380D02*
X69476857Y-33218380D01*
X69762571Y-33218380D02*
X69762571Y-32218380D01*
X69667333Y-32361238D01*
X69572095Y-32456476D01*
X69476857Y-32504095D01*
X77160380Y-32170666D02*
X76684190Y-32504000D01*
X77160380Y-32742095D02*
X76160380Y-32742095D01*
X76160380Y-32361142D01*
X76208000Y-32265904D01*
X76255619Y-32218285D01*
X76350857Y-32170666D01*
X76493714Y-32170666D01*
X76588952Y-32218285D01*
X76636571Y-32265904D01*
X76684190Y-32361142D01*
X76684190Y-32742095D01*
X76493714Y-31313523D02*
X77160380Y-31313523D01*
X76112761Y-31551619D02*
X76827047Y-31789714D01*
X76827047Y-31170666D01*
X79446380Y-32170666D02*
X78970190Y-32504000D01*
X79446380Y-32742095D02*
X78446380Y-32742095D01*
X78446380Y-32361142D01*
X78494000Y-32265904D01*
X78541619Y-32218285D01*
X78636857Y-32170666D01*
X78779714Y-32170666D01*
X78874952Y-32218285D01*
X78922571Y-32265904D01*
X78970190Y-32361142D01*
X78970190Y-32742095D01*
X78446380Y-31837333D02*
X78446380Y-31218285D01*
X78827333Y-31551619D01*
X78827333Y-31408761D01*
X78874952Y-31313523D01*
X78922571Y-31265904D01*
X79017809Y-31218285D01*
X79255904Y-31218285D01*
X79351142Y-31265904D01*
X79398761Y-31313523D01*
X79446380Y-31408761D01*
X79446380Y-31694476D01*
X79398761Y-31789714D01*
X79351142Y-31837333D01*
X64603333Y-68016380D02*
X64270000Y-67540190D01*
X64031904Y-68016380D02*
X64031904Y-67016380D01*
X64412857Y-67016380D01*
X64508095Y-67064000D01*
X64555714Y-67111619D01*
X64603333Y-67206857D01*
X64603333Y-67349714D01*
X64555714Y-67444952D01*
X64508095Y-67492571D01*
X64412857Y-67540190D01*
X64031904Y-67540190D01*
X64984285Y-67111619D02*
X65031904Y-67064000D01*
X65127142Y-67016380D01*
X65365238Y-67016380D01*
X65460476Y-67064000D01*
X65508095Y-67111619D01*
X65555714Y-67206857D01*
X65555714Y-67302095D01*
X65508095Y-67444952D01*
X64936666Y-68016380D01*
X65555714Y-68016380D01*
X64603333Y-40076380D02*
X64270000Y-39600190D01*
X64031904Y-40076380D02*
X64031904Y-39076380D01*
X64412857Y-39076380D01*
X64508095Y-39124000D01*
X64555714Y-39171619D01*
X64603333Y-39266857D01*
X64603333Y-39409714D01*
X64555714Y-39504952D01*
X64508095Y-39552571D01*
X64412857Y-39600190D01*
X64031904Y-39600190D01*
X65555714Y-40076380D02*
X64984285Y-40076380D01*
X65270000Y-40076380D02*
X65270000Y-39076380D01*
X65174761Y-39219238D01*
X65079523Y-39314476D01*
X64984285Y-39362095D01*
X59654666Y-59986380D02*
X59654666Y-60700666D01*
X59607047Y-60843523D01*
X59511809Y-60938761D01*
X59368952Y-60986380D01*
X59273714Y-60986380D01*
X60654666Y-60986380D02*
X60083238Y-60986380D01*
X60368952Y-60986380D02*
X60368952Y-59986380D01*
X60273714Y-60129238D01*
X60178476Y-60224476D01*
X60083238Y-60272095D01*
X81071333Y-35141142D02*
X81023714Y-35188761D01*
X80880857Y-35236380D01*
X80785619Y-35236380D01*
X80642761Y-35188761D01*
X80547523Y-35093523D01*
X80499904Y-34998285D01*
X80452285Y-34807809D01*
X80452285Y-34664952D01*
X80499904Y-34474476D01*
X80547523Y-34379238D01*
X80642761Y-34284000D01*
X80785619Y-34236380D01*
X80880857Y-34236380D01*
X81023714Y-34284000D01*
X81071333Y-34331619D01*
X81928476Y-34236380D02*
X81738000Y-34236380D01*
X81642761Y-34284000D01*
X81595142Y-34331619D01*
X81499904Y-34474476D01*
X81452285Y-34664952D01*
X81452285Y-35045904D01*
X81499904Y-35141142D01*
X81547523Y-35188761D01*
X81642761Y-35236380D01*
X81833238Y-35236380D01*
X81928476Y-35188761D01*
X81976095Y-35141142D01*
X82023714Y-35045904D01*
X82023714Y-34807809D01*
X81976095Y-34712571D01*
X81928476Y-34664952D01*
X81833238Y-34617333D01*
X81642761Y-34617333D01*
X81547523Y-34664952D01*
X81499904Y-34712571D01*
X81452285Y-34807809D01*
X62321333Y-67891142D02*
X62273714Y-67938761D01*
X62130857Y-67986380D01*
X62035619Y-67986380D01*
X61892761Y-67938761D01*
X61797523Y-67843523D01*
X61749904Y-67748285D01*
X61702285Y-67557809D01*
X61702285Y-67414952D01*
X61749904Y-67224476D01*
X61797523Y-67129238D01*
X61892761Y-67034000D01*
X62035619Y-66986380D01*
X62130857Y-66986380D01*
X62273714Y-67034000D01*
X62321333Y-67081619D01*
X62702285Y-67081619D02*
X62749904Y-67034000D01*
X62845142Y-66986380D01*
X63083238Y-66986380D01*
X63178476Y-67034000D01*
X63226095Y-67081619D01*
X63273714Y-67176857D01*
X63273714Y-67272095D01*
X63226095Y-67414952D01*
X62654666Y-67986380D01*
X63273714Y-67986380D01*
X62071333Y-39891142D02*
X62023714Y-39938761D01*
X61880857Y-39986380D01*
X61785619Y-39986380D01*
X61642761Y-39938761D01*
X61547523Y-39843523D01*
X61499904Y-39748285D01*
X61452285Y-39557809D01*
X61452285Y-39414952D01*
X61499904Y-39224476D01*
X61547523Y-39129238D01*
X61642761Y-39034000D01*
X61785619Y-38986380D01*
X61880857Y-38986380D01*
X62023714Y-39034000D01*
X62071333Y-39081619D01*
X63023714Y-39986380D02*
X62452285Y-39986380D01*
X62738000Y-39986380D02*
X62738000Y-38986380D01*
X62642761Y-39129238D01*
X62547523Y-39224476D01*
X62452285Y-39272095D01*
M02*
