G04 #@! TF.GenerationSoftware,KiCad,Pcbnew,(5.1.6)-1*
G04 #@! TF.CreationDate,2020-08-25T11:11:56+02:00*
G04 #@! TF.ProjectId,projet,70726f6a-6574-42e6-9b69-6361645f7063,rev?*
G04 #@! TF.SameCoordinates,Original*
G04 #@! TF.FileFunction,Paste,Top*
G04 #@! TF.FilePolarity,Positive*
%FSLAX46Y46*%
G04 Gerber Fmt 4.6, Leading zero omitted, Abs format (unit mm)*
G04 Created by KiCad (PCBNEW (5.1.6)-1) date 2020-08-25 11:11:56*
%MOMM*%
%LPD*%
G01*
G04 APERTURE LIST*
%ADD10R,0.240000X0.600000*%
%ADD11R,1.900000X0.800000*%
%ADD12R,1.825000X2.200000*%
%ADD13R,0.900000X2.000000*%
%ADD14R,2.000000X0.900000*%
%ADD15R,5.000000X5.000000*%
%ADD16R,2.000000X1.300000*%
%ADD17R,2.000000X2.000000*%
G04 APERTURE END LIST*
D10*
X113456000Y-55248000D03*
X112956000Y-55248000D03*
X112456000Y-55248000D03*
X111956000Y-55248000D03*
X111456000Y-55248000D03*
X111456000Y-52448000D03*
X111956000Y-52448000D03*
X112456000Y-52448000D03*
X112956000Y-52448000D03*
X113456000Y-52448000D03*
G36*
G01*
X110781000Y-53973000D02*
X111071000Y-53973000D01*
G75*
G02*
X111096000Y-53998000I0J-25000D01*
G01*
X111096000Y-54198000D01*
G75*
G02*
X111071000Y-54223000I-25000J0D01*
G01*
X110781000Y-54223000D01*
G75*
G02*
X110756000Y-54198000I0J25000D01*
G01*
X110756000Y-53998000D01*
G75*
G02*
X110781000Y-53973000I25000J0D01*
G01*
G37*
G36*
G01*
X110781000Y-53473000D02*
X111071000Y-53473000D01*
G75*
G02*
X111096000Y-53498000I0J-25000D01*
G01*
X111096000Y-53698000D01*
G75*
G02*
X111071000Y-53723000I-25000J0D01*
G01*
X110781000Y-53723000D01*
G75*
G02*
X110756000Y-53698000I0J25000D01*
G01*
X110756000Y-53498000D01*
G75*
G02*
X110781000Y-53473000I25000J0D01*
G01*
G37*
G36*
G01*
X113841000Y-53973000D02*
X114131000Y-53973000D01*
G75*
G02*
X114156000Y-53998000I0J-25000D01*
G01*
X114156000Y-54198000D01*
G75*
G02*
X114131000Y-54223000I-25000J0D01*
G01*
X113841000Y-54223000D01*
G75*
G02*
X113816000Y-54198000I0J25000D01*
G01*
X113816000Y-53998000D01*
G75*
G02*
X113841000Y-53973000I25000J0D01*
G01*
G37*
G36*
G01*
X113841000Y-53473000D02*
X114131000Y-53473000D01*
G75*
G02*
X114156000Y-53498000I0J-25000D01*
G01*
X114156000Y-53698000D01*
G75*
G02*
X114131000Y-53723000I-25000J0D01*
G01*
X113841000Y-53723000D01*
G75*
G02*
X113816000Y-53698000I0J25000D01*
G01*
X113816000Y-53498000D01*
G75*
G02*
X113841000Y-53473000I25000J0D01*
G01*
G37*
G36*
G01*
X112662000Y-53098000D02*
X113510000Y-53098000D01*
G75*
G02*
X113616000Y-53204000I0J-106000D01*
G01*
X113616000Y-54492000D01*
G75*
G02*
X113510000Y-54598000I-106000J0D01*
G01*
X112662000Y-54598000D01*
G75*
G02*
X112556000Y-54492000I0J106000D01*
G01*
X112556000Y-53204000D01*
G75*
G02*
X112662000Y-53098000I106000J0D01*
G01*
G37*
G36*
G01*
X111402000Y-53098000D02*
X112250000Y-53098000D01*
G75*
G02*
X112356000Y-53204000I0J-106000D01*
G01*
X112356000Y-54492000D01*
G75*
G02*
X112250000Y-54598000I-106000J0D01*
G01*
X111402000Y-54598000D01*
G75*
G02*
X111296000Y-54492000I0J106000D01*
G01*
X111296000Y-53204000D01*
G75*
G02*
X111402000Y-53098000I106000J0D01*
G01*
G37*
G36*
G01*
X143139000Y-29640500D02*
X144389000Y-29640500D01*
G75*
G02*
X144639000Y-29890500I0J-250000D01*
G01*
X144639000Y-30815500D01*
G75*
G02*
X144389000Y-31065500I-250000J0D01*
G01*
X143139000Y-31065500D01*
G75*
G02*
X142889000Y-30815500I0J250000D01*
G01*
X142889000Y-29890500D01*
G75*
G02*
X143139000Y-29640500I250000J0D01*
G01*
G37*
G36*
G01*
X143139000Y-26665500D02*
X144389000Y-26665500D01*
G75*
G02*
X144639000Y-26915500I0J-250000D01*
G01*
X144639000Y-27840500D01*
G75*
G02*
X144389000Y-28090500I-250000J0D01*
G01*
X143139000Y-28090500D01*
G75*
G02*
X142889000Y-27840500I0J250000D01*
G01*
X142889000Y-26915500D01*
G75*
G02*
X143139000Y-26665500I250000J0D01*
G01*
G37*
G36*
G01*
X83716000Y-29395000D02*
X83416000Y-29395000D01*
G75*
G02*
X83266000Y-29245000I0J150000D01*
G01*
X83266000Y-27495000D01*
G75*
G02*
X83416000Y-27345000I150000J0D01*
G01*
X83716000Y-27345000D01*
G75*
G02*
X83866000Y-27495000I0J-150000D01*
G01*
X83866000Y-29245000D01*
G75*
G02*
X83716000Y-29395000I-150000J0D01*
G01*
G37*
G36*
G01*
X84986000Y-29395000D02*
X84686000Y-29395000D01*
G75*
G02*
X84536000Y-29245000I0J150000D01*
G01*
X84536000Y-27495000D01*
G75*
G02*
X84686000Y-27345000I150000J0D01*
G01*
X84986000Y-27345000D01*
G75*
G02*
X85136000Y-27495000I0J-150000D01*
G01*
X85136000Y-29245000D01*
G75*
G02*
X84986000Y-29395000I-150000J0D01*
G01*
G37*
G36*
G01*
X86256000Y-29395000D02*
X85956000Y-29395000D01*
G75*
G02*
X85806000Y-29245000I0J150000D01*
G01*
X85806000Y-27495000D01*
G75*
G02*
X85956000Y-27345000I150000J0D01*
G01*
X86256000Y-27345000D01*
G75*
G02*
X86406000Y-27495000I0J-150000D01*
G01*
X86406000Y-29245000D01*
G75*
G02*
X86256000Y-29395000I-150000J0D01*
G01*
G37*
G36*
G01*
X87526000Y-29395000D02*
X87226000Y-29395000D01*
G75*
G02*
X87076000Y-29245000I0J150000D01*
G01*
X87076000Y-27495000D01*
G75*
G02*
X87226000Y-27345000I150000J0D01*
G01*
X87526000Y-27345000D01*
G75*
G02*
X87676000Y-27495000I0J-150000D01*
G01*
X87676000Y-29245000D01*
G75*
G02*
X87526000Y-29395000I-150000J0D01*
G01*
G37*
G36*
G01*
X88796000Y-29395000D02*
X88496000Y-29395000D01*
G75*
G02*
X88346000Y-29245000I0J150000D01*
G01*
X88346000Y-27495000D01*
G75*
G02*
X88496000Y-27345000I150000J0D01*
G01*
X88796000Y-27345000D01*
G75*
G02*
X88946000Y-27495000I0J-150000D01*
G01*
X88946000Y-29245000D01*
G75*
G02*
X88796000Y-29395000I-150000J0D01*
G01*
G37*
G36*
G01*
X90066000Y-29395000D02*
X89766000Y-29395000D01*
G75*
G02*
X89616000Y-29245000I0J150000D01*
G01*
X89616000Y-27495000D01*
G75*
G02*
X89766000Y-27345000I150000J0D01*
G01*
X90066000Y-27345000D01*
G75*
G02*
X90216000Y-27495000I0J-150000D01*
G01*
X90216000Y-29245000D01*
G75*
G02*
X90066000Y-29395000I-150000J0D01*
G01*
G37*
G36*
G01*
X91336000Y-29395000D02*
X91036000Y-29395000D01*
G75*
G02*
X90886000Y-29245000I0J150000D01*
G01*
X90886000Y-27495000D01*
G75*
G02*
X91036000Y-27345000I150000J0D01*
G01*
X91336000Y-27345000D01*
G75*
G02*
X91486000Y-27495000I0J-150000D01*
G01*
X91486000Y-29245000D01*
G75*
G02*
X91336000Y-29395000I-150000J0D01*
G01*
G37*
G36*
G01*
X92606000Y-29395000D02*
X92306000Y-29395000D01*
G75*
G02*
X92156000Y-29245000I0J150000D01*
G01*
X92156000Y-27495000D01*
G75*
G02*
X92306000Y-27345000I150000J0D01*
G01*
X92606000Y-27345000D01*
G75*
G02*
X92756000Y-27495000I0J-150000D01*
G01*
X92756000Y-29245000D01*
G75*
G02*
X92606000Y-29395000I-150000J0D01*
G01*
G37*
G36*
G01*
X92606000Y-38695000D02*
X92306000Y-38695000D01*
G75*
G02*
X92156000Y-38545000I0J150000D01*
G01*
X92156000Y-36795000D01*
G75*
G02*
X92306000Y-36645000I150000J0D01*
G01*
X92606000Y-36645000D01*
G75*
G02*
X92756000Y-36795000I0J-150000D01*
G01*
X92756000Y-38545000D01*
G75*
G02*
X92606000Y-38695000I-150000J0D01*
G01*
G37*
G36*
G01*
X91336000Y-38695000D02*
X91036000Y-38695000D01*
G75*
G02*
X90886000Y-38545000I0J150000D01*
G01*
X90886000Y-36795000D01*
G75*
G02*
X91036000Y-36645000I150000J0D01*
G01*
X91336000Y-36645000D01*
G75*
G02*
X91486000Y-36795000I0J-150000D01*
G01*
X91486000Y-38545000D01*
G75*
G02*
X91336000Y-38695000I-150000J0D01*
G01*
G37*
G36*
G01*
X90066000Y-38695000D02*
X89766000Y-38695000D01*
G75*
G02*
X89616000Y-38545000I0J150000D01*
G01*
X89616000Y-36795000D01*
G75*
G02*
X89766000Y-36645000I150000J0D01*
G01*
X90066000Y-36645000D01*
G75*
G02*
X90216000Y-36795000I0J-150000D01*
G01*
X90216000Y-38545000D01*
G75*
G02*
X90066000Y-38695000I-150000J0D01*
G01*
G37*
G36*
G01*
X88796000Y-38695000D02*
X88496000Y-38695000D01*
G75*
G02*
X88346000Y-38545000I0J150000D01*
G01*
X88346000Y-36795000D01*
G75*
G02*
X88496000Y-36645000I150000J0D01*
G01*
X88796000Y-36645000D01*
G75*
G02*
X88946000Y-36795000I0J-150000D01*
G01*
X88946000Y-38545000D01*
G75*
G02*
X88796000Y-38695000I-150000J0D01*
G01*
G37*
G36*
G01*
X87526000Y-38695000D02*
X87226000Y-38695000D01*
G75*
G02*
X87076000Y-38545000I0J150000D01*
G01*
X87076000Y-36795000D01*
G75*
G02*
X87226000Y-36645000I150000J0D01*
G01*
X87526000Y-36645000D01*
G75*
G02*
X87676000Y-36795000I0J-150000D01*
G01*
X87676000Y-38545000D01*
G75*
G02*
X87526000Y-38695000I-150000J0D01*
G01*
G37*
G36*
G01*
X86256000Y-38695000D02*
X85956000Y-38695000D01*
G75*
G02*
X85806000Y-38545000I0J150000D01*
G01*
X85806000Y-36795000D01*
G75*
G02*
X85956000Y-36645000I150000J0D01*
G01*
X86256000Y-36645000D01*
G75*
G02*
X86406000Y-36795000I0J-150000D01*
G01*
X86406000Y-38545000D01*
G75*
G02*
X86256000Y-38695000I-150000J0D01*
G01*
G37*
G36*
G01*
X84986000Y-38695000D02*
X84686000Y-38695000D01*
G75*
G02*
X84536000Y-38545000I0J150000D01*
G01*
X84536000Y-36795000D01*
G75*
G02*
X84686000Y-36645000I150000J0D01*
G01*
X84986000Y-36645000D01*
G75*
G02*
X85136000Y-36795000I0J-150000D01*
G01*
X85136000Y-38545000D01*
G75*
G02*
X84986000Y-38695000I-150000J0D01*
G01*
G37*
G36*
G01*
X83716000Y-38695000D02*
X83416000Y-38695000D01*
G75*
G02*
X83266000Y-38545000I0J150000D01*
G01*
X83266000Y-36795000D01*
G75*
G02*
X83416000Y-36645000I150000J0D01*
G01*
X83716000Y-36645000D01*
G75*
G02*
X83866000Y-36795000I0J-150000D01*
G01*
X83866000Y-38545000D01*
G75*
G02*
X83716000Y-38695000I-150000J0D01*
G01*
G37*
G36*
G01*
X103304500Y-29641500D02*
X102054500Y-29641500D01*
G75*
G02*
X101804500Y-29391500I0J250000D01*
G01*
X101804500Y-28466500D01*
G75*
G02*
X102054500Y-28216500I250000J0D01*
G01*
X103304500Y-28216500D01*
G75*
G02*
X103554500Y-28466500I0J-250000D01*
G01*
X103554500Y-29391500D01*
G75*
G02*
X103304500Y-29641500I-250000J0D01*
G01*
G37*
G36*
G01*
X103304500Y-32616500D02*
X102054500Y-32616500D01*
G75*
G02*
X101804500Y-32366500I0J250000D01*
G01*
X101804500Y-31441500D01*
G75*
G02*
X102054500Y-31191500I250000J0D01*
G01*
X103304500Y-31191500D01*
G75*
G02*
X103554500Y-31441500I0J-250000D01*
G01*
X103554500Y-32366500D01*
G75*
G02*
X103304500Y-32616500I-250000J0D01*
G01*
G37*
G36*
G01*
X100129500Y-29605000D02*
X98879500Y-29605000D01*
G75*
G02*
X98629500Y-29355000I0J250000D01*
G01*
X98629500Y-28430000D01*
G75*
G02*
X98879500Y-28180000I250000J0D01*
G01*
X100129500Y-28180000D01*
G75*
G02*
X100379500Y-28430000I0J-250000D01*
G01*
X100379500Y-29355000D01*
G75*
G02*
X100129500Y-29605000I-250000J0D01*
G01*
G37*
G36*
G01*
X100129500Y-32580000D02*
X98879500Y-32580000D01*
G75*
G02*
X98629500Y-32330000I0J250000D01*
G01*
X98629500Y-31405000D01*
G75*
G02*
X98879500Y-31155000I250000J0D01*
G01*
X100129500Y-31155000D01*
G75*
G02*
X100379500Y-31405000I0J-250000D01*
G01*
X100379500Y-32330000D01*
G75*
G02*
X100129500Y-32580000I-250000J0D01*
G01*
G37*
D11*
X102592000Y-34734500D03*
X99592000Y-35684500D03*
X99592000Y-33784500D03*
D12*
X114081000Y-50038000D03*
X111506000Y-50038000D03*
G36*
G01*
X114730500Y-58537000D02*
X114730500Y-57287000D01*
G75*
G02*
X114980500Y-57037000I250000J0D01*
G01*
X115905500Y-57037000D01*
G75*
G02*
X116155500Y-57287000I0J-250000D01*
G01*
X116155500Y-58537000D01*
G75*
G02*
X115905500Y-58787000I-250000J0D01*
G01*
X114980500Y-58787000D01*
G75*
G02*
X114730500Y-58537000I0J250000D01*
G01*
G37*
G36*
G01*
X111755500Y-58537000D02*
X111755500Y-57287000D01*
G75*
G02*
X112005500Y-57037000I250000J0D01*
G01*
X112930500Y-57037000D01*
G75*
G02*
X113180500Y-57287000I0J-250000D01*
G01*
X113180500Y-58537000D01*
G75*
G02*
X112930500Y-58787000I-250000J0D01*
G01*
X112005500Y-58787000D01*
G75*
G02*
X111755500Y-58537000I0J250000D01*
G01*
G37*
G36*
G01*
X105016000Y-51699000D02*
X105016000Y-52949000D01*
G75*
G02*
X104766000Y-53199000I-250000J0D01*
G01*
X103841000Y-53199000D01*
G75*
G02*
X103591000Y-52949000I0J250000D01*
G01*
X103591000Y-51699000D01*
G75*
G02*
X103841000Y-51449000I250000J0D01*
G01*
X104766000Y-51449000D01*
G75*
G02*
X105016000Y-51699000I0J-250000D01*
G01*
G37*
G36*
G01*
X107991000Y-51699000D02*
X107991000Y-52949000D01*
G75*
G02*
X107741000Y-53199000I-250000J0D01*
G01*
X106816000Y-53199000D01*
G75*
G02*
X106566000Y-52949000I0J250000D01*
G01*
X106566000Y-51699000D01*
G75*
G02*
X106816000Y-51449000I250000J0D01*
G01*
X107741000Y-51449000D01*
G75*
G02*
X107991000Y-51699000I0J-250000D01*
G01*
G37*
G36*
G01*
X63730500Y-30216000D02*
X63730500Y-28966000D01*
G75*
G02*
X63980500Y-28716000I250000J0D01*
G01*
X64905500Y-28716000D01*
G75*
G02*
X65155500Y-28966000I0J-250000D01*
G01*
X65155500Y-30216000D01*
G75*
G02*
X64905500Y-30466000I-250000J0D01*
G01*
X63980500Y-30466000D01*
G75*
G02*
X63730500Y-30216000I0J250000D01*
G01*
G37*
G36*
G01*
X60755500Y-30216000D02*
X60755500Y-28966000D01*
G75*
G02*
X61005500Y-28716000I250000J0D01*
G01*
X61930500Y-28716000D01*
G75*
G02*
X62180500Y-28966000I0J-250000D01*
G01*
X62180500Y-30216000D01*
G75*
G02*
X61930500Y-30466000I-250000J0D01*
G01*
X61005500Y-30466000D01*
G75*
G02*
X60755500Y-30216000I0J250000D01*
G01*
G37*
G36*
G01*
X90818000Y-56632000D02*
X90818000Y-55382000D01*
G75*
G02*
X91068000Y-55132000I250000J0D01*
G01*
X91993000Y-55132000D01*
G75*
G02*
X92243000Y-55382000I0J-250000D01*
G01*
X92243000Y-56632000D01*
G75*
G02*
X91993000Y-56882000I-250000J0D01*
G01*
X91068000Y-56882000D01*
G75*
G02*
X90818000Y-56632000I0J250000D01*
G01*
G37*
G36*
G01*
X87843000Y-56632000D02*
X87843000Y-55382000D01*
G75*
G02*
X88093000Y-55132000I250000J0D01*
G01*
X89018000Y-55132000D01*
G75*
G02*
X89268000Y-55382000I0J-250000D01*
G01*
X89268000Y-56632000D01*
G75*
G02*
X89018000Y-56882000I-250000J0D01*
G01*
X88093000Y-56882000D01*
G75*
G02*
X87843000Y-56632000I0J250000D01*
G01*
G37*
G36*
G01*
X90818000Y-59299000D02*
X90818000Y-58049000D01*
G75*
G02*
X91068000Y-57799000I250000J0D01*
G01*
X91993000Y-57799000D01*
G75*
G02*
X92243000Y-58049000I0J-250000D01*
G01*
X92243000Y-59299000D01*
G75*
G02*
X91993000Y-59549000I-250000J0D01*
G01*
X91068000Y-59549000D01*
G75*
G02*
X90818000Y-59299000I0J250000D01*
G01*
G37*
G36*
G01*
X87843000Y-59299000D02*
X87843000Y-58049000D01*
G75*
G02*
X88093000Y-57799000I250000J0D01*
G01*
X89018000Y-57799000D01*
G75*
G02*
X89268000Y-58049000I0J-250000D01*
G01*
X89268000Y-59299000D01*
G75*
G02*
X89018000Y-59549000I-250000J0D01*
G01*
X88093000Y-59549000D01*
G75*
G02*
X87843000Y-59299000I0J250000D01*
G01*
G37*
G36*
G01*
X90818000Y-61966000D02*
X90818000Y-60716000D01*
G75*
G02*
X91068000Y-60466000I250000J0D01*
G01*
X91993000Y-60466000D01*
G75*
G02*
X92243000Y-60716000I0J-250000D01*
G01*
X92243000Y-61966000D01*
G75*
G02*
X91993000Y-62216000I-250000J0D01*
G01*
X91068000Y-62216000D01*
G75*
G02*
X90818000Y-61966000I0J250000D01*
G01*
G37*
G36*
G01*
X87843000Y-61966000D02*
X87843000Y-60716000D01*
G75*
G02*
X88093000Y-60466000I250000J0D01*
G01*
X89018000Y-60466000D01*
G75*
G02*
X89268000Y-60716000I0J-250000D01*
G01*
X89268000Y-61966000D01*
G75*
G02*
X89018000Y-62216000I-250000J0D01*
G01*
X88093000Y-62216000D01*
G75*
G02*
X87843000Y-61966000I0J250000D01*
G01*
G37*
G36*
G01*
X90818000Y-64633000D02*
X90818000Y-63383000D01*
G75*
G02*
X91068000Y-63133000I250000J0D01*
G01*
X91993000Y-63133000D01*
G75*
G02*
X92243000Y-63383000I0J-250000D01*
G01*
X92243000Y-64633000D01*
G75*
G02*
X91993000Y-64883000I-250000J0D01*
G01*
X91068000Y-64883000D01*
G75*
G02*
X90818000Y-64633000I0J250000D01*
G01*
G37*
G36*
G01*
X87843000Y-64633000D02*
X87843000Y-63383000D01*
G75*
G02*
X88093000Y-63133000I250000J0D01*
G01*
X89018000Y-63133000D01*
G75*
G02*
X89268000Y-63383000I0J-250000D01*
G01*
X89268000Y-64633000D01*
G75*
G02*
X89018000Y-64883000I-250000J0D01*
G01*
X88093000Y-64883000D01*
G75*
G02*
X87843000Y-64633000I0J250000D01*
G01*
G37*
G36*
G01*
X90818000Y-67300000D02*
X90818000Y-66050000D01*
G75*
G02*
X91068000Y-65800000I250000J0D01*
G01*
X91993000Y-65800000D01*
G75*
G02*
X92243000Y-66050000I0J-250000D01*
G01*
X92243000Y-67300000D01*
G75*
G02*
X91993000Y-67550000I-250000J0D01*
G01*
X91068000Y-67550000D01*
G75*
G02*
X90818000Y-67300000I0J250000D01*
G01*
G37*
G36*
G01*
X87843000Y-67300000D02*
X87843000Y-66050000D01*
G75*
G02*
X88093000Y-65800000I250000J0D01*
G01*
X89018000Y-65800000D01*
G75*
G02*
X89268000Y-66050000I0J-250000D01*
G01*
X89268000Y-67300000D01*
G75*
G02*
X89018000Y-67550000I-250000J0D01*
G01*
X88093000Y-67550000D01*
G75*
G02*
X87843000Y-67300000I0J250000D01*
G01*
G37*
G36*
G01*
X90818000Y-69967000D02*
X90818000Y-68717000D01*
G75*
G02*
X91068000Y-68467000I250000J0D01*
G01*
X91993000Y-68467000D01*
G75*
G02*
X92243000Y-68717000I0J-250000D01*
G01*
X92243000Y-69967000D01*
G75*
G02*
X91993000Y-70217000I-250000J0D01*
G01*
X91068000Y-70217000D01*
G75*
G02*
X90818000Y-69967000I0J250000D01*
G01*
G37*
G36*
G01*
X87843000Y-69967000D02*
X87843000Y-68717000D01*
G75*
G02*
X88093000Y-68467000I250000J0D01*
G01*
X89018000Y-68467000D01*
G75*
G02*
X89268000Y-68717000I0J-250000D01*
G01*
X89268000Y-69967000D01*
G75*
G02*
X89018000Y-70217000I-250000J0D01*
G01*
X88093000Y-70217000D01*
G75*
G02*
X87843000Y-69967000I0J250000D01*
G01*
G37*
G36*
G01*
X144389000Y-35964500D02*
X143139000Y-35964500D01*
G75*
G02*
X142889000Y-35714500I0J250000D01*
G01*
X142889000Y-34789500D01*
G75*
G02*
X143139000Y-34539500I250000J0D01*
G01*
X144389000Y-34539500D01*
G75*
G02*
X144639000Y-34789500I0J-250000D01*
G01*
X144639000Y-35714500D01*
G75*
G02*
X144389000Y-35964500I-250000J0D01*
G01*
G37*
G36*
G01*
X144389000Y-38939500D02*
X143139000Y-38939500D01*
G75*
G02*
X142889000Y-38689500I0J250000D01*
G01*
X142889000Y-37764500D01*
G75*
G02*
X143139000Y-37514500I250000J0D01*
G01*
X144389000Y-37514500D01*
G75*
G02*
X144639000Y-37764500I0J-250000D01*
G01*
X144639000Y-38689500D01*
G75*
G02*
X144389000Y-38939500I-250000J0D01*
G01*
G37*
G36*
G01*
X90818000Y-72634000D02*
X90818000Y-71384000D01*
G75*
G02*
X91068000Y-71134000I250000J0D01*
G01*
X91993000Y-71134000D01*
G75*
G02*
X92243000Y-71384000I0J-250000D01*
G01*
X92243000Y-72634000D01*
G75*
G02*
X91993000Y-72884000I-250000J0D01*
G01*
X91068000Y-72884000D01*
G75*
G02*
X90818000Y-72634000I0J250000D01*
G01*
G37*
G36*
G01*
X87843000Y-72634000D02*
X87843000Y-71384000D01*
G75*
G02*
X88093000Y-71134000I250000J0D01*
G01*
X89018000Y-71134000D01*
G75*
G02*
X89268000Y-71384000I0J-250000D01*
G01*
X89268000Y-72634000D01*
G75*
G02*
X89018000Y-72884000I-250000J0D01*
G01*
X88093000Y-72884000D01*
G75*
G02*
X87843000Y-72634000I0J250000D01*
G01*
G37*
G36*
G01*
X84595000Y-59299000D02*
X84595000Y-58049000D01*
G75*
G02*
X84845000Y-57799000I250000J0D01*
G01*
X85770000Y-57799000D01*
G75*
G02*
X86020000Y-58049000I0J-250000D01*
G01*
X86020000Y-59299000D01*
G75*
G02*
X85770000Y-59549000I-250000J0D01*
G01*
X84845000Y-59549000D01*
G75*
G02*
X84595000Y-59299000I0J250000D01*
G01*
G37*
G36*
G01*
X81620000Y-59299000D02*
X81620000Y-58049000D01*
G75*
G02*
X81870000Y-57799000I250000J0D01*
G01*
X82795000Y-57799000D01*
G75*
G02*
X83045000Y-58049000I0J-250000D01*
G01*
X83045000Y-59299000D01*
G75*
G02*
X82795000Y-59549000I-250000J0D01*
G01*
X81870000Y-59549000D01*
G75*
G02*
X81620000Y-59299000I0J250000D01*
G01*
G37*
G36*
G01*
X84595000Y-61966000D02*
X84595000Y-60716000D01*
G75*
G02*
X84845000Y-60466000I250000J0D01*
G01*
X85770000Y-60466000D01*
G75*
G02*
X86020000Y-60716000I0J-250000D01*
G01*
X86020000Y-61966000D01*
G75*
G02*
X85770000Y-62216000I-250000J0D01*
G01*
X84845000Y-62216000D01*
G75*
G02*
X84595000Y-61966000I0J250000D01*
G01*
G37*
G36*
G01*
X81620000Y-61966000D02*
X81620000Y-60716000D01*
G75*
G02*
X81870000Y-60466000I250000J0D01*
G01*
X82795000Y-60466000D01*
G75*
G02*
X83045000Y-60716000I0J-250000D01*
G01*
X83045000Y-61966000D01*
G75*
G02*
X82795000Y-62216000I-250000J0D01*
G01*
X81870000Y-62216000D01*
G75*
G02*
X81620000Y-61966000I0J250000D01*
G01*
G37*
G36*
G01*
X84595000Y-64633000D02*
X84595000Y-63383000D01*
G75*
G02*
X84845000Y-63133000I250000J0D01*
G01*
X85770000Y-63133000D01*
G75*
G02*
X86020000Y-63383000I0J-250000D01*
G01*
X86020000Y-64633000D01*
G75*
G02*
X85770000Y-64883000I-250000J0D01*
G01*
X84845000Y-64883000D01*
G75*
G02*
X84595000Y-64633000I0J250000D01*
G01*
G37*
G36*
G01*
X81620000Y-64633000D02*
X81620000Y-63383000D01*
G75*
G02*
X81870000Y-63133000I250000J0D01*
G01*
X82795000Y-63133000D01*
G75*
G02*
X83045000Y-63383000I0J-250000D01*
G01*
X83045000Y-64633000D01*
G75*
G02*
X82795000Y-64883000I-250000J0D01*
G01*
X81870000Y-64883000D01*
G75*
G02*
X81620000Y-64633000I0J250000D01*
G01*
G37*
G36*
G01*
X84595000Y-67300000D02*
X84595000Y-66050000D01*
G75*
G02*
X84845000Y-65800000I250000J0D01*
G01*
X85770000Y-65800000D01*
G75*
G02*
X86020000Y-66050000I0J-250000D01*
G01*
X86020000Y-67300000D01*
G75*
G02*
X85770000Y-67550000I-250000J0D01*
G01*
X84845000Y-67550000D01*
G75*
G02*
X84595000Y-67300000I0J250000D01*
G01*
G37*
G36*
G01*
X81620000Y-67300000D02*
X81620000Y-66050000D01*
G75*
G02*
X81870000Y-65800000I250000J0D01*
G01*
X82795000Y-65800000D01*
G75*
G02*
X83045000Y-66050000I0J-250000D01*
G01*
X83045000Y-67300000D01*
G75*
G02*
X82795000Y-67550000I-250000J0D01*
G01*
X81870000Y-67550000D01*
G75*
G02*
X81620000Y-67300000I0J250000D01*
G01*
G37*
G36*
G01*
X84595000Y-69967000D02*
X84595000Y-68717000D01*
G75*
G02*
X84845000Y-68467000I250000J0D01*
G01*
X85770000Y-68467000D01*
G75*
G02*
X86020000Y-68717000I0J-250000D01*
G01*
X86020000Y-69967000D01*
G75*
G02*
X85770000Y-70217000I-250000J0D01*
G01*
X84845000Y-70217000D01*
G75*
G02*
X84595000Y-69967000I0J250000D01*
G01*
G37*
G36*
G01*
X81620000Y-69967000D02*
X81620000Y-68717000D01*
G75*
G02*
X81870000Y-68467000I250000J0D01*
G01*
X82795000Y-68467000D01*
G75*
G02*
X83045000Y-68717000I0J-250000D01*
G01*
X83045000Y-69967000D01*
G75*
G02*
X82795000Y-70217000I-250000J0D01*
G01*
X81870000Y-70217000D01*
G75*
G02*
X81620000Y-69967000I0J250000D01*
G01*
G37*
G36*
G01*
X84595000Y-72634000D02*
X84595000Y-71384000D01*
G75*
G02*
X84845000Y-71134000I250000J0D01*
G01*
X85770000Y-71134000D01*
G75*
G02*
X86020000Y-71384000I0J-250000D01*
G01*
X86020000Y-72634000D01*
G75*
G02*
X85770000Y-72884000I-250000J0D01*
G01*
X84845000Y-72884000D01*
G75*
G02*
X84595000Y-72634000I0J250000D01*
G01*
G37*
G36*
G01*
X81620000Y-72634000D02*
X81620000Y-71384000D01*
G75*
G02*
X81870000Y-71134000I250000J0D01*
G01*
X82795000Y-71134000D01*
G75*
G02*
X83045000Y-71384000I0J-250000D01*
G01*
X83045000Y-72634000D01*
G75*
G02*
X82795000Y-72884000I-250000J0D01*
G01*
X81870000Y-72884000D01*
G75*
G02*
X81620000Y-72634000I0J250000D01*
G01*
G37*
G36*
G01*
X140853000Y-49198500D02*
X142103000Y-49198500D01*
G75*
G02*
X142353000Y-49448500I0J-250000D01*
G01*
X142353000Y-50373500D01*
G75*
G02*
X142103000Y-50623500I-250000J0D01*
G01*
X140853000Y-50623500D01*
G75*
G02*
X140603000Y-50373500I0J250000D01*
G01*
X140603000Y-49448500D01*
G75*
G02*
X140853000Y-49198500I250000J0D01*
G01*
G37*
G36*
G01*
X140853000Y-46223500D02*
X142103000Y-46223500D01*
G75*
G02*
X142353000Y-46473500I0J-250000D01*
G01*
X142353000Y-47398500D01*
G75*
G02*
X142103000Y-47648500I-250000J0D01*
G01*
X140853000Y-47648500D01*
G75*
G02*
X140603000Y-47398500I0J250000D01*
G01*
X140603000Y-46473500D01*
G75*
G02*
X140853000Y-46223500I250000J0D01*
G01*
G37*
G36*
G01*
X84595000Y-75301000D02*
X84595000Y-74051000D01*
G75*
G02*
X84845000Y-73801000I250000J0D01*
G01*
X85770000Y-73801000D01*
G75*
G02*
X86020000Y-74051000I0J-250000D01*
G01*
X86020000Y-75301000D01*
G75*
G02*
X85770000Y-75551000I-250000J0D01*
G01*
X84845000Y-75551000D01*
G75*
G02*
X84595000Y-75301000I0J250000D01*
G01*
G37*
G36*
G01*
X81620000Y-75301000D02*
X81620000Y-74051000D01*
G75*
G02*
X81870000Y-73801000I250000J0D01*
G01*
X82795000Y-73801000D01*
G75*
G02*
X83045000Y-74051000I0J-250000D01*
G01*
X83045000Y-75301000D01*
G75*
G02*
X82795000Y-75551000I-250000J0D01*
G01*
X81870000Y-75551000D01*
G75*
G02*
X81620000Y-75301000I0J250000D01*
G01*
G37*
G36*
G01*
X141976000Y-36907500D02*
X140726000Y-36907500D01*
G75*
G02*
X140476000Y-36657500I0J250000D01*
G01*
X140476000Y-35732500D01*
G75*
G02*
X140726000Y-35482500I250000J0D01*
G01*
X141976000Y-35482500D01*
G75*
G02*
X142226000Y-35732500I0J-250000D01*
G01*
X142226000Y-36657500D01*
G75*
G02*
X141976000Y-36907500I-250000J0D01*
G01*
G37*
G36*
G01*
X141976000Y-39882500D02*
X140726000Y-39882500D01*
G75*
G02*
X140476000Y-39632500I0J250000D01*
G01*
X140476000Y-38707500D01*
G75*
G02*
X140726000Y-38457500I250000J0D01*
G01*
X141976000Y-38457500D01*
G75*
G02*
X142226000Y-38707500I0J-250000D01*
G01*
X142226000Y-39632500D01*
G75*
G02*
X141976000Y-39882500I-250000J0D01*
G01*
G37*
G36*
G01*
X63730500Y-27930000D02*
X63730500Y-26680000D01*
G75*
G02*
X63980500Y-26430000I250000J0D01*
G01*
X64905500Y-26430000D01*
G75*
G02*
X65155500Y-26680000I0J-250000D01*
G01*
X65155500Y-27930000D01*
G75*
G02*
X64905500Y-28180000I-250000J0D01*
G01*
X63980500Y-28180000D01*
G75*
G02*
X63730500Y-27930000I0J250000D01*
G01*
G37*
G36*
G01*
X60755500Y-27930000D02*
X60755500Y-26680000D01*
G75*
G02*
X61005500Y-26430000I250000J0D01*
G01*
X61930500Y-26430000D01*
G75*
G02*
X62180500Y-26680000I0J-250000D01*
G01*
X62180500Y-27930000D01*
G75*
G02*
X61930500Y-28180000I-250000J0D01*
G01*
X61005500Y-28180000D01*
G75*
G02*
X60755500Y-27930000I0J250000D01*
G01*
G37*
D13*
X142743000Y-70784000D03*
X141473000Y-70784000D03*
X140203000Y-70784000D03*
X138933000Y-70784000D03*
X137663000Y-70784000D03*
X136393000Y-70784000D03*
X135123000Y-70784000D03*
X133853000Y-70784000D03*
X132583000Y-70784000D03*
X131313000Y-70784000D03*
X130043000Y-70784000D03*
X128773000Y-70784000D03*
X127503000Y-70784000D03*
X126233000Y-70784000D03*
D14*
X125233000Y-67999000D03*
X125233000Y-66729000D03*
X125233000Y-65459000D03*
X125233000Y-64189000D03*
X125233000Y-62919000D03*
X125233000Y-61649000D03*
X125233000Y-60379000D03*
X125233000Y-59109000D03*
X125233000Y-57839000D03*
X125233000Y-56569000D03*
D13*
X126233000Y-53784000D03*
X127503000Y-53784000D03*
X128773000Y-53784000D03*
X130043000Y-53784000D03*
X131313000Y-53784000D03*
X132583000Y-53784000D03*
X133853000Y-53784000D03*
X135123000Y-53784000D03*
X136393000Y-53784000D03*
X137663000Y-53784000D03*
X138933000Y-53784000D03*
X140203000Y-53784000D03*
X141473000Y-53784000D03*
X142743000Y-53784000D03*
D15*
X135243000Y-61284000D03*
D16*
X70738000Y-30684000D03*
D17*
X66738000Y-29534000D03*
D16*
X70738000Y-28384000D03*
G36*
G01*
X77333000Y-27927000D02*
X76083000Y-27927000D01*
G75*
G02*
X75833000Y-27677000I0J250000D01*
G01*
X75833000Y-26752000D01*
G75*
G02*
X76083000Y-26502000I250000J0D01*
G01*
X77333000Y-26502000D01*
G75*
G02*
X77583000Y-26752000I0J-250000D01*
G01*
X77583000Y-27677000D01*
G75*
G02*
X77333000Y-27927000I-250000J0D01*
G01*
G37*
G36*
G01*
X77333000Y-30902000D02*
X76083000Y-30902000D01*
G75*
G02*
X75833000Y-30652000I0J250000D01*
G01*
X75833000Y-29727000D01*
G75*
G02*
X76083000Y-29477000I250000J0D01*
G01*
X77333000Y-29477000D01*
G75*
G02*
X77583000Y-29727000I0J-250000D01*
G01*
X77583000Y-30652000D01*
G75*
G02*
X77333000Y-30902000I-250000J0D01*
G01*
G37*
G36*
G01*
X79619000Y-27963500D02*
X78369000Y-27963500D01*
G75*
G02*
X78119000Y-27713500I0J250000D01*
G01*
X78119000Y-26788500D01*
G75*
G02*
X78369000Y-26538500I250000J0D01*
G01*
X79619000Y-26538500D01*
G75*
G02*
X79869000Y-26788500I0J-250000D01*
G01*
X79869000Y-27713500D01*
G75*
G02*
X79619000Y-27963500I-250000J0D01*
G01*
G37*
G36*
G01*
X79619000Y-30938500D02*
X78369000Y-30938500D01*
G75*
G02*
X78119000Y-30688500I0J250000D01*
G01*
X78119000Y-29763500D01*
G75*
G02*
X78369000Y-29513500I250000J0D01*
G01*
X79619000Y-29513500D01*
G75*
G02*
X79869000Y-29763500I0J-250000D01*
G01*
X79869000Y-30688500D01*
G75*
G02*
X79619000Y-30938500I-250000J0D01*
G01*
G37*
G36*
G01*
X64145000Y-65327500D02*
X65395000Y-65327500D01*
G75*
G02*
X65645000Y-65577500I0J-250000D01*
G01*
X65645000Y-66502500D01*
G75*
G02*
X65395000Y-66752500I-250000J0D01*
G01*
X64145000Y-66752500D01*
G75*
G02*
X63895000Y-66502500I0J250000D01*
G01*
X63895000Y-65577500D01*
G75*
G02*
X64145000Y-65327500I250000J0D01*
G01*
G37*
G36*
G01*
X64145000Y-62352500D02*
X65395000Y-62352500D01*
G75*
G02*
X65645000Y-62602500I0J-250000D01*
G01*
X65645000Y-63527500D01*
G75*
G02*
X65395000Y-63777500I-250000J0D01*
G01*
X64145000Y-63777500D01*
G75*
G02*
X63895000Y-63527500I0J250000D01*
G01*
X63895000Y-62602500D01*
G75*
G02*
X64145000Y-62352500I250000J0D01*
G01*
G37*
G36*
G01*
X65395000Y-41897000D02*
X64145000Y-41897000D01*
G75*
G02*
X63895000Y-41647000I0J250000D01*
G01*
X63895000Y-40722000D01*
G75*
G02*
X64145000Y-40472000I250000J0D01*
G01*
X65395000Y-40472000D01*
G75*
G02*
X65645000Y-40722000I0J-250000D01*
G01*
X65645000Y-41647000D01*
G75*
G02*
X65395000Y-41897000I-250000J0D01*
G01*
G37*
G36*
G01*
X65395000Y-44872000D02*
X64145000Y-44872000D01*
G75*
G02*
X63895000Y-44622000I0J250000D01*
G01*
X63895000Y-43697000D01*
G75*
G02*
X64145000Y-43447000I250000J0D01*
G01*
X65395000Y-43447000D01*
G75*
G02*
X65645000Y-43697000I0J-250000D01*
G01*
X65645000Y-44622000D01*
G75*
G02*
X65395000Y-44872000I-250000J0D01*
G01*
G37*
G36*
G01*
X81863000Y-30996500D02*
X80613000Y-30996500D01*
G75*
G02*
X80363000Y-30746500I0J250000D01*
G01*
X80363000Y-29821500D01*
G75*
G02*
X80613000Y-29571500I250000J0D01*
G01*
X81863000Y-29571500D01*
G75*
G02*
X82113000Y-29821500I0J-250000D01*
G01*
X82113000Y-30746500D01*
G75*
G02*
X81863000Y-30996500I-250000J0D01*
G01*
G37*
G36*
G01*
X81863000Y-33971500D02*
X80613000Y-33971500D01*
G75*
G02*
X80363000Y-33721500I0J250000D01*
G01*
X80363000Y-32796500D01*
G75*
G02*
X80613000Y-32546500I250000J0D01*
G01*
X81863000Y-32546500D01*
G75*
G02*
X82113000Y-32796500I0J-250000D01*
G01*
X82113000Y-33721500D01*
G75*
G02*
X81863000Y-33971500I-250000J0D01*
G01*
G37*
G36*
G01*
X61863000Y-65296500D02*
X63113000Y-65296500D01*
G75*
G02*
X63363000Y-65546500I0J-250000D01*
G01*
X63363000Y-66471500D01*
G75*
G02*
X63113000Y-66721500I-250000J0D01*
G01*
X61863000Y-66721500D01*
G75*
G02*
X61613000Y-66471500I0J250000D01*
G01*
X61613000Y-65546500D01*
G75*
G02*
X61863000Y-65296500I250000J0D01*
G01*
G37*
G36*
G01*
X61863000Y-62321500D02*
X63113000Y-62321500D01*
G75*
G02*
X63363000Y-62571500I0J-250000D01*
G01*
X63363000Y-63496500D01*
G75*
G02*
X63113000Y-63746500I-250000J0D01*
G01*
X61863000Y-63746500D01*
G75*
G02*
X61613000Y-63496500I0J250000D01*
G01*
X61613000Y-62571500D01*
G75*
G02*
X61863000Y-62321500I250000J0D01*
G01*
G37*
G36*
G01*
X63113000Y-41746500D02*
X61863000Y-41746500D01*
G75*
G02*
X61613000Y-41496500I0J250000D01*
G01*
X61613000Y-40571500D01*
G75*
G02*
X61863000Y-40321500I250000J0D01*
G01*
X63113000Y-40321500D01*
G75*
G02*
X63363000Y-40571500I0J-250000D01*
G01*
X63363000Y-41496500D01*
G75*
G02*
X63113000Y-41746500I-250000J0D01*
G01*
G37*
G36*
G01*
X63113000Y-44721500D02*
X61863000Y-44721500D01*
G75*
G02*
X61613000Y-44471500I0J250000D01*
G01*
X61613000Y-43546500D01*
G75*
G02*
X61863000Y-43296500I250000J0D01*
G01*
X63113000Y-43296500D01*
G75*
G02*
X63363000Y-43546500I0J-250000D01*
G01*
X63363000Y-44471500D01*
G75*
G02*
X63113000Y-44721500I-250000J0D01*
G01*
G37*
M02*
