G04 #@! TF.GenerationSoftware,KiCad,Pcbnew,(5.1.2)-1*
G04 #@! TF.CreationDate,2020-06-29T09:09:19+02:00*
G04 #@! TF.ProjectId,projet,70726f6a-6574-42e6-9b69-6361645f7063,rev?*
G04 #@! TF.SameCoordinates,Original*
G04 #@! TF.FileFunction,Paste,Bot*
G04 #@! TF.FilePolarity,Positive*
%FSLAX46Y46*%
G04 Gerber Fmt 4.6, Leading zero omitted, Abs format (unit mm)*
G04 Created by KiCad (PCBNEW (5.1.2)-1) date 2020-06-29 09:09:19*
%MOMM*%
%LPD*%
G04 APERTURE LIST*
%ADD10C,0.100000*%
%ADD11C,1.425000*%
%ADD12R,0.800000X1.900000*%
%ADD13C,0.950000*%
G04 APERTURE END LIST*
D10*
G36*
X99547004Y-90058204D02*
G01*
X99571273Y-90061804D01*
X99595071Y-90067765D01*
X99618171Y-90076030D01*
X99640349Y-90086520D01*
X99661393Y-90099133D01*
X99681098Y-90113747D01*
X99699277Y-90130223D01*
X99715753Y-90148402D01*
X99730367Y-90168107D01*
X99742980Y-90189151D01*
X99753470Y-90211329D01*
X99761735Y-90234429D01*
X99767696Y-90258227D01*
X99771296Y-90282496D01*
X99772500Y-90307000D01*
X99772500Y-91557000D01*
X99771296Y-91581504D01*
X99767696Y-91605773D01*
X99761735Y-91629571D01*
X99753470Y-91652671D01*
X99742980Y-91674849D01*
X99730367Y-91695893D01*
X99715753Y-91715598D01*
X99699277Y-91733777D01*
X99681098Y-91750253D01*
X99661393Y-91764867D01*
X99640349Y-91777480D01*
X99618171Y-91787970D01*
X99595071Y-91796235D01*
X99571273Y-91802196D01*
X99547004Y-91805796D01*
X99522500Y-91807000D01*
X98597500Y-91807000D01*
X98572996Y-91805796D01*
X98548727Y-91802196D01*
X98524929Y-91796235D01*
X98501829Y-91787970D01*
X98479651Y-91777480D01*
X98458607Y-91764867D01*
X98438902Y-91750253D01*
X98420723Y-91733777D01*
X98404247Y-91715598D01*
X98389633Y-91695893D01*
X98377020Y-91674849D01*
X98366530Y-91652671D01*
X98358265Y-91629571D01*
X98352304Y-91605773D01*
X98348704Y-91581504D01*
X98347500Y-91557000D01*
X98347500Y-90307000D01*
X98348704Y-90282496D01*
X98352304Y-90258227D01*
X98358265Y-90234429D01*
X98366530Y-90211329D01*
X98377020Y-90189151D01*
X98389633Y-90168107D01*
X98404247Y-90148402D01*
X98420723Y-90130223D01*
X98438902Y-90113747D01*
X98458607Y-90099133D01*
X98479651Y-90086520D01*
X98501829Y-90076030D01*
X98524929Y-90067765D01*
X98548727Y-90061804D01*
X98572996Y-90058204D01*
X98597500Y-90057000D01*
X99522500Y-90057000D01*
X99547004Y-90058204D01*
X99547004Y-90058204D01*
G37*
D11*
X99060000Y-90932000D03*
D10*
G36*
X96572004Y-90058204D02*
G01*
X96596273Y-90061804D01*
X96620071Y-90067765D01*
X96643171Y-90076030D01*
X96665349Y-90086520D01*
X96686393Y-90099133D01*
X96706098Y-90113747D01*
X96724277Y-90130223D01*
X96740753Y-90148402D01*
X96755367Y-90168107D01*
X96767980Y-90189151D01*
X96778470Y-90211329D01*
X96786735Y-90234429D01*
X96792696Y-90258227D01*
X96796296Y-90282496D01*
X96797500Y-90307000D01*
X96797500Y-91557000D01*
X96796296Y-91581504D01*
X96792696Y-91605773D01*
X96786735Y-91629571D01*
X96778470Y-91652671D01*
X96767980Y-91674849D01*
X96755367Y-91695893D01*
X96740753Y-91715598D01*
X96724277Y-91733777D01*
X96706098Y-91750253D01*
X96686393Y-91764867D01*
X96665349Y-91777480D01*
X96643171Y-91787970D01*
X96620071Y-91796235D01*
X96596273Y-91802196D01*
X96572004Y-91805796D01*
X96547500Y-91807000D01*
X95622500Y-91807000D01*
X95597996Y-91805796D01*
X95573727Y-91802196D01*
X95549929Y-91796235D01*
X95526829Y-91787970D01*
X95504651Y-91777480D01*
X95483607Y-91764867D01*
X95463902Y-91750253D01*
X95445723Y-91733777D01*
X95429247Y-91715598D01*
X95414633Y-91695893D01*
X95402020Y-91674849D01*
X95391530Y-91652671D01*
X95383265Y-91629571D01*
X95377304Y-91605773D01*
X95373704Y-91581504D01*
X95372500Y-91557000D01*
X95372500Y-90307000D01*
X95373704Y-90282496D01*
X95377304Y-90258227D01*
X95383265Y-90234429D01*
X95391530Y-90211329D01*
X95402020Y-90189151D01*
X95414633Y-90168107D01*
X95429247Y-90148402D01*
X95445723Y-90130223D01*
X95463902Y-90113747D01*
X95483607Y-90099133D01*
X95504651Y-90086520D01*
X95526829Y-90076030D01*
X95549929Y-90067765D01*
X95573727Y-90061804D01*
X95597996Y-90058204D01*
X95622500Y-90057000D01*
X96547500Y-90057000D01*
X96572004Y-90058204D01*
X96572004Y-90058204D01*
G37*
D11*
X96085000Y-90932000D03*
D10*
G36*
X91177004Y-85734204D02*
G01*
X91201273Y-85737804D01*
X91225071Y-85743765D01*
X91248171Y-85752030D01*
X91270349Y-85762520D01*
X91291393Y-85775133D01*
X91311098Y-85789747D01*
X91329277Y-85806223D01*
X91345753Y-85824402D01*
X91360367Y-85844107D01*
X91372980Y-85865151D01*
X91383470Y-85887329D01*
X91391735Y-85910429D01*
X91397696Y-85934227D01*
X91401296Y-85958496D01*
X91402500Y-85983000D01*
X91402500Y-87233000D01*
X91401296Y-87257504D01*
X91397696Y-87281773D01*
X91391735Y-87305571D01*
X91383470Y-87328671D01*
X91372980Y-87350849D01*
X91360367Y-87371893D01*
X91345753Y-87391598D01*
X91329277Y-87409777D01*
X91311098Y-87426253D01*
X91291393Y-87440867D01*
X91270349Y-87453480D01*
X91248171Y-87463970D01*
X91225071Y-87472235D01*
X91201273Y-87478196D01*
X91177004Y-87481796D01*
X91152500Y-87483000D01*
X90227500Y-87483000D01*
X90202996Y-87481796D01*
X90178727Y-87478196D01*
X90154929Y-87472235D01*
X90131829Y-87463970D01*
X90109651Y-87453480D01*
X90088607Y-87440867D01*
X90068902Y-87426253D01*
X90050723Y-87409777D01*
X90034247Y-87391598D01*
X90019633Y-87371893D01*
X90007020Y-87350849D01*
X89996530Y-87328671D01*
X89988265Y-87305571D01*
X89982304Y-87281773D01*
X89978704Y-87257504D01*
X89977500Y-87233000D01*
X89977500Y-85983000D01*
X89978704Y-85958496D01*
X89982304Y-85934227D01*
X89988265Y-85910429D01*
X89996530Y-85887329D01*
X90007020Y-85865151D01*
X90019633Y-85844107D01*
X90034247Y-85824402D01*
X90050723Y-85806223D01*
X90068902Y-85789747D01*
X90088607Y-85775133D01*
X90109651Y-85762520D01*
X90131829Y-85752030D01*
X90154929Y-85743765D01*
X90178727Y-85737804D01*
X90202996Y-85734204D01*
X90227500Y-85733000D01*
X91152500Y-85733000D01*
X91177004Y-85734204D01*
X91177004Y-85734204D01*
G37*
D11*
X90690000Y-86608000D03*
D10*
G36*
X88202004Y-85734204D02*
G01*
X88226273Y-85737804D01*
X88250071Y-85743765D01*
X88273171Y-85752030D01*
X88295349Y-85762520D01*
X88316393Y-85775133D01*
X88336098Y-85789747D01*
X88354277Y-85806223D01*
X88370753Y-85824402D01*
X88385367Y-85844107D01*
X88397980Y-85865151D01*
X88408470Y-85887329D01*
X88416735Y-85910429D01*
X88422696Y-85934227D01*
X88426296Y-85958496D01*
X88427500Y-85983000D01*
X88427500Y-87233000D01*
X88426296Y-87257504D01*
X88422696Y-87281773D01*
X88416735Y-87305571D01*
X88408470Y-87328671D01*
X88397980Y-87350849D01*
X88385367Y-87371893D01*
X88370753Y-87391598D01*
X88354277Y-87409777D01*
X88336098Y-87426253D01*
X88316393Y-87440867D01*
X88295349Y-87453480D01*
X88273171Y-87463970D01*
X88250071Y-87472235D01*
X88226273Y-87478196D01*
X88202004Y-87481796D01*
X88177500Y-87483000D01*
X87252500Y-87483000D01*
X87227996Y-87481796D01*
X87203727Y-87478196D01*
X87179929Y-87472235D01*
X87156829Y-87463970D01*
X87134651Y-87453480D01*
X87113607Y-87440867D01*
X87093902Y-87426253D01*
X87075723Y-87409777D01*
X87059247Y-87391598D01*
X87044633Y-87371893D01*
X87032020Y-87350849D01*
X87021530Y-87328671D01*
X87013265Y-87305571D01*
X87007304Y-87281773D01*
X87003704Y-87257504D01*
X87002500Y-87233000D01*
X87002500Y-85983000D01*
X87003704Y-85958496D01*
X87007304Y-85934227D01*
X87013265Y-85910429D01*
X87021530Y-85887329D01*
X87032020Y-85865151D01*
X87044633Y-85844107D01*
X87059247Y-85824402D01*
X87075723Y-85806223D01*
X87093902Y-85789747D01*
X87113607Y-85775133D01*
X87134651Y-85762520D01*
X87156829Y-85752030D01*
X87179929Y-85743765D01*
X87203727Y-85737804D01*
X87227996Y-85734204D01*
X87252500Y-85733000D01*
X88177500Y-85733000D01*
X88202004Y-85734204D01*
X88202004Y-85734204D01*
G37*
D11*
X87715000Y-86608000D03*
D10*
G36*
X136213504Y-90058204D02*
G01*
X136237773Y-90061804D01*
X136261571Y-90067765D01*
X136284671Y-90076030D01*
X136306849Y-90086520D01*
X136327893Y-90099133D01*
X136347598Y-90113747D01*
X136365777Y-90130223D01*
X136382253Y-90148402D01*
X136396867Y-90168107D01*
X136409480Y-90189151D01*
X136419970Y-90211329D01*
X136428235Y-90234429D01*
X136434196Y-90258227D01*
X136437796Y-90282496D01*
X136439000Y-90307000D01*
X136439000Y-91557000D01*
X136437796Y-91581504D01*
X136434196Y-91605773D01*
X136428235Y-91629571D01*
X136419970Y-91652671D01*
X136409480Y-91674849D01*
X136396867Y-91695893D01*
X136382253Y-91715598D01*
X136365777Y-91733777D01*
X136347598Y-91750253D01*
X136327893Y-91764867D01*
X136306849Y-91777480D01*
X136284671Y-91787970D01*
X136261571Y-91796235D01*
X136237773Y-91802196D01*
X136213504Y-91805796D01*
X136189000Y-91807000D01*
X135264000Y-91807000D01*
X135239496Y-91805796D01*
X135215227Y-91802196D01*
X135191429Y-91796235D01*
X135168329Y-91787970D01*
X135146151Y-91777480D01*
X135125107Y-91764867D01*
X135105402Y-91750253D01*
X135087223Y-91733777D01*
X135070747Y-91715598D01*
X135056133Y-91695893D01*
X135043520Y-91674849D01*
X135033030Y-91652671D01*
X135024765Y-91629571D01*
X135018804Y-91605773D01*
X135015204Y-91581504D01*
X135014000Y-91557000D01*
X135014000Y-90307000D01*
X135015204Y-90282496D01*
X135018804Y-90258227D01*
X135024765Y-90234429D01*
X135033030Y-90211329D01*
X135043520Y-90189151D01*
X135056133Y-90168107D01*
X135070747Y-90148402D01*
X135087223Y-90130223D01*
X135105402Y-90113747D01*
X135125107Y-90099133D01*
X135146151Y-90086520D01*
X135168329Y-90076030D01*
X135191429Y-90067765D01*
X135215227Y-90061804D01*
X135239496Y-90058204D01*
X135264000Y-90057000D01*
X136189000Y-90057000D01*
X136213504Y-90058204D01*
X136213504Y-90058204D01*
G37*
D11*
X135726500Y-90932000D03*
D10*
G36*
X133238504Y-90058204D02*
G01*
X133262773Y-90061804D01*
X133286571Y-90067765D01*
X133309671Y-90076030D01*
X133331849Y-90086520D01*
X133352893Y-90099133D01*
X133372598Y-90113747D01*
X133390777Y-90130223D01*
X133407253Y-90148402D01*
X133421867Y-90168107D01*
X133434480Y-90189151D01*
X133444970Y-90211329D01*
X133453235Y-90234429D01*
X133459196Y-90258227D01*
X133462796Y-90282496D01*
X133464000Y-90307000D01*
X133464000Y-91557000D01*
X133462796Y-91581504D01*
X133459196Y-91605773D01*
X133453235Y-91629571D01*
X133444970Y-91652671D01*
X133434480Y-91674849D01*
X133421867Y-91695893D01*
X133407253Y-91715598D01*
X133390777Y-91733777D01*
X133372598Y-91750253D01*
X133352893Y-91764867D01*
X133331849Y-91777480D01*
X133309671Y-91787970D01*
X133286571Y-91796235D01*
X133262773Y-91802196D01*
X133238504Y-91805796D01*
X133214000Y-91807000D01*
X132289000Y-91807000D01*
X132264496Y-91805796D01*
X132240227Y-91802196D01*
X132216429Y-91796235D01*
X132193329Y-91787970D01*
X132171151Y-91777480D01*
X132150107Y-91764867D01*
X132130402Y-91750253D01*
X132112223Y-91733777D01*
X132095747Y-91715598D01*
X132081133Y-91695893D01*
X132068520Y-91674849D01*
X132058030Y-91652671D01*
X132049765Y-91629571D01*
X132043804Y-91605773D01*
X132040204Y-91581504D01*
X132039000Y-91557000D01*
X132039000Y-90307000D01*
X132040204Y-90282496D01*
X132043804Y-90258227D01*
X132049765Y-90234429D01*
X132058030Y-90211329D01*
X132068520Y-90189151D01*
X132081133Y-90168107D01*
X132095747Y-90148402D01*
X132112223Y-90130223D01*
X132130402Y-90113747D01*
X132150107Y-90099133D01*
X132171151Y-90086520D01*
X132193329Y-90076030D01*
X132216429Y-90067765D01*
X132240227Y-90061804D01*
X132264496Y-90058204D01*
X132289000Y-90057000D01*
X133214000Y-90057000D01*
X133238504Y-90058204D01*
X133238504Y-90058204D01*
G37*
D11*
X132751500Y-90932000D03*
D10*
G36*
X127264504Y-85226204D02*
G01*
X127288773Y-85229804D01*
X127312571Y-85235765D01*
X127335671Y-85244030D01*
X127357849Y-85254520D01*
X127378893Y-85267133D01*
X127398598Y-85281747D01*
X127416777Y-85298223D01*
X127433253Y-85316402D01*
X127447867Y-85336107D01*
X127460480Y-85357151D01*
X127470970Y-85379329D01*
X127479235Y-85402429D01*
X127485196Y-85426227D01*
X127488796Y-85450496D01*
X127490000Y-85475000D01*
X127490000Y-86725000D01*
X127488796Y-86749504D01*
X127485196Y-86773773D01*
X127479235Y-86797571D01*
X127470970Y-86820671D01*
X127460480Y-86842849D01*
X127447867Y-86863893D01*
X127433253Y-86883598D01*
X127416777Y-86901777D01*
X127398598Y-86918253D01*
X127378893Y-86932867D01*
X127357849Y-86945480D01*
X127335671Y-86955970D01*
X127312571Y-86964235D01*
X127288773Y-86970196D01*
X127264504Y-86973796D01*
X127240000Y-86975000D01*
X126315000Y-86975000D01*
X126290496Y-86973796D01*
X126266227Y-86970196D01*
X126242429Y-86964235D01*
X126219329Y-86955970D01*
X126197151Y-86945480D01*
X126176107Y-86932867D01*
X126156402Y-86918253D01*
X126138223Y-86901777D01*
X126121747Y-86883598D01*
X126107133Y-86863893D01*
X126094520Y-86842849D01*
X126084030Y-86820671D01*
X126075765Y-86797571D01*
X126069804Y-86773773D01*
X126066204Y-86749504D01*
X126065000Y-86725000D01*
X126065000Y-85475000D01*
X126066204Y-85450496D01*
X126069804Y-85426227D01*
X126075765Y-85402429D01*
X126084030Y-85379329D01*
X126094520Y-85357151D01*
X126107133Y-85336107D01*
X126121747Y-85316402D01*
X126138223Y-85298223D01*
X126156402Y-85281747D01*
X126176107Y-85267133D01*
X126197151Y-85254520D01*
X126219329Y-85244030D01*
X126242429Y-85235765D01*
X126266227Y-85229804D01*
X126290496Y-85226204D01*
X126315000Y-85225000D01*
X127240000Y-85225000D01*
X127264504Y-85226204D01*
X127264504Y-85226204D01*
G37*
D11*
X126777500Y-86100000D03*
D10*
G36*
X124289504Y-85226204D02*
G01*
X124313773Y-85229804D01*
X124337571Y-85235765D01*
X124360671Y-85244030D01*
X124382849Y-85254520D01*
X124403893Y-85267133D01*
X124423598Y-85281747D01*
X124441777Y-85298223D01*
X124458253Y-85316402D01*
X124472867Y-85336107D01*
X124485480Y-85357151D01*
X124495970Y-85379329D01*
X124504235Y-85402429D01*
X124510196Y-85426227D01*
X124513796Y-85450496D01*
X124515000Y-85475000D01*
X124515000Y-86725000D01*
X124513796Y-86749504D01*
X124510196Y-86773773D01*
X124504235Y-86797571D01*
X124495970Y-86820671D01*
X124485480Y-86842849D01*
X124472867Y-86863893D01*
X124458253Y-86883598D01*
X124441777Y-86901777D01*
X124423598Y-86918253D01*
X124403893Y-86932867D01*
X124382849Y-86945480D01*
X124360671Y-86955970D01*
X124337571Y-86964235D01*
X124313773Y-86970196D01*
X124289504Y-86973796D01*
X124265000Y-86975000D01*
X123340000Y-86975000D01*
X123315496Y-86973796D01*
X123291227Y-86970196D01*
X123267429Y-86964235D01*
X123244329Y-86955970D01*
X123222151Y-86945480D01*
X123201107Y-86932867D01*
X123181402Y-86918253D01*
X123163223Y-86901777D01*
X123146747Y-86883598D01*
X123132133Y-86863893D01*
X123119520Y-86842849D01*
X123109030Y-86820671D01*
X123100765Y-86797571D01*
X123094804Y-86773773D01*
X123091204Y-86749504D01*
X123090000Y-86725000D01*
X123090000Y-85475000D01*
X123091204Y-85450496D01*
X123094804Y-85426227D01*
X123100765Y-85402429D01*
X123109030Y-85379329D01*
X123119520Y-85357151D01*
X123132133Y-85336107D01*
X123146747Y-85316402D01*
X123163223Y-85298223D01*
X123181402Y-85281747D01*
X123201107Y-85267133D01*
X123222151Y-85254520D01*
X123244329Y-85244030D01*
X123267429Y-85235765D01*
X123291227Y-85229804D01*
X123315496Y-85226204D01*
X123340000Y-85225000D01*
X124265000Y-85225000D01*
X124289504Y-85226204D01*
X124289504Y-85226204D01*
G37*
D11*
X123802500Y-86100000D03*
D10*
G36*
X82783004Y-90185204D02*
G01*
X82807273Y-90188804D01*
X82831071Y-90194765D01*
X82854171Y-90203030D01*
X82876349Y-90213520D01*
X82897393Y-90226133D01*
X82917098Y-90240747D01*
X82935277Y-90257223D01*
X82951753Y-90275402D01*
X82966367Y-90295107D01*
X82978980Y-90316151D01*
X82989470Y-90338329D01*
X82997735Y-90361429D01*
X83003696Y-90385227D01*
X83007296Y-90409496D01*
X83008500Y-90434000D01*
X83008500Y-91684000D01*
X83007296Y-91708504D01*
X83003696Y-91732773D01*
X82997735Y-91756571D01*
X82989470Y-91779671D01*
X82978980Y-91801849D01*
X82966367Y-91822893D01*
X82951753Y-91842598D01*
X82935277Y-91860777D01*
X82917098Y-91877253D01*
X82897393Y-91891867D01*
X82876349Y-91904480D01*
X82854171Y-91914970D01*
X82831071Y-91923235D01*
X82807273Y-91929196D01*
X82783004Y-91932796D01*
X82758500Y-91934000D01*
X81833500Y-91934000D01*
X81808996Y-91932796D01*
X81784727Y-91929196D01*
X81760929Y-91923235D01*
X81737829Y-91914970D01*
X81715651Y-91904480D01*
X81694607Y-91891867D01*
X81674902Y-91877253D01*
X81656723Y-91860777D01*
X81640247Y-91842598D01*
X81625633Y-91822893D01*
X81613020Y-91801849D01*
X81602530Y-91779671D01*
X81594265Y-91756571D01*
X81588304Y-91732773D01*
X81584704Y-91708504D01*
X81583500Y-91684000D01*
X81583500Y-90434000D01*
X81584704Y-90409496D01*
X81588304Y-90385227D01*
X81594265Y-90361429D01*
X81602530Y-90338329D01*
X81613020Y-90316151D01*
X81625633Y-90295107D01*
X81640247Y-90275402D01*
X81656723Y-90257223D01*
X81674902Y-90240747D01*
X81694607Y-90226133D01*
X81715651Y-90213520D01*
X81737829Y-90203030D01*
X81760929Y-90194765D01*
X81784727Y-90188804D01*
X81808996Y-90185204D01*
X81833500Y-90184000D01*
X82758500Y-90184000D01*
X82783004Y-90185204D01*
X82783004Y-90185204D01*
G37*
D11*
X82296000Y-91059000D03*
D10*
G36*
X79808004Y-90185204D02*
G01*
X79832273Y-90188804D01*
X79856071Y-90194765D01*
X79879171Y-90203030D01*
X79901349Y-90213520D01*
X79922393Y-90226133D01*
X79942098Y-90240747D01*
X79960277Y-90257223D01*
X79976753Y-90275402D01*
X79991367Y-90295107D01*
X80003980Y-90316151D01*
X80014470Y-90338329D01*
X80022735Y-90361429D01*
X80028696Y-90385227D01*
X80032296Y-90409496D01*
X80033500Y-90434000D01*
X80033500Y-91684000D01*
X80032296Y-91708504D01*
X80028696Y-91732773D01*
X80022735Y-91756571D01*
X80014470Y-91779671D01*
X80003980Y-91801849D01*
X79991367Y-91822893D01*
X79976753Y-91842598D01*
X79960277Y-91860777D01*
X79942098Y-91877253D01*
X79922393Y-91891867D01*
X79901349Y-91904480D01*
X79879171Y-91914970D01*
X79856071Y-91923235D01*
X79832273Y-91929196D01*
X79808004Y-91932796D01*
X79783500Y-91934000D01*
X78858500Y-91934000D01*
X78833996Y-91932796D01*
X78809727Y-91929196D01*
X78785929Y-91923235D01*
X78762829Y-91914970D01*
X78740651Y-91904480D01*
X78719607Y-91891867D01*
X78699902Y-91877253D01*
X78681723Y-91860777D01*
X78665247Y-91842598D01*
X78650633Y-91822893D01*
X78638020Y-91801849D01*
X78627530Y-91779671D01*
X78619265Y-91756571D01*
X78613304Y-91732773D01*
X78609704Y-91708504D01*
X78608500Y-91684000D01*
X78608500Y-90434000D01*
X78609704Y-90409496D01*
X78613304Y-90385227D01*
X78619265Y-90361429D01*
X78627530Y-90338329D01*
X78638020Y-90316151D01*
X78650633Y-90295107D01*
X78665247Y-90275402D01*
X78681723Y-90257223D01*
X78699902Y-90240747D01*
X78719607Y-90226133D01*
X78740651Y-90213520D01*
X78762829Y-90203030D01*
X78785929Y-90194765D01*
X78809727Y-90188804D01*
X78833996Y-90185204D01*
X78858500Y-90184000D01*
X79783500Y-90184000D01*
X79808004Y-90185204D01*
X79808004Y-90185204D01*
G37*
D11*
X79321000Y-91059000D03*
D10*
G36*
X76072004Y-81295204D02*
G01*
X76096273Y-81298804D01*
X76120071Y-81304765D01*
X76143171Y-81313030D01*
X76165349Y-81323520D01*
X76186393Y-81336133D01*
X76206098Y-81350747D01*
X76224277Y-81367223D01*
X76240753Y-81385402D01*
X76255367Y-81405107D01*
X76267980Y-81426151D01*
X76278470Y-81448329D01*
X76286735Y-81471429D01*
X76292696Y-81495227D01*
X76296296Y-81519496D01*
X76297500Y-81544000D01*
X76297500Y-82794000D01*
X76296296Y-82818504D01*
X76292696Y-82842773D01*
X76286735Y-82866571D01*
X76278470Y-82889671D01*
X76267980Y-82911849D01*
X76255367Y-82932893D01*
X76240753Y-82952598D01*
X76224277Y-82970777D01*
X76206098Y-82987253D01*
X76186393Y-83001867D01*
X76165349Y-83014480D01*
X76143171Y-83024970D01*
X76120071Y-83033235D01*
X76096273Y-83039196D01*
X76072004Y-83042796D01*
X76047500Y-83044000D01*
X75122500Y-83044000D01*
X75097996Y-83042796D01*
X75073727Y-83039196D01*
X75049929Y-83033235D01*
X75026829Y-83024970D01*
X75004651Y-83014480D01*
X74983607Y-83001867D01*
X74963902Y-82987253D01*
X74945723Y-82970777D01*
X74929247Y-82952598D01*
X74914633Y-82932893D01*
X74902020Y-82911849D01*
X74891530Y-82889671D01*
X74883265Y-82866571D01*
X74877304Y-82842773D01*
X74873704Y-82818504D01*
X74872500Y-82794000D01*
X74872500Y-81544000D01*
X74873704Y-81519496D01*
X74877304Y-81495227D01*
X74883265Y-81471429D01*
X74891530Y-81448329D01*
X74902020Y-81426151D01*
X74914633Y-81405107D01*
X74929247Y-81385402D01*
X74945723Y-81367223D01*
X74963902Y-81350747D01*
X74983607Y-81336133D01*
X75004651Y-81323520D01*
X75026829Y-81313030D01*
X75049929Y-81304765D01*
X75073727Y-81298804D01*
X75097996Y-81295204D01*
X75122500Y-81294000D01*
X76047500Y-81294000D01*
X76072004Y-81295204D01*
X76072004Y-81295204D01*
G37*
D11*
X75585000Y-82169000D03*
D10*
G36*
X79047004Y-81295204D02*
G01*
X79071273Y-81298804D01*
X79095071Y-81304765D01*
X79118171Y-81313030D01*
X79140349Y-81323520D01*
X79161393Y-81336133D01*
X79181098Y-81350747D01*
X79199277Y-81367223D01*
X79215753Y-81385402D01*
X79230367Y-81405107D01*
X79242980Y-81426151D01*
X79253470Y-81448329D01*
X79261735Y-81471429D01*
X79267696Y-81495227D01*
X79271296Y-81519496D01*
X79272500Y-81544000D01*
X79272500Y-82794000D01*
X79271296Y-82818504D01*
X79267696Y-82842773D01*
X79261735Y-82866571D01*
X79253470Y-82889671D01*
X79242980Y-82911849D01*
X79230367Y-82932893D01*
X79215753Y-82952598D01*
X79199277Y-82970777D01*
X79181098Y-82987253D01*
X79161393Y-83001867D01*
X79140349Y-83014480D01*
X79118171Y-83024970D01*
X79095071Y-83033235D01*
X79071273Y-83039196D01*
X79047004Y-83042796D01*
X79022500Y-83044000D01*
X78097500Y-83044000D01*
X78072996Y-83042796D01*
X78048727Y-83039196D01*
X78024929Y-83033235D01*
X78001829Y-83024970D01*
X77979651Y-83014480D01*
X77958607Y-83001867D01*
X77938902Y-82987253D01*
X77920723Y-82970777D01*
X77904247Y-82952598D01*
X77889633Y-82932893D01*
X77877020Y-82911849D01*
X77866530Y-82889671D01*
X77858265Y-82866571D01*
X77852304Y-82842773D01*
X77848704Y-82818504D01*
X77847500Y-82794000D01*
X77847500Y-81544000D01*
X77848704Y-81519496D01*
X77852304Y-81495227D01*
X77858265Y-81471429D01*
X77866530Y-81448329D01*
X77877020Y-81426151D01*
X77889633Y-81405107D01*
X77904247Y-81385402D01*
X77920723Y-81367223D01*
X77938902Y-81350747D01*
X77958607Y-81336133D01*
X77979651Y-81323520D01*
X78001829Y-81313030D01*
X78024929Y-81304765D01*
X78048727Y-81298804D01*
X78072996Y-81295204D01*
X78097500Y-81294000D01*
X79022500Y-81294000D01*
X79047004Y-81295204D01*
X79047004Y-81295204D01*
G37*
D11*
X78560000Y-82169000D03*
D10*
G36*
X117454004Y-89677204D02*
G01*
X117478273Y-89680804D01*
X117502071Y-89686765D01*
X117525171Y-89695030D01*
X117547349Y-89705520D01*
X117568393Y-89718133D01*
X117588098Y-89732747D01*
X117606277Y-89749223D01*
X117622753Y-89767402D01*
X117637367Y-89787107D01*
X117649980Y-89808151D01*
X117660470Y-89830329D01*
X117668735Y-89853429D01*
X117674696Y-89877227D01*
X117678296Y-89901496D01*
X117679500Y-89926000D01*
X117679500Y-91176000D01*
X117678296Y-91200504D01*
X117674696Y-91224773D01*
X117668735Y-91248571D01*
X117660470Y-91271671D01*
X117649980Y-91293849D01*
X117637367Y-91314893D01*
X117622753Y-91334598D01*
X117606277Y-91352777D01*
X117588098Y-91369253D01*
X117568393Y-91383867D01*
X117547349Y-91396480D01*
X117525171Y-91406970D01*
X117502071Y-91415235D01*
X117478273Y-91421196D01*
X117454004Y-91424796D01*
X117429500Y-91426000D01*
X116504500Y-91426000D01*
X116479996Y-91424796D01*
X116455727Y-91421196D01*
X116431929Y-91415235D01*
X116408829Y-91406970D01*
X116386651Y-91396480D01*
X116365607Y-91383867D01*
X116345902Y-91369253D01*
X116327723Y-91352777D01*
X116311247Y-91334598D01*
X116296633Y-91314893D01*
X116284020Y-91293849D01*
X116273530Y-91271671D01*
X116265265Y-91248571D01*
X116259304Y-91224773D01*
X116255704Y-91200504D01*
X116254500Y-91176000D01*
X116254500Y-89926000D01*
X116255704Y-89901496D01*
X116259304Y-89877227D01*
X116265265Y-89853429D01*
X116273530Y-89830329D01*
X116284020Y-89808151D01*
X116296633Y-89787107D01*
X116311247Y-89767402D01*
X116327723Y-89749223D01*
X116345902Y-89732747D01*
X116365607Y-89718133D01*
X116386651Y-89705520D01*
X116408829Y-89695030D01*
X116431929Y-89686765D01*
X116455727Y-89680804D01*
X116479996Y-89677204D01*
X116504500Y-89676000D01*
X117429500Y-89676000D01*
X117454004Y-89677204D01*
X117454004Y-89677204D01*
G37*
D11*
X116967000Y-90551000D03*
D10*
G36*
X114479004Y-89677204D02*
G01*
X114503273Y-89680804D01*
X114527071Y-89686765D01*
X114550171Y-89695030D01*
X114572349Y-89705520D01*
X114593393Y-89718133D01*
X114613098Y-89732747D01*
X114631277Y-89749223D01*
X114647753Y-89767402D01*
X114662367Y-89787107D01*
X114674980Y-89808151D01*
X114685470Y-89830329D01*
X114693735Y-89853429D01*
X114699696Y-89877227D01*
X114703296Y-89901496D01*
X114704500Y-89926000D01*
X114704500Y-91176000D01*
X114703296Y-91200504D01*
X114699696Y-91224773D01*
X114693735Y-91248571D01*
X114685470Y-91271671D01*
X114674980Y-91293849D01*
X114662367Y-91314893D01*
X114647753Y-91334598D01*
X114631277Y-91352777D01*
X114613098Y-91369253D01*
X114593393Y-91383867D01*
X114572349Y-91396480D01*
X114550171Y-91406970D01*
X114527071Y-91415235D01*
X114503273Y-91421196D01*
X114479004Y-91424796D01*
X114454500Y-91426000D01*
X113529500Y-91426000D01*
X113504996Y-91424796D01*
X113480727Y-91421196D01*
X113456929Y-91415235D01*
X113433829Y-91406970D01*
X113411651Y-91396480D01*
X113390607Y-91383867D01*
X113370902Y-91369253D01*
X113352723Y-91352777D01*
X113336247Y-91334598D01*
X113321633Y-91314893D01*
X113309020Y-91293849D01*
X113298530Y-91271671D01*
X113290265Y-91248571D01*
X113284304Y-91224773D01*
X113280704Y-91200504D01*
X113279500Y-91176000D01*
X113279500Y-89926000D01*
X113280704Y-89901496D01*
X113284304Y-89877227D01*
X113290265Y-89853429D01*
X113298530Y-89830329D01*
X113309020Y-89808151D01*
X113321633Y-89787107D01*
X113336247Y-89767402D01*
X113352723Y-89749223D01*
X113370902Y-89732747D01*
X113390607Y-89718133D01*
X113411651Y-89705520D01*
X113433829Y-89695030D01*
X113456929Y-89686765D01*
X113480727Y-89680804D01*
X113504996Y-89677204D01*
X113529500Y-89676000D01*
X114454500Y-89676000D01*
X114479004Y-89677204D01*
X114479004Y-89677204D01*
G37*
D11*
X113992000Y-90551000D03*
D10*
G36*
X109199004Y-85105204D02*
G01*
X109223273Y-85108804D01*
X109247071Y-85114765D01*
X109270171Y-85123030D01*
X109292349Y-85133520D01*
X109313393Y-85146133D01*
X109333098Y-85160747D01*
X109351277Y-85177223D01*
X109367753Y-85195402D01*
X109382367Y-85215107D01*
X109394980Y-85236151D01*
X109405470Y-85258329D01*
X109413735Y-85281429D01*
X109419696Y-85305227D01*
X109423296Y-85329496D01*
X109424500Y-85354000D01*
X109424500Y-86604000D01*
X109423296Y-86628504D01*
X109419696Y-86652773D01*
X109413735Y-86676571D01*
X109405470Y-86699671D01*
X109394980Y-86721849D01*
X109382367Y-86742893D01*
X109367753Y-86762598D01*
X109351277Y-86780777D01*
X109333098Y-86797253D01*
X109313393Y-86811867D01*
X109292349Y-86824480D01*
X109270171Y-86834970D01*
X109247071Y-86843235D01*
X109223273Y-86849196D01*
X109199004Y-86852796D01*
X109174500Y-86854000D01*
X108249500Y-86854000D01*
X108224996Y-86852796D01*
X108200727Y-86849196D01*
X108176929Y-86843235D01*
X108153829Y-86834970D01*
X108131651Y-86824480D01*
X108110607Y-86811867D01*
X108090902Y-86797253D01*
X108072723Y-86780777D01*
X108056247Y-86762598D01*
X108041633Y-86742893D01*
X108029020Y-86721849D01*
X108018530Y-86699671D01*
X108010265Y-86676571D01*
X108004304Y-86652773D01*
X108000704Y-86628504D01*
X107999500Y-86604000D01*
X107999500Y-85354000D01*
X108000704Y-85329496D01*
X108004304Y-85305227D01*
X108010265Y-85281429D01*
X108018530Y-85258329D01*
X108029020Y-85236151D01*
X108041633Y-85215107D01*
X108056247Y-85195402D01*
X108072723Y-85177223D01*
X108090902Y-85160747D01*
X108110607Y-85146133D01*
X108131651Y-85133520D01*
X108153829Y-85123030D01*
X108176929Y-85114765D01*
X108200727Y-85108804D01*
X108224996Y-85105204D01*
X108249500Y-85104000D01*
X109174500Y-85104000D01*
X109199004Y-85105204D01*
X109199004Y-85105204D01*
G37*
D11*
X108712000Y-85979000D03*
D10*
G36*
X106224004Y-85105204D02*
G01*
X106248273Y-85108804D01*
X106272071Y-85114765D01*
X106295171Y-85123030D01*
X106317349Y-85133520D01*
X106338393Y-85146133D01*
X106358098Y-85160747D01*
X106376277Y-85177223D01*
X106392753Y-85195402D01*
X106407367Y-85215107D01*
X106419980Y-85236151D01*
X106430470Y-85258329D01*
X106438735Y-85281429D01*
X106444696Y-85305227D01*
X106448296Y-85329496D01*
X106449500Y-85354000D01*
X106449500Y-86604000D01*
X106448296Y-86628504D01*
X106444696Y-86652773D01*
X106438735Y-86676571D01*
X106430470Y-86699671D01*
X106419980Y-86721849D01*
X106407367Y-86742893D01*
X106392753Y-86762598D01*
X106376277Y-86780777D01*
X106358098Y-86797253D01*
X106338393Y-86811867D01*
X106317349Y-86824480D01*
X106295171Y-86834970D01*
X106272071Y-86843235D01*
X106248273Y-86849196D01*
X106224004Y-86852796D01*
X106199500Y-86854000D01*
X105274500Y-86854000D01*
X105249996Y-86852796D01*
X105225727Y-86849196D01*
X105201929Y-86843235D01*
X105178829Y-86834970D01*
X105156651Y-86824480D01*
X105135607Y-86811867D01*
X105115902Y-86797253D01*
X105097723Y-86780777D01*
X105081247Y-86762598D01*
X105066633Y-86742893D01*
X105054020Y-86721849D01*
X105043530Y-86699671D01*
X105035265Y-86676571D01*
X105029304Y-86652773D01*
X105025704Y-86628504D01*
X105024500Y-86604000D01*
X105024500Y-85354000D01*
X105025704Y-85329496D01*
X105029304Y-85305227D01*
X105035265Y-85281429D01*
X105043530Y-85258329D01*
X105054020Y-85236151D01*
X105066633Y-85215107D01*
X105081247Y-85195402D01*
X105097723Y-85177223D01*
X105115902Y-85160747D01*
X105135607Y-85146133D01*
X105156651Y-85133520D01*
X105178829Y-85123030D01*
X105201929Y-85114765D01*
X105225727Y-85108804D01*
X105249996Y-85105204D01*
X105274500Y-85104000D01*
X106199500Y-85104000D01*
X106224004Y-85105204D01*
X106224004Y-85105204D01*
G37*
D11*
X105737000Y-85979000D03*
D10*
G36*
X63733004Y-90312204D02*
G01*
X63757273Y-90315804D01*
X63781071Y-90321765D01*
X63804171Y-90330030D01*
X63826349Y-90340520D01*
X63847393Y-90353133D01*
X63867098Y-90367747D01*
X63885277Y-90384223D01*
X63901753Y-90402402D01*
X63916367Y-90422107D01*
X63928980Y-90443151D01*
X63939470Y-90465329D01*
X63947735Y-90488429D01*
X63953696Y-90512227D01*
X63957296Y-90536496D01*
X63958500Y-90561000D01*
X63958500Y-91811000D01*
X63957296Y-91835504D01*
X63953696Y-91859773D01*
X63947735Y-91883571D01*
X63939470Y-91906671D01*
X63928980Y-91928849D01*
X63916367Y-91949893D01*
X63901753Y-91969598D01*
X63885277Y-91987777D01*
X63867098Y-92004253D01*
X63847393Y-92018867D01*
X63826349Y-92031480D01*
X63804171Y-92041970D01*
X63781071Y-92050235D01*
X63757273Y-92056196D01*
X63733004Y-92059796D01*
X63708500Y-92061000D01*
X62783500Y-92061000D01*
X62758996Y-92059796D01*
X62734727Y-92056196D01*
X62710929Y-92050235D01*
X62687829Y-92041970D01*
X62665651Y-92031480D01*
X62644607Y-92018867D01*
X62624902Y-92004253D01*
X62606723Y-91987777D01*
X62590247Y-91969598D01*
X62575633Y-91949893D01*
X62563020Y-91928849D01*
X62552530Y-91906671D01*
X62544265Y-91883571D01*
X62538304Y-91859773D01*
X62534704Y-91835504D01*
X62533500Y-91811000D01*
X62533500Y-90561000D01*
X62534704Y-90536496D01*
X62538304Y-90512227D01*
X62544265Y-90488429D01*
X62552530Y-90465329D01*
X62563020Y-90443151D01*
X62575633Y-90422107D01*
X62590247Y-90402402D01*
X62606723Y-90384223D01*
X62624902Y-90367747D01*
X62644607Y-90353133D01*
X62665651Y-90340520D01*
X62687829Y-90330030D01*
X62710929Y-90321765D01*
X62734727Y-90315804D01*
X62758996Y-90312204D01*
X62783500Y-90311000D01*
X63708500Y-90311000D01*
X63733004Y-90312204D01*
X63733004Y-90312204D01*
G37*
D11*
X63246000Y-91186000D03*
D10*
G36*
X60758004Y-90312204D02*
G01*
X60782273Y-90315804D01*
X60806071Y-90321765D01*
X60829171Y-90330030D01*
X60851349Y-90340520D01*
X60872393Y-90353133D01*
X60892098Y-90367747D01*
X60910277Y-90384223D01*
X60926753Y-90402402D01*
X60941367Y-90422107D01*
X60953980Y-90443151D01*
X60964470Y-90465329D01*
X60972735Y-90488429D01*
X60978696Y-90512227D01*
X60982296Y-90536496D01*
X60983500Y-90561000D01*
X60983500Y-91811000D01*
X60982296Y-91835504D01*
X60978696Y-91859773D01*
X60972735Y-91883571D01*
X60964470Y-91906671D01*
X60953980Y-91928849D01*
X60941367Y-91949893D01*
X60926753Y-91969598D01*
X60910277Y-91987777D01*
X60892098Y-92004253D01*
X60872393Y-92018867D01*
X60851349Y-92031480D01*
X60829171Y-92041970D01*
X60806071Y-92050235D01*
X60782273Y-92056196D01*
X60758004Y-92059796D01*
X60733500Y-92061000D01*
X59808500Y-92061000D01*
X59783996Y-92059796D01*
X59759727Y-92056196D01*
X59735929Y-92050235D01*
X59712829Y-92041970D01*
X59690651Y-92031480D01*
X59669607Y-92018867D01*
X59649902Y-92004253D01*
X59631723Y-91987777D01*
X59615247Y-91969598D01*
X59600633Y-91949893D01*
X59588020Y-91928849D01*
X59577530Y-91906671D01*
X59569265Y-91883571D01*
X59563304Y-91859773D01*
X59559704Y-91835504D01*
X59558500Y-91811000D01*
X59558500Y-90561000D01*
X59559704Y-90536496D01*
X59563304Y-90512227D01*
X59569265Y-90488429D01*
X59577530Y-90465329D01*
X59588020Y-90443151D01*
X59600633Y-90422107D01*
X59615247Y-90402402D01*
X59631723Y-90384223D01*
X59649902Y-90367747D01*
X59669607Y-90353133D01*
X59690651Y-90340520D01*
X59712829Y-90330030D01*
X59735929Y-90321765D01*
X59759727Y-90315804D01*
X59783996Y-90312204D01*
X59808500Y-90311000D01*
X60733500Y-90311000D01*
X60758004Y-90312204D01*
X60758004Y-90312204D01*
G37*
D11*
X60271000Y-91186000D03*
D10*
G36*
X54885504Y-85688704D02*
G01*
X54909773Y-85692304D01*
X54933571Y-85698265D01*
X54956671Y-85706530D01*
X54978849Y-85717020D01*
X54999893Y-85729633D01*
X55019598Y-85744247D01*
X55037777Y-85760723D01*
X55054253Y-85778902D01*
X55068867Y-85798607D01*
X55081480Y-85819651D01*
X55091970Y-85841829D01*
X55100235Y-85864929D01*
X55106196Y-85888727D01*
X55109796Y-85912996D01*
X55111000Y-85937500D01*
X55111000Y-86862500D01*
X55109796Y-86887004D01*
X55106196Y-86911273D01*
X55100235Y-86935071D01*
X55091970Y-86958171D01*
X55081480Y-86980349D01*
X55068867Y-87001393D01*
X55054253Y-87021098D01*
X55037777Y-87039277D01*
X55019598Y-87055753D01*
X54999893Y-87070367D01*
X54978849Y-87082980D01*
X54956671Y-87093470D01*
X54933571Y-87101735D01*
X54909773Y-87107696D01*
X54885504Y-87111296D01*
X54861000Y-87112500D01*
X53611000Y-87112500D01*
X53586496Y-87111296D01*
X53562227Y-87107696D01*
X53538429Y-87101735D01*
X53515329Y-87093470D01*
X53493151Y-87082980D01*
X53472107Y-87070367D01*
X53452402Y-87055753D01*
X53434223Y-87039277D01*
X53417747Y-87021098D01*
X53403133Y-87001393D01*
X53390520Y-86980349D01*
X53380030Y-86958171D01*
X53371765Y-86935071D01*
X53365804Y-86911273D01*
X53362204Y-86887004D01*
X53361000Y-86862500D01*
X53361000Y-85937500D01*
X53362204Y-85912996D01*
X53365804Y-85888727D01*
X53371765Y-85864929D01*
X53380030Y-85841829D01*
X53390520Y-85819651D01*
X53403133Y-85798607D01*
X53417747Y-85778902D01*
X53434223Y-85760723D01*
X53452402Y-85744247D01*
X53472107Y-85729633D01*
X53493151Y-85717020D01*
X53515329Y-85706530D01*
X53538429Y-85698265D01*
X53562227Y-85692304D01*
X53586496Y-85688704D01*
X53611000Y-85687500D01*
X54861000Y-85687500D01*
X54885504Y-85688704D01*
X54885504Y-85688704D01*
G37*
D11*
X54236000Y-86400000D03*
D10*
G36*
X54885504Y-82713704D02*
G01*
X54909773Y-82717304D01*
X54933571Y-82723265D01*
X54956671Y-82731530D01*
X54978849Y-82742020D01*
X54999893Y-82754633D01*
X55019598Y-82769247D01*
X55037777Y-82785723D01*
X55054253Y-82803902D01*
X55068867Y-82823607D01*
X55081480Y-82844651D01*
X55091970Y-82866829D01*
X55100235Y-82889929D01*
X55106196Y-82913727D01*
X55109796Y-82937996D01*
X55111000Y-82962500D01*
X55111000Y-83887500D01*
X55109796Y-83912004D01*
X55106196Y-83936273D01*
X55100235Y-83960071D01*
X55091970Y-83983171D01*
X55081480Y-84005349D01*
X55068867Y-84026393D01*
X55054253Y-84046098D01*
X55037777Y-84064277D01*
X55019598Y-84080753D01*
X54999893Y-84095367D01*
X54978849Y-84107980D01*
X54956671Y-84118470D01*
X54933571Y-84126735D01*
X54909773Y-84132696D01*
X54885504Y-84136296D01*
X54861000Y-84137500D01*
X53611000Y-84137500D01*
X53586496Y-84136296D01*
X53562227Y-84132696D01*
X53538429Y-84126735D01*
X53515329Y-84118470D01*
X53493151Y-84107980D01*
X53472107Y-84095367D01*
X53452402Y-84080753D01*
X53434223Y-84064277D01*
X53417747Y-84046098D01*
X53403133Y-84026393D01*
X53390520Y-84005349D01*
X53380030Y-83983171D01*
X53371765Y-83960071D01*
X53365804Y-83936273D01*
X53362204Y-83912004D01*
X53361000Y-83887500D01*
X53361000Y-82962500D01*
X53362204Y-82937996D01*
X53365804Y-82913727D01*
X53371765Y-82889929D01*
X53380030Y-82866829D01*
X53390520Y-82844651D01*
X53403133Y-82823607D01*
X53417747Y-82803902D01*
X53434223Y-82785723D01*
X53452402Y-82769247D01*
X53472107Y-82754633D01*
X53493151Y-82742020D01*
X53515329Y-82731530D01*
X53538429Y-82723265D01*
X53562227Y-82717304D01*
X53586496Y-82713704D01*
X53611000Y-82712500D01*
X54861000Y-82712500D01*
X54885504Y-82713704D01*
X54885504Y-82713704D01*
G37*
D11*
X54236000Y-83425000D03*
D12*
X129540000Y-88000000D03*
X130490000Y-85000000D03*
X128590000Y-85000000D03*
X111359000Y-88000000D03*
X112309000Y-85000000D03*
X110409000Y-85000000D03*
X93490000Y-88508000D03*
X94440000Y-85508000D03*
X92540000Y-85508000D03*
X76139000Y-87328000D03*
X77089000Y-84328000D03*
X75189000Y-84328000D03*
X57036000Y-88300000D03*
X57986000Y-85300000D03*
X56086000Y-85300000D03*
D10*
G36*
X148477504Y-199059704D02*
G01*
X148501773Y-199063304D01*
X148525571Y-199069265D01*
X148548671Y-199077530D01*
X148570849Y-199088020D01*
X148591893Y-199100633D01*
X148611598Y-199115247D01*
X148629777Y-199131723D01*
X148646253Y-199149902D01*
X148660867Y-199169607D01*
X148673480Y-199190651D01*
X148683970Y-199212829D01*
X148692235Y-199235929D01*
X148698196Y-199259727D01*
X148701796Y-199283996D01*
X148703000Y-199308500D01*
X148703000Y-200233500D01*
X148701796Y-200258004D01*
X148698196Y-200282273D01*
X148692235Y-200306071D01*
X148683970Y-200329171D01*
X148673480Y-200351349D01*
X148660867Y-200372393D01*
X148646253Y-200392098D01*
X148629777Y-200410277D01*
X148611598Y-200426753D01*
X148591893Y-200441367D01*
X148570849Y-200453980D01*
X148548671Y-200464470D01*
X148525571Y-200472735D01*
X148501773Y-200478696D01*
X148477504Y-200482296D01*
X148453000Y-200483500D01*
X147203000Y-200483500D01*
X147178496Y-200482296D01*
X147154227Y-200478696D01*
X147130429Y-200472735D01*
X147107329Y-200464470D01*
X147085151Y-200453980D01*
X147064107Y-200441367D01*
X147044402Y-200426753D01*
X147026223Y-200410277D01*
X147009747Y-200392098D01*
X146995133Y-200372393D01*
X146982520Y-200351349D01*
X146972030Y-200329171D01*
X146963765Y-200306071D01*
X146957804Y-200282273D01*
X146954204Y-200258004D01*
X146953000Y-200233500D01*
X146953000Y-199308500D01*
X146954204Y-199283996D01*
X146957804Y-199259727D01*
X146963765Y-199235929D01*
X146972030Y-199212829D01*
X146982520Y-199190651D01*
X146995133Y-199169607D01*
X147009747Y-199149902D01*
X147026223Y-199131723D01*
X147044402Y-199115247D01*
X147064107Y-199100633D01*
X147085151Y-199088020D01*
X147107329Y-199077530D01*
X147130429Y-199069265D01*
X147154227Y-199063304D01*
X147178496Y-199059704D01*
X147203000Y-199058500D01*
X148453000Y-199058500D01*
X148477504Y-199059704D01*
X148477504Y-199059704D01*
G37*
D11*
X147828000Y-199771000D03*
D10*
G36*
X148477504Y-202034704D02*
G01*
X148501773Y-202038304D01*
X148525571Y-202044265D01*
X148548671Y-202052530D01*
X148570849Y-202063020D01*
X148591893Y-202075633D01*
X148611598Y-202090247D01*
X148629777Y-202106723D01*
X148646253Y-202124902D01*
X148660867Y-202144607D01*
X148673480Y-202165651D01*
X148683970Y-202187829D01*
X148692235Y-202210929D01*
X148698196Y-202234727D01*
X148701796Y-202258996D01*
X148703000Y-202283500D01*
X148703000Y-203208500D01*
X148701796Y-203233004D01*
X148698196Y-203257273D01*
X148692235Y-203281071D01*
X148683970Y-203304171D01*
X148673480Y-203326349D01*
X148660867Y-203347393D01*
X148646253Y-203367098D01*
X148629777Y-203385277D01*
X148611598Y-203401753D01*
X148591893Y-203416367D01*
X148570849Y-203428980D01*
X148548671Y-203439470D01*
X148525571Y-203447735D01*
X148501773Y-203453696D01*
X148477504Y-203457296D01*
X148453000Y-203458500D01*
X147203000Y-203458500D01*
X147178496Y-203457296D01*
X147154227Y-203453696D01*
X147130429Y-203447735D01*
X147107329Y-203439470D01*
X147085151Y-203428980D01*
X147064107Y-203416367D01*
X147044402Y-203401753D01*
X147026223Y-203385277D01*
X147009747Y-203367098D01*
X146995133Y-203347393D01*
X146982520Y-203326349D01*
X146972030Y-203304171D01*
X146963765Y-203281071D01*
X146957804Y-203257273D01*
X146954204Y-203233004D01*
X146953000Y-203208500D01*
X146953000Y-202283500D01*
X146954204Y-202258996D01*
X146957804Y-202234727D01*
X146963765Y-202210929D01*
X146972030Y-202187829D01*
X146982520Y-202165651D01*
X146995133Y-202144607D01*
X147009747Y-202124902D01*
X147026223Y-202106723D01*
X147044402Y-202090247D01*
X147064107Y-202075633D01*
X147085151Y-202063020D01*
X147107329Y-202052530D01*
X147130429Y-202044265D01*
X147154227Y-202038304D01*
X147178496Y-202034704D01*
X147203000Y-202033500D01*
X148453000Y-202033500D01*
X148477504Y-202034704D01*
X148477504Y-202034704D01*
G37*
D11*
X147828000Y-202746000D03*
D10*
G36*
X148477504Y-182622704D02*
G01*
X148501773Y-182626304D01*
X148525571Y-182632265D01*
X148548671Y-182640530D01*
X148570849Y-182651020D01*
X148591893Y-182663633D01*
X148611598Y-182678247D01*
X148629777Y-182694723D01*
X148646253Y-182712902D01*
X148660867Y-182732607D01*
X148673480Y-182753651D01*
X148683970Y-182775829D01*
X148692235Y-182798929D01*
X148698196Y-182822727D01*
X148701796Y-182846996D01*
X148703000Y-182871500D01*
X148703000Y-183796500D01*
X148701796Y-183821004D01*
X148698196Y-183845273D01*
X148692235Y-183869071D01*
X148683970Y-183892171D01*
X148673480Y-183914349D01*
X148660867Y-183935393D01*
X148646253Y-183955098D01*
X148629777Y-183973277D01*
X148611598Y-183989753D01*
X148591893Y-184004367D01*
X148570849Y-184016980D01*
X148548671Y-184027470D01*
X148525571Y-184035735D01*
X148501773Y-184041696D01*
X148477504Y-184045296D01*
X148453000Y-184046500D01*
X147203000Y-184046500D01*
X147178496Y-184045296D01*
X147154227Y-184041696D01*
X147130429Y-184035735D01*
X147107329Y-184027470D01*
X147085151Y-184016980D01*
X147064107Y-184004367D01*
X147044402Y-183989753D01*
X147026223Y-183973277D01*
X147009747Y-183955098D01*
X146995133Y-183935393D01*
X146982520Y-183914349D01*
X146972030Y-183892171D01*
X146963765Y-183869071D01*
X146957804Y-183845273D01*
X146954204Y-183821004D01*
X146953000Y-183796500D01*
X146953000Y-182871500D01*
X146954204Y-182846996D01*
X146957804Y-182822727D01*
X146963765Y-182798929D01*
X146972030Y-182775829D01*
X146982520Y-182753651D01*
X146995133Y-182732607D01*
X147009747Y-182712902D01*
X147026223Y-182694723D01*
X147044402Y-182678247D01*
X147064107Y-182663633D01*
X147085151Y-182651020D01*
X147107329Y-182640530D01*
X147130429Y-182632265D01*
X147154227Y-182626304D01*
X147178496Y-182622704D01*
X147203000Y-182621500D01*
X148453000Y-182621500D01*
X148477504Y-182622704D01*
X148477504Y-182622704D01*
G37*
D11*
X147828000Y-183334000D03*
D10*
G36*
X148477504Y-185597704D02*
G01*
X148501773Y-185601304D01*
X148525571Y-185607265D01*
X148548671Y-185615530D01*
X148570849Y-185626020D01*
X148591893Y-185638633D01*
X148611598Y-185653247D01*
X148629777Y-185669723D01*
X148646253Y-185687902D01*
X148660867Y-185707607D01*
X148673480Y-185728651D01*
X148683970Y-185750829D01*
X148692235Y-185773929D01*
X148698196Y-185797727D01*
X148701796Y-185821996D01*
X148703000Y-185846500D01*
X148703000Y-186771500D01*
X148701796Y-186796004D01*
X148698196Y-186820273D01*
X148692235Y-186844071D01*
X148683970Y-186867171D01*
X148673480Y-186889349D01*
X148660867Y-186910393D01*
X148646253Y-186930098D01*
X148629777Y-186948277D01*
X148611598Y-186964753D01*
X148591893Y-186979367D01*
X148570849Y-186991980D01*
X148548671Y-187002470D01*
X148525571Y-187010735D01*
X148501773Y-187016696D01*
X148477504Y-187020296D01*
X148453000Y-187021500D01*
X147203000Y-187021500D01*
X147178496Y-187020296D01*
X147154227Y-187016696D01*
X147130429Y-187010735D01*
X147107329Y-187002470D01*
X147085151Y-186991980D01*
X147064107Y-186979367D01*
X147044402Y-186964753D01*
X147026223Y-186948277D01*
X147009747Y-186930098D01*
X146995133Y-186910393D01*
X146982520Y-186889349D01*
X146972030Y-186867171D01*
X146963765Y-186844071D01*
X146957804Y-186820273D01*
X146954204Y-186796004D01*
X146953000Y-186771500D01*
X146953000Y-185846500D01*
X146954204Y-185821996D01*
X146957804Y-185797727D01*
X146963765Y-185773929D01*
X146972030Y-185750829D01*
X146982520Y-185728651D01*
X146995133Y-185707607D01*
X147009747Y-185687902D01*
X147026223Y-185669723D01*
X147044402Y-185653247D01*
X147064107Y-185638633D01*
X147085151Y-185626020D01*
X147107329Y-185615530D01*
X147130429Y-185607265D01*
X147154227Y-185601304D01*
X147178496Y-185597704D01*
X147203000Y-185596500D01*
X148453000Y-185596500D01*
X148477504Y-185597704D01*
X148477504Y-185597704D01*
G37*
D11*
X147828000Y-186309000D03*
D10*
G36*
X148477504Y-165604704D02*
G01*
X148501773Y-165608304D01*
X148525571Y-165614265D01*
X148548671Y-165622530D01*
X148570849Y-165633020D01*
X148591893Y-165645633D01*
X148611598Y-165660247D01*
X148629777Y-165676723D01*
X148646253Y-165694902D01*
X148660867Y-165714607D01*
X148673480Y-165735651D01*
X148683970Y-165757829D01*
X148692235Y-165780929D01*
X148698196Y-165804727D01*
X148701796Y-165828996D01*
X148703000Y-165853500D01*
X148703000Y-166778500D01*
X148701796Y-166803004D01*
X148698196Y-166827273D01*
X148692235Y-166851071D01*
X148683970Y-166874171D01*
X148673480Y-166896349D01*
X148660867Y-166917393D01*
X148646253Y-166937098D01*
X148629777Y-166955277D01*
X148611598Y-166971753D01*
X148591893Y-166986367D01*
X148570849Y-166998980D01*
X148548671Y-167009470D01*
X148525571Y-167017735D01*
X148501773Y-167023696D01*
X148477504Y-167027296D01*
X148453000Y-167028500D01*
X147203000Y-167028500D01*
X147178496Y-167027296D01*
X147154227Y-167023696D01*
X147130429Y-167017735D01*
X147107329Y-167009470D01*
X147085151Y-166998980D01*
X147064107Y-166986367D01*
X147044402Y-166971753D01*
X147026223Y-166955277D01*
X147009747Y-166937098D01*
X146995133Y-166917393D01*
X146982520Y-166896349D01*
X146972030Y-166874171D01*
X146963765Y-166851071D01*
X146957804Y-166827273D01*
X146954204Y-166803004D01*
X146953000Y-166778500D01*
X146953000Y-165853500D01*
X146954204Y-165828996D01*
X146957804Y-165804727D01*
X146963765Y-165780929D01*
X146972030Y-165757829D01*
X146982520Y-165735651D01*
X146995133Y-165714607D01*
X147009747Y-165694902D01*
X147026223Y-165676723D01*
X147044402Y-165660247D01*
X147064107Y-165645633D01*
X147085151Y-165633020D01*
X147107329Y-165622530D01*
X147130429Y-165614265D01*
X147154227Y-165608304D01*
X147178496Y-165604704D01*
X147203000Y-165603500D01*
X148453000Y-165603500D01*
X148477504Y-165604704D01*
X148477504Y-165604704D01*
G37*
D11*
X147828000Y-166316000D03*
D10*
G36*
X148477504Y-168579704D02*
G01*
X148501773Y-168583304D01*
X148525571Y-168589265D01*
X148548671Y-168597530D01*
X148570849Y-168608020D01*
X148591893Y-168620633D01*
X148611598Y-168635247D01*
X148629777Y-168651723D01*
X148646253Y-168669902D01*
X148660867Y-168689607D01*
X148673480Y-168710651D01*
X148683970Y-168732829D01*
X148692235Y-168755929D01*
X148698196Y-168779727D01*
X148701796Y-168803996D01*
X148703000Y-168828500D01*
X148703000Y-169753500D01*
X148701796Y-169778004D01*
X148698196Y-169802273D01*
X148692235Y-169826071D01*
X148683970Y-169849171D01*
X148673480Y-169871349D01*
X148660867Y-169892393D01*
X148646253Y-169912098D01*
X148629777Y-169930277D01*
X148611598Y-169946753D01*
X148591893Y-169961367D01*
X148570849Y-169973980D01*
X148548671Y-169984470D01*
X148525571Y-169992735D01*
X148501773Y-169998696D01*
X148477504Y-170002296D01*
X148453000Y-170003500D01*
X147203000Y-170003500D01*
X147178496Y-170002296D01*
X147154227Y-169998696D01*
X147130429Y-169992735D01*
X147107329Y-169984470D01*
X147085151Y-169973980D01*
X147064107Y-169961367D01*
X147044402Y-169946753D01*
X147026223Y-169930277D01*
X147009747Y-169912098D01*
X146995133Y-169892393D01*
X146982520Y-169871349D01*
X146972030Y-169849171D01*
X146963765Y-169826071D01*
X146957804Y-169802273D01*
X146954204Y-169778004D01*
X146953000Y-169753500D01*
X146953000Y-168828500D01*
X146954204Y-168803996D01*
X146957804Y-168779727D01*
X146963765Y-168755929D01*
X146972030Y-168732829D01*
X146982520Y-168710651D01*
X146995133Y-168689607D01*
X147009747Y-168669902D01*
X147026223Y-168651723D01*
X147044402Y-168635247D01*
X147064107Y-168620633D01*
X147085151Y-168608020D01*
X147107329Y-168597530D01*
X147130429Y-168589265D01*
X147154227Y-168583304D01*
X147178496Y-168579704D01*
X147203000Y-168578500D01*
X148453000Y-168578500D01*
X148477504Y-168579704D01*
X148477504Y-168579704D01*
G37*
D11*
X147828000Y-169291000D03*
D10*
G36*
X148477504Y-148586704D02*
G01*
X148501773Y-148590304D01*
X148525571Y-148596265D01*
X148548671Y-148604530D01*
X148570849Y-148615020D01*
X148591893Y-148627633D01*
X148611598Y-148642247D01*
X148629777Y-148658723D01*
X148646253Y-148676902D01*
X148660867Y-148696607D01*
X148673480Y-148717651D01*
X148683970Y-148739829D01*
X148692235Y-148762929D01*
X148698196Y-148786727D01*
X148701796Y-148810996D01*
X148703000Y-148835500D01*
X148703000Y-149760500D01*
X148701796Y-149785004D01*
X148698196Y-149809273D01*
X148692235Y-149833071D01*
X148683970Y-149856171D01*
X148673480Y-149878349D01*
X148660867Y-149899393D01*
X148646253Y-149919098D01*
X148629777Y-149937277D01*
X148611598Y-149953753D01*
X148591893Y-149968367D01*
X148570849Y-149980980D01*
X148548671Y-149991470D01*
X148525571Y-149999735D01*
X148501773Y-150005696D01*
X148477504Y-150009296D01*
X148453000Y-150010500D01*
X147203000Y-150010500D01*
X147178496Y-150009296D01*
X147154227Y-150005696D01*
X147130429Y-149999735D01*
X147107329Y-149991470D01*
X147085151Y-149980980D01*
X147064107Y-149968367D01*
X147044402Y-149953753D01*
X147026223Y-149937277D01*
X147009747Y-149919098D01*
X146995133Y-149899393D01*
X146982520Y-149878349D01*
X146972030Y-149856171D01*
X146963765Y-149833071D01*
X146957804Y-149809273D01*
X146954204Y-149785004D01*
X146953000Y-149760500D01*
X146953000Y-148835500D01*
X146954204Y-148810996D01*
X146957804Y-148786727D01*
X146963765Y-148762929D01*
X146972030Y-148739829D01*
X146982520Y-148717651D01*
X146995133Y-148696607D01*
X147009747Y-148676902D01*
X147026223Y-148658723D01*
X147044402Y-148642247D01*
X147064107Y-148627633D01*
X147085151Y-148615020D01*
X147107329Y-148604530D01*
X147130429Y-148596265D01*
X147154227Y-148590304D01*
X147178496Y-148586704D01*
X147203000Y-148585500D01*
X148453000Y-148585500D01*
X148477504Y-148586704D01*
X148477504Y-148586704D01*
G37*
D11*
X147828000Y-149298000D03*
D10*
G36*
X148477504Y-151561704D02*
G01*
X148501773Y-151565304D01*
X148525571Y-151571265D01*
X148548671Y-151579530D01*
X148570849Y-151590020D01*
X148591893Y-151602633D01*
X148611598Y-151617247D01*
X148629777Y-151633723D01*
X148646253Y-151651902D01*
X148660867Y-151671607D01*
X148673480Y-151692651D01*
X148683970Y-151714829D01*
X148692235Y-151737929D01*
X148698196Y-151761727D01*
X148701796Y-151785996D01*
X148703000Y-151810500D01*
X148703000Y-152735500D01*
X148701796Y-152760004D01*
X148698196Y-152784273D01*
X148692235Y-152808071D01*
X148683970Y-152831171D01*
X148673480Y-152853349D01*
X148660867Y-152874393D01*
X148646253Y-152894098D01*
X148629777Y-152912277D01*
X148611598Y-152928753D01*
X148591893Y-152943367D01*
X148570849Y-152955980D01*
X148548671Y-152966470D01*
X148525571Y-152974735D01*
X148501773Y-152980696D01*
X148477504Y-152984296D01*
X148453000Y-152985500D01*
X147203000Y-152985500D01*
X147178496Y-152984296D01*
X147154227Y-152980696D01*
X147130429Y-152974735D01*
X147107329Y-152966470D01*
X147085151Y-152955980D01*
X147064107Y-152943367D01*
X147044402Y-152928753D01*
X147026223Y-152912277D01*
X147009747Y-152894098D01*
X146995133Y-152874393D01*
X146982520Y-152853349D01*
X146972030Y-152831171D01*
X146963765Y-152808071D01*
X146957804Y-152784273D01*
X146954204Y-152760004D01*
X146953000Y-152735500D01*
X146953000Y-151810500D01*
X146954204Y-151785996D01*
X146957804Y-151761727D01*
X146963765Y-151737929D01*
X146972030Y-151714829D01*
X146982520Y-151692651D01*
X146995133Y-151671607D01*
X147009747Y-151651902D01*
X147026223Y-151633723D01*
X147044402Y-151617247D01*
X147064107Y-151602633D01*
X147085151Y-151590020D01*
X147107329Y-151579530D01*
X147130429Y-151571265D01*
X147154227Y-151565304D01*
X147178496Y-151561704D01*
X147203000Y-151560500D01*
X148453000Y-151560500D01*
X148477504Y-151561704D01*
X148477504Y-151561704D01*
G37*
D11*
X147828000Y-152273000D03*
D10*
G36*
X148477504Y-131822704D02*
G01*
X148501773Y-131826304D01*
X148525571Y-131832265D01*
X148548671Y-131840530D01*
X148570849Y-131851020D01*
X148591893Y-131863633D01*
X148611598Y-131878247D01*
X148629777Y-131894723D01*
X148646253Y-131912902D01*
X148660867Y-131932607D01*
X148673480Y-131953651D01*
X148683970Y-131975829D01*
X148692235Y-131998929D01*
X148698196Y-132022727D01*
X148701796Y-132046996D01*
X148703000Y-132071500D01*
X148703000Y-132996500D01*
X148701796Y-133021004D01*
X148698196Y-133045273D01*
X148692235Y-133069071D01*
X148683970Y-133092171D01*
X148673480Y-133114349D01*
X148660867Y-133135393D01*
X148646253Y-133155098D01*
X148629777Y-133173277D01*
X148611598Y-133189753D01*
X148591893Y-133204367D01*
X148570849Y-133216980D01*
X148548671Y-133227470D01*
X148525571Y-133235735D01*
X148501773Y-133241696D01*
X148477504Y-133245296D01*
X148453000Y-133246500D01*
X147203000Y-133246500D01*
X147178496Y-133245296D01*
X147154227Y-133241696D01*
X147130429Y-133235735D01*
X147107329Y-133227470D01*
X147085151Y-133216980D01*
X147064107Y-133204367D01*
X147044402Y-133189753D01*
X147026223Y-133173277D01*
X147009747Y-133155098D01*
X146995133Y-133135393D01*
X146982520Y-133114349D01*
X146972030Y-133092171D01*
X146963765Y-133069071D01*
X146957804Y-133045273D01*
X146954204Y-133021004D01*
X146953000Y-132996500D01*
X146953000Y-132071500D01*
X146954204Y-132046996D01*
X146957804Y-132022727D01*
X146963765Y-131998929D01*
X146972030Y-131975829D01*
X146982520Y-131953651D01*
X146995133Y-131932607D01*
X147009747Y-131912902D01*
X147026223Y-131894723D01*
X147044402Y-131878247D01*
X147064107Y-131863633D01*
X147085151Y-131851020D01*
X147107329Y-131840530D01*
X147130429Y-131832265D01*
X147154227Y-131826304D01*
X147178496Y-131822704D01*
X147203000Y-131821500D01*
X148453000Y-131821500D01*
X148477504Y-131822704D01*
X148477504Y-131822704D01*
G37*
D11*
X147828000Y-132534000D03*
D10*
G36*
X148477504Y-134797704D02*
G01*
X148501773Y-134801304D01*
X148525571Y-134807265D01*
X148548671Y-134815530D01*
X148570849Y-134826020D01*
X148591893Y-134838633D01*
X148611598Y-134853247D01*
X148629777Y-134869723D01*
X148646253Y-134887902D01*
X148660867Y-134907607D01*
X148673480Y-134928651D01*
X148683970Y-134950829D01*
X148692235Y-134973929D01*
X148698196Y-134997727D01*
X148701796Y-135021996D01*
X148703000Y-135046500D01*
X148703000Y-135971500D01*
X148701796Y-135996004D01*
X148698196Y-136020273D01*
X148692235Y-136044071D01*
X148683970Y-136067171D01*
X148673480Y-136089349D01*
X148660867Y-136110393D01*
X148646253Y-136130098D01*
X148629777Y-136148277D01*
X148611598Y-136164753D01*
X148591893Y-136179367D01*
X148570849Y-136191980D01*
X148548671Y-136202470D01*
X148525571Y-136210735D01*
X148501773Y-136216696D01*
X148477504Y-136220296D01*
X148453000Y-136221500D01*
X147203000Y-136221500D01*
X147178496Y-136220296D01*
X147154227Y-136216696D01*
X147130429Y-136210735D01*
X147107329Y-136202470D01*
X147085151Y-136191980D01*
X147064107Y-136179367D01*
X147044402Y-136164753D01*
X147026223Y-136148277D01*
X147009747Y-136130098D01*
X146995133Y-136110393D01*
X146982520Y-136089349D01*
X146972030Y-136067171D01*
X146963765Y-136044071D01*
X146957804Y-136020273D01*
X146954204Y-135996004D01*
X146953000Y-135971500D01*
X146953000Y-135046500D01*
X146954204Y-135021996D01*
X146957804Y-134997727D01*
X146963765Y-134973929D01*
X146972030Y-134950829D01*
X146982520Y-134928651D01*
X146995133Y-134907607D01*
X147009747Y-134887902D01*
X147026223Y-134869723D01*
X147044402Y-134853247D01*
X147064107Y-134838633D01*
X147085151Y-134826020D01*
X147107329Y-134815530D01*
X147130429Y-134807265D01*
X147154227Y-134801304D01*
X147178496Y-134797704D01*
X147203000Y-134796500D01*
X148453000Y-134796500D01*
X148477504Y-134797704D01*
X148477504Y-134797704D01*
G37*
D11*
X147828000Y-135509000D03*
D10*
G36*
X148477504Y-115022204D02*
G01*
X148501773Y-115025804D01*
X148525571Y-115031765D01*
X148548671Y-115040030D01*
X148570849Y-115050520D01*
X148591893Y-115063133D01*
X148611598Y-115077747D01*
X148629777Y-115094223D01*
X148646253Y-115112402D01*
X148660867Y-115132107D01*
X148673480Y-115153151D01*
X148683970Y-115175329D01*
X148692235Y-115198429D01*
X148698196Y-115222227D01*
X148701796Y-115246496D01*
X148703000Y-115271000D01*
X148703000Y-116196000D01*
X148701796Y-116220504D01*
X148698196Y-116244773D01*
X148692235Y-116268571D01*
X148683970Y-116291671D01*
X148673480Y-116313849D01*
X148660867Y-116334893D01*
X148646253Y-116354598D01*
X148629777Y-116372777D01*
X148611598Y-116389253D01*
X148591893Y-116403867D01*
X148570849Y-116416480D01*
X148548671Y-116426970D01*
X148525571Y-116435235D01*
X148501773Y-116441196D01*
X148477504Y-116444796D01*
X148453000Y-116446000D01*
X147203000Y-116446000D01*
X147178496Y-116444796D01*
X147154227Y-116441196D01*
X147130429Y-116435235D01*
X147107329Y-116426970D01*
X147085151Y-116416480D01*
X147064107Y-116403867D01*
X147044402Y-116389253D01*
X147026223Y-116372777D01*
X147009747Y-116354598D01*
X146995133Y-116334893D01*
X146982520Y-116313849D01*
X146972030Y-116291671D01*
X146963765Y-116268571D01*
X146957804Y-116244773D01*
X146954204Y-116220504D01*
X146953000Y-116196000D01*
X146953000Y-115271000D01*
X146954204Y-115246496D01*
X146957804Y-115222227D01*
X146963765Y-115198429D01*
X146972030Y-115175329D01*
X146982520Y-115153151D01*
X146995133Y-115132107D01*
X147009747Y-115112402D01*
X147026223Y-115094223D01*
X147044402Y-115077747D01*
X147064107Y-115063133D01*
X147085151Y-115050520D01*
X147107329Y-115040030D01*
X147130429Y-115031765D01*
X147154227Y-115025804D01*
X147178496Y-115022204D01*
X147203000Y-115021000D01*
X148453000Y-115021000D01*
X148477504Y-115022204D01*
X148477504Y-115022204D01*
G37*
D11*
X147828000Y-115733500D03*
D10*
G36*
X148477504Y-117997204D02*
G01*
X148501773Y-118000804D01*
X148525571Y-118006765D01*
X148548671Y-118015030D01*
X148570849Y-118025520D01*
X148591893Y-118038133D01*
X148611598Y-118052747D01*
X148629777Y-118069223D01*
X148646253Y-118087402D01*
X148660867Y-118107107D01*
X148673480Y-118128151D01*
X148683970Y-118150329D01*
X148692235Y-118173429D01*
X148698196Y-118197227D01*
X148701796Y-118221496D01*
X148703000Y-118246000D01*
X148703000Y-119171000D01*
X148701796Y-119195504D01*
X148698196Y-119219773D01*
X148692235Y-119243571D01*
X148683970Y-119266671D01*
X148673480Y-119288849D01*
X148660867Y-119309893D01*
X148646253Y-119329598D01*
X148629777Y-119347777D01*
X148611598Y-119364253D01*
X148591893Y-119378867D01*
X148570849Y-119391480D01*
X148548671Y-119401970D01*
X148525571Y-119410235D01*
X148501773Y-119416196D01*
X148477504Y-119419796D01*
X148453000Y-119421000D01*
X147203000Y-119421000D01*
X147178496Y-119419796D01*
X147154227Y-119416196D01*
X147130429Y-119410235D01*
X147107329Y-119401970D01*
X147085151Y-119391480D01*
X147064107Y-119378867D01*
X147044402Y-119364253D01*
X147026223Y-119347777D01*
X147009747Y-119329598D01*
X146995133Y-119309893D01*
X146982520Y-119288849D01*
X146972030Y-119266671D01*
X146963765Y-119243571D01*
X146957804Y-119219773D01*
X146954204Y-119195504D01*
X146953000Y-119171000D01*
X146953000Y-118246000D01*
X146954204Y-118221496D01*
X146957804Y-118197227D01*
X146963765Y-118173429D01*
X146972030Y-118150329D01*
X146982520Y-118128151D01*
X146995133Y-118107107D01*
X147009747Y-118087402D01*
X147026223Y-118069223D01*
X147044402Y-118052747D01*
X147064107Y-118038133D01*
X147085151Y-118025520D01*
X147107329Y-118015030D01*
X147130429Y-118006765D01*
X147154227Y-118000804D01*
X147178496Y-117997204D01*
X147203000Y-117996000D01*
X148453000Y-117996000D01*
X148477504Y-117997204D01*
X148477504Y-117997204D01*
G37*
D11*
X147828000Y-118708500D03*
D10*
G36*
X148477504Y-98294704D02*
G01*
X148501773Y-98298304D01*
X148525571Y-98304265D01*
X148548671Y-98312530D01*
X148570849Y-98323020D01*
X148591893Y-98335633D01*
X148611598Y-98350247D01*
X148629777Y-98366723D01*
X148646253Y-98384902D01*
X148660867Y-98404607D01*
X148673480Y-98425651D01*
X148683970Y-98447829D01*
X148692235Y-98470929D01*
X148698196Y-98494727D01*
X148701796Y-98518996D01*
X148703000Y-98543500D01*
X148703000Y-99468500D01*
X148701796Y-99493004D01*
X148698196Y-99517273D01*
X148692235Y-99541071D01*
X148683970Y-99564171D01*
X148673480Y-99586349D01*
X148660867Y-99607393D01*
X148646253Y-99627098D01*
X148629777Y-99645277D01*
X148611598Y-99661753D01*
X148591893Y-99676367D01*
X148570849Y-99688980D01*
X148548671Y-99699470D01*
X148525571Y-99707735D01*
X148501773Y-99713696D01*
X148477504Y-99717296D01*
X148453000Y-99718500D01*
X147203000Y-99718500D01*
X147178496Y-99717296D01*
X147154227Y-99713696D01*
X147130429Y-99707735D01*
X147107329Y-99699470D01*
X147085151Y-99688980D01*
X147064107Y-99676367D01*
X147044402Y-99661753D01*
X147026223Y-99645277D01*
X147009747Y-99627098D01*
X146995133Y-99607393D01*
X146982520Y-99586349D01*
X146972030Y-99564171D01*
X146963765Y-99541071D01*
X146957804Y-99517273D01*
X146954204Y-99493004D01*
X146953000Y-99468500D01*
X146953000Y-98543500D01*
X146954204Y-98518996D01*
X146957804Y-98494727D01*
X146963765Y-98470929D01*
X146972030Y-98447829D01*
X146982520Y-98425651D01*
X146995133Y-98404607D01*
X147009747Y-98384902D01*
X147026223Y-98366723D01*
X147044402Y-98350247D01*
X147064107Y-98335633D01*
X147085151Y-98323020D01*
X147107329Y-98312530D01*
X147130429Y-98304265D01*
X147154227Y-98298304D01*
X147178496Y-98294704D01*
X147203000Y-98293500D01*
X148453000Y-98293500D01*
X148477504Y-98294704D01*
X148477504Y-98294704D01*
G37*
D11*
X147828000Y-99006000D03*
D10*
G36*
X148477504Y-101269704D02*
G01*
X148501773Y-101273304D01*
X148525571Y-101279265D01*
X148548671Y-101287530D01*
X148570849Y-101298020D01*
X148591893Y-101310633D01*
X148611598Y-101325247D01*
X148629777Y-101341723D01*
X148646253Y-101359902D01*
X148660867Y-101379607D01*
X148673480Y-101400651D01*
X148683970Y-101422829D01*
X148692235Y-101445929D01*
X148698196Y-101469727D01*
X148701796Y-101493996D01*
X148703000Y-101518500D01*
X148703000Y-102443500D01*
X148701796Y-102468004D01*
X148698196Y-102492273D01*
X148692235Y-102516071D01*
X148683970Y-102539171D01*
X148673480Y-102561349D01*
X148660867Y-102582393D01*
X148646253Y-102602098D01*
X148629777Y-102620277D01*
X148611598Y-102636753D01*
X148591893Y-102651367D01*
X148570849Y-102663980D01*
X148548671Y-102674470D01*
X148525571Y-102682735D01*
X148501773Y-102688696D01*
X148477504Y-102692296D01*
X148453000Y-102693500D01*
X147203000Y-102693500D01*
X147178496Y-102692296D01*
X147154227Y-102688696D01*
X147130429Y-102682735D01*
X147107329Y-102674470D01*
X147085151Y-102663980D01*
X147064107Y-102651367D01*
X147044402Y-102636753D01*
X147026223Y-102620277D01*
X147009747Y-102602098D01*
X146995133Y-102582393D01*
X146982520Y-102561349D01*
X146972030Y-102539171D01*
X146963765Y-102516071D01*
X146957804Y-102492273D01*
X146954204Y-102468004D01*
X146953000Y-102443500D01*
X146953000Y-101518500D01*
X146954204Y-101493996D01*
X146957804Y-101469727D01*
X146963765Y-101445929D01*
X146972030Y-101422829D01*
X146982520Y-101400651D01*
X146995133Y-101379607D01*
X147009747Y-101359902D01*
X147026223Y-101341723D01*
X147044402Y-101325247D01*
X147064107Y-101310633D01*
X147085151Y-101298020D01*
X147107329Y-101287530D01*
X147130429Y-101279265D01*
X147154227Y-101273304D01*
X147178496Y-101269704D01*
X147203000Y-101268500D01*
X148453000Y-101268500D01*
X148477504Y-101269704D01*
X148477504Y-101269704D01*
G37*
D11*
X147828000Y-101981000D03*
D10*
G36*
X132767004Y-84089204D02*
G01*
X132791273Y-84092804D01*
X132815071Y-84098765D01*
X132838171Y-84107030D01*
X132860349Y-84117520D01*
X132881393Y-84130133D01*
X132901098Y-84144747D01*
X132919277Y-84161223D01*
X132935753Y-84179402D01*
X132950367Y-84199107D01*
X132962980Y-84220151D01*
X132973470Y-84242329D01*
X132981735Y-84265429D01*
X132987696Y-84289227D01*
X132991296Y-84313496D01*
X132992500Y-84338000D01*
X132992500Y-85588000D01*
X132991296Y-85612504D01*
X132987696Y-85636773D01*
X132981735Y-85660571D01*
X132973470Y-85683671D01*
X132962980Y-85705849D01*
X132950367Y-85726893D01*
X132935753Y-85746598D01*
X132919277Y-85764777D01*
X132901098Y-85781253D01*
X132881393Y-85795867D01*
X132860349Y-85808480D01*
X132838171Y-85818970D01*
X132815071Y-85827235D01*
X132791273Y-85833196D01*
X132767004Y-85836796D01*
X132742500Y-85838000D01*
X131817500Y-85838000D01*
X131792996Y-85836796D01*
X131768727Y-85833196D01*
X131744929Y-85827235D01*
X131721829Y-85818970D01*
X131699651Y-85808480D01*
X131678607Y-85795867D01*
X131658902Y-85781253D01*
X131640723Y-85764777D01*
X131624247Y-85746598D01*
X131609633Y-85726893D01*
X131597020Y-85705849D01*
X131586530Y-85683671D01*
X131578265Y-85660571D01*
X131572304Y-85636773D01*
X131568704Y-85612504D01*
X131567500Y-85588000D01*
X131567500Y-84338000D01*
X131568704Y-84313496D01*
X131572304Y-84289227D01*
X131578265Y-84265429D01*
X131586530Y-84242329D01*
X131597020Y-84220151D01*
X131609633Y-84199107D01*
X131624247Y-84179402D01*
X131640723Y-84161223D01*
X131658902Y-84144747D01*
X131678607Y-84130133D01*
X131699651Y-84117520D01*
X131721829Y-84107030D01*
X131744929Y-84098765D01*
X131768727Y-84092804D01*
X131792996Y-84089204D01*
X131817500Y-84088000D01*
X132742500Y-84088000D01*
X132767004Y-84089204D01*
X132767004Y-84089204D01*
G37*
D11*
X132280000Y-84963000D03*
D10*
G36*
X135742004Y-84089204D02*
G01*
X135766273Y-84092804D01*
X135790071Y-84098765D01*
X135813171Y-84107030D01*
X135835349Y-84117520D01*
X135856393Y-84130133D01*
X135876098Y-84144747D01*
X135894277Y-84161223D01*
X135910753Y-84179402D01*
X135925367Y-84199107D01*
X135937980Y-84220151D01*
X135948470Y-84242329D01*
X135956735Y-84265429D01*
X135962696Y-84289227D01*
X135966296Y-84313496D01*
X135967500Y-84338000D01*
X135967500Y-85588000D01*
X135966296Y-85612504D01*
X135962696Y-85636773D01*
X135956735Y-85660571D01*
X135948470Y-85683671D01*
X135937980Y-85705849D01*
X135925367Y-85726893D01*
X135910753Y-85746598D01*
X135894277Y-85764777D01*
X135876098Y-85781253D01*
X135856393Y-85795867D01*
X135835349Y-85808480D01*
X135813171Y-85818970D01*
X135790071Y-85827235D01*
X135766273Y-85833196D01*
X135742004Y-85836796D01*
X135717500Y-85838000D01*
X134792500Y-85838000D01*
X134767996Y-85836796D01*
X134743727Y-85833196D01*
X134719929Y-85827235D01*
X134696829Y-85818970D01*
X134674651Y-85808480D01*
X134653607Y-85795867D01*
X134633902Y-85781253D01*
X134615723Y-85764777D01*
X134599247Y-85746598D01*
X134584633Y-85726893D01*
X134572020Y-85705849D01*
X134561530Y-85683671D01*
X134553265Y-85660571D01*
X134547304Y-85636773D01*
X134543704Y-85612504D01*
X134542500Y-85588000D01*
X134542500Y-84338000D01*
X134543704Y-84313496D01*
X134547304Y-84289227D01*
X134553265Y-84265429D01*
X134561530Y-84242329D01*
X134572020Y-84220151D01*
X134584633Y-84199107D01*
X134599247Y-84179402D01*
X134615723Y-84161223D01*
X134633902Y-84144747D01*
X134653607Y-84130133D01*
X134674651Y-84117520D01*
X134696829Y-84107030D01*
X134719929Y-84098765D01*
X134743727Y-84092804D01*
X134767996Y-84089204D01*
X134792500Y-84088000D01*
X135717500Y-84088000D01*
X135742004Y-84089204D01*
X135742004Y-84089204D01*
G37*
D11*
X135255000Y-84963000D03*
D10*
G36*
X114606004Y-84089204D02*
G01*
X114630273Y-84092804D01*
X114654071Y-84098765D01*
X114677171Y-84107030D01*
X114699349Y-84117520D01*
X114720393Y-84130133D01*
X114740098Y-84144747D01*
X114758277Y-84161223D01*
X114774753Y-84179402D01*
X114789367Y-84199107D01*
X114801980Y-84220151D01*
X114812470Y-84242329D01*
X114820735Y-84265429D01*
X114826696Y-84289227D01*
X114830296Y-84313496D01*
X114831500Y-84338000D01*
X114831500Y-85588000D01*
X114830296Y-85612504D01*
X114826696Y-85636773D01*
X114820735Y-85660571D01*
X114812470Y-85683671D01*
X114801980Y-85705849D01*
X114789367Y-85726893D01*
X114774753Y-85746598D01*
X114758277Y-85764777D01*
X114740098Y-85781253D01*
X114720393Y-85795867D01*
X114699349Y-85808480D01*
X114677171Y-85818970D01*
X114654071Y-85827235D01*
X114630273Y-85833196D01*
X114606004Y-85836796D01*
X114581500Y-85838000D01*
X113656500Y-85838000D01*
X113631996Y-85836796D01*
X113607727Y-85833196D01*
X113583929Y-85827235D01*
X113560829Y-85818970D01*
X113538651Y-85808480D01*
X113517607Y-85795867D01*
X113497902Y-85781253D01*
X113479723Y-85764777D01*
X113463247Y-85746598D01*
X113448633Y-85726893D01*
X113436020Y-85705849D01*
X113425530Y-85683671D01*
X113417265Y-85660571D01*
X113411304Y-85636773D01*
X113407704Y-85612504D01*
X113406500Y-85588000D01*
X113406500Y-84338000D01*
X113407704Y-84313496D01*
X113411304Y-84289227D01*
X113417265Y-84265429D01*
X113425530Y-84242329D01*
X113436020Y-84220151D01*
X113448633Y-84199107D01*
X113463247Y-84179402D01*
X113479723Y-84161223D01*
X113497902Y-84144747D01*
X113517607Y-84130133D01*
X113538651Y-84117520D01*
X113560829Y-84107030D01*
X113583929Y-84098765D01*
X113607727Y-84092804D01*
X113631996Y-84089204D01*
X113656500Y-84088000D01*
X114581500Y-84088000D01*
X114606004Y-84089204D01*
X114606004Y-84089204D01*
G37*
D11*
X114119000Y-84963000D03*
D10*
G36*
X117581004Y-84089204D02*
G01*
X117605273Y-84092804D01*
X117629071Y-84098765D01*
X117652171Y-84107030D01*
X117674349Y-84117520D01*
X117695393Y-84130133D01*
X117715098Y-84144747D01*
X117733277Y-84161223D01*
X117749753Y-84179402D01*
X117764367Y-84199107D01*
X117776980Y-84220151D01*
X117787470Y-84242329D01*
X117795735Y-84265429D01*
X117801696Y-84289227D01*
X117805296Y-84313496D01*
X117806500Y-84338000D01*
X117806500Y-85588000D01*
X117805296Y-85612504D01*
X117801696Y-85636773D01*
X117795735Y-85660571D01*
X117787470Y-85683671D01*
X117776980Y-85705849D01*
X117764367Y-85726893D01*
X117749753Y-85746598D01*
X117733277Y-85764777D01*
X117715098Y-85781253D01*
X117695393Y-85795867D01*
X117674349Y-85808480D01*
X117652171Y-85818970D01*
X117629071Y-85827235D01*
X117605273Y-85833196D01*
X117581004Y-85836796D01*
X117556500Y-85838000D01*
X116631500Y-85838000D01*
X116606996Y-85836796D01*
X116582727Y-85833196D01*
X116558929Y-85827235D01*
X116535829Y-85818970D01*
X116513651Y-85808480D01*
X116492607Y-85795867D01*
X116472902Y-85781253D01*
X116454723Y-85764777D01*
X116438247Y-85746598D01*
X116423633Y-85726893D01*
X116411020Y-85705849D01*
X116400530Y-85683671D01*
X116392265Y-85660571D01*
X116386304Y-85636773D01*
X116382704Y-85612504D01*
X116381500Y-85588000D01*
X116381500Y-84338000D01*
X116382704Y-84313496D01*
X116386304Y-84289227D01*
X116392265Y-84265429D01*
X116400530Y-84242329D01*
X116411020Y-84220151D01*
X116423633Y-84199107D01*
X116438247Y-84179402D01*
X116454723Y-84161223D01*
X116472902Y-84144747D01*
X116492607Y-84130133D01*
X116513651Y-84117520D01*
X116535829Y-84107030D01*
X116558929Y-84098765D01*
X116582727Y-84092804D01*
X116606996Y-84089204D01*
X116631500Y-84088000D01*
X117556500Y-84088000D01*
X117581004Y-84089204D01*
X117581004Y-84089204D01*
G37*
D11*
X117094000Y-84963000D03*
D10*
G36*
X96699004Y-84597204D02*
G01*
X96723273Y-84600804D01*
X96747071Y-84606765D01*
X96770171Y-84615030D01*
X96792349Y-84625520D01*
X96813393Y-84638133D01*
X96833098Y-84652747D01*
X96851277Y-84669223D01*
X96867753Y-84687402D01*
X96882367Y-84707107D01*
X96894980Y-84728151D01*
X96905470Y-84750329D01*
X96913735Y-84773429D01*
X96919696Y-84797227D01*
X96923296Y-84821496D01*
X96924500Y-84846000D01*
X96924500Y-86096000D01*
X96923296Y-86120504D01*
X96919696Y-86144773D01*
X96913735Y-86168571D01*
X96905470Y-86191671D01*
X96894980Y-86213849D01*
X96882367Y-86234893D01*
X96867753Y-86254598D01*
X96851277Y-86272777D01*
X96833098Y-86289253D01*
X96813393Y-86303867D01*
X96792349Y-86316480D01*
X96770171Y-86326970D01*
X96747071Y-86335235D01*
X96723273Y-86341196D01*
X96699004Y-86344796D01*
X96674500Y-86346000D01*
X95749500Y-86346000D01*
X95724996Y-86344796D01*
X95700727Y-86341196D01*
X95676929Y-86335235D01*
X95653829Y-86326970D01*
X95631651Y-86316480D01*
X95610607Y-86303867D01*
X95590902Y-86289253D01*
X95572723Y-86272777D01*
X95556247Y-86254598D01*
X95541633Y-86234893D01*
X95529020Y-86213849D01*
X95518530Y-86191671D01*
X95510265Y-86168571D01*
X95504304Y-86144773D01*
X95500704Y-86120504D01*
X95499500Y-86096000D01*
X95499500Y-84846000D01*
X95500704Y-84821496D01*
X95504304Y-84797227D01*
X95510265Y-84773429D01*
X95518530Y-84750329D01*
X95529020Y-84728151D01*
X95541633Y-84707107D01*
X95556247Y-84687402D01*
X95572723Y-84669223D01*
X95590902Y-84652747D01*
X95610607Y-84638133D01*
X95631651Y-84625520D01*
X95653829Y-84615030D01*
X95676929Y-84606765D01*
X95700727Y-84600804D01*
X95724996Y-84597204D01*
X95749500Y-84596000D01*
X96674500Y-84596000D01*
X96699004Y-84597204D01*
X96699004Y-84597204D01*
G37*
D11*
X96212000Y-85471000D03*
D10*
G36*
X99674004Y-84597204D02*
G01*
X99698273Y-84600804D01*
X99722071Y-84606765D01*
X99745171Y-84615030D01*
X99767349Y-84625520D01*
X99788393Y-84638133D01*
X99808098Y-84652747D01*
X99826277Y-84669223D01*
X99842753Y-84687402D01*
X99857367Y-84707107D01*
X99869980Y-84728151D01*
X99880470Y-84750329D01*
X99888735Y-84773429D01*
X99894696Y-84797227D01*
X99898296Y-84821496D01*
X99899500Y-84846000D01*
X99899500Y-86096000D01*
X99898296Y-86120504D01*
X99894696Y-86144773D01*
X99888735Y-86168571D01*
X99880470Y-86191671D01*
X99869980Y-86213849D01*
X99857367Y-86234893D01*
X99842753Y-86254598D01*
X99826277Y-86272777D01*
X99808098Y-86289253D01*
X99788393Y-86303867D01*
X99767349Y-86316480D01*
X99745171Y-86326970D01*
X99722071Y-86335235D01*
X99698273Y-86341196D01*
X99674004Y-86344796D01*
X99649500Y-86346000D01*
X98724500Y-86346000D01*
X98699996Y-86344796D01*
X98675727Y-86341196D01*
X98651929Y-86335235D01*
X98628829Y-86326970D01*
X98606651Y-86316480D01*
X98585607Y-86303867D01*
X98565902Y-86289253D01*
X98547723Y-86272777D01*
X98531247Y-86254598D01*
X98516633Y-86234893D01*
X98504020Y-86213849D01*
X98493530Y-86191671D01*
X98485265Y-86168571D01*
X98479304Y-86144773D01*
X98475704Y-86120504D01*
X98474500Y-86096000D01*
X98474500Y-84846000D01*
X98475704Y-84821496D01*
X98479304Y-84797227D01*
X98485265Y-84773429D01*
X98493530Y-84750329D01*
X98504020Y-84728151D01*
X98516633Y-84707107D01*
X98531247Y-84687402D01*
X98547723Y-84669223D01*
X98565902Y-84652747D01*
X98585607Y-84638133D01*
X98606651Y-84625520D01*
X98628829Y-84615030D01*
X98651929Y-84606765D01*
X98675727Y-84600804D01*
X98699996Y-84597204D01*
X98724500Y-84596000D01*
X99649500Y-84596000D01*
X99674004Y-84597204D01*
X99674004Y-84597204D01*
G37*
D11*
X99187000Y-85471000D03*
D10*
G36*
X79681004Y-84724204D02*
G01*
X79705273Y-84727804D01*
X79729071Y-84733765D01*
X79752171Y-84742030D01*
X79774349Y-84752520D01*
X79795393Y-84765133D01*
X79815098Y-84779747D01*
X79833277Y-84796223D01*
X79849753Y-84814402D01*
X79864367Y-84834107D01*
X79876980Y-84855151D01*
X79887470Y-84877329D01*
X79895735Y-84900429D01*
X79901696Y-84924227D01*
X79905296Y-84948496D01*
X79906500Y-84973000D01*
X79906500Y-86223000D01*
X79905296Y-86247504D01*
X79901696Y-86271773D01*
X79895735Y-86295571D01*
X79887470Y-86318671D01*
X79876980Y-86340849D01*
X79864367Y-86361893D01*
X79849753Y-86381598D01*
X79833277Y-86399777D01*
X79815098Y-86416253D01*
X79795393Y-86430867D01*
X79774349Y-86443480D01*
X79752171Y-86453970D01*
X79729071Y-86462235D01*
X79705273Y-86468196D01*
X79681004Y-86471796D01*
X79656500Y-86473000D01*
X78731500Y-86473000D01*
X78706996Y-86471796D01*
X78682727Y-86468196D01*
X78658929Y-86462235D01*
X78635829Y-86453970D01*
X78613651Y-86443480D01*
X78592607Y-86430867D01*
X78572902Y-86416253D01*
X78554723Y-86399777D01*
X78538247Y-86381598D01*
X78523633Y-86361893D01*
X78511020Y-86340849D01*
X78500530Y-86318671D01*
X78492265Y-86295571D01*
X78486304Y-86271773D01*
X78482704Y-86247504D01*
X78481500Y-86223000D01*
X78481500Y-84973000D01*
X78482704Y-84948496D01*
X78486304Y-84924227D01*
X78492265Y-84900429D01*
X78500530Y-84877329D01*
X78511020Y-84855151D01*
X78523633Y-84834107D01*
X78538247Y-84814402D01*
X78554723Y-84796223D01*
X78572902Y-84779747D01*
X78592607Y-84765133D01*
X78613651Y-84752520D01*
X78635829Y-84742030D01*
X78658929Y-84733765D01*
X78682727Y-84727804D01*
X78706996Y-84724204D01*
X78731500Y-84723000D01*
X79656500Y-84723000D01*
X79681004Y-84724204D01*
X79681004Y-84724204D01*
G37*
D11*
X79194000Y-85598000D03*
D10*
G36*
X82656004Y-84724204D02*
G01*
X82680273Y-84727804D01*
X82704071Y-84733765D01*
X82727171Y-84742030D01*
X82749349Y-84752520D01*
X82770393Y-84765133D01*
X82790098Y-84779747D01*
X82808277Y-84796223D01*
X82824753Y-84814402D01*
X82839367Y-84834107D01*
X82851980Y-84855151D01*
X82862470Y-84877329D01*
X82870735Y-84900429D01*
X82876696Y-84924227D01*
X82880296Y-84948496D01*
X82881500Y-84973000D01*
X82881500Y-86223000D01*
X82880296Y-86247504D01*
X82876696Y-86271773D01*
X82870735Y-86295571D01*
X82862470Y-86318671D01*
X82851980Y-86340849D01*
X82839367Y-86361893D01*
X82824753Y-86381598D01*
X82808277Y-86399777D01*
X82790098Y-86416253D01*
X82770393Y-86430867D01*
X82749349Y-86443480D01*
X82727171Y-86453970D01*
X82704071Y-86462235D01*
X82680273Y-86468196D01*
X82656004Y-86471796D01*
X82631500Y-86473000D01*
X81706500Y-86473000D01*
X81681996Y-86471796D01*
X81657727Y-86468196D01*
X81633929Y-86462235D01*
X81610829Y-86453970D01*
X81588651Y-86443480D01*
X81567607Y-86430867D01*
X81547902Y-86416253D01*
X81529723Y-86399777D01*
X81513247Y-86381598D01*
X81498633Y-86361893D01*
X81486020Y-86340849D01*
X81475530Y-86318671D01*
X81467265Y-86295571D01*
X81461304Y-86271773D01*
X81457704Y-86247504D01*
X81456500Y-86223000D01*
X81456500Y-84973000D01*
X81457704Y-84948496D01*
X81461304Y-84924227D01*
X81467265Y-84900429D01*
X81475530Y-84877329D01*
X81486020Y-84855151D01*
X81498633Y-84834107D01*
X81513247Y-84814402D01*
X81529723Y-84796223D01*
X81547902Y-84779747D01*
X81567607Y-84765133D01*
X81588651Y-84752520D01*
X81610829Y-84742030D01*
X81633929Y-84733765D01*
X81657727Y-84727804D01*
X81681996Y-84724204D01*
X81706500Y-84723000D01*
X82631500Y-84723000D01*
X82656004Y-84724204D01*
X82656004Y-84724204D01*
G37*
D11*
X82169000Y-85598000D03*
D10*
G36*
X60250004Y-84089204D02*
G01*
X60274273Y-84092804D01*
X60298071Y-84098765D01*
X60321171Y-84107030D01*
X60343349Y-84117520D01*
X60364393Y-84130133D01*
X60384098Y-84144747D01*
X60402277Y-84161223D01*
X60418753Y-84179402D01*
X60433367Y-84199107D01*
X60445980Y-84220151D01*
X60456470Y-84242329D01*
X60464735Y-84265429D01*
X60470696Y-84289227D01*
X60474296Y-84313496D01*
X60475500Y-84338000D01*
X60475500Y-85588000D01*
X60474296Y-85612504D01*
X60470696Y-85636773D01*
X60464735Y-85660571D01*
X60456470Y-85683671D01*
X60445980Y-85705849D01*
X60433367Y-85726893D01*
X60418753Y-85746598D01*
X60402277Y-85764777D01*
X60384098Y-85781253D01*
X60364393Y-85795867D01*
X60343349Y-85808480D01*
X60321171Y-85818970D01*
X60298071Y-85827235D01*
X60274273Y-85833196D01*
X60250004Y-85836796D01*
X60225500Y-85838000D01*
X59300500Y-85838000D01*
X59275996Y-85836796D01*
X59251727Y-85833196D01*
X59227929Y-85827235D01*
X59204829Y-85818970D01*
X59182651Y-85808480D01*
X59161607Y-85795867D01*
X59141902Y-85781253D01*
X59123723Y-85764777D01*
X59107247Y-85746598D01*
X59092633Y-85726893D01*
X59080020Y-85705849D01*
X59069530Y-85683671D01*
X59061265Y-85660571D01*
X59055304Y-85636773D01*
X59051704Y-85612504D01*
X59050500Y-85588000D01*
X59050500Y-84338000D01*
X59051704Y-84313496D01*
X59055304Y-84289227D01*
X59061265Y-84265429D01*
X59069530Y-84242329D01*
X59080020Y-84220151D01*
X59092633Y-84199107D01*
X59107247Y-84179402D01*
X59123723Y-84161223D01*
X59141902Y-84144747D01*
X59161607Y-84130133D01*
X59182651Y-84117520D01*
X59204829Y-84107030D01*
X59227929Y-84098765D01*
X59251727Y-84092804D01*
X59275996Y-84089204D01*
X59300500Y-84088000D01*
X60225500Y-84088000D01*
X60250004Y-84089204D01*
X60250004Y-84089204D01*
G37*
D11*
X59763000Y-84963000D03*
D10*
G36*
X63225004Y-84089204D02*
G01*
X63249273Y-84092804D01*
X63273071Y-84098765D01*
X63296171Y-84107030D01*
X63318349Y-84117520D01*
X63339393Y-84130133D01*
X63359098Y-84144747D01*
X63377277Y-84161223D01*
X63393753Y-84179402D01*
X63408367Y-84199107D01*
X63420980Y-84220151D01*
X63431470Y-84242329D01*
X63439735Y-84265429D01*
X63445696Y-84289227D01*
X63449296Y-84313496D01*
X63450500Y-84338000D01*
X63450500Y-85588000D01*
X63449296Y-85612504D01*
X63445696Y-85636773D01*
X63439735Y-85660571D01*
X63431470Y-85683671D01*
X63420980Y-85705849D01*
X63408367Y-85726893D01*
X63393753Y-85746598D01*
X63377277Y-85764777D01*
X63359098Y-85781253D01*
X63339393Y-85795867D01*
X63318349Y-85808480D01*
X63296171Y-85818970D01*
X63273071Y-85827235D01*
X63249273Y-85833196D01*
X63225004Y-85836796D01*
X63200500Y-85838000D01*
X62275500Y-85838000D01*
X62250996Y-85836796D01*
X62226727Y-85833196D01*
X62202929Y-85827235D01*
X62179829Y-85818970D01*
X62157651Y-85808480D01*
X62136607Y-85795867D01*
X62116902Y-85781253D01*
X62098723Y-85764777D01*
X62082247Y-85746598D01*
X62067633Y-85726893D01*
X62055020Y-85705849D01*
X62044530Y-85683671D01*
X62036265Y-85660571D01*
X62030304Y-85636773D01*
X62026704Y-85612504D01*
X62025500Y-85588000D01*
X62025500Y-84338000D01*
X62026704Y-84313496D01*
X62030304Y-84289227D01*
X62036265Y-84265429D01*
X62044530Y-84242329D01*
X62055020Y-84220151D01*
X62067633Y-84199107D01*
X62082247Y-84179402D01*
X62098723Y-84161223D01*
X62116902Y-84144747D01*
X62136607Y-84130133D01*
X62157651Y-84117520D01*
X62179829Y-84107030D01*
X62202929Y-84098765D01*
X62226727Y-84092804D01*
X62250996Y-84089204D01*
X62275500Y-84088000D01*
X63200500Y-84088000D01*
X63225004Y-84089204D01*
X63225004Y-84089204D01*
G37*
D11*
X62738000Y-84963000D03*
D10*
G36*
X145737623Y-199270915D02*
G01*
X145756067Y-199273651D01*
X145774154Y-199278181D01*
X145791710Y-199284463D01*
X145808565Y-199292435D01*
X145824558Y-199302021D01*
X145839535Y-199313128D01*
X145853350Y-199325650D01*
X145865872Y-199339465D01*
X145876979Y-199354442D01*
X145886565Y-199370435D01*
X145894537Y-199387290D01*
X145900819Y-199404846D01*
X145905349Y-199422933D01*
X145908085Y-199441377D01*
X145909000Y-199460000D01*
X145909000Y-200030000D01*
X145908085Y-200048623D01*
X145905349Y-200067067D01*
X145900819Y-200085154D01*
X145894537Y-200102710D01*
X145886565Y-200119565D01*
X145876979Y-200135558D01*
X145865872Y-200150535D01*
X145853350Y-200164350D01*
X145839535Y-200176872D01*
X145824558Y-200187979D01*
X145808565Y-200197565D01*
X145791710Y-200205537D01*
X145774154Y-200211819D01*
X145756067Y-200216349D01*
X145737623Y-200219085D01*
X145719000Y-200220000D01*
X144349000Y-200220000D01*
X144330377Y-200219085D01*
X144311933Y-200216349D01*
X144293846Y-200211819D01*
X144276290Y-200205537D01*
X144259435Y-200197565D01*
X144243442Y-200187979D01*
X144228465Y-200176872D01*
X144214650Y-200164350D01*
X144202128Y-200150535D01*
X144191021Y-200135558D01*
X144181435Y-200119565D01*
X144173463Y-200102710D01*
X144167181Y-200085154D01*
X144162651Y-200067067D01*
X144159915Y-200048623D01*
X144159000Y-200030000D01*
X144159000Y-199460000D01*
X144159915Y-199441377D01*
X144162651Y-199422933D01*
X144167181Y-199404846D01*
X144173463Y-199387290D01*
X144181435Y-199370435D01*
X144191021Y-199354442D01*
X144202128Y-199339465D01*
X144214650Y-199325650D01*
X144228465Y-199313128D01*
X144243442Y-199302021D01*
X144259435Y-199292435D01*
X144276290Y-199284463D01*
X144293846Y-199278181D01*
X144311933Y-199273651D01*
X144330377Y-199270915D01*
X144349000Y-199270000D01*
X145719000Y-199270000D01*
X145737623Y-199270915D01*
X145737623Y-199270915D01*
G37*
D13*
X145034000Y-199745000D03*
D10*
G36*
X145737623Y-202370915D02*
G01*
X145756067Y-202373651D01*
X145774154Y-202378181D01*
X145791710Y-202384463D01*
X145808565Y-202392435D01*
X145824558Y-202402021D01*
X145839535Y-202413128D01*
X145853350Y-202425650D01*
X145865872Y-202439465D01*
X145876979Y-202454442D01*
X145886565Y-202470435D01*
X145894537Y-202487290D01*
X145900819Y-202504846D01*
X145905349Y-202522933D01*
X145908085Y-202541377D01*
X145909000Y-202560000D01*
X145909000Y-203130000D01*
X145908085Y-203148623D01*
X145905349Y-203167067D01*
X145900819Y-203185154D01*
X145894537Y-203202710D01*
X145886565Y-203219565D01*
X145876979Y-203235558D01*
X145865872Y-203250535D01*
X145853350Y-203264350D01*
X145839535Y-203276872D01*
X145824558Y-203287979D01*
X145808565Y-203297565D01*
X145791710Y-203305537D01*
X145774154Y-203311819D01*
X145756067Y-203316349D01*
X145737623Y-203319085D01*
X145719000Y-203320000D01*
X144349000Y-203320000D01*
X144330377Y-203319085D01*
X144311933Y-203316349D01*
X144293846Y-203311819D01*
X144276290Y-203305537D01*
X144259435Y-203297565D01*
X144243442Y-203287979D01*
X144228465Y-203276872D01*
X144214650Y-203264350D01*
X144202128Y-203250535D01*
X144191021Y-203235558D01*
X144181435Y-203219565D01*
X144173463Y-203202710D01*
X144167181Y-203185154D01*
X144162651Y-203167067D01*
X144159915Y-203148623D01*
X144159000Y-203130000D01*
X144159000Y-202560000D01*
X144159915Y-202541377D01*
X144162651Y-202522933D01*
X144167181Y-202504846D01*
X144173463Y-202487290D01*
X144181435Y-202470435D01*
X144191021Y-202454442D01*
X144202128Y-202439465D01*
X144214650Y-202425650D01*
X144228465Y-202413128D01*
X144243442Y-202402021D01*
X144259435Y-202392435D01*
X144276290Y-202384463D01*
X144293846Y-202378181D01*
X144311933Y-202373651D01*
X144330377Y-202370915D01*
X144349000Y-202370000D01*
X145719000Y-202370000D01*
X145737623Y-202370915D01*
X145737623Y-202370915D01*
G37*
D13*
X145034000Y-202845000D03*
D10*
G36*
X145737623Y-182734915D02*
G01*
X145756067Y-182737651D01*
X145774154Y-182742181D01*
X145791710Y-182748463D01*
X145808565Y-182756435D01*
X145824558Y-182766021D01*
X145839535Y-182777128D01*
X145853350Y-182789650D01*
X145865872Y-182803465D01*
X145876979Y-182818442D01*
X145886565Y-182834435D01*
X145894537Y-182851290D01*
X145900819Y-182868846D01*
X145905349Y-182886933D01*
X145908085Y-182905377D01*
X145909000Y-182924000D01*
X145909000Y-183494000D01*
X145908085Y-183512623D01*
X145905349Y-183531067D01*
X145900819Y-183549154D01*
X145894537Y-183566710D01*
X145886565Y-183583565D01*
X145876979Y-183599558D01*
X145865872Y-183614535D01*
X145853350Y-183628350D01*
X145839535Y-183640872D01*
X145824558Y-183651979D01*
X145808565Y-183661565D01*
X145791710Y-183669537D01*
X145774154Y-183675819D01*
X145756067Y-183680349D01*
X145737623Y-183683085D01*
X145719000Y-183684000D01*
X144349000Y-183684000D01*
X144330377Y-183683085D01*
X144311933Y-183680349D01*
X144293846Y-183675819D01*
X144276290Y-183669537D01*
X144259435Y-183661565D01*
X144243442Y-183651979D01*
X144228465Y-183640872D01*
X144214650Y-183628350D01*
X144202128Y-183614535D01*
X144191021Y-183599558D01*
X144181435Y-183583565D01*
X144173463Y-183566710D01*
X144167181Y-183549154D01*
X144162651Y-183531067D01*
X144159915Y-183512623D01*
X144159000Y-183494000D01*
X144159000Y-182924000D01*
X144159915Y-182905377D01*
X144162651Y-182886933D01*
X144167181Y-182868846D01*
X144173463Y-182851290D01*
X144181435Y-182834435D01*
X144191021Y-182818442D01*
X144202128Y-182803465D01*
X144214650Y-182789650D01*
X144228465Y-182777128D01*
X144243442Y-182766021D01*
X144259435Y-182756435D01*
X144276290Y-182748463D01*
X144293846Y-182742181D01*
X144311933Y-182737651D01*
X144330377Y-182734915D01*
X144349000Y-182734000D01*
X145719000Y-182734000D01*
X145737623Y-182734915D01*
X145737623Y-182734915D01*
G37*
D13*
X145034000Y-183209000D03*
D10*
G36*
X145737623Y-185834915D02*
G01*
X145756067Y-185837651D01*
X145774154Y-185842181D01*
X145791710Y-185848463D01*
X145808565Y-185856435D01*
X145824558Y-185866021D01*
X145839535Y-185877128D01*
X145853350Y-185889650D01*
X145865872Y-185903465D01*
X145876979Y-185918442D01*
X145886565Y-185934435D01*
X145894537Y-185951290D01*
X145900819Y-185968846D01*
X145905349Y-185986933D01*
X145908085Y-186005377D01*
X145909000Y-186024000D01*
X145909000Y-186594000D01*
X145908085Y-186612623D01*
X145905349Y-186631067D01*
X145900819Y-186649154D01*
X145894537Y-186666710D01*
X145886565Y-186683565D01*
X145876979Y-186699558D01*
X145865872Y-186714535D01*
X145853350Y-186728350D01*
X145839535Y-186740872D01*
X145824558Y-186751979D01*
X145808565Y-186761565D01*
X145791710Y-186769537D01*
X145774154Y-186775819D01*
X145756067Y-186780349D01*
X145737623Y-186783085D01*
X145719000Y-186784000D01*
X144349000Y-186784000D01*
X144330377Y-186783085D01*
X144311933Y-186780349D01*
X144293846Y-186775819D01*
X144276290Y-186769537D01*
X144259435Y-186761565D01*
X144243442Y-186751979D01*
X144228465Y-186740872D01*
X144214650Y-186728350D01*
X144202128Y-186714535D01*
X144191021Y-186699558D01*
X144181435Y-186683565D01*
X144173463Y-186666710D01*
X144167181Y-186649154D01*
X144162651Y-186631067D01*
X144159915Y-186612623D01*
X144159000Y-186594000D01*
X144159000Y-186024000D01*
X144159915Y-186005377D01*
X144162651Y-185986933D01*
X144167181Y-185968846D01*
X144173463Y-185951290D01*
X144181435Y-185934435D01*
X144191021Y-185918442D01*
X144202128Y-185903465D01*
X144214650Y-185889650D01*
X144228465Y-185877128D01*
X144243442Y-185866021D01*
X144259435Y-185856435D01*
X144276290Y-185848463D01*
X144293846Y-185842181D01*
X144311933Y-185837651D01*
X144330377Y-185834915D01*
X144349000Y-185834000D01*
X145719000Y-185834000D01*
X145737623Y-185834915D01*
X145737623Y-185834915D01*
G37*
D13*
X145034000Y-186309000D03*
D10*
G36*
X145737623Y-165742915D02*
G01*
X145756067Y-165745651D01*
X145774154Y-165750181D01*
X145791710Y-165756463D01*
X145808565Y-165764435D01*
X145824558Y-165774021D01*
X145839535Y-165785128D01*
X145853350Y-165797650D01*
X145865872Y-165811465D01*
X145876979Y-165826442D01*
X145886565Y-165842435D01*
X145894537Y-165859290D01*
X145900819Y-165876846D01*
X145905349Y-165894933D01*
X145908085Y-165913377D01*
X145909000Y-165932000D01*
X145909000Y-166502000D01*
X145908085Y-166520623D01*
X145905349Y-166539067D01*
X145900819Y-166557154D01*
X145894537Y-166574710D01*
X145886565Y-166591565D01*
X145876979Y-166607558D01*
X145865872Y-166622535D01*
X145853350Y-166636350D01*
X145839535Y-166648872D01*
X145824558Y-166659979D01*
X145808565Y-166669565D01*
X145791710Y-166677537D01*
X145774154Y-166683819D01*
X145756067Y-166688349D01*
X145737623Y-166691085D01*
X145719000Y-166692000D01*
X144349000Y-166692000D01*
X144330377Y-166691085D01*
X144311933Y-166688349D01*
X144293846Y-166683819D01*
X144276290Y-166677537D01*
X144259435Y-166669565D01*
X144243442Y-166659979D01*
X144228465Y-166648872D01*
X144214650Y-166636350D01*
X144202128Y-166622535D01*
X144191021Y-166607558D01*
X144181435Y-166591565D01*
X144173463Y-166574710D01*
X144167181Y-166557154D01*
X144162651Y-166539067D01*
X144159915Y-166520623D01*
X144159000Y-166502000D01*
X144159000Y-165932000D01*
X144159915Y-165913377D01*
X144162651Y-165894933D01*
X144167181Y-165876846D01*
X144173463Y-165859290D01*
X144181435Y-165842435D01*
X144191021Y-165826442D01*
X144202128Y-165811465D01*
X144214650Y-165797650D01*
X144228465Y-165785128D01*
X144243442Y-165774021D01*
X144259435Y-165764435D01*
X144276290Y-165756463D01*
X144293846Y-165750181D01*
X144311933Y-165745651D01*
X144330377Y-165742915D01*
X144349000Y-165742000D01*
X145719000Y-165742000D01*
X145737623Y-165742915D01*
X145737623Y-165742915D01*
G37*
D13*
X145034000Y-166217000D03*
D10*
G36*
X145737623Y-168842915D02*
G01*
X145756067Y-168845651D01*
X145774154Y-168850181D01*
X145791710Y-168856463D01*
X145808565Y-168864435D01*
X145824558Y-168874021D01*
X145839535Y-168885128D01*
X145853350Y-168897650D01*
X145865872Y-168911465D01*
X145876979Y-168926442D01*
X145886565Y-168942435D01*
X145894537Y-168959290D01*
X145900819Y-168976846D01*
X145905349Y-168994933D01*
X145908085Y-169013377D01*
X145909000Y-169032000D01*
X145909000Y-169602000D01*
X145908085Y-169620623D01*
X145905349Y-169639067D01*
X145900819Y-169657154D01*
X145894537Y-169674710D01*
X145886565Y-169691565D01*
X145876979Y-169707558D01*
X145865872Y-169722535D01*
X145853350Y-169736350D01*
X145839535Y-169748872D01*
X145824558Y-169759979D01*
X145808565Y-169769565D01*
X145791710Y-169777537D01*
X145774154Y-169783819D01*
X145756067Y-169788349D01*
X145737623Y-169791085D01*
X145719000Y-169792000D01*
X144349000Y-169792000D01*
X144330377Y-169791085D01*
X144311933Y-169788349D01*
X144293846Y-169783819D01*
X144276290Y-169777537D01*
X144259435Y-169769565D01*
X144243442Y-169759979D01*
X144228465Y-169748872D01*
X144214650Y-169736350D01*
X144202128Y-169722535D01*
X144191021Y-169707558D01*
X144181435Y-169691565D01*
X144173463Y-169674710D01*
X144167181Y-169657154D01*
X144162651Y-169639067D01*
X144159915Y-169620623D01*
X144159000Y-169602000D01*
X144159000Y-169032000D01*
X144159915Y-169013377D01*
X144162651Y-168994933D01*
X144167181Y-168976846D01*
X144173463Y-168959290D01*
X144181435Y-168942435D01*
X144191021Y-168926442D01*
X144202128Y-168911465D01*
X144214650Y-168897650D01*
X144228465Y-168885128D01*
X144243442Y-168874021D01*
X144259435Y-168864435D01*
X144276290Y-168856463D01*
X144293846Y-168850181D01*
X144311933Y-168845651D01*
X144330377Y-168842915D01*
X144349000Y-168842000D01*
X145719000Y-168842000D01*
X145737623Y-168842915D01*
X145737623Y-168842915D01*
G37*
D13*
X145034000Y-169317000D03*
D10*
G36*
X145737623Y-148724915D02*
G01*
X145756067Y-148727651D01*
X145774154Y-148732181D01*
X145791710Y-148738463D01*
X145808565Y-148746435D01*
X145824558Y-148756021D01*
X145839535Y-148767128D01*
X145853350Y-148779650D01*
X145865872Y-148793465D01*
X145876979Y-148808442D01*
X145886565Y-148824435D01*
X145894537Y-148841290D01*
X145900819Y-148858846D01*
X145905349Y-148876933D01*
X145908085Y-148895377D01*
X145909000Y-148914000D01*
X145909000Y-149484000D01*
X145908085Y-149502623D01*
X145905349Y-149521067D01*
X145900819Y-149539154D01*
X145894537Y-149556710D01*
X145886565Y-149573565D01*
X145876979Y-149589558D01*
X145865872Y-149604535D01*
X145853350Y-149618350D01*
X145839535Y-149630872D01*
X145824558Y-149641979D01*
X145808565Y-149651565D01*
X145791710Y-149659537D01*
X145774154Y-149665819D01*
X145756067Y-149670349D01*
X145737623Y-149673085D01*
X145719000Y-149674000D01*
X144349000Y-149674000D01*
X144330377Y-149673085D01*
X144311933Y-149670349D01*
X144293846Y-149665819D01*
X144276290Y-149659537D01*
X144259435Y-149651565D01*
X144243442Y-149641979D01*
X144228465Y-149630872D01*
X144214650Y-149618350D01*
X144202128Y-149604535D01*
X144191021Y-149589558D01*
X144181435Y-149573565D01*
X144173463Y-149556710D01*
X144167181Y-149539154D01*
X144162651Y-149521067D01*
X144159915Y-149502623D01*
X144159000Y-149484000D01*
X144159000Y-148914000D01*
X144159915Y-148895377D01*
X144162651Y-148876933D01*
X144167181Y-148858846D01*
X144173463Y-148841290D01*
X144181435Y-148824435D01*
X144191021Y-148808442D01*
X144202128Y-148793465D01*
X144214650Y-148779650D01*
X144228465Y-148767128D01*
X144243442Y-148756021D01*
X144259435Y-148746435D01*
X144276290Y-148738463D01*
X144293846Y-148732181D01*
X144311933Y-148727651D01*
X144330377Y-148724915D01*
X144349000Y-148724000D01*
X145719000Y-148724000D01*
X145737623Y-148724915D01*
X145737623Y-148724915D01*
G37*
D13*
X145034000Y-149199000D03*
D10*
G36*
X145737623Y-151824915D02*
G01*
X145756067Y-151827651D01*
X145774154Y-151832181D01*
X145791710Y-151838463D01*
X145808565Y-151846435D01*
X145824558Y-151856021D01*
X145839535Y-151867128D01*
X145853350Y-151879650D01*
X145865872Y-151893465D01*
X145876979Y-151908442D01*
X145886565Y-151924435D01*
X145894537Y-151941290D01*
X145900819Y-151958846D01*
X145905349Y-151976933D01*
X145908085Y-151995377D01*
X145909000Y-152014000D01*
X145909000Y-152584000D01*
X145908085Y-152602623D01*
X145905349Y-152621067D01*
X145900819Y-152639154D01*
X145894537Y-152656710D01*
X145886565Y-152673565D01*
X145876979Y-152689558D01*
X145865872Y-152704535D01*
X145853350Y-152718350D01*
X145839535Y-152730872D01*
X145824558Y-152741979D01*
X145808565Y-152751565D01*
X145791710Y-152759537D01*
X145774154Y-152765819D01*
X145756067Y-152770349D01*
X145737623Y-152773085D01*
X145719000Y-152774000D01*
X144349000Y-152774000D01*
X144330377Y-152773085D01*
X144311933Y-152770349D01*
X144293846Y-152765819D01*
X144276290Y-152759537D01*
X144259435Y-152751565D01*
X144243442Y-152741979D01*
X144228465Y-152730872D01*
X144214650Y-152718350D01*
X144202128Y-152704535D01*
X144191021Y-152689558D01*
X144181435Y-152673565D01*
X144173463Y-152656710D01*
X144167181Y-152639154D01*
X144162651Y-152621067D01*
X144159915Y-152602623D01*
X144159000Y-152584000D01*
X144159000Y-152014000D01*
X144159915Y-151995377D01*
X144162651Y-151976933D01*
X144167181Y-151958846D01*
X144173463Y-151941290D01*
X144181435Y-151924435D01*
X144191021Y-151908442D01*
X144202128Y-151893465D01*
X144214650Y-151879650D01*
X144228465Y-151867128D01*
X144243442Y-151856021D01*
X144259435Y-151846435D01*
X144276290Y-151838463D01*
X144293846Y-151832181D01*
X144311933Y-151827651D01*
X144330377Y-151824915D01*
X144349000Y-151824000D01*
X145719000Y-151824000D01*
X145737623Y-151824915D01*
X145737623Y-151824915D01*
G37*
D13*
X145034000Y-152299000D03*
D10*
G36*
X145737623Y-131960915D02*
G01*
X145756067Y-131963651D01*
X145774154Y-131968181D01*
X145791710Y-131974463D01*
X145808565Y-131982435D01*
X145824558Y-131992021D01*
X145839535Y-132003128D01*
X145853350Y-132015650D01*
X145865872Y-132029465D01*
X145876979Y-132044442D01*
X145886565Y-132060435D01*
X145894537Y-132077290D01*
X145900819Y-132094846D01*
X145905349Y-132112933D01*
X145908085Y-132131377D01*
X145909000Y-132150000D01*
X145909000Y-132720000D01*
X145908085Y-132738623D01*
X145905349Y-132757067D01*
X145900819Y-132775154D01*
X145894537Y-132792710D01*
X145886565Y-132809565D01*
X145876979Y-132825558D01*
X145865872Y-132840535D01*
X145853350Y-132854350D01*
X145839535Y-132866872D01*
X145824558Y-132877979D01*
X145808565Y-132887565D01*
X145791710Y-132895537D01*
X145774154Y-132901819D01*
X145756067Y-132906349D01*
X145737623Y-132909085D01*
X145719000Y-132910000D01*
X144349000Y-132910000D01*
X144330377Y-132909085D01*
X144311933Y-132906349D01*
X144293846Y-132901819D01*
X144276290Y-132895537D01*
X144259435Y-132887565D01*
X144243442Y-132877979D01*
X144228465Y-132866872D01*
X144214650Y-132854350D01*
X144202128Y-132840535D01*
X144191021Y-132825558D01*
X144181435Y-132809565D01*
X144173463Y-132792710D01*
X144167181Y-132775154D01*
X144162651Y-132757067D01*
X144159915Y-132738623D01*
X144159000Y-132720000D01*
X144159000Y-132150000D01*
X144159915Y-132131377D01*
X144162651Y-132112933D01*
X144167181Y-132094846D01*
X144173463Y-132077290D01*
X144181435Y-132060435D01*
X144191021Y-132044442D01*
X144202128Y-132029465D01*
X144214650Y-132015650D01*
X144228465Y-132003128D01*
X144243442Y-131992021D01*
X144259435Y-131982435D01*
X144276290Y-131974463D01*
X144293846Y-131968181D01*
X144311933Y-131963651D01*
X144330377Y-131960915D01*
X144349000Y-131960000D01*
X145719000Y-131960000D01*
X145737623Y-131960915D01*
X145737623Y-131960915D01*
G37*
D13*
X145034000Y-132435000D03*
D10*
G36*
X145737623Y-135060915D02*
G01*
X145756067Y-135063651D01*
X145774154Y-135068181D01*
X145791710Y-135074463D01*
X145808565Y-135082435D01*
X145824558Y-135092021D01*
X145839535Y-135103128D01*
X145853350Y-135115650D01*
X145865872Y-135129465D01*
X145876979Y-135144442D01*
X145886565Y-135160435D01*
X145894537Y-135177290D01*
X145900819Y-135194846D01*
X145905349Y-135212933D01*
X145908085Y-135231377D01*
X145909000Y-135250000D01*
X145909000Y-135820000D01*
X145908085Y-135838623D01*
X145905349Y-135857067D01*
X145900819Y-135875154D01*
X145894537Y-135892710D01*
X145886565Y-135909565D01*
X145876979Y-135925558D01*
X145865872Y-135940535D01*
X145853350Y-135954350D01*
X145839535Y-135966872D01*
X145824558Y-135977979D01*
X145808565Y-135987565D01*
X145791710Y-135995537D01*
X145774154Y-136001819D01*
X145756067Y-136006349D01*
X145737623Y-136009085D01*
X145719000Y-136010000D01*
X144349000Y-136010000D01*
X144330377Y-136009085D01*
X144311933Y-136006349D01*
X144293846Y-136001819D01*
X144276290Y-135995537D01*
X144259435Y-135987565D01*
X144243442Y-135977979D01*
X144228465Y-135966872D01*
X144214650Y-135954350D01*
X144202128Y-135940535D01*
X144191021Y-135925558D01*
X144181435Y-135909565D01*
X144173463Y-135892710D01*
X144167181Y-135875154D01*
X144162651Y-135857067D01*
X144159915Y-135838623D01*
X144159000Y-135820000D01*
X144159000Y-135250000D01*
X144159915Y-135231377D01*
X144162651Y-135212933D01*
X144167181Y-135194846D01*
X144173463Y-135177290D01*
X144181435Y-135160435D01*
X144191021Y-135144442D01*
X144202128Y-135129465D01*
X144214650Y-135115650D01*
X144228465Y-135103128D01*
X144243442Y-135092021D01*
X144259435Y-135082435D01*
X144276290Y-135074463D01*
X144293846Y-135068181D01*
X144311933Y-135063651D01*
X144330377Y-135060915D01*
X144349000Y-135060000D01*
X145719000Y-135060000D01*
X145737623Y-135060915D01*
X145737623Y-135060915D01*
G37*
D13*
X145034000Y-135535000D03*
D10*
G36*
X145737623Y-115196915D02*
G01*
X145756067Y-115199651D01*
X145774154Y-115204181D01*
X145791710Y-115210463D01*
X145808565Y-115218435D01*
X145824558Y-115228021D01*
X145839535Y-115239128D01*
X145853350Y-115251650D01*
X145865872Y-115265465D01*
X145876979Y-115280442D01*
X145886565Y-115296435D01*
X145894537Y-115313290D01*
X145900819Y-115330846D01*
X145905349Y-115348933D01*
X145908085Y-115367377D01*
X145909000Y-115386000D01*
X145909000Y-115956000D01*
X145908085Y-115974623D01*
X145905349Y-115993067D01*
X145900819Y-116011154D01*
X145894537Y-116028710D01*
X145886565Y-116045565D01*
X145876979Y-116061558D01*
X145865872Y-116076535D01*
X145853350Y-116090350D01*
X145839535Y-116102872D01*
X145824558Y-116113979D01*
X145808565Y-116123565D01*
X145791710Y-116131537D01*
X145774154Y-116137819D01*
X145756067Y-116142349D01*
X145737623Y-116145085D01*
X145719000Y-116146000D01*
X144349000Y-116146000D01*
X144330377Y-116145085D01*
X144311933Y-116142349D01*
X144293846Y-116137819D01*
X144276290Y-116131537D01*
X144259435Y-116123565D01*
X144243442Y-116113979D01*
X144228465Y-116102872D01*
X144214650Y-116090350D01*
X144202128Y-116076535D01*
X144191021Y-116061558D01*
X144181435Y-116045565D01*
X144173463Y-116028710D01*
X144167181Y-116011154D01*
X144162651Y-115993067D01*
X144159915Y-115974623D01*
X144159000Y-115956000D01*
X144159000Y-115386000D01*
X144159915Y-115367377D01*
X144162651Y-115348933D01*
X144167181Y-115330846D01*
X144173463Y-115313290D01*
X144181435Y-115296435D01*
X144191021Y-115280442D01*
X144202128Y-115265465D01*
X144214650Y-115251650D01*
X144228465Y-115239128D01*
X144243442Y-115228021D01*
X144259435Y-115218435D01*
X144276290Y-115210463D01*
X144293846Y-115204181D01*
X144311933Y-115199651D01*
X144330377Y-115196915D01*
X144349000Y-115196000D01*
X145719000Y-115196000D01*
X145737623Y-115196915D01*
X145737623Y-115196915D01*
G37*
D13*
X145034000Y-115671000D03*
D10*
G36*
X145737623Y-118296915D02*
G01*
X145756067Y-118299651D01*
X145774154Y-118304181D01*
X145791710Y-118310463D01*
X145808565Y-118318435D01*
X145824558Y-118328021D01*
X145839535Y-118339128D01*
X145853350Y-118351650D01*
X145865872Y-118365465D01*
X145876979Y-118380442D01*
X145886565Y-118396435D01*
X145894537Y-118413290D01*
X145900819Y-118430846D01*
X145905349Y-118448933D01*
X145908085Y-118467377D01*
X145909000Y-118486000D01*
X145909000Y-119056000D01*
X145908085Y-119074623D01*
X145905349Y-119093067D01*
X145900819Y-119111154D01*
X145894537Y-119128710D01*
X145886565Y-119145565D01*
X145876979Y-119161558D01*
X145865872Y-119176535D01*
X145853350Y-119190350D01*
X145839535Y-119202872D01*
X145824558Y-119213979D01*
X145808565Y-119223565D01*
X145791710Y-119231537D01*
X145774154Y-119237819D01*
X145756067Y-119242349D01*
X145737623Y-119245085D01*
X145719000Y-119246000D01*
X144349000Y-119246000D01*
X144330377Y-119245085D01*
X144311933Y-119242349D01*
X144293846Y-119237819D01*
X144276290Y-119231537D01*
X144259435Y-119223565D01*
X144243442Y-119213979D01*
X144228465Y-119202872D01*
X144214650Y-119190350D01*
X144202128Y-119176535D01*
X144191021Y-119161558D01*
X144181435Y-119145565D01*
X144173463Y-119128710D01*
X144167181Y-119111154D01*
X144162651Y-119093067D01*
X144159915Y-119074623D01*
X144159000Y-119056000D01*
X144159000Y-118486000D01*
X144159915Y-118467377D01*
X144162651Y-118448933D01*
X144167181Y-118430846D01*
X144173463Y-118413290D01*
X144181435Y-118396435D01*
X144191021Y-118380442D01*
X144202128Y-118365465D01*
X144214650Y-118351650D01*
X144228465Y-118339128D01*
X144243442Y-118328021D01*
X144259435Y-118318435D01*
X144276290Y-118310463D01*
X144293846Y-118304181D01*
X144311933Y-118299651D01*
X144330377Y-118296915D01*
X144349000Y-118296000D01*
X145719000Y-118296000D01*
X145737623Y-118296915D01*
X145737623Y-118296915D01*
G37*
D13*
X145034000Y-118771000D03*
D10*
G36*
X145737623Y-98178915D02*
G01*
X145756067Y-98181651D01*
X145774154Y-98186181D01*
X145791710Y-98192463D01*
X145808565Y-98200435D01*
X145824558Y-98210021D01*
X145839535Y-98221128D01*
X145853350Y-98233650D01*
X145865872Y-98247465D01*
X145876979Y-98262442D01*
X145886565Y-98278435D01*
X145894537Y-98295290D01*
X145900819Y-98312846D01*
X145905349Y-98330933D01*
X145908085Y-98349377D01*
X145909000Y-98368000D01*
X145909000Y-98938000D01*
X145908085Y-98956623D01*
X145905349Y-98975067D01*
X145900819Y-98993154D01*
X145894537Y-99010710D01*
X145886565Y-99027565D01*
X145876979Y-99043558D01*
X145865872Y-99058535D01*
X145853350Y-99072350D01*
X145839535Y-99084872D01*
X145824558Y-99095979D01*
X145808565Y-99105565D01*
X145791710Y-99113537D01*
X145774154Y-99119819D01*
X145756067Y-99124349D01*
X145737623Y-99127085D01*
X145719000Y-99128000D01*
X144349000Y-99128000D01*
X144330377Y-99127085D01*
X144311933Y-99124349D01*
X144293846Y-99119819D01*
X144276290Y-99113537D01*
X144259435Y-99105565D01*
X144243442Y-99095979D01*
X144228465Y-99084872D01*
X144214650Y-99072350D01*
X144202128Y-99058535D01*
X144191021Y-99043558D01*
X144181435Y-99027565D01*
X144173463Y-99010710D01*
X144167181Y-98993154D01*
X144162651Y-98975067D01*
X144159915Y-98956623D01*
X144159000Y-98938000D01*
X144159000Y-98368000D01*
X144159915Y-98349377D01*
X144162651Y-98330933D01*
X144167181Y-98312846D01*
X144173463Y-98295290D01*
X144181435Y-98278435D01*
X144191021Y-98262442D01*
X144202128Y-98247465D01*
X144214650Y-98233650D01*
X144228465Y-98221128D01*
X144243442Y-98210021D01*
X144259435Y-98200435D01*
X144276290Y-98192463D01*
X144293846Y-98186181D01*
X144311933Y-98181651D01*
X144330377Y-98178915D01*
X144349000Y-98178000D01*
X145719000Y-98178000D01*
X145737623Y-98178915D01*
X145737623Y-98178915D01*
G37*
D13*
X145034000Y-98653000D03*
D10*
G36*
X145737623Y-101278915D02*
G01*
X145756067Y-101281651D01*
X145774154Y-101286181D01*
X145791710Y-101292463D01*
X145808565Y-101300435D01*
X145824558Y-101310021D01*
X145839535Y-101321128D01*
X145853350Y-101333650D01*
X145865872Y-101347465D01*
X145876979Y-101362442D01*
X145886565Y-101378435D01*
X145894537Y-101395290D01*
X145900819Y-101412846D01*
X145905349Y-101430933D01*
X145908085Y-101449377D01*
X145909000Y-101468000D01*
X145909000Y-102038000D01*
X145908085Y-102056623D01*
X145905349Y-102075067D01*
X145900819Y-102093154D01*
X145894537Y-102110710D01*
X145886565Y-102127565D01*
X145876979Y-102143558D01*
X145865872Y-102158535D01*
X145853350Y-102172350D01*
X145839535Y-102184872D01*
X145824558Y-102195979D01*
X145808565Y-102205565D01*
X145791710Y-102213537D01*
X145774154Y-102219819D01*
X145756067Y-102224349D01*
X145737623Y-102227085D01*
X145719000Y-102228000D01*
X144349000Y-102228000D01*
X144330377Y-102227085D01*
X144311933Y-102224349D01*
X144293846Y-102219819D01*
X144276290Y-102213537D01*
X144259435Y-102205565D01*
X144243442Y-102195979D01*
X144228465Y-102184872D01*
X144214650Y-102172350D01*
X144202128Y-102158535D01*
X144191021Y-102143558D01*
X144181435Y-102127565D01*
X144173463Y-102110710D01*
X144167181Y-102093154D01*
X144162651Y-102075067D01*
X144159915Y-102056623D01*
X144159000Y-102038000D01*
X144159000Y-101468000D01*
X144159915Y-101449377D01*
X144162651Y-101430933D01*
X144167181Y-101412846D01*
X144173463Y-101395290D01*
X144181435Y-101378435D01*
X144191021Y-101362442D01*
X144202128Y-101347465D01*
X144214650Y-101333650D01*
X144228465Y-101321128D01*
X144243442Y-101310021D01*
X144259435Y-101300435D01*
X144276290Y-101292463D01*
X144293846Y-101286181D01*
X144311933Y-101281651D01*
X144330377Y-101278915D01*
X144349000Y-101278000D01*
X145719000Y-101278000D01*
X145737623Y-101278915D01*
X145737623Y-101278915D01*
G37*
D13*
X145034000Y-101753000D03*
D10*
G36*
X132484623Y-87136915D02*
G01*
X132503067Y-87139651D01*
X132521154Y-87144181D01*
X132538710Y-87150463D01*
X132555565Y-87158435D01*
X132571558Y-87168021D01*
X132586535Y-87179128D01*
X132600350Y-87191650D01*
X132612872Y-87205465D01*
X132623979Y-87220442D01*
X132633565Y-87236435D01*
X132641537Y-87253290D01*
X132647819Y-87270846D01*
X132652349Y-87288933D01*
X132655085Y-87307377D01*
X132656000Y-87326000D01*
X132656000Y-88696000D01*
X132655085Y-88714623D01*
X132652349Y-88733067D01*
X132647819Y-88751154D01*
X132641537Y-88768710D01*
X132633565Y-88785565D01*
X132623979Y-88801558D01*
X132612872Y-88816535D01*
X132600350Y-88830350D01*
X132586535Y-88842872D01*
X132571558Y-88853979D01*
X132555565Y-88863565D01*
X132538710Y-88871537D01*
X132521154Y-88877819D01*
X132503067Y-88882349D01*
X132484623Y-88885085D01*
X132466000Y-88886000D01*
X131896000Y-88886000D01*
X131877377Y-88885085D01*
X131858933Y-88882349D01*
X131840846Y-88877819D01*
X131823290Y-88871537D01*
X131806435Y-88863565D01*
X131790442Y-88853979D01*
X131775465Y-88842872D01*
X131761650Y-88830350D01*
X131749128Y-88816535D01*
X131738021Y-88801558D01*
X131728435Y-88785565D01*
X131720463Y-88768710D01*
X131714181Y-88751154D01*
X131709651Y-88733067D01*
X131706915Y-88714623D01*
X131706000Y-88696000D01*
X131706000Y-87326000D01*
X131706915Y-87307377D01*
X131709651Y-87288933D01*
X131714181Y-87270846D01*
X131720463Y-87253290D01*
X131728435Y-87236435D01*
X131738021Y-87220442D01*
X131749128Y-87205465D01*
X131761650Y-87191650D01*
X131775465Y-87179128D01*
X131790442Y-87168021D01*
X131806435Y-87158435D01*
X131823290Y-87150463D01*
X131840846Y-87144181D01*
X131858933Y-87139651D01*
X131877377Y-87136915D01*
X131896000Y-87136000D01*
X132466000Y-87136000D01*
X132484623Y-87136915D01*
X132484623Y-87136915D01*
G37*
D13*
X132181000Y-88011000D03*
D10*
G36*
X135584623Y-87136915D02*
G01*
X135603067Y-87139651D01*
X135621154Y-87144181D01*
X135638710Y-87150463D01*
X135655565Y-87158435D01*
X135671558Y-87168021D01*
X135686535Y-87179128D01*
X135700350Y-87191650D01*
X135712872Y-87205465D01*
X135723979Y-87220442D01*
X135733565Y-87236435D01*
X135741537Y-87253290D01*
X135747819Y-87270846D01*
X135752349Y-87288933D01*
X135755085Y-87307377D01*
X135756000Y-87326000D01*
X135756000Y-88696000D01*
X135755085Y-88714623D01*
X135752349Y-88733067D01*
X135747819Y-88751154D01*
X135741537Y-88768710D01*
X135733565Y-88785565D01*
X135723979Y-88801558D01*
X135712872Y-88816535D01*
X135700350Y-88830350D01*
X135686535Y-88842872D01*
X135671558Y-88853979D01*
X135655565Y-88863565D01*
X135638710Y-88871537D01*
X135621154Y-88877819D01*
X135603067Y-88882349D01*
X135584623Y-88885085D01*
X135566000Y-88886000D01*
X134996000Y-88886000D01*
X134977377Y-88885085D01*
X134958933Y-88882349D01*
X134940846Y-88877819D01*
X134923290Y-88871537D01*
X134906435Y-88863565D01*
X134890442Y-88853979D01*
X134875465Y-88842872D01*
X134861650Y-88830350D01*
X134849128Y-88816535D01*
X134838021Y-88801558D01*
X134828435Y-88785565D01*
X134820463Y-88768710D01*
X134814181Y-88751154D01*
X134809651Y-88733067D01*
X134806915Y-88714623D01*
X134806000Y-88696000D01*
X134806000Y-87326000D01*
X134806915Y-87307377D01*
X134809651Y-87288933D01*
X134814181Y-87270846D01*
X134820463Y-87253290D01*
X134828435Y-87236435D01*
X134838021Y-87220442D01*
X134849128Y-87205465D01*
X134861650Y-87191650D01*
X134875465Y-87179128D01*
X134890442Y-87168021D01*
X134906435Y-87158435D01*
X134923290Y-87150463D01*
X134940846Y-87144181D01*
X134958933Y-87139651D01*
X134977377Y-87136915D01*
X134996000Y-87136000D01*
X135566000Y-87136000D01*
X135584623Y-87136915D01*
X135584623Y-87136915D01*
G37*
D13*
X135281000Y-88011000D03*
D10*
G36*
X114297623Y-87136915D02*
G01*
X114316067Y-87139651D01*
X114334154Y-87144181D01*
X114351710Y-87150463D01*
X114368565Y-87158435D01*
X114384558Y-87168021D01*
X114399535Y-87179128D01*
X114413350Y-87191650D01*
X114425872Y-87205465D01*
X114436979Y-87220442D01*
X114446565Y-87236435D01*
X114454537Y-87253290D01*
X114460819Y-87270846D01*
X114465349Y-87288933D01*
X114468085Y-87307377D01*
X114469000Y-87326000D01*
X114469000Y-88696000D01*
X114468085Y-88714623D01*
X114465349Y-88733067D01*
X114460819Y-88751154D01*
X114454537Y-88768710D01*
X114446565Y-88785565D01*
X114436979Y-88801558D01*
X114425872Y-88816535D01*
X114413350Y-88830350D01*
X114399535Y-88842872D01*
X114384558Y-88853979D01*
X114368565Y-88863565D01*
X114351710Y-88871537D01*
X114334154Y-88877819D01*
X114316067Y-88882349D01*
X114297623Y-88885085D01*
X114279000Y-88886000D01*
X113709000Y-88886000D01*
X113690377Y-88885085D01*
X113671933Y-88882349D01*
X113653846Y-88877819D01*
X113636290Y-88871537D01*
X113619435Y-88863565D01*
X113603442Y-88853979D01*
X113588465Y-88842872D01*
X113574650Y-88830350D01*
X113562128Y-88816535D01*
X113551021Y-88801558D01*
X113541435Y-88785565D01*
X113533463Y-88768710D01*
X113527181Y-88751154D01*
X113522651Y-88733067D01*
X113519915Y-88714623D01*
X113519000Y-88696000D01*
X113519000Y-87326000D01*
X113519915Y-87307377D01*
X113522651Y-87288933D01*
X113527181Y-87270846D01*
X113533463Y-87253290D01*
X113541435Y-87236435D01*
X113551021Y-87220442D01*
X113562128Y-87205465D01*
X113574650Y-87191650D01*
X113588465Y-87179128D01*
X113603442Y-87168021D01*
X113619435Y-87158435D01*
X113636290Y-87150463D01*
X113653846Y-87144181D01*
X113671933Y-87139651D01*
X113690377Y-87136915D01*
X113709000Y-87136000D01*
X114279000Y-87136000D01*
X114297623Y-87136915D01*
X114297623Y-87136915D01*
G37*
D13*
X113994000Y-88011000D03*
D10*
G36*
X117397623Y-87136915D02*
G01*
X117416067Y-87139651D01*
X117434154Y-87144181D01*
X117451710Y-87150463D01*
X117468565Y-87158435D01*
X117484558Y-87168021D01*
X117499535Y-87179128D01*
X117513350Y-87191650D01*
X117525872Y-87205465D01*
X117536979Y-87220442D01*
X117546565Y-87236435D01*
X117554537Y-87253290D01*
X117560819Y-87270846D01*
X117565349Y-87288933D01*
X117568085Y-87307377D01*
X117569000Y-87326000D01*
X117569000Y-88696000D01*
X117568085Y-88714623D01*
X117565349Y-88733067D01*
X117560819Y-88751154D01*
X117554537Y-88768710D01*
X117546565Y-88785565D01*
X117536979Y-88801558D01*
X117525872Y-88816535D01*
X117513350Y-88830350D01*
X117499535Y-88842872D01*
X117484558Y-88853979D01*
X117468565Y-88863565D01*
X117451710Y-88871537D01*
X117434154Y-88877819D01*
X117416067Y-88882349D01*
X117397623Y-88885085D01*
X117379000Y-88886000D01*
X116809000Y-88886000D01*
X116790377Y-88885085D01*
X116771933Y-88882349D01*
X116753846Y-88877819D01*
X116736290Y-88871537D01*
X116719435Y-88863565D01*
X116703442Y-88853979D01*
X116688465Y-88842872D01*
X116674650Y-88830350D01*
X116662128Y-88816535D01*
X116651021Y-88801558D01*
X116641435Y-88785565D01*
X116633463Y-88768710D01*
X116627181Y-88751154D01*
X116622651Y-88733067D01*
X116619915Y-88714623D01*
X116619000Y-88696000D01*
X116619000Y-87326000D01*
X116619915Y-87307377D01*
X116622651Y-87288933D01*
X116627181Y-87270846D01*
X116633463Y-87253290D01*
X116641435Y-87236435D01*
X116651021Y-87220442D01*
X116662128Y-87205465D01*
X116674650Y-87191650D01*
X116688465Y-87179128D01*
X116703442Y-87168021D01*
X116719435Y-87158435D01*
X116736290Y-87150463D01*
X116753846Y-87144181D01*
X116771933Y-87139651D01*
X116790377Y-87136915D01*
X116809000Y-87136000D01*
X117379000Y-87136000D01*
X117397623Y-87136915D01*
X117397623Y-87136915D01*
G37*
D13*
X117094000Y-88011000D03*
D10*
G36*
X96416623Y-87390915D02*
G01*
X96435067Y-87393651D01*
X96453154Y-87398181D01*
X96470710Y-87404463D01*
X96487565Y-87412435D01*
X96503558Y-87422021D01*
X96518535Y-87433128D01*
X96532350Y-87445650D01*
X96544872Y-87459465D01*
X96555979Y-87474442D01*
X96565565Y-87490435D01*
X96573537Y-87507290D01*
X96579819Y-87524846D01*
X96584349Y-87542933D01*
X96587085Y-87561377D01*
X96588000Y-87580000D01*
X96588000Y-88950000D01*
X96587085Y-88968623D01*
X96584349Y-88987067D01*
X96579819Y-89005154D01*
X96573537Y-89022710D01*
X96565565Y-89039565D01*
X96555979Y-89055558D01*
X96544872Y-89070535D01*
X96532350Y-89084350D01*
X96518535Y-89096872D01*
X96503558Y-89107979D01*
X96487565Y-89117565D01*
X96470710Y-89125537D01*
X96453154Y-89131819D01*
X96435067Y-89136349D01*
X96416623Y-89139085D01*
X96398000Y-89140000D01*
X95828000Y-89140000D01*
X95809377Y-89139085D01*
X95790933Y-89136349D01*
X95772846Y-89131819D01*
X95755290Y-89125537D01*
X95738435Y-89117565D01*
X95722442Y-89107979D01*
X95707465Y-89096872D01*
X95693650Y-89084350D01*
X95681128Y-89070535D01*
X95670021Y-89055558D01*
X95660435Y-89039565D01*
X95652463Y-89022710D01*
X95646181Y-89005154D01*
X95641651Y-88987067D01*
X95638915Y-88968623D01*
X95638000Y-88950000D01*
X95638000Y-87580000D01*
X95638915Y-87561377D01*
X95641651Y-87542933D01*
X95646181Y-87524846D01*
X95652463Y-87507290D01*
X95660435Y-87490435D01*
X95670021Y-87474442D01*
X95681128Y-87459465D01*
X95693650Y-87445650D01*
X95707465Y-87433128D01*
X95722442Y-87422021D01*
X95738435Y-87412435D01*
X95755290Y-87404463D01*
X95772846Y-87398181D01*
X95790933Y-87393651D01*
X95809377Y-87390915D01*
X95828000Y-87390000D01*
X96398000Y-87390000D01*
X96416623Y-87390915D01*
X96416623Y-87390915D01*
G37*
D13*
X96113000Y-88265000D03*
D10*
G36*
X99516623Y-87390915D02*
G01*
X99535067Y-87393651D01*
X99553154Y-87398181D01*
X99570710Y-87404463D01*
X99587565Y-87412435D01*
X99603558Y-87422021D01*
X99618535Y-87433128D01*
X99632350Y-87445650D01*
X99644872Y-87459465D01*
X99655979Y-87474442D01*
X99665565Y-87490435D01*
X99673537Y-87507290D01*
X99679819Y-87524846D01*
X99684349Y-87542933D01*
X99687085Y-87561377D01*
X99688000Y-87580000D01*
X99688000Y-88950000D01*
X99687085Y-88968623D01*
X99684349Y-88987067D01*
X99679819Y-89005154D01*
X99673537Y-89022710D01*
X99665565Y-89039565D01*
X99655979Y-89055558D01*
X99644872Y-89070535D01*
X99632350Y-89084350D01*
X99618535Y-89096872D01*
X99603558Y-89107979D01*
X99587565Y-89117565D01*
X99570710Y-89125537D01*
X99553154Y-89131819D01*
X99535067Y-89136349D01*
X99516623Y-89139085D01*
X99498000Y-89140000D01*
X98928000Y-89140000D01*
X98909377Y-89139085D01*
X98890933Y-89136349D01*
X98872846Y-89131819D01*
X98855290Y-89125537D01*
X98838435Y-89117565D01*
X98822442Y-89107979D01*
X98807465Y-89096872D01*
X98793650Y-89084350D01*
X98781128Y-89070535D01*
X98770021Y-89055558D01*
X98760435Y-89039565D01*
X98752463Y-89022710D01*
X98746181Y-89005154D01*
X98741651Y-88987067D01*
X98738915Y-88968623D01*
X98738000Y-88950000D01*
X98738000Y-87580000D01*
X98738915Y-87561377D01*
X98741651Y-87542933D01*
X98746181Y-87524846D01*
X98752463Y-87507290D01*
X98760435Y-87490435D01*
X98770021Y-87474442D01*
X98781128Y-87459465D01*
X98793650Y-87445650D01*
X98807465Y-87433128D01*
X98822442Y-87422021D01*
X98838435Y-87412435D01*
X98855290Y-87404463D01*
X98872846Y-87398181D01*
X98890933Y-87393651D01*
X98909377Y-87390915D01*
X98928000Y-87390000D01*
X99498000Y-87390000D01*
X99516623Y-87390915D01*
X99516623Y-87390915D01*
G37*
D13*
X99213000Y-88265000D03*
D10*
G36*
X78128623Y-87390915D02*
G01*
X78147067Y-87393651D01*
X78165154Y-87398181D01*
X78182710Y-87404463D01*
X78199565Y-87412435D01*
X78215558Y-87422021D01*
X78230535Y-87433128D01*
X78244350Y-87445650D01*
X78256872Y-87459465D01*
X78267979Y-87474442D01*
X78277565Y-87490435D01*
X78285537Y-87507290D01*
X78291819Y-87524846D01*
X78296349Y-87542933D01*
X78299085Y-87561377D01*
X78300000Y-87580000D01*
X78300000Y-88950000D01*
X78299085Y-88968623D01*
X78296349Y-88987067D01*
X78291819Y-89005154D01*
X78285537Y-89022710D01*
X78277565Y-89039565D01*
X78267979Y-89055558D01*
X78256872Y-89070535D01*
X78244350Y-89084350D01*
X78230535Y-89096872D01*
X78215558Y-89107979D01*
X78199565Y-89117565D01*
X78182710Y-89125537D01*
X78165154Y-89131819D01*
X78147067Y-89136349D01*
X78128623Y-89139085D01*
X78110000Y-89140000D01*
X77540000Y-89140000D01*
X77521377Y-89139085D01*
X77502933Y-89136349D01*
X77484846Y-89131819D01*
X77467290Y-89125537D01*
X77450435Y-89117565D01*
X77434442Y-89107979D01*
X77419465Y-89096872D01*
X77405650Y-89084350D01*
X77393128Y-89070535D01*
X77382021Y-89055558D01*
X77372435Y-89039565D01*
X77364463Y-89022710D01*
X77358181Y-89005154D01*
X77353651Y-88987067D01*
X77350915Y-88968623D01*
X77350000Y-88950000D01*
X77350000Y-87580000D01*
X77350915Y-87561377D01*
X77353651Y-87542933D01*
X77358181Y-87524846D01*
X77364463Y-87507290D01*
X77372435Y-87490435D01*
X77382021Y-87474442D01*
X77393128Y-87459465D01*
X77405650Y-87445650D01*
X77419465Y-87433128D01*
X77434442Y-87422021D01*
X77450435Y-87412435D01*
X77467290Y-87404463D01*
X77484846Y-87398181D01*
X77502933Y-87393651D01*
X77521377Y-87390915D01*
X77540000Y-87390000D01*
X78110000Y-87390000D01*
X78128623Y-87390915D01*
X78128623Y-87390915D01*
G37*
D13*
X77825000Y-88265000D03*
D10*
G36*
X81228623Y-87390915D02*
G01*
X81247067Y-87393651D01*
X81265154Y-87398181D01*
X81282710Y-87404463D01*
X81299565Y-87412435D01*
X81315558Y-87422021D01*
X81330535Y-87433128D01*
X81344350Y-87445650D01*
X81356872Y-87459465D01*
X81367979Y-87474442D01*
X81377565Y-87490435D01*
X81385537Y-87507290D01*
X81391819Y-87524846D01*
X81396349Y-87542933D01*
X81399085Y-87561377D01*
X81400000Y-87580000D01*
X81400000Y-88950000D01*
X81399085Y-88968623D01*
X81396349Y-88987067D01*
X81391819Y-89005154D01*
X81385537Y-89022710D01*
X81377565Y-89039565D01*
X81367979Y-89055558D01*
X81356872Y-89070535D01*
X81344350Y-89084350D01*
X81330535Y-89096872D01*
X81315558Y-89107979D01*
X81299565Y-89117565D01*
X81282710Y-89125537D01*
X81265154Y-89131819D01*
X81247067Y-89136349D01*
X81228623Y-89139085D01*
X81210000Y-89140000D01*
X80640000Y-89140000D01*
X80621377Y-89139085D01*
X80602933Y-89136349D01*
X80584846Y-89131819D01*
X80567290Y-89125537D01*
X80550435Y-89117565D01*
X80534442Y-89107979D01*
X80519465Y-89096872D01*
X80505650Y-89084350D01*
X80493128Y-89070535D01*
X80482021Y-89055558D01*
X80472435Y-89039565D01*
X80464463Y-89022710D01*
X80458181Y-89005154D01*
X80453651Y-88987067D01*
X80450915Y-88968623D01*
X80450000Y-88950000D01*
X80450000Y-87580000D01*
X80450915Y-87561377D01*
X80453651Y-87542933D01*
X80458181Y-87524846D01*
X80464463Y-87507290D01*
X80472435Y-87490435D01*
X80482021Y-87474442D01*
X80493128Y-87459465D01*
X80505650Y-87445650D01*
X80519465Y-87433128D01*
X80534442Y-87422021D01*
X80550435Y-87412435D01*
X80567290Y-87404463D01*
X80584846Y-87398181D01*
X80602933Y-87393651D01*
X80621377Y-87390915D01*
X80640000Y-87390000D01*
X81210000Y-87390000D01*
X81228623Y-87390915D01*
X81228623Y-87390915D01*
G37*
D13*
X80925000Y-88265000D03*
D10*
G36*
X59967623Y-87517915D02*
G01*
X59986067Y-87520651D01*
X60004154Y-87525181D01*
X60021710Y-87531463D01*
X60038565Y-87539435D01*
X60054558Y-87549021D01*
X60069535Y-87560128D01*
X60083350Y-87572650D01*
X60095872Y-87586465D01*
X60106979Y-87601442D01*
X60116565Y-87617435D01*
X60124537Y-87634290D01*
X60130819Y-87651846D01*
X60135349Y-87669933D01*
X60138085Y-87688377D01*
X60139000Y-87707000D01*
X60139000Y-89077000D01*
X60138085Y-89095623D01*
X60135349Y-89114067D01*
X60130819Y-89132154D01*
X60124537Y-89149710D01*
X60116565Y-89166565D01*
X60106979Y-89182558D01*
X60095872Y-89197535D01*
X60083350Y-89211350D01*
X60069535Y-89223872D01*
X60054558Y-89234979D01*
X60038565Y-89244565D01*
X60021710Y-89252537D01*
X60004154Y-89258819D01*
X59986067Y-89263349D01*
X59967623Y-89266085D01*
X59949000Y-89267000D01*
X59379000Y-89267000D01*
X59360377Y-89266085D01*
X59341933Y-89263349D01*
X59323846Y-89258819D01*
X59306290Y-89252537D01*
X59289435Y-89244565D01*
X59273442Y-89234979D01*
X59258465Y-89223872D01*
X59244650Y-89211350D01*
X59232128Y-89197535D01*
X59221021Y-89182558D01*
X59211435Y-89166565D01*
X59203463Y-89149710D01*
X59197181Y-89132154D01*
X59192651Y-89114067D01*
X59189915Y-89095623D01*
X59189000Y-89077000D01*
X59189000Y-87707000D01*
X59189915Y-87688377D01*
X59192651Y-87669933D01*
X59197181Y-87651846D01*
X59203463Y-87634290D01*
X59211435Y-87617435D01*
X59221021Y-87601442D01*
X59232128Y-87586465D01*
X59244650Y-87572650D01*
X59258465Y-87560128D01*
X59273442Y-87549021D01*
X59289435Y-87539435D01*
X59306290Y-87531463D01*
X59323846Y-87525181D01*
X59341933Y-87520651D01*
X59360377Y-87517915D01*
X59379000Y-87517000D01*
X59949000Y-87517000D01*
X59967623Y-87517915D01*
X59967623Y-87517915D01*
G37*
D13*
X59664000Y-88392000D03*
D10*
G36*
X63067623Y-87517915D02*
G01*
X63086067Y-87520651D01*
X63104154Y-87525181D01*
X63121710Y-87531463D01*
X63138565Y-87539435D01*
X63154558Y-87549021D01*
X63169535Y-87560128D01*
X63183350Y-87572650D01*
X63195872Y-87586465D01*
X63206979Y-87601442D01*
X63216565Y-87617435D01*
X63224537Y-87634290D01*
X63230819Y-87651846D01*
X63235349Y-87669933D01*
X63238085Y-87688377D01*
X63239000Y-87707000D01*
X63239000Y-89077000D01*
X63238085Y-89095623D01*
X63235349Y-89114067D01*
X63230819Y-89132154D01*
X63224537Y-89149710D01*
X63216565Y-89166565D01*
X63206979Y-89182558D01*
X63195872Y-89197535D01*
X63183350Y-89211350D01*
X63169535Y-89223872D01*
X63154558Y-89234979D01*
X63138565Y-89244565D01*
X63121710Y-89252537D01*
X63104154Y-89258819D01*
X63086067Y-89263349D01*
X63067623Y-89266085D01*
X63049000Y-89267000D01*
X62479000Y-89267000D01*
X62460377Y-89266085D01*
X62441933Y-89263349D01*
X62423846Y-89258819D01*
X62406290Y-89252537D01*
X62389435Y-89244565D01*
X62373442Y-89234979D01*
X62358465Y-89223872D01*
X62344650Y-89211350D01*
X62332128Y-89197535D01*
X62321021Y-89182558D01*
X62311435Y-89166565D01*
X62303463Y-89149710D01*
X62297181Y-89132154D01*
X62292651Y-89114067D01*
X62289915Y-89095623D01*
X62289000Y-89077000D01*
X62289000Y-87707000D01*
X62289915Y-87688377D01*
X62292651Y-87669933D01*
X62297181Y-87651846D01*
X62303463Y-87634290D01*
X62311435Y-87617435D01*
X62321021Y-87601442D01*
X62332128Y-87586465D01*
X62344650Y-87572650D01*
X62358465Y-87560128D01*
X62373442Y-87549021D01*
X62389435Y-87539435D01*
X62406290Y-87531463D01*
X62423846Y-87525181D01*
X62441933Y-87520651D01*
X62460377Y-87517915D01*
X62479000Y-87517000D01*
X63049000Y-87517000D01*
X63067623Y-87517915D01*
X63067623Y-87517915D01*
G37*
D13*
X62764000Y-88392000D03*
M02*
