M48
; DRILL file {KiCad (5.1.2)-1} date 29.06.2020 09:09:20
; FORMAT={-:-/ absolute / metric / decimal}
; #@! TF.CreationDate,2020-06-29T09:09:20+02:00
; #@! TF.GenerationSoftware,Kicad,Pcbnew,(5.1.2)-1
FMAT,2
METRIC
T1C0.200
T2C0.400
T3C0.600
T4C1.000
T5C1.200
T6C1.500
T7C3.000
T8C1.800
T9C3.200
%
G90
G05
T1
X111.506Y-53.848
X112.456Y-53.273
X112.456Y-54.423
X113.406Y-53.848
T2
X56.896Y-31.369
X58.07Y-83.566
X58.42Y-78.74
X58.928Y-73.406
X62.484Y-78.994
X66.167Y-82.55
X66.294Y-76.962
X66.967Y-57.531
X67.31Y-44.196
X67.691Y-54.864
X68.326Y-91.186
X68.834Y-76.962
X69.596Y-54.864
X70.612Y-33.274
X71.12Y-58.674
X72.009Y-61.341
X72.517Y-29.337
X72.898Y-64.008
X73.66Y-29.337
X73.787Y-66.675
X74.168Y-44.196
X74.549Y-27.178
X74.676Y-69.342
X75.438Y-25.908
X75.565Y-72.009
X75.692Y-57.277
X76.327Y-35.306
X76.454Y-74.676
X77.47Y-79.375
X77.978Y-78.486
X78.232Y-57.277
X78.613Y-36.449
X80.518Y-83.566
X83.4Y-80.391
X83.65Y-82.55
X83.693Y-74.676
X83.82Y-58.674
X83.82Y-61.341
X83.82Y-64.008
X83.82Y-66.675
X83.82Y-69.342
X83.82Y-72.009
X87.249Y-48.768
X87.376Y-36.576
X88.456Y-48.704
X88.646Y-26.67
X88.646Y-36.576
X89.599Y-48.578
X89.662Y-80.518
X89.662Y-83.566
X89.916Y-26.67
X89.916Y-36.576
X90.043Y-58.711
X90.043Y-61.341
X90.043Y-64.008
X90.043Y-66.675
X90.043Y-69.342
X90.043Y-72.009
X90.068Y-56.998
X90.731Y-48.461
X91.059Y-74.803
X91.186Y-26.67
X91.186Y-36.576
X92.329Y-32.385
X92.456Y-26.67
X94.234Y-80.391
X94.488Y-83.566
X94.996Y-57.277
X94.996Y-62.611
X94.996Y-65.278
X95.123Y-59.944
X95.123Y-67.945
X95.123Y-70.612
X95.123Y-73.279
X95.25Y-39.497
X95.25Y-47.596
X96.266Y-82.55
X98.298Y-59.69
X100.203Y-43.434
X103.632Y-58.42
X105.791Y-52.488
X107.442Y-57.953
X108.458Y-75.729
X109.093Y-53.848
X109.982Y-47.371
X111.633Y-80.391
X112.343Y-83.566
X114.173Y-82.55
X114.998Y-52.451
X114.998Y-56.007
X116.713Y-51.816
X119.38Y-57.953
X119.38Y-65.278
X119.825Y-55.181
X122.523Y-56.479
X123.49Y-81.5
X124.603Y-83.566
X126.238Y-51.562
X127.508Y-51.562
X128.778Y-51.625
X130.048Y-77.724
X132.28Y-82.604
X132.461Y-50.673
X132.588Y-76.708
X133.477Y-50.419
X133.858Y-59.944
X133.858Y-61.214
X133.858Y-62.484
X133.858Y-75.692
X134.493Y-50.292
X135.128Y-59.944
X135.128Y-62.484
X135.509Y-50.165
X136.398Y-59.944
X136.398Y-61.214
X136.398Y-62.484
X136.398Y-74.676
X136.525Y-50.038
X137.668Y-74.803
X138.938Y-74.803
X140.208Y-73.66
X141.478Y-72.771
X144.399Y-82.55
X148.971Y-82.804
T3
X54.483Y-92.964
X55.372Y-72.898
X56.007Y-91.694
X56.896Y-51.943
X56.896Y-57.531
X58.558Y-33.744
X59.055Y-24.638
X60.452Y-79.375
X61.468Y-73.279
X64.897Y-79.375
X67.183Y-72.771
X67.818Y-80.01
X69.088Y-26.289
X69.532Y-46.545
X72.009Y-37.084
X73.406Y-50.673
X75.311Y-53.848
X77.978Y-54.229
X78.105Y-45.72
X79.248Y-76.454
X79.375Y-45.72
X80.645Y-45.72
X81.153Y-36.195
X81.915Y-45.72
X85.344Y-51.181
X91.186Y-45.339
X91.186Y-46.609
X91.694Y-92.456
X92.583Y-45.339
X92.583Y-46.609
X95.758Y-52.451
X95.758Y-53.594
X97.536Y-52.578
X98.298Y-53.594
X98.679Y-46.355
X100.266Y-38.291
X100.584Y-46.99
X102.616Y-52.451
X104.013Y-79.502
X109.474Y-29.464
X110.744Y-92.71
X118.237Y-53.276
X118.237Y-75.819
X118.558Y-33.744
X123.19Y-63.627
X124.968Y-92.456
X128.558Y-28.744
X128.778Y-42.355
X133.667Y-42.291
X136.271Y-42.227
X138.049Y-42.672
X140.208Y-78.359
X141.478Y-51.435
X143.002Y-88.9
X143.256Y-92.202
X143.558Y-28.744
X146.812Y-88.9
X146.812Y-92.202
T4
X135.128Y-61.214
X147.988Y-38.284
X147.988Y-40.284
X147.988Y-42.284
X53.848Y-40.331
X53.848Y-44.831
X60.348Y-40.331
X60.348Y-44.831
X62.488Y-47.284
X62.488Y-49.824
X62.488Y-52.364
X62.488Y-54.904
X62.488Y-57.444
X62.488Y-59.984
X62.491Y-24.273
X65.031Y-24.273
X67.571Y-24.273
X70.111Y-24.273
X72.651Y-24.273
X75.191Y-24.273
X77.731Y-24.273
X80.271Y-24.273
X82.811Y-24.273
X85.351Y-24.273
X87.891Y-24.273
X90.431Y-24.273
X92.971Y-24.273
X95.511Y-24.273
X98.051Y-24.273
X100.591Y-24.273
X53.721Y-62.556
X53.721Y-67.056
X60.221Y-62.556
X60.221Y-67.056
X105.488Y-24.134
X105.488Y-47.434
X108.028Y-47.384
X117.248Y-47.434
X119.788Y-24.134
X119.788Y-47.434
T5
X57.096Y-199.108
X57.096Y-204.108
X69.596Y-199.108
X69.596Y-204.108
X111.452Y-114.888
X111.452Y-119.888
X123.952Y-114.888
X123.952Y-119.888
X57.096Y-148.797
X57.096Y-153.797
X69.596Y-148.797
X69.596Y-153.797
X93.418Y-182.325
X93.418Y-187.325
X105.918Y-182.325
X105.918Y-187.325
X129.486Y-114.888
X129.486Y-119.888
X141.986Y-114.888
X141.986Y-119.888
X93.418Y-114.888
X93.418Y-119.888
X105.918Y-114.888
X105.918Y-119.888
X111.452Y-165.688
X111.452Y-170.688
X123.952Y-165.688
X123.952Y-170.688
X75.13Y-182.325
X75.13Y-187.325
X87.63Y-182.325
X87.63Y-187.325
X111.452Y-182.325
X111.452Y-187.325
X123.952Y-182.325
X123.952Y-187.325
X75.13Y-97.87
X75.13Y-102.87
X87.63Y-97.87
X87.63Y-102.87
X57.096Y-98.044
X57.096Y-103.044
X69.596Y-98.044
X69.596Y-103.044
X75.13Y-131.779
X75.13Y-136.779
X87.63Y-131.779
X87.63Y-136.779
X111.452Y-131.652
X111.452Y-136.652
X123.952Y-131.652
X123.952Y-136.652
X57.096Y-165.561
X57.096Y-170.561
X69.596Y-165.561
X69.596Y-170.561
X93.418Y-199.089
X93.418Y-204.089
X105.918Y-199.089
X105.918Y-204.089
X57.096Y-114.888
X57.096Y-119.888
X69.596Y-114.888
X69.596Y-119.888
X129.486Y-182.325
X129.486Y-187.325
X141.986Y-182.325
X141.986Y-187.325
X129.486Y-198.962
X129.486Y-203.962
X141.986Y-198.962
X141.986Y-203.962
X93.418Y-131.779
X93.418Y-136.779
X105.918Y-131.779
X105.918Y-136.779
X93.418Y-148.797
X93.418Y-153.797
X105.918Y-148.797
X105.918Y-153.797
X129.486Y-165.561
X129.486Y-170.561
X141.986Y-165.561
X141.986Y-170.561
X75.13Y-199.216
X75.13Y-204.216
X87.63Y-199.216
X87.63Y-204.216
X111.452Y-198.962
X111.452Y-203.962
X123.952Y-198.962
X123.952Y-203.962
X75.13Y-114.888
X75.13Y-119.888
X87.63Y-114.888
X87.63Y-119.888
X75.13Y-148.797
X75.13Y-153.797
X87.63Y-148.797
X87.63Y-153.797
X111.452Y-148.543
X111.452Y-153.543
X123.952Y-148.543
X123.952Y-153.543
X57.096Y-182.264
X57.096Y-187.264
X69.596Y-182.264
X69.596Y-187.264
X111.452Y-97.87
X111.452Y-102.87
X123.952Y-97.87
X123.952Y-102.87
X57.096Y-131.732
X57.096Y-136.732
X69.596Y-131.732
X69.596Y-136.732
X93.418Y-165.561
X93.418Y-170.561
X105.918Y-165.561
X105.918Y-170.561
X129.486Y-131.652
X129.486Y-136.652
X141.986Y-131.652
X141.986Y-136.652
X93.418Y-97.87
X93.418Y-102.87
X105.918Y-97.87
X105.918Y-102.87
X129.486Y-97.87
X129.486Y-102.87
X141.986Y-97.87
X141.986Y-102.87
X129.486Y-148.543
X129.486Y-153.543
X141.986Y-148.543
X141.986Y-153.543
X75.184Y-165.561
X75.184Y-170.561
X87.684Y-165.561
X87.684Y-170.561
T6
X147.988Y-36.184
X147.988Y-44.384
T7
X64.988Y-35.941
X137.988Y-35.941
T9
X54.991Y-79.273
X147.991Y-79.273
T8
G00X144.734Y-100.203
M15
G01X145.334Y-100.203
M16
G05
G00X97.663Y-88.565
M15
G01X97.663Y-87.965
M16
G05
G00X144.734Y-184.759
M15
G01X145.334Y-184.759
M16
G05
G00X144.734Y-167.767
M15
G01X145.334Y-167.767
M16
G05
G00X144.734Y-117.221
M15
G01X145.334Y-117.221
M16
G05
G00X115.544Y-88.311
M15
G01X115.544Y-87.711
M16
G05
G00X144.734Y-201.295
M15
G01X145.334Y-201.295
M16
G05
G00X61.214Y-88.692
M15
G01X61.214Y-88.092
M16
G05
G00X144.734Y-133.985
M15
G01X145.334Y-133.985
M16
G05
G00X133.731Y-88.311
M15
G01X133.731Y-87.711
M16
G05
G00X79.375Y-88.565
M15
G01X79.375Y-87.965
M16
G05
G00X144.734Y-150.749
M15
G01X145.334Y-150.749
M16
G05
T9
G00X54.991Y-24.373
M15
G01X54.991Y-26.173
M16
G05
G00X147.991Y-24.373
M15
G01X147.991Y-26.173
M16
G05
T0
M30
